<?xml version="1.0" encoding="UTF-8"?>
<svg xmlns="http://www.w3.org/2000/svg" xmlns:xlink="http://www.w3.org/1999/xlink" version="1.2" >
<font id="Exquise FY Italic">
<font-face  font-family="Exquise FY" units-per-em="1000" ascent="780" descent="-220" font-style="italic" font-weight="400" font-stretch="normal" slope="-12" cap-height="697" x-height="457" underline-position="-85" underline-thickness="30" />
<missing-glyph  horiz-adv-x="673" d="M351 135 Q306 157 266.5 186.5 Q227 216 197 250 Q167 284 149.5 321 Q132 358 132 394 Q132 445 160.5 471.5 Q189 498 236 498 Q268 498 298 481 Q328 464 351 432 Q374 464 404 481 Q434 498 466 498 Q513 498 541.5 471.5 Q570 445 570 394 Q570 358 552.5 321 Q535 284 505 250 Q475 216 435.5 186.5 Q396 157 351 135 Z " />
<glyph glyph-name=".null" d="" />
<glyph glyph-name="&amp;#x0;" d="" />
<glyph glyph-name="&amp;#xd;" unicode="&#xd;" d="" />
<glyph glyph-name="space" unicode="&#x20;" horiz-adv-x="185" d="" />
<glyph glyph-name="exclam" unicode="&#x21;" horiz-adv-x="311" d="M112 185 Q122 236 127.5 288 Q133 340 136 391 Q141 468 144 533.5 Q147 599 155 641 Q161 671 179 689.5 Q197 708 225 708 Q248 708 259.5 695.5 Q271 683 271 661 Q271 630 254 577.5 Q237 525 214.5 461 Q192 397 169.5 325.5 Q147 254 136 185 L112 185 Z M87 -9 Q64 -9 52 3.5 Q40 16 40 35 Q40 61 59.5 82 Q79 103 108 103 Q131 103 143.5 90.5 Q156 78 156 58 Q156 32 136 11.5 Q116 -9 87 -9 Z " />
<glyph glyph-name="quotedbl" unicode="&#x22;" horiz-adv-x="402" d="M126 604 Q127 631 129.5 654.5 Q132 678 137.5 695.5 Q143 713 154 723 Q165 733 183 733 Q215 733 215 702 Q215 679 207 651 Q199 623 190 593 L153 466 L119 466 L126 604 Z M316 604 Q317 631 319.5 654.5 Q322 678 327.5 695.5 Q333 713 344 723 Q355 733 373 733 Q405 733 405 702 Q405 679 397 651 Q389 623 380 593 L343 466 L309 466 L316 604 Z " />
<glyph glyph-name="numbersign" unicode="&#x23;" horiz-adv-x="620" d="M79 475 L207 475 L263 697 L303 697 L247 475 L426 475 L482 697 L522 697 L466 475 L592 475 L584 439 L457 439 L413 267 L540 267 L532 231 L404 231 L345 0 L305 0 L364 231 L185 231 L126 0 L86 0 L144 231 L18 231 L26 267 L154 267 L198 439 L71 439 L79 475 Z M194 267 L373 267 L417 439 L238 439 L194 267 Z " />
<glyph glyph-name="dollar" unicode="&#x24;" horiz-adv-x="536" d="M177 -8 Q129 -6 87 4.5 Q45 15 13 30 L49 221 L67 221 Q65 210 65 200.5 Q65 191 65 182 Q65 107 98.5 65.5 Q132 24 182 14 L241 292 Q195 316 165.5 338 Q136 360 118.5 381.5 Q101 403 94 425.5 Q87 448 87 472 Q87 515 105.5 548.5 Q124 582 155.5 605 Q187 628 228.5 640.5 Q270 653 317 653 L332 719 L356 719 L341 652 Q383 650 426 643.5 Q469 637 499 628 L465 462 L446 462 Q446 491 440 518.5 Q434 546 420.5 568.5 Q407 591 386.5 607 Q366 623 336 629 L284 383 Q368 342 404.5 295 Q441 248 441 194 Q441 99 377 45 Q313 -9 201 -9 L183 -92 L159 -92 L177 -8 Z M364 144 Q364 179 341 215 Q318 251 262 281 L205 12 Q238 12 267 20.5 Q296 29 317.5 45.5 Q339 62 351.5 87 Q364 112 364 144 Z M163 520 Q163 479 187.5 448.5 Q212 418 262 393 L313 633 Q245 633 204 601.5 Q163 570 163 520 Z " />
<glyph glyph-name="percent" unicode="&#x25;" horiz-adv-x="901" d="M135 -9 L724 708 L765 708 L176 -9 L135 -9 Z M304 708 Q349 708 375.5 672.5 Q402 637 402 583 Q402 527 386 475 Q370 423 343 383 Q316 343 280 319 Q244 295 204 295 Q159 295 129.5 331.5 Q100 368 100 432 Q100 485 116 535 Q132 585 159.5 623.5 Q187 662 224 685 Q261 708 304 708 Z M295 691 Q274 691 251.5 664 Q229 637 211 594.5 Q193 552 181.5 501 Q170 450 170 402 Q170 363 179.5 337.5 Q189 312 211 312 Q231 312 252.5 336.5 Q274 361 292 402.5 Q310 444 321.5 497.5 Q333 551 333 610 Q333 651 322.5 671 Q312 691 295 691 Z M695 404 Q740 404 766.5 368.5 Q793 333 793 279 Q793 223 777 171 Q761 119 734 79 Q707 39 671 15 Q635 -9 595 -9 Q550 -9 520.5 27.5 Q491 64 491 128 Q491 181 507 231 Q523 281 550.5 319.5 Q578 358 615 381 Q652 404 695 404 Z M686 387 Q665 387 642.5 360 Q620 333 602 290.5 Q584 248 572.5 197 Q561 146 561 98 Q561 59 570.5 33.5 Q580 8 602 8 Q622 8 643.5 32.5 Q665 57 683 98.5 Q701 140 712.5 193.5 Q724 247 724 306 Q724 347 713.5 367 Q703 387 686 387 Z " />
<glyph glyph-name="ampersand" unicode="&#x26;" horiz-adv-x="802" d="M282 550 Q282 524 290 499.5 Q298 475 314.5 456 Q331 437 354.5 425.5 Q378 414 410 414 L469 414 L465 392 L401 392 Q333 392 286.5 372.5 Q240 353 211.5 322.5 Q183 292 170 254.5 Q157 217 157 181 Q157 148 166.5 118.5 Q176 89 195.5 66 Q215 43 246 29.5 Q277 16 321 16 Q375 16 420.5 36 Q466 56 499.5 91 Q533 126 553.5 173 Q574 220 578 274 L459 274 Q403 274 377.5 257 Q352 240 343 218 L441 141 Q432 128 415.5 119.5 Q399 111 379 111 Q349 111 331 128.5 Q313 146 313 178 Q313 199 320.5 219.5 Q328 240 346 256 Q364 272 393 282 Q422 292 464 292 L623 292 Q678 292 703.5 309.5 Q729 327 738 349 L641 427 Q650 439 666.5 448 Q683 457 703 457 Q733 457 751 439.5 Q769 422 769 390 Q769 369 761.5 348 Q754 327 736 310.5 Q718 294 689 284 Q660 274 618 274 L598 274 Q594 220 573 169 Q552 118 515 78.5 Q478 39 426 15 Q374 -9 308 -9 Q244 -9 196 7.5 Q148 24 116.5 51 Q85 78 69 113.5 Q53 149 53 187 Q53 223 67.5 260.5 Q82 298 114 329.5 Q146 361 197 382 Q248 403 322 407 Q286 414 259.5 428 Q233 442 215.5 460.5 Q198 479 190 500.5 Q182 522 182 545 Q182 585 201.5 615.5 Q221 646 253 666.5 Q285 687 326 697.5 Q367 708 411 708 Q437 708 459 704 Q481 700 498.5 695.5 Q516 691 530 687 Q544 683 554 683 Q574 683 580 708 L598 708 L554 502 L537 502 L545 542 Q548 558 548 572 Q548 600 537.5 622 Q527 644 509 658.5 Q491 673 468 680.5 Q445 688 421 688 Q395 688 370.5 679.5 Q346 671 326 654 Q306 637 294 611 Q282 585 282 550 Z " />
<glyph glyph-name="quotesingle" unicode="&#x27;" horiz-adv-x="212" d="M126 604 Q127 631 129.5 654.5 Q132 678 137.5 695.5 Q143 713 154 723 Q165 733 183 733 Q215 733 215 702 Q215 679 207 651 Q199 623 190 593 L153 466 L119 466 L126 604 Z " />
<glyph glyph-name="parenleft" unicode="&#x28;" horiz-adv-x="386" d="M419 736 Q356 697 304.5 629 Q253 561 216.5 480 Q180 399 159.5 313 Q139 227 139 152 Q139 104 145.5 58.5 Q152 13 164.5 -25 Q177 -63 194.5 -93 Q212 -123 235 -140 L226 -152 Q144 -99 102 -13.5 Q60 72 60 178 Q60 265 85.5 348.5 Q111 432 157.5 505.5 Q204 579 269 641 Q334 703 414 748 L419 736 Z " />
<glyph glyph-name="parenright" unicode="&#x29;" horiz-adv-x="380" d="M-63 -140 Q0 -101 51.5 -33 Q103 35 139.5 116 Q176 197 196.5 283 Q217 369 217 444 Q217 492 210.5 537.5 Q204 583 191.5 621 Q179 659 161 689 Q143 719 121 736 L130 748 Q212 695 254 609.5 Q296 524 296 418 Q296 331 270.5 247.5 Q245 164 198.5 90.5 Q152 17 87 -45 Q22 -107 -58 -152 L-63 -140 Z " />
<glyph glyph-name="asterisk" unicode="&#x2a;" horiz-adv-x="457" d="M270 433 Q276 409 281.5 385 Q287 361 287 337 Q287 316 276.5 306.5 Q266 297 248 297 Q230 297 219.5 306.5 Q209 316 209 337 Q209 360 213.5 385 Q218 410 226 433 L240 489 L199 449 Q190 441 178.5 429 Q167 417 154 406 Q141 395 127 387 Q113 379 101 379 Q86 379 74.5 392.5 Q63 406 63 422 Q63 437 76.5 448 Q90 459 108.5 466.5 Q127 474 146.5 479 Q166 484 177 487 L233 502 L178 518 Q168 521 149 526 Q130 531 111 538.5 Q92 546 78 557.5 Q64 569 64 584 Q64 598 74.5 612 Q85 626 101 626 Q111 626 124.5 619 Q138 612 151.5 601.5 Q165 591 178 579 Q191 567 200 557 L241 515 L227 572 Q221 596 215.5 619.5 Q210 643 210 666 Q210 689 220.5 698.5 Q231 708 249 708 Q267 708 277.5 698.5 Q288 689 288 668 Q288 642 282.5 619 Q277 596 271 572 L256 515 L298 556 Q307 564 319 576 Q331 588 344 599 Q357 610 370.5 618 Q384 626 396 626 Q411 626 422.5 612.5 Q434 599 434 583 Q434 568 420.5 557 Q407 546 388.5 538.5 Q370 531 351 526 Q332 521 320 518 L262 502 L320 486 Q330 483 349 478 Q368 473 386.5 465.5 Q405 458 419 447 Q433 436 433 421 Q433 407 422.5 393 Q412 379 396 379 Q378 379 356 395 Q334 411 312 433 L255 490 L270 433 Z " />
<glyph glyph-name="plus" unicode="&#x2b;" horiz-adv-x="696" d="M361 276 L311 40 L252 40 L302 276 L56 276 L67 324 L313 324 L363 560 L422 560 L372 324 L618 324 L607 276 L361 276 Z " />
<glyph glyph-name="comma" unicode="&#x2c;" horiz-adv-x="261" d="M-29 -126 Q22 -94 39.5 -71.5 Q57 -49 57 -33 Q57 -25 50 -19 Q43 -13 34.5 -6 Q26 1 19 10.5 Q12 20 12 35 Q12 48 17.5 60 Q23 72 33 81.5 Q43 91 55.5 96.5 Q68 102 82 102 Q102 102 117.5 89.5 Q133 77 133 52 Q133 25 118 -3.5 Q103 -32 80.5 -58 Q58 -84 31.5 -106 Q5 -128 -19 -142 L-29 -126 L-29 -126 Z " />
<glyph glyph-name="hyphen" unicode="&#x2d;" horiz-adv-x="373" d="M36 277 L305 277 L292 229 L23 229 L36 277 Z " />
<glyph glyph-name="period" unicode="&#x2e;" horiz-adv-x="281" d="M78 -9 Q55 -9 42.5 4 Q30 17 30 37 Q30 63 48 82.5 Q66 102 97 102 Q120 102 133 90 Q146 78 146 58 Q146 31 126 11 Q106 -9 78 -9 Z " />
<glyph glyph-name="slash" unicode="&#x2f;" horiz-adv-x="394" d="M351 728 L411 728 L42 -40 L-17 -40 L351 728 Z " />
<glyph glyph-name="zero" unicode="0" horiz-adv-x="502" d="M282 483 Q316 483 344.5 470.5 Q373 458 393.5 434 Q414 410 425.5 375.5 Q437 341 437 297 Q437 230 415.5 174 Q394 118 358 77.5 Q322 37 275.5 14 Q229 -9 179 -9 Q138 -9 108 5 Q78 19 59 43.5 Q40 68 31 101 Q22 134 22 172 Q22 248 46 306 Q70 364 108 403.5 Q146 443 192 463 Q238 483 282 483 Z M274 464 Q239 464 209 440 Q179 416 156.5 374 Q134 332 121.5 275.5 Q109 219 109 155 Q109 123 112.5 96.5 Q116 70 125 50.5 Q134 31 149.5 20 Q165 9 188 9 Q222 9 252 29.5 Q282 50 304 89.5 Q326 129 339 187.5 Q352 246 352 322 Q352 464 274 464 Z " />
<glyph glyph-name="one" unicode="1" horiz-adv-x="376" d="M24 322 Q55 337 87 356.5 Q119 376 150.5 397.5 Q182 419 211 442.5 Q240 466 264 489 L285 489 L185 18 L286 18 L283 0 L-20 0 L-17 18 L103 18 L182 387 Q147 363 111.5 343.5 Q76 324 34 304 L24 322 Z " />
<glyph glyph-name="two" unicode="2" horiz-adv-x="461" d="M336 22 Q322 5 303.5 -2 Q285 -9 266 -9 Q233 -9 207 0 Q181 9 158 20.5 Q135 32 112.5 41 Q90 50 65 50 Q35 50 12 32 Q-11 14 -29 -12 L-40 -1 Q-17 45 18 79.5 Q53 114 92 143 Q129 171 165 196.5 Q201 222 230 250.5 Q259 279 277 312.5 Q295 346 295 390 Q295 424 275 443.5 Q255 463 221 463 Q185 463 150 444.5 Q115 426 95 399 L157 294 Q150 286 135 276.5 Q120 267 102 267 Q78 267 62 284 Q46 301 46 333 Q46 365 63.5 393 Q81 421 110 441.5 Q139 462 176.5 474 Q214 486 255 486 Q318 486 353.5 456 Q389 426 389 384 Q389 360 379.5 340 Q370 320 352.5 302 Q335 284 309.5 266 Q284 248 252 228 Q226 212 204 197.5 Q182 183 161 167.5 Q140 152 119 135.5 Q98 119 74 100 Q85 104 95.5 105.5 Q106 107 115 107 Q132 107 148.5 104 Q165 101 182 97 Q199 93 217.5 90 Q236 87 256 87 Q274 87 290 90.5 Q306 94 320.5 105 Q335 116 348 137.5 Q361 159 374 194 L391 194 L336 22 Z " />
<glyph glyph-name="three" unicode="3" horiz-adv-x="457" d="M-29 -143 Q-10 -151 15 -157.5 Q40 -164 69 -164 Q115 -164 151.5 -147.5 Q188 -131 213.5 -104.5 Q239 -78 253 -44.5 Q267 -11 267 24 Q267 83 234 111.5 Q201 140 143 140 Q120 140 101 135.5 Q82 131 57 122 L52 142 L94 155 Q152 172 191.5 196 Q231 220 255 247.5 Q279 275 289.5 304 Q300 333 300 360 Q300 386 292 405 Q284 424 271.5 436 Q259 448 242.5 454 Q226 460 209 460 Q174 460 137.5 443 Q101 426 78 393 L134 297 Q123 283 110 277 Q97 271 83 271 Q63 271 48 286.5 Q33 302 33 330 Q33 363 51 391.5 Q69 420 98.5 441 Q128 462 166 474 Q204 486 244 486 Q275 486 302.5 478 Q330 470 349.5 455 Q369 440 380.5 419 Q392 398 392 372 Q392 306 335.5 254.5 Q279 203 178 172 Q263 172 312 135 Q361 98 361 31 Q361 -15 340.5 -55 Q320 -95 283.5 -124.5 Q247 -154 196 -171 Q145 -188 85 -188 Q42 -188 11.5 -180 Q-19 -172 -38 -164 L-29 -143 Z " />
<glyph glyph-name="four" unicode="4" horiz-adv-x="421" d="M314 477 L351 477 L255 24 L337 24 L332 0 L249 0 L214 -162 L294 -162 L291 -180 L51 -180 L54 -162 L135 -162 L170 0 L-65 0 L-63 15 L314 477 Z M175 24 L250 360 L-25 24 L175 24 Z " />
<glyph glyph-name="five" unicode="5" horiz-adv-x="454" d="M378 88 Q378 17 348 -35.5 Q318 -88 271.5 -122 Q225 -156 169 -172.5 Q113 -189 61 -189 Q-3 -189 -55 -166 L-48 -148 Q-1 -167 41 -167 Q95 -167 139.5 -148.5 Q184 -130 216 -95.5 Q248 -61 266 -12.5 Q284 36 284 95 Q284 152 261 182 Q238 212 196 212 Q154 212 116 183 Q78 154 51 109 L23 109 L104 473 L355 473 Q383 473 398.5 487.5 Q414 502 422 526 L434 526 L409 385 L107 385 L52 145 Q123 239 229 239 Q293 239 335.5 199.5 Q378 160 378 88 Z " />
<glyph glyph-name="six" unicode="6" horiz-adv-x="509" d="M457 644 Q449 649 432 652.5 Q415 656 398 656 Q304 656 240 585.5 Q176 515 147 378 Q179 432 216 456.5 Q253 481 301 481 Q364 481 400.5 436.5 Q437 392 437 310 Q437 244 416 186 Q395 128 361 84.5 Q327 41 284 16 Q241 -9 196 -9 Q123 -9 84 51.5 Q45 112 45 221 Q45 298 68 379 Q91 460 135.5 526.5 Q180 593 245 635.5 Q310 678 394 678 Q416 678 435 673 Q454 668 464 662 L457 644 Z M202 9 Q235 9 261 36 Q287 63 305.5 106.5 Q324 150 334 204.5 Q344 259 344 315 Q344 378 329 416.5 Q314 455 276 455 Q253 455 226.5 436 Q200 417 177 379.5 Q154 342 138.5 286 Q123 230 123 155 Q123 88 141.5 48.5 Q160 9 202 9 Z " />
<glyph glyph-name="seven" unicode="7" horiz-adv-x="460" d="M65 452 Q89 467 111.5 474.5 Q134 482 163 482 Q194 482 220.5 473 Q247 464 271.5 452.5 Q296 441 320.5 432 Q345 423 372 423 Q401 423 420.5 445 Q440 467 447 496 L470 496 Q465 441 435.5 392.5 Q406 344 364 299.5 Q322 255 273.5 214 Q225 173 182 132 Q139 91 106.5 49.5 Q74 8 65 -36 L181 -138 Q174 -153 155 -166 Q136 -179 114 -179 Q83 -179 57 -155 Q31 -131 31 -81 Q31 -32 53.5 11.5 Q76 55 111.5 95.5 Q147 136 190.5 173.5 Q234 211 276.5 248.5 Q319 286 355 324.5 Q391 363 412 404 Q390 383 366.5 374 Q343 365 323 365 Q299 365 279 369 Q259 373 240.5 377.5 Q222 382 201.5 386 Q181 390 156 390 Q143 390 128 387 Q113 384 99 376 Q85 368 74 354 Q63 340 58 318 L48 278 L30 278 L65 452 Z " />
<glyph glyph-name="eight" unicode="8" horiz-adv-x="527" d="M447 195 Q447 144 426 106 Q405 68 370.5 42.5 Q336 17 292 4 Q248 -9 201 -9 Q122 -9 73.5 23.5 Q25 56 25 127 Q25 168 41 200.5 Q57 233 83.5 260 Q110 287 144.5 308.5 Q179 330 216 348 Q192 367 174.5 384.5 Q157 402 145.5 420 Q134 438 128 458.5 Q122 479 122 505 Q122 538 137.5 569.5 Q153 601 181 625 Q209 649 248.5 664 Q288 679 337 679 Q370 679 397 670.5 Q424 662 442.5 647 Q461 632 471.5 611.5 Q482 591 482 568 Q482 535 468.5 507 Q455 479 433 455 Q411 431 383.5 412.5 Q356 394 329 381 Q383 338 415 293.5 Q447 249 447 195 Z M315 391 Q365 426 391 466.5 Q417 507 417 563 Q417 609 392.5 635 Q368 661 328 661 Q303 661 280.5 651.5 Q258 642 241.5 625.5 Q225 609 215.5 587 Q206 565 206 540 Q206 501 231.5 468 Q257 435 315 391 Z M207 10 Q237 10 264.5 21.5 Q292 33 313 52.5 Q334 72 346 99 Q358 126 358 157 Q358 188 346.5 213.5 Q335 239 317 260.5 Q299 282 276 300 Q253 318 230 336 Q163 296 128.5 243 Q94 190 94 129 Q94 70 125 40 Q156 10 207 10 Z " />
<glyph glyph-name="nine" unicode="9" horiz-adv-x="501" d="M7 -155 Q18 -160 35 -163 Q52 -166 63 -166 Q110 -166 150.5 -148.5 Q191 -131 224 -99 Q257 -67 283.5 -21 Q310 25 328 81 Q303 45 266.5 18 Q230 -9 180 -9 Q114 -9 76 38 Q38 85 38 171 Q38 238 59.5 295.5 Q81 353 116 394.5 Q151 436 195 459.5 Q239 483 284 483 Q319 483 346.5 467 Q374 451 392.5 423 Q411 395 421 357 Q431 319 431 276 Q431 173 402 87.5 Q373 2 323.5 -59.5 Q274 -121 209.5 -155 Q145 -189 75 -189 Q38 -189 0 -173 L7 -155 Z M350 331 Q350 359 346 383.5 Q342 408 333.5 426 Q325 444 311.5 454.5 Q298 465 280 465 Q246 465 219 440 Q192 415 173 374 Q154 333 143.5 278.5 Q133 224 133 166 Q133 13 206 13 Q238 13 264.5 40.5 Q291 68 310 113 Q329 158 339.5 215 Q350 272 350 331 Z " />
<glyph glyph-name="colon" unicode="&#x3a;" horiz-adv-x="311" d="M93 -9 Q70 -9 57.5 4 Q45 17 45 37 Q45 63 63 82.5 Q81 102 112 102 Q135 102 148 90 Q161 78 161 58 Q161 31 141 11 Q121 -9 93 -9 Z M156 337 Q133 337 120.5 350 Q108 363 108 383 Q108 409 126 428.5 Q144 448 175 448 Q198 448 211 436 Q224 424 224 404 Q224 377 204 357 Q184 337 156 337 Z " />
<glyph glyph-name="semicolon" unicode="&#x3b;" horiz-adv-x="291" d="M-14 -126 Q37 -94 54.5 -71.5 Q72 -49 72 -33 Q72 -25 65 -19 Q58 -13 49.5 -6 Q41 1 34 10.5 Q27 20 27 35 Q27 48 32.5 60 Q38 72 48 81.5 Q58 91 70.5 96.5 Q83 102 97 102 Q117 102 132.5 89.5 Q148 77 148 52 Q148 25 133 -3.5 Q118 -32 95.5 -58 Q73 -84 46.5 -106 Q20 -128 -4 -142 L-14 -126 Z M147 337 Q124 337 111.5 350 Q99 363 99 383 Q99 409 117 428.5 Q135 448 166 448 Q189 448 202 436 Q215 424 215 404 Q215 377 195 357 Q175 337 147 337 Z " />
<glyph glyph-name="less" unicode="&#x3c;" horiz-adv-x="696" d="M70 328 L642 532 L630 477 L130 300 L555 123 L543 68 L59 272 L70 328 Z " />
<glyph glyph-name="equal" unicode="&#x3d;" horiz-adv-x="696" d="M87 372 L97 421 L626 421 L616 372 L87 372 Z M48 186 L58 235 L587 235 L577 186 L48 186 Z " />
<glyph glyph-name="greater" unicode="&#x3e;" horiz-adv-x="696" d="M603 262 L31 58 L43 113 L543 290 L118 467 L130 522 L614 318 L603 262 Z " />
<glyph glyph-name="question" unicode="&#x3f;" horiz-adv-x="490" d="M207 492 Q199 484 184 475 Q169 466 143 466 Q117 466 98.5 481.5 Q80 497 80 527 Q80 568 101 601.5 Q122 635 155.5 658.5 Q189 682 231.5 695 Q274 708 317 708 Q353 708 385 699 Q417 690 440 673 Q463 656 476.5 632 Q490 608 490 577 Q490 533 471.5 498 Q453 463 423.5 434 Q394 405 357.5 380.5 Q321 356 285 334 Q264 321 251.5 309.5 Q239 298 231.5 284.5 Q224 271 219 254 Q214 237 210 212 L205 185 L181 185 L195 259 Q200 287 217 309 Q234 331 256 352 Q278 373 302 395 Q326 417 346.5 444 Q367 471 380 505 Q393 539 393 585 Q393 612 384 631.5 Q375 651 360 663.5 Q345 676 325.5 681.5 Q306 687 285 687 Q262 687 238.5 680 Q215 673 194 661 Q173 649 156 633.5 Q139 618 130 602 L207 492 Z M155 -9 Q132 -9 120 3.5 Q108 16 108 35 Q108 61 127.5 82 Q147 103 176 103 Q199 103 211.5 90.5 Q224 78 224 58 Q224 32 204 11.5 Q184 -9 155 -9 Z " />
<glyph glyph-name="at" unicode="&#x40;" horiz-adv-x="816" d="M489 494 Q447 494 411 465 Q375 436 348.5 394 Q322 352 307.5 304.5 Q293 257 293 219 Q293 180 307 162 Q321 144 341 144 Q372 144 406.5 172 Q441 200 470 243.5 Q499 287 518 338.5 Q537 390 537 438 Q537 467 523 480.5 Q509 494 489 494 Z M602 498 L652 498 Q623 435 602 389 Q581 343 566.5 310.5 Q552 278 542.5 256.5 Q533 235 528 220.5 Q523 206 521 196 Q519 186 519 176 Q519 153 532 142.5 Q545 132 567 132 Q597 132 628.5 156.5 Q660 181 685 221 Q710 261 726 311.5 Q742 362 742 414 Q742 459 727 503 Q712 547 681.5 582 Q651 617 603.5 638.5 Q556 660 491 660 Q412 660 344.5 623.5 Q277 587 227.5 527.5 Q178 468 149.5 393.5 Q121 319 121 243 Q121 187 139 139.5 Q157 92 190.5 57 Q224 22 273 2 Q322 -18 385 -18 Q454 -18 508.5 -2.5 Q563 13 619 38 L622 19 Q567 -6 506.5 -23 Q446 -40 380 -40 Q306 -40 244 -20.5 Q182 -1 137.5 35.5 Q93 72 68 124 Q43 176 43 242 Q43 329 79 408 Q115 487 176.5 547 Q238 607 320 642.5 Q402 678 495 678 Q560 678 613.5 660 Q667 642 704.5 608.5 Q742 575 762.5 528 Q783 481 783 424 Q783 372 765 317 Q747 262 715.5 217 Q684 172 640.5 143 Q597 114 546 114 Q509 114 483 134.5 Q457 155 457 195 Q427 157 387.5 135.5 Q348 114 308 114 Q271 114 246.5 138.5 Q222 163 222 216 Q222 266 243 318.5 Q264 371 299 413.5 Q334 456 381 483.5 Q428 511 479 511 Q511 511 531 496 Q551 481 558 448 L602 498 Z " />
<glyph glyph-name="A" unicode="A" horiz-adv-x="567" d="M271 18 L379 18 L347 246 L128 246 L4 18 L112 18 L107 0 L-69 0 L-64 18 L-23 18 L351 708 L376 708 L474 18 L512 18 L507 0 L266 0 L271 18 Z M301 567 L140 269 L344 269 L301 567 Z " />
<glyph glyph-name="B" unicode="B" horiz-adv-x="592" d="M91 657 Q141 680 200.5 694 Q260 708 316 708 Q367 708 409.5 697.5 Q452 687 483 666.5 Q514 646 531 616 Q548 586 548 547 Q548 502 529.5 470.5 Q511 439 483 418 Q455 397 421.5 385.5 Q388 374 358 368 Q444 360 489 319.5 Q534 279 534 216 Q534 171 513.5 132 Q493 93 454 63.5 Q415 34 358 17 Q301 0 228 0 L-39 0 L-34 18 L44 18 L154 535 Q163 579 178.5 614.5 Q194 650 220 679 Q197 675 161.5 664 Q126 653 97 640 L91 657 Z M200 354 L129 18 L213 18 Q321 18 378.5 70 Q436 122 436 216 Q436 245 423.5 270.5 Q411 296 387.5 314.5 Q364 333 331.5 343.5 Q299 354 259 354 L200 354 Z M204 372 L229 372 Q291 372 333.5 386.5 Q376 401 402 425.5 Q428 450 439 482.5 Q450 515 450 552 Q450 579 443 603.5 Q436 628 419 646 Q402 664 374 675 Q346 686 304 686 Q296 686 288 685.5 Q280 685 272 684 L204 372 Z " />
<glyph glyph-name="C" unicode="C" horiz-adv-x="556" d="M287 16 Q332 16 364.5 30 Q397 44 420.5 65 Q444 86 460.5 110 Q477 134 489 154 L503 144 Q490 121 470 94.5 Q450 68 421.5 45 Q393 22 355.5 6.5 Q318 -9 269 -9 Q205 -9 161.5 12.5 Q118 34 91 71.5 Q64 109 52 159 Q40 209 40 266 Q40 316 50.5 368.5 Q61 421 82 470 Q103 519 133.5 562.5 Q164 606 204 638 Q244 670 293 689 Q342 708 400 708 Q446 708 478 697 Q510 686 529.5 668 Q549 650 558 626.5 Q567 603 567 578 Q567 553 559 534.5 Q551 516 539 503.5 Q527 491 511.5 484.5 Q496 478 481 478 Q457 478 445.5 487 Q434 496 430 504 L542 614 Q526 651 494.5 670 Q463 689 406 689 Q341 689 291.5 651.5 Q242 614 209 552 Q176 490 159.5 411 Q143 332 143 250 Q143 128 182 72 Q221 16 287 16 Z " />
<glyph glyph-name="D" unicode="D" horiz-adv-x="662" d="M81 660 Q123 680 180 694 Q237 708 317 708 Q389 708 446 687.5 Q503 667 542.5 628 Q582 589 603.5 533 Q625 477 625 406 Q625 313 591.5 238 Q558 163 499 110 Q440 57 359 28.5 Q278 0 184 0 L-43 0 L-38 18 L43 18 L154 535 Q161 566 166.5 588.5 Q172 611 178 627 Q184 643 191.5 655 Q199 667 211 679 Q181 674 147.5 664 Q114 654 87 642 L81 660 Z M129 18 L171 18 Q250 18 315.5 45.5 Q381 73 428.5 126.5 Q476 180 502 258.5 Q528 337 528 440 Q528 504 510 550 Q492 596 458 626 Q424 656 376.5 670 Q329 684 271 684 L129 18 Z " />
<glyph glyph-name="E" unicode="E" horiz-adv-x="550" d="M442 697 Q509 697 538 669.5 Q567 642 567 606 Q567 563 541.5 534 Q516 505 472 505 Q453 505 443 511.5 Q433 518 428 525 L529 638 Q515 661 495 670 Q475 679 438 679 L263 679 L195 359 L400 359 L395 340 L191 340 L123 18 L213 18 Q324 18 386.5 53.5 Q449 89 469 149 L476 171 L488 171 L448 0 L-48 0 L-43 18 L38 18 L178 679 L96 679 L100 697 L442 697 Z " />
<glyph glyph-name="F" unicode="F" horiz-adv-x="523" d="M239 18 L235 0 L-47 0 L-42 18 L38 18 L178 679 L96 679 L100 697 L437 697 Q504 697 533 674 Q562 651 562 616 Q562 591 555 573 Q548 555 536 543.5 Q524 532 509 526.5 Q494 521 478 521 Q455 521 444.5 527.5 Q434 534 429 541 L524 648 Q513 664 491.5 671.5 Q470 679 433 679 L264 679 L195 359 L409 359 L403 340 L191 340 L122 18 L239 18 Z " />
<glyph glyph-name="G" unicode="G" horiz-adv-x="632" d="M490 0 L477 0 Q472 5 464.5 8 Q457 11 445 11 Q436 11 419 8 Q402 5 380.5 1 Q359 -3 336 -6 Q313 -9 292 -9 Q220 -9 171.5 13 Q123 35 94.5 74 Q66 113 54 166.5 Q42 220 42 283 Q42 329 52.5 379 Q63 429 84 476 Q105 523 137 565 Q169 607 212 639 Q255 671 308.5 689.5 Q362 708 427 708 Q472 708 503 697 Q534 686 553.5 668.5 Q573 651 581.5 629.5 Q590 608 590 586 Q590 561 581.5 543.5 Q573 526 559.5 515 Q546 504 530.5 499 Q515 494 502 494 Q478 494 466.5 503 Q455 512 451 520 L560 627 Q542 658 511 673.5 Q480 689 428 689 Q355 689 301 650 Q247 611 211.5 551 Q176 491 158.5 419 Q141 347 141 280 Q141 218 149.5 168.5 Q158 119 177 84 Q196 49 226.5 30 Q257 11 300 11 Q335 11 363.5 19.5 Q392 28 415 43 L465 271 L381 271 L385 288 L609 288 L606 271 L548 271 L490 0 Z " />
<glyph glyph-name="H" unicode="H" horiz-adv-x="719" d="M123 18 L212 18 L208 0 L-47 0 L-42 18 L38 18 L178 679 L96 679 L100 697 L349 697 L345 679 L263 679 L199 377 L542 377 L606 679 L524 679 L528 697 L777 697 L773 679 L691 679 L551 18 L632 18 L628 0 L381 0 L385 18 L466 18 L538 355 L195 355 L123 18 Z " />
<glyph glyph-name="I" unicode="I" horiz-adv-x="301" d="M-42 0 L-37 18 L43 18 L183 679 L101 679 L105 697 L354 697 L350 679 L268 679 L128 18 L209 18 L205 0 L-42 0 Z " />
<glyph glyph-name="J" unicode="J" horiz-adv-x="362" d="M59 -18 Q40 -18 22.5 -14 Q5 -10 -8.5 -1 Q-22 8 -30 21.5 Q-38 35 -38 55 Q-38 75 -28 93 Q-18 111 7 115 L54 22 Q61 9 66.5 4.5 Q72 0 80 0 Q92 0 101.5 11 Q111 22 119.5 45.5 Q128 69 136.5 107 Q145 145 157 199 L259 679 L159 679 L163 697 L430 697 L426 679 L344 679 L236 167 Q217 79 170.5 30.5 Q124 -18 59 -18 Z " />
<glyph glyph-name="K" unicode="K" horiz-adv-x="628" d="M176 269 L123 18 L204 18 L200 0 L-47 0 L-42 18 L38 18 L178 679 L96 679 L100 697 L339 697 L335 679 L263 679 L182 300 L424 454 Q493 498 529.5 535 Q566 572 567 598 Q567 610 561.5 617 Q556 624 540 624 L460 624 Q461 659 482 683.5 Q503 708 540 708 Q575 708 590.5 687.5 Q606 667 606 635 Q606 606 593.5 580 Q581 554 559.5 529.5 Q538 505 508 482.5 Q478 460 442 439 L366 393 Q377 395 383 396 Q389 397 406 397 Q429 397 449.5 391 Q470 385 486 372 Q502 359 511 337.5 Q520 316 520 286 Q520 275 518.5 264 Q517 253 515 241 L495 133 Q492 116 490 102 Q488 88 488 77 Q488 52 496.5 42.5 Q505 33 521 33 Q535 33 546.5 42.5 Q558 52 569 66 L578 55 Q559 27 533 9 Q507 -9 470 -9 Q455 -9 442 -4.5 Q429 0 419.5 10.5 Q410 21 404.5 39 Q399 57 399 85 Q399 101 400.5 119.5 Q402 138 407 161 L425 258 Q431 291 431 314 Q431 351 417 364.5 Q403 378 380 378 Q355 378 329.5 363.5 Q304 349 268 328 L176 269 Z " />
<glyph glyph-name="L" unicode="L" horiz-adv-x="521" d="M-47 0 L-42 18 L38 18 L178 679 L96 679 L100 697 L367 697 L363 679 L263 679 L123 18 L171 18 Q240 18 288 30.5 Q336 43 367.5 63 Q399 83 415.5 108.5 Q432 134 440 160 L452 200 L465 200 L422 0 L-47 0 Z " />
<glyph glyph-name="M" unicode="M" horiz-adv-x="788" d="M294 697 L393 280 L667 697 L845 697 L841 679 L760 679 L620 18 L702 18 L697 0 L449 0 L453 18 L535 18 L673 669 L354 180 L318 180 L199 669 L61 18 L143 18 L138 0 L-47 0 L-42 18 L38 18 L179 679 L97 679 L101 697 L294 697 Z " />
<glyph glyph-name="N" unicode="N" horiz-adv-x="654" d="M100 697 L276 697 L492 154 L604 679 L523 679 L527 697 L713 697 L709 679 L627 679 L482 0 L459 0 L196 649 L62 18 L167 18 L163 0 L-47 0 L-42 18 L39 18 L178 679 L96 679 L100 697 Z " />
<glyph glyph-name="O" unicode="O" horiz-adv-x="658" d="M404 708 Q457 708 498.5 687.5 Q540 667 568.5 631 Q597 595 612 545.5 Q627 496 627 438 Q627 365 603.5 286 Q580 207 534 141.5 Q488 76 420 33.5 Q352 -9 264 -9 Q211 -9 169 9 Q127 27 98 60.5 Q69 94 54 141.5 Q39 189 39 248 Q39 326 66 407.5 Q93 489 141.5 556 Q190 623 257 665.5 Q324 708 404 708 Z M269 10 Q310 10 345.5 31.5 Q381 53 410 89 Q439 125 461 173.5 Q483 222 498 275.5 Q513 329 521 385.5 Q529 442 529 494 Q529 585 498.5 637.5 Q468 690 400 690 Q340 690 292 647 Q244 604 209.5 535.5 Q175 467 156.5 382 Q138 297 138 213 Q138 119 170.5 64.5 Q203 10 269 10 Z " />
<glyph glyph-name="P" unicode="P" horiz-adv-x="549" d="M83 664 Q123 682 179 695 Q235 708 288 708 Q360 708 409.5 691.5 Q459 675 489.5 648 Q520 621 533.5 585.5 Q547 550 547 513 Q547 451 522 404.5 Q497 358 455 327 Q413 296 358 281 Q303 266 243 266 Q230 266 213.5 267 Q197 268 183 270 L129 18 L228 18 L224 0 L-42 0 L-37 18 L44 18 L154 535 Q165 583 179.5 621 Q194 659 214 678 Q185 675 151.5 666 Q118 657 90 646 L83 664 Z M187 288 Q202 287 216.5 286 Q231 285 241 285 Q289 285 327 302 Q365 319 392 350 Q419 381 433.5 425.5 Q448 470 448 524 Q448 556 440.5 585 Q433 614 414 635.5 Q395 657 364 670 Q333 683 285 683 L271 683 L187 288 Z " />
<glyph glyph-name="Q" unicode="Q" horiz-adv-x="664" d="M721 -58 Q713 -83 700.5 -105.5 Q688 -128 670.5 -145 Q653 -162 631.5 -172 Q610 -182 586 -182 Q553 -182 526.5 -167.5 Q500 -153 477.5 -127 Q455 -101 434.5 -64.5 Q414 -28 393 17 Q335 -9 269 -9 Q215 -9 173 9.5 Q131 28 102 62.5 Q73 97 58 146 Q43 195 43 255 Q43 343 72.5 424.5 Q102 506 152 569 Q202 632 268 670 Q334 708 408 708 Q462 708 503.5 686.5 Q545 665 573.5 627 Q602 589 616.5 538 Q631 487 631 428 Q631 362 615 302 Q599 242 571.5 191 Q544 140 507.5 100.5 Q471 61 430 36 Q464 -7 490 -35.5 Q516 -64 537.5 -81.5 Q559 -99 578 -106 Q597 -113 618 -113 Q646 -113 669.5 -99 Q693 -85 710 -52 L721 -58 Z M405 690 Q361 690 324.5 668 Q288 646 259 609.5 Q230 573 208 525 Q186 477 171.5 425 Q157 373 150 320 Q143 267 143 221 Q143 151 158 102 Q173 53 207 29 Q202 42 202 56 Q203 84 226 107.5 Q249 131 292 131 Q323 131 349.5 114 Q376 97 400 71 Q427 100 451.5 145 Q476 190 494 244.5 Q512 299 522.5 360 Q533 421 533 483 Q533 580 503.5 635 Q474 690 405 690 Z M286 112 Q254 112 237 94 Q220 76 220 56 Q220 40 231.5 25 Q243 10 281 10 Q327 10 375 47 Q355 76 333.5 94 Q312 112 286 112 Z " />
<glyph glyph-name="R" unicode="R" horiz-adv-x="603" d="M83 664 Q133 684 191 696 Q249 708 306 708 Q430 708 494 665 Q558 622 558 546 Q558 500 539 467 Q520 434 491.5 411 Q463 388 428.5 375 Q394 362 364 357 Q387 354 405 346.5 Q423 339 436 322.5 Q449 306 457 279 Q465 252 469 209 L476 127 Q481 74 493 55.5 Q505 37 522 37 Q547 37 566 66 L576 55 Q559 27 536 9 Q513 -9 480 -9 Q434 -9 411.5 23.5 Q389 56 383 131 L377 207 Q374 247 368 273 Q362 299 349.5 315 Q337 331 315.5 337.5 Q294 344 261 344 L196 344 L128 18 L209 18 L205 0 L-43 0 L-38 18 L43 18 L153 535 Q162 579 175 615 Q188 651 213 678 Q178 673 147.5 665 Q117 657 90 646 L83 664 Z M461 550 Q461 583 448 608 Q435 633 411.5 650 Q388 667 356 675.5 Q324 684 287 684 L269 684 L200 362 L245 362 Q308 362 349.5 377 Q391 392 415.5 417.5 Q440 443 450.5 477 Q461 511 461 550 Z " />
<glyph glyph-name="S" unicode="S" horiz-adv-x="521" d="M96 515 Q96 551 111 586 Q126 621 156 648 Q186 675 230.5 691.5 Q275 708 334 708 Q373 708 403.5 698 Q434 688 455 670.5 Q476 653 487.5 630 Q499 607 499 582 Q499 546 476.5 518 Q454 490 415 490 Q389 490 377.5 499 Q366 508 361 516 L468 622 Q448 653 415 670 Q382 687 334 687 Q299 687 270.5 677 Q242 667 221.5 649.5 Q201 632 189.5 608.5 Q178 585 178 559 Q178 532 188 510.5 Q198 489 215 471.5 Q232 454 253.5 439 Q275 424 299 409 Q326 392 353 374 Q380 356 401 333.5 Q422 311 435.5 282 Q449 253 449 214 Q449 161 429 119.5 Q409 78 374.5 49.5 Q340 21 293.5 6 Q247 -9 195 -9 Q153 -9 120.5 2.5 Q88 14 65.5 32.5 Q43 51 31.5 75.5 Q20 100 20 126 Q20 166 42.5 194.5 Q65 223 105 223 Q129 223 140.5 214 Q152 205 156 197 L51 89 Q71 52 108.5 32 Q146 12 199 12 Q233 12 264 21 Q295 30 317.5 49.5 Q340 69 353.5 99 Q367 129 367 170 Q367 198 356 220.5 Q345 243 326.5 261.5 Q308 280 284 295.5 Q260 311 235 327 Q209 343 184 360.5 Q159 378 139.5 400 Q120 422 108 450 Q96 478 96 515 Z " />
<glyph glyph-name="T" unicode="T" horiz-adv-x="588" d="M70 489 L112 697 L633 697 L592 489 L574 489 L574 534 Q574 603 546 641 Q518 679 452 679 L411 679 L271 18 L353 18 L348 0 L100 0 L104 18 L186 18 L326 679 L289 679 Q221 679 174.5 646 Q128 613 103 532 L90 489 L70 489 Z " />
<glyph glyph-name="U" unicode="U" horiz-adv-x="657" d="M336 697 L332 679 L251 679 L157 237 Q152 217 151 200 Q150 183 150 168 Q150 124 162.5 95 Q175 66 195 48.5 Q215 31 241.5 23.5 Q268 16 295 16 Q381 16 443 73 Q505 130 529 244 L621 679 L540 679 L544 697 L730 697 L726 679 L644 679 L552 243 Q527 124 457 57.5 Q387 -9 289 -9 Q177 -9 122.5 35 Q68 79 68 175 Q68 194 70 215.5 Q72 237 77 260 L166 679 L85 679 L89 697 L336 697 Z " />
<glyph glyph-name="V" unicode="V" horiz-adv-x="559" d="M178 -9 L116 679 L62 679 L66 697 L317 697 L313 679 L213 679 L257 84 Q326 175 382 259 Q438 343 477 414 Q516 485 537 542 Q558 599 558 637 Q558 658 549 668.5 Q540 679 526 679 L426 679 Q428 719 453 745 Q478 771 517 771 Q547 771 571 752.5 Q595 734 595 687 Q595 628 568 551.5 Q541 475 490.5 386 Q440 297 368.5 197 Q297 97 208 -9 L178 -9 Z " />
<glyph glyph-name="W" unicode="W" horiz-adv-x="880" d="M562 679 L620 118 Q672 196 719.5 276.5 Q767 357 803 429 Q839 501 860.5 559.5 Q882 618 882 651 Q881 668 871.5 673.5 Q862 679 848 679 L741 679 Q743 721 771.5 744.5 Q800 768 837 768 Q868 768 892 750.5 Q916 733 916 688 Q916 647 899 592 Q882 537 853.5 474.5 Q825 412 788.5 345 Q752 278 713.5 214.5 Q675 151 637.5 93 Q600 35 570 -9 L541 -9 L487 469 Q473 438 452.5 398.5 Q432 359 408.5 315 Q385 271 359.5 225.5 Q334 180 309.5 137 Q285 94 262.5 56.5 Q240 19 223 -9 L190 -9 L104 679 L51 679 L55 697 L301 697 L298 679 L200 679 L265 108 Q278 129 296.5 161.5 Q315 194 335.5 231.5 Q356 269 378 309.5 Q400 350 419.5 386.5 Q439 423 455.5 454 Q472 485 482 505 L465 679 L397 679 L400 697 L643 697 L640 679 L562 679 Z " />
<glyph glyph-name="X" unicode="X" horiz-adv-x="622" d="M370 376 L499 18 L561 18 L556 0 L287 0 L293 18 L395 18 L284 336 L39 18 L139 18 L134 0 L-62 0 L-57 18 L11 18 L276 359 L159 679 L85 679 L90 697 L372 697 L367 679 L267 679 L362 400 L575 679 L475 679 L480 697 L682 697 L677 679 L604 679 L370 376 Z " />
<glyph glyph-name="Y" unicode="Y" horiz-adv-x="566" d="M348 18 L343 0 L96 0 L100 18 L182 18 L238 285 L143 679 L70 679 L74 697 L348 697 L344 679 L242 679 L319 330 L563 679 L464 679 L468 697 L650 697 L646 679 L593 679 L326 299 L266 18 L348 18 Z " />
<glyph glyph-name="Z" unicode="Z" horiz-adv-x="571" d="M210 516 Q202 509 188.5 504 Q175 499 156 499 Q143 499 130 503.5 Q117 508 107 517 Q97 526 90.5 540.5 Q84 555 84 576 Q84 597 92.5 618.5 Q101 640 121 657.5 Q141 675 174 686 Q207 697 256 697 L509 697 Q544 697 567 705 Q590 713 606 735 L618 728 L86 18 L253 18 Q344 18 399.5 55.5 Q455 93 486 174 L498 204 L519 204 L460 0 L-15 0 L-11 18 L486 679 L253 679 Q216 679 191.5 671 Q167 663 144 640 L210 516 Z " />
<glyph glyph-name="bracketleft" unicode="&#x5b;" horiz-adv-x="414" d="M242 748 L446 748 L443 730 L314 730 L132 -136 L261 -136 L257 -154 L53 -154 L242 748 Z " />
<glyph glyph-name="backslash" unicode="&#x5c;" horiz-adv-x="370" d="M292 -40 L246 -40 L93 728 L140 728 L292 -40 Z " />
<glyph glyph-name="bracketright" unicode="&#x5d;" horiz-adv-x="454" d="M156 -154 L-48 -154 L-45 -136 L84 -136 L266 730 L137 730 L141 748 L345 748 L156 -154 Z " />
<glyph glyph-name="asciicircum" unicode="&#x5e;" horiz-adv-x="696" d="M527 326 L412 622 L169 326 L125 326 L400 697 L458 697 L571 326 L527 326 Z " />
<glyph glyph-name="underscore" unicode="&#x5f;" horiz-adv-x="506" d="M-81 -125 L-72 -75 L427 -75 L418 -125 L-81 -125 Z " />
<glyph glyph-name="grave" unicode="&#x60;" horiz-adv-x="326" d="M306 516 L281 516 L151 609 Q136 620 127.5 628.5 Q119 637 119 648 Q119 663 131 676.5 Q143 690 160 690 Q174 690 183.5 684 Q193 678 203 664 L306 516 Z " />
<glyph glyph-name="a" unicode="a" horiz-adv-x="514" d="M173 14 Q196 14 217 30.5 Q238 47 256.5 74.5 Q275 102 290.5 137.5 Q306 173 317 211.5 Q328 250 334 288 Q340 326 340 358 Q340 397 326.5 424 Q313 451 281 451 Q250 451 225.5 435 Q201 419 182 392.5 Q163 366 149.5 332 Q136 298 127.5 263 Q119 228 115 194 Q111 160 111 133 Q111 76 125.5 45 Q140 14 173 14 Z M146 -9 Q87 -9 54 31 Q21 71 21 157 Q21 214 39 269 Q57 324 90.5 368 Q124 412 172.5 439 Q221 466 282 466 Q302 466 318 460.5 Q334 455 346 447 Q358 439 366 430 Q374 421 378 413 L400 457 L446 457 L382 151 Q374 110 370.5 91.5 Q367 73 367 60 Q367 46 371.5 36.5 Q376 27 390 27 Q406 27 421.5 42.5 Q437 58 451 84 L463 80 Q443 39 415.5 15 Q388 -9 356 -9 Q327 -9 310.5 10 Q294 29 294 71 Q294 85 297 105 Q272 51 232.5 21 Q193 -9 146 -9 Z " />
<glyph glyph-name="b" unicode="b" horiz-adv-x="494" d="M153 695 Q136 699 115 699.5 Q94 700 78 700 L81 712 L242 728 L160 365 Q187 413 224 439.5 Q261 466 308 466 Q334 466 357.5 456 Q381 446 398.5 426.5 Q416 407 426.5 378 Q437 349 437 311 Q437 247 415.5 189 Q394 131 355 87 Q316 43 262.5 17 Q209 -9 145 -9 Q125 -9 108.5 -6 Q92 -3 78.5 0.5 Q65 4 53 7 Q41 10 29 10 Q18 10 4 4.5 Q-10 -1 -26 -15 L-36 -4 Q-11 16 2 34 Q15 52 21 80 L153 695 Z M111 130 Q101 83 101 64 Q101 37 116.5 22 Q132 7 158 7 Q206 7 241 39.5 Q276 72 299 119 Q322 166 333.5 218.5 Q345 271 345 310 Q345 337 342 361 Q339 385 331.5 403 Q324 421 311 432 Q298 443 277 443 Q263 443 243.5 431.5 Q224 420 204 397 Q184 374 166 339 Q148 304 138 257 L111 130 Z " />
<glyph glyph-name="c" unicode="c" horiz-adv-x="399" d="M282 451 Q239 451 207.5 424 Q176 397 155.5 354 Q135 311 125 258.5 Q115 206 115 154 Q115 124 119.5 98 Q124 72 133.5 53 Q143 34 159.5 23.5 Q176 13 200 13 Q224 13 245 23 Q266 33 283.5 48 Q301 63 314.5 81.5 Q328 100 337 117 L348 109 Q336 88 321 67 Q306 46 284.5 29 Q263 12 234.5 1.5 Q206 -9 167 -9 Q137 -9 111 2 Q85 13 65.5 34.5 Q46 56 35 89 Q24 122 24 166 Q24 222 42 276 Q60 330 94 372 Q128 414 175 440 Q222 466 281 466 Q308 466 327 459.5 Q346 453 358 442.5 Q370 432 376 418 Q382 404 382 390 Q382 368 366.5 350 Q351 332 325 332 Q310 332 295 338.5 Q280 345 272 361 L336 432 Q318 451 282 451 Z " />
<glyph glyph-name="d" unicode="d" horiz-adv-x="519" d="M351 355 Q356 378 356 398 Q356 419 341.5 435 Q327 451 292 451 Q263 451 238 436.5 Q213 422 192 397.5 Q171 373 154.5 341 Q138 309 126.5 273.5 Q115 238 109 202 Q103 166 103 133 Q103 82 117 47 Q131 12 170 12 Q186 12 207 23 Q228 34 249 58 Q270 82 288.5 119.5 Q307 157 319 211 L351 355 Z M421 695 Q404 699 383 699.5 Q362 700 346 700 L349 712 L510 728 L387 151 Q382 131 379.5 117 Q377 103 375 92.5 Q373 82 372.5 74.5 Q372 67 372 60 Q372 46 376.5 36.5 Q381 27 395 27 Q411 27 426.5 42.5 Q442 58 456 84 L468 80 Q448 39 420.5 15 Q393 -9 361 -9 Q333 -9 316.5 9.5 Q300 28 300 71 Q300 89 303 110 Q292 88 278.5 66.5 Q265 45 246 28.5 Q227 12 202.5 1.5 Q178 -9 146 -9 Q82 -9 47 33 Q12 75 12 151 Q12 210 34.5 266.5 Q57 323 96.5 367.5 Q136 412 189.5 439 Q243 466 305 466 Q323 466 340.5 463 Q358 460 372 455 L421 695 Z " />
<glyph glyph-name="e" unicode="e" horiz-adv-x="416" d="M197 13 Q225 13 249 24 Q273 35 291 51 Q309 67 321.5 85 Q334 103 340 117 L351 109 Q343 91 329 70.5 Q315 50 293.5 32.5 Q272 15 242 3 Q212 -9 170 -9 Q140 -9 113 1.5 Q86 12 65.5 34.5 Q45 57 32.5 91.5 Q20 126 20 175 Q20 229 40.5 281.5 Q61 334 96 375 Q131 416 177.5 441 Q224 466 276 466 Q339 466 367.5 439 Q396 412 396 377 Q396 354 383.5 329.5 Q371 305 346.5 285.5 Q322 266 286.5 253.5 Q251 241 205 241 Q182 241 160.5 243 Q139 245 124 250 Q110 188 110 148 Q110 122 113.5 97.5 Q117 73 127 54.5 Q137 36 154 24.5 Q171 13 197 13 Z M271 452 Q243 452 220.5 436 Q198 420 180.5 394 Q163 368 150 335.5 Q137 303 128 270 Q145 265 160 263.5 Q175 262 189 262 Q221 262 245.5 273 Q270 284 286.5 302 Q303 320 311 342 Q319 364 319 386 Q319 413 307 432.5 Q295 452 271 452 Z " />
<glyph glyph-name="f" unicode="f" horiz-adv-x="307" d="M-114 -211 Q-92 -211 -71.5 -204 Q-51 -197 -33.5 -178.5 Q-16 -160 -1.5 -127 Q13 -94 24 -43 L125 441 L58 441 L61 457 L73 457 Q104 457 119.5 469.5 Q135 482 143 513 L154 556 Q166 604 188 638 Q210 672 236.5 693 Q263 714 291.5 723.5 Q320 733 346 733 Q373 733 391 726.5 Q409 720 420 709.5 Q431 699 436 685.5 Q441 672 441 659 Q441 636 427 619 Q413 602 388 602 Q373 602 358.5 609 Q344 616 335 632 L398 700 Q381 719 352 719 Q334 719 317 710 Q300 701 284 681 Q268 661 253.5 627.5 Q239 594 228 546 L207 457 L324 457 L321 441 L204 441 L115 26 Q89 -96 33.5 -159.5 Q-22 -223 -117 -223 L-114 -211 Z " />
<glyph glyph-name="g" unicode="g" horiz-adv-x="449" d="M368 429 Q391 440 404.5 456 Q418 472 419 489 Q419 520 388 520 L319 520 Q320 550 338 573 Q356 596 390 596 Q422 596 437.5 574.5 Q453 553 453 527 Q453 498 435.5 469 Q418 440 379 417 Q389 401 394 381.5 Q399 362 399 343 Q399 308 385 276 Q371 244 345.5 220 Q320 196 283 181.5 Q246 167 201 167 Q172 167 145.5 173 Q119 179 103 190 Q89 182 83.5 169 Q78 156 78 144 Q78 119 95 104.5 Q112 90 154 79 Q177 73 206.5 64 Q236 55 266 44 Q308 28 336 -1.5 Q364 -31 364 -81 Q364 -111 349.5 -136.5 Q335 -162 308 -181.5 Q281 -201 242 -212 Q203 -223 153 -223 Q67 -223 17 -192.5 Q-33 -162 -33 -108 Q-33 -57 -1.5 -25.5 Q30 6 73 23 Q48 34 33.5 52.5 Q19 71 19 97 Q19 127 35.5 153 Q52 179 89 200 Q67 220 59.5 243 Q52 266 52 293 Q52 330 67 361.5 Q82 393 109.5 416 Q137 439 175 452.5 Q213 466 258 466 Q283 466 315 457.5 Q347 449 368 429 Z M300 -113 Q300 -80 281.5 -62 Q263 -44 233 -30 Q195 -13 156 -4 Q117 5 94 16 Q85 10 75 0 Q65 -10 56 -24.5 Q47 -39 41 -56.5 Q35 -74 35 -93 Q35 -114 43 -134 Q51 -154 67.5 -170 Q84 -186 110 -195.5 Q136 -205 172 -205 Q196 -205 219 -198 Q242 -191 260 -179 Q278 -167 289 -150 Q300 -133 300 -113 Z M200 186 Q226 186 247.5 199.5 Q269 213 284.5 236.5 Q300 260 308.5 290.5 Q317 321 317 355 Q317 450 257 450 Q229 450 207 432.5 Q185 415 169.5 388 Q154 361 146 330 Q138 299 138 272 Q138 234 152.5 210 Q167 186 200 186 Z " />
<glyph glyph-name="h" unicode="h" horiz-adv-x="504" d="M152 695 Q135 699 114 699.5 Q93 700 77 700 L80 712 L241 728 L158 346 Q195 410 237.5 438 Q280 466 325 466 Q353 466 372 458.5 Q391 451 403 437.5 Q415 424 420 406 Q425 388 425 367 Q425 341 417 302 Q409 263 398 218 Q393 195 387 171.5 Q381 148 376 126.5 Q371 105 368 87 Q365 69 365 57 Q365 40 370 33.5 Q375 27 385 27 Q396 27 412 42 Q428 57 443 86 L455 81 Q429 32 400 11.5 Q371 -9 344 -9 Q308 -9 295.5 10.5 Q283 30 283 59 Q283 86 294.5 130.5 Q306 175 317 224 Q327 268 336 306.5 Q345 345 345 371 Q345 405 331.5 424 Q318 443 295 443 Q280 443 257 430.5 Q234 418 210 388 Q186 358 163.5 308.5 Q141 259 126 186 L87 0 L5 0 L152 695 Z " />
<glyph glyph-name="i" unicode="i" horiz-adv-x="256" d="M196 650 Q219 650 229.5 636.5 Q240 623 240 607 Q239 579 220.5 558.5 Q202 538 173 538 Q150 538 140.5 552 Q131 566 131 582 Q132 610 150 630 Q168 650 196 650 Z M111 433 Q94 437 73 437.5 Q52 438 36 438 L39 450 L200 466 L125 122 Q115 75 115 57 Q115 27 136 27 Q147 27 163.5 42 Q180 57 194 86 L206 81 Q180 32 151.5 11.5 Q123 -9 96 -9 Q60 -9 47.5 10.5 Q35 30 35 59 Q35 77 39 100.5 Q43 124 50 155 L111 433 Z " />
<glyph glyph-name="j" unicode="j" horiz-adv-x="248" d="M112 433 Q95 437 74 437.5 Q53 438 37 438 L40 450 L201 466 L110 38 Q85 -79 29 -143.5 Q-27 -208 -127 -223 L-130 -212 Q-90 -202 -64.5 -182 Q-39 -162 -22.5 -132.5 Q-6 -103 4.5 -63.5 Q15 -24 26 26 L112 433 Z M192 650 Q215 650 225.5 636.5 Q236 623 236 607 Q235 579 216.5 558.5 Q198 538 169 538 Q146 538 136.5 552 Q127 566 127 582 Q128 610 146 630 Q164 650 192 650 Z " />
<glyph glyph-name="k" unicode="k" horiz-adv-x="479" d="M152 695 Q135 699 114 699.5 Q93 700 77 700 L80 712 L241 728 L117 146 Q132 176 158.5 201 Q185 226 215.5 246.5 Q246 267 278 284 Q310 301 336 316 Q362 331 378.5 344.5 Q395 358 395 371 Q395 382 389.5 388 Q384 394 367 394 L279 394 Q280 429 300 447.5 Q320 466 356 466 Q391 466 409 446.5 Q427 427 427 400 Q427 377 415 359 Q403 341 381.5 325 Q360 309 331.5 294 Q303 279 270 263 Q275 264 280 264 Q285 264 290 264 Q314 264 330.5 256.5 Q347 249 357 238 Q367 227 371.5 212.5 Q376 198 376 185 Q376 169 373 153.5 Q370 138 365 118 Q361 101 357.5 85 Q354 69 354 55 Q354 27 376 27 Q384 27 394.5 34 Q405 41 419 64 L428 56 Q411 25 386.5 8 Q362 -9 335 -9 Q300 -9 287 10.5 Q274 30 274 59 Q274 76 278 94 Q282 112 286 131 Q290 151 294.5 169.5 Q299 188 299 206 Q299 225 291.5 234.5 Q284 244 264 244 Q246 244 220.5 229.5 Q195 215 170.5 190 Q146 165 126 131 Q106 97 99 58 L87 0 L5 0 L152 695 Z " />
<glyph glyph-name="l" unicode="l" horiz-adv-x="257" d="M152 695 Q135 699 114 699.5 Q93 700 77 700 L80 712 L241 728 L122 171 Q114 136 108 102 Q102 68 102 53 Q102 27 124 27 Q136 27 149 37 Q162 47 172.5 60 Q183 73 191.5 86 Q200 99 203 106 L215 98 Q211 90 200 72 Q189 54 172 36 Q155 18 132.5 4.5 Q110 -9 83 -9 Q47 -9 34 10 Q21 29 21 53 Q21 71 26 99.5 Q31 128 39 162 L152 695 Z " />
<glyph glyph-name="m" unicode="m" horiz-adv-x="741" d="M110 433 Q93 437 72 437.5 Q51 438 35 438 L38 450 L199 466 L168 346 Q200 410 238 438 Q276 466 319 466 Q375 466 396.5 435 Q418 404 418 356 Q451 416 485.5 441 Q520 466 560 466 Q588 466 607.5 458.5 Q627 451 639 437.5 Q651 424 656 406 Q661 388 661 367 Q661 338 653.5 300.5 Q646 263 635 218 Q630 195 624 172 Q618 149 613 128 Q608 107 605 88.5 Q602 70 602 57 Q602 40 607 33.5 Q612 27 622 27 Q633 27 649 42 Q665 57 680 86 L692 81 Q666 32 637 11.5 Q608 -9 581 -9 Q545 -9 532.5 10.5 Q520 30 520 59 Q520 85 531.5 130 Q543 175 554 224 Q564 268 574 309 Q584 350 584 382 Q584 408 576.5 425.5 Q569 443 543 443 Q521 443 499 427.5 Q477 412 457.5 384 Q438 356 422.5 317.5 Q407 279 397 233 L348 0 L266 0 L308 201 Q318 251 328.5 300.5 Q339 350 339 381 Q339 407 330.5 425 Q322 443 294 443 Q278 443 257 430 Q236 417 214 387 Q192 357 172 308 Q152 259 137 186 L100 0 L18 0 L110 433 Z " />
<glyph glyph-name="n" unicode="n" horiz-adv-x="523" d="M416 218 Q411 195 405 172 Q399 149 394.5 128 Q390 107 387 88.5 Q384 70 384 57 Q384 40 389 33.5 Q394 27 404 27 Q415 27 431 42 Q447 57 462 86 L474 81 Q448 32 419 11.5 Q390 -9 363 -9 Q327 -9 314.5 10.5 Q302 30 302 59 Q302 85 313 130 Q324 175 335 224 Q345 269 353.5 306 Q362 343 362 377 Q362 406 350.5 424.5 Q339 443 312 443 Q296 443 273 431 Q250 419 225.5 389.5 Q201 360 178 311.5 Q155 263 140 190 L100 0 L19 0 L110 433 Q93 437 72 437.5 Q51 438 35 438 L38 450 L199 466 L167 340 Q203 404 245.5 435 Q288 466 342 466 Q371 466 390 458 Q409 450 420.5 437 Q432 424 437 406.5 Q442 389 442 371 Q442 339 434.5 302.5 Q427 266 416 218 Z " />
<glyph glyph-name="o" unicode="o" horiz-adv-x="490" d="M275 466 Q315 466 344.5 453.5 Q374 441 393.5 418.5 Q413 396 423 365 Q433 334 433 297 Q433 239 414.5 184 Q396 129 363 86 Q330 43 284 17 Q238 -9 182 -9 Q142 -9 113 5 Q84 19 64.5 43.5 Q45 68 35.5 100.5 Q26 133 26 170 Q26 225 44 278.5 Q62 332 94.5 373.5 Q127 415 173 440.5 Q219 466 275 466 Z M186 8 Q228 8 257.5 38.5 Q287 69 306.5 114.5 Q326 160 335 213.5 Q344 267 344 313 Q344 383 325 416.5 Q306 450 271 450 Q239 450 210.5 423.5 Q182 397 160.5 353 Q139 309 126 252.5 Q113 196 113 137 Q113 80 129 44 Q145 8 186 8 Z " />
<glyph glyph-name="p" unicode="p" horiz-adv-x="505" d="M110 433 Q93 437 72 437.5 Q51 438 35 438 L38 450 L199 466 L174 360 Q200 407 240 436.5 Q280 466 332 466 Q385 466 416.5 426.5 Q448 387 448 306 Q448 240 428.5 183 Q409 126 373.5 83 Q338 40 288 15.5 Q238 -9 177 -9 Q158 -9 136.5 -5.5 Q115 -2 101 3 L59 -192 Q72 -194 94.5 -195 Q117 -196 131 -196 L128 -212 L-88 -212 L-85 -196 Q-70 -196 -52 -194.5 Q-34 -193 -23 -190 L110 433 Z M112 58 Q117 37 134 22.5 Q151 8 180 8 Q226 8 259.5 38.5 Q293 69 315 115.5 Q337 162 347.5 218 Q358 274 358 325 Q358 374 346 407.5 Q334 441 303 441 Q288 441 266.5 431 Q245 421 222.5 398.5 Q200 376 180.5 339 Q161 302 150 248 L112 58 Z " />
<glyph glyph-name="q" unicode="q" horiz-adv-x="499" d="M298 99 Q248 -9 151 -9 Q87 -9 53 31 Q19 71 19 157 Q19 212 37.5 267.5 Q56 323 90.5 367 Q125 411 174 438.5 Q223 466 284 466 Q327 466 350.5 448.5 Q374 431 385 413 L412 457 L452 457 L315 -190 Q326 -193 344.5 -194.5 Q363 -196 379 -196 L376 -212 L161 -212 L164 -196 Q177 -196 198.5 -195 Q220 -194 233 -192 L298 99 Z M171 14 Q207 14 239 48 Q271 82 295 133.5 Q319 185 333 245.5 Q347 306 347 358 Q347 376 344.5 393 Q342 410 335.5 422.5 Q329 435 316.5 443 Q304 451 284 451 Q253 451 228 435 Q203 419 184 392.5 Q165 366 150.5 332 Q136 298 127 262.5 Q118 227 113.5 193 Q109 159 109 133 Q109 76 123.5 45 Q138 14 171 14 Z " />
<glyph glyph-name="r" unicode="r" horiz-adv-x="408" d="M110 433 Q93 437 72 437.5 Q51 438 35 438 L38 450 L199 466 L161 306 Q235 466 334 466 Q372 466 390 448.5 Q408 431 408 406 Q408 380 391.5 361.5 Q375 343 349 343 Q334 343 319 349.5 Q304 356 296 372 L350 442 Q336 448 324 448 Q297 448 268 424 Q239 400 213.5 360.5 Q188 321 167.5 271 Q147 221 136 168 L101 0 L18 0 L110 433 Z " />
<glyph glyph-name="s" unicode="s" horiz-adv-x="376" d="M219 452 Q171 452 145.5 428 Q120 404 120 372 Q120 352 130 336.5 Q140 321 156 307.5 Q172 294 191.5 281.5 Q211 269 230 255 Q259 233 281 205.5 Q303 178 303 134 Q303 96 288 69 Q273 42 249 24.5 Q225 7 195 -1 Q165 -9 135 -9 Q74 -9 34 14 Q-6 37 -6 80 Q-6 106 12 124 Q30 142 56 142 Q88 142 106 114 L38 39 Q51 25 72.5 15 Q94 5 124 5 Q145 5 164 11 Q183 17 198 28.5 Q213 40 222 57 Q231 74 231 97 Q231 119 224.5 135 Q218 151 206.5 164 Q195 177 180 187.5 Q165 198 149 209 Q130 221 112 233.5 Q94 246 80.5 260 Q67 274 58.5 291.5 Q50 309 50 331 Q50 365 65.5 390 Q81 415 105 432 Q129 449 159 457.5 Q189 466 218 466 Q240 466 260 461 Q280 456 296 446.5 Q312 437 321.5 422 Q331 407 331 387 Q331 364 317.5 347.5 Q304 331 279 331 Q264 331 249 337.5 Q234 344 225 360 L287 425 Q276 439 256.5 445.5 Q237 452 219 452 Z " />
<glyph glyph-name="t" unicode="t" horiz-adv-x="308" d="M250 53 Q225 22 191 6.5 Q157 -9 120 -9 Q104 -9 89 -4.5 Q74 0 62 11 Q50 22 42.5 39.5 Q35 57 35 84 Q35 106 41 136 L105 441 L40 441 L43 457 L78 457 Q98 457 118 470 Q138 483 155.5 501 Q173 519 185 539 Q197 559 201 574 L206 589 L219 589 L191 457 L319 457 L316 441 L188 441 L117 111 Q113 94 113 77 Q113 48 125.5 35 Q138 22 157 22 Q179 22 202 33.5 Q225 45 239 62 L250 53 Z " />
<glyph glyph-name="u" unicode="u" horiz-adv-x="512" d="M110 433 Q93 437 72 437.5 Q51 438 35 438 L38 450 L199 466 L152 243 Q142 197 135.5 167.5 Q129 138 125.5 118.5 Q122 99 120.5 87.5 Q119 76 119 67 Q119 39 129.5 28 Q140 17 160 17 Q179 17 204.5 35 Q230 53 255 88 Q280 123 302 173 Q324 223 337 288 L372 457 L454 457 L388 151 Q383 131 380.5 117 Q378 103 376 92.5 Q374 82 373.5 74.5 Q373 67 373 60 Q373 46 378.5 36.5 Q384 27 396 27 Q412 27 427.5 42.5 Q443 58 457 84 L469 80 Q449 39 421.5 15 Q394 -9 362 -9 Q301 -9 301 72 Q301 91 303.5 109 Q306 127 311 149 Q291 105 268.5 75 Q246 45 222 26 Q198 7 174 -1 Q150 -9 127 -9 Q87 -9 63.5 10.5 Q40 30 40 76 Q40 86 42 101 Q44 116 50 145 L110 433 Z " />
<glyph glyph-name="v" unicode="v" horiz-adv-x="416" d="M143 466 Q147 420 150.5 369 Q154 318 155.5 265.5 Q157 213 158 162.5 Q159 112 159 67 Q196 115 231.5 166 Q267 217 295 264.5 Q323 312 339.5 351 Q356 390 356 414 Q356 431 347.5 436.5 Q339 442 323 442 L260 442 Q261 476 277.5 495 Q294 514 326 514 Q352 514 372.5 498 Q393 482 393 444 Q393 401 367.5 345 Q342 289 303.5 229 Q265 169 218 109.5 Q171 50 127 0 L87 0 Q86 65 84.5 122 Q83 179 80.5 232 Q78 285 73.5 335.5 Q69 386 63 437 Q50 441 29.5 442 Q9 443 -4 443 L-1 457 L143 466 L143 466 Z " />
<glyph glyph-name="w" unicode="w" horiz-adv-x="637" d="M581 412 Q581 429 570.5 435.5 Q560 442 541 442 L484 442 Q485 476 503.5 495 Q522 514 556 514 Q567 514 578 510.5 Q589 507 598 499.5 Q607 492 612.5 479.5 Q618 467 618 449 Q618 407 595 350 Q572 293 536.5 231.5 Q501 170 458.5 109.5 Q416 49 376 0 L347 0 Q345 79 338.5 157.5 Q332 236 324 303 Q273 211 228 138 Q183 65 135 0 L104 0 Q98 125 87 233 Q76 341 56 437 Q40 440 24.5 441 Q9 442 -8 442 L-5 456 L141 466 Q146 438 152 397.5 Q158 357 163.5 308.5 Q169 260 173 207 Q177 154 179 102 Q222 168 258 230.5 Q294 293 317 339 Q315 357 311 384.5 Q307 412 302 434 Q288 439 266 441 Q244 443 225 443 L228 456 L384 466 Q389 446 394 406 Q399 366 404 315 Q409 264 413 206 Q417 148 419 92 Q499 202 539.5 286 Q580 370 581 412 Z " />
<glyph glyph-name="x" unicode="x" horiz-adv-x="485" d="M442 437 Q431 450 405 450 Q371 450 343 419.5 Q315 389 294.5 341.5 Q274 294 262.5 236 Q251 178 251 123 Q251 70 260 43 Q269 16 304 16 Q321 16 337 26.5 Q353 37 366.5 52.5 Q380 68 391 85.5 Q402 103 410 117 L420 109 Q411 91 399.5 70.5 Q388 50 370.5 32.5 Q353 15 328 3 Q303 -9 268 -9 Q221 -9 194.5 21.5 Q168 52 166 111 Q150 76 135 53 Q120 30 104.5 16 Q89 2 73 -3.5 Q57 -9 39 -9 Q5 -9 -12 12.5 Q-29 34 -29 57 Q-29 86 -11.5 106 Q6 126 32 126 Q46 126 60 119 Q74 112 78 97 L8 22 Q13 16 22.5 11.5 Q32 7 46 7 Q85 7 113.5 42.5 Q142 78 160.5 131 Q179 184 188.5 245 Q198 306 198 358 Q198 400 187.5 421 Q177 442 153 442 Q133 442 116 431.5 Q99 421 84.5 405.5 Q70 390 59 372 Q48 354 41 340 L31 348 Q39 366 50.5 386.5 Q62 407 80 424.5 Q98 442 122.5 454 Q147 466 182 466 Q227 466 254 435.5 Q281 405 283 345 Q309 411 342 438.5 Q375 466 410 466 Q444 466 462 446.5 Q480 427 480 399 Q480 373 463 353 Q446 333 418 333 Q406 333 392 339.5 Q378 346 371 362 L442 437 Z " />
<glyph glyph-name="y" unicode="y" horiz-adv-x="393" d="M131 464 Q149 358 164 253 Q179 148 181 48 Q207 90 236 139 Q265 188 290 237.5 Q315 287 331 332.5 Q347 378 347 411 Q347 428 338 435 Q329 442 314 442 L250 442 Q250 471 266 492.5 Q282 514 317 514 Q350 514 366.5 493 Q383 472 383 435 Q383 396 360.5 332 Q338 268 300 194 Q262 120 212.5 44.5 Q163 -31 109.5 -92 Q56 -153 2.5 -191.5 Q-51 -230 -97 -230 Q-126 -230 -144.5 -213.5 Q-163 -197 -163 -168 Q-163 -146 -148 -127.5 Q-133 -109 -104 -99 Q-93 -141 -83 -166 Q-73 -191 -52 -191 Q-40 -191 -17 -175 Q6 -159 32.5 -134.5 Q59 -110 84 -80 Q109 -50 125 -22 Q122 29 114 87 Q106 145 95.5 205 Q85 265 73.5 324 Q62 383 50 436 Q39 440 27 441 Q15 442 -1 443 L2 456 L131 464 Z " />
<glyph glyph-name="z" unicode="z" horiz-adv-x="379" d="M207 -9 Q176 -9 151.5 -3.5 Q127 2 104.5 8 Q82 14 61 19.5 Q40 25 17 25 Q3 25 -10 19.5 Q-23 14 -31 0 L-40 -16 L-54 -11 Q-19 55 24.5 105 Q68 155 115 200 Q162 245 210 288.5 Q258 332 303 384 L85 384 Q82 379 76 370 Q70 361 63.5 350.5 Q57 340 52 330 Q47 320 45 313 L28 313 L82 457 L304 457 Q332 457 347 463 Q362 469 373 497 L382 494 Q362 429 320.5 378 Q279 327 229.5 280.5 Q180 234 128 189 Q76 144 35 91 Q48 94 61 94 Q89 94 111.5 84.5 Q134 75 157 64 Q183 51 209 43.5 Q235 36 254 36 Q289 36 289 62 Q289 72 277 86 L221 145 Q231 159 243.5 163.5 Q256 168 270 168 Q295 168 310.5 151 Q326 134 326 110 Q326 86 316.5 64.5 Q307 43 290.5 26.5 Q274 10 252.5 0.5 Q231 -9 207 -9 Z " />
<glyph glyph-name="braceleft" unicode="&#x7b;" horiz-adv-x="386" d="M53 298 L58 316 L72 316 Q109 316 136 341 Q163 366 169 420 L187 593 Q195 665 232 706.5 Q269 748 339 748 Q376 748 421 736 L418 720 Q402 725 389 726.5 Q376 728 364 728 Q338 728 321 718.5 Q304 709 293 692.5 Q282 676 276.5 654 Q271 632 269 606 L253 436 Q250 406 242 385 Q234 364 222 349 Q210 334 193.5 324 Q177 314 158 306 Q180 295 194 278.5 Q208 262 208 233 Q208 221 205 207 Q202 193 197 176 L139 -10 Q133 -30 129 -47 Q125 -64 125 -79 Q125 -103 138 -117.5 Q151 -132 183 -132 Q195 -132 209 -130.5 Q223 -129 240 -124 L237 -140 Q188 -153 149 -153 Q97 -153 72.5 -130.5 Q48 -108 48 -66 Q48 -35 61 3 L123 192 Q127 204 128.5 215 Q130 226 130 235 Q130 267 113 282.5 Q96 298 67 298 L53 298 Z " />
<glyph glyph-name="bar" unicode="&#x7c;" horiz-adv-x="256" d="M205 795 L255 795 L50 -165 L1 -165 L205 795 Z " />
<glyph glyph-name="braceright" unicode="&#x7d;" horiz-adv-x="386" d="M307 298 L302 280 L288 280 Q251 280 224 255 Q197 230 191 176 L173 3 Q165 -69 128 -110.5 Q91 -152 21 -152 Q-16 -152 -61 -140 L-58 -124 Q-42 -129 -29 -130.5 Q-16 -132 -4 -132 Q22 -132 39 -122.5 Q56 -113 67 -96.5 Q78 -80 83.5 -58 Q89 -36 91 -10 L107 160 Q110 190 118 211 Q126 232 138 247 Q150 262 166.5 272 Q183 282 202 290 Q180 301 166 317.5 Q152 334 152 363 Q152 375 155 389 Q158 403 163 420 L221 606 Q227 626 231 643 Q235 660 235 675 Q235 699 222 713.5 Q209 728 177 728 Q165 728 151 726.5 Q137 725 120 720 L123 736 Q172 749 211 749 Q263 749 287.5 726.5 Q312 704 312 662 Q312 631 299 593 L237 404 Q233 392 231.5 381 Q230 370 230 361 Q230 329 247 313.5 Q264 298 293 298 L307 298 Z " />
<glyph glyph-name="asciitilde" unicode="&#x7e;" horiz-adv-x="696" d="M630 375 Q583 242 476 242 Q440 242 403.5 253.5 Q367 265 330.5 279.5 Q294 294 258.5 305.5 Q223 317 190 317 Q154 317 127.5 293 Q101 269 85 234 L44 234 Q91 367 198 367 Q234 367 270.5 355.5 Q307 344 343.5 329.5 Q380 315 415.5 303.5 Q451 292 484 292 Q520 292 546.5 316 Q573 340 589 375 L630 375 Z " />
<glyph glyph-name="uni00A0" unicode="&#xa0;" horiz-adv-x="185" d="" />
<glyph glyph-name="exclamdown" unicode="&#xa1;" horiz-adv-x="301" d="M159 273 Q147 210 141 143.5 Q135 77 132 16 Q129 -45 126 -97 Q123 -149 116 -183 Q110 -213 92 -231.5 Q74 -250 46 -250 Q23 -250 11.5 -237.5 Q0 -225 0 -203 Q0 -172 17 -119.5 Q34 -67 56.5 -3 Q79 61 101.5 132.5 Q124 204 135 273 L159 273 Z M184 467 Q207 467 219 454.5 Q231 442 231 423 Q231 397 211.5 376 Q192 355 163 355 Q140 355 127.5 367.5 Q115 380 115 400 Q115 426 135 446.5 Q155 467 184 467 Z " />
<glyph glyph-name="cent" unicode="&#xa2;" horiz-adv-x="536" d="M226 -3 Q194 0 166.5 13 Q139 26 119 50 Q99 74 87.5 108.5 Q76 143 76 188 Q76 254 96.5 314 Q117 374 152.5 420 Q188 466 236 495 Q284 524 338 529 L359 627 L383 627 L363 531 Q395 530 417 521.5 Q439 513 452.5 499.5 Q466 486 472 468.5 Q478 451 478 432 Q478 406 470.5 386.5 Q463 367 451 353.5 Q439 340 424.5 333.5 Q410 327 396 327 Q373 327 362 336 Q351 345 348 353 L451 453 Q439 488 415 499.5 Q391 511 358 511 L256 29 Q262 27 267 27 Q272 27 277 27 Q311 27 344.5 44 Q378 61 410 91 L415 77 Q383 42 342.5 20.5 Q302 -1 250 -3 L231 -92 L207 -92 L226 -3 Z M333 507 Q290 493 259 455.5 Q228 418 208.5 369.5 Q189 321 180 269 Q171 217 171 175 Q171 116 188.5 83.5 Q206 51 234 37 L333 507 Z " />
<glyph glyph-name="sterling" unicode="&#xa3;" horiz-adv-x="552" d="M57 315 L123 315 Q123 332 123 341.5 Q123 351 125 368 Q130 429 148 480.5 Q166 532 197.5 569 Q229 606 273.5 627 Q318 648 375 648 Q406 648 431 638.5 Q456 629 473.5 613 Q491 597 500.5 576 Q510 555 510 533 Q510 513 505.5 493.5 Q501 474 490.5 458 Q480 442 464 432 Q448 422 425 422 Q403 422 393 430.5 Q383 439 381 447 L490 555 Q480 586 452 608 Q424 630 388 630 Q330 630 293.5 589 Q257 548 239 473 Q233 448 229 430 Q225 412 222 395 Q219 378 216 359.5 Q213 341 209 315 L376 315 L369 290 L206 290 Q199 247 186.5 208.5 Q174 170 153.5 135.5 Q133 101 103 71.5 Q73 42 31 18 L178 18 Q235 18 274.5 33 Q314 48 342 74.5 Q370 101 389.5 137 Q409 173 426 216 L439 216 L385 0 L-42 0 L-38 18 L-32 18 Q21 19 52 48 Q83 77 98.5 118.5 Q114 160 118.5 206.5 Q123 253 123 290 L50 290 L57 315 Z " />
<glyph glyph-name="currency" unicode="&#xa4;" horiz-adv-x="536" d="M474 313 Q474 278 462.5 246 Q451 214 430 185 L491 123 L457 90 L397 152 Q365 129 335.5 118 Q306 107 268 107 Q230 107 201 118 Q172 129 140 152 L80 90 L45 123 L107 185 Q86 214 74.5 246 Q63 278 63 313 Q63 349 74.5 380.5 Q86 412 107 441 L45 503 L80 536 L140 474 Q172 497 201 508 Q230 519 268 519 Q306 519 335.5 508 Q365 497 397 474 L457 536 L491 503 L430 441 Q451 412 462.5 380.5 Q474 349 474 313 Z M105 313 Q105 277 117.5 247 Q130 217 151.5 195 Q173 173 203 160.5 Q233 148 268 148 Q303 148 333.5 160.5 Q364 173 386 195 Q408 217 420.5 247 Q433 277 433 313 Q433 349 420.5 379.5 Q408 410 386 431.5 Q364 453 333.5 465.5 Q303 478 268 478 Q233 478 203 465.5 Q173 453 151.5 431.5 Q130 410 117.5 379.5 Q105 349 105 313 Z " />
<glyph glyph-name="yen" unicode="&#xa5;" horiz-adv-x="518" d="M212 628 L283 311 L472 628 L379 628 L382 646 L565 646 L562 628 L499 628 L332 344 L452 344 L447 319 L314 319 L289 280 L282 240 L434 240 L429 215 L277 215 L242 18 L324 18 L321 0 L66 0 L69 18 L150 18 L186 215 L43 215 L47 240 L190 240 L195 267 L184 319 L61 319 L65 344 L177 344 L108 628 L45 628 L48 646 L315 646 L312 628 L212 628 Z " />
<glyph glyph-name="brokenbar" unicode="&#xa6;" horiz-adv-x="256" d="M82 219 L132 219 L51 -164 L2 -164 L82 219 Z M204 795 L254 795 L173 412 L123 412 L204 795 Z " />
<glyph glyph-name="section" unicode="&#xa7;" horiz-adv-x="540" d="M305 113 Q322 116 341 125 Q360 134 376 147.5 Q392 161 402.5 178.5 Q413 196 413 216 Q413 244 391.5 273 Q370 302 339 329 Q308 356 273 380 Q238 404 212 423 Q189 418 170 406.5 Q151 395 137.5 379.5 Q124 364 117 347 Q110 330 110 314 Q110 282 129.5 255 Q149 228 178.5 203.5 Q208 179 242 156.5 Q276 134 305 113 Z M170 -156 Q194 -156 218 -149.5 Q242 -143 261.5 -130 Q281 -117 293.5 -97 Q306 -77 306 -50 Q306 -25 295.5 -5.5 Q285 14 267.5 30.5 Q250 47 226.5 62.5 Q203 78 178 96 Q105 147 71 186 Q37 225 37 260 Q37 292 51 319.5 Q65 347 88 369 Q111 391 140 407 Q169 423 199 433 Q169 460 151 485 Q133 510 133 541 Q133 576 150 606.5 Q167 637 197 659.5 Q227 682 268 695 Q309 708 357 708 Q396 708 424.5 699 Q453 690 472.5 675.5 Q492 661 501.5 642 Q511 623 511 604 Q511 559 485.5 533.5 Q460 508 428 508 Q402 508 390 517 Q378 526 373 534 L479 632 Q459 661 431 675.5 Q403 690 355 690 Q322 690 296.5 681 Q271 672 253 657 Q235 642 225.5 622.5 Q216 603 216 582 Q216 566 222.5 552.5 Q229 539 244.5 523.5 Q260 508 285 488.5 Q310 469 346 442 Q375 420 400 399 Q425 378 443.5 358 Q462 338 472.5 317.5 Q483 297 483 276 Q483 240 468 211.5 Q453 183 429 161.5 Q405 140 376 125 Q347 110 319 101 Q353 75 371 46 Q389 17 389 -14 Q389 -46 372 -75 Q355 -104 325 -126 Q295 -148 254.5 -161 Q214 -174 168 -174 Q130 -174 99.5 -165 Q69 -156 48 -141 Q27 -126 15.5 -107 Q4 -88 4 -68 Q4 -23 29.5 1.5 Q55 26 86 26 Q112 26 124.5 17 Q137 8 142 0 L36 -98 Q77 -156 170 -156 Z " />
<glyph glyph-name="dieresis" unicode="&#xa8;" horiz-adv-x="326" d="M365 605 Q365 582 348 561 Q331 540 305 540 Q286 540 274.5 552.5 Q263 565 263 584 Q263 607 280.5 627.5 Q298 648 324 648 Q342 648 353.5 635.5 Q365 623 365 605 Z M170 604 Q170 581 153 560.5 Q136 540 110 540 Q91 540 79.5 552.5 Q68 565 68 584 Q68 607 85.5 627.5 Q103 648 129 648 Q147 648 158.5 635.5 Q170 623 170 604 Z " />
<glyph glyph-name="copyright" unicode="&#xa9;" horiz-adv-x="787" d="M538 209 Q514 180 482.5 163.5 Q451 147 406 147 Q358 147 322.5 163.5 Q287 180 263.5 208 Q240 236 228 272 Q216 308 216 347 Q216 384 228.5 419 Q241 454 265.5 482 Q290 510 327 527 Q364 544 414 544 Q445 544 467 536 Q489 528 503.5 515.5 Q518 503 525 487.5 Q532 472 532 458 Q532 437 519 425.5 Q506 414 489 414 Q475 414 466.5 419.5 Q458 425 454 430 L508 490 Q494 509 472 520 Q450 531 418 531 Q382 531 357 517 Q332 503 317 478.5 Q302 454 295.5 422 Q289 390 289 354 Q289 305 299 269.5 Q309 234 326.5 211.5 Q344 189 366.5 178 Q389 167 414 167 Q449 167 476 178.5 Q503 190 528 219 L538 209 Z M53 349 Q53 419 80 481.5 Q107 544 153 590 Q199 636 261 663 Q323 690 393 690 Q463 690 525.5 663 Q588 636 634 590 Q680 544 707 481.5 Q734 419 734 349 Q734 279 707 217 Q680 155 634 109 Q588 63 525.5 36 Q463 9 393 9 Q323 9 261 36 Q199 63 153 109 Q107 155 80 217 Q53 279 53 349 Z M100 349 Q100 288 123 233.5 Q146 179 185.5 138 Q225 97 278.5 73 Q332 49 393 49 Q454 49 508 73 Q562 97 602 138 Q642 179 665.5 233.5 Q689 288 689 349 Q689 410 665.5 464.5 Q642 519 602 559.5 Q562 600 508 623.5 Q454 647 393 647 Q332 647 278.5 623.5 Q225 600 185.5 559.5 Q146 519 123 464.5 Q100 410 100 349 Z " />
<glyph glyph-name="ordfeminine" unicode="&#xaa;" horiz-adv-x="344" d="M166 407 Q188 407 207.5 430.5 Q227 454 242 489 Q257 524 265.5 563.5 Q274 603 274 635 Q274 661 265.5 677.5 Q257 694 237 694 Q207 694 186.5 671 Q166 648 152.5 615.5 Q139 583 133 547 Q127 511 127 484 Q127 447 136 427 Q145 407 166 407 Z M148 388 Q107 388 84.5 415.5 Q62 443 62 500 Q62 538 74 575 Q86 612 108.5 641.5 Q131 671 164 689.5 Q197 708 238 708 Q264 708 279.5 698.5 Q295 689 302 679 L317 708 L351 708 Q332 614 321.5 561 Q311 508 305.5 481.5 Q300 455 299 447.5 Q298 440 298 436 Q298 416 309 416 Q319 416 329 426 Q339 436 348 453 L362 451 Q348 422 328.5 405 Q309 388 288 388 Q264 388 253.5 405.5 Q243 423 243 447 Q226 421 200.5 404.5 Q175 388 148 388 Z " />
<glyph glyph-name="guillemotleft" unicode="&#xab;" horiz-adv-x="509" d="M165 79 L-2 254 L229 428 L256 418 L101 254 L199 92 L165 79 Z M375 79 L208 254 L439 428 L466 418 L311 254 L409 92 L375 79 Z " />
<glyph glyph-name="logicalnot" unicode="&#xac;" horiz-adv-x="696" d="M497 146 L536 332 L61 332 L71 381 L600 381 L551 146 L497 146 Z " />
<glyph glyph-name="uni00AD" unicode="&#xad;" horiz-adv-x="373" d="M36 277 L305 277 L292 229 L23 229 L36 277 Z " />
<glyph glyph-name="registered" unicode="&#xae;" horiz-adv-x="462" d="M342 564 Q342 546 329 532 Q316 518 289 513 Q308 510 317 496 Q326 482 331 453 L332 448 Q335 432 339.5 426 Q344 420 351 420 Q356 420 362 429 L367 424 Q363 416 357 410 Q351 404 338 404 Q326 404 314 412.5 Q302 421 296 451 L294 461 Q289 482 284 494 Q279 506 261 506 L234 506 L234 415 L261 415 L261 407 L176 407 L176 415 L200 415 L200 605 L176 605 L176 616 L269 616 Q312 616 327 600.5 Q342 585 342 564 Z M234 605 L234 516 L255 516 Q302 516 302 564 Q302 589 291 597 Q280 605 255 605 L234 605 Z M266 708 Q308 708 344 692.5 Q380 677 407 650 Q434 623 449 586.5 Q464 550 464 508 Q464 466 448.5 430 Q433 394 406 367 Q379 340 343 324.5 Q307 309 266 309 Q225 309 189 324.5 Q153 340 126 367 Q99 394 83.5 430 Q68 466 68 508 Q68 550 83.5 586.5 Q99 623 126 650 Q153 677 189 692.5 Q225 708 266 708 Z M266 684 Q231 684 200 669.5 Q169 655 146 631 Q123 607 109.5 575 Q96 543 96 508 Q96 473 109.5 441 Q123 409 146 385 Q169 361 200 347 Q231 333 266 333 Q301 333 332 347 Q363 361 386 385 Q409 409 422.5 441 Q436 473 436 508 Q436 543 422.5 575 Q409 607 386 631 Q363 655 332 669.5 Q301 684 266 684 Z " />
<glyph glyph-name="macron" unicode="&#xaf;" horiz-adv-x="326" d="M51 546 L64 600 L339 600 L326 546 L51 546 Z " />
<glyph glyph-name="degree" unicode="&#xb0;" horiz-adv-x="362" d="M121 570 Q121 549 128.5 530 Q136 511 149.5 497 Q163 483 181.5 474.5 Q200 466 221 466 Q242 466 260.5 474.5 Q279 483 293 497 Q307 511 315 530 Q323 549 323 570 Q323 591 315 610 Q307 629 293 643.5 Q279 658 260.5 666.5 Q242 675 221 675 Q200 675 181.5 666.5 Q163 658 149.5 643.5 Q136 629 128.5 610 Q121 591 121 570 Z M83 570 Q83 598 94 623.5 Q105 649 123.5 667.5 Q142 686 167 697 Q192 708 221 708 Q249 708 274.5 697 Q300 686 318.5 667.5 Q337 649 348 623.5 Q359 598 359 570 Q359 541 348 516 Q337 491 318.5 472.5 Q300 454 274.5 443 Q249 432 221 432 Q192 432 167 443 Q142 454 123.5 472.5 Q105 491 94 516 Q83 541 83 570 Z " />
<glyph glyph-name="plusminus" unicode="&#xb1;" horiz-adv-x="696" d="M372 340 L333 169 L274 169 L313 340 L77 340 L87 390 L323 390 L361 560 L420 560 L382 390 L618 390 L608 340 L372 340 Z M18 70 L28 118 L559 118 L549 70 L18 70 Z " />
<glyph glyph-name="twosuperior" unicode="&#xb2;" horiz-adv-x="338" d="M309 316 Q300 303 285.5 298.5 Q271 294 257 294 Q236 294 216.5 300 Q197 306 179 313 Q161 320 144 326 Q127 332 110 332 Q90 332 75 322 Q60 312 46 294 L35 301 Q53 324 77.5 352.5 Q102 381 131 408 Q159 433 185 458 Q211 483 231.5 509.5 Q252 536 264.5 565 Q277 594 277 627 Q277 661 260.5 675 Q244 689 225 689 Q204 689 185 680.5 Q166 672 150 658 L187 584 Q182 579 172.5 572.5 Q163 566 146 566 Q129 566 116.5 576.5 Q104 587 104 607 Q104 626 115 644 Q126 662 144.5 676 Q163 690 188 698.5 Q213 707 241 707 Q290 707 319 683.5 Q348 660 348 617 Q348 591 337.5 568.5 Q327 546 309.5 526 Q292 506 269 487 Q246 468 220 448 Q198 431 174 414.5 Q150 398 120 369 Q125 371 134.5 371.5 Q144 372 150 372 Q171 372 196 363 Q221 354 251 354 Q260 354 268 355.5 Q276 357 283.5 363 Q291 369 298 380.5 Q305 392 312 412 L329 412 L309 316 Z " />
<glyph glyph-name="threesuperior" unicode="&#xb3;" horiz-adv-x="341" d="M56 327 Q79 318 93.5 315 Q108 312 122 312 Q151 312 172.5 322 Q194 332 208 347.5 Q222 363 229 382.5 Q236 402 236 422 Q236 458 221 473.5 Q206 489 180 489 Q169 489 152.5 486 Q136 483 119 478 L113 495 L149 505 Q207 521 239 555.5 Q271 590 271 632 Q271 661 257.5 674 Q244 687 224 687 Q207 687 190.5 679.5 Q174 672 160 657 L197 594 Q183 576 157 576 Q142 576 130 586 Q118 596 118 613 Q118 634 129 651 Q140 668 158 680.5 Q176 693 199.5 700 Q223 707 248 707 Q290 707 318 689 Q346 671 346 634 Q346 594 311.5 561.5 Q277 529 223 514 Q264 506 289.5 485 Q315 464 315 428 Q315 405 303 381 Q291 357 267.5 337.5 Q244 318 210 306 Q176 294 131 294 Q105 294 86.5 297 Q68 300 50 308 L56 327 Z " />
<glyph glyph-name="acute" unicode="&#xb4;" horiz-adv-x="326" d="M238 664 Q249 675 262 682.5 Q275 690 289 690 Q303 690 314.5 680.5 Q326 671 326 655 Q326 639 315.5 630.5 Q305 622 284 609 L125 516 L99 516 L238 664 Z " />
<glyph glyph-name="mu" unicode="&#xb5;" horiz-adv-x="575" d="M428 68 Q426 58 426 54 Q426 38 434 30 Q442 22 454 22 Q470 22 488 38 L494 28 Q479 11 455 1 Q431 -9 405 -9 Q378 -9 357.5 5.5 Q337 20 337 55 Q337 57 337 60.5 Q337 64 338 67 Q332 58 319.5 45 Q307 32 288.5 20 Q270 8 246 -0.5 Q222 -9 192 -9 Q173 -9 157.5 -6.5 Q142 -4 129 0 L84 -212 L-62 -212 L-58 -195 L-2 -195 L133 441 L76 441 L80 457 L227 457 L158 132 Q152 106 152 82 Q152 53 165.5 33.5 Q179 14 218 14 Q244 14 266.5 25 Q289 36 306.5 54 Q324 72 336 95.5 Q348 119 354 145 L417 441 L360 441 L364 457 L511 457 L428 68 Z " />
<glyph glyph-name="paragraph" unicode="&#xb6;" horiz-adv-x="595" d="M70 442 Q70 503 91 550.5 Q112 598 149.5 630.5 Q187 663 240 680 Q293 697 356 697 L552 697 L367 -174 L301 -174 L479 665 L403 665 L225 -174 L207 -174 L306 291 L254 291 Q159 291 114.5 332.5 Q70 374 70 442 Z " />
<glyph glyph-name="periodcentered" unicode="&#xb7;" horiz-adv-x="286" d="M123 201 Q100 201 87.5 214 Q75 227 75 247 Q75 273 93 292.5 Q111 312 142 312 Q165 312 178 300 Q191 288 191 268 Q191 241 171 221 Q151 201 123 201 Z " />
<glyph glyph-name="cedilla" unicode="&#xb8;" horiz-adv-x="326" d="M116 7 L141 7 L94 -80 Q99 -78 109 -76.5 Q119 -75 133 -75 Q169 -75 188.5 -92.5 Q208 -110 208 -135 Q208 -159 198 -176.5 Q188 -194 171.5 -206 Q155 -218 134.5 -224 Q114 -230 93 -230 Q60 -230 39 -216.5 Q18 -203 18 -183 Q18 -166 27.5 -157.5 Q37 -149 50 -149 Q61 -149 68 -153 Q75 -157 78 -162 L38 -199 Q41 -204 50.5 -209 Q60 -214 74 -214 Q97 -214 118.5 -197 Q140 -180 140 -142 Q140 -120 130.5 -106.5 Q121 -93 99 -93 Q88 -93 81.5 -95 Q75 -97 68 -100 L60 -95 L116 7 Z " />
<glyph glyph-name="onesuperior" unicode="&#xb9;" horiz-adv-x="302" d="M109 593 Q127 602 147.5 615 Q168 628 189 642.5 Q210 657 229 671.5 Q248 686 262 698 L294 698 L213 316 L269 316 L267 300 L79 300 L81 316 L143 316 L211 631 Q190 617 164 602.5 Q138 588 117 577 L109 593 Z " />
<glyph glyph-name="ordmasculine" unicode="&#xba;" horiz-adv-x="328" d="M233 708 Q287 708 314 676 Q341 644 341 594 Q341 555 329 518 Q317 481 294.5 452 Q272 423 241 405.5 Q210 388 172 388 Q145 388 124.5 397.5 Q104 407 91 423.5 Q78 440 71.5 462 Q65 484 65 509 Q65 546 77 582 Q89 618 111 646 Q133 674 164 691 Q195 708 233 708 Z M175 402 Q202 402 221 422 Q240 442 252 472.5 Q264 503 270 538.5 Q276 574 276 605 Q276 650 264 671.5 Q252 693 231 693 Q211 693 192.5 675.5 Q174 658 160 629 Q146 600 137.5 563 Q129 526 129 487 Q129 449 139 425.5 Q149 402 175 402 Z " />
<glyph glyph-name="guillemotright" unicode="&#xbb;" horiz-adv-x="494" d="M68 428 L235 253 L4 79 L-23 89 L132 253 L34 415 L68 428 Z M278 428 L445 253 L214 79 L187 89 L342 253 L244 415 L278 428 Z " />
<glyph glyph-name="onequarter" unicode="&#xbc;" horiz-adv-x="798" d="M109 593 Q127 602 147.5 615 Q168 628 189 642.5 Q210 657 229 671.5 Q248 686 262 698 L294 698 L213 316 L269 316 L267 300 L79 300 L81 316 L143 316 L211 631 Q190 617 164 602.5 Q138 588 117 577 L109 593 Z M126 -9 L715 708 L756 708 L167 -9 L126 -9 Z M678 101 L739 101 L736 85 L676 85 L662 16 L711 16 L707 0 L548 0 L552 16 L593 16 L608 85 L455 85 L457 102 L703 398 L741 398 L678 101 Z M610 101 L657 310 L481 101 L610 101 Z " />
<glyph glyph-name="onehalf" unicode="&#xbd;" horiz-adv-x="810" d="M109 593 Q127 602 147.5 615 Q168 628 189 642.5 Q210 657 229 671.5 Q248 686 262 698 L294 698 L213 316 L269 316 L267 300 L79 300 L81 316 L143 316 L211 631 Q190 617 164 602.5 Q138 588 117 577 L109 593 Z M95 -9 L684 708 L725 708 L136 -9 L95 -9 Z M718 16 Q709 3 694.5 -1.5 Q680 -6 666 -6 Q645 -6 625.5 0 Q606 6 588 13 Q570 20 553 26 Q536 32 519 32 Q499 32 484 22 Q469 12 455 -6 L444 1 Q462 24 486.5 52.5 Q511 81 540 108 Q568 133 594 158 Q620 183 640.5 209.5 Q661 236 673.5 265 Q686 294 686 327 Q686 361 669.5 375 Q653 389 634 389 Q613 389 594 380.5 Q575 372 559 358 L596 284 Q591 279 581.5 272.5 Q572 266 555 266 Q538 266 525.5 276.5 Q513 287 513 307 Q513 326 524 344 Q535 362 553.5 376 Q572 390 597 398.5 Q622 407 650 407 Q699 407 728 383.5 Q757 360 757 317 Q757 291 746.5 268.5 Q736 246 718.5 226 Q701 206 678 187 Q655 168 629 148 Q607 131 583 114.5 Q559 98 529 69 Q534 71 543.5 71.5 Q553 72 559 72 Q580 72 605 63 Q630 54 660 54 Q669 54 677 55.5 Q685 57 692.5 63 Q700 69 707 80.5 Q714 92 721 112 L738 112 L718 16 Z " />
<glyph glyph-name="threequarters" unicode="&#xbe;" horiz-adv-x="837" d="M56 327 Q79 318 93.5 315 Q108 312 122 312 Q151 312 172.5 322 Q194 332 208 347.5 Q222 363 229 382.5 Q236 402 236 422 Q236 458 221 473.5 Q206 489 180 489 Q169 489 152.5 486 Q136 483 119 478 L113 495 L149 505 Q207 521 239 555.5 Q271 590 271 632 Q271 661 257.5 674 Q244 687 224 687 Q207 687 190.5 679.5 Q174 672 160 657 L197 594 Q183 576 157 576 Q142 576 130 586 Q118 596 118 613 Q118 634 129 651 Q140 668 158 680.5 Q176 693 199.5 700 Q223 707 248 707 Q290 707 318 689 Q346 671 346 634 Q346 594 311.5 561.5 Q277 529 223 514 Q264 506 289.5 485 Q315 464 315 428 Q315 405 303 381 Q291 357 267.5 337.5 Q244 318 210 306 Q176 294 131 294 Q105 294 86.5 297 Q68 300 50 308 L56 327 Z M144 -9 L733 708 L774 708 L185 -9 L144 -9 Z M717 101 L778 101 L775 85 L715 85 L701 16 L750 16 L746 0 L587 0 L591 16 L632 16 L647 85 L494 85 L496 102 L742 398 L780 398 L717 101 Z M649 101 L696 310 L520 101 L649 101 Z " />
<glyph glyph-name="questiondown" unicode="&#xbf;" horiz-adv-x="460" d="M243 -35 Q251 -27 266 -18 Q281 -9 307 -9 Q333 -9 351.5 -24.5 Q370 -40 370 -70 Q370 -111 349 -144.5 Q328 -178 294 -201.5 Q260 -225 218 -238 Q176 -251 133 -251 Q97 -251 65 -242 Q33 -233 10 -216 Q-13 -199 -26.5 -175 Q-40 -151 -40 -120 Q-40 -76 -21.5 -41 Q-3 -6 26.5 23 Q56 52 92.5 76 Q129 100 165 123 Q186 136 198.5 147 Q211 158 218.5 171.5 Q226 185 230.5 202.5 Q235 220 240 245 L245 272 L269 272 L255 198 Q250 170 233 148 Q216 126 194 105 Q172 84 148 62 Q124 40 103.5 13 Q83 -14 70 -48.5 Q57 -83 57 -128 Q57 -155 66 -174.5 Q75 -194 90 -206.5 Q105 -219 124.5 -224.5 Q144 -230 165 -230 Q188 -230 211.5 -223 Q235 -216 256 -204 Q277 -192 294 -176.5 Q311 -161 320 -145 L243 -35 Z M295 466 Q318 466 330 453.5 Q342 441 342 422 Q342 396 322.5 375 Q303 354 274 354 Q251 354 238.5 366.5 Q226 379 226 399 Q226 425 246 445.5 Q266 466 295 466 Z " />
<glyph glyph-name="Agrave" unicode="&#xc0;" horiz-adv-x="567" d="M271 18 L379 18 L347 246 L128 246 L4 18 L112 18 L107 0 L-69 0 L-64 18 L-23 18 L351 708 L376 708 L474 18 L512 18 L507 0 L266 0 L271 18 Z M301 567 L140 269 L344 269 L301 567 Z M449 756 L424 756 L294 849 Q279 860 270.5 868.5 Q262 877 262 888 Q262 903 274 916.5 Q286 930 303 930 Q317 930 326.5 924 Q336 918 346 904 L449 756 Z " />
<glyph glyph-name="Aacute" unicode="&#xc1;" horiz-adv-x="567" d="M271 18 L379 18 L347 246 L128 246 L4 18 L112 18 L107 0 L-69 0 L-64 18 L-23 18 L351 708 L376 708 L474 18 L512 18 L507 0 L266 0 L271 18 Z M301 567 L140 269 L344 269 L301 567 Z M439 904 Q450 915 463 922.5 Q476 930 490 930 Q504 930 515.5 920.5 Q527 911 527 895 Q527 879 516.5 870.5 Q506 862 485 849 L326 756 L300 756 L439 904 Z " />
<glyph glyph-name="Acircumflex" unicode="&#xc2;" horiz-adv-x="567" d="M271 18 L379 18 L347 246 L128 246 L4 18 L112 18 L107 0 L-69 0 L-64 18 L-23 18 L351 708 L376 708 L474 18 L512 18 L507 0 L266 0 L271 18 Z M301 567 L140 269 L344 269 L301 567 Z M487 749 L379 845 L235 751 L221 763 L378 923 L409 923 L507 763 L487 749 Z " />
<glyph glyph-name="Atilde" unicode="&#xc3;" horiz-adv-x="567" d="M271 18 L379 18 L347 246 L128 246 L4 18 L112 18 L107 0 L-69 0 L-64 18 L-23 18 L351 708 L376 708 L474 18 L512 18 L507 0 L266 0 L271 18 Z M301 567 L140 269 L344 269 L301 567 Z M548 887 Q532 832 501.5 804.5 Q471 777 433 777 Q412 777 395 784.5 Q378 792 362.5 800.5 Q347 809 332.5 816.5 Q318 824 302 824 Q285 824 266.5 813 Q248 802 234 773 L220 773 Q236 828 267 855.5 Q298 883 336 883 Q357 883 374 875.5 Q391 868 406 859.5 Q421 851 435.5 843.5 Q450 836 466 836 Q483 836 501.5 847 Q520 858 534 887 L548 887 Z " />
<glyph glyph-name="Adieresis" unicode="&#xc4;" horiz-adv-x="567" d="M271 18 L379 18 L347 246 L128 246 L4 18 L112 18 L107 0 L-69 0 L-64 18 L-23 18 L351 708 L376 708 L474 18 L512 18 L507 0 L266 0 L271 18 Z M301 567 L140 269 L344 269 L301 567 Z M532 850 Q532 827 515 806 Q498 785 472 785 Q453 785 441.5 797.5 Q430 810 430 829 Q430 852 447.5 872.5 Q465 893 491 893 Q509 893 520.5 880.5 Q532 868 532 850 Z M337 849 Q337 826 320 805.5 Q303 785 277 785 Q258 785 246.5 797.5 Q235 810 235 829 Q235 852 252.5 872.5 Q270 893 296 893 Q314 893 325.5 880.5 Q337 868 337 849 Z " />
<glyph glyph-name="Aring" unicode="&#xc5;" horiz-adv-x="567" d="M271 18 L379 18 L347 246 L128 246 L4 18 L112 18 L107 0 L-69 0 L-64 18 L-23 18 L351 708 L376 708 L474 18 L512 18 L507 0 L266 0 L271 18 Z M301 567 L140 269 L344 269 L301 567 Z M484 863 Q484 839 474.5 816 Q465 793 448 775.5 Q431 758 408 747 Q385 736 359 736 Q321 736 300 759 Q279 782 279 817 Q279 843 289 866.5 Q299 890 316.5 907.5 Q334 925 356.5 935.5 Q379 946 404 946 Q442 946 463 922.5 Q484 899 484 863 Z M364 760 Q382 760 395 770.5 Q408 781 417 797.5 Q426 814 430 832.5 Q434 851 434 868 Q434 891 427 907 Q420 923 399 923 Q381 923 368 912 Q355 901 346.5 884.5 Q338 868 333.5 848.5 Q329 829 329 812 Q329 790 336 775 Q343 760 364 760 Z " />
<glyph glyph-name="AE" unicode="&#xc6;" horiz-adv-x="847" d="M-20 18 L452 679 L390 679 L395 697 L724 697 Q791 697 820 669.5 Q849 642 849 606 Q849 586 842.5 568 Q836 550 823.5 536 Q811 522 793.5 513.5 Q776 505 754 505 Q735 505 725 511.5 Q715 518 710 525 L811 638 Q797 661 777 670 Q757 679 720 679 L560 679 L492 359 L682 359 L677 340 L488 340 L420 18 L510 18 Q565 18 606 28 Q647 38 676.5 55.5 Q706 73 724 98 Q742 123 752 153 L759 175 L771 175 L730 0 L249 0 L254 18 L335 18 L385 254 L173 254 L7 18 L103 18 L98 0 L-73 0 L-68 18 L-20 18 Z M389 273 L475 679 L187 273 L389 273 Z " />
<glyph glyph-name="Ccedilla" unicode="&#xc7;" horiz-adv-x="556" d="M287 16 Q332 16 364.5 30 Q397 44 420.5 65 Q444 86 460.5 110 Q477 134 489 154 L503 144 Q490 121 470.5 94.5 Q451 68 423 45.5 Q395 23 357.5 7.5 Q320 -8 272 -9 L234 -80 Q239 -78 249 -76.5 Q259 -75 273 -75 Q309 -75 328.5 -93 Q348 -111 348 -136 Q348 -160 338 -177.5 Q328 -195 311.5 -206.5 Q295 -218 274.5 -224 Q254 -230 233 -230 Q200 -230 179 -216.5 Q158 -203 158 -183 Q158 -166 167.5 -157.5 Q177 -149 190 -149 Q201 -149 208 -153 Q215 -157 218 -162 L178 -199 Q181 -204 190.5 -209 Q200 -214 214 -214 Q237 -214 258.5 -197.5 Q280 -181 280 -143 Q280 -121 270.5 -107 Q261 -93 239 -93 Q228 -93 221.5 -95 Q215 -97 208 -100 L200 -95 L247 -8 Q190 -4 150.5 19 Q111 42 86.5 78.5 Q62 115 51 163.5 Q40 212 40 266 Q40 316 50.5 368.5 Q61 421 82 470 Q103 519 133.5 562.5 Q164 606 204 638 Q244 670 293 689 Q342 708 400 708 Q446 708 478 697 Q510 686 529.5 668 Q549 650 558 626.5 Q567 603 567 578 Q567 553 559 534.5 Q551 516 539 503.5 Q527 491 511.5 484.5 Q496 478 481 478 Q457 478 445.5 487 Q434 496 430 504 L542 614 Q526 651 494.5 670 Q463 689 406 689 Q341 689 291.5 651.5 Q242 614 209 552 Q176 490 159.5 411 Q143 332 143 250 Q143 128 182 72 Q221 16 287 16 Z " />
<glyph glyph-name="Egrave" unicode="&#xc8;" horiz-adv-x="550" d="M442 697 Q509 697 538 669.5 Q567 642 567 606 Q567 563 541.5 534 Q516 505 472 505 Q453 505 443 511.5 Q433 518 428 525 L529 638 Q515 661 495 670 Q475 679 438 679 L263 679 L195 359 L400 359 L395 340 L191 340 L123 18 L213 18 Q324 18 386.5 53.5 Q449 89 469 149 L476 171 L488 171 L448 0 L-48 0 L-43 18 L38 18 L178 679 L96 679 L100 697 L442 697 Z M471 756 L446 756 L316 849 Q301 860 292.5 868.5 Q284 877 284 888 Q284 903 296 916.5 Q308 930 325 930 Q339 930 348.5 924 Q358 918 368 904 L471 756 Z " />
<glyph glyph-name="Eacute" unicode="&#xc9;" horiz-adv-x="550" d="M442 697 Q509 697 538 669.5 Q567 642 567 606 Q567 563 541.5 534 Q516 505 472 505 Q453 505 443 511.5 Q433 518 428 525 L529 638 Q515 661 495 670 Q475 679 438 679 L263 679 L195 359 L400 359 L395 340 L191 340 L123 18 L213 18 Q324 18 386.5 53.5 Q449 89 469 149 L476 171 L488 171 L448 0 L-48 0 L-43 18 L38 18 L178 679 L96 679 L100 697 L442 697 Z M441 904 Q452 915 465 922.5 Q478 930 492 930 Q506 930 517.5 920.5 Q529 911 529 895 Q529 879 518.5 870.5 Q508 862 487 849 L328 756 L302 756 L441 904 Z " />
<glyph glyph-name="Ecircumflex" unicode="&#xca;" horiz-adv-x="550" d="M442 697 Q509 697 538 669.5 Q567 642 567 606 Q567 563 541.5 534 Q516 505 472 505 Q453 505 443 511.5 Q433 518 428 525 L529 638 Q515 661 495 670 Q475 679 438 679 L263 679 L195 359 L400 359 L395 340 L191 340 L123 18 L213 18 Q324 18 386.5 53.5 Q449 89 469 149 L476 171 L488 171 L448 0 L-48 0 L-43 18 L38 18 L178 679 L96 679 L100 697 L442 697 Z M509 749 L401 845 L257 751 L243 763 L400 923 L431 923 L529 763 L509 749 Z " />
<glyph glyph-name="Edieresis" unicode="&#xcb;" horiz-adv-x="550" d="M442 697 Q509 697 538 669.5 Q567 642 567 606 Q567 563 541.5 534 Q516 505 472 505 Q453 505 443 511.5 Q433 518 428 525 L529 638 Q515 661 495 670 Q475 679 438 679 L263 679 L195 359 L400 359 L395 340 L191 340 L123 18 L213 18 Q324 18 386.5 53.5 Q449 89 469 149 L476 171 L488 171 L448 0 L-48 0 L-43 18 L38 18 L178 679 L96 679 L100 697 L442 697 Z M538 850 Q538 827 521 806 Q504 785 478 785 Q459 785 447.5 797.5 Q436 810 436 829 Q436 852 453.5 872.5 Q471 893 497 893 Q515 893 526.5 880.5 Q538 868 538 850 Z M343 849 Q343 826 326 805.5 Q309 785 283 785 Q264 785 252.5 797.5 Q241 810 241 829 Q241 852 258.5 872.5 Q276 893 302 893 Q320 893 331.5 880.5 Q343 868 343 849 Z " />
<glyph glyph-name="Igrave" unicode="&#xcc;" horiz-adv-x="301" d="M-42 0 L-37 18 L43 18 L183 679 L101 679 L105 697 L354 697 L350 679 L268 679 L128 18 L209 18 L205 0 L-42 0 Z M349 756 L324 756 L194 849 Q179 860 170.5 868.5 Q162 877 162 888 Q162 903 174 916.5 Q186 930 203 930 Q217 930 226.5 924 Q236 918 246 904 L349 756 Z " />
<glyph glyph-name="Iacute" unicode="&#xcd;" horiz-adv-x="301" d="M-42 0 L-37 18 L43 18 L183 679 L101 679 L105 697 L354 697 L350 679 L268 679 L128 18 L209 18 L205 0 L-42 0 Z M308 904 Q319 915 332 922.5 Q345 930 359 930 Q373 930 384.5 920.5 Q396 911 396 895 Q396 879 385.5 870.5 Q375 862 354 849 L195 756 L169 756 L308 904 Z " />
<glyph glyph-name="Icircumflex" unicode="&#xce;" horiz-adv-x="301" d="M-42 0 L-37 18 L43 18 L183 679 L101 679 L105 697 L354 697 L350 679 L268 679 L128 18 L209 18 L205 0 L-42 0 Z M374 749 L266 845 L122 751 L108 763 L265 923 L296 923 L394 763 L374 749 Z " />
<glyph glyph-name="Idieresis" unicode="&#xcf;" horiz-adv-x="301" d="M-42 0 L-37 18 L43 18 L183 679 L101 679 L105 697 L354 697 L350 679 L268 679 L128 18 L209 18 L205 0 L-42 0 Z M399 850 Q399 827 382 806 Q365 785 339 785 Q320 785 308.5 797.5 Q297 810 297 829 Q297 852 314.5 872.5 Q332 893 358 893 Q376 893 387.5 880.5 Q399 868 399 850 Z M224 849 Q224 826 207 805.5 Q190 785 164 785 Q145 785 133.5 797.5 Q122 810 122 829 Q122 852 139.5 872.5 Q157 893 183 893 Q201 893 212.5 880.5 Q224 868 224 849 Z " />
<glyph glyph-name="Eth" unicode="&#xd0;" horiz-adv-x="673" d="M140 18 L182 18 Q261 18 326.5 45.5 Q392 73 439.5 126 Q487 179 513 258 Q539 337 539 440 Q539 504 521 550 Q503 596 469 626 Q435 656 387.5 670 Q340 684 282 684 L215 370 L373 370 L368 350 L210 350 L140 18 Z M47 350 L53 370 L130 370 L165 536 Q172 567 177.5 589 Q183 611 189 627 Q195 643 202.5 655 Q210 667 222 679 Q192 674 158.5 664 Q125 654 98 642 L92 660 Q134 680 191 694 Q248 708 328 708 Q400 708 457 687.5 Q514 667 553.5 628 Q593 589 614.5 533 Q636 477 636 406 Q636 313 602.5 238 Q569 163 510 110 Q451 57 370 28.5 Q289 0 195 0 L-32 0 L-27 18 L54 18 L125 350 L47 350 Z " />
<glyph glyph-name="Ntilde" unicode="&#xd1;" horiz-adv-x="654" d="M100 697 L276 697 L492 154 L604 679 L523 679 L527 697 L713 697 L709 679 L627 679 L482 0 L459 0 L196 649 L62 18 L167 18 L163 0 L-47 0 L-42 18 L39 18 L178 679 L96 679 L100 697 Z M616 892 Q600 837 569.5 809.5 Q539 782 501 782 Q480 782 463 789.5 Q446 797 430.5 805.5 Q415 814 400.5 821.5 Q386 829 370 829 Q353 829 334.5 818 Q316 807 302 778 L288 778 Q304 833 335 860.5 Q366 888 404 888 Q425 888 442 880.5 Q459 873 474 864.5 Q489 856 503.5 848.5 Q518 841 534 841 Q551 841 569.5 852 Q588 863 602 892 L616 892 Z " />
<glyph glyph-name="Ograve" unicode="&#xd2;" horiz-adv-x="658" d="M404 708 Q457 708 498.5 687.5 Q540 667 568.5 631 Q597 595 612 545.5 Q627 496 627 438 Q627 365 603.5 286 Q580 207 534 141.5 Q488 76 420 33.5 Q352 -9 264 -9 Q211 -9 169 9 Q127 27 98 60.5 Q69 94 54 141.5 Q39 189 39 248 Q39 326 66 407.5 Q93 489 141.5 556 Q190 623 257 665.5 Q324 708 404 708 Z M269 10 Q310 10 345.5 31.5 Q381 53 410 89 Q439 125 461 173.5 Q483 222 498 275.5 Q513 329 521 385.5 Q529 442 529 494 Q529 585 498.5 637.5 Q468 690 400 690 Q340 690 292 647 Q244 604 209.5 535.5 Q175 467 156.5 382 Q138 297 138 213 Q138 119 170.5 64.5 Q203 10 269 10 Z M549 756 L524 756 L394 849 Q379 860 370.5 868.5 Q362 877 362 888 Q362 903 374 916.5 Q386 930 403 930 Q417 930 426.5 924 Q436 918 446 904 L549 756 Z " />
<glyph glyph-name="Oacute" unicode="&#xd3;" horiz-adv-x="658" d="M404 708 Q457 708 498.5 687.5 Q540 667 568.5 631 Q597 595 612 545.5 Q627 496 627 438 Q627 365 603.5 286 Q580 207 534 141.5 Q488 76 420 33.5 Q352 -9 264 -9 Q211 -9 169 9 Q127 27 98 60.5 Q69 94 54 141.5 Q39 189 39 248 Q39 326 66 407.5 Q93 489 141.5 556 Q190 623 257 665.5 Q324 708 404 708 Z M269 10 Q310 10 345.5 31.5 Q381 53 410 89 Q439 125 461 173.5 Q483 222 498 275.5 Q513 329 521 385.5 Q529 442 529 494 Q529 585 498.5 637.5 Q468 690 400 690 Q340 690 292 647 Q244 604 209.5 535.5 Q175 467 156.5 382 Q138 297 138 213 Q138 119 170.5 64.5 Q203 10 269 10 Z M479 904 Q490 915 503 922.5 Q516 930 530 930 Q544 930 555.5 920.5 Q567 911 567 895 Q567 879 556.5 870.5 Q546 862 525 849 L366 756 L340 756 L479 904 Z " />
<glyph glyph-name="Ocircumflex" unicode="&#xd4;" horiz-adv-x="658" d="M404 708 Q457 708 498.5 687.5 Q540 667 568.5 631 Q597 595 612 545.5 Q627 496 627 438 Q627 365 603.5 286 Q580 207 534 141.5 Q488 76 420 33.5 Q352 -9 264 -9 Q211 -9 169 9 Q127 27 98 60.5 Q69 94 54 141.5 Q39 189 39 248 Q39 326 66 407.5 Q93 489 141.5 556 Q190 623 257 665.5 Q324 708 404 708 Z M269 10 Q310 10 345.5 31.5 Q381 53 410 89 Q439 125 461 173.5 Q483 222 498 275.5 Q513 329 521 385.5 Q529 442 529 494 Q529 585 498.5 637.5 Q468 690 400 690 Q340 690 292 647 Q244 604 209.5 535.5 Q175 467 156.5 382 Q138 297 138 213 Q138 119 170.5 64.5 Q203 10 269 10 Z M548 749 L440 845 L296 751 L282 763 L439 923 L470 923 L568 763 L548 749 Z " />
<glyph glyph-name="Otilde" unicode="&#xd5;" horiz-adv-x="658" d="M404 708 Q457 708 498.5 687.5 Q540 667 568.5 631 Q597 595 612 545.5 Q627 496 627 438 Q627 365 603.5 286 Q580 207 534 141.5 Q488 76 420 33.5 Q352 -9 264 -9 Q211 -9 169 9 Q127 27 98 60.5 Q69 94 54 141.5 Q39 189 39 248 Q39 326 66 407.5 Q93 489 141.5 556 Q190 623 257 665.5 Q324 708 404 708 Z M269 10 Q310 10 345.5 31.5 Q381 53 410 89 Q439 125 461 173.5 Q483 222 498 275.5 Q513 329 521 385.5 Q529 442 529 494 Q529 585 498.5 637.5 Q468 690 400 690 Q340 690 292 647 Q244 604 209.5 535.5 Q175 467 156.5 382 Q138 297 138 213 Q138 119 170.5 64.5 Q203 10 269 10 Z M598 892 Q582 837 551.5 809.5 Q521 782 483 782 Q462 782 445 789.5 Q428 797 412.5 805.5 Q397 814 382.5 821.5 Q368 829 352 829 Q335 829 316.5 818 Q298 807 284 778 L270 778 Q286 833 317 860.5 Q348 888 386 888 Q407 888 424 880.5 Q441 873 456 864.5 Q471 856 485.5 848.5 Q500 841 516 841 Q533 841 551.5 852 Q570 863 584 892 L598 892 Z " />
<glyph glyph-name="Odieresis" unicode="&#xd6;" horiz-adv-x="658" d="M404 708 Q457 708 498.5 687.5 Q540 667 568.5 631 Q597 595 612 545.5 Q627 496 627 438 Q627 365 603.5 286 Q580 207 534 141.5 Q488 76 420 33.5 Q352 -9 264 -9 Q211 -9 169 9 Q127 27 98 60.5 Q69 94 54 141.5 Q39 189 39 248 Q39 326 66 407.5 Q93 489 141.5 556 Q190 623 257 665.5 Q324 708 404 708 Z M269 10 Q310 10 345.5 31.5 Q381 53 410 89 Q439 125 461 173.5 Q483 222 498 275.5 Q513 329 521 385.5 Q529 442 529 494 Q529 585 498.5 637.5 Q468 690 400 690 Q340 690 292 647 Q244 604 209.5 535.5 Q175 467 156.5 382 Q138 297 138 213 Q138 119 170.5 64.5 Q203 10 269 10 Z M584 849 Q584 826 567 805 Q550 784 524 784 Q505 784 493.5 796.5 Q482 809 482 828 Q482 851 499.5 871.5 Q517 892 543 892 Q561 892 572.5 879.5 Q584 867 584 849 Z M389 848 Q389 825 372 804.5 Q355 784 329 784 Q310 784 298.5 796.5 Q287 809 287 828 Q287 851 304.5 871.5 Q322 892 348 892 Q366 892 377.5 879.5 Q389 867 389 848 Z " />
<glyph glyph-name="multiply" unicode="&#xd7;" horiz-adv-x="696" d="M492 60 L322 264 L76 67 L44 105 L292 300 L131 495 L182 535 L344 342 L589 538 L620 501 L374 305 L543 101 L492 60 Z " />
<glyph glyph-name="Oslash" unicode="&#xd8;" horiz-adv-x="659" d="M405 708 Q501 708 559 645 L632 740 L663 740 L574 625 Q628 551 628 436 Q628 363 604.5 284.5 Q581 206 535 140.5 Q489 75 421 33 Q353 -9 265 -9 Q177 -9 121 38 L57 -45 L27 -45 L104 54 Q72 88 55.5 137 Q39 186 39 248 Q39 295 50.5 347.5 Q62 400 84 451 Q106 502 137.5 548.5 Q169 595 210 630.5 Q251 666 300 687 Q349 708 405 708 Z M401 690 Q341 690 292.5 646 Q244 602 210 532.5 Q176 463 157.5 378.5 Q139 294 139 213 Q139 159 150 115 L518 593 Q505 640 476.5 665 Q448 690 401 690 Z M270 10 Q311 10 346 31.5 Q381 53 410 89.5 Q439 126 461.5 174 Q484 222 499 275.5 Q514 329 522 385 Q530 441 530 493 Q530 511 528.5 528 Q527 545 525 561 L160 88 Q175 50 202.5 30 Q230 10 270 10 Z " />
<glyph glyph-name="Ugrave" unicode="&#xd9;" horiz-adv-x="657" d="M336 697 L332 679 L251 679 L157 237 Q152 217 151 200 Q150 183 150 168 Q150 124 162.5 95 Q175 66 195 48.5 Q215 31 241.5 23.5 Q268 16 295 16 Q381 16 443 73 Q505 130 529 244 L621 679 L540 679 L544 697 L730 697 L726 679 L644 679 L552 243 Q527 124 457 57.5 Q387 -9 289 -9 Q177 -9 122.5 35 Q68 79 68 175 Q68 194 70 215.5 Q72 237 77 260 L166 679 L85 679 L89 697 L336 697 Z M514 756 L489 756 L359 849 Q344 860 335.5 868.5 Q327 877 327 888 Q327 903 339 916.5 Q351 930 368 930 Q382 930 391.5 924 Q401 918 411 904 L514 756 Z " />
<glyph glyph-name="Uacute" unicode="&#xda;" horiz-adv-x="657" d="M336 697 L332 679 L251 679 L157 237 Q152 217 151 200 Q150 183 150 168 Q150 124 162.5 95 Q175 66 195 48.5 Q215 31 241.5 23.5 Q268 16 295 16 Q381 16 443 73 Q505 130 529 244 L621 679 L540 679 L544 697 L730 697 L726 679 L644 679 L552 243 Q527 124 457 57.5 Q387 -9 289 -9 Q177 -9 122.5 35 Q68 79 68 175 Q68 194 70 215.5 Q72 237 77 260 L166 679 L85 679 L89 697 L336 697 Z M515 904 Q526 915 539 922.5 Q552 930 566 930 Q580 930 591.5 920.5 Q603 911 603 895 Q603 879 592.5 870.5 Q582 862 561 849 L402 756 L376 756 L515 904 Z " />
<glyph glyph-name="Ucircumflex" unicode="&#xdb;" horiz-adv-x="657" d="M336 697 L332 679 L251 679 L157 237 Q152 217 151 200 Q150 183 150 168 Q150 124 162.5 95 Q175 66 195 48.5 Q215 31 241.5 23.5 Q268 16 295 16 Q381 16 443 73 Q505 130 529 244 L621 679 L540 679 L544 697 L730 697 L726 679 L644 679 L552 243 Q527 124 457 57.5 Q387 -9 289 -9 Q177 -9 122.5 35 Q68 79 68 175 Q68 194 70 215.5 Q72 237 77 260 L166 679 L85 679 L89 697 L336 697 Z M582 750 L474 846 L330 752 L316 764 L473 924 L504 924 L602 764 L582 750 Z " />
<glyph glyph-name="Udieresis" unicode="&#xdc;" horiz-adv-x="657" d="M336 697 L332 679 L251 679 L157 237 Q152 217 151 200 Q150 183 150 168 Q150 124 162.5 95 Q175 66 195 48.5 Q215 31 241.5 23.5 Q268 16 295 16 Q381 16 443 73 Q505 130 529 244 L621 679 L540 679 L544 697 L730 697 L726 679 L644 679 L552 243 Q527 124 457 57.5 Q387 -9 289 -9 Q177 -9 122.5 35 Q68 79 68 175 Q68 194 70 215.5 Q72 237 77 260 L166 679 L85 679 L89 697 L336 697 Z M616 850 Q616 827 599 806 Q582 785 556 785 Q537 785 525.5 797.5 Q514 810 514 829 Q514 852 531.5 872.5 Q549 893 575 893 Q593 893 604.5 880.5 Q616 868 616 850 Z M421 849 Q421 826 404 805.5 Q387 785 361 785 Q342 785 330.5 797.5 Q319 810 319 829 Q319 852 336.5 872.5 Q354 893 380 893 Q398 893 409.5 880.5 Q421 868 421 849 Z " />
<glyph glyph-name="Yacute" unicode="&#xdd;" horiz-adv-x="566" d="M348 18 L343 0 L96 0 L100 18 L182 18 L238 285 L143 679 L70 679 L74 697 L348 697 L344 679 L242 679 L319 330 L563 679 L464 679 L468 697 L650 697 L646 679 L593 679 L326 299 L266 18 L348 18 Z M488 904 Q499 915 512 922.5 Q525 930 539 930 Q553 930 564.5 920.5 Q576 911 576 895 Q576 879 565.5 870.5 Q555 862 534 849 L375 756 L349 756 L488 904 Z " />
<glyph glyph-name="Thorn" unicode="&#xde;" horiz-adv-x="552" d="M235 18 L231 0 L-42 0 L-37 18 L43 18 L184 679 L102 679 L106 697 L349 697 L345 679 L269 679 L242 557 L294 557 Q362 557 408 543.5 Q454 530 481.5 507 Q509 484 520.5 454.5 Q532 425 532 392 Q532 350 515.5 308 Q499 266 462 232 Q425 198 364.5 176.5 Q304 155 216 155 L156 155 L128 18 L235 18 Z M213 173 Q273 173 314 193.5 Q355 214 381 247 Q407 280 418.5 321 Q430 362 430 403 Q430 431 423 456 Q416 481 399 499.5 Q382 518 354 528.5 Q326 539 284 539 L238 539 L160 173 L213 173 Z " />
<glyph glyph-name="germandbls" unicode="&#xdf;" horiz-adv-x="526" d="M117 441 L55 441 L59 457 L71 457 Q103 457 117 475 Q131 493 141 536 Q162 629 209.5 681 Q257 733 350 733 Q419 733 455 695.5 Q491 658 491 602 Q491 533 446.5 473.5 Q402 414 305 381 Q345 381 374.5 369.5 Q404 358 424 337.5 Q444 317 454 289.5 Q464 262 464 231 Q464 175 444.5 130.5 Q425 86 393.5 55 Q362 24 322 7.5 Q282 -9 240 -9 Q214 -9 190.5 -2 Q167 5 150 19 L162 33 Q191 13 222 13 Q249 13 276 29.5 Q303 46 324.5 75 Q346 104 359 143.5 Q372 183 372 230 Q372 296 339 332.5 Q306 369 229 371 L232 385 Q276 385 308.5 407 Q341 429 362.5 463.5 Q384 498 394.5 540 Q405 582 405 621 Q405 715 336 715 Q292 715 263 673.5 Q234 632 220 566 L110 38 Q84 -87 35.5 -152.5 Q-13 -218 -91 -223 L-94 -212 Q-73 -208 -55.5 -193 Q-38 -178 -24.5 -155.5 Q-11 -133 -1.5 -104 Q8 -75 15 -43 L117 441 Z " />
<glyph glyph-name="agrave" unicode="&#xe0;" horiz-adv-x="514" d="M173 14 Q196 14 217 30.5 Q238 47 256.5 74.5 Q275 102 290.5 137.5 Q306 173 317 211.5 Q328 250 334 288 Q340 326 340 358 Q340 397 326.5 424 Q313 451 281 451 Q250 451 225.5 435 Q201 419 182 392.5 Q163 366 149.5 332 Q136 298 127.5 263 Q119 228 115 194 Q111 160 111 133 Q111 76 125.5 45 Q140 14 173 14 Z M146 -9 Q87 -9 54 31 Q21 71 21 157 Q21 214 39 269 Q57 324 90.5 368 Q124 412 172.5 439 Q221 466 282 466 Q302 466 318 460.5 Q334 455 346 447 Q358 439 366 430 Q374 421 378 413 L400 457 L446 457 L382 151 Q374 110 370.5 91.5 Q367 73 367 60 Q367 46 371.5 36.5 Q376 27 390 27 Q406 27 421.5 42.5 Q437 58 451 84 L463 80 Q443 39 415.5 15 Q388 -9 356 -9 Q327 -9 310.5 10 Q294 29 294 71 Q294 85 297 105 Q272 51 232.5 21 Q193 -9 146 -9 Z M412 516 L387 516 L257 609 Q242 620 233.5 628.5 Q225 637 225 648 Q225 663 237 676.5 Q249 690 266 690 Q280 690 289.5 684 Q299 678 309 664 L412 516 Z " />
<glyph glyph-name="aacute" unicode="&#xe1;" horiz-adv-x="514" d="M173 14 Q196 14 217 30.5 Q238 47 256.5 74.5 Q275 102 290.5 137.5 Q306 173 317 211.5 Q328 250 334 288 Q340 326 340 358 Q340 397 326.5 424 Q313 451 281 451 Q250 451 225.5 435 Q201 419 182 392.5 Q163 366 149.5 332 Q136 298 127.5 263 Q119 228 115 194 Q111 160 111 133 Q111 76 125.5 45 Q140 14 173 14 Z M146 -9 Q87 -9 54 31 Q21 71 21 157 Q21 214 39 269 Q57 324 90.5 368 Q124 412 172.5 439 Q221 466 282 466 Q302 466 318 460.5 Q334 455 346 447 Q358 439 366 430 Q374 421 378 413 L400 457 L446 457 L382 151 Q374 110 370.5 91.5 Q367 73 367 60 Q367 46 371.5 36.5 Q376 27 390 27 Q406 27 421.5 42.5 Q437 58 451 84 L463 80 Q443 39 415.5 15 Q388 -9 356 -9 Q327 -9 310.5 10 Q294 29 294 71 Q294 85 297 105 Q272 51 232.5 21 Q193 -9 146 -9 Z M372 664 Q383 675 396 682.5 Q409 690 423 690 Q437 690 448.5 680.5 Q460 671 460 655 Q460 639 449.5 630.5 Q439 622 418 609 L259 516 L233 516 L372 664 Z " />
<glyph glyph-name="acircumflex" unicode="&#xe2;" horiz-adv-x="514" d="M173 14 Q196 14 217 30.5 Q238 47 256.5 74.5 Q275 102 290.5 137.5 Q306 173 317 211.5 Q328 250 334 288 Q340 326 340 358 Q340 397 326.5 424 Q313 451 281 451 Q250 451 225.5 435 Q201 419 182 392.5 Q163 366 149.5 332 Q136 298 127.5 263 Q119 228 115 194 Q111 160 111 133 Q111 76 125.5 45 Q140 14 173 14 Z M146 -9 Q87 -9 54 31 Q21 71 21 157 Q21 214 39 269 Q57 324 90.5 368 Q124 412 172.5 439 Q221 466 282 466 Q302 466 318 460.5 Q334 455 346 447 Q358 439 366 430 Q374 421 378 413 L400 457 L446 457 L382 151 Q374 110 370.5 91.5 Q367 73 367 60 Q367 46 371.5 36.5 Q376 27 390 27 Q406 27 421.5 42.5 Q437 58 451 84 L463 80 Q443 39 415.5 15 Q388 -9 356 -9 Q327 -9 310.5 10 Q294 29 294 71 Q294 85 297 105 Q272 51 232.5 21 Q193 -9 146 -9 Z M441 514 L333 610 L189 516 L175 528 L332 688 L363 688 L461 528 L441 514 Z " />
<glyph glyph-name="atilde" unicode="&#xe3;" horiz-adv-x="514" d="M173 14 Q196 14 217 30.5 Q238 47 256.5 74.5 Q275 102 290.5 137.5 Q306 173 317 211.5 Q328 250 334 288 Q340 326 340 358 Q340 397 326.5 424 Q313 451 281 451 Q250 451 225.5 435 Q201 419 182 392.5 Q163 366 149.5 332 Q136 298 127.5 263 Q119 228 115 194 Q111 160 111 133 Q111 76 125.5 45 Q140 14 173 14 Z M146 -9 Q87 -9 54 31 Q21 71 21 157 Q21 214 39 269 Q57 324 90.5 368 Q124 412 172.5 439 Q221 466 282 466 Q302 466 318 460.5 Q334 455 346 447 Q358 439 366 430 Q374 421 378 413 L400 457 L446 457 L382 151 Q374 110 370.5 91.5 Q367 73 367 60 Q367 46 371.5 36.5 Q376 27 390 27 Q406 27 421.5 42.5 Q437 58 451 84 L463 80 Q443 39 415.5 15 Q388 -9 356 -9 Q327 -9 310.5 10 Q294 29 294 71 Q294 85 297 105 Q272 51 232.5 21 Q193 -9 146 -9 Z M483 642 Q467 587 436.5 559.5 Q406 532 368 532 Q347 532 330 539.5 Q313 547 297.5 555.5 Q282 564 267.5 571.5 Q253 579 237 579 Q220 579 201.5 568 Q183 557 169 528 L155 528 Q171 583 202 610.5 Q233 638 271 638 Q292 638 309 630.5 Q326 623 341 614.5 Q356 606 370.5 598.5 Q385 591 401 591 Q418 591 436.5 602 Q455 613 469 642 L483 642 Z " />
<glyph glyph-name="adieresis" unicode="&#xe4;" horiz-adv-x="514" d="M173 14 Q196 14 217 30.5 Q238 47 256.5 74.5 Q275 102 290.5 137.5 Q306 173 317 211.5 Q328 250 334 288 Q340 326 340 358 Q340 397 326.5 424 Q313 451 281 451 Q250 451 225.5 435 Q201 419 182 392.5 Q163 366 149.5 332 Q136 298 127.5 263 Q119 228 115 194 Q111 160 111 133 Q111 76 125.5 45 Q140 14 173 14 Z M146 -9 Q87 -9 54 31 Q21 71 21 157 Q21 214 39 269 Q57 324 90.5 368 Q124 412 172.5 439 Q221 466 282 466 Q302 466 318 460.5 Q334 455 346 447 Q358 439 366 430 Q374 421 378 413 L400 457 L446 457 L382 151 Q374 110 370.5 91.5 Q367 73 367 60 Q367 46 371.5 36.5 Q376 27 390 27 Q406 27 421.5 42.5 Q437 58 451 84 L463 80 Q443 39 415.5 15 Q388 -9 356 -9 Q327 -9 310.5 10 Q294 29 294 71 Q294 85 297 105 Q272 51 232.5 21 Q193 -9 146 -9 Z M469 605 Q469 582 452 561 Q435 540 409 540 Q390 540 378.5 552.5 Q367 565 367 584 Q367 607 384.5 627.5 Q402 648 428 648 Q446 648 457.5 635.5 Q469 623 469 605 Z M274 604 Q274 581 257 560.5 Q240 540 214 540 Q195 540 183.5 552.5 Q172 565 172 584 Q172 607 189.5 627.5 Q207 648 233 648 Q251 648 262.5 635.5 Q274 623 274 604 Z " />
<glyph glyph-name="aring" unicode="&#xe5;" horiz-adv-x="514" d="M173 14 Q196 14 217 30.5 Q238 47 256.5 74.5 Q275 102 290.5 137.5 Q306 173 317 211.5 Q328 250 334 288 Q340 326 340 358 Q340 397 326.5 424 Q313 451 281 451 Q250 451 225.5 435 Q201 419 182 392.5 Q163 366 149.5 332 Q136 298 127.5 263 Q119 228 115 194 Q111 160 111 133 Q111 76 125.5 45 Q140 14 173 14 Z M146 -9 Q87 -9 54 31 Q21 71 21 157 Q21 214 39 269 Q57 324 90.5 368 Q124 412 172.5 439 Q221 466 282 466 Q302 466 318 460.5 Q334 455 346 447 Q358 439 366 430 Q374 421 378 413 L400 457 L446 457 L382 151 Q374 110 370.5 91.5 Q367 73 367 60 Q367 46 371.5 36.5 Q376 27 390 27 Q406 27 421.5 42.5 Q437 58 451 84 L463 80 Q443 39 415.5 15 Q388 -9 356 -9 Q327 -9 310.5 10 Q294 29 294 71 Q294 85 297 105 Q272 51 232.5 21 Q193 -9 146 -9 Z M410 628 Q410 604 400.5 581 Q391 558 374 540.5 Q357 523 334 512 Q311 501 285 501 Q247 501 226 524 Q205 547 205 582 Q205 608 215 631.5 Q225 655 242.5 672.5 Q260 690 282.5 700.5 Q305 711 330 711 Q368 711 389 687.5 Q410 664 410 628 Z M290 525 Q308 525 321 535.5 Q334 546 343 562.5 Q352 579 356 597.5 Q360 616 360 633 Q360 656 353 672 Q346 688 325 688 Q307 688 294 677 Q281 666 272.5 649.5 Q264 633 259.5 613.5 Q255 594 255 577 Q255 555 262 540 Q269 525 290 525 Z " />
<glyph glyph-name="ae" unicode="&#xe6;" horiz-adv-x="689" d="M302 93 Q297 110 294.5 129.5 Q292 149 292 167 Q292 203 301 235 Q266 233 230.5 227 Q195 221 167 205 Q139 189 121.5 161.5 Q104 134 104 88 Q104 50 125 35.5 Q146 21 171 21 Q191 21 207.5 25.5 Q224 30 239 39 Q254 48 269.5 61.5 Q285 75 302 93 Z M309 75 Q274 40 228 15.5 Q182 -9 128 -9 Q68 -9 37.5 16 Q7 41 7 83 Q7 122 21.5 150 Q36 178 59.5 196 Q83 214 114 224.5 Q145 235 178 240.5 Q211 246 244 247.5 Q277 249 305 250 Q312 272 319 288.5 Q326 305 337 324 Q338 330 338.5 336 Q339 342 339 347 Q339 373 330.5 392.5 Q322 412 308.5 424.5 Q295 437 278 443.5 Q261 450 244 450 Q215 450 189.5 440 Q164 430 144 410 L186 305 Q181 297 166 290.5 Q151 284 134 284 Q111 284 96.5 297 Q82 310 82 336 Q82 367 98.5 391.5 Q115 416 141.5 432.5 Q168 449 199.5 457.5 Q231 466 261 466 Q322 466 353 447 Q384 428 398 403 Q430 432 468 449 Q506 466 548 466 Q611 466 639.5 439 Q668 412 668 377 Q668 354 655.5 330 Q643 306 618.5 286.5 Q594 267 558.5 254 Q523 241 477 241 Q454 241 433.5 243 Q413 245 396 252 Q382 190 382 135 Q382 113 386.5 91 Q391 69 401 52 Q411 35 428 24 Q445 13 469 13 Q497 13 521 24 Q545 35 563 51 Q581 67 593.5 85 Q606 103 612 117 L623 109 Q615 91 601 70.5 Q587 50 565.5 32.5 Q544 15 514 3 Q484 -9 442 -9 Q400 -9 364.5 11 Q329 31 309 75 Z M543 452 Q515 452 492.5 435.5 Q470 419 452 393 Q434 367 421 334.5 Q408 302 399 269 Q416 264 431.5 262.5 Q447 261 461 261 Q493 261 517.5 272.5 Q542 284 558.5 302.5 Q575 321 583 343 Q591 365 591 386 Q591 413 579 432.5 Q567 452 543 452 Z " />
<glyph glyph-name="ccedilla" unicode="&#xe7;" horiz-adv-x="399" d="M282 451 Q239 451 207.5 424 Q176 397 155.5 354 Q135 311 125 258.5 Q115 206 115 154 Q115 124 119.5 98 Q124 72 133.5 53 Q143 34 159.5 23.5 Q176 13 200 13 Q224 13 245 23 Q266 33 283.5 48 Q301 63 314.5 81.5 Q328 100 337 117 L348 109 Q337 89 323 69.5 Q309 50 290 34 Q271 18 246.5 6.5 Q222 -5 189 -8 L150 -80 Q155 -78 165 -76.5 Q175 -75 189 -75 Q225 -75 244.5 -92.5 Q264 -110 264 -135 Q264 -159 254 -176.5 Q244 -194 227.5 -206 Q211 -218 190.5 -224 Q170 -230 149 -230 Q116 -230 95 -216.5 Q74 -203 74 -183 Q74 -166 83.5 -157.5 Q93 -149 106 -149 Q117 -149 124 -153 Q131 -157 134 -162 L94 -199 Q97 -204 106.5 -209 Q116 -214 130 -214 Q153 -214 174.5 -197 Q196 -180 196 -142 Q196 -120 186.5 -106.5 Q177 -93 155 -93 Q144 -93 137.5 -95 Q131 -97 124 -100 L116 -95 L163 -9 Q134 -8 108.5 3 Q83 14 64.5 36 Q46 58 35 90.5 Q24 123 24 166 Q24 222 42 276 Q60 330 94 372 Q128 414 175 440 Q222 466 281 466 Q308 466 327 459.5 Q346 453 358 442.5 Q370 432 376 418 Q382 404 382 390 Q382 368 366.5 350 Q351 332 325 332 Q310 332 295 338.5 Q280 345 272 361 L336 432 Q318 451 282 451 Z " />
<glyph glyph-name="egrave" unicode="&#xe8;" horiz-adv-x="416" d="M197 13 Q225 13 249 24 Q273 35 291 51 Q309 67 321.5 85 Q334 103 340 117 L351 109 Q343 91 329 70.5 Q315 50 293.5 32.5 Q272 15 242 3 Q212 -9 170 -9 Q140 -9 113 1.5 Q86 12 65.5 34.5 Q45 57 32.5 91.5 Q20 126 20 175 Q20 229 40.5 281.5 Q61 334 96 375 Q131 416 177.5 441 Q224 466 276 466 Q339 466 367.5 439 Q396 412 396 377 Q396 354 383.5 329.5 Q371 305 346.5 285.5 Q322 266 286.5 253.5 Q251 241 205 241 Q182 241 160.5 243 Q139 245 124 250 Q110 188 110 148 Q110 122 113.5 97.5 Q117 73 127 54.5 Q137 36 154 24.5 Q171 13 197 13 Z M271 452 Q243 452 220.5 436 Q198 420 180.5 394 Q163 368 150 335.5 Q137 303 128 270 Q145 265 160 263.5 Q175 262 189 262 Q221 262 245.5 273 Q270 284 286.5 302 Q303 320 311 342 Q319 364 319 386 Q319 413 307 432.5 Q295 452 271 452 Z M373 516 L348 516 L218 609 Q203 620 194.5 628.5 Q186 637 186 648 Q186 663 198 676.5 Q210 690 227 690 Q241 690 250.5 684 Q260 678 270 664 L373 516 Z " />
<glyph glyph-name="eacute" unicode="&#xe9;" horiz-adv-x="416" d="M197 13 Q225 13 249 24 Q273 35 291 51 Q309 67 321.5 85 Q334 103 340 117 L351 109 Q343 91 329 70.5 Q315 50 293.5 32.5 Q272 15 242 3 Q212 -9 170 -9 Q140 -9 113 1.5 Q86 12 65.5 34.5 Q45 57 32.5 91.5 Q20 126 20 175 Q20 229 40.5 281.5 Q61 334 96 375 Q131 416 177.5 441 Q224 466 276 466 Q339 466 367.5 439 Q396 412 396 377 Q396 354 383.5 329.5 Q371 305 346.5 285.5 Q322 266 286.5 253.5 Q251 241 205 241 Q182 241 160.5 243 Q139 245 124 250 Q110 188 110 148 Q110 122 113.5 97.5 Q117 73 127 54.5 Q137 36 154 24.5 Q171 13 197 13 Z M271 452 Q243 452 220.5 436 Q198 420 180.5 394 Q163 368 150 335.5 Q137 303 128 270 Q145 265 160 263.5 Q175 262 189 262 Q221 262 245.5 273 Q270 284 286.5 302 Q303 320 311 342 Q319 364 319 386 Q319 413 307 432.5 Q295 452 271 452 Z M334 664 Q345 675 358 682.5 Q371 690 385 690 Q399 690 410.5 680.5 Q422 671 422 655 Q422 639 411.5 630.5 Q401 622 380 609 L221 516 L195 516 L334 664 Z " />
<glyph glyph-name="ecircumflex" unicode="&#xea;" horiz-adv-x="416" d="M197 13 Q225 13 249 24 Q273 35 291 51 Q309 67 321.5 85 Q334 103 340 117 L351 109 Q343 91 329 70.5 Q315 50 293.5 32.5 Q272 15 242 3 Q212 -9 170 -9 Q140 -9 113 1.5 Q86 12 65.5 34.5 Q45 57 32.5 91.5 Q20 126 20 175 Q20 229 40.5 281.5 Q61 334 96 375 Q131 416 177.5 441 Q224 466 276 466 Q339 466 367.5 439 Q396 412 396 377 Q396 354 383.5 329.5 Q371 305 346.5 285.5 Q322 266 286.5 253.5 Q251 241 205 241 Q182 241 160.5 243 Q139 245 124 250 Q110 188 110 148 Q110 122 113.5 97.5 Q117 73 127 54.5 Q137 36 154 24.5 Q171 13 197 13 Z M271 452 Q243 452 220.5 436 Q198 420 180.5 394 Q163 368 150 335.5 Q137 303 128 270 Q145 265 160 263.5 Q175 262 189 262 Q221 262 245.5 273 Q270 284 286.5 302 Q303 320 311 342 Q319 364 319 386 Q319 413 307 432.5 Q295 452 271 452 Z M401 514 L293 610 L149 516 L135 528 L292 688 L323 688 L421 528 L401 514 Z " />
<glyph glyph-name="edieresis" unicode="&#xeb;" horiz-adv-x="416" d="M197 13 Q225 13 249 24 Q273 35 291 51 Q309 67 321.5 85 Q334 103 340 117 L351 109 Q343 91 329 70.5 Q315 50 293.5 32.5 Q272 15 242 3 Q212 -9 170 -9 Q140 -9 113 1.5 Q86 12 65.5 34.5 Q45 57 32.5 91.5 Q20 126 20 175 Q20 229 40.5 281.5 Q61 334 96 375 Q131 416 177.5 441 Q224 466 276 466 Q339 466 367.5 439 Q396 412 396 377 Q396 354 383.5 329.5 Q371 305 346.5 285.5 Q322 266 286.5 253.5 Q251 241 205 241 Q182 241 160.5 243 Q139 245 124 250 Q110 188 110 148 Q110 122 113.5 97.5 Q117 73 127 54.5 Q137 36 154 24.5 Q171 13 197 13 Z M271 452 Q243 452 220.5 436 Q198 420 180.5 394 Q163 368 150 335.5 Q137 303 128 270 Q145 265 160 263.5 Q175 262 189 262 Q221 262 245.5 273 Q270 284 286.5 302 Q303 320 311 342 Q319 364 319 386 Q319 413 307 432.5 Q295 452 271 452 Z M430 605 Q430 582 413 561 Q396 540 370 540 Q351 540 339.5 552.5 Q328 565 328 584 Q328 607 345.5 627.5 Q363 648 389 648 Q407 648 418.5 635.5 Q430 623 430 605 Z M235 604 Q235 581 218 560.5 Q201 540 175 540 Q156 540 144.5 552.5 Q133 565 133 584 Q133 607 150.5 627.5 Q168 648 194 648 Q212 648 223.5 635.5 Q235 623 235 604 Z " />
<glyph glyph-name="igrave" unicode="&#xec;" horiz-adv-x="256" d="M111 433 Q94 437 73 437.5 Q52 438 36 438 L39 450 L200 466 L125 122 Q115 75 115 57 Q115 27 136 27 Q147 27 163.5 42 Q180 57 194 86 L206 81 Q180 32 151.5 11.5 Q123 -9 96 -9 Q60 -9 47.5 10.5 Q35 30 35 59 Q35 77 39 100.5 Q43 124 50 155 L111 433 Z M279 516 L254 516 L124 609 Q109 620 100.5 628.5 Q92 637 92 648 Q92 663 104 676.5 Q116 690 133 690 Q147 690 156.5 684 Q166 678 176 664 L279 516 Z " />
<glyph glyph-name="iacute" unicode="&#xed;" horiz-adv-x="256" d="M111 433 Q94 437 73 437.5 Q52 438 36 438 L39 450 L200 466 L125 122 Q115 75 115 57 Q115 27 136 27 Q147 27 163.5 42 Q180 57 194 86 L206 81 Q180 32 151.5 11.5 Q123 -9 96 -9 Q60 -9 47.5 10.5 Q35 30 35 59 Q35 77 39 100.5 Q43 124 50 155 L111 433 Z M214 664 Q225 675 238 682.5 Q251 690 265 690 Q279 690 290.5 680.5 Q302 671 302 655 Q302 639 291.5 630.5 Q281 622 260 609 L101 516 L75 516 L214 664 Z " />
<glyph glyph-name="icircumflex" unicode="&#xee;" horiz-adv-x="256" d="M270 514 L182 610 L58 516 L44 528 L181 688 L212 688 L290 528 L270 514 Z M111 433 Q94 437 73 437.5 Q52 438 36 438 L39 450 L200 466 L125 122 Q115 75 115 57 Q115 27 136 27 Q147 27 163.5 42 Q180 57 194 86 L206 81 Q180 32 151.5 11.5 Q123 -9 96 -9 Q60 -9 47.5 10.5 Q35 30 35 59 Q35 77 39 100.5 Q43 124 50 155 L111 433 Z " />
<glyph glyph-name="idieresis" unicode="&#xef;" horiz-adv-x="256" d="M111 433 Q94 437 73 437.5 Q52 438 36 438 L39 450 L200 466 L125 122 Q115 75 115 57 Q115 27 136 27 Q147 27 163.5 42 Q180 57 194 86 L206 81 Q180 32 151.5 11.5 Q123 -9 96 -9 Q60 -9 47.5 10.5 Q35 30 35 59 Q35 77 39 100.5 Q43 124 50 155 L111 433 Z M307 605 Q307 582 290 561 Q273 540 247 540 Q228 540 216.5 552.5 Q205 565 205 584 Q205 607 222.5 627.5 Q240 648 266 648 Q284 648 295.5 635.5 Q307 623 307 605 Z M152 604 Q152 581 135 560.5 Q118 540 92 540 Q73 540 61.5 552.5 Q50 565 50 584 Q50 607 67.5 627.5 Q85 648 111 648 Q129 648 140.5 635.5 Q152 623 152 604 Z " />
<glyph glyph-name="eth" unicode="&#xf0;" horiz-adv-x="487" d="M26 174 Q26 244 49 297 Q72 350 107 385.5 Q142 421 184.5 439 Q227 457 265 457 Q291 457 317 449 Q343 441 359 425 Q357 484 338 531 Q319 578 292 613 L159 548 L151 567 L277 629 Q254 654 221 674 Q188 694 156 703 L166 720 Q204 711 241 693 Q278 675 317 647 L435 706 L441 687 L332 634 Q383 588 411 518 Q439 448 439 359 Q439 294 424.5 228.5 Q410 163 378.5 110.5 Q347 58 298.5 24.5 Q250 -9 183 -9 Q143 -9 113.5 5 Q84 19 64.5 44 Q45 69 35.5 102 Q26 135 26 174 Z M187 8 Q216 8 240 24 Q264 40 282.5 66 Q301 92 314.5 125 Q328 158 336.5 192 Q345 226 349 257.5 Q353 289 353 313 Q353 376 330 407.5 Q307 439 272 439 Q242 439 218 421.5 Q194 404 176.5 376.5 Q159 349 147 314.5 Q135 280 127.5 245.5 Q120 211 117 179.5 Q114 148 114 127 Q114 73 130.5 40.5 Q147 8 187 8 Z " />
<glyph glyph-name="ntilde" unicode="&#xf1;" horiz-adv-x="523" d="M416 218 Q411 195 405 172 Q399 149 394.5 128 Q390 107 387 88.5 Q384 70 384 57 Q384 40 389 33.5 Q394 27 404 27 Q415 27 431 42 Q447 57 462 86 L474 81 Q448 32 419 11.5 Q390 -9 363 -9 Q327 -9 314.5 10.5 Q302 30 302 59 Q302 85 313 130 Q324 175 335 224 Q345 269 353.5 306 Q362 343 362 377 Q362 406 350.5 424.5 Q339 443 312 443 Q296 443 273 431 Q250 419 225.5 389.5 Q201 360 178 311.5 Q155 263 140 190 L100 0 L19 0 L110 433 Q93 437 72 437.5 Q51 438 35 438 L38 450 L199 466 L167 340 Q203 404 245.5 435 Q288 466 342 466 Q371 466 390 458 Q409 450 420.5 437 Q432 424 437 406.5 Q442 389 442 371 Q442 339 434.5 302.5 Q427 266 416 218 Z M480 642 Q464 587 433.5 559.5 Q403 532 365 532 Q344 532 327 539.5 Q310 547 294.5 555.5 Q279 564 264.5 571.5 Q250 579 234 579 Q217 579 198.5 568 Q180 557 166 528 L152 528 Q168 583 199 610.5 Q230 638 268 638 Q289 638 306 630.5 Q323 623 338 614.5 Q353 606 367.5 598.5 Q382 591 398 591 Q415 591 433.5 602 Q452 613 466 642 L480 642 Z " />
<glyph glyph-name="ograve" unicode="&#xf2;" horiz-adv-x="490" d="M275 466 Q315 466 344.5 453.5 Q374 441 393.5 418.5 Q413 396 423 365 Q433 334 433 297 Q433 239 414.5 184 Q396 129 363 86 Q330 43 284 17 Q238 -9 182 -9 Q142 -9 113 5 Q84 19 64.5 43.5 Q45 68 35.5 100.5 Q26 133 26 170 Q26 225 44 278.5 Q62 332 94.5 373.5 Q127 415 173 440.5 Q219 466 275 466 Z M186 8 Q228 8 257.5 38.5 Q287 69 306.5 114.5 Q326 160 335 213.5 Q344 267 344 313 Q344 383 325 416.5 Q306 450 271 450 Q239 450 210.5 423.5 Q182 397 160.5 353 Q139 309 126 252.5 Q113 196 113 137 Q113 80 129 44 Q145 8 186 8 Z M400 516 L375 516 L245 609 Q230 620 221.5 628.5 Q213 637 213 648 Q213 663 225 676.5 Q237 690 254 690 Q268 690 277.5 684 Q287 678 297 664 L400 516 Z " />
<glyph glyph-name="oacute" unicode="&#xf3;" horiz-adv-x="490" d="M275 466 Q315 466 344.5 453.5 Q374 441 393.5 418.5 Q413 396 423 365 Q433 334 433 297 Q433 239 414.5 184 Q396 129 363 86 Q330 43 284 17 Q238 -9 182 -9 Q142 -9 113 5 Q84 19 64.5 43.5 Q45 68 35.5 100.5 Q26 133 26 170 Q26 225 44 278.5 Q62 332 94.5 373.5 Q127 415 173 440.5 Q219 466 275 466 Z M186 8 Q228 8 257.5 38.5 Q287 69 306.5 114.5 Q326 160 335 213.5 Q344 267 344 313 Q344 383 325 416.5 Q306 450 271 450 Q239 450 210.5 423.5 Q182 397 160.5 353 Q139 309 126 252.5 Q113 196 113 137 Q113 80 129 44 Q145 8 186 8 Z M350 664 Q361 675 374 682.5 Q387 690 401 690 Q415 690 426.5 680.5 Q438 671 438 655 Q438 639 427.5 630.5 Q417 622 396 609 L237 516 L211 516 L350 664 Z " />
<glyph glyph-name="ocircumflex" unicode="&#xf4;" horiz-adv-x="490" d="M275 466 Q315 466 344.5 453.5 Q374 441 393.5 418.5 Q413 396 423 365 Q433 334 433 297 Q433 239 414.5 184 Q396 129 363 86 Q330 43 284 17 Q238 -9 182 -9 Q142 -9 113 5 Q84 19 64.5 43.5 Q45 68 35.5 100.5 Q26 133 26 170 Q26 225 44 278.5 Q62 332 94.5 373.5 Q127 415 173 440.5 Q219 466 275 466 Z M186 8 Q228 8 257.5 38.5 Q287 69 306.5 114.5 Q326 160 335 213.5 Q344 267 344 313 Q344 383 325 416.5 Q306 450 271 450 Q239 450 210.5 423.5 Q182 397 160.5 353 Q139 309 126 252.5 Q113 196 113 137 Q113 80 129 44 Q145 8 186 8 Z M418 514 L310 610 L166 516 L152 528 L309 688 L340 688 L438 528 L418 514 Z " />
<glyph glyph-name="otilde" unicode="&#xf5;" horiz-adv-x="490" d="M275 466 Q315 466 344.5 453.5 Q374 441 393.5 418.5 Q413 396 423 365 Q433 334 433 297 Q433 239 414.5 184 Q396 129 363 86 Q330 43 284 17 Q238 -9 182 -9 Q142 -9 113 5 Q84 19 64.5 43.5 Q45 68 35.5 100.5 Q26 133 26 170 Q26 225 44 278.5 Q62 332 94.5 373.5 Q127 415 173 440.5 Q219 466 275 466 Z M186 8 Q228 8 257.5 38.5 Q287 69 306.5 114.5 Q326 160 335 213.5 Q344 267 344 313 Q344 383 325 416.5 Q306 450 271 450 Q239 450 210.5 423.5 Q182 397 160.5 353 Q139 309 126 252.5 Q113 196 113 137 Q113 80 129 44 Q145 8 186 8 Z M469 642 Q453 587 422.5 559.5 Q392 532 354 532 Q333 532 316 539.5 Q299 547 283.5 555.5 Q268 564 253.5 571.5 Q239 579 223 579 Q206 579 187.5 568 Q169 557 155 528 L141 528 Q157 583 188 610.5 Q219 638 257 638 Q278 638 295 630.5 Q312 623 327 614.5 Q342 606 356.5 598.5 Q371 591 387 591 Q404 591 422.5 602 Q441 613 455 642 L469 642 Z " />
<glyph glyph-name="odieresis" unicode="&#xf6;" horiz-adv-x="490" d="M275 466 Q315 466 344.5 453.5 Q374 441 393.5 418.5 Q413 396 423 365 Q433 334 433 297 Q433 239 414.5 184 Q396 129 363 86 Q330 43 284 17 Q238 -9 182 -9 Q142 -9 113 5 Q84 19 64.5 43.5 Q45 68 35.5 100.5 Q26 133 26 170 Q26 225 44 278.5 Q62 332 94.5 373.5 Q127 415 173 440.5 Q219 466 275 466 Z M186 8 Q228 8 257.5 38.5 Q287 69 306.5 114.5 Q326 160 335 213.5 Q344 267 344 313 Q344 383 325 416.5 Q306 450 271 450 Q239 450 210.5 423.5 Q182 397 160.5 353 Q139 309 126 252.5 Q113 196 113 137 Q113 80 129 44 Q145 8 186 8 Z M457 605 Q457 582 440 561 Q423 540 397 540 Q378 540 366.5 552.5 Q355 565 355 584 Q355 607 372.5 627.5 Q390 648 416 648 Q434 648 445.5 635.5 Q457 623 457 605 Z M262 604 Q262 581 245 560.5 Q228 540 202 540 Q183 540 171.5 552.5 Q160 565 160 584 Q160 607 177.5 627.5 Q195 648 221 648 Q239 648 250.5 635.5 Q262 623 262 604 Z " />
<glyph glyph-name="divide" unicode="&#xf7;" horiz-adv-x="696" d="M53 276 L64 327 L616 327 L605 276 L53 276 Z M384 540 Q407 540 420.5 527.5 Q434 515 434 495 Q434 480 427.5 467.5 Q421 455 410.5 445.5 Q400 436 387 430.5 Q374 425 360 425 Q338 425 324.5 438 Q311 451 311 471 Q311 499 333.5 519.5 Q356 540 384 540 Z M309 176 Q331 176 344.5 163 Q358 150 358 130 Q358 115 352 102.5 Q346 90 335.5 81 Q325 72 312 66.5 Q299 61 285 61 Q263 61 249.5 73.5 Q236 86 236 106 Q236 134 258.5 155 Q281 176 309 176 Z " />
<glyph glyph-name="oslash" unicode="&#xf8;" horiz-adv-x="489" d="M275 466 Q328 466 366 441 L401 488 L430 488 L385 427 Q410 402 421.5 369.5 Q433 337 433 292 Q433 242 416.5 189 Q400 136 368 92 Q336 48 289 19.5 Q242 -9 182 -9 Q124 -9 87 20 L49 -31 L21 -31 L70 36 Q47 62 36.5 95.5 Q26 129 26 170 Q26 225 44 278.5 Q62 332 94.5 373.5 Q127 415 173 440.5 Q219 466 275 466 Z M186 8 Q230 8 260.5 41 Q291 74 309.5 121.5 Q328 169 336 221.5 Q344 274 344 313 Q344 343 341 366 L120 66 Q128 39 143.5 23.5 Q159 8 186 8 Z M113 137 Q113 126 113.5 116.5 Q114 107 115 98 L334 396 Q325 423 308.5 436.5 Q292 450 271 450 Q239 450 210.5 423.5 Q182 397 160.5 353 Q139 309 126 253 Q113 197 113 137 Z " />
<glyph glyph-name="ugrave" unicode="&#xf9;" horiz-adv-x="512" d="M110 433 Q93 437 72 437.5 Q51 438 35 438 L38 450 L199 466 L152 243 Q142 197 135.5 167.5 Q129 138 125.5 118.5 Q122 99 120.5 87.5 Q119 76 119 67 Q119 39 129.5 28 Q140 17 160 17 Q179 17 204.5 35 Q230 53 255 88 Q280 123 302 173 Q324 223 337 288 L372 457 L454 457 L388 151 Q383 131 380.5 117 Q378 103 376 92.5 Q374 82 373.5 74.5 Q373 67 373 60 Q373 46 378.5 36.5 Q384 27 396 27 Q412 27 427.5 42.5 Q443 58 457 84 L469 80 Q449 39 421.5 15 Q394 -9 362 -9 Q301 -9 301 72 Q301 91 303.5 109 Q306 127 311 149 Q291 105 268.5 75 Q246 45 222 26 Q198 7 174 -1 Q150 -9 127 -9 Q87 -9 63.5 10.5 Q40 30 40 76 Q40 86 42 101 Q44 116 50 145 L110 433 Z M400 516 L375 516 L245 609 Q230 620 221.5 628.5 Q213 637 213 648 Q213 663 225 676.5 Q237 690 254 690 Q268 690 277.5 684 Q287 678 297 664 L400 516 Z " />
<glyph glyph-name="uacute" unicode="&#xfa;" horiz-adv-x="512" d="M110 433 Q93 437 72 437.5 Q51 438 35 438 L38 450 L199 466 L152 243 Q142 197 135.5 167.5 Q129 138 125.5 118.5 Q122 99 120.5 87.5 Q119 76 119 67 Q119 39 129.5 28 Q140 17 160 17 Q179 17 204.5 35 Q230 53 255 88 Q280 123 302 173 Q324 223 337 288 L372 457 L454 457 L388 151 Q383 131 380.5 117 Q378 103 376 92.5 Q374 82 373.5 74.5 Q373 67 373 60 Q373 46 378.5 36.5 Q384 27 396 27 Q412 27 427.5 42.5 Q443 58 457 84 L469 80 Q449 39 421.5 15 Q394 -9 362 -9 Q301 -9 301 72 Q301 91 303.5 109 Q306 127 311 149 Q291 105 268.5 75 Q246 45 222 26 Q198 7 174 -1 Q150 -9 127 -9 Q87 -9 63.5 10.5 Q40 30 40 76 Q40 86 42 101 Q44 116 50 145 L110 433 Z M371 664 Q382 675 395 682.5 Q408 690 422 690 Q436 690 447.5 680.5 Q459 671 459 655 Q459 639 448.5 630.5 Q438 622 417 609 L258 516 L232 516 L371 664 Z " />
<glyph glyph-name="ucircumflex" unicode="&#xfb;" horiz-adv-x="512" d="M110 433 Q93 437 72 437.5 Q51 438 35 438 L38 450 L199 466 L152 243 Q142 197 135.5 167.5 Q129 138 125.5 118.5 Q122 99 120.5 87.5 Q119 76 119 67 Q119 39 129.5 28 Q140 17 160 17 Q179 17 204.5 35 Q230 53 255 88 Q280 123 302 173 Q324 223 337 288 L372 457 L454 457 L388 151 Q383 131 380.5 117 Q378 103 376 92.5 Q374 82 373.5 74.5 Q373 67 373 60 Q373 46 378.5 36.5 Q384 27 396 27 Q412 27 427.5 42.5 Q443 58 457 84 L469 80 Q449 39 421.5 15 Q394 -9 362 -9 Q301 -9 301 72 Q301 91 303.5 109 Q306 127 311 149 Q291 105 268.5 75 Q246 45 222 26 Q198 7 174 -1 Q150 -9 127 -9 Q87 -9 63.5 10.5 Q40 30 40 76 Q40 86 42 101 Q44 116 50 145 L110 433 Z M428 514 L320 610 L176 516 L162 528 L319 688 L350 688 L448 528 L428 514 Z " />
<glyph glyph-name="udieresis" unicode="&#xfc;" horiz-adv-x="512" d="M110 433 Q93 437 72 437.5 Q51 438 35 438 L38 450 L199 466 L152 243 Q142 197 135.5 167.5 Q129 138 125.5 118.5 Q122 99 120.5 87.5 Q119 76 119 67 Q119 39 129.5 28 Q140 17 160 17 Q179 17 204.5 35 Q230 53 255 88 Q280 123 302 173 Q324 223 337 288 L372 457 L454 457 L388 151 Q383 131 380.5 117 Q378 103 376 92.5 Q374 82 373.5 74.5 Q373 67 373 60 Q373 46 378.5 36.5 Q384 27 396 27 Q412 27 427.5 42.5 Q443 58 457 84 L469 80 Q449 39 421.5 15 Q394 -9 362 -9 Q301 -9 301 72 Q301 91 303.5 109 Q306 127 311 149 Q291 105 268.5 75 Q246 45 222 26 Q198 7 174 -1 Q150 -9 127 -9 Q87 -9 63.5 10.5 Q40 30 40 76 Q40 86 42 101 Q44 116 50 145 L110 433 Z M467 605 Q467 582 450 561 Q433 540 407 540 Q388 540 376.5 552.5 Q365 565 365 584 Q365 607 382.5 627.5 Q400 648 426 648 Q444 648 455.5 635.5 Q467 623 467 605 Z M272 604 Q272 581 255 560.5 Q238 540 212 540 Q193 540 181.5 552.5 Q170 565 170 584 Q170 607 187.5 627.5 Q205 648 231 648 Q249 648 260.5 635.5 Q272 623 272 604 Z " />
<glyph glyph-name="yacute" unicode="&#xfd;" horiz-adv-x="393" d="M131 464 Q149 358 164 253 Q179 148 181 48 Q207 90 236 139 Q265 188 290 237.5 Q315 287 331 332.5 Q347 378 347 411 Q347 428 338 435 Q329 442 314 442 L250 442 Q250 471 266 492.5 Q282 514 317 514 Q350 514 366.5 493 Q383 472 383 435 Q383 396 360.5 332 Q338 268 300 194 Q262 120 212.5 44.5 Q163 -31 109.5 -92 Q56 -153 2.5 -191.5 Q-51 -230 -97 -230 Q-126 -230 -144.5 -213.5 Q-163 -197 -163 -168 Q-163 -146 -148 -127.5 Q-133 -109 -104 -99 Q-93 -141 -83 -166 Q-73 -191 -52 -191 Q-40 -191 -17 -175 Q6 -159 32.5 -134.5 Q59 -110 84 -80 Q109 -50 125 -22 Q122 29 114 87 Q106 145 95.5 205 Q85 265 73.5 324 Q62 383 50 436 Q39 440 27 441 Q15 442 -1 443 L2 456 L131 464 Z M273 664 Q284 675 297 682.5 Q310 690 324 690 Q338 690 349.5 680.5 Q361 671 361 655 Q361 639 350.5 630.5 Q340 622 319 609 L160 516 L134 516 L273 664 Z " />
<glyph glyph-name="thorn" unicode="&#xfe;" horiz-adv-x="498" d="M113 106 Q111 93 108.5 80 Q106 67 106 54 Q106 28 123.5 17 Q141 6 171 6 Q202 6 227.5 21 Q253 36 273 61.5 Q293 87 308.5 119 Q324 151 334 184.5 Q344 218 349 251 Q354 284 354 310 Q354 337 351 361 Q348 385 340.5 403 Q333 421 320 432 Q307 443 286 443 Q272 443 252.5 434 Q233 425 212.5 404 Q192 383 174 347 Q156 311 145 257 L113 106 Z M162 695 Q145 699 124 699.5 Q103 700 87 700 L90 712 L251 728 L169 365 Q196 413 233 439.5 Q270 466 317 466 Q343 466 366.5 456 Q390 446 407.5 426.5 Q425 407 435.5 378 Q446 349 446 311 Q446 247 424 189 Q402 131 363.5 87 Q325 43 272.5 17 Q220 -9 159 -9 Q139 -9 123 -6.5 Q107 -4 93 1 L53 -192 Q66 -194 88.5 -195 Q111 -196 125 -196 L122 -212 L-91 -212 L-88 -196 Q-73 -196 -55 -194.5 Q-37 -193 -26 -190 L162 695 Z " />
<glyph glyph-name="ydieresis" unicode="&#xff;" horiz-adv-x="389" d="M376 605 Q376 582 359 561 Q342 540 316 540 Q297 540 285.5 552.5 Q274 565 274 584 Q274 607 291.5 627.5 Q309 648 335 648 Q353 648 364.5 635.5 Q376 623 376 605 Z M181 604 Q181 581 164 560.5 Q147 540 121 540 Q102 540 90.5 552.5 Q79 565 79 584 Q79 607 96.5 627.5 Q114 648 140 648 Q158 648 169.5 635.5 Q181 623 181 604 Z M105 464 Q123 423 138 372 Q153 321 164 266 Q175 211 181 155 Q187 99 187 48 Q213 90 238 135.5 Q263 181 283 225 Q303 269 315.5 308 Q328 347 328 376 Q328 393 321 400 Q314 407 299 407 L248 407 Q248 436 261.5 456 Q275 476 310 476 Q335 476 351.5 456.5 Q368 437 368 400 Q368 375 355.5 334.5 Q343 294 320.5 245 Q298 196 268 142 Q238 88 203 35 Q168 -18 130 -66 Q92 -114 54.5 -150.5 Q17 -187 -19.5 -208.5 Q-56 -230 -87 -230 Q-127 -230 -146 -213.5 Q-165 -197 -165 -168 Q-165 -148 -150 -128.5 Q-135 -109 -106 -99 Q-95 -147 -85 -172 Q-75 -197 -52 -197 Q-39 -197 -14.5 -180.5 Q10 -164 36.5 -139 Q63 -114 88 -83.5 Q113 -53 129 -25 Q126 26 117.5 84.5 Q109 143 96 204 Q83 265 65 324 Q47 383 24 436 Q13 441 -0.5 442 Q-14 443 -27 443 L-24 456 L105 464 Z " />
<glyph glyph-name="Amacron" unicode="&#x100;" horiz-adv-x="567" d="M271 18 L379 18 L347 246 L128 246 L4 18 L112 18 L107 0 L-69 0 L-64 18 L-23 18 L351 708 L376 708 L474 18 L512 18 L507 0 L266 0 L271 18 Z M301 567 L140 269 L344 269 L301 567 Z M231 796 L244 850 L519 850 L506 796 L231 796 Z " />
<glyph glyph-name="amacron" unicode="&#x101;" horiz-adv-x="514" d="M173 14 Q196 14 217 30.5 Q238 47 256.5 74.5 Q275 102 290.5 137.5 Q306 173 317 211.5 Q328 250 334 288 Q340 326 340 358 Q340 397 326.5 424 Q313 451 281 451 Q250 451 225.5 435 Q201 419 182 392.5 Q163 366 149.5 332 Q136 298 127.5 263 Q119 228 115 194 Q111 160 111 133 Q111 76 125.5 45 Q140 14 173 14 Z M146 -9 Q87 -9 54 31 Q21 71 21 157 Q21 214 39 269 Q57 324 90.5 368 Q124 412 172.5 439 Q221 466 282 466 Q302 466 318 460.5 Q334 455 346 447 Q358 439 366 430 Q374 421 378 413 L400 457 L446 457 L382 151 Q374 110 370.5 91.5 Q367 73 367 60 Q367 46 371.5 36.5 Q376 27 390 27 Q406 27 421.5 42.5 Q437 58 451 84 L463 80 Q443 39 415.5 15 Q388 -9 356 -9 Q327 -9 310.5 10 Q294 29 294 71 Q294 85 297 105 Q272 51 232.5 21 Q193 -9 146 -9 Z M158 546 L171 600 L446 600 L433 546 L158 546 Z " />
<glyph glyph-name="Abreve" unicode="&#x102;" horiz-adv-x="567" d="M271 18 L379 18 L347 246 L128 246 L4 18 L112 18 L107 0 L-69 0 L-64 18 L-23 18 L351 708 L376 708 L474 18 L512 18 L507 0 L266 0 L271 18 Z M301 567 L140 269 L344 269 L301 567 Z M382 836 Q411 836 433.5 844.5 Q456 853 472.5 866.5 Q489 880 499.5 896.5 Q510 913 513 928 L537 928 Q531 903 518 875.5 Q505 848 484 824.5 Q463 801 434.5 786 Q406 771 371 771 Q340 771 318.5 782.5 Q297 794 283.5 813 Q270 832 264 855.5 Q258 879 258 902 Q258 909 258.5 915.5 Q259 922 260 928 L284 928 Q283 924 283 917 Q283 903 288.5 888.5 Q294 874 306 862.5 Q318 851 337 843.5 Q356 836 382 836 Z " />
<glyph glyph-name="abreve" unicode="&#x103;" horiz-adv-x="514" d="M173 14 Q196 14 217 30.5 Q238 47 256.5 74.5 Q275 102 290.5 137.5 Q306 173 317 211.5 Q328 250 334 288 Q340 326 340 358 Q340 397 326.5 424 Q313 451 281 451 Q250 451 225.5 435 Q201 419 182 392.5 Q163 366 149.5 332 Q136 298 127.5 263 Q119 228 115 194 Q111 160 111 133 Q111 76 125.5 45 Q140 14 173 14 Z M146 -9 Q87 -9 54 31 Q21 71 21 157 Q21 214 39 269 Q57 324 90.5 368 Q124 412 172.5 439 Q221 466 282 466 Q302 466 318 460.5 Q334 455 346 447 Q358 439 366 430 Q374 421 378 413 L400 457 L446 457 L382 151 Q374 110 370.5 91.5 Q367 73 367 60 Q367 46 371.5 36.5 Q376 27 390 27 Q406 27 421.5 42.5 Q437 58 451 84 L463 80 Q443 39 415.5 15 Q388 -9 356 -9 Q327 -9 310.5 10 Q294 29 294 71 Q294 85 297 105 Q272 51 232.5 21 Q193 -9 146 -9 Z M325 586 Q354 586 376.5 594.5 Q399 603 415.5 616.5 Q432 630 442.5 646.5 Q453 663 456 678 L480 678 Q474 653 461 625.5 Q448 598 427 574.5 Q406 551 377.5 536 Q349 521 314 521 Q283 521 261.5 532.5 Q240 544 226.5 563 Q213 582 207 605.5 Q201 629 201 652 Q201 659 201.5 665.5 Q202 672 203 678 L227 678 Q226 674 226 667 Q226 653 231.5 638.5 Q237 624 249 612.5 Q261 601 280 593.5 Q299 586 325 586 Z " />
<glyph glyph-name="Aogonek" unicode="&#x104;" horiz-adv-x="567" d="M266 0 L271 18 L379 18 L347 246 L128 246 L4 18 L112 18 L107 0 L-69 0 L-64 18 L-23 18 L351 708 L376 708 L474 18 L512 18 L507 0 L429 0 Q380 -30 361.5 -63.5 Q343 -97 343 -128 Q343 -155 355 -171.5 Q367 -188 391 -188 Q412 -188 430.5 -172.5 Q449 -157 465 -134 L474 -143 Q449 -186 415.5 -208 Q382 -230 349 -230 Q312 -230 295 -209 Q278 -188 278 -160 Q278 -110 314.5 -67.5 Q351 -25 411 0 L266 0 Z M301 567 L140 269 L344 269 L301 567 Z " />
<glyph glyph-name="aogonek" unicode="&#x105;" horiz-adv-x="514" d="M146 -9 Q87 -9 54 31 Q21 71 21 157 Q21 214 39 269 Q57 324 90.5 368 Q124 412 172.5 439 Q221 466 282 466 Q302 466 318 460.5 Q334 455 346 447 Q358 439 366 430 Q374 421 378 413 L400 457 L446 457 L382 151 Q374 110 370.5 91 Q367 72 367 60 Q367 46 371.5 36.5 Q376 27 390 27 Q406 27 421.5 42.5 Q437 58 451 84 L463 80 Q451 58 439 43.5 Q427 29 414.5 19 Q402 9 389 1.5 Q376 -6 363 -14 Q324 -37 307 -68 Q290 -99 290 -128 Q290 -155 302 -171.5 Q314 -188 338 -188 Q359 -188 377.5 -172.5 Q396 -157 412 -134 L421 -143 Q396 -186 362.5 -208 Q329 -230 296 -230 Q259 -230 242 -209 Q225 -188 225 -160 Q225 -114 256.5 -73.5 Q288 -33 341 -7 Q319 -2 306.5 16.5 Q294 35 294 70 Q294 85 297 105 Q272 51 232.5 21 Q193 -9 146 -9 Z M173 14 Q196 14 217 30.5 Q238 47 256.5 74.5 Q275 102 290.5 137.5 Q306 173 317 211.5 Q328 250 334 288 Q340 326 340 358 Q340 397 326.5 424 Q313 451 281 451 Q250 451 225.5 435 Q201 419 182 392.5 Q163 366 149.5 332 Q136 298 127.5 262.5 Q119 227 115 193 Q111 159 111 133 Q111 76 125.5 45 Q140 14 173 14 Z " />
<glyph glyph-name="Cacute" unicode="&#x106;" horiz-adv-x="556" d="M287 16 Q332 16 364.5 30 Q397 44 420.5 65 Q444 86 460.5 110 Q477 134 489 154 L503 144 Q490 121 470 94.5 Q450 68 421.5 45 Q393 22 355.5 6.5 Q318 -9 269 -9 Q205 -9 161.5 12.5 Q118 34 91 71.5 Q64 109 52 159 Q40 209 40 266 Q40 316 50.5 368.5 Q61 421 82 470 Q103 519 133.5 562.5 Q164 606 204 638 Q244 670 293 689 Q342 708 400 708 Q446 708 478 697 Q510 686 529.5 668 Q549 650 558 626.5 Q567 603 567 578 Q567 553 559 534.5 Q551 516 539 503.5 Q527 491 511.5 484.5 Q496 478 481 478 Q457 478 445.5 487 Q434 496 430 504 L542 614 Q526 651 494.5 670 Q463 689 406 689 Q341 689 291.5 651.5 Q242 614 209 552 Q176 490 159.5 411 Q143 332 143 250 Q143 128 182 72 Q221 16 287 16 Z M478 904 Q489 915 502 922.5 Q515 930 529 930 Q543 930 554.5 920.5 Q566 911 566 895 Q566 879 555.5 870.5 Q545 862 524 849 L365 756 L339 756 L478 904 Z " />
<glyph glyph-name="cacute" unicode="&#x107;" horiz-adv-x="399" d="M282 451 Q239 451 207.5 424 Q176 397 155.5 354 Q135 311 125 258.5 Q115 206 115 154 Q115 124 119.5 98 Q124 72 133.5 53 Q143 34 159.5 23.5 Q176 13 200 13 Q224 13 245 23 Q266 33 283.5 48 Q301 63 314.5 81.5 Q328 100 337 117 L348 109 Q336 88 321 67 Q306 46 284.5 29 Q263 12 234.5 1.5 Q206 -9 167 -9 Q137 -9 111 2 Q85 13 65.5 34.5 Q46 56 35 89 Q24 122 24 166 Q24 222 42 276 Q60 330 94 372 Q128 414 175 440 Q222 466 281 466 Q308 466 327 459.5 Q346 453 358 442.5 Q370 432 376 418 Q382 404 382 390 Q382 368 366.5 350 Q351 332 325 332 Q310 332 295 338.5 Q280 345 272 361 L336 432 Q318 451 282 451 Z M324 664 Q335 675 348 682.5 Q361 690 375 690 Q389 690 400.5 680.5 Q412 671 412 655 Q412 639 401.5 630.5 Q391 622 370 609 L211 516 L185 516 L324 664 Z " />
<glyph glyph-name="Ccircumflex" unicode="&#x108;" horiz-adv-x="556" d="M287 16 Q332 16 364.5 30 Q397 44 420.5 65 Q444 86 460.5 110 Q477 134 489 154 L503 144 Q490 121 470 94.5 Q450 68 421.5 45 Q393 22 355.5 6.5 Q318 -9 269 -9 Q205 -9 161.5 12.5 Q118 34 91 71.5 Q64 109 52 159 Q40 209 40 266 Q40 316 50.5 368.5 Q61 421 82 470 Q103 519 133.5 562.5 Q164 606 204 638 Q244 670 293 689 Q342 708 400 708 Q446 708 478 697 Q510 686 529.5 668 Q549 650 558 626.5 Q567 603 567 578 Q567 553 559 534.5 Q551 516 539 503.5 Q527 491 511.5 484.5 Q496 478 481 478 Q457 478 445.5 487 Q434 496 430 504 L542 614 Q526 651 494.5 670 Q463 689 406 689 Q341 689 291.5 651.5 Q242 614 209 552 Q176 490 159.5 411 Q143 332 143 250 Q143 128 182 72 Q221 16 287 16 Z M523 749 L415 845 L271 751 L257 763 L414 923 L445 923 L543 763 L523 749 Z " />
<glyph glyph-name="ccircumflex" unicode="&#x109;" horiz-adv-x="399" d="M282 451 Q239 451 207.5 424 Q176 397 155.5 354 Q135 311 125 258.5 Q115 206 115 154 Q115 124 119.5 98 Q124 72 133.5 53 Q143 34 159.5 23.5 Q176 13 200 13 Q224 13 245 23 Q266 33 283.5 48 Q301 63 314.5 81.5 Q328 100 337 117 L348 109 Q336 88 321 67 Q306 46 284.5 29 Q263 12 234.5 1.5 Q206 -9 167 -9 Q137 -9 111 2 Q85 13 65.5 34.5 Q46 56 35 89 Q24 122 24 166 Q24 222 42 276 Q60 330 94 372 Q128 414 175 440 Q222 466 281 466 Q308 466 327 459.5 Q346 453 358 442.5 Q370 432 376 418 Q382 404 382 390 Q382 368 366.5 350 Q351 332 325 332 Q310 332 295 338.5 Q280 345 272 361 L336 432 Q318 451 282 451 Z M391 514 L283 610 L139 516 L125 528 L282 688 L313 688 L411 528 L391 514 Z " />
<glyph glyph-name="Cdotaccent" unicode="&#x10a;" horiz-adv-x="556" d="M287 16 Q332 16 364.5 30 Q397 44 420.5 65 Q444 86 460.5 110 Q477 134 489 154 L503 144 Q490 121 470 94.5 Q450 68 421.5 45 Q393 22 355.5 6.5 Q318 -9 269 -9 Q205 -9 161.5 12.5 Q118 34 91 71.5 Q64 109 52 159 Q40 209 40 266 Q40 316 50.5 368.5 Q61 421 82 470 Q103 519 133.5 562.5 Q164 606 204 638 Q244 670 293 689 Q342 708 400 708 Q446 708 478 697 Q510 686 529.5 668 Q549 650 558 626.5 Q567 603 567 578 Q567 553 559 534.5 Q551 516 539 503.5 Q527 491 511.5 484.5 Q496 478 481 478 Q457 478 445.5 487 Q434 496 430 504 L542 614 Q526 651 494.5 670 Q463 689 406 689 Q341 689 291.5 651.5 Q242 614 209 552 Q176 490 159.5 411 Q143 332 143 250 Q143 128 182 72 Q221 16 287 16 Z M474 846 Q474 822 456.5 802.5 Q439 783 411 783 Q391 783 378.5 796.5 Q366 810 366 830 Q366 857 383.5 875 Q401 893 430 893 Q450 893 462 879.5 Q474 866 474 846 Z " />
<glyph glyph-name="cdotaccent" unicode="&#x10b;" horiz-adv-x="399" d="M282 451 Q239 451 207.5 424 Q176 397 155.5 354 Q135 311 125 258.5 Q115 206 115 154 Q115 124 119.5 98 Q124 72 133.5 53 Q143 34 159.5 23.5 Q176 13 200 13 Q224 13 245 23 Q266 33 283.5 48 Q301 63 314.5 81.5 Q328 100 337 117 L348 109 Q336 88 321 67 Q306 46 284.5 29 Q263 12 234.5 1.5 Q206 -9 167 -9 Q137 -9 111 2 Q85 13 65.5 34.5 Q46 56 35 89 Q24 122 24 166 Q24 222 42 276 Q60 330 94 372 Q128 414 175 440 Q222 466 281 466 Q308 466 327 459.5 Q346 453 358 442.5 Q370 432 376 418 Q382 404 382 390 Q382 368 366.5 350 Q351 332 325 332 Q310 332 295 338.5 Q280 345 272 361 L336 432 Q318 451 282 451 Z M332 601 Q332 577 314.5 557.5 Q297 538 269 538 Q249 538 236.5 551.5 Q224 565 224 585 Q224 612 241.5 630 Q259 648 288 648 Q308 648 320 634.5 Q332 621 332 601 Z " />
<glyph glyph-name="Ccaron" unicode="&#x10c;" horiz-adv-x="556" d="M287 16 Q332 16 364.5 30 Q397 44 420.5 65 Q444 86 460.5 110 Q477 134 489 154 L503 144 Q490 121 470 94.5 Q450 68 421.5 45 Q393 22 355.5 6.5 Q318 -9 269 -9 Q205 -9 161.5 12.5 Q118 34 91 71.5 Q64 109 52 159 Q40 209 40 266 Q40 316 50.5 368.5 Q61 421 82 470 Q103 519 133.5 562.5 Q164 606 204 638 Q244 670 293 689 Q342 708 400 708 Q446 708 478 697 Q510 686 529.5 668 Q549 650 558 626.5 Q567 603 567 578 Q567 553 559 534.5 Q551 516 539 503.5 Q527 491 511.5 484.5 Q496 478 481 478 Q457 478 445.5 487 Q434 496 430 504 L542 614 Q526 651 494.5 670 Q463 689 406 689 Q341 689 291.5 651.5 Q242 614 209 552 Q176 490 159.5 411 Q143 332 143 250 Q143 128 182 72 Q221 16 287 16 Z M566 926 L412 766 L382 766 L290 926 L309 938 L410 844 L551 940 L566 926 Z " />
<glyph glyph-name="ccaron" unicode="&#x10d;" horiz-adv-x="399" d="M282 451 Q239 451 207.5 424 Q176 397 155.5 354 Q135 311 125 258.5 Q115 206 115 154 Q115 124 119.5 98 Q124 72 133.5 53 Q143 34 159.5 23.5 Q176 13 200 13 Q224 13 245 23 Q266 33 283.5 48 Q301 63 314.5 81.5 Q328 100 337 117 L348 109 Q336 88 321 67 Q306 46 284.5 29 Q263 12 234.5 1.5 Q206 -9 167 -9 Q137 -9 111 2 Q85 13 65.5 34.5 Q46 56 35 89 Q24 122 24 166 Q24 222 42 276 Q60 330 94 372 Q128 414 175 440 Q222 466 281 466 Q308 466 327 459.5 Q346 453 358 442.5 Q370 432 376 418 Q382 404 382 390 Q382 368 366.5 350 Q351 332 325 332 Q310 332 295 338.5 Q280 345 272 361 L336 432 Q318 451 282 451 Z M435 676 L281 516 L251 516 L159 676 L178 688 L279 594 L420 690 L435 676 Z " />
<glyph glyph-name="Dcaron" unicode="&#x10e;" horiz-adv-x="662" d="M81 660 Q123 680 180 694 Q237 708 317 708 Q389 708 446 687.5 Q503 667 542.5 628 Q582 589 603.5 533 Q625 477 625 406 Q625 313 591.5 238 Q558 163 499 110 Q440 57 359 28.5 Q278 0 184 0 L-43 0 L-38 18 L43 18 L154 535 Q161 566 166.5 588.5 Q172 611 178 627 Q184 643 191.5 655 Q199 667 211 679 Q181 674 147.5 664 Q114 654 87 642 L81 660 Z M129 18 L171 18 Q250 18 315.5 45.5 Q381 73 428.5 126.5 Q476 180 502 258.5 Q528 337 528 440 Q528 504 510 550 Q492 596 458 626 Q424 656 376.5 670 Q329 684 271 684 L129 18 Z M546 926 L392 766 L362 766 L270 926 L289 938 L390 844 L531 940 L546 926 Z " />
<glyph glyph-name="dcaron" unicode="&#x10f;" horiz-adv-x="560" d="M351 355 Q356 378 356 398 Q356 419 341.5 435 Q327 451 292 451 Q263 451 238 436.5 Q213 422 192 397.5 Q171 373 154.5 341 Q138 309 126.5 273.5 Q115 238 109 202 Q103 166 103 133 Q103 82 117 47 Q131 12 170 12 Q186 12 207 23 Q228 34 249 58 Q270 82 288.5 119.5 Q307 157 319 211 L351 355 Z M421 695 Q404 699 383 699.5 Q362 700 346 700 L349 712 L510 728 L387 151 Q382 131 379.5 117 Q377 103 375 92.5 Q373 82 372.5 74.5 Q372 67 372 60 Q372 46 376.5 36.5 Q381 27 395 27 Q411 27 426.5 42.5 Q442 58 456 84 L468 80 Q448 39 420.5 15 Q393 -9 361 -9 Q333 -9 316.5 9.5 Q300 28 300 71 Q300 89 303 110 Q292 88 278.5 66.5 Q265 45 246 28.5 Q227 12 202.5 1.5 Q178 -9 146 -9 Q82 -9 47 33 Q12 75 12 151 Q12 210 34.5 266.5 Q57 323 96.5 367.5 Q136 412 189.5 439 Q243 466 305 466 Q323 466 340.5 463 Q358 460 372 455 L421 695 Z M554 560 Q581 581 592 597 Q603 613 603 622 Q603 626 597.5 630.5 Q592 635 585 641 Q578 647 572.5 656.5 Q567 666 567 681 Q567 709 584.5 722.5 Q602 736 622 736 Q645 736 656 721.5 Q667 707 667 686 Q667 649 640 614.5 Q613 580 563 546 L554 560 Z " />
<glyph glyph-name="Dcroat" unicode="&#x110;" horiz-adv-x="673" d="M140 18 L182 18 Q261 18 326.5 45.5 Q392 73 439.5 126 Q487 179 513 258 Q539 337 539 440 Q539 504 521 550 Q503 596 469 626 Q435 656 387.5 670 Q340 684 282 684 L215 370 L373 370 L368 350 L210 350 L140 18 Z M47 350 L53 370 L130 370 L165 536 Q172 567 177.5 589 Q183 611 189 627 Q195 643 202.5 655 Q210 667 222 679 Q192 674 158.5 664 Q125 654 98 642 L92 660 Q134 680 191 694 Q248 708 328 708 Q400 708 457 687.5 Q514 667 553.5 628 Q593 589 614.5 533 Q636 477 636 406 Q636 313 602.5 238 Q569 163 510 110 Q451 57 370 28.5 Q289 0 195 0 L-32 0 L-27 18 L54 18 L125 350 L47 350 Z " />
<glyph glyph-name="dcroat" unicode="&#x111;" horiz-adv-x="524" d="M249 571 L253 588 L399 588 L421 695 Q404 699 383 699.5 Q362 700 346 700 L349 712 L510 728 L480 588 L537 588 L533 571 L476 571 L387 151 Q379 110 375.5 91.5 Q372 73 372 60 Q372 46 376.5 36.5 Q381 27 395 27 Q411 27 426.5 42.5 Q442 58 456 84 L468 80 Q448 39 420.5 15 Q393 -9 361 -9 Q333 -9 316.5 9.5 Q300 28 300 71 Q300 89 303 110 Q292 88 278.5 66.5 Q265 45 246 28.5 Q227 12 202.5 1.5 Q178 -9 146 -9 Q82 -9 47 33 Q12 75 12 151 Q12 210 34.5 266.5 Q57 323 96.5 367.5 Q136 412 189.5 439 Q243 466 305 466 Q323 466 340.5 463 Q358 460 372 455 L395 571 L249 571 Z M351 355 Q356 378 356 398 Q356 419 341.5 435 Q327 451 292 451 Q263 451 238 436.5 Q213 422 192 397.5 Q171 373 154.5 341 Q138 309 126.5 273.5 Q115 238 109 202 Q103 166 103 133 Q103 82 117 47 Q131 12 170 12 Q186 12 207 23 Q228 34 249 58 Q270 82 288.5 119.5 Q307 157 319 211 L351 355 Z " />
<glyph glyph-name="Emacron" unicode="&#x112;" horiz-adv-x="550" d="M442 697 Q509 697 538 669.5 Q567 642 567 606 Q567 563 541.5 534 Q516 505 472 505 Q453 505 443 511.5 Q433 518 428 525 L529 638 Q515 661 495 670 Q475 679 438 679 L263 679 L195 359 L400 359 L395 340 L191 340 L123 18 L213 18 Q324 18 386.5 53.5 Q449 89 469 149 L476 171 L488 171 L448 0 L-48 0 L-43 18 L38 18 L178 679 L96 679 L100 697 L442 697 Z M223 796 L236 850 L511 850 L498 796 L223 796 Z " />
<glyph glyph-name="emacron" unicode="&#x113;" horiz-adv-x="416" d="M197 13 Q225 13 249 24 Q273 35 291 51 Q309 67 321.5 85 Q334 103 340 117 L351 109 Q343 91 329 70.5 Q315 50 293.5 32.5 Q272 15 242 3 Q212 -9 170 -9 Q140 -9 113 1.5 Q86 12 65.5 34.5 Q45 57 32.5 91.5 Q20 126 20 175 Q20 229 40.5 281.5 Q61 334 96 375 Q131 416 177.5 441 Q224 466 276 466 Q339 466 367.5 439 Q396 412 396 377 Q396 354 383.5 329.5 Q371 305 346.5 285.5 Q322 266 286.5 253.5 Q251 241 205 241 Q182 241 160.5 243 Q139 245 124 250 Q110 188 110 148 Q110 122 113.5 97.5 Q117 73 127 54.5 Q137 36 154 24.5 Q171 13 197 13 Z M271 452 Q243 452 220.5 436 Q198 420 180.5 394 Q163 368 150 335.5 Q137 303 128 270 Q145 265 160 263.5 Q175 262 189 262 Q221 262 245.5 273 Q270 284 286.5 302 Q303 320 311 342 Q319 364 319 386 Q319 413 307 432.5 Q295 452 271 452 Z M141 546 L154 600 L429 600 L416 546 L141 546 Z " />
<glyph glyph-name="Ebreve" unicode="&#x114;" horiz-adv-x="550" d="M442 697 Q509 697 538 669.5 Q567 642 567 606 Q567 563 541.5 534 Q516 505 472 505 Q453 505 443 511.5 Q433 518 428 525 L529 638 Q515 661 495 670 Q475 679 438 679 L263 679 L195 359 L400 359 L395 340 L191 340 L123 18 L213 18 Q324 18 386.5 53.5 Q449 89 469 149 L476 171 L488 171 L448 0 L-48 0 L-43 18 L38 18 L178 679 L96 679 L100 697 L442 697 Z M384 836 Q413 836 435.5 844.5 Q458 853 474.5 866.5 Q491 880 501.5 896.5 Q512 913 515 928 L539 928 Q533 903 520 875.5 Q507 848 486 824.5 Q465 801 436.5 786 Q408 771 373 771 Q342 771 320.5 782.5 Q299 794 285.5 813 Q272 832 266 855.5 Q260 879 260 902 Q260 909 260.5 915.5 Q261 922 262 928 L286 928 Q285 924 285 917 Q285 903 290.5 888.5 Q296 874 308 862.5 Q320 851 339 843.5 Q358 836 384 836 Z " />
<glyph glyph-name="ebreve" unicode="&#x115;" horiz-adv-x="416" d="M197 13 Q225 13 249 24 Q273 35 291 51 Q309 67 321.5 85 Q334 103 340 117 L351 109 Q343 91 329 70.5 Q315 50 293.5 32.5 Q272 15 242 3 Q212 -9 170 -9 Q140 -9 113 1.5 Q86 12 65.5 34.5 Q45 57 32.5 91.5 Q20 126 20 175 Q20 229 40.5 281.5 Q61 334 96 375 Q131 416 177.5 441 Q224 466 276 466 Q339 466 367.5 439 Q396 412 396 377 Q396 354 383.5 329.5 Q371 305 346.5 285.5 Q322 266 286.5 253.5 Q251 241 205 241 Q182 241 160.5 243 Q139 245 124 250 Q110 188 110 148 Q110 122 113.5 97.5 Q117 73 127 54.5 Q137 36 154 24.5 Q171 13 197 13 Z M271 452 Q243 452 220.5 436 Q198 420 180.5 394 Q163 368 150 335.5 Q137 303 128 270 Q145 265 160 263.5 Q175 262 189 262 Q221 262 245.5 273 Q270 284 286.5 302 Q303 320 311 342 Q319 364 319 386 Q319 413 307 432.5 Q295 452 271 452 Z M286 586 Q315 586 337.5 594.5 Q360 603 376.5 616.5 Q393 630 403.5 646.5 Q414 663 417 678 L441 678 Q435 653 422 625.5 Q409 598 388 574.5 Q367 551 338.5 536 Q310 521 275 521 Q244 521 222.5 532.5 Q201 544 187.5 563 Q174 582 168 605.5 Q162 629 162 652 Q162 659 162.5 665.5 Q163 672 164 678 L188 678 Q187 674 187 667 Q187 653 192.5 638.5 Q198 624 210 612.5 Q222 601 241 593.5 Q260 586 286 586 Z " />
<glyph glyph-name="Edotaccent" unicode="&#x116;" horiz-adv-x="550" d="M442 697 Q509 697 538 669.5 Q567 642 567 606 Q567 563 541.5 534 Q516 505 472 505 Q453 505 443 511.5 Q433 518 428 525 L529 638 Q515 661 495 670 Q475 679 438 679 L263 679 L195 359 L400 359 L395 340 L191 340 L123 18 L213 18 Q324 18 386.5 53.5 Q449 89 469 149 L476 171 L488 171 L448 0 L-48 0 L-43 18 L38 18 L178 679 L96 679 L100 697 L442 697 Z M435 846 Q435 822 417.5 802.5 Q400 783 372 783 Q352 783 339.5 796.5 Q327 810 327 830 Q327 857 344.5 875 Q362 893 391 893 Q411 893 423 879.5 Q435 866 435 846 Z " />
<glyph glyph-name="edotaccent" unicode="&#x117;" horiz-adv-x="416" d="M197 13 Q225 13 249 24 Q273 35 291 51 Q309 67 321.5 85 Q334 103 340 117 L351 109 Q343 91 329 70.5 Q315 50 293.5 32.5 Q272 15 242 3 Q212 -9 170 -9 Q140 -9 113 1.5 Q86 12 65.5 34.5 Q45 57 32.5 91.5 Q20 126 20 175 Q20 229 40.5 281.5 Q61 334 96 375 Q131 416 177.5 441 Q224 466 276 466 Q339 466 367.5 439 Q396 412 396 377 Q396 354 383.5 329.5 Q371 305 346.5 285.5 Q322 266 286.5 253.5 Q251 241 205 241 Q182 241 160.5 243 Q139 245 124 250 Q110 188 110 148 Q110 122 113.5 97.5 Q117 73 127 54.5 Q137 36 154 24.5 Q171 13 197 13 Z M271 452 Q243 452 220.5 436 Q198 420 180.5 394 Q163 368 150 335.5 Q137 303 128 270 Q145 265 160 263.5 Q175 262 189 262 Q221 262 245.5 273 Q270 284 286.5 302 Q303 320 311 342 Q319 364 319 386 Q319 413 307 432.5 Q295 452 271 452 Z M334 601 Q334 577 316.5 557.5 Q299 538 271 538 Q251 538 238.5 551.5 Q226 565 226 585 Q226 612 243.5 630 Q261 648 290 648 Q310 648 322 634.5 Q334 621 334 601 Z " />
<glyph glyph-name="Eogonek" unicode="&#x118;" horiz-adv-x="550" d="M442 697 Q509 697 538 669.5 Q567 642 567 606 Q567 563 541.5 534 Q516 505 472 505 Q453 505 443 511.5 Q433 518 428 525 L529 638 Q515 661 495 670 Q475 679 438 679 L263 679 L195 359 L400 359 L395 340 L191 340 L123 18 L213 18 Q324 18 386.5 53.5 Q449 89 469 149 L476 171 L488 171 L448 0 L329 0 Q280 -30 261.5 -63.5 Q243 -97 243 -128 Q243 -155 255 -171.5 Q267 -188 291 -188 Q312 -188 330.5 -172.5 Q349 -157 365 -134 L374 -143 Q349 -186 315.5 -208 Q282 -230 249 -230 Q212 -230 195 -209 Q178 -188 178 -160 Q178 -110 214.5 -67.5 Q251 -25 311 0 L-48 0 L-43 18 L38 18 L178 679 L96 679 L100 697 L442 697 Z " />
<glyph glyph-name="eogonek" unicode="&#x119;" horiz-adv-x="416" d="M197 13 Q225 13 249 24 Q273 35 291 51 Q309 67 321.5 85 Q334 103 340 117 L351 109 Q345 96 338 84 Q331 72 319.5 58.5 Q308 45 290 28.5 Q272 12 245 -9 Q203 -41 185 -70.5 Q167 -100 167 -128 Q167 -155 179 -171.5 Q191 -188 215 -188 Q236 -188 254.5 -172.5 Q273 -157 289 -134 L298 -143 Q273 -186 239.5 -208 Q206 -230 173 -230 Q136 -230 119 -209 Q102 -188 102 -160 Q102 -113 135 -73.5 Q168 -34 228 -1 Q201 -9 170 -9 Q140 -9 113 1.5 Q86 12 65.5 34.5 Q45 57 32.5 91.5 Q20 126 20 175 Q20 229 40.5 281.5 Q61 334 96 375 Q131 416 177.5 441 Q224 466 276 466 Q339 466 367.5 439 Q396 412 396 377 Q396 354 383.5 329.5 Q371 305 346.5 285.5 Q322 266 286.5 253.5 Q251 241 205 241 Q182 241 160.5 243 Q139 245 124 250 Q110 188 110 148 Q110 122 113.5 98 Q117 74 127 55 Q137 36 154 24.5 Q171 13 197 13 Z M271 452 Q243 452 220.5 436 Q198 420 180.5 394 Q163 368 150 335.5 Q137 303 128 270 Q145 265 160 263.5 Q175 262 189 262 Q221 262 245.5 273 Q270 284 286.5 302 Q303 320 311 342 Q319 364 319 386 Q319 413 307 432.5 Q295 452 271 452 Z " />
<glyph glyph-name="Ecaron" unicode="&#x11a;" horiz-adv-x="550" d="M442 697 Q509 697 538 669.5 Q567 642 567 606 Q567 563 541.5 534 Q516 505 472 505 Q453 505 443 511.5 Q433 518 428 525 L529 638 Q515 661 495 670 Q475 679 438 679 L263 679 L195 359 L400 359 L395 340 L191 340 L123 18 L213 18 Q324 18 386.5 53.5 Q449 89 469 149 L476 171 L488 171 L448 0 L-48 0 L-43 18 L38 18 L178 679 L96 679 L100 697 L442 697 Z M543 926 L389 766 L359 766 L267 926 L286 938 L387 844 L528 940 L543 926 Z " />
<glyph glyph-name="ecaron" unicode="&#x11b;" horiz-adv-x="416" d="M197 13 Q225 13 249 24 Q273 35 291 51 Q309 67 321.5 85 Q334 103 340 117 L351 109 Q343 91 329 70.5 Q315 50 293.5 32.5 Q272 15 242 3 Q212 -9 170 -9 Q140 -9 113 1.5 Q86 12 65.5 34.5 Q45 57 32.5 91.5 Q20 126 20 175 Q20 229 40.5 281.5 Q61 334 96 375 Q131 416 177.5 441 Q224 466 276 466 Q339 466 367.5 439 Q396 412 396 377 Q396 354 383.5 329.5 Q371 305 346.5 285.5 Q322 266 286.5 253.5 Q251 241 205 241 Q182 241 160.5 243 Q139 245 124 250 Q110 188 110 148 Q110 122 113.5 97.5 Q117 73 127 54.5 Q137 36 154 24.5 Q171 13 197 13 Z M271 452 Q243 452 220.5 436 Q198 420 180.5 394 Q163 368 150 335.5 Q137 303 128 270 Q145 265 160 263.5 Q175 262 189 262 Q221 262 245.5 273 Q270 284 286.5 302 Q303 320 311 342 Q319 364 319 386 Q319 413 307 432.5 Q295 452 271 452 Z M430 676 L276 516 L246 516 L154 676 L173 688 L274 594 L415 690 L430 676 Z " />
<glyph glyph-name="Gcircumflex" unicode="&#x11c;" horiz-adv-x="632" d="M490 0 L477 0 Q472 5 464.5 8 Q457 11 445 11 Q436 11 419 8 Q402 5 380.5 1 Q359 -3 336 -6 Q313 -9 292 -9 Q220 -9 171.5 13 Q123 35 94.5 74 Q66 113 54 166.5 Q42 220 42 283 Q42 329 52.5 379 Q63 429 84 476 Q105 523 137 565 Q169 607 212 639 Q255 671 308.5 689.5 Q362 708 427 708 Q472 708 503 697 Q534 686 553.5 668.5 Q573 651 581.5 629.5 Q590 608 590 586 Q590 561 581.5 543.5 Q573 526 559.5 515 Q546 504 530.5 499 Q515 494 502 494 Q478 494 466.5 503 Q455 512 451 520 L560 627 Q542 658 511 673.5 Q480 689 428 689 Q355 689 301 650 Q247 611 211.5 551 Q176 491 158.5 419 Q141 347 141 280 Q141 218 149.5 168.5 Q158 119 177 84 Q196 49 226.5 30 Q257 11 300 11 Q335 11 363.5 19.5 Q392 28 415 43 L465 271 L381 271 L385 288 L609 288 L606 271 L548 271 L490 0 Z M547 749 L439 845 L295 751 L281 763 L438 923 L469 923 L567 763 L547 749 Z " />
<glyph glyph-name="gcircumflex" unicode="&#x11d;" horiz-adv-x="449" d="M300 -117 Q300 -84 281.5 -64 Q263 -44 233 -30 Q195 -13 156 -4 Q117 5 94 16 Q85 10 75 0 Q65 -10 56 -24.5 Q47 -39 41 -56.5 Q35 -74 35 -93 Q35 -114 43 -134 Q51 -154 67.5 -170 Q84 -186 110 -195.5 Q136 -205 172 -205 Q196 -205 219 -198.5 Q242 -192 260 -180.5 Q278 -169 289 -153 Q300 -137 300 -117 Z M200 186 Q226 186 247.5 199.5 Q269 213 284.5 236.5 Q300 260 308.5 290.5 Q317 321 317 355 Q317 450 257 450 Q229 450 207 432.5 Q185 415 169.5 388 Q154 361 146 330 Q138 299 138 272 Q138 234 152.5 210 Q167 186 200 186 Z M401 540 Q412 521 417.5 509.5 Q423 498 423 484 Q423 465 413 450.5 Q403 436 379 417 Q389 401 394 381.5 Q399 362 399 343 Q399 308 385 276 Q371 244 345.5 220 Q320 196 283 181.5 Q246 167 201 167 Q172 167 145.5 173 Q119 179 103 190 Q89 182 83.5 169 Q78 156 78 144 Q78 120 95.5 106 Q113 92 140.5 82.5 Q168 73 201 64.5 Q234 56 266 44 Q308 28 336 -1.5 Q364 -31 364 -81 Q364 -111 349.5 -136.5 Q335 -162 308 -181.5 Q281 -201 242 -212 Q203 -223 153 -223 Q67 -223 17 -192.5 Q-33 -162 -33 -108 Q-33 -57 -1.5 -25.5 Q30 6 73 23 Q48 34 33.5 52.5 Q19 71 19 97 Q19 127 35.5 153 Q52 179 89 200 Q67 220 59.5 243 Q52 266 52 293 Q52 330 67 361.5 Q82 393 109.5 416 Q137 439 175 452.5 Q213 466 258 466 Q283 466 315 457.5 Q347 449 368 429 Q385 443 393.5 455 Q402 467 402 482 Q402 507 380 526 L273 622 L129 528 L115 540 L272 700 L303 700 L401 540 Z " />
<glyph glyph-name="Gbreve" unicode="&#x11e;" horiz-adv-x="632" d="M490 0 L477 0 Q472 5 464.5 8 Q457 11 445 11 Q436 11 419 8 Q402 5 380.5 1 Q359 -3 336 -6 Q313 -9 292 -9 Q220 -9 171.5 13 Q123 35 94.5 74 Q66 113 54 166.5 Q42 220 42 283 Q42 329 52.5 379 Q63 429 84 476 Q105 523 137 565 Q169 607 212 639 Q255 671 308.5 689.5 Q362 708 427 708 Q472 708 503 697 Q534 686 553.5 668.5 Q573 651 581.5 629.5 Q590 608 590 586 Q590 561 581.5 543.5 Q573 526 559.5 515 Q546 504 530.5 499 Q515 494 502 494 Q478 494 466.5 503 Q455 512 451 520 L560 627 Q542 658 511 673.5 Q480 689 428 689 Q355 689 301 650 Q247 611 211.5 551 Q176 491 158.5 419 Q141 347 141 280 Q141 218 149.5 168.5 Q158 119 177 84 Q196 49 226.5 30 Q257 11 300 11 Q335 11 363.5 19.5 Q392 28 415 43 L465 271 L381 271 L385 288 L609 288 L606 271 L548 271 L490 0 Z M433 836 Q462 836 484.5 844.5 Q507 853 523.5 866.5 Q540 880 550.5 896.5 Q561 913 564 928 L588 928 Q582 903 569 875.5 Q556 848 535 824.5 Q514 801 485.5 786 Q457 771 422 771 Q391 771 369.5 782.5 Q348 794 334.5 813 Q321 832 315 855.5 Q309 879 309 902 Q309 909 309.5 915.5 Q310 922 311 928 L335 928 Q334 924 334 917 Q334 903 339.5 888.5 Q345 874 357 862.5 Q369 851 388 843.5 Q407 836 433 836 Z " />
<glyph glyph-name="gbreve" unicode="&#x11f;" horiz-adv-x="434" d="M300 -117 Q300 -84 281.5 -64 Q263 -44 233 -30 Q195 -13 156 -4 Q117 5 94 16 Q85 10 75 0 Q65 -10 56 -24.5 Q47 -39 41 -56.5 Q35 -74 35 -93 Q35 -114 43 -134 Q51 -154 67.5 -170 Q84 -186 110 -195.5 Q136 -205 172 -205 Q196 -205 219 -198.5 Q242 -192 260 -180.5 Q278 -169 289 -153 Q300 -137 300 -117 Z M200 186 Q226 186 247.5 199.5 Q269 213 284.5 236.5 Q300 260 308.5 290.5 Q317 321 317 355 Q317 450 257 450 Q229 450 207 432.5 Q185 415 169.5 388 Q154 361 146 330 Q138 299 138 272 Q138 234 152.5 210 Q167 186 200 186 Z M378 417 Q388 401 393.5 381.5 Q399 362 399 343 Q399 308 385 276 Q371 244 345.5 220 Q320 196 283 181.5 Q246 167 201 167 Q172 167 145.5 173 Q119 179 103 190 Q89 182 83.5 169 Q78 156 78 144 Q78 120 95.5 106 Q113 92 140.5 82.5 Q168 73 201 64.5 Q234 56 266 44 Q308 28 336 -1.5 Q364 -31 364 -81 Q364 -111 349.5 -136.5 Q335 -162 308 -181.5 Q281 -201 242 -212 Q203 -223 153 -223 Q67 -223 17 -192.5 Q-33 -162 -33 -108 Q-33 -57 -1.5 -25.5 Q30 6 73 23 Q48 34 33.5 52.5 Q19 71 19 97 Q19 127 35.5 153 Q52 179 89 200 Q67 220 59.5 243 Q52 266 52 293 Q52 330 67 361.5 Q82 393 109.5 416 Q137 439 175 452.5 Q213 466 258 466 Q283 466 315 457.5 Q347 449 368 429 Q391 443 401 455.5 Q411 468 411 479 Q411 488 400 488 L336 488 Q336 515 350 531.5 Q364 548 390 548 Q410 548 424 535.5 Q438 523 438 503 Q438 483 427 461.5 Q416 440 378 417 Z M250 586 Q273 586 292 594.5 Q311 603 325.5 616.5 Q340 630 349 646.5 Q358 663 361 678 L385 678 Q379 653 367.5 625.5 Q356 598 338 574.5 Q320 551 295 536 Q270 521 239 521 Q212 521 194.5 532 Q177 543 166 560 Q155 577 150.5 599 Q146 621 146 644 Q146 653 146.5 661.5 Q147 670 148 678 L172 678 Q171 675 171 671.5 Q171 668 171 665 Q171 651 175.5 637 Q180 623 189.5 611.5 Q199 600 214 593 Q229 586 250 586 Z " />
<glyph glyph-name="Gdotaccent" unicode="&#x120;" horiz-adv-x="632" d="M490 0 L477 0 Q472 5 464.5 8 Q457 11 445 11 Q436 11 419 8 Q402 5 380.5 1 Q359 -3 336 -6 Q313 -9 292 -9 Q220 -9 171.5 13 Q123 35 94.5 74 Q66 113 54 166.5 Q42 220 42 283 Q42 329 52.5 379 Q63 429 84 476 Q105 523 137 565 Q169 607 212 639 Q255 671 308.5 689.5 Q362 708 427 708 Q472 708 503 697 Q534 686 553.5 668.5 Q573 651 581.5 629.5 Q590 608 590 586 Q590 561 581.5 543.5 Q573 526 559.5 515 Q546 504 530.5 499 Q515 494 502 494 Q478 494 466.5 503 Q455 512 451 520 L560 627 Q542 658 511 673.5 Q480 689 428 689 Q355 689 301 650 Q247 611 211.5 551 Q176 491 158.5 419 Q141 347 141 280 Q141 218 149.5 168.5 Q158 119 177 84 Q196 49 226.5 30 Q257 11 300 11 Q335 11 363.5 19.5 Q392 28 415 43 L465 271 L381 271 L385 288 L609 288 L606 271 L548 271 L490 0 Z M487 846 Q487 822 469.5 802.5 Q452 783 424 783 Q404 783 391.5 796.5 Q379 810 379 830 Q379 857 396.5 875 Q414 893 443 893 Q463 893 475 879.5 Q487 866 487 846 Z " />
<glyph glyph-name="gdotaccent" unicode="&#x121;" horiz-adv-x="449" d="M379 417 Q389 401 394 381.5 Q399 362 399 343 Q399 308 385 276 Q371 244 345.5 220 Q320 196 283 181.5 Q246 167 201 167 Q172 167 145.5 173 Q119 179 103 190 Q89 182 83.5 169 Q78 156 78 144 Q78 120 95.5 106 Q113 92 140.5 82.5 Q168 73 201 64.5 Q234 56 266 44 Q308 28 336 -1.5 Q364 -31 364 -81 Q364 -111 349.5 -136.5 Q335 -162 308 -181.5 Q281 -201 242 -212 Q203 -223 153 -223 Q67 -223 17 -192.5 Q-33 -162 -33 -108 Q-33 -57 -1.5 -25.5 Q30 6 73 23 Q48 34 33.5 52.5 Q19 71 19 97 Q19 127 35.5 153 Q52 179 89 200 Q67 220 59.5 243 Q52 266 52 293 Q52 330 67 361.5 Q82 393 109.5 416 Q137 439 175 452.5 Q213 466 258 466 Q283 466 315 457.5 Q347 449 368 429 Q421 476 421 555 Q421 574 415.5 592.5 Q410 611 398.5 625.5 Q387 640 370.5 648.5 Q354 657 333 657 Q310 657 295.5 651 Q281 645 273 638 Q281 640 288 640 Q302 640 316.5 629 Q331 618 331 595 Q331 569 312.5 548.5 Q294 528 269 528 Q249 528 237 541.5 Q225 555 225 581 Q225 598 232.5 614.5 Q240 631 254.5 644 Q269 657 289 665 Q309 673 334 673 Q359 673 379 663.5 Q399 654 412.5 638 Q426 622 433 600 Q440 578 440 554 Q440 519 424.5 480.5 Q409 442 379 417 Z M300 -117 Q300 -84 281.5 -64 Q263 -44 233 -30 Q195 -13 156 -4 Q117 5 94 16 Q85 10 75 0 Q65 -10 56 -24.5 Q47 -39 41 -56.5 Q35 -74 35 -93 Q35 -114 43 -134 Q51 -154 67.5 -170 Q84 -186 110 -195.5 Q136 -205 172 -205 Q196 -205 219 -198.5 Q242 -192 260 -180.5 Q278 -169 289 -153 Q300 -137 300 -117 Z M200 186 Q226 186 247.5 199.5 Q269 213 284.5 236.5 Q300 260 308.5 290.5 Q317 321 317 355 Q317 450 257 450 Q229 450 207 432.5 Q185 415 169.5 388 Q154 361 146 330 Q138 299 138 272 Q138 234 152.5 210 Q167 186 200 186 Z " />
<glyph glyph-name="Gcommaaccent" unicode="&#x122;" horiz-adv-x="632" d="M490 0 L477 0 Q472 5 464.5 8 Q457 11 445 11 Q436 11 419 8 Q402 5 380.5 1 Q359 -3 336 -6 Q313 -9 292 -9 Q220 -9 171.5 13 Q123 35 94.5 74 Q66 113 54 166.5 Q42 220 42 283 Q42 329 52.5 379 Q63 429 84 476 Q105 523 137 565 Q169 607 212 639 Q255 671 308.5 689.5 Q362 708 427 708 Q472 708 503 697 Q534 686 553.5 668.5 Q573 651 581.5 629.5 Q590 608 590 586 Q590 561 581.5 543.5 Q573 526 559.5 515 Q546 504 530.5 499 Q515 494 502 494 Q478 494 466.5 503 Q455 512 451 520 L560 627 Q542 658 511 673.5 Q480 689 428 689 Q355 689 301 650 Q247 611 211.5 551 Q176 491 158.5 419 Q141 347 141 280 Q141 218 149.5 168.5 Q158 119 177 84 Q196 49 226.5 30 Q257 11 300 11 Q335 11 363.5 19.5 Q392 28 415 43 L465 271 L381 271 L385 288 L609 288 L606 271 L548 271 L490 0 Z M220 -221 Q247 -200 258 -184 Q269 -168 269 -159 Q269 -155 263.5 -150.5 Q258 -146 251 -140 Q244 -134 238.5 -124.5 Q233 -115 233 -100 Q233 -72 250.5 -58.5 Q268 -45 288 -45 Q311 -45 322 -59.5 Q333 -74 333 -95 Q333 -132 306 -166.5 Q279 -201 229 -235 L220 -221 Z " />
<glyph glyph-name="gcommaaccent" unicode="&#x123;" horiz-adv-x="434" d="M300 -117 Q300 -84 281.5 -64 Q263 -44 233 -30 Q195 -13 156 -4 Q117 5 94 16 Q85 10 75 0 Q65 -10 56 -24.5 Q47 -39 41 -56.5 Q35 -74 35 -93 Q35 -114 43 -134 Q51 -154 67.5 -170 Q84 -186 110 -195.5 Q136 -205 172 -205 Q196 -205 219 -198.5 Q242 -192 260 -180.5 Q278 -169 289 -153 Q300 -137 300 -117 Z M200 186 Q226 186 247.5 199.5 Q269 213 284.5 236.5 Q300 260 308.5 290.5 Q317 321 317 355 Q317 450 257 450 Q229 450 207 432.5 Q185 415 169.5 388 Q154 361 146 330 Q138 299 138 272 Q138 234 152.5 210 Q167 186 200 186 Z M378 417 Q388 401 393.5 381.5 Q399 362 399 343 Q399 308 385 276 Q371 244 345.5 220 Q320 196 283 181.5 Q246 167 201 167 Q172 167 145.5 173 Q119 179 103 190 Q89 182 83.5 169 Q78 156 78 144 Q78 120 95.5 106 Q113 92 140.5 82.5 Q168 73 201 64.5 Q234 56 266 44 Q308 28 336 -1.5 Q364 -31 364 -81 Q364 -111 349.5 -136.5 Q335 -162 308 -181.5 Q281 -201 242 -212 Q203 -223 153 -223 Q67 -223 17 -192.5 Q-33 -162 -33 -108 Q-33 -57 -1.5 -25.5 Q30 6 73 23 Q48 34 33.5 52.5 Q19 71 19 97 Q19 127 35.5 153 Q52 179 89 200 Q67 220 59.5 243 Q52 266 52 293 Q52 330 67 361.5 Q82 393 109.5 416 Q137 439 175 452.5 Q213 466 258 466 Q283 466 315 457.5 Q347 449 368 429 Q391 443 401 455.5 Q411 468 411 479 Q411 488 400 488 L336 488 Q336 515 350 531.5 Q364 548 390 548 Q410 548 424 535.5 Q438 523 438 503 Q438 483 427 461.5 Q416 440 378 417 Z M320 704 Q293 683 282 667 Q271 651 271 642 Q271 637 276.5 633 Q282 629 289 623 Q296 617 301.5 607.5 Q307 598 307 583 Q307 555 289.5 541.5 Q272 528 252 528 Q229 528 218 542.5 Q207 557 207 578 Q207 615 234 649.5 Q261 684 311 718 L320 704 Z " />
<glyph glyph-name="Hcircumflex" unicode="&#x124;" horiz-adv-x="719" d="M123 18 L212 18 L208 0 L-47 0 L-42 18 L38 18 L178 679 L96 679 L100 697 L349 697 L345 679 L263 679 L199 377 L542 377 L606 679 L524 679 L528 697 L777 697 L773 679 L691 679 L551 18 L632 18 L628 0 L381 0 L385 18 L466 18 L538 355 L195 355 L123 18 Z M571 749 L463 845 L319 751 L305 763 L462 923 L493 923 L591 763 L571 749 Z " />
<glyph glyph-name="hcircumflex" unicode="&#x125;" horiz-adv-x="504" d="M152 695 Q135 699 114 699.5 Q93 700 77 700 L80 712 L241 728 L158 346 Q195 410 237.5 438 Q280 466 325 466 Q353 466 372 458.5 Q391 451 403 437.5 Q415 424 420 406 Q425 388 425 367 Q425 341 417 302 Q409 263 398 218 Q393 195 387 171.5 Q381 148 376 126.5 Q371 105 368 87 Q365 69 365 57 Q365 40 370 33.5 Q375 27 385 27 Q396 27 412 42 Q428 57 443 86 L455 81 Q429 32 400 11.5 Q371 -9 344 -9 Q308 -9 295.5 10.5 Q283 30 283 59 Q283 86 294.5 130.5 Q306 175 317 224 Q327 268 336 306.5 Q345 345 345 371 Q345 405 331.5 424 Q318 443 295 443 Q280 443 257 430.5 Q234 418 210 388 Q186 358 163.5 308.5 Q141 259 126 186 L87 0 L5 0 L152 695 Z M306 717 L198 813 L54 719 L40 731 L197 891 L228 891 L326 731 L306 717 Z " />
<glyph glyph-name="Hbar" unicode="&#x126;" horiz-adv-x="719" d="M123 18 L212 18 L208 0 L-47 0 L-42 18 L38 18 L144 520 L67 520 L71 537 L148 537 L178 679 L96 679 L100 697 L349 697 L345 679 L263 679 L233 537 L576 537 L606 679 L524 679 L528 697 L777 697 L773 679 L691 679 L661 537 L737 537 L733 520 L657 520 L551 18 L632 18 L628 0 L381 0 L385 18 L466 18 L538 355 L195 355 L123 18 Z M542 377 L572 520 L229 520 L199 377 L542 377 Z " />
<glyph glyph-name="hbar" unicode="&#x127;" horiz-adv-x="504" d="M126 571 L67 571 L71 588 L129 588 L152 695 Q135 699 114 699.5 Q93 700 77 700 L80 712 L241 728 L210 588 L365 588 L361 571 L207 571 L158 346 Q195 410 237.5 438 Q280 466 325 466 Q353 466 372 458.5 Q391 451 403 437.5 Q415 424 420 406 Q425 388 425 367 Q425 341 417 302 Q409 263 398 218 Q393 195 387 171.5 Q381 148 376 126.5 Q371 105 368 87 Q365 69 365 57 Q365 40 370 33.5 Q375 27 385 27 Q396 27 412 42 Q428 57 443 86 L455 81 Q429 32 400 11.5 Q371 -9 344 -9 Q308 -9 295.5 10.5 Q283 30 283 59 Q283 86 294.5 130.5 Q306 175 317 224 Q327 268 336 306 Q345 344 345 371 Q345 405 331.5 424 Q318 443 295 443 Q280 443 257 430.5 Q234 418 210 388 Q186 358 163.5 308.5 Q141 259 126 186 L87 0 L5 0 L126 571 Z " />
<glyph glyph-name="Itilde" unicode="&#x128;" horiz-adv-x="301" d="M-42 0 L-37 18 L43 18 L183 679 L101 679 L105 697 L354 697 L350 679 L268 679 L128 18 L209 18 L205 0 L-42 0 Z M420 887 Q404 832 373.5 804.5 Q343 777 305 777 Q284 777 267 784.5 Q250 792 234.5 800.5 Q219 809 204.5 816.5 Q190 824 174 824 Q157 824 138.5 813 Q120 802 106 773 L92 773 Q108 828 139 855.5 Q170 883 208 883 Q229 883 246 875.5 Q263 868 278 859.5 Q293 851 307.5 843.5 Q322 836 338 836 Q355 836 373.5 847 Q392 858 406 887 L420 887 Z " />
<glyph glyph-name="itilde" unicode="&#x129;" horiz-adv-x="256" d="M111 433 Q94 437 73 437.5 Q52 438 36 438 L39 450 L200 466 L125 122 Q115 75 115 57 Q115 27 136 27 Q147 27 163.5 42 Q180 57 194 86 L206 81 Q180 32 151.5 11.5 Q123 -9 96 -9 Q60 -9 47.5 10.5 Q35 30 35 59 Q35 77 39 100.5 Q43 124 50 155 L111 433 Z M337 642 Q321 587 290.5 559.5 Q260 532 222 532 Q201 532 184 539.5 Q167 547 151.5 555.5 Q136 564 121.5 571.5 Q107 579 91 579 Q74 579 55.5 568 Q37 557 23 528 L9 528 Q25 583 56 610.5 Q87 638 125 638 Q146 638 163 630.5 Q180 623 195 614.5 Q210 606 224.5 598.5 Q239 591 255 591 Q272 591 290.5 602 Q309 613 323 642 L337 642 Z " />
<glyph glyph-name="Imacron" unicode="&#x12a;" horiz-adv-x="301" d="M-42 0 L-37 18 L43 18 L183 679 L101 679 L105 697 L354 697 L350 679 L268 679 L128 18 L209 18 L205 0 L-42 0 Z M125 796 L138 850 L393 850 L380 796 L125 796 Z " />
<glyph glyph-name="imacron" unicode="&#x12b;" horiz-adv-x="256" d="M111 433 Q94 437 73 437.5 Q52 438 36 438 L39 450 L200 466 L125 122 Q115 75 115 57 Q115 27 136 27 Q147 27 163.5 42 Q180 57 194 86 L206 81 Q180 32 151.5 11.5 Q123 -9 96 -9 Q60 -9 47.5 10.5 Q35 30 35 59 Q35 77 39 100.5 Q43 124 50 155 L111 433 Z M57 546 L70 600 L295 600 L282 546 L57 546 Z " />
<glyph glyph-name="Ibreve" unicode="&#x12c;" horiz-adv-x="301" d="M-42 0 L-37 18 L43 18 L183 679 L101 679 L105 697 L354 697 L350 679 L268 679 L128 18 L209 18 L205 0 L-42 0 Z M260 836 Q289 836 311.5 844.5 Q334 853 350.5 866.5 Q367 880 377.5 896.5 Q388 913 391 928 L415 928 Q409 903 396 875.5 Q383 848 362 824.5 Q341 801 312.5 786 Q284 771 249 771 Q218 771 196.5 782.5 Q175 794 161.5 813 Q148 832 142 855.5 Q136 879 136 902 Q136 909 136.5 915.5 Q137 922 138 928 L162 928 Q161 924 161 917 Q161 903 166.5 888.5 Q172 874 184 862.5 Q196 851 215 843.5 Q234 836 260 836 Z " />
<glyph glyph-name="ibreve" unicode="&#x12d;" horiz-adv-x="256" d="M111 433 Q94 437 73 437.5 Q52 438 36 438 L39 450 L200 466 L125 122 Q115 75 115 57 Q115 27 136 27 Q147 27 163.5 42 Q180 57 194 86 L206 81 Q180 32 151.5 11.5 Q123 -9 96 -9 Q60 -9 47.5 10.5 Q35 30 35 59 Q35 77 39 100.5 Q43 124 50 155 L111 433 Z M183 586 Q206 586 225 594.5 Q244 603 258.5 616.5 Q273 630 282 646.5 Q291 663 294 678 L318 678 Q312 653 300.5 625.5 Q289 598 271 574.5 Q253 551 228 536 Q203 521 172 521 Q145 521 127.5 532 Q110 543 99 560 Q88 577 83.5 599 Q79 621 79 644 Q79 653 79.5 661.5 Q80 670 81 678 L105 678 Q104 675 104 671.5 Q104 668 104 665 Q104 651 108.5 637 Q113 623 122.5 611.5 Q132 600 147 593 Q162 586 183 586 Z " />
<glyph glyph-name="Iogonek" unicode="&#x12e;" horiz-adv-x="301" d="M112 0 Q63 -30 44.5 -63.5 Q26 -97 26 -128 Q26 -155 38 -171.5 Q50 -188 74 -188 Q95 -188 113.5 -172.5 Q132 -157 148 -134 L157 -143 Q132 -186 98.5 -208 Q65 -230 32 -230 Q-5 -230 -22 -209 Q-39 -188 -39 -160 Q-39 -110 -2.5 -67.5 Q34 -25 94 0 L-42 0 L-37 18 L43 18 L183 679 L101 679 L105 697 L354 697 L350 679 L268 679 L128 18 L209 18 L205 0 L112 0 Z " />
<glyph glyph-name="iogonek" unicode="&#x12f;" horiz-adv-x="256" d="M115 57 Q115 27 136 27 Q147 27 163.5 42 Q180 57 194 86 L206 81 Q196 63 186.5 50 Q177 37 167.5 27.5 Q158 18 147.5 10 Q137 2 124 -6 Q80 -35 62 -65.5 Q44 -96 44 -128 Q44 -155 56 -171.5 Q68 -188 92 -188 Q113 -188 131.5 -172.5 Q150 -157 166 -134 L175 -143 Q150 -186 116.5 -208 Q83 -230 50 -230 Q13 -230 -4 -209 Q-21 -188 -21 -160 Q-21 -115 9.5 -75 Q40 -35 92 -9 Q58 -7 46.5 12 Q35 31 35 59 Q35 75 39 99.5 Q43 124 50 155 L111 433 Q94 437 73 437.5 Q52 438 36 438 L39 450 L200 466 L125 122 Q115 75 115 57 Z M196 650 Q219 650 229.5 636.5 Q240 623 240 607 Q239 579 220.5 558.5 Q202 538 173 538 Q150 538 140.5 552 Q131 566 131 582 Q132 610 150 630 Q168 650 196 650 Z " />
<glyph glyph-name="Idotaccent" unicode="&#x130;" horiz-adv-x="301" d="M-42 0 L-37 18 L43 18 L183 679 L101 679 L105 697 L354 697 L350 679 L268 679 L128 18 L209 18 L205 0 L-42 0 Z M321 846 Q321 822 303.5 802.5 Q286 783 258 783 Q238 783 225.5 796.5 Q213 810 213 830 Q213 857 230.5 875 Q248 893 277 893 Q297 893 309 879.5 Q321 866 321 846 Z " />
<glyph glyph-name="dotlessi" unicode="&#x131;" horiz-adv-x="256" d="M111 433 Q94 437 73 437.5 Q52 438 36 438 L39 450 L200 466 L125 122 Q115 75 115 57 Q115 27 136 27 Q147 27 163.5 42 Q180 57 194 86 L206 81 Q180 32 151.5 11.5 Q123 -9 96 -9 Q60 -9 47.5 10.5 Q35 30 35 59 Q35 77 39 100.5 Q43 124 50 155 L111 433 Z " />
<glyph glyph-name="IJ" unicode="&#x132;" horiz-adv-x="626" d="M-42 0 L-37 18 L43 18 L183 679 L101 679 L105 697 L354 697 L350 679 L268 679 L128 18 L209 18 L205 0 L-42 0 Z M323 -18 Q304 -18 286.5 -14 Q269 -10 255.5 -1 Q242 8 234 21.5 Q226 35 226 55 Q226 75 236 93 Q246 111 271 115 L318 22 Q325 9 330.5 4.5 Q336 0 344 0 Q356 0 365.5 11 Q375 22 383.5 45.5 Q392 69 400.5 107 Q409 145 421 199 L523 679 L423 679 L427 697 L694 697 L690 679 L608 679 L500 167 Q481 79 434.5 30.5 Q388 -18 323 -18 Z " />
<glyph glyph-name="ij" unicode="&#x133;" horiz-adv-x="485" d="M196 650 Q219 650 229.5 636.5 Q240 623 240 607 Q239 579 220.5 558.5 Q202 538 173 538 Q150 538 140.5 552 Q131 566 131 582 Q132 610 150 630 Q168 650 196 650 Z M111 433 Q94 437 73 437.5 Q52 438 36 438 L39 450 L200 466 L125 122 Q115 75 115 57 Q115 27 136 27 Q147 27 163.5 42 Q180 57 194 86 L206 81 Q180 32 151.5 11.5 Q123 -9 96 -9 Q60 -9 47.5 10.5 Q35 30 35 59 Q35 77 39 100.5 Q43 124 50 155 L111 433 Z M349 433 Q332 437 311 437.5 Q290 438 274 438 L277 450 L438 466 L347 38 Q322 -79 266 -143.5 Q210 -208 110 -223 L107 -212 Q147 -202 172.5 -182 Q198 -162 214.5 -132.5 Q231 -103 241.5 -63.5 Q252 -24 263 26 L349 433 Z M429 650 Q452 650 462.5 636.5 Q473 623 473 607 Q472 579 453.5 558.5 Q435 538 406 538 Q383 538 373.5 552 Q364 566 364 582 Q365 610 383 630 Q401 650 429 650 Z " />
<glyph glyph-name="Jcircumflex" unicode="&#x134;" horiz-adv-x="362" d="M59 -18 Q40 -18 22.5 -14 Q5 -10 -8.5 -1 Q-22 8 -30 21.5 Q-38 35 -38 55 Q-38 75 -28 93 Q-18 111 7 115 L54 22 Q61 9 66.5 4.5 Q72 0 80 0 Q92 0 101.5 11 Q111 22 119.5 45.5 Q128 69 136.5 107 Q145 145 157 199 L259 679 L159 679 L163 697 L430 697 L426 679 L344 679 L236 167 Q217 79 170.5 30.5 Q124 -18 59 -18 Z M440 749 L332 845 L188 751 L174 763 L331 923 L362 923 L460 763 L440 749 Z " />
<glyph glyph-name="jcircumflex" unicode="&#x135;" horiz-adv-x="248" d="M112 433 Q95 437 74 437.5 Q53 438 37 438 L40 450 L201 466 L110 38 Q85 -79 29 -143.5 Q-27 -208 -127 -223 L-130 -212 Q-90 -202 -64.5 -182 Q-39 -162 -22.5 -132.5 Q-6 -103 4.5 -63.5 Q15 -24 26 26 L112 433 Z M264 514 L176 610 L52 516 L38 528 L175 688 L206 688 L284 528 L264 514 Z " />
<glyph glyph-name="Kcommaaccent" unicode="&#x136;" horiz-adv-x="628" d="M176 269 L123 18 L204 18 L200 0 L-47 0 L-42 18 L38 18 L178 679 L96 679 L100 697 L339 697 L335 679 L263 679 L182 300 L424 454 Q493 498 529.5 535 Q566 572 567 598 Q567 610 561.5 617 Q556 624 540 624 L460 624 Q461 659 482 683.5 Q503 708 540 708 Q575 708 590.5 687.5 Q606 667 606 635 Q606 606 593.5 580 Q581 554 559.5 529.5 Q538 505 508 482.5 Q478 460 442 439 L366 393 Q377 395 383 396 Q389 397 406 397 Q429 397 449.5 391 Q470 385 486 372 Q502 359 511 337.5 Q520 316 520 286 Q520 275 518.5 264 Q517 253 515 241 L495 133 Q492 116 490 102 Q488 88 488 77 Q488 52 496.5 42.5 Q505 33 521 33 Q535 33 546.5 42.5 Q558 52 569 66 L578 55 Q559 27 533 9 Q507 -9 470 -9 Q455 -9 442 -4.5 Q429 0 419.5 10.5 Q410 21 404.5 39 Q399 57 399 85 Q399 101 400.5 119.5 Q402 138 407 161 L425 258 Q431 291 431 314 Q431 351 417 364.5 Q403 378 380 378 Q355 378 329.5 363.5 Q304 349 268 328 L176 269 Z M228 -221 Q255 -200 266 -184 Q277 -168 277 -159 Q277 -155 271.5 -150.5 Q266 -146 259 -140 Q252 -134 246.5 -124.5 Q241 -115 241 -100 Q241 -72 258.5 -58.5 Q276 -45 296 -45 Q319 -45 330 -59.5 Q341 -74 341 -95 Q341 -132 314 -166.5 Q287 -201 237 -235 L228 -221 Z " />
<glyph glyph-name="kcommaaccent" unicode="&#x137;" horiz-adv-x="479" d="M152 695 Q135 699 114 699.5 Q93 700 77 700 L80 712 L241 728 L117 146 Q132 176 158.5 201 Q185 226 215.5 246.5 Q246 267 278 284 Q310 301 336 316 Q362 331 378.5 344.5 Q395 358 395 371 Q395 382 389.5 388 Q384 394 367 394 L279 394 Q280 429 300 447.5 Q320 466 356 466 Q391 466 409 446.5 Q427 427 427 400 Q427 377 415 359 Q403 341 381.5 325 Q360 309 331.5 294 Q303 279 270 263 Q275 264 280 264 Q285 264 290 264 Q314 264 330.5 256.5 Q347 249 357 238 Q367 227 371.5 212.5 Q376 198 376 185 Q376 169 373 153.5 Q370 138 365 118 Q361 101 357.5 85 Q354 69 354 55 Q354 27 376 27 Q384 27 394.5 34 Q405 41 419 64 L428 56 Q411 25 386.5 8 Q362 -9 335 -9 Q300 -9 287 10.5 Q274 30 274 59 Q274 76 278 94 Q282 112 286 131 Q290 151 294.5 169.5 Q299 188 299 206 Q299 225 291.5 234.5 Q284 244 264 244 Q246 244 220.5 229.5 Q195 215 170.5 190 Q146 165 126 131 Q106 97 99 58 L87 0 L5 0 L152 695 Z M129 -221 Q156 -200 167 -184 Q178 -168 178 -159 Q178 -155 172.5 -150.5 Q167 -146 160 -140 Q153 -134 147.5 -124.5 Q142 -115 142 -100 Q142 -72 159.5 -58.5 Q177 -45 197 -45 Q220 -45 231 -59.5 Q242 -74 242 -95 Q242 -132 215 -166.5 Q188 -201 138 -235 L129 -221 Z " />
<glyph glyph-name="Lacute" unicode="&#x139;" horiz-adv-x="521" d="M323 904 Q334 915 347 922.5 Q360 930 374 930 Q388 930 399.5 920.5 Q411 911 411 895 Q411 879 400.5 870.5 Q390 862 369 849 L210 756 L184 756 L323 904 Z M-47 0 L-42 18 L38 18 L178 679 L96 679 L100 697 L367 697 L363 679 L263 679 L123 18 L171 18 Q240 18 288 30.5 Q336 43 367.5 63 Q399 83 415.5 108.5 Q432 134 440 160 L452 200 L465 200 L422 0 L-47 0 Z " />
<glyph glyph-name="lacute" unicode="&#x13a;" horiz-adv-x="242" d="M152 695 Q135 699 114 699.5 Q93 700 77 700 L80 712 L241 728 L122 171 Q114 136 108 102 Q102 68 102 53 Q102 27 124 27 Q136 27 149 37 Q162 47 172.5 60 Q183 73 191.5 86 Q200 99 203 106 L215 98 Q211 90 200 72 Q189 54 172 36 Q155 18 132.5 4.5 Q110 -9 83 -9 Q47 -9 34 10 Q21 29 21 53 Q21 71 26 99.5 Q31 128 39 162 L152 695 Z M262 891 Q273 902 286 909.5 Q299 917 313 917 Q327 917 338.5 907.5 Q350 898 350 882 Q350 866 339.5 857.5 Q329 849 308 836 L149 743 L123 743 L262 891 Z " />
<glyph glyph-name="Lcommaaccent" unicode="&#x13b;" horiz-adv-x="521" d="M-47 0 L-42 18 L38 18 L178 679 L96 679 L100 697 L367 697 L363 679 L263 679 L123 18 L171 18 Q240 18 288 30.5 Q336 43 367.5 63 Q399 83 415.5 108.5 Q432 134 440 160 L452 200 L465 200 L422 0 L-47 0 Z M150 -221 Q177 -200 188 -184 Q199 -168 199 -159 Q199 -155 193.5 -150.5 Q188 -146 181 -140 Q174 -134 168.5 -124.5 Q163 -115 163 -100 Q163 -72 180.5 -58.5 Q198 -45 218 -45 Q241 -45 252 -59.5 Q263 -74 263 -95 Q263 -132 236 -166.5 Q209 -201 159 -235 L150 -221 Z " />
<glyph glyph-name="lcommaaccent" unicode="&#x13c;" horiz-adv-x="242" d="M152 695 Q135 699 114 699.5 Q93 700 77 700 L80 712 L241 728 L122 171 Q114 136 108 102 Q102 68 102 53 Q102 27 124 27 Q136 27 149 37 Q162 47 172.5 60 Q183 73 191.5 86 Q200 99 203 106 L215 98 Q211 90 200 72 Q189 54 172 36 Q155 18 132.5 4.5 Q110 -9 83 -9 Q47 -9 34 10 Q21 29 21 53 Q21 71 26 99.5 Q31 128 39 162 L152 695 Z M-2 -221 Q25 -200 36 -184 Q47 -168 47 -159 Q47 -155 41.5 -150.5 Q36 -146 29 -140 Q22 -134 16.5 -124.5 Q11 -115 11 -100 Q11 -72 28.5 -58.5 Q46 -45 66 -45 Q89 -45 100 -59.5 Q111 -74 111 -95 Q111 -132 84 -166.5 Q57 -201 7 -235 L-2 -221 Z " />
<glyph glyph-name="Lcaron" unicode="&#x13d;" horiz-adv-x="521" d="M-47 0 L-42 18 L38 18 L178 679 L96 679 L100 697 L367 697 L363 679 L263 679 L123 18 L171 18 Q240 18 288 30.5 Q336 43 367.5 63 Q399 83 415.5 108.5 Q432 134 440 160 L452 200 L465 200 L422 0 L-47 0 Z M394 530 Q421 551 432 567 Q443 583 443 592 Q443 596 437.5 600.5 Q432 605 425 611 Q418 617 412.5 626.5 Q407 636 407 651 Q407 679 424.5 692.5 Q442 706 462 706 Q485 706 496 691.5 Q507 677 507 656 Q507 619 480 584.5 Q453 550 403 516 L394 530 Z " />
<glyph glyph-name="lcaron" unicode="&#x13e;" horiz-adv-x="291" d="M152 695 Q135 699 114 699.5 Q93 700 77 700 L80 712 L241 728 L122 171 Q114 136 108 102 Q102 68 102 53 Q102 27 124 27 Q136 27 149 37 Q162 47 172.5 60 Q183 73 191.5 86 Q200 99 203 106 L215 98 Q211 90 200 72 Q189 54 172 36 Q155 18 132.5 4.5 Q110 -9 83 -9 Q47 -9 34 10 Q21 29 21 53 Q21 71 26 99.5 Q31 128 39 162 L152 695 Z M280 560 Q307 581 318 597 Q329 613 329 622 Q329 626 323.5 630.5 Q318 635 311 641 Q304 647 298.5 656.5 Q293 666 293 681 Q293 709 310.5 722.5 Q328 736 348 736 Q371 736 382 721.5 Q393 707 393 686 Q393 649 366 614.5 Q339 580 289 546 L280 560 Z " />
<glyph glyph-name="Ldot" unicode="&#x13f;" horiz-adv-x="521" d="M-47 0 L-42 18 L38 18 L178 679 L96 679 L100 697 L367 697 L363 679 L263 679 L123 18 L171 18 Q240 18 288 30.5 Q336 43 367.5 63 Q399 83 415.5 108.5 Q432 134 440 160 L452 200 L465 200 L422 0 L-47 0 Z M399 359 Q399 335 381.5 315.5 Q364 296 336 296 Q316 296 303.5 309.5 Q291 323 291 343 Q291 370 308.5 388 Q326 406 355 406 Q375 406 387 392.5 Q399 379 399 359 Z " />
<glyph glyph-name="ldot" unicode="&#x140;" horiz-adv-x="330" d="M152 695 Q135 699 114 699.5 Q93 700 77 700 L80 712 L241 728 L122 171 Q114 136 108 102 Q102 68 102 53 Q102 27 124 27 Q136 27 149 37 Q162 47 172.5 60 Q183 73 191.5 86 Q200 99 203 106 L215 98 Q211 90 200 72 Q189 54 172 36 Q155 18 132.5 4.5 Q110 -9 83 -9 Q47 -9 34 10 Q21 29 21 53 Q21 71 26 99.5 Q31 128 39 162 L152 695 Z M332 364 Q332 340 314.5 320.5 Q297 301 269 301 Q249 301 236.5 314.5 Q224 328 224 348 Q224 375 241.5 393 Q259 411 288 411 Q308 411 320 397.5 Q332 384 332 364 Z " />
<glyph glyph-name="Lslash" unicode="&#x141;" horiz-adv-x="526" d="M-42 0 L-37 18 L43 18 L97 276 L19 250 L25 274 L102 299 L183 679 L101 679 L105 697 L372 697 L368 679 L268 679 L194 330 L369 388 L364 365 L188 306 L128 18 L176 18 Q245 18 293 30.5 Q341 43 372.5 63 Q404 83 420.5 108.5 Q437 134 445 160 L457 200 L470 200 L427 0 L-42 0 Z " />
<glyph glyph-name="lslash" unicode="&#x142;" horiz-adv-x="265" d="M0 290 L5 313 L77 342 L152 695 Q135 699 114 699.5 Q93 700 77 700 L80 712 L241 728 L167 379 L262 418 L257 395 L162 356 L122 171 Q114 136 108 102 Q102 68 102 53 Q102 27 124 27 Q136 27 149 37 Q162 47 172.5 60 Q183 73 191.5 86 Q200 99 203 106 L215 98 Q211 90 200 72 Q189 54 172 36 Q155 18 132.5 4.5 Q110 -9 83 -9 Q47 -9 34 10 Q21 29 21 53 Q21 71 26 99.5 Q31 128 39 162 L73 320 L0 290 Z " />
<glyph glyph-name="Nacute" unicode="&#x143;" horiz-adv-x="654" d="M100 697 L276 697 L492 154 L604 679 L523 679 L527 697 L713 697 L709 679 L627 679 L482 0 L459 0 L196 649 L62 18 L167 18 L163 0 L-47 0 L-42 18 L39 18 L178 679 L96 679 L100 697 Z M508 904 Q519 915 532 922.5 Q545 930 559 930 Q573 930 584.5 920.5 Q596 911 596 895 Q596 879 585.5 870.5 Q575 862 554 849 L395 756 L369 756 L508 904 Z " />
<glyph glyph-name="nacute" unicode="&#x144;" horiz-adv-x="523" d="M416 218 Q411 195 405 172 Q399 149 394.5 128 Q390 107 387 88.5 Q384 70 384 57 Q384 40 389 33.5 Q394 27 404 27 Q415 27 431 42 Q447 57 462 86 L474 81 Q448 32 419 11.5 Q390 -9 363 -9 Q327 -9 314.5 10.5 Q302 30 302 59 Q302 85 313 130 Q324 175 335 224 Q345 269 353.5 306 Q362 343 362 377 Q362 406 350.5 424.5 Q339 443 312 443 Q296 443 273 431 Q250 419 225.5 389.5 Q201 360 178 311.5 Q155 263 140 190 L100 0 L19 0 L110 433 Q93 437 72 437.5 Q51 438 35 438 L38 450 L199 466 L167 340 Q203 404 245.5 435 Q288 466 342 466 Q371 466 390 458 Q409 450 420.5 437 Q432 424 437 406.5 Q442 389 442 371 Q442 339 434.5 302.5 Q427 266 416 218 Z M381 664 Q392 675 405 682.5 Q418 690 432 690 Q446 690 457.5 680.5 Q469 671 469 655 Q469 639 458.5 630.5 Q448 622 427 609 L268 516 L242 516 L381 664 Z " />
<glyph glyph-name="Ncommaaccent" unicode="&#x145;" horiz-adv-x="654" d="M100 697 L276 697 L492 154 L604 679 L523 679 L527 697 L713 697 L709 679 L627 679 L482 0 L459 0 L196 649 L62 18 L167 18 L163 0 L-47 0 L-42 18 L39 18 L178 679 L96 679 L100 697 Z M229 -221 Q256 -200 267 -184 Q278 -168 278 -159 Q278 -155 272.5 -150.5 Q267 -146 260 -140 Q253 -134 247.5 -124.5 Q242 -115 242 -100 Q242 -72 259.5 -58.5 Q277 -45 297 -45 Q320 -45 331 -59.5 Q342 -74 342 -95 Q342 -132 315 -166.5 Q288 -201 238 -235 L229 -221 Z " />
<glyph glyph-name="ncommaaccent" unicode="&#x146;" horiz-adv-x="523" d="M416 218 Q411 195 405 172 Q399 149 394.5 128 Q390 107 387 88.5 Q384 70 384 57 Q384 40 389 33.5 Q394 27 404 27 Q415 27 431 42 Q447 57 462 86 L474 81 Q448 32 419 11.5 Q390 -9 363 -9 Q327 -9 314.5 10.5 Q302 30 302 59 Q302 85 313 130 Q324 175 335 224 Q345 269 353.5 306 Q362 343 362 377 Q362 406 350.5 424.5 Q339 443 312 443 Q296 443 273 431 Q250 419 225.5 389.5 Q201 360 178 311.5 Q155 263 140 190 L100 0 L19 0 L110 433 Q93 437 72 437.5 Q51 438 35 438 L38 450 L199 466 L167 340 Q203 404 245.5 435 Q288 466 342 466 Q371 466 390 458 Q409 450 420.5 437 Q432 424 437 406.5 Q442 389 442 371 Q442 339 434.5 302.5 Q427 266 416 218 Z M142 -221 Q169 -200 180 -184 Q191 -168 191 -159 Q191 -155 185.5 -150.5 Q180 -146 173 -140 Q166 -134 160.5 -124.5 Q155 -115 155 -100 Q155 -72 172.5 -58.5 Q190 -45 210 -45 Q233 -45 244 -59.5 Q255 -74 255 -95 Q255 -132 228 -166.5 Q201 -201 151 -235 L142 -221 Z " />
<glyph glyph-name="Ncaron" unicode="&#x147;" horiz-adv-x="654" d="M100 697 L276 697 L492 154 L604 679 L523 679 L527 697 L713 697 L709 679 L627 679 L482 0 L459 0 L196 649 L62 18 L167 18 L163 0 L-47 0 L-42 18 L39 18 L178 679 L96 679 L100 697 Z M586 926 L432 766 L402 766 L310 926 L329 938 L430 844 L571 940 L586 926 Z " />
<glyph glyph-name="ncaron" unicode="&#x148;" horiz-adv-x="523" d="M416 218 Q411 195 405 172 Q399 149 394.5 128 Q390 107 387 88.5 Q384 70 384 57 Q384 40 389 33.5 Q394 27 404 27 Q415 27 431 42 Q447 57 462 86 L474 81 Q448 32 419 11.5 Q390 -9 363 -9 Q327 -9 314.5 10.5 Q302 30 302 59 Q302 85 313 130 Q324 175 335 224 Q345 269 353.5 306 Q362 343 362 377 Q362 406 350.5 424.5 Q339 443 312 443 Q296 443 273 431 Q250 419 225.5 389.5 Q201 360 178 311.5 Q155 263 140 190 L100 0 L19 0 L110 433 Q93 437 72 437.5 Q51 438 35 438 L38 450 L199 466 L167 340 Q203 404 245.5 435 Q288 466 342 466 Q371 466 390 458 Q409 450 420.5 437 Q432 424 437 406.5 Q442 389 442 371 Q442 339 434.5 302.5 Q427 266 416 218 Z M469 676 L315 516 L285 516 L193 676 L212 688 L313 594 L454 690 L469 676 Z " />
<glyph glyph-name="Omacron" unicode="&#x14c;" horiz-adv-x="658" d="M404 708 Q457 708 498.5 687.5 Q540 667 568.5 631 Q597 595 612 545.5 Q627 496 627 438 Q627 365 603.5 286 Q580 207 534 141.5 Q488 76 420 33.5 Q352 -9 264 -9 Q211 -9 169 9 Q127 27 98 60.5 Q69 94 54 141.5 Q39 189 39 248 Q39 326 66 407.5 Q93 489 141.5 556 Q190 623 257 665.5 Q324 708 404 708 Z M269 10 Q310 10 345.5 31.5 Q381 53 410 89 Q439 125 461 173.5 Q483 222 498 275.5 Q513 329 521 385.5 Q529 442 529 494 Q529 585 498.5 637.5 Q468 690 400 690 Q340 690 292 647 Q244 604 209.5 535.5 Q175 467 156.5 382 Q138 297 138 213 Q138 119 170.5 64.5 Q203 10 269 10 Z M281 796 L294 850 L569 850 L556 796 L281 796 Z " />
<glyph glyph-name="omacron" unicode="&#x14d;" horiz-adv-x="490" d="M275 466 Q315 466 344.5 453.5 Q374 441 393.5 418.5 Q413 396 423 365 Q433 334 433 297 Q433 239 414.5 184 Q396 129 363 86 Q330 43 284 17 Q238 -9 182 -9 Q142 -9 113 5 Q84 19 64.5 43.5 Q45 68 35.5 100.5 Q26 133 26 170 Q26 225 44 278.5 Q62 332 94.5 373.5 Q127 415 173 440.5 Q219 466 275 466 Z M186 8 Q228 8 257.5 38.5 Q287 69 306.5 114.5 Q326 160 335 213.5 Q344 267 344 313 Q344 383 325 416.5 Q306 450 271 450 Q239 450 210.5 423.5 Q182 397 160.5 353 Q139 309 126 252.5 Q113 196 113 137 Q113 80 129 44 Q145 8 186 8 Z M142 546 L155 600 L430 600 L417 546 L142 546 Z " />
<glyph glyph-name="Obreve" unicode="&#x14e;" horiz-adv-x="658" d="M404 708 Q457 708 498.5 687.5 Q540 667 568.5 631 Q597 595 612 545.5 Q627 496 627 438 Q627 365 603.5 286 Q580 207 534 141.5 Q488 76 420 33.5 Q352 -9 264 -9 Q211 -9 169 9 Q127 27 98 60.5 Q69 94 54 141.5 Q39 189 39 248 Q39 326 66 407.5 Q93 489 141.5 556 Q190 623 257 665.5 Q324 708 404 708 Z M269 10 Q310 10 345.5 31.5 Q381 53 410 89 Q439 125 461 173.5 Q483 222 498 275.5 Q513 329 521 385.5 Q529 442 529 494 Q529 585 498.5 637.5 Q468 690 400 690 Q340 690 292 647 Q244 604 209.5 535.5 Q175 467 156.5 382 Q138 297 138 213 Q138 119 170.5 64.5 Q203 10 269 10 Z M439 836 Q468 836 490.5 844.5 Q513 853 529.5 866.5 Q546 880 556.5 896.5 Q567 913 570 928 L594 928 Q588 903 575 875.5 Q562 848 541 824.5 Q520 801 491.5 786 Q463 771 428 771 Q397 771 375.5 782.5 Q354 794 340.5 813 Q327 832 321 855.5 Q315 879 315 902 Q315 909 315.5 915.5 Q316 922 317 928 L341 928 Q340 924 340 917 Q340 903 345.5 888.5 Q351 874 363 862.5 Q375 851 394 843.5 Q413 836 439 836 Z " />
<glyph glyph-name="obreve" unicode="&#x14f;" horiz-adv-x="490" d="M275 466 Q315 466 344.5 453.5 Q374 441 393.5 418.5 Q413 396 423 365 Q433 334 433 297 Q433 239 414.5 184 Q396 129 363 86 Q330 43 284 17 Q238 -9 182 -9 Q142 -9 113 5 Q84 19 64.5 43.5 Q45 68 35.5 100.5 Q26 133 26 170 Q26 225 44 278.5 Q62 332 94.5 373.5 Q127 415 173 440.5 Q219 466 275 466 Z M186 8 Q228 8 257.5 38.5 Q287 69 306.5 114.5 Q326 160 335 213.5 Q344 267 344 313 Q344 383 325 416.5 Q306 450 271 450 Q239 450 210.5 423.5 Q182 397 160.5 353 Q139 309 126 252.5 Q113 196 113 137 Q113 80 129 44 Q145 8 186 8 Z M303 586 Q332 586 354.5 594.5 Q377 603 393.5 616.5 Q410 630 420.5 646.5 Q431 663 434 678 L458 678 Q452 653 439 625.5 Q426 598 405 574.5 Q384 551 355.5 536 Q327 521 292 521 Q261 521 239.5 532.5 Q218 544 204.5 563 Q191 582 185 605.5 Q179 629 179 652 Q179 659 179.5 665.5 Q180 672 181 678 L205 678 Q204 674 204 667 Q204 653 209.5 638.5 Q215 624 227 612.5 Q239 601 258 593.5 Q277 586 303 586 Z " />
<glyph glyph-name="Ohungarumlaut" unicode="&#x150;" horiz-adv-x="658" d="M404 708 Q457 708 498.5 687.5 Q540 667 568.5 631 Q597 595 612 545.5 Q627 496 627 438 Q627 365 603.5 286 Q580 207 534 141.5 Q488 76 420 33.5 Q352 -9 264 -9 Q211 -9 169 9 Q127 27 98 60.5 Q69 94 54 141.5 Q39 189 39 248 Q39 326 66 407.5 Q93 489 141.5 556 Q190 623 257 665.5 Q324 708 404 708 Z M269 10 Q310 10 345.5 31.5 Q381 53 410 89 Q439 125 461 173.5 Q483 222 498 275.5 Q513 329 521 385.5 Q529 442 529 494 Q529 585 498.5 637.5 Q468 690 400 690 Q340 690 292 647 Q244 604 209.5 535.5 Q175 467 156.5 382 Q138 297 138 213 Q138 119 170.5 64.5 Q203 10 269 10 Z M413 904 Q423 915 434 922.5 Q445 930 457 930 Q469 930 479.5 920.5 Q490 911 490 895 Q490 881 480.5 871.5 Q471 862 453 849 L315 756 L292 756 L413 904 Z M558 904 Q568 915 579 922.5 Q590 930 603 930 Q614 930 624.5 920.5 Q635 911 635 895 Q635 879 626 870.5 Q617 862 598 849 L460 756 L437 756 L558 904 Z " />
<glyph glyph-name="ohungarumlaut" unicode="&#x151;" horiz-adv-x="490" d="M275 466 Q315 466 344.5 453.5 Q374 441 393.5 418.5 Q413 396 423 365 Q433 334 433 297 Q433 239 414.5 184 Q396 129 363 86 Q330 43 284 17 Q238 -9 182 -9 Q142 -9 113 5 Q84 19 64.5 43.5 Q45 68 35.5 100.5 Q26 133 26 170 Q26 225 44 278.5 Q62 332 94.5 373.5 Q127 415 173 440.5 Q219 466 275 466 Z M186 8 Q228 8 257.5 38.5 Q287 69 306.5 114.5 Q326 160 335 213.5 Q344 267 344 313 Q344 383 325 416.5 Q306 450 271 450 Q239 450 210.5 423.5 Q182 397 160.5 353 Q139 309 126 252.5 Q113 196 113 137 Q113 80 129 44 Q145 8 186 8 Z M264 664 Q274 675 285 682.5 Q296 690 308 690 Q320 690 330.5 680.5 Q341 671 341 655 Q341 641 331.5 631.5 Q322 622 304 609 L166 516 L143 516 L264 664 Z M409 664 Q419 675 430 682.5 Q441 690 454 690 Q465 690 475.5 680.5 Q486 671 486 655 Q486 639 477 630.5 Q468 622 449 609 L311 516 L288 516 L409 664 Z " />
<glyph glyph-name="OE" unicode="&#x152;" horiz-adv-x="947" d="M836 697 Q903 697 932 669.5 Q961 642 961 606 Q961 581 953 562 Q945 543 931.5 530.5 Q918 518 901 511.5 Q884 505 866 505 Q847 505 837 511.5 Q827 518 822 525 L923 638 Q909 661 889 670 Q869 679 832 679 L660 679 L592 359 L794 359 L789 340 L588 340 L520 18 L610 18 Q721 18 782.5 55.5 Q844 93 864 153 L871 175 L883 175 L842 0 L431 0 L451 67 Q434 51 415 37 Q396 23 373.5 13 Q351 3 324 -3 Q297 -9 264 -9 Q211 -9 169 9 Q127 27 98 60.5 Q69 94 54 141.5 Q39 189 39 248 Q39 326 66 408 Q93 490 141.5 556.5 Q190 623 257 665.5 Q324 708 405 708 Q467 708 504 685 Q541 662 564 621 L576 697 L836 697 Z M269 10 Q313 10 349 33 Q385 56 414 94 Q443 132 464.5 181.5 Q486 231 500.5 285 Q515 339 522 392.5 Q529 446 529 493 Q529 550 518.5 587.5 Q508 625 490 647.5 Q472 670 448.5 679.5 Q425 689 400 689 Q359 689 324 668.5 Q289 648 260 613 Q231 578 208.5 531.5 Q186 485 170 432 Q154 379 146 323 Q138 267 138 213 Q138 119 170.5 64.5 Q203 10 269 10 Z " />
<glyph glyph-name="oe" unicode="&#x153;" horiz-adv-x="723" d="M504 13 Q532 13 556 24 Q580 35 598 51 Q616 67 628.5 85 Q641 103 647 117 L658 109 Q650 91 636 70.5 Q622 50 600.5 32.5 Q579 15 549 3 Q519 -9 477 -9 Q437 -9 403.5 9.5 Q370 28 350 70 Q318 34 275.5 12.5 Q233 -9 182 -9 Q142 -9 113 5 Q84 19 64.5 44 Q45 69 35.5 102 Q26 135 26 174 Q26 223 43 274.5 Q60 326 92 368.5 Q124 411 170 438.5 Q216 466 275 466 Q327 466 360.5 444 Q394 422 412 384 Q446 421 490 443.5 Q534 466 583 466 Q646 466 674.5 440.5 Q703 415 703 377 Q703 353 690.5 329 Q678 305 653.5 285.5 Q629 266 593.5 253.5 Q558 241 512 241 Q489 241 468.5 243 Q448 245 431 252 Q424 222 420.5 195 Q417 168 417 148 Q417 120 420.5 95.5 Q424 71 434 52.5 Q444 34 461 23.5 Q478 13 504 13 Z M186 8 Q215 8 238.5 23.5 Q262 39 279.5 64.5 Q297 90 309.5 122.5 Q322 155 329.5 189 Q337 223 340.5 255.5 Q344 288 344 313 Q344 383 325 416.5 Q306 450 271 450 Q238 450 209.5 422 Q181 394 159.5 349.5 Q138 305 125.5 249 Q113 193 113 137 Q113 80 129 44 Q145 8 186 8 Z M578 452 Q550 452 527.5 435.5 Q505 419 487 393 Q469 367 456 334.5 Q443 302 434 269 Q451 264 466.5 262.5 Q482 261 496 261 Q528 261 552.5 273 Q577 285 593.5 303 Q610 321 618 343 Q626 365 626 386 Q626 415 614 433.5 Q602 452 578 452 Z " />
<glyph glyph-name="Racute" unicode="&#x154;" horiz-adv-x="603" d="M83 664 Q133 684 191 696 Q249 708 306 708 Q430 708 494 665 Q558 622 558 546 Q558 500 539 467 Q520 434 491.5 411 Q463 388 428.5 375 Q394 362 364 357 Q387 354 405 346.5 Q423 339 436 322.5 Q449 306 457 279 Q465 252 469 209 L476 127 Q481 74 493 55.5 Q505 37 522 37 Q547 37 566 66 L576 55 Q559 27 536 9 Q513 -9 480 -9 Q434 -9 411.5 23.5 Q389 56 383 131 L377 207 Q374 247 368 273 Q362 299 349.5 315 Q337 331 315.5 337.5 Q294 344 261 344 L196 344 L128 18 L209 18 L205 0 L-43 0 L-38 18 L43 18 L153 535 Q162 579 175 615 Q188 651 213 678 Q178 673 147.5 665 Q117 657 90 646 L83 664 Z M461 550 Q461 583 448 608 Q435 633 411.5 650 Q388 667 356 675.5 Q324 684 287 684 L269 684 L200 362 L245 362 Q308 362 349.5 377 Q391 392 415.5 417.5 Q440 443 450.5 477 Q461 511 461 550 Z M418 904 Q429 915 442 922.5 Q455 930 469 930 Q483 930 494.5 920.5 Q506 911 506 895 Q506 879 495.5 870.5 Q485 862 464 849 L305 756 L279 756 L418 904 Z " />
<glyph glyph-name="racute" unicode="&#x155;" horiz-adv-x="408" d="M110 433 Q93 437 72 437.5 Q51 438 35 438 L38 450 L199 466 L161 306 Q235 466 334 466 Q372 466 390 448.5 Q408 431 408 406 Q408 380 391.5 361.5 Q375 343 349 343 Q334 343 319 349.5 Q304 356 296 372 L350 442 Q336 448 324 448 Q297 448 268 424 Q239 400 213.5 360.5 Q188 321 167.5 271 Q147 221 136 168 L101 0 L18 0 L110 433 Z M323 664 Q334 675 347 682.5 Q360 690 374 690 Q388 690 399.5 680.5 Q411 671 411 655 Q411 639 400.5 630.5 Q390 622 369 609 L210 516 L184 516 L323 664 Z " />
<glyph glyph-name="Rcommaaccent" unicode="&#x156;" horiz-adv-x="603" d="M83 664 Q133 684 191 696 Q249 708 306 708 Q430 708 494 665 Q558 622 558 546 Q558 500 539 467 Q520 434 491.5 411 Q463 388 428.5 375 Q394 362 364 357 Q387 354 405 346.5 Q423 339 436 322.5 Q449 306 457 279 Q465 252 469 209 L476 127 Q481 74 493 55.5 Q505 37 522 37 Q547 37 566 66 L576 55 Q559 27 536 9 Q513 -9 480 -9 Q434 -9 411.5 23.5 Q389 56 383 131 L377 207 Q374 247 368 273 Q362 299 349.5 315 Q337 331 315.5 337.5 Q294 344 261 344 L196 344 L128 18 L209 18 L205 0 L-43 0 L-38 18 L43 18 L153 535 Q162 579 175 615 Q188 651 213 678 Q178 673 147.5 665 Q117 657 90 646 L83 664 Z M461 550 Q461 583 448 608 Q435 633 411.5 650 Q388 667 356 675.5 Q324 684 287 684 L269 684 L200 362 L245 362 Q308 362 349.5 377 Q391 392 415.5 417.5 Q440 443 450.5 477 Q461 511 461 550 Z M225 -221 Q252 -200 263 -184 Q274 -168 274 -159 Q274 -155 268.5 -150.5 Q263 -146 256 -140 Q249 -134 243.5 -124.5 Q238 -115 238 -100 Q238 -72 255.5 -58.5 Q273 -45 293 -45 Q316 -45 327 -59.5 Q338 -74 338 -95 Q338 -132 311 -166.5 Q284 -201 234 -235 L225 -221 Z " />
<glyph glyph-name="rcommaaccent" unicode="&#x157;" horiz-adv-x="408" d="M110 433 Q93 437 72 437.5 Q51 438 35 438 L38 450 L199 466 L161 306 Q235 466 334 466 Q372 466 390 448.5 Q408 431 408 406 Q408 380 391.5 361.5 Q375 343 349 343 Q334 343 319 349.5 Q304 356 296 372 L350 442 Q336 448 324 448 Q297 448 268 424 Q239 400 213.5 360.5 Q188 321 167.5 271 Q147 221 136 168 L101 0 L18 0 L110 433 Z M-18 -221 Q9 -200 20 -184 Q31 -168 31 -159 Q31 -155 25.5 -150.5 Q20 -146 13 -140 Q6 -134 0.5 -124.5 Q-5 -115 -5 -100 Q-5 -72 12.5 -58.5 Q30 -45 50 -45 Q73 -45 84 -59.5 Q95 -74 95 -95 Q95 -132 68 -166.5 Q41 -201 -9 -235 L-18 -221 Z " />
<glyph glyph-name="Rcaron" unicode="&#x158;" horiz-adv-x="603" d="M83 664 Q133 684 191 696 Q249 708 306 708 Q430 708 494 665 Q558 622 558 546 Q558 500 539 467 Q520 434 491.5 411 Q463 388 428.5 375 Q394 362 364 357 Q387 354 405 346.5 Q423 339 436 322.5 Q449 306 457 279 Q465 252 469 209 L476 127 Q481 74 493 55.5 Q505 37 522 37 Q547 37 566 66 L576 55 Q559 27 536 9 Q513 -9 480 -9 Q434 -9 411.5 23.5 Q389 56 383 131 L377 207 Q374 247 368 273 Q362 299 349.5 315 Q337 331 315.5 337.5 Q294 344 261 344 L196 344 L128 18 L209 18 L205 0 L-43 0 L-38 18 L43 18 L153 535 Q162 579 175 615 Q188 651 213 678 Q178 673 147.5 665 Q117 657 90 646 L83 664 Z M461 550 Q461 583 448 608 Q435 633 411.5 650 Q388 667 356 675.5 Q324 684 287 684 L269 684 L200 362 L245 362 Q308 362 349.5 377 Q391 392 415.5 417.5 Q440 443 450.5 477 Q461 511 461 550 Z M526 926 L372 766 L342 766 L250 926 L269 938 L370 844 L511 940 L526 926 Z " />
<glyph glyph-name="rcaron" unicode="&#x159;" horiz-adv-x="408" d="M110 433 Q93 437 72 437.5 Q51 438 35 438 L38 450 L199 466 L161 306 Q235 466 334 466 Q372 466 390 448.5 Q408 431 408 406 Q408 380 391.5 361.5 Q375 343 349 343 Q334 343 319 349.5 Q304 356 296 372 L350 442 Q336 448 324 448 Q297 448 268 424 Q239 400 213.5 360.5 Q188 321 167.5 271 Q147 221 136 168 L101 0 L18 0 L110 433 Z M411 676 L257 516 L227 516 L135 676 L154 688 L255 594 L396 690 L411 676 Z " />
<glyph glyph-name="Sacute" unicode="&#x15a;" horiz-adv-x="521" d="M96 515 Q96 551 111 586 Q126 621 156 648 Q186 675 230.5 691.5 Q275 708 334 708 Q373 708 403.5 698 Q434 688 455 670.5 Q476 653 487.5 630 Q499 607 499 582 Q499 546 476.5 518 Q454 490 415 490 Q389 490 377.5 499 Q366 508 361 516 L468 622 Q448 653 415 670 Q382 687 334 687 Q299 687 270.5 677 Q242 667 221.5 649.5 Q201 632 189.5 608.5 Q178 585 178 559 Q178 532 188 510.5 Q198 489 215 471.5 Q232 454 253.5 439 Q275 424 299 409 Q326 392 353 374 Q380 356 401 333.5 Q422 311 435.5 282 Q449 253 449 214 Q449 161 429 119.5 Q409 78 374.5 49.5 Q340 21 293.5 6 Q247 -9 195 -9 Q153 -9 120.5 2.5 Q88 14 65.5 32.5 Q43 51 31.5 75.5 Q20 100 20 126 Q20 166 42.5 194.5 Q65 223 105 223 Q129 223 140.5 214 Q152 205 156 197 L51 89 Q71 52 108.5 32 Q146 12 199 12 Q233 12 264 21 Q295 30 317.5 49.5 Q340 69 353.5 99 Q367 129 367 170 Q367 198 356 220.5 Q345 243 326.5 261.5 Q308 280 284 295.5 Q260 311 235 327 Q209 343 184 360.5 Q159 378 139.5 400 Q120 422 108 450 Q96 478 96 515 Z M394 904 Q405 915 418 922.5 Q431 930 445 930 Q459 930 470.5 920.5 Q482 911 482 895 Q482 879 471.5 870.5 Q461 862 440 849 L281 756 L255 756 L394 904 Z " />
<glyph glyph-name="sacute" unicode="&#x15b;" horiz-adv-x="376" d="M219 452 Q171 452 145.5 428 Q120 404 120 372 Q120 352 130 336.5 Q140 321 156 307.5 Q172 294 191.5 281.5 Q211 269 230 255 Q259 233 281 205.5 Q303 178 303 134 Q303 96 288 69 Q273 42 249 24.5 Q225 7 195 -1 Q165 -9 135 -9 Q74 -9 34 14 Q-6 37 -6 80 Q-6 106 12 124 Q30 142 56 142 Q88 142 106 114 L38 39 Q51 25 72.5 15 Q94 5 124 5 Q145 5 164 11 Q183 17 198 28.5 Q213 40 222 57 Q231 74 231 97 Q231 119 224.5 135 Q218 151 206.5 164 Q195 177 180 187.5 Q165 198 149 209 Q130 221 112 233.5 Q94 246 80.5 260 Q67 274 58.5 291.5 Q50 309 50 331 Q50 365 65.5 390 Q81 415 105 432 Q129 449 159 457.5 Q189 466 218 466 Q240 466 260 461 Q280 456 296 446.5 Q312 437 321.5 422 Q331 407 331 387 Q331 364 317.5 347.5 Q304 331 279 331 Q264 331 249 337.5 Q234 344 225 360 L287 425 Q276 439 256.5 445.5 Q237 452 219 452 Z M281 664 Q292 675 305 682.5 Q318 690 332 690 Q346 690 357.5 680.5 Q369 671 369 655 Q369 639 358.5 630.5 Q348 622 327 609 L168 516 L142 516 L281 664 Z " />
<glyph glyph-name="Scircumflex" unicode="&#x15c;" horiz-adv-x="521" d="M96 515 Q96 551 111 586 Q126 621 156 648 Q186 675 230.5 691.5 Q275 708 334 708 Q373 708 403.5 698 Q434 688 455 670.5 Q476 653 487.5 630 Q499 607 499 582 Q499 546 476.5 518 Q454 490 415 490 Q389 490 377.5 499 Q366 508 361 516 L468 622 Q448 653 415 670 Q382 687 334 687 Q299 687 270.5 677 Q242 667 221.5 649.5 Q201 632 189.5 608.5 Q178 585 178 559 Q178 532 188 510.5 Q198 489 215 471.5 Q232 454 253.5 439 Q275 424 299 409 Q326 392 353 374 Q380 356 401 333.5 Q422 311 435.5 282 Q449 253 449 214 Q449 161 429 119.5 Q409 78 374.5 49.5 Q340 21 293.5 6 Q247 -9 195 -9 Q153 -9 120.5 2.5 Q88 14 65.5 32.5 Q43 51 31.5 75.5 Q20 100 20 126 Q20 166 42.5 194.5 Q65 223 105 223 Q129 223 140.5 214 Q152 205 156 197 L51 89 Q71 52 108.5 32 Q146 12 199 12 Q233 12 264 21 Q295 30 317.5 49.5 Q340 69 353.5 99 Q367 129 367 170 Q367 198 356 220.5 Q345 243 326.5 261.5 Q308 280 284 295.5 Q260 311 235 327 Q209 343 184 360.5 Q159 378 139.5 400 Q120 422 108 450 Q96 478 96 515 Z M446 749 L338 845 L194 751 L180 763 L337 923 L368 923 L466 763 L446 749 Z " />
<glyph glyph-name="scircumflex" unicode="&#x15d;" horiz-adv-x="376" d="M219 452 Q171 452 145.5 428 Q120 404 120 372 Q120 352 130 336.5 Q140 321 156 307.5 Q172 294 191.5 281.5 Q211 269 230 255 Q259 233 281 205.5 Q303 178 303 134 Q303 96 288 69 Q273 42 249 24.5 Q225 7 195 -1 Q165 -9 135 -9 Q74 -9 34 14 Q-6 37 -6 80 Q-6 106 12 124 Q30 142 56 142 Q88 142 106 114 L38 39 Q51 25 72.5 15 Q94 5 124 5 Q145 5 164 11 Q183 17 198 28.5 Q213 40 222 57 Q231 74 231 97 Q231 119 224.5 135 Q218 151 206.5 164 Q195 177 180 187.5 Q165 198 149 209 Q130 221 112 233.5 Q94 246 80.5 260 Q67 274 58.5 291.5 Q50 309 50 331 Q50 365 65.5 390 Q81 415 105 432 Q129 449 159 457.5 Q189 466 218 466 Q240 466 260 461 Q280 456 296 446.5 Q312 437 321.5 422 Q331 407 331 387 Q331 364 317.5 347.5 Q304 331 279 331 Q264 331 249 337.5 Q234 344 225 360 L287 425 Q276 439 256.5 445.5 Q237 452 219 452 Z M343 514 L235 610 L91 516 L77 528 L234 688 L265 688 L363 528 L343 514 Z " />
<glyph glyph-name="Scedilla" unicode="&#x15e;" horiz-adv-x="521" d="M96 515 Q96 551 111 586 Q126 621 156 648 Q186 675 230.5 691.5 Q275 708 334 708 Q373 708 403.5 698 Q434 688 455 670.5 Q476 653 487.5 630 Q499 607 499 582 Q499 546 476.5 518 Q454 490 415 490 Q389 490 377.5 499 Q366 508 361 516 L468 622 Q448 653 415 670 Q382 687 334 687 Q299 687 270.5 677 Q242 667 221.5 649.5 Q201 632 189.5 608.5 Q178 585 178 559 Q178 520 198 492.5 Q218 465 248 443 Q278 421 313.5 400 Q349 379 379 354 Q409 329 429 295.5 Q449 262 449 214 Q449 164 431.5 125 Q414 86 383.5 58 Q353 30 311.5 13.5 Q270 -3 223 -7 L185 -80 Q190 -78 200 -76.5 Q210 -75 224 -75 Q260 -75 279.5 -92.5 Q299 -110 299 -135 Q299 -159 289 -176.5 Q279 -194 262.5 -206 Q246 -218 225.5 -224 Q205 -230 184 -230 Q151 -230 130 -216.5 Q109 -203 109 -183 Q109 -166 118.5 -157.5 Q128 -149 141 -149 Q152 -149 159 -153 Q166 -157 169 -162 L129 -199 Q132 -204 141.5 -209 Q151 -214 165 -214 Q188 -214 209.5 -197 Q231 -180 231 -142 Q231 -120 221.5 -106.5 Q212 -93 190 -93 Q179 -93 172.5 -95 Q166 -97 159 -100 L151 -95 L198 -9 Q155 -9 121.5 2.5 Q88 14 65.5 32.5 Q43 51 31.5 75.5 Q20 100 20 126 Q20 166 42.5 194.5 Q65 223 105 223 Q129 223 140.5 214 Q152 205 156 197 L51 89 Q71 52 108.5 32 Q146 12 199 12 Q233 12 264 21 Q295 30 317.5 49.5 Q340 69 353.5 99 Q367 129 367 170 Q367 209 347 236.5 Q327 264 297 286 Q267 308 231.5 328.5 Q196 349 166 374 Q136 399 116 432.5 Q96 466 96 515 Z " />
<glyph glyph-name="scedilla" unicode="&#x15f;" horiz-adv-x="376" d="M219 452 Q171 452 145.5 428 Q120 404 120 372 Q120 352 130 336.5 Q140 321 156 307.5 Q172 294 191.5 281.5 Q211 269 230 255 Q259 233 281 205.5 Q303 178 303 134 Q303 96 288 69.5 Q273 43 249.5 25.5 Q226 8 196.5 -0.5 Q167 -9 138 -9 L101 -80 Q106 -78 116 -76.5 Q126 -75 140 -75 Q176 -75 195.5 -92.5 Q215 -110 215 -135 Q215 -159 205 -176.5 Q195 -194 178.5 -206 Q162 -218 141.5 -224 Q121 -230 100 -230 Q67 -230 46 -216.5 Q25 -203 25 -183 Q25 -166 34.5 -157.5 Q44 -149 57 -149 Q68 -149 75 -153 Q82 -157 85 -162 L45 -199 Q48 -204 57.5 -209 Q67 -214 81 -214 Q104 -214 125.5 -197 Q147 -180 147 -142 Q147 -120 137.5 -106.5 Q128 -93 106 -93 Q95 -93 88.5 -95 Q82 -97 75 -100 L67 -95 L114 -8 Q61 -4 27.5 18.5 Q-6 41 -6 80 Q-6 106 12 124 Q30 142 56 142 Q88 142 106 114 L38 39 Q51 25 72.5 15 Q94 5 124 5 Q145 5 164 11 Q183 17 198 28.5 Q213 40 222 57 Q231 74 231 97 Q231 119 224.5 135 Q218 151 206.5 164 Q195 177 180 187.5 Q165 198 149 209 Q130 221 112 233.5 Q94 246 80.5 260 Q67 274 58.5 291.5 Q50 309 50 331 Q50 365 65.5 390 Q81 415 105 432 Q129 449 159 457.5 Q189 466 218 466 Q240 466 260 461 Q280 456 296 446.5 Q312 437 321.5 422 Q331 407 331 387 Q331 364 317.5 347.5 Q304 331 279 331 Q264 331 249 337.5 Q234 344 225 360 L287 425 Q276 439 256.5 445.5 Q237 452 219 452 Z " />
<glyph glyph-name="Scaron" unicode="&#x160;" horiz-adv-x="521" d="M96 515 Q96 551 111 586 Q126 621 156 648 Q186 675 230.5 691.5 Q275 708 334 708 Q373 708 403.5 698 Q434 688 455 670.5 Q476 653 487.5 630 Q499 607 499 582 Q499 546 476.5 518 Q454 490 415 490 Q389 490 377.5 499 Q366 508 361 516 L468 622 Q448 653 415 670 Q382 687 334 687 Q299 687 270.5 677 Q242 667 221.5 649.5 Q201 632 189.5 608.5 Q178 585 178 559 Q178 532 188 510.5 Q198 489 215 471.5 Q232 454 253.5 439 Q275 424 299 409 Q326 392 353 374 Q380 356 401 333.5 Q422 311 435.5 282 Q449 253 449 214 Q449 161 429 119.5 Q409 78 374.5 49.5 Q340 21 293.5 6 Q247 -9 195 -9 Q153 -9 120.5 2.5 Q88 14 65.5 32.5 Q43 51 31.5 75.5 Q20 100 20 126 Q20 166 42.5 194.5 Q65 223 105 223 Q129 223 140.5 214 Q152 205 156 197 L51 89 Q71 52 108.5 32 Q146 12 199 12 Q233 12 264 21 Q295 30 317.5 49.5 Q340 69 353.5 99 Q367 129 367 170 Q367 198 356 220.5 Q345 243 326.5 261.5 Q308 280 284 295.5 Q260 311 235 327 Q209 343 184 360.5 Q159 378 139.5 400 Q120 422 108 450 Q96 478 96 515 Z M491 926 L337 766 L307 766 L215 926 L234 938 L335 844 L476 940 L491 926 Z " />
<glyph glyph-name="scaron" unicode="&#x161;" horiz-adv-x="376" d="M219 452 Q171 452 145.5 428 Q120 404 120 372 Q120 352 130 336.5 Q140 321 156 307.5 Q172 294 191.5 281.5 Q211 269 230 255 Q259 233 281 205.5 Q303 178 303 134 Q303 96 288 69 Q273 42 249 24.5 Q225 7 195 -1 Q165 -9 135 -9 Q74 -9 34 14 Q-6 37 -6 80 Q-6 106 12 124 Q30 142 56 142 Q88 142 106 114 L38 39 Q51 25 72.5 15 Q94 5 124 5 Q145 5 164 11 Q183 17 198 28.5 Q213 40 222 57 Q231 74 231 97 Q231 119 224.5 135 Q218 151 206.5 164 Q195 177 180 187.5 Q165 198 149 209 Q130 221 112 233.5 Q94 246 80.5 260 Q67 274 58.5 291.5 Q50 309 50 331 Q50 365 65.5 390 Q81 415 105 432 Q129 449 159 457.5 Q189 466 218 466 Q240 466 260 461 Q280 456 296 446.5 Q312 437 321.5 422 Q331 407 331 387 Q331 364 317.5 347.5 Q304 331 279 331 Q264 331 249 337.5 Q234 344 225 360 L287 425 Q276 439 256.5 445.5 Q237 452 219 452 Z M373 676 L219 516 L189 516 L97 676 L116 688 L217 594 L358 690 L373 676 Z " />
<glyph glyph-name="uni0162" unicode="&#x162;" horiz-adv-x="588" d="M70 489 L112 697 L633 697 L592 489 L574 489 L574 534 Q574 603 546 641 Q518 679 452 679 L411 679 L271 18 L353 18 L348 0 L100 0 L104 18 L186 18 L326 679 L289 679 Q221 679 174.5 646 Q128 613 103 532 L90 489 L70 489 Z M149 -221 Q176 -200 187 -184 Q198 -168 198 -159 Q198 -155 192.5 -150.5 Q187 -146 180 -140 Q173 -134 167.5 -124.5 Q162 -115 162 -100 Q162 -72 179.5 -58.5 Q197 -45 217 -45 Q240 -45 251 -59.5 Q262 -74 262 -95 Q262 -132 235 -166.5 Q208 -201 158 -235 L149 -221 Z " />
<glyph glyph-name="uni0163" unicode="&#x163;" horiz-adv-x="308" d="M250 53 Q225 22 191 6.5 Q157 -9 120 -9 Q104 -9 89 -4.5 Q74 0 62 11 Q50 22 42.5 39.5 Q35 57 35 84 Q35 106 41 136 L105 441 L40 441 L43 457 L78 457 Q98 457 118 470 Q138 483 155.5 501 Q173 519 185 539 Q197 559 201 574 L206 589 L219 589 L191 457 L319 457 L316 441 L188 441 L117 111 Q113 94 113 77 Q113 48 125.5 35 Q138 22 157 22 Q179 22 202 33.5 Q225 45 239 62 L250 53 Z M38 -221 Q65 -200 76 -184 Q87 -168 87 -159 Q87 -155 81.5 -150.5 Q76 -146 69 -140 Q62 -134 56.5 -124.5 Q51 -115 51 -100 Q51 -72 68.5 -58.5 Q86 -45 106 -45 Q129 -45 140 -59.5 Q151 -74 151 -95 Q151 -132 124 -166.5 Q97 -201 47 -235 L38 -221 Z " />
<glyph glyph-name="Tcaron" unicode="&#x164;" horiz-adv-x="588" d="M70 489 L112 697 L633 697 L592 489 L574 489 L574 534 Q574 603 546 641 Q518 679 452 679 L411 679 L271 18 L353 18 L348 0 L100 0 L104 18 L186 18 L326 679 L289 679 Q221 679 174.5 646 Q128 613 103 532 L90 489 L70 489 Z M549 926 L395 766 L365 766 L273 926 L292 938 L393 844 L534 940 L549 926 Z " />
<glyph glyph-name="tcaron" unicode="&#x165;" horiz-adv-x="308" d="M250 53 Q225 22 191 6.5 Q157 -9 120 -9 Q104 -9 89 -4.5 Q74 0 62 11 Q50 22 42.5 39.5 Q35 57 35 84 Q35 106 41 136 L105 441 L40 441 L43 457 L78 457 Q98 457 118 470 Q138 483 155.5 501 Q173 519 185 539 Q197 559 201 574 L206 589 L219 589 L191 457 L319 457 L316 441 L188 441 L117 111 Q113 94 113 77 Q113 48 125.5 35 Q138 22 157 22 Q179 22 202 33.5 Q225 45 239 62 L250 53 Z M273 560 Q300 581 311 597 Q322 613 322 622 Q322 626 316.5 630.5 Q311 635 304 641 Q297 647 291.5 656.5 Q286 666 286 681 Q286 709 303.5 722.5 Q321 736 341 736 Q364 736 375 721.5 Q386 707 386 686 Q386 649 359 614.5 Q332 580 282 546 L273 560 Z " />
<glyph glyph-name="Tbar" unicode="&#x166;" horiz-adv-x="588" d="M70 489 L112 697 L633 697 L592 489 L574 489 L574 534 Q574 603 546 641 Q518 679 452 679 L411 679 L342 355 L481 355 L477 338 L339 338 L271 18 L353 18 L348 0 L100 0 L104 18 L186 18 L254 338 L121 338 L125 355 L257 355 L326 679 L289 679 Q221 679 174.5 646 Q128 613 103 532 L90 489 L70 489 Z " />
<glyph glyph-name="tbar" unicode="&#x167;" horiz-adv-x="308" d="M250 53 Q225 22 191 6.5 Q157 -9 120 -9 Q104 -9 89 -4.5 Q74 0 62 11 Q50 22 42.5 39.5 Q35 57 35 84 Q35 106 41 136 L62 236 L18 236 L22 257 L67 257 L105 441 L45 441 L48 457 L78 457 Q98 457 118 470 Q138 483 154.5 501.5 Q171 520 183.5 540 Q196 560 201 574 L206 589 L219 589 L191 457 L299 457 L296 441 L188 441 L149 257 L258 257 L254 236 L144 236 L117 111 Q113 94 113 77 Q113 48 125.5 35 Q138 22 157 22 Q179 22 202 33.5 Q225 45 239 62 L250 53 Z " />
<glyph glyph-name="Utilde" unicode="&#x168;" horiz-adv-x="657" d="M336 697 L332 679 L251 679 L157 237 Q152 217 151 200 Q150 183 150 168 Q150 124 162.5 95 Q175 66 195 48.5 Q215 31 241.5 23.5 Q268 16 295 16 Q381 16 443 73 Q505 130 529 244 L621 679 L540 679 L544 697 L730 697 L726 679 L644 679 L552 243 Q527 124 457 57.5 Q387 -9 289 -9 Q177 -9 122.5 35 Q68 79 68 175 Q68 194 70 215.5 Q72 237 77 260 L166 679 L85 679 L89 697 L336 697 Z M632 892 Q616 837 585.5 809.5 Q555 782 517 782 Q496 782 479 789.5 Q462 797 446.5 805.5 Q431 814 416.5 821.5 Q402 829 386 829 Q369 829 350.5 818 Q332 807 318 778 L304 778 Q320 833 351 860.5 Q382 888 420 888 Q441 888 458 880.5 Q475 873 490 864.5 Q505 856 519.5 848.5 Q534 841 550 841 Q567 841 585.5 852 Q604 863 618 892 L632 892 Z " />
<glyph glyph-name="utilde" unicode="&#x169;" horiz-adv-x="512" d="M110 433 Q93 437 72 437.5 Q51 438 35 438 L38 450 L199 466 L152 243 Q142 197 135.5 167.5 Q129 138 125.5 118.5 Q122 99 120.5 87.5 Q119 76 119 67 Q119 39 129.5 28 Q140 17 160 17 Q179 17 204.5 35 Q230 53 255 88 Q280 123 302 173 Q324 223 337 288 L372 457 L454 457 L388 151 Q383 131 380.5 117 Q378 103 376 92.5 Q374 82 373.5 74.5 Q373 67 373 60 Q373 46 378.5 36.5 Q384 27 396 27 Q412 27 427.5 42.5 Q443 58 457 84 L469 80 Q449 39 421.5 15 Q394 -9 362 -9 Q301 -9 301 72 Q301 91 303.5 109 Q306 127 311 149 Q291 105 268.5 75 Q246 45 222 26 Q198 7 174 -1 Q150 -9 127 -9 Q87 -9 63.5 10.5 Q40 30 40 76 Q40 86 42 101 Q44 116 50 145 L110 433 Z M479 642 Q463 587 432.5 559.5 Q402 532 364 532 Q343 532 326 539.5 Q309 547 293.5 555.5 Q278 564 263.5 571.5 Q249 579 233 579 Q216 579 197.5 568 Q179 557 165 528 L151 528 Q167 583 198 610.5 Q229 638 267 638 Q288 638 305 630.5 Q322 623 337 614.5 Q352 606 366.5 598.5 Q381 591 397 591 Q414 591 432.5 602 Q451 613 465 642 L479 642 Z " />
<glyph glyph-name="Umacron" unicode="&#x16a;" horiz-adv-x="657" d="M336 697 L332 679 L251 679 L157 237 Q152 217 151 200 Q150 183 150 168 Q150 124 162.5 95 Q175 66 195 48.5 Q215 31 241.5 23.5 Q268 16 295 16 Q381 16 443 73 Q505 130 529 244 L621 679 L540 679 L544 697 L730 697 L726 679 L644 679 L552 243 Q527 124 457 57.5 Q387 -9 289 -9 Q177 -9 122.5 35 Q68 79 68 175 Q68 194 70 215.5 Q72 237 77 260 L166 679 L85 679 L89 697 L336 697 Z M317 796 L330 850 L605 850 L592 796 L317 796 Z " />
<glyph glyph-name="umacron" unicode="&#x16b;" horiz-adv-x="512" d="M110 433 Q93 437 72 437.5 Q51 438 35 438 L38 450 L199 466 L152 243 Q142 197 135.5 167.5 Q129 138 125.5 118.5 Q122 99 120.5 87.5 Q119 76 119 67 Q119 39 129.5 28 Q140 17 160 17 Q179 17 204.5 35 Q230 53 255 88 Q280 123 302 173 Q324 223 337 288 L372 457 L454 457 L388 151 Q383 131 380.5 117 Q378 103 376 92.5 Q374 82 373.5 74.5 Q373 67 373 60 Q373 46 378.5 36.5 Q384 27 396 27 Q412 27 427.5 42.5 Q443 58 457 84 L469 80 Q449 39 421.5 15 Q394 -9 362 -9 Q301 -9 301 72 Q301 91 303.5 109 Q306 127 311 149 Q291 105 268.5 75 Q246 45 222 26 Q198 7 174 -1 Q150 -9 127 -9 Q87 -9 63.5 10.5 Q40 30 40 76 Q40 86 42 101 Q44 116 50 145 L110 433 Z M163 546 L176 600 L451 600 L438 546 L163 546 Z " />
<glyph glyph-name="Ubreve" unicode="&#x16c;" horiz-adv-x="657" d="M336 697 L332 679 L251 679 L157 237 Q152 217 151 200 Q150 183 150 168 Q150 124 162.5 95 Q175 66 195 48.5 Q215 31 241.5 23.5 Q268 16 295 16 Q381 16 443 73 Q505 130 529 244 L621 679 L540 679 L544 697 L730 697 L726 679 L644 679 L552 243 Q527 124 457 57.5 Q387 -9 289 -9 Q177 -9 122.5 35 Q68 79 68 175 Q68 194 70 215.5 Q72 237 77 260 L166 679 L85 679 L89 697 L336 697 Z M462 836 Q491 836 513.5 844.5 Q536 853 552.5 866.5 Q569 880 579.5 896.5 Q590 913 593 928 L617 928 Q611 903 598 875.5 Q585 848 564 824.5 Q543 801 514.5 786 Q486 771 451 771 Q420 771 398.5 782.5 Q377 794 363.5 813 Q350 832 344 855.5 Q338 879 338 902 Q338 909 338.5 915.5 Q339 922 340 928 L364 928 Q363 924 363 917 Q363 903 368.5 888.5 Q374 874 386 862.5 Q398 851 417 843.5 Q436 836 462 836 Z " />
</font>
</svg>
