<?xml version="1.0" encoding="UTF-8"?>
<svg xmlns="http://www.w3.org/2000/svg" xmlns:xlink="http://www.w3.org/1999/xlink" version="1.2" >
<font id="Exquise FY Black">
<font-face  font-family="Exquise FY" units-per-em="1000" ascent="780" descent="-220" font-style="normal" font-weight="900" font-stretch="normal" cap-height="698" x-height="467" underline-position="-75" underline-thickness="50" />
<missing-glyph  horiz-adv-x="534" d="M267 134 Q222 156 182.5 185.5 Q143 215 113 249 Q83 283 65.5 320 Q48 357 48 393 Q48 444 76.5 470.5 Q105 497 152 497 Q184 497 214 480 Q244 463 267 431 Q290 463 320 480 Q350 497 382 497 Q429 497 457.5 470.5 Q486 444 486 393 Q486 357 468.5 320 Q451 283 421 249 Q391 215 351.5 185.5 Q312 156 267 134 Z " />
<glyph glyph-name=".null" d="" />
<glyph glyph-name="&amp;#x0;" d="" />
<glyph glyph-name="&amp;#xd;" unicode="&#xd;" d="" />
<glyph glyph-name="space" unicode="&#x20;" horiz-adv-x="185" d="" />
<glyph glyph-name="exclam" unicode="&#x21;" horiz-adv-x="301" d="M149 -8 Q114 -8 93.5 13.5 Q73 35 73 66 Q73 98 93.5 120 Q114 142 149 142 Q184 142 205 120 Q226 98 226 66 Q226 35 205 13.5 Q184 -8 149 -8 Z M130 200 Q130 260 119 317 Q108 374 94.5 426.5 Q81 479 70 524.5 Q59 570 59 606 Q59 654 83 683 Q107 712 150 712 Q194 712 218 683 Q242 654 242 606 Q242 571 231 525.5 Q220 480 206.5 427.5 Q193 375 182 317.5 Q171 260 171 200 L130 200 Z " />
<glyph glyph-name="quotedbl" unicode="&#x22;" horiz-adv-x="411" d="M95 450 L61 587 Q56 610 51.5 633.5 Q47 657 47 677 Q47 711 66.5 726 Q86 741 112 741 Q138 741 157 726 Q176 711 176 677 Q176 657 172.5 633.5 Q169 610 163 587 L129 450 L95 450 Z M283 450 L249 587 Q244 610 239.5 633.5 Q235 657 235 677 Q235 711 254.5 726 Q274 741 300 741 Q326 741 345 726 Q364 711 364 677 Q364 657 360.5 633.5 Q357 610 351 587 L317 450 L283 450 Z " />
<glyph glyph-name="numbersign" unicode="&#x23;" horiz-adv-x="639" d="M65 446 L190 446 L223 655 L303 655 L270 446 L407 446 L440 655 L520 655 L487 446 L605 446 L605 404 L480 404 L456 251 L574 251 L574 209 L448 209 L416 0 L337 0 L368 209 L231 209 L198 0 L119 0 L151 209 L33 209 L33 251 L159 251 L183 404 L65 404 L65 446 Z M239 251 L376 251 L400 404 L262 404 L239 251 Z " />
<glyph glyph-name="dollar" unicode="&#x24;" horiz-adv-x="587" d="M348 724 L348 659 Q386 657 418.5 651 Q451 645 490 635 L490 455 L465 455 Q459 482 450 513 Q441 544 426 569.5 Q411 595 387.5 612 Q364 629 330 629 Q295 629 269 609.5 Q243 590 243 554 Q243 513 275 481.5 Q307 450 370 414 Q413 388 444.5 365 Q476 342 496 317.5 Q516 293 525.5 264.5 Q535 236 535 199 Q535 160 520.5 124.5 Q506 89 477 61 Q448 33 405 14.5 Q362 -4 305 -8 L305 -79 L275 -79 L275 -8 Q231 -8 185.5 -1.5 Q140 5 86 19 L86 217 L114 217 Q117 168 131 132 Q145 96 165 72 Q185 48 209.5 36.5 Q234 25 258 25 Q303 25 324 47.5 Q345 70 345 102 Q345 124 337.5 143 Q330 162 313 180.5 Q296 199 268.5 218.5 Q241 238 200 261 Q162 283 135 303.5 Q108 324 90.5 346.5 Q73 369 64.5 394.5 Q56 420 56 451 Q56 496 78.5 534 Q101 572 138 599.5 Q175 627 222 643 Q269 659 318 659 L318 724 L348 724 Z " />
<glyph glyph-name="percent" unicode="&#x25;" horiz-adv-x="976" d="M237 -9 L682 673 L737 673 L292 -9 L237 -9 Z M262 712 Q302 712 333 696.5 Q364 681 385 654 Q406 627 416.5 590 Q427 553 427 511 Q427 467 416 430.5 Q405 394 383.5 368 Q362 342 331.5 327 Q301 312 262 312 Q223 312 192.5 327 Q162 342 141 368 Q120 394 109 430.5 Q98 467 98 511 Q98 553 108.5 590 Q119 627 139.5 654 Q160 681 190.5 696.5 Q221 712 262 712 Z M262 693 Q254 693 248.5 684 Q243 675 239 654 Q235 633 233.5 598 Q232 563 232 511 Q232 458 233.5 423.5 Q235 389 239 368.5 Q243 348 248.5 340 Q254 332 262 332 Q270 332 276 340 Q282 348 285.5 368.5 Q289 389 291 423.5 Q293 458 293 511 Q293 563 291 598 Q289 633 285.5 654 Q282 675 276 684 Q270 693 262 693 Z M735 395 Q776 395 807 379.5 Q838 364 859 337 Q880 310 890.5 273 Q901 236 901 194 Q901 150 889.5 113.5 Q878 77 857 50.5 Q836 24 805 9 Q774 -6 735 -6 Q696 -6 665.5 9 Q635 24 614 50.5 Q593 77 582 113.5 Q571 150 571 194 Q571 236 581.5 273 Q592 310 612.5 337 Q633 364 663.5 379.5 Q694 395 735 395 Z M735 376 Q727 376 721.5 367 Q716 358 712 337 Q708 316 706.5 281 Q705 246 705 194 Q705 141 706.5 106 Q708 71 712 50.5 Q716 30 721.5 22 Q727 14 735 14 Q743 14 749 22 Q755 30 758.5 50.5 Q762 71 764 106 Q766 141 766 194 Q766 246 764 281 Q762 316 758.5 337 Q755 358 749 367 Q743 376 735 376 Z " />
<glyph glyph-name="ampersand" unicode="&#x26;" horiz-adv-x="797" d="M788 76 Q772 58 751 39.5 Q730 21 705 6 Q680 -9 652 -18 Q624 -27 594 -27 Q574 -27 556.5 -25 Q539 -23 521.5 -17.5 Q504 -12 486 -2.5 Q468 7 447 23 Q403 6 356.5 -1 Q310 -8 261 -8 Q216 -8 174.5 3.5 Q133 15 101.5 38 Q70 61 51.5 94 Q33 127 33 171 Q33 208 46.5 238.5 Q60 269 83 293 Q106 317 136.5 334.5 Q167 352 201 362 Q178 406 164.5 449.5 Q151 493 151 540 Q151 573 165 604 Q179 635 204.5 659 Q230 683 266.5 697.5 Q303 712 347 712 Q392 712 425 700.5 Q458 689 479.5 670 Q501 651 511.5 625.5 Q522 600 522 573 Q522 550 513.5 524.5 Q505 499 486.5 474.5 Q468 450 438.5 428.5 Q409 407 368 391 Q385 364 410 330.5 Q435 297 464 262.5 Q493 228 523.5 195.5 Q554 163 581 138 Q598 155 609.5 171.5 Q621 188 631 206 L509 350 Q523 368 545.5 382 Q568 396 603 396 Q639 396 664.5 369 Q690 342 690 303 Q690 289 685.5 267 Q681 245 670.5 220.5 Q660 196 642.5 170 Q625 144 600 121 Q630 90 660 76 Q690 62 712 62 Q730 62 742 68 Q754 74 774 93 L788 76 Z M363 35 Q380 35 397 37 Q414 39 422 44 Q398 65 368.5 102 Q339 139 310 181 Q281 223 255.5 264.5 Q230 306 215 337 Q201 315 192 292.5 Q183 270 183 234 Q183 196 196 160 Q209 124 233 96.5 Q257 69 290 52 Q323 35 363 35 Z M293 591 Q293 570 298 545.5 Q303 521 311.5 497 Q320 473 331 450.5 Q342 428 355 410 Q377 445 384.5 489.5 Q392 534 392 569 Q392 592 389 613.5 Q386 635 379.5 651.5 Q373 668 364 677.5 Q355 687 343 687 Q319 687 306 658 Q293 629 293 591 Z " />
<glyph glyph-name="quotesingle" unicode="&#x27;" horiz-adv-x="223" d="M95 450 L61 587 Q56 610 51.5 633.5 Q47 657 47 677 Q47 711 66.5 726 Q86 741 112 741 Q138 741 157 726 Q176 711 176 677 Q176 657 172.5 633.5 Q169 610 163 587 L129 450 L95 450 Z " />
<glyph glyph-name="parenleft" unicode="&#x28;" horiz-adv-x="405" d="M52 289 Q52 370 79 440.5 Q106 511 152 569.5 Q198 628 259 672.5 Q320 717 388 746 L396 729 Q359 705 330.5 657.5 Q302 610 282 550 Q262 490 251.5 422 Q241 354 241 289 Q241 224 248 162.5 Q255 101 272.5 44.5 Q290 -12 320 -61.5 Q350 -111 396 -152 L388 -169 Q320 -140 259 -95.5 Q198 -51 152 7.5 Q106 66 79 137 Q52 208 52 289 Z " />
<glyph glyph-name="parenright" unicode="&#x29;" horiz-adv-x="405" d="M353 289 Q353 208 326 137 Q299 66 253 7.5 Q207 -51 146 -95.5 Q85 -140 17 -169 L9 -152 Q55 -111 85.5 -61.5 Q116 -12 133 44.5 Q150 101 157 162.5 Q164 224 164 289 Q164 354 153.5 422 Q143 490 123 550 Q103 610 74.5 657.5 Q46 705 9 729 L17 746 Q85 717 146 672.5 Q207 628 253 569.5 Q299 511 326 440.5 Q353 370 353 289 Z " />
<glyph glyph-name="asterisk" unicode="&#x2a;" horiz-adv-x="452" d="M253 433 Q262 407 270 379.5 Q278 352 278 336 Q278 312 264.5 299 Q251 286 227 286 Q178 286 178 335 Q178 353 186 377.5 Q194 402 202 430 L219 487 L179 440 Q168 427 156.5 413.5 Q145 400 133 388.5 Q121 377 109.5 370 Q98 363 86 363 Q64 363 48.5 382 Q33 401 33 423 Q33 438 44.5 448.5 Q56 459 74 466.5 Q92 474 113 479 Q134 484 152 488 L212 500 L151 510 Q134 513 113.5 517 Q93 521 75 528 Q57 535 45 546 Q33 557 33 574 Q33 584 37 594.5 Q41 605 47.5 614 Q54 623 63 628.5 Q72 634 82 634 Q95 634 108.5 626 Q122 618 134.5 606.5 Q147 595 158.5 581.5 Q170 568 181 556 L219 514 L203 566 Q192 603 184.5 626 Q177 649 177 666 Q177 686 189.5 699 Q202 712 227 712 Q277 712 277 662 Q277 643 269 618 Q261 593 252 565 L235 513 L273 556 Q283 568 295 581 Q307 594 319 605.5 Q331 617 343.5 624 Q356 631 368 631 Q389 631 404.5 613.5 Q420 596 420 574 Q420 561 410 551.5 Q400 542 383 534.5 Q366 527 343.5 521.5 Q321 516 296 511 L242 501 L299 488 Q335 480 358.5 474 Q382 468 395.5 461.5 Q409 455 414.5 446 Q420 437 420 423 Q420 413 416 402.5 Q412 392 405 383 Q398 374 388.5 368.5 Q379 363 368 363 Q348 363 325.5 386 Q303 409 274 442 L235 486 L253 433 Z " />
<glyph glyph-name="plus" unicode="&#x2b;" horiz-adv-x="649" d="M352 259 L352 38 L296 38 L296 259 L65 259 L65 305 L296 305 L296 526 L352 526 L352 305 L583 305 L583 259 L352 259 Z " />
<glyph glyph-name="comma" unicode="&#x2c;" horiz-adv-x="267" d="M66 -114 Q95 -91 114 -66 Q133 -41 133 -24 Q133 -13 120 -10 Q107 -7 91 1 Q75 10 62.5 26.5 Q50 43 50 72 Q50 111 75 133 Q100 155 133 155 Q172 155 194.5 128.5 Q217 102 217 66 Q217 37 206 8.5 Q195 -20 176.5 -46.5 Q158 -73 134.5 -95.5 Q111 -118 87 -135 L66 -114 Z " />
<glyph glyph-name="hyphen" unicode="&#x2d;" horiz-adv-x="353" d="M50 289 L303 289 L303 215 L50 215 L50 289 Z " />
<glyph glyph-name="period" unicode="&#x2e;" horiz-adv-x="267" d="M133 -8 Q95 -8 72.5 16 Q50 40 50 73 Q50 108 72.5 132.5 Q95 157 133 157 Q171 157 194 132.5 Q217 108 217 73 Q217 40 194 16 Q171 -8 133 -8 Z " />
<glyph glyph-name="slash" unicode="&#x2f;" horiz-adv-x="385" d="M287 733 L348 733 L75 -38 L15 -38 L287 733 Z " />
<glyph glyph-name="zero" unicode="0" horiz-adv-x="635" d="M318 501 Q384 501 435 481.5 Q486 462 521 427.5 Q556 393 574.5 346.5 Q593 300 593 246 Q593 192 574.5 146 Q556 100 521 65.5 Q486 31 435 11.5 Q384 -8 318 -8 Q252 -8 201 11.5 Q150 31 114.5 65.5 Q79 100 60.5 146 Q42 192 42 246 Q42 300 60.5 346.5 Q79 393 114 427.5 Q149 462 200.5 481.5 Q252 501 318 501 Z M318 19 Q352 19 368 79.5 Q384 140 384 246 Q384 352 366.5 413.5 Q349 475 318 475 Q286 475 269 413.5 Q252 352 252 246 Q252 140 268 79.5 Q284 19 318 19 Z " />
<glyph glyph-name="one" unicode="1" horiz-adv-x="504" d="M33 311 Q110 349 177 394 Q244 439 316 497 L390 497 L390 26 L471 26 L471 0 L33 0 L33 26 L161 26 L161 340 L45 286 L33 311 Z " />
<glyph glyph-name="two" unicode="2" horiz-adv-x="534" d="M23 -5 Q37 27 64 58 Q91 89 120 117 Q149 145 175.5 173 Q202 201 222.5 231 Q243 261 255.5 295.5 Q268 330 268 372 Q268 409 247 435.5 Q226 462 188 462 Q166 462 148.5 451.5 Q131 441 119 427 L210 321 Q200 298 176.5 283 Q153 268 119 268 Q84 268 61 291 Q38 314 38 355 Q38 382 52 408 Q66 434 93.5 454.5 Q121 475 162.5 488 Q204 501 259 501 Q313 501 353 490.5 Q393 480 419.5 461 Q446 442 459 417 Q472 392 472 362 Q472 302 435 256 Q398 210 319 175 Q286 160 258.5 148 Q231 136 207 123.5 Q183 111 160 97.5 Q137 84 112 68 Q142 83 175 92.5 Q208 102 239.5 108 Q271 114 300 117 Q329 120 353 121 Q380 122 398 128.5 Q416 135 427 145.5 Q438 156 444.5 171 Q451 186 456 205 L473 205 L473 -2 Q453 -9 435.5 -10.5 Q418 -12 398 -12 Q373 -12 344.5 -6 Q316 0 286 7 Q256 14 226 19.5 Q196 25 168 25 Q123 25 89.5 13.5 Q56 2 39 -18 L23 -5 Z " />
<glyph glyph-name="three" unicode="3" horiz-adv-x="540" d="M36 -118 Q56 -132 85.5 -143.5 Q115 -155 149 -155 Q179 -155 204 -144 Q229 -133 247 -113 Q265 -93 275.5 -65 Q286 -37 286 -2 Q286 59 253 94 Q220 129 149 129 L112 129 L112 154 L148 154 Q183 154 207.5 169 Q232 184 247 208.5 Q262 233 269 264 Q276 295 276 326 Q276 363 267 389.5 Q258 416 244 432.5 Q230 449 213 456.5 Q196 464 179 464 Q153 464 132 451 Q111 438 102 427 L200 303 Q182 275 158 262 Q134 249 110 249 Q75 249 49 273.5 Q23 298 23 341 Q23 359 33.5 386 Q44 413 71 438.5 Q98 464 144 482.5 Q190 501 260 501 Q316 501 358.5 488 Q401 475 429.5 453 Q458 431 472.5 402 Q487 373 487 340 Q487 301 472.5 268.5 Q458 236 434.5 211.5 Q411 187 381 171.5 Q351 156 321 151 Q404 139 451 103.5 Q498 68 498 -5 Q498 -48 477.5 -83.5 Q457 -119 420.5 -144.5 Q384 -170 333.5 -184.5 Q283 -199 224 -199 Q152 -199 102.5 -183.5 Q53 -168 19 -142 L36 -118 Z " />
<glyph glyph-name="four" unicode="4" horiz-adv-x="557" d="M448 493 L448 26 L520 26 L520 0 L448 0 L448 -149 L529 -149 L529 -176 L164 -176 L164 -149 L244 -149 L244 0 L28 0 L28 26 L293 493 L448 493 Z M244 26 L244 353 L62 26 L244 26 Z " />
<glyph glyph-name="five" unicode="5" horiz-adv-x="521" d="M56 -131 Q71 -140 95.5 -150 Q120 -160 149 -160 Q211 -160 245 -109 Q279 -58 279 36 Q279 112 255.5 151.5 Q232 191 191 191 Q159 191 135 169.5 Q111 148 94 116 L54 116 L72 478 L384 478 Q413 478 426.5 492 Q440 506 443 529 L458 529 L458 328 L92 328 L82 146 Q113 194 166.5 215.5 Q220 237 277 237 Q316 237 353.5 224 Q391 211 421 185.5 Q451 160 469.5 122.5 Q488 85 488 36 Q488 -20 468 -63.5 Q448 -107 412.5 -137 Q377 -167 328.5 -183 Q280 -199 223 -199 Q192 -199 167.5 -196 Q143 -193 121.5 -188 Q100 -183 81 -175 Q62 -167 42 -156 L56 -131 Z " />
<glyph glyph-name="six" unicode="6" horiz-adv-x="602" d="M471 651 Q459 654 446.5 656 Q434 658 419 658 Q384 658 354.5 643 Q325 628 303 599 Q281 570 268.5 528.5 Q256 487 255 434 Q270 459 302 476 Q334 493 378 493 Q415 493 448 478 Q481 463 506 434.5 Q531 406 545 364.5 Q559 323 559 271 Q559 206 539.5 154.5 Q520 103 485 67 Q450 31 402.5 11.5 Q355 -8 300 -8 Q240 -8 192 16.5 Q144 41 111 83 Q78 125 60 180.5 Q42 236 42 298 Q42 395 76 468 Q110 541 161.5 590.5 Q213 640 275.5 665 Q338 690 395 690 Q422 690 442.5 687.5 Q463 685 477 681 L471 651 Z M346 243 Q346 282 344 316.5 Q342 351 337.5 377.5 Q333 404 324.5 419.5 Q316 435 304 435 Q281 435 266.5 391.5 Q252 348 252 249 Q252 202 254.5 160.5 Q257 119 262.5 87.5 Q268 56 277 38 Q286 20 300 20 Q328 20 337 79 Q346 138 346 243 Z " />
<glyph glyph-name="seven" unicode="7" horiz-adv-x="509" d="M337 -132 Q317 -163 286 -181 Q255 -199 213 -199 Q192 -199 170.5 -191.5 Q149 -184 132 -168.5 Q115 -153 104.5 -130 Q94 -107 94 -76 Q94 -40 111 -5 Q128 30 154.5 64 Q181 98 214.5 130.5 Q248 163 280 196 Q312 229 339.5 261.5 Q367 294 383 328 L123 328 Q53 328 53 235 L33 235 L33 478 L486 478 Q465 413 439.5 363.5 Q414 314 387 276 Q360 238 331.5 207.5 Q303 177 275.5 150 Q248 123 221.5 96 Q195 69 172 37 L337 -132 Z " />
<glyph glyph-name="eight" unicode="8" horiz-adv-x="618" d="M575 193 Q575 146 553.5 109 Q532 72 494.5 46 Q457 20 406 6 Q355 -8 296 -8 Q239 -8 192 3.5 Q145 15 111.5 36.5 Q78 58 60 89.5 Q42 121 42 161 Q42 218 83 258.5 Q124 299 193 324 Q132 363 98.5 409 Q65 455 65 514 Q65 547 80.5 579.5 Q96 612 127.5 638.5 Q159 665 207 681.5 Q255 698 321 698 Q375 698 416 686 Q457 674 484.5 654.5 Q512 635 525.5 610 Q539 585 539 559 Q539 508 503.5 470.5 Q468 433 399 417 Q482 364 528.5 312 Q575 260 575 193 Z M377 566 Q377 586 373.5 605 Q370 624 363 638.5 Q356 653 345.5 661.5 Q335 670 321 670 Q298 670 282.5 647.5 Q267 625 267 587 Q267 538 294 504 Q321 470 358 445 Q365 459 371 490 Q377 521 377 566 Z M358 122 Q358 154 347.5 178.5 Q337 203 320.5 222.5 Q304 242 283.5 258.5 Q263 275 242 290 Q230 270 218.5 240.5 Q207 211 207 164 Q207 138 211 112.5 Q215 87 225 66.5 Q235 46 251 33 Q267 20 290 20 Q317 20 337.5 45.5 Q358 71 358 122 Z " />
<glyph glyph-name="nine" unicode="9" horiz-adv-x="606" d="M108 -165 Q117 -169 135.5 -171 Q154 -173 168 -173 Q204 -173 235.5 -156 Q267 -139 291 -109.5 Q315 -80 330 -39 Q345 2 347 50 Q331 25 299.5 8.5 Q268 -8 224 -8 Q184 -8 150.5 6.5 Q117 21 93 49.5 Q69 78 55.5 119.5 Q42 161 42 215 Q42 276 62 327 Q82 378 116 415 Q150 452 196 472.5 Q242 493 295 493 Q358 493 407 468 Q456 443 489.5 401 Q523 359 541 303 Q559 247 559 184 Q559 96 530.5 23.5 Q502 -49 452 -100.5 Q402 -152 333.5 -180 Q265 -208 185 -208 Q163 -208 138 -203 Q113 -198 102 -193 L108 -165 Z M256 240 Q256 201 258 166.5 Q260 132 264.5 106 Q269 80 277 64.5 Q285 49 298 49 Q321 49 335.5 92 Q350 135 350 234 Q350 281 347.5 322.5 Q345 364 339.5 395.5 Q334 427 324.5 445.5 Q315 464 302 464 Q274 464 265 404.5 Q256 345 256 240 Z " />
<glyph glyph-name="colon" unicode="&#x3a;" horiz-adv-x="297" d="M148 318 Q110 318 87.5 342 Q65 366 65 399 Q65 434 87.5 458.5 Q110 483 148 483 Q186 483 209 458.5 Q232 434 232 399 Q232 366 209 342 Q186 318 148 318 Z M148 -8 Q110 -8 87.5 16 Q65 40 65 73 Q65 108 87.5 132.5 Q110 157 148 157 Q186 157 209 132.5 Q232 108 232 73 Q232 40 209 16 Q186 -8 148 -8 Z " />
<glyph glyph-name="semicolon" unicode="&#x3b;" horiz-adv-x="297" d="M81 -114 Q110 -91 129 -66 Q148 -41 148 -24 Q148 -13 135 -10 Q122 -7 106 1 Q90 10 77.5 26.5 Q65 43 65 72 Q65 111 90 133 Q115 155 148 155 Q187 155 209.5 128.5 Q232 102 232 66 Q232 37 221 8.5 Q210 -20 191.5 -46.5 Q173 -73 149.5 -95.5 Q126 -118 102 -135 L81 -114 Z M148 318 Q110 318 87.5 342 Q65 366 65 399 Q65 434 87.5 458.5 Q110 483 148 483 Q186 483 209 458.5 Q232 434 232 399 Q232 366 209 342 Q186 318 148 318 Z " />
<glyph glyph-name="less" unicode="&#x3c;" horiz-adv-x="649" d="M76 308 L572 500 L572 448 L137 282 L572 116 L572 64 L76 256 L76 308 Z " />
<glyph glyph-name="equal" unicode="&#x3d;" horiz-adv-x="649" d="M75 350 L75 396 L572 396 L572 350 L75 350 Z M75 175 L75 221 L572 221 L572 175 L75 175 Z " />
<glyph glyph-name="greater" unicode="&#x3e;" horiz-adv-x="649" d="M554 256 L57 64 L57 116 L493 282 L57 448 L57 500 L554 308 L554 256 Z " />
<glyph glyph-name="question" unicode="&#x3f;" horiz-adv-x="483" d="M448 554 Q448 513 434 484 Q420 455 398 433 Q376 411 349 395 Q322 379 296 365 Q274 353 260 343 Q246 333 238.5 321 Q231 309 228.5 293 Q226 277 226 253 L226 200 L184 200 L184 288 Q184 322 196.5 346 Q209 370 224.5 396 Q240 422 252.5 456.5 Q265 491 265 545 Q265 602 238.5 635 Q212 668 172 668 Q143 668 123 656 Q103 644 95 629 L196 511 Q194 508 188 501.5 Q182 495 172 488 Q162 481 148.5 476 Q135 471 117 471 Q80 471 57.5 497 Q35 523 35 557 Q35 576 44 602.5 Q53 629 76.5 653.5 Q100 678 141 695 Q182 712 246 712 Q295 712 333 698.5 Q371 685 396.5 662.5 Q422 640 435 612 Q448 584 448 554 Z M206 -8 Q172 -8 151.5 13.5 Q131 35 131 66 Q131 98 151.5 120 Q172 142 206 142 Q241 142 262 120 Q283 98 283 66 Q283 35 262 13.5 Q241 -8 206 -8 Z " />
<glyph glyph-name="at" unicode="&#x40;" horiz-adv-x="846" d="M392 219 Q392 204 394 188.5 Q396 173 400 161 Q404 149 410.5 141 Q417 133 427 133 Q444 133 459.5 153.5 Q475 174 486.5 207.5 Q498 241 504.5 284 Q511 327 511 372 Q511 387 509.5 402 Q508 417 505 429.5 Q502 442 496.5 450 Q491 458 482 458 Q467 458 451 437 Q435 416 422 382 Q409 348 400.5 305 Q392 262 392 219 Z M591 470 L659 470 Q636 394 621 341.5 Q606 289 597 254 Q588 219 584 198.5 Q580 178 580 165 Q580 134 592.5 115.5 Q605 97 625 97 Q652 97 674.5 115.5 Q697 134 713.5 166.5 Q730 199 739.5 242.5 Q749 286 749 337 Q749 406 730.5 461 Q712 516 677 554 Q642 592 591.5 612.5 Q541 633 478 633 Q413 633 358.5 605 Q304 577 264.5 527 Q225 477 202.5 409 Q180 341 180 260 Q180 195 202 138.5 Q224 82 265 40.5 Q306 -1 366 -25 Q426 -49 503 -49 Q577 -49 634 -32 Q691 -15 735 8 L743 -13 Q694 -40 631 -59 Q568 -78 474 -78 Q385 -78 305.5 -57 Q226 -36 167 7.5 Q108 51 73.5 116.5 Q39 182 39 271 Q39 353 71 423.5 Q103 494 160.5 546 Q218 598 297 627.5 Q376 657 469 657 Q549 657 612.5 631.5 Q676 606 720.5 563 Q765 520 789 464 Q813 408 813 347 Q813 288 796 238 Q779 188 750.5 151 Q722 114 685 93.5 Q648 73 607 73 Q562 73 532.5 92 Q503 111 489 158 Q463 126 437.5 108 Q412 90 380 90 Q360 90 341 99 Q322 108 307 125.5 Q292 143 283 169.5 Q274 196 274 232 Q274 275 287.5 319.5 Q301 364 326.5 400 Q352 436 388 459 Q424 482 469 482 Q506 482 523.5 465 Q541 448 555 420 L591 470 Z " />
<glyph glyph-name="A" unicode="A" horiz-adv-x="657" d="M308 26 L394 26 L336 198 L137 198 L73 26 L153 26 L153 0 L-14 0 L-14 26 L41 26 L288 698 L384 698 L611 26 L661 26 L661 0 L308 0 L308 26 Z M240 481 L148 225 L326 225 L240 481 Z " />
<glyph glyph-name="B" unicode="B" horiz-adv-x="706" d="M89 672 L17 672 L17 698 L384 698 Q525 698 585.5 657 Q646 616 646 543 Q646 478 604.5 436 Q563 394 491 379 Q541 372 576.5 355 Q612 338 634.5 314.5 Q657 291 667.5 262.5 Q678 234 678 204 Q678 155 660 117 Q642 79 601.5 53 Q561 27 497 13.5 Q433 0 341 0 L17 0 L17 26 L89 26 L89 672 Z M321 27 L350 27 Q374 27 394.5 37 Q415 47 431 67.5 Q447 88 456 120 Q465 152 465 197 Q465 241 455.5 271.5 Q446 302 430 321 Q414 340 394.5 348.5 Q375 357 354 357 L321 357 L321 27 Z M321 672 L321 384 L357 384 Q372 384 388 392.5 Q404 401 417 419 Q430 437 438.5 464.5 Q447 492 447 531 Q447 570 439.5 596.5 Q432 623 419.5 640 Q407 657 392 664.5 Q377 672 362 672 L321 672 Z " />
<glyph glyph-name="C" unicode="C" horiz-adv-x="623" d="M597 80 Q580 60 558.5 43.5 Q537 27 508.5 15.5 Q480 4 443.5 -2 Q407 -8 360 -8 Q282 -8 219.5 17 Q157 42 113.5 88 Q70 134 46.5 197 Q23 260 23 337 Q23 405 44 472 Q65 539 108 592.5 Q151 646 216.5 679 Q282 712 372 712 Q432 712 476 698 Q520 684 548.5 662 Q577 640 590.5 612 Q604 584 604 556 Q604 511 577.5 480.5 Q551 450 499 450 Q463 450 440.5 460.5 Q418 471 401 487 L522 635 Q507 652 480.5 665.5 Q454 679 423 679 Q379 679 349.5 655 Q320 631 302 589.5 Q284 548 276 491 Q268 434 268 368 Q268 280 280.5 216.5 Q293 153 316 112.5 Q339 72 371.5 53 Q404 34 444 34 Q490 34 521.5 51 Q553 68 578 97 L597 80 Z " />
<glyph glyph-name="D" unicode="D" horiz-adv-x="753" d="M321 26 L331 26 Q366 26 395.5 48 Q425 70 446 112 Q467 154 479 215 Q491 276 491 353 Q491 431 479.5 490.5 Q468 550 447 590.5 Q426 631 397.5 651.5 Q369 672 335 672 L321 672 L321 26 Z M89 672 L17 672 L17 698 L349 698 Q443 698 514.5 671 Q586 644 633.5 597 Q681 550 705 487.5 Q729 425 729 353 Q729 282 705 218 Q681 154 633.5 105.5 Q586 57 514.5 28.5 Q443 0 349 0 L17 0 L17 26 L89 26 L89 672 Z " />
<glyph glyph-name="E" unicode="E" horiz-adv-x="631" d="M465 698 Q534 698 573 667.5 Q612 637 612 580 Q612 538 584.5 508.5 Q557 479 509 479 Q474 479 453.5 490.5 Q433 502 416 518 L525 657 Q520 661 511 663.5 Q502 666 490.5 668 Q479 670 467 671 Q455 672 446 672 L321 672 L321 354 L480 354 L480 328 L321 328 L321 26 L371 26 Q429 26 467.5 40.5 Q506 55 530 81 Q554 107 566.5 143 Q579 179 586 221 L607 222 L607 0 L17 0 L17 26 L89 26 L89 672 L17 672 L17 698 L465 698 Z " />
<glyph glyph-name="F" unicode="F" horiz-adv-x="626" d="M475 698 Q544 698 582.5 667.5 Q621 637 621 580 Q621 538 594 508.5 Q567 479 519 479 Q484 479 463 490.5 Q442 502 426 518 L534 657 Q530 661 520.5 663.5 Q511 666 499.5 668 Q488 670 476 671 Q464 672 455 672 L321 672 L321 352 L509 352 L509 325 L321 325 L321 26 L431 26 L431 0 L17 0 L17 26 L89 26 L89 672 L17 672 L17 698 L475 698 Z " />
<glyph glyph-name="G" unicode="G" horiz-adv-x="712" d="M400 306 L712 306 L712 280 L657 280 L657 0 L643 0 Q632 6 618 11.5 Q604 17 579 17 Q558 17 533 13 Q508 9 481.5 4.5 Q455 0 427.5 -4 Q400 -8 375 -8 Q288 -8 222.5 17.5 Q157 43 112.5 89 Q68 135 45.5 199 Q23 263 23 339 Q23 412 47 479 Q71 546 118.5 598 Q166 650 235.5 681 Q305 712 397 712 Q462 712 507.5 697.5 Q553 683 582 660.5 Q611 638 624 612 Q637 586 637 562 Q637 540 630.5 520 Q624 500 610.5 485 Q597 470 577.5 461 Q558 452 532 452 Q496 452 473.5 463.5 Q451 475 434 491 L547 636 Q526 657 497.5 669 Q469 681 438 681 Q392 681 360 656.5 Q328 632 308 589.5 Q288 547 279 490.5 Q270 434 270 370 Q270 194 307 109.5 Q344 25 409 25 Q425 25 441.5 28 Q458 31 469 37 L469 280 L400 280 L400 306 Z " />
<glyph glyph-name="H" unicode="H" horiz-adv-x="859" d="M321 26 L384 26 L384 0 L17 0 L17 26 L89 26 L89 672 L17 672 L17 698 L384 698 L384 672 L321 672 L321 374 L539 374 L539 672 L476 672 L476 698 L842 698 L842 672 L770 672 L770 26 L842 26 L842 0 L476 0 L476 26 L539 26 L539 348 L321 348 L321 26 Z " />
<glyph glyph-name="I" unicode="I" horiz-adv-x="415" d="M323 26 L396 26 L396 0 L19 0 L19 26 L91 26 L91 672 L19 672 L19 698 L396 698 L396 672 L323 672 L323 26 Z " />
<glyph glyph-name="J" unicode="J" horiz-adv-x="419" d="M29 698 L406 698 L406 672 L333 672 L333 247 Q333 -103 79 -103 Q31 -103 -0.5 -95 Q-32 -87 -55 -70 L-39 -50 Q-26 -61 -10.5 -68 Q5 -75 25 -75 Q65 -75 83 -37 Q101 1 101 70 L101 672 L29 672 L29 698 Z " />
<glyph glyph-name="K" unicode="K" horiz-adv-x="758" d="M538 463 Q591 490 611 516 Q631 542 632 559 Q632 569 623 574 Q614 579 590 579 L478 579 Q474 587 472.5 596.5 Q471 606 471 615 Q471 633 478 650.5 Q485 668 499 681.5 Q513 695 534.5 703.5 Q556 712 585 712 Q642 712 670 683.5 Q698 655 698 613 Q698 560 657.5 516 Q617 472 529 431 L448 394 Q465 398 478 400 Q491 402 511 402 Q544 402 573 392.5 Q602 383 623.5 361.5 Q645 340 658 305.5 Q671 271 671 220 L671 136 Q671 109 676 93.5 Q681 78 689 69.5 Q697 61 705.5 59 Q714 57 722 57 Q733 57 740.5 64 Q748 71 754 82 L771 67 Q762 52 750.5 38.5 Q739 25 721.5 14.5 Q704 4 678.5 -2 Q653 -8 616 -8 Q589 -8 559.5 0 Q530 8 504.5 27.5 Q479 47 462.5 78.5 Q446 110 446 158 L446 254 Q446 308 435 330.5 Q424 353 399 353 Q382 353 370 348.5 Q358 344 347 338 L321 324 L321 26 L402 26 L402 0 L17 0 L17 26 L89 26 L89 672 L17 672 L17 698 L402 698 L402 672 L321 672 L321 352 L538 463 Z " />
<glyph glyph-name="L" unicode="L" horiz-adv-x="599" d="M358 26 Q405 26 438.5 42 Q472 58 494.5 88 Q517 118 530.5 161.5 Q544 205 551 259 L576 259 L576 0 L14 0 L14 26 L86 26 L86 672 L14 672 L14 698 L391 698 L391 672 L319 672 L319 26 L358 26 Z " />
<glyph glyph-name="M" unicode="M" horiz-adv-x="911" d="M330 698 L468 359 L603 698 L897 698 L897 672 L824 672 L824 26 L897 26 L897 0 L538 0 L538 26 L620 26 L620 658 L403 113 L343 113 L115 655 L115 26 L197 26 L197 0 L14 0 L14 26 L86 26 L86 672 L14 672 L14 698 L330 698 Z " />
<glyph glyph-name="N" unicode="N" horiz-adv-x="723" d="M611 672 L528 672 L528 698 L712 698 L712 672 L639 672 L639 0 L422 0 L117 676 L117 26 L200 26 L200 0 L17 0 L17 26 L89 26 L89 672 L17 672 L17 698 L380 698 L611 160 L611 672 Z " />
<glyph glyph-name="O" unicode="O" horiz-adv-x="744" d="M372 712 Q455 712 519 684.5 Q583 657 627 607.5 Q671 558 693.5 490 Q716 422 716 342 Q716 262 693.5 197.5 Q671 133 627 87 Q583 41 519 16.5 Q455 -8 372 -8 Q289 -8 225 16.5 Q161 41 117 87 Q73 133 50.5 197.5 Q28 262 28 342 Q28 422 50.5 490 Q73 558 117 607.5 Q161 657 225 684.5 Q289 712 372 712 Z M372 20 Q402 20 421 41.5 Q440 63 451 104.5 Q462 146 466 205.5 Q470 265 470 342 Q470 418 466 481 Q462 544 451 589 Q440 634 421 658.5 Q402 683 372 683 Q342 683 323 658.5 Q304 634 293 589 Q282 544 278 481 Q274 418 274 342 Q274 265 278 205.5 Q282 146 293 104.5 Q304 63 323 41.5 Q342 20 372 20 Z " />
<glyph glyph-name="P" unicode="P" horiz-adv-x="682" d="M664 485 Q664 423 642 380 Q620 337 582.5 309 Q545 281 495.5 268.5 Q446 256 392 256 L321 256 L321 26 L421 26 L421 0 L17 0 L17 26 L89 26 L89 672 L17 672 L17 698 L357 698 Q443 698 502 681.5 Q561 665 597 636 Q633 607 648.5 568 Q664 529 664 485 Z M449 490 Q449 585 420 628 Q391 671 347 671 L321 671 L321 283 L347 283 Q368 283 387 293 Q406 303 419.5 327 Q433 351 441 390.5 Q449 430 449 490 Z " />
<glyph glyph-name="Q" unicode="Q" horiz-adv-x="738" d="M368 712 Q444 712 507.5 686 Q571 660 617 613 Q663 566 688 500 Q713 434 713 354 Q713 282 693 220 Q673 158 636 110.5 Q599 63 546.5 32.5 Q494 2 429 -6 Q467 -17 502.5 -38.5 Q538 -60 570 -81.5 Q602 -103 630.5 -119.5 Q659 -136 683 -136 Q712 -136 723 -115.5 Q734 -95 739 -66 L753 -66 Q753 -112 743.5 -150 Q734 -188 716.5 -215.5 Q699 -243 673.5 -258.5 Q648 -274 617 -274 Q580 -274 551 -257 Q522 -240 497.5 -214.5 Q473 -189 452.5 -159 Q432 -129 412.5 -103.5 Q393 -78 372.5 -61 Q352 -44 329 -44 Q312 -44 296.5 -54 Q281 -64 281 -87 Q281 -93 281.5 -97.5 Q282 -102 283 -106 L266 -106 Q264 -101 263 -95 Q262 -89 262 -81 Q262 -57 277 -37.5 Q292 -18 321 -7 Q253 -1 198.5 29 Q144 59 105 106.5 Q66 154 45 217 Q24 280 24 354 Q24 434 49 500 Q74 566 119.5 613 Q165 660 228 686 Q291 712 368 712 Z M368 19 Q398 19 417 42.5 Q436 66 447 110 Q458 154 462 215.5 Q466 277 466 354 Q466 430 461.5 491 Q457 552 446 595 Q435 638 416 660.5 Q397 683 368 683 Q339 683 320 660.5 Q301 638 290 595 Q279 552 275 491 Q271 430 271 354 Q271 277 275 215.5 Q279 154 290 110 Q301 66 319.5 42.5 Q338 19 368 19 Z " />
<glyph glyph-name="R" unicode="R" horiz-adv-x="749" d="M668 524 Q668 494 659 467.5 Q650 441 630 419 Q610 397 577.5 381 Q545 365 499 356 Q531 354 559.5 345 Q588 336 610.5 319.5 Q633 303 647.5 278.5 Q662 254 666 221 L675 150 Q682 94 690.5 75.5 Q699 57 713 57 Q724 57 729.5 63.5 Q735 70 741 81 L757 67 Q737 36 696.5 14 Q656 -8 602 -8 Q571 -8 544 -2 Q517 4 496 20.5 Q475 37 461 66 Q447 95 441 142 L431 224 Q423 287 403.5 313.5 Q384 340 352 340 L321 340 L321 26 L402 26 L402 0 L17 0 L17 26 L89 26 L89 672 L17 672 L17 698 L391 698 Q471 698 524.5 683 Q578 668 610 644 Q642 620 655 588.5 Q668 557 668 524 Z M321 672 L321 367 L364 367 Q380 367 395.5 375 Q411 383 422 401 Q433 419 440 447.5 Q447 476 447 517 Q447 600 421.5 636 Q396 672 347 672 L321 672 Z " />
<glyph glyph-name="S" unicode="S" horiz-adv-x="572" d="M249 24 Q272 24 294.5 30.5 Q317 37 334.5 49.5 Q352 62 363 80 Q374 98 374 122 Q374 135 369.5 150 Q365 165 350.5 182.5 Q336 200 308.5 220 Q281 240 235 263 Q187 287 149.5 309.5 Q112 332 86 359 Q60 386 46.5 420 Q33 454 33 501 Q33 543 51 581.5 Q69 620 103 649 Q137 678 186 695 Q235 712 297 712 Q355 712 396 700.5 Q437 689 463.5 670 Q490 651 502.5 628 Q515 605 515 583 Q515 546 493.5 521 Q472 496 433 496 Q409 496 388 506.5 Q367 517 353 534 L446 643 Q424 660 393.5 671 Q363 682 328 682 Q277 682 243 658.5 Q209 635 209 593 Q209 555 242 523 Q275 491 353 454 Q407 428 445 401.5 Q483 375 506.5 346 Q530 317 541 284 Q552 251 552 213 Q552 160 530.5 119 Q509 78 470 50 Q431 22 377 7 Q323 -8 259 -8 Q211 -8 170.5 2.5 Q130 13 100.5 31.5 Q71 50 54.5 76 Q38 102 38 134 Q38 175 62 198.5 Q86 222 121 222 Q173 222 208 181 L118 63 Q144 45 177.5 34.5 Q211 24 249 24 Z " />
<glyph glyph-name="T" unicode="T" horiz-adv-x="655" d="M18 477 L18 698 L637 698 L637 477 L617 477 Q608 537 589.5 575 Q571 613 547.5 634.5 Q524 656 497 664 Q470 672 444 672 L444 26 L526 26 L526 0 L129 0 L129 26 L211 26 L211 672 Q183 672 156 664 Q129 656 106 634.5 Q83 613 65.5 575 Q48 537 39 477 L18 477 Z " />
<glyph glyph-name="U" unicode="U" horiz-adv-x="692" d="M412 698 L412 672 L330 672 L330 203 Q330 158 339 126.5 Q348 95 364 76 Q380 57 403 48.5 Q426 40 454 40 Q511 40 544.5 85 Q578 130 578 218 L578 672 L496 672 L496 698 L682 698 L682 672 L611 672 L611 251 Q611 193 599.5 145 Q588 97 558.5 63 Q529 29 479.5 10.5 Q430 -8 355 -8 Q298 -8 251 8 Q204 24 170.5 56.5 Q137 89 118 138 Q99 187 99 253 L99 672 L17 672 L17 698 L412 698 Z " />
<glyph glyph-name="V" unicode="V" horiz-adv-x="651" d="M445 224 Q475 290 502 352.5 Q529 415 549.5 468.5 Q570 522 582.5 563 Q595 604 595 628 Q595 656 583 664 Q571 672 555 672 L422 672 Q420 677 420 680.5 Q420 684 420 689 Q420 704 425 721.5 Q430 739 442.5 754 Q455 769 476 779 Q497 789 528 789 Q556 789 576.5 779 Q597 769 610.5 752 Q624 735 630.5 712.5 Q637 690 637 665 Q637 637 624 591 Q611 545 589.5 488 Q568 431 540.5 366 Q513 301 483.5 236.5 Q454 172 424.5 111 Q395 50 370 0 L304 0 L37 672 L-14 672 L-14 698 L353 698 L353 672 L279 672 L445 224 Z " />
<glyph glyph-name="W" unicode="W" horiz-adv-x="1012" d="M401 698 L739 698 L739 672 L681 672 L831 241 Q858 305 882 366.5 Q906 428 924 480 Q942 532 952.5 571 Q963 610 963 628 Q963 656 951.5 664 Q940 672 923 672 L794 672 Q791 681 791 689 Q791 704 795.5 721.5 Q800 739 811.5 754 Q823 769 843 779 Q863 789 895 789 Q922 789 941.5 779 Q961 769 974.5 752 Q988 735 994.5 712.5 Q1001 690 1001 665 Q1001 634 989 587 Q977 540 957.5 483 Q938 426 912 362 Q886 298 858 234.5 Q830 171 802 110.5 Q774 50 750 0 L684 0 L542 396 L365 0 L287 0 L46 672 L-5 672 L-5 698 L338 698 L338 672 L284 672 L430 224 L525 440 L443 672 L401 672 L401 698 Z " />
<glyph glyph-name="X" unicode="X" horiz-adv-x="695" d="M256 292 L110 26 L200 26 L200 0 L5 0 L5 26 L67 26 L237 331 L66 672 L2 672 L2 698 L428 698 L428 672 L326 672 L451 421 L586 672 L513 672 L513 698 L693 698 L693 672 L629 672 L469 384 L648 26 L693 26 L693 0 L288 0 L288 26 L389 26 L256 292 Z " />
<glyph glyph-name="Y" unicode="Y" horiz-adv-x="693" d="M552 26 L552 0 L157 0 L157 26 L238 26 L238 295 L67 672 L-9 672 L-9 698 L415 698 L415 672 L327 672 L459 360 L590 672 L508 672 L508 698 L702 698 L702 672 L626 672 L470 307 L470 26 L552 26 Z " />
<glyph glyph-name="Z" unicode="Z" horiz-adv-x="639" d="M620 698 L620 687 L260 26 L369 26 Q463 26 512.5 78.5 Q562 131 576 241 L602 241 L587 0 L19 0 L19 26 L378 672 L197 672 Q171 672 149 667 Q127 662 116 654 L212 529 Q200 514 177 500.5 Q154 487 119 487 Q86 487 60.5 510.5 Q35 534 35 573 Q35 603 47.5 626 Q60 649 81.5 665 Q103 681 132.5 689.5 Q162 698 196 698 L620 698 Z " />
<glyph glyph-name="bracketleft" unicode="&#x5b;" horiz-adv-x="441" d="M103 737 L417 737 L417 709 L298 709 L298 -115 L417 -115 L417 -143 L103 -143 L103 737 Z " />
<glyph glyph-name="backslash" unicode="&#x5c;" horiz-adv-x="408" d="M370 -38 L310 -38 L38 733 L99 733 L370 -38 Z " />
<glyph glyph-name="bracketright" unicode="&#x5d;" horiz-adv-x="441" d="M337 -143 L23 -143 L23 -115 L143 -115 L143 709 L23 709 L23 737 L337 737 L337 -143 Z " />
<glyph glyph-name="asciicircum" unicode="&#x5e;" horiz-adv-x="649" d="M493 306 L325 585 L156 306 L115 306 L299 655 L353 655 L534 306 L493 306 Z " />
<glyph glyph-name="underscore" unicode="&#x5f;" horiz-adv-x="470" d="M0 -118 L0 -46 L470 -46 L470 -118 L0 -118 Z " />
<glyph glyph-name="grave" unicode="&#x60;" horiz-adv-x="470" d="M367 525 L314 525 L165 592 Q132 607 123 622.5 Q114 638 114 655 Q114 675 131.5 693.5 Q149 712 183 712 Q213 712 233 699.5 Q253 687 273 660 L367 525 Z " />
<glyph glyph-name="a" unicode="a" horiz-adv-x="520" d="M195 447 Q173 447 160 439 Q147 431 140 425 L202 313 Q191 299 168.5 286.5 Q146 274 116 274 Q83 274 56.5 292.5 Q30 311 30 352 Q30 382 47.5 405 Q65 428 94 444.5 Q123 461 160.5 469.5 Q198 478 238 478 Q304 478 347.5 466 Q391 454 416.5 428.5 Q442 403 452.5 364 Q463 325 463 271 L463 86 Q463 50 487 50 Q495 50 501.5 55 Q508 60 512 67 L525 53 Q498 21 465 6.5 Q432 -8 388 -8 Q352 -8 322 10 Q292 28 273 62 Q247 28 211 10 Q175 -8 133 -8 Q79 -8 47 16.5 Q15 41 15 98 Q15 141 39 168.5 Q63 196 100 212 Q137 228 180 234 Q223 240 261 242 L261 372 Q261 393 255.5 407 Q250 421 241 430 Q232 439 220 443 Q208 447 195 447 Z M261 221 Q227 219 204 199.5 Q181 180 181 137 Q181 92 197 76.5 Q213 61 233 61 Q252 61 261 72 L261 221 Z " />
<glyph glyph-name="b" unicode="b" horiz-adv-x="599" d="M310 -8 Q274 -8 249.5 -3 Q225 2 204.5 8 Q184 14 165.5 19 Q147 24 123 24 Q80 24 44 -21 L26 -8 Q42 14 49.5 33.5 Q57 53 57 86 L57 700 L5 700 L5 727 L270 727 L270 436 Q283 453 311 465.5 Q339 478 379 478 Q471 478 525.5 416 Q580 354 580 241 Q580 126 512.5 59 Q445 -8 310 -8 Z M270 96 Q270 47 281.5 32 Q293 17 313 17 Q338 17 353.5 68.5 Q369 120 369 239 Q369 298 363.5 335.5 Q358 373 350 394.5 Q342 416 331.5 424 Q321 432 311 432 Q291 432 280.5 411.5 Q270 391 270 362 L270 96 Z " />
<glyph glyph-name="c" unicode="c" horiz-adv-x="454" d="M438 59 Q408 26 364.5 9 Q321 -8 257 -8 Q204 -8 159.5 9 Q115 26 83 57 Q51 88 33 131.5 Q15 175 15 228 Q15 282 32.5 327.5 Q50 373 82 406.5 Q114 440 160.5 459 Q207 478 265 478 Q313 478 346.5 466.5 Q380 455 400 437.5 Q420 420 429 399 Q438 378 438 359 Q438 319 414 291.5 Q390 264 352 264 Q324 264 300.5 276 Q277 288 266 308 L379 428 Q372 438 352.5 444 Q333 450 316 450 Q273 450 251 391.5 Q229 333 229 237 Q229 135 257.5 83.5 Q286 32 330 32 Q359 32 382 46 Q405 60 423 78 L438 59 Z " />
<glyph glyph-name="d" unicode="d" horiz-adv-x="611" d="M547 86 Q547 50 571 50 Q579 50 585 55 Q591 60 596 67 L609 53 Q581 21 548.5 6.5 Q516 -8 472 -8 Q423 -8 389 9 Q355 26 335 54 Q313 19 284.5 5.5 Q256 -8 211 -8 Q167 -8 132 11.5 Q97 31 71.5 64 Q46 97 32.5 141 Q19 185 19 234 Q19 281 33.5 325 Q48 369 75.5 403 Q103 437 141.5 457.5 Q180 478 228 478 Q270 478 294 470 Q318 462 335 450 L335 700 L283 700 L283 727 L547 727 L547 86 Z M284 41 Q299 41 309 55.5 Q319 70 324.5 94 Q330 118 332.5 148 Q335 178 335 209 L335 349 Q335 377 330.5 395 Q326 413 319 423 Q312 433 304 436.5 Q296 440 289 440 Q257 440 245 390 Q233 340 233 234 Q233 128 245.5 84.5 Q258 41 284 41 Z " />
<glyph glyph-name="e" unicode="e" horiz-adv-x="491" d="M273 478 Q323 478 361.5 466.5 Q400 455 426 436 Q452 417 465 391 Q478 365 478 337 Q478 302 463.5 275.5 Q449 249 423.5 231 Q398 213 363.5 204 Q329 195 288 195 Q271 195 255.5 196 Q240 197 229 199 Q231 155 241.5 124.5 Q252 94 268.5 74 Q285 54 306 45 Q327 36 351 36 Q414 36 465 92 L480 75 Q464 58 444.5 43 Q425 28 400.5 16.5 Q376 5 345 -1.5 Q314 -8 276 -8 Q218 -8 170 7.5 Q122 23 87.5 53 Q53 83 34 127 Q15 171 15 227 Q15 281 33.5 326.5 Q52 372 86 406 Q120 440 167.5 459 Q215 478 273 478 Z M278 452 Q265 452 255.5 438 Q246 424 239.5 400 Q233 376 230 344.5 Q227 313 227 279 Q227 265 227.5 252 Q228 239 229 226 Q234 224 240.5 222.5 Q247 221 258 221 Q282 221 296.5 250.5 Q311 280 311 351 Q311 393 302 422.5 Q293 452 278 452 Z " />
<glyph glyph-name="f" unicode="f" horiz-adv-x="381" d="M295 740 Q340 740 371.5 729.5 Q403 719 423 703 Q443 687 452 667.5 Q461 648 461 630 Q461 591 438 569 Q415 547 384 547 Q349 547 330.5 560.5 Q312 574 307 581 L403 682 Q395 696 378 704 Q361 712 344 712 Q271 712 271 618 L271 467 L399 467 L399 441 L271 441 L271 26 L357 26 L357 0 L6 0 L6 26 L58 26 L58 383 Q58 409 46.5 425 Q35 441 8 441 L-9 441 L-9 467 L58 467 L58 489 Q58 532 71.5 576.5 Q85 621 114 657.5 Q143 694 188 717 Q233 740 295 740 Z " />
<glyph glyph-name="g" unicode="g" horiz-adv-x="489" d="M244 478 Q282 478 318 473 Q354 468 380 459 Q404 475 412 488 Q420 501 420 509 Q420 519 411.5 524.5 Q403 530 375 530 L294 530 Q290 541 290 554 Q290 583 313.5 607 Q337 631 380 631 Q420 631 446 608 Q472 585 472 551 Q472 486 399 446 Q431 425 448.5 393 Q466 361 466 325 Q466 295 452.5 266 Q439 237 411.5 214.5 Q384 192 342 178 Q300 164 244 164 Q202 164 171 170 Q140 176 118 181 Q113 176 109.5 168.5 Q106 161 106 153 Q106 140 118.5 132.5 Q131 125 156 119 Q181 113 218 107.5 Q255 102 303 93 Q394 76 442.5 43.5 Q491 11 491 -47 Q491 -92 468 -124.5 Q445 -157 408.5 -177 Q372 -197 327.5 -206.5 Q283 -216 240 -216 Q191 -216 148 -208.5 Q105 -201 73.5 -188 Q42 -175 24 -157 Q6 -139 6 -118 Q6 -86 30 -65.5 Q54 -45 92 -40 Q70 -33 54.5 -20 Q39 -7 29 8 Q19 23 14.5 39.5 Q10 56 10 70 Q10 93 17.5 111.5 Q25 130 37.5 145 Q50 160 65.5 171.5 Q81 183 96 191 Q64 209 43.5 242 Q23 275 23 314 Q23 338 33.5 367 Q44 396 69.5 420.5 Q95 445 137.5 461.5 Q180 478 244 478 Z M338 -133 Q338 -111 313.5 -99 Q289 -87 254 -79.5 Q219 -72 181 -66 Q143 -60 117 -49 Q107 -61 102.5 -71.5 Q98 -82 98 -102 Q98 -136 134 -160 Q170 -184 236 -184 Q278 -184 308 -171.5 Q338 -159 338 -133 Z M244 193 Q256 193 264 204.5 Q272 216 277.5 233.5 Q283 251 285 272.5 Q287 294 287 314 Q287 336 285 360.5 Q283 385 277.5 406 Q272 427 264 440.5 Q256 454 244 454 Q232 454 224 440.5 Q216 427 211.5 406 Q207 385 205 360.5 Q203 336 203 314 Q203 294 205 272.5 Q207 251 211.5 233.5 Q216 216 224 204.5 Q232 193 244 193 Z " />
<glyph glyph-name="h" unicode="h" horiz-adv-x="645" d="M509 -8 Q446 -8 408.5 27.5 Q371 63 371 144 L371 337 Q371 383 359.5 400.5 Q348 418 326 418 Q306 418 287.5 398 Q269 378 269 331 L269 26 L320 26 L320 0 L5 0 L5 26 L57 26 L57 700 L5 700 L5 727 L269 727 L269 406 Q276 419 290 432 Q304 445 323 455 Q342 465 366 471.5 Q390 478 419 478 Q464 478 495.5 465.5 Q527 453 546.5 432 Q566 411 575 383 Q584 355 584 323 L584 86 Q584 50 607 50 Q615 50 620 54 Q625 58 630 65 L643 51 Q615 19 584 5.5 Q553 -8 509 -8 Z " />
<glyph glyph-name="i" unicode="i" horiz-adv-x="346" d="M277 467 L277 26 L329 26 L329 0 L13 0 L13 26 L66 26 L66 441 L13 441 L13 467 L277 467 Z M274 619 Q274 598 266 579.5 Q258 561 244.5 547.5 Q231 534 213 526.5 Q195 519 175 519 Q155 519 137.5 526.5 Q120 534 106.5 547.5 Q93 561 85.5 579.5 Q78 598 78 619 Q78 639 85.5 656.5 Q93 674 106.5 687.5 Q120 701 137.5 708.5 Q155 716 175 716 Q195 716 213 708.5 Q231 701 244.5 687.5 Q258 674 266 656.5 Q274 639 274 619 Z " />
<glyph glyph-name="j" unicode="j" horiz-adv-x="323" d="M-56 -216 Q-35 -214 -15 -206.5 Q5 -199 21 -180 Q37 -161 47 -129 Q57 -97 57 -47 L57 441 L5 441 L5 467 L262 467 L262 105 Q262 19 234.5 -44 Q207 -107 162.5 -148.5 Q118 -190 62 -212 Q6 -234 -50 -238 L-56 -216 Z M261 619 Q261 598 253.5 579.5 Q246 561 232.5 547.5 Q219 534 201 526.5 Q183 519 163 519 Q143 519 125.5 526.5 Q108 534 94.5 547.5 Q81 561 73.5 579.5 Q66 598 66 619 Q66 639 73.5 656.5 Q81 674 94.5 687.5 Q108 701 125.5 708.5 Q143 716 163 716 Q183 716 201 708.5 Q219 701 232.5 687.5 Q246 674 253.5 656.5 Q261 639 261 619 Z " />
<glyph glyph-name="k" unicode="k" horiz-adv-x="603" d="M609 47 Q567 -8 488 -8 Q461 -8 436 -2 Q411 4 392.5 19 Q374 34 362.5 58.5 Q351 83 351 120 L351 197 Q351 216 344.5 224 Q338 232 328 232 Q321 232 313 229.5 Q305 227 292 222 L269 213 L269 26 L320 26 L320 0 L5 0 L5 26 L57 26 L57 700 L5 700 L5 727 L269 727 L269 239 L386 282 Q447 305 470 322.5 Q493 340 493 351 Q493 359 484.5 363.5 Q476 368 450 368 L367 368 Q363 379 363 393 Q363 408 369 423.5 Q375 439 387 451 Q399 463 418 470.5 Q437 478 463 478 Q509 478 535 456.5 Q561 435 561 403 Q561 361 527 332 Q493 303 440 281 L387 259 Q398 262 412.5 264.5 Q427 267 441 267 Q462 267 481.5 259.5 Q501 252 516.5 237 Q532 222 541.5 200 Q551 178 551 150 L551 86 Q551 50 572 50 Q586 50 596 62 L609 47 Z " />
<glyph glyph-name="l" unicode="l" horiz-adv-x="337" d="M258 102 Q258 65 270.5 50.5 Q283 36 303 36 Q316 36 327 42.5 Q338 49 345 60 L356 47 Q327 13 287.5 2.5 Q248 -8 211 -8 Q179 -8 149 -1 Q119 6 96 25.5 Q73 45 59.5 80.5 Q46 116 46 172 L46 700 L-6 700 L-6 727 L258 727 L258 102 Z " />
<glyph glyph-name="m" unicode="m" horiz-adv-x="955" d="M587 409 Q634 478 731 478 Q777 478 808.5 465.5 Q840 453 859.5 432 Q879 411 887.5 383 Q896 355 896 323 L896 86 Q896 50 919 50 Q927 50 932 54 Q937 58 942 65 L955 51 Q927 19 896 5.5 Q865 -8 821 -8 Q758 -8 720.5 27.5 Q683 63 683 144 L683 337 Q683 383 671 399.5 Q659 416 637 416 Q617 416 602 396.5 Q587 377 587 329 L587 26 L648 26 L648 0 L342 0 L342 26 L376 26 L376 337 Q376 383 362.5 400.5 Q349 418 327 418 Q307 418 292 398.5 Q277 379 277 331 L277 26 L309 26 L309 0 L13 0 L13 26 L66 26 L66 441 L13 441 L13 467 L277 467 L277 406 Q292 432 328.5 455 Q365 478 423 478 Q476 478 517 463.5 Q558 449 587 409 Z " />
<glyph glyph-name="n" unicode="n" horiz-adv-x="654" d="M592 86 Q592 50 616 50 Q624 50 630 55 Q636 60 641 67 L654 53 Q627 21 594 6.5 Q561 -8 517 -8 Q454 -8 417 27.5 Q380 63 380 144 L380 337 Q380 383 368.5 400.5 Q357 418 335 418 Q314 418 295.5 398 Q277 378 277 331 L277 26 L328 26 L328 0 L13 0 L13 26 L66 26 L66 441 L13 441 L13 467 L277 467 L277 406 Q284 419 298 432 Q312 445 331 455 Q350 465 374.5 471.5 Q399 478 428 478 Q473 478 504.5 465.5 Q536 453 555.5 432 Q575 411 583.5 383 Q592 355 592 323 L592 86 Z " />
<glyph glyph-name="o" unicode="o" horiz-adv-x="575" d="M288 478 Q355 478 406 457.5 Q457 437 490.5 403 Q524 369 541 325 Q558 281 558 235 Q558 188 541 144.5 Q524 101 490 67 Q456 33 405.5 12.5 Q355 -8 288 -8 Q220 -8 169.5 12.5 Q119 33 85 67 Q51 101 34 144.5 Q17 188 17 235 Q17 281 34 325 Q51 369 84.5 403 Q118 437 169 457.5 Q220 478 288 478 Z M288 19 Q322 19 333 74 Q344 129 344 235 Q344 341 331.5 396.5 Q319 452 288 452 Q256 452 243.5 396.5 Q231 341 231 235 Q231 129 242.5 74 Q254 19 288 19 Z " />
<glyph glyph-name="p" unicode="p" horiz-adv-x="599" d="M270 -173 L321 -173 L321 -199 L4 -199 L4 -173 L57 -173 L57 441 L5 441 L5 467 L270 467 L270 423 Q276 431 286.5 440.5 Q297 450 312 458.5 Q327 467 345.5 472.5 Q364 478 387 478 Q433 478 468.5 461 Q504 444 529 414 Q554 384 567 342 Q580 300 580 250 Q580 189 564 141 Q548 93 519.5 60 Q491 27 451.5 9.5 Q412 -8 365 -8 Q333 -8 310 -3.5 Q287 1 270 9 L270 -173 Z M270 50 Q278 41 286 34.5 Q294 28 308 28 Q322 28 333 38.5 Q344 49 351.5 73.5 Q359 98 362.5 138.5 Q366 179 366 238 Q366 297 361 333.5 Q356 370 348.5 390 Q341 410 331 417 Q321 424 311 424 Q291 424 280.5 403.5 Q270 383 270 353 L270 50 Z " />
<glyph glyph-name="q" unicode="q" horiz-adv-x="603" d="M282 41 Q297 41 307 54 Q317 67 322.5 86.5 Q328 106 330.5 127 Q333 148 333 165 L333 360 Q333 388 328.5 406 Q324 424 317 434 Q310 444 302 447.5 Q294 451 287 451 Q255 451 243 395.5 Q231 340 231 234 Q231 128 243.5 84.5 Q256 41 282 41 Z M267 478 Q311 478 341 472.5 Q371 467 393.5 460 Q416 453 435.5 447.5 Q455 442 479 442 Q524 442 558 487 L576 474 Q561 453 553 433 Q545 413 545 380 L545 -173 L597 -173 L597 -199 L279 -199 L279 -173 L333 -173 L333 54 Q312 19 283 5.5 Q254 -8 209 -8 Q162 -8 126 11.5 Q90 31 66 64 Q42 97 29.5 141 Q17 185 17 234 Q17 286 34.5 330.5 Q52 375 84.5 408 Q117 441 163.5 459.5 Q210 478 267 478 Z " />
<glyph glyph-name="r" unicode="r" horiz-adv-x="513" d="M277 392 Q283 408 293 423.5 Q303 439 318 451 Q333 463 353 470.5 Q373 478 399 478 Q423 478 443.5 469.5 Q464 461 478.5 446 Q493 431 501 412 Q509 393 509 372 Q509 323 477 292.5 Q445 262 397 262 Q370 262 344.5 275 Q319 288 309 304 L436 437 Q428 444 418 447 Q408 450 389 450 Q367 450 346.5 439 Q326 428 310.5 407 Q295 386 286 356 Q277 326 277 288 L277 26 L347 26 L347 0 L13 0 L13 26 L66 26 L66 441 L13 441 L13 467 L277 467 L277 392 Z " />
<glyph glyph-name="s" unicode="s" horiz-adv-x="440" d="M181 19 Q214 19 237 31 Q260 43 260 70 Q260 83 255 95 Q250 107 237 119.5 Q224 132 201 146 Q178 160 143 177 Q76 208 49.5 248 Q23 288 23 322 Q23 397 79.5 437.5 Q136 478 236 478 Q312 478 359 455 Q406 432 406 391 Q406 362 387.5 345 Q369 328 343 328 Q322 328 306.5 336 Q291 344 283 352 L345 419 Q335 430 314 440 Q293 450 267 450 Q229 450 213.5 435.5 Q198 421 198 401 Q198 378 219 359 Q240 340 294 313 Q354 284 388.5 247.5 Q423 211 423 160 Q423 114 405.5 82 Q388 50 358 30 Q328 10 287.5 1 Q247 -8 201 -8 Q171 -8 140 -3 Q109 2 84 13 Q59 24 43.5 41.5 Q28 59 28 84 Q28 109 45 127.5 Q62 146 90 146 Q111 146 124 139 Q137 132 147 117 L84 49 Q102 35 127 27 Q152 19 181 19 Z " />
<glyph glyph-name="t" unicode="t" horiz-adv-x="373" d="M52 440 L-2 440 L-2 467 L31 467 Q107 467 157 512.5 Q207 558 233 633 L243 663 L264 663 L264 467 L368 467 L368 440 L264 440 L264 108 Q264 68 278.5 55 Q293 42 315 42 Q329 42 342.5 48.5 Q356 55 365 64 L381 49 Q347 18 306 5 Q265 -8 211 -8 Q176 -8 147 2 Q118 12 97 33 Q76 54 64 88 Q52 122 52 170 L52 440 Z " />
<glyph glyph-name="u" unicode="u" horiz-adv-x="644" d="M580 86 Q580 50 603 50 Q611 50 617.5 55 Q624 60 629 67 L642 53 Q614 21 581.5 6.5 Q549 -8 505 -8 Q458 -8 425.5 11 Q393 30 378 72 Q369 58 355 43.5 Q341 29 321.5 17.5 Q302 6 276.5 -1 Q251 -8 220 -8 Q175 -8 143.5 4 Q112 16 92.5 37 Q73 58 64.5 86 Q56 114 56 146 L56 441 L6 441 L6 467 L268 467 L268 132 Q268 86 279 69 Q290 52 312 52 Q332 52 350 71.5 Q368 91 368 138 L368 441 L318 441 L318 467 L580 467 L580 86 Z " />
<glyph glyph-name="v" unicode="v" horiz-adv-x="492" d="M224 441 L340 128 Q373 188 393 234.5 Q413 281 424 315 Q435 349 438.5 370.5 Q442 392 442 403 Q442 424 432 433.5 Q422 443 396 443 L318 443 Q314 452 314 466 Q314 481 319 495 Q324 509 334.5 520.5 Q345 532 359.5 539 Q374 546 394 546 Q445 546 467 517 Q489 488 489 448 Q489 423 479.5 388 Q470 353 455 313.5 Q440 274 420.5 231.5 Q401 189 380 147.5 Q359 106 339 68 Q319 30 303 0 L174 0 L-7 441 L-61 441 L-61 467 L277 467 L277 441 L224 441 Z " />
<glyph glyph-name="w" unicode="w" horiz-adv-x="830" d="M780 403 Q780 424 770 433.5 Q760 443 734 443 L656 443 Q654 448 653 453.5 Q652 459 652 464 Q652 479 657.5 493.5 Q663 508 673.5 519.5 Q684 531 699.5 538 Q715 545 735 545 Q785 545 806 516.5 Q827 488 827 448 Q827 425 818.5 391 Q810 357 795.5 317 Q781 277 762 234 Q743 191 723 149 Q703 107 683.5 68.5 Q664 30 648 0 L517 0 L414 258 L301 0 L164 0 L-7 441 L-61 441 L-61 467 L263 467 L263 441 L220 441 L331 133 L399 294 L344 441 L308 441 L308 467 L614 467 L614 441 L571 441 L683 131 Q741 246 760.5 313.5 Q780 381 780 403 Z " />
<glyph glyph-name="x" unicode="x" horiz-adv-x="567" d="M190 186 L76 26 L131 26 L131 0 L-24 0 L-24 26 L39 26 L172 214 L27 441 L-21 441 L-21 467 L327 467 L327 441 L265 441 L365 285 L467 441 L413 441 L413 467 L572 467 L572 441 L505 441 L382 258 L530 26 L576 26 L576 0 L230 0 L230 26 L292 26 L190 186 Z " />
<glyph glyph-name="y" unicode="y" horiz-adv-x="455" d="M-14 441 L-61 441 L-61 467 L266 467 L266 441 L214 441 L309 215 L399 441 L353 441 L353 467 L483 467 L483 441 L430 441 L253 0 Q230 -57 212 -98 Q194 -139 176 -165 Q158 -191 137 -203.5 Q116 -216 88 -216 Q52 -216 29.5 -196.5 Q7 -177 7 -143 Q7 -130 10 -116 L114 -116 Q136 -116 149.5 -114 Q163 -112 173 -104.5 Q183 -97 191 -81 Q199 -65 210 -37 L-14 441 Z " />
<glyph glyph-name="z" unicode="z" horiz-adv-x="496" d="M182 441 Q151 441 129.5 438.5 Q108 436 86 431 L139 326 Q130 316 114 310 Q98 304 80 304 Q49 304 28.5 321.5 Q8 339 8 369 Q8 422 55.5 444.5 Q103 467 179 467 L489 467 L489 454 L233 24 L337 24 Q361 24 379.5 36 Q398 48 412 69 Q426 90 436.5 118.5 Q447 147 456 180 L471 180 L471 0 L14 0 L14 21 L269 441 L182 441 Z " />
<glyph glyph-name="braceleft" unicode="&#x7b;" horiz-adv-x="441" d="M28 301 L46 301 Q83 301 104.5 324.5 Q126 348 126 393 Q126 414 123.5 440 Q121 466 118.5 493 Q116 520 113.5 545.5 Q111 571 111 591 Q111 628 124.5 655.5 Q138 683 161 701.5 Q184 720 216 729 Q248 738 286 738 Q300 738 317.5 736.5 Q335 735 353 732 Q371 729 388 725 Q405 721 417 717 L417 690 Q406 693 392 695 Q378 697 364 697 Q326 697 310.5 676.5 Q295 656 295 619 Q295 581 302.5 530 Q310 479 310 422 Q310 371 276 334 Q242 297 184 289 Q242 281 276 243.5 Q310 206 310 155 Q310 98 302.5 47 Q295 -4 295 -42 Q295 -79 310.5 -99 Q326 -119 364 -119 Q378 -119 392 -117.5 Q406 -116 417 -113 L417 -140 Q405 -145 388 -148.5 Q371 -152 353 -155 Q335 -158 317.5 -159.5 Q300 -161 286 -161 Q248 -161 216 -152 Q184 -143 161 -124.5 Q138 -106 124.5 -78.5 Q111 -51 111 -14 Q111 6 113.5 31.5 Q116 57 118.5 84 Q121 111 123.5 137 Q126 163 126 184 Q126 229 104.5 252.5 Q83 276 46 276 L28 276 L28 301 Z " />
<glyph glyph-name="bar" unicode="&#x7c;" horiz-adv-x="282" d="M94 747 L188 747 L188 -155 L94 -155 L94 747 Z " />
<glyph glyph-name="braceright" unicode="&#x7d;" horiz-adv-x="441" d="M413 276 L395 276 Q358 276 336.5 252.5 Q315 229 315 184 Q315 163 317.5 137 Q320 111 322.5 84 Q325 57 327.5 31.5 Q330 6 330 -14 Q330 -51 316.5 -78.5 Q303 -106 280 -124.5 Q257 -143 224.5 -152 Q192 -161 155 -161 Q126 -161 87.5 -155 Q49 -149 23 -140 L23 -113 Q35 -116 49 -117.5 Q63 -119 77 -119 Q115 -119 130.5 -99 Q146 -79 146 -42 Q146 -4 138.5 47 Q131 98 131 155 Q131 206 165 243.5 Q199 281 257 289 Q199 297 165 334 Q131 371 131 422 Q131 479 138.5 530 Q146 581 146 619 Q146 656 130.5 676.5 Q115 697 77 697 Q63 697 49 695 Q35 693 23 690 L23 717 Q49 726 87.5 732 Q126 738 155 738 Q192 738 224.5 729 Q257 720 280 701.5 Q303 683 316.5 655.5 Q330 628 330 591 Q330 571 327.5 545.5 Q325 520 322.5 493 Q320 466 317.5 440 Q315 414 315 393 Q315 348 336.5 324.5 Q358 301 395 301 L413 301 L413 276 Z " />
<glyph glyph-name="asciitilde" unicode="&#x7e;" horiz-adv-x="649" d="M586 352 Q567 227 467 227 Q434 227 397 238 Q360 249 323 262.5 Q286 276 250 287 Q214 298 183 298 Q149 298 129 275.5 Q109 253 101 220 L62 220 Q80 345 180 345 Q214 345 251 334 Q288 323 325 309.5 Q362 296 397.5 285 Q433 274 464 274 Q498 274 518.5 296.5 Q539 319 547 352 L586 352 Z " />
<glyph glyph-name="uni00A0" unicode="&#xa0;" horiz-adv-x="185" d="" />
<glyph glyph-name="exclamdown" unicode="&#xa1;" horiz-adv-x="301" d="M149 478 Q184 478 205 456 Q226 434 226 403 Q226 371 205 349 Q184 327 149 327 Q114 327 93.5 349 Q73 371 73 403 Q73 434 93.5 456 Q114 478 149 478 Z M171 269 Q171 209 182 151.5 Q193 94 206.5 41.5 Q220 -11 231 -56.5 Q242 -102 242 -137 Q242 -185 218 -214 Q194 -243 150 -243 Q107 -243 83 -214 Q59 -185 59 -137 Q59 -101 70 -55.5 Q81 -10 94.5 42.5 Q108 95 119 152 Q130 209 130 269 L171 269 Z " />
<glyph glyph-name="cent" unicode="&#xa2;" horiz-adv-x="508" d="M357 604 L357 512 Q388 506 410.5 494 Q433 482 446.5 466.5 Q460 451 466.5 434 Q473 417 473 401 Q473 367 452 341 Q431 315 390 315 Q372 315 358.5 320 Q345 325 335.5 331.5 Q326 338 320 345 Q314 352 311 355 L414 459 Q405 472 390 481 Q375 490 358 490 Q332 490 314.5 472 Q297 454 286 423 Q275 392 270.5 350 Q266 308 266 260 Q266 152 294 92 Q322 32 367 32 Q395 32 418.5 48 Q442 64 460 83 L475 64 Q453 41 424 23 Q395 5 357 -3 L357 -89 L327 -89 L327 -7 Q317 -8 307.5 -8 Q298 -8 287 -8 Q243 -8 200.5 7 Q158 22 125 53.5 Q92 85 72 134.5 Q52 184 52 252 Q52 301 68.5 349 Q85 397 117 434.5 Q149 472 195.5 495 Q242 518 302 518 Q308 518 314.5 517.5 Q321 517 327 517 L327 604 L357 604 Z " />
<glyph glyph-name="sterling" unicode="&#xa3;" horiz-adv-x="620" d="M53 324 L127 324 Q119 353 115 378.5 Q111 404 111 435 Q111 486 133 527.5 Q155 569 192 598.5 Q229 628 276.5 643.5 Q324 659 374 659 Q427 659 464 644.5 Q501 630 524.5 609 Q548 588 558.5 563.5 Q569 539 569 519 Q569 475 542.5 446.5 Q516 418 478 418 Q443 418 418 434 Q393 450 382 470 L490 605 Q479 616 456.5 623.5 Q434 631 414 631 Q361 631 334.5 598.5 Q308 566 308 509 Q308 486 312.5 462 Q317 438 322 415 Q328 392 334 368.5 Q340 345 345 324 L475 324 L475 296 L351 296 Q354 263 354 228 Q354 174 333 138 Q312 102 283 79.5 Q254 57 222 44.5 Q190 32 168 25 L352 25 Q427 25 470.5 70.5 Q514 116 531 208 L562 208 L562 0 L33 0 L33 25 L72 25 Q117 25 140 55.5 Q163 86 163 130 Q163 167 153.5 213 Q144 259 134 296 L53 296 L53 324 Z " />
<glyph glyph-name="currency" unicode="&#xa4;" horiz-adv-x="639" d="M509 294 Q509 261 498 231.5 Q487 202 467 174 L525 116 L493 85 L436 143 Q406 121 378.5 111 Q351 101 315 101 Q280 101 252 111 Q224 121 195 143 L138 85 L105 116 L164 174 Q144 202 133 231.5 Q122 261 122 294 Q122 359 164 415 L105 473 L138 504 L195 446 Q224 468 252 478 Q280 488 315 488 Q351 488 378.5 478 Q406 468 436 446 L493 504 L525 473 L467 415 Q487 388 498 358 Q509 328 509 294 Z M162 294 Q162 261 173.5 232.5 Q185 204 205.5 183 Q226 162 254 150.5 Q282 139 315 139 Q348 139 376.5 150.5 Q405 162 425.5 183 Q446 204 458 232.5 Q470 261 470 294 Q470 328 458 356.5 Q446 385 425.5 405.5 Q405 426 376.5 437.5 Q348 449 315 449 Q282 449 254 437.5 Q226 426 205.5 405.5 Q185 385 173.5 356.5 Q162 328 162 294 Z " />
<glyph glyph-name="yen" unicode="&#xa5;" horiz-adv-x="714" d="M93 341 L211 341 L86 626 L28 626 L28 652 L429 652 L429 626 L351 626 L462 318 L593 626 L529 626 L529 652 L686 652 L686 626 L629 626 L508 341 L631 341 L631 309 L493 309 L478 271 L478 228 L631 228 L631 196 L478 196 L478 26 L559 26 L559 0 L164 0 L164 26 L245 26 L245 196 L93 196 L93 228 L245 228 L245 259 L226 309 L93 309 L93 341 Z " />
<glyph glyph-name="brokenbar" unicode="&#xa6;" horiz-adv-x="282" d="M94 206 L188 206 L188 -154 L94 -154 L94 206 Z M94 747 L188 747 L188 387 L94 387 L94 747 Z " />
<glyph glyph-name="section" unicode="&#xa7;" horiz-adv-x="636" d="M581 292 Q581 262 567.5 238 Q554 214 533 195.5 Q512 177 486 163.5 Q460 150 435 141 Q463 121 482.5 104 Q502 87 514 70.5 Q526 54 531.5 36.5 Q537 19 537 -3 Q537 -36 521 -65.5 Q505 -95 473.5 -117 Q442 -139 394.5 -151.5 Q347 -164 284 -164 Q229 -164 189.5 -152 Q150 -140 124.5 -121.5 Q99 -103 87 -81 Q75 -59 75 -39 Q75 -3 95.5 22 Q116 47 158 47 Q181 47 199 36.5 Q217 26 225 14 L133 -86 Q151 -109 181.5 -122.5 Q212 -136 250 -136 Q303 -136 327.5 -118 Q352 -100 352 -71 Q352 -48 343.5 -30.5 Q335 -13 315.5 4.5 Q296 22 265 41 Q234 60 189 86 Q120 127 86 165 Q52 203 52 255 Q52 286 65 310 Q78 334 99 352 Q120 370 145.5 383.5 Q171 397 197 406 Q168 426 148.5 443 Q129 460 117.5 476.5 Q106 493 101 510.5 Q96 528 96 550 Q96 583 112 612.5 Q128 642 159.5 664 Q191 686 238.5 699 Q286 712 349 712 Q403 712 442.5 700 Q482 688 507.5 669 Q533 650 545 628 Q557 606 557 587 Q557 550 536.5 525 Q516 500 475 500 Q452 500 434 510.5 Q416 521 408 533 L500 634 Q482 657 451 670.5 Q420 684 383 684 Q330 684 305 665.5 Q280 647 280 619 Q280 595 288.5 577.5 Q297 560 316.5 542.5 Q336 525 367.5 506 Q399 487 444 461 Q513 420 547 382 Q581 344 581 292 Z M440 197 Q440 220 418 244.5 Q396 269 362.5 294 Q329 319 290 343.5 Q251 368 218 391 Q193 375 193 350 Q193 327 215 302 Q237 277 270 252 Q303 227 342 202 Q381 177 415 155 Q440 174 440 197 Z " />
<glyph glyph-name="dieresis" unicode="&#xa8;" horiz-adv-x="470" d="M430 613 Q430 595 423.5 579.5 Q417 564 405.5 552.5 Q394 541 378 534 Q362 527 344 527 Q326 527 310.5 534 Q295 541 283.5 552.5 Q272 564 265 579.5 Q258 595 258 613 Q258 631 265 646.5 Q272 662 283.5 673.5 Q295 685 310.5 691.5 Q326 698 344 698 Q381 698 405.5 673 Q430 648 430 613 Z M212 613 Q212 595 205 579.5 Q198 564 186 552.5 Q174 541 158.5 534 Q143 527 126 527 Q88 527 64 552.5 Q40 578 40 613 Q40 648 64 673 Q88 698 126 698 Q143 698 158.5 691.5 Q174 685 186 673.5 Q198 662 205 646.5 Q212 631 212 613 Z " />
<glyph glyph-name="copyright" unicode="&#xa9;" horiz-adv-x="734" d="M503 220 Q480 193 450.5 177.5 Q421 162 379 162 Q334 162 300.5 177.5 Q267 193 244.5 219 Q222 245 211 279 Q200 313 200 350 Q200 384 212.5 417.5 Q225 451 249 477 Q273 503 307.5 519 Q342 535 386 535 Q415 535 436 527.5 Q457 520 470.5 508 Q484 496 490.5 481.5 Q497 467 497 454 Q497 434 485 423.5 Q473 413 457 413 Q443 413 435.5 418 Q428 423 424 428 L475 484 Q461 502 440.5 511.5 Q420 521 390 521 Q356 521 333 508 Q310 495 295.5 472.5 Q281 450 275 420 Q269 390 269 356 Q269 310 278.5 276.5 Q288 243 304 221.5 Q320 200 341.5 190 Q363 180 386 180 Q419 180 444.5 191.5 Q470 203 493 229 L503 220 Z M47 352 Q47 418 72 476 Q97 534 140.5 577.5 Q184 621 242.5 646.5 Q301 672 367 672 Q433 672 491 646.5 Q549 621 592.5 577.5 Q636 534 661.5 476 Q687 418 687 352 Q687 286 661.5 227.5 Q636 169 592.5 125.5 Q549 82 491 57 Q433 32 367 32 Q301 32 242.5 57 Q184 82 140.5 125.5 Q97 169 72 227.5 Q47 286 47 352 Z M94 352 Q94 295 115 243.5 Q136 192 173 153.5 Q210 115 260 92.5 Q310 70 367 70 Q424 70 474.5 92.5 Q525 115 562.5 153.5 Q600 192 621.5 243.5 Q643 295 643 352 Q643 409 621.5 460.5 Q600 512 562.5 551 Q525 590 474.5 612.5 Q424 635 367 635 Q310 635 260 612.5 Q210 590 173 551 Q136 512 115 460.5 Q94 409 94 352 Z " />
<glyph glyph-name="ordfeminine" unicode="&#xaa;" horiz-adv-x="349" d="M131 691 Q117 691 108 685.5 Q99 680 94 676 L135 601 Q127 591 112 583 Q97 575 77 575 Q56 575 38 587 Q20 599 20 627 Q20 647 31.5 663 Q43 679 62.5 690 Q82 701 107.5 706.5 Q133 712 160 712 Q204 712 233 703.5 Q262 695 279 678 Q296 661 303 634.5 Q310 608 310 572 L310 448 Q310 425 326 425 Q331 425 335.5 428.5 Q340 432 343 436 L352 427 Q316 385 260 385 Q236 385 215.5 397 Q195 409 182 432 Q165 409 141 397 Q117 385 89 385 Q53 385 31.5 402 Q10 419 10 457 Q10 486 26 504.5 Q42 523 67 533.5 Q92 544 120.5 548 Q149 552 175 553 L175 640 Q175 668 161.5 679.5 Q148 691 131 691 Z M175 539 Q152 537 136.5 524.5 Q121 512 121 483 Q121 453 131.5 442.5 Q142 432 156 432 Q169 432 175 440 L175 539 Z " />
<glyph glyph-name="guillemotleft" unicode="&#xab;" horiz-adv-x="567" d="M42 265 L247 452 L279 433 L203 240 L279 45 L247 26 L42 213 L42 265 Z M277 265 L482 452 L514 433 L438 240 L514 45 L482 26 L277 213 L277 265 Z " />
<glyph glyph-name="logicalnot" unicode="&#xac;" horiz-adv-x="649" d="M522 137 L522 312 L75 312 L75 358 L572 358 L572 137 L522 137 Z " />
<glyph glyph-name="uni00AD" unicode="&#xad;" horiz-adv-x="353" d="M50 289 L303 289 L303 215 L50 215 L50 289 Z " />
<glyph glyph-name="registered" unicode="&#xae;" horiz-adv-x="410" d="M276 569 Q276 552 264 538.5 Q252 525 227 521 Q244 518 252.5 504.5 Q261 491 266 464 L267 460 Q270 445 274 439 Q278 433 285 433 Q289 433 290.5 435 Q292 437 295 442 L300 437 Q296 429 290.5 423.5 Q285 418 273 418 Q262 418 250.5 426 Q239 434 233 462 L231 472 Q227 493 222 503.5 Q217 514 200 514 L175 514 L175 429 L200 429 L200 421 L120 421 L120 429 L143 429 L143 607 L120 607 L120 618 L208 618 Q248 618 262 603.5 Q276 589 276 569 Z M175 607 L175 524 L195 524 Q239 524 239 569 Q239 592 228.5 599.5 Q218 607 195 607 L175 607 Z M205 704 Q244 704 277.5 689 Q311 674 336.5 648.5 Q362 623 376.5 589 Q391 555 391 516 Q391 477 376.5 443 Q362 409 336.5 383.5 Q311 358 277.5 343.5 Q244 329 205 329 Q166 329 132.5 343.5 Q99 358 73.5 383.5 Q48 409 33.5 443 Q19 477 19 516 Q19 555 33.5 589 Q48 623 73.5 648.5 Q99 674 132.5 689 Q166 704 205 704 Z M205 680 Q172 680 143 666.5 Q114 653 93 630.5 Q72 608 59.5 578.5 Q47 549 47 516 Q47 483 59.5 453.5 Q72 424 93 402.5 Q114 381 143 368 Q172 355 205 355 Q238 355 266.5 368 Q295 381 316.5 402.5 Q338 424 350.5 453.5 Q363 483 363 516 Q363 549 350.5 578.5 Q338 608 316.5 630.5 Q295 653 266.5 666.5 Q238 680 205 680 Z " />
<glyph glyph-name="macron" unicode="&#xaf;" horiz-adv-x="470" d="M70 555 L70 655 L380 655 L380 555 L70 555 Z " />
<glyph glyph-name="degree" unicode="&#xb0;" horiz-adv-x="338" d="M96 580 Q96 545 117.5 524 Q139 503 169 503 Q200 503 221.5 524 Q243 545 243 580 Q243 615 221.5 639 Q200 663 169 663 Q139 663 117.5 639 Q96 615 96 580 Z M38 580 Q38 607 48.5 631 Q59 655 76.5 673 Q94 691 118 701.5 Q142 712 169 712 Q196 712 220 701.5 Q244 691 262 673 Q280 655 290.5 631 Q301 607 301 580 Q301 553 290.5 529.5 Q280 506 262 488.5 Q244 471 220 461 Q196 451 169 451 Q142 451 118 461 Q94 471 76.5 488.5 Q59 506 48.5 529.5 Q38 553 38 580 Z " />
<glyph glyph-name="plusminus" unicode="&#xb1;" horiz-adv-x="649" d="M352 320 L352 159 L296 159 L296 320 L74 320 L74 367 L296 367 L296 526 L352 526 L352 367 L573 367 L573 320 L352 320 Z M74 66 L74 111 L573 111 L573 66 L74 66 Z " />
<glyph glyph-name="twosuperior" unicode="&#xb2;" horiz-adv-x="390" d="M28 317 Q39 343 57.5 365.5 Q76 388 99 410 Q122 433 143.5 453 Q165 473 182 495 Q199 517 209.5 543.5 Q220 570 220 605 Q220 638 203 660 Q186 682 151 682 Q131 682 115 674 Q99 666 89 655 L162 570 Q154 555 138 546 Q122 537 100 537 Q76 537 58.5 552 Q41 567 41 598 Q41 616 49.5 636 Q58 656 77 673 Q96 690 127.5 701 Q159 712 206 712 Q244 712 270.5 701.5 Q297 691 313 675.5 Q329 660 336 641 Q343 622 343 606 Q343 564 321 533 Q299 502 264 478 Q244 464 223.5 452 Q203 440 182 428 Q159 415 139 403 Q119 391 103 378 Q129 389 157.5 398.5 Q186 408 212 408 Q232 408 249 405.5 Q266 403 285 403 Q302 403 315.5 413 Q329 423 336 459 L348 459 L348 319 Q332 314 318.5 313 Q305 312 288 312 Q264 312 239.5 315.5 Q215 319 192 323 Q169 327 148 330.5 Q127 334 111 334 Q90 334 72 329 Q54 324 40 307 L28 317 Z " />
<glyph glyph-name="threesuperior" unicode="&#xb3;" horiz-adv-x="359" d="M144 602 Q134 587 121 581 Q108 575 93 575 Q72 575 57.5 589 Q43 603 43 627 Q43 637 48.5 652 Q54 667 68.5 680 Q83 693 109 702.5 Q135 712 176 712 Q243 712 275.5 684.5 Q308 657 308 622 Q308 582 286 558.5 Q264 535 229 525 Q273 516 294.5 490 Q316 464 316 430 Q316 377 277 344.5 Q238 312 162 312 Q99 312 66 336.5 Q33 361 33 391 Q33 413 47 429.5 Q61 446 91 446 Q108 446 120 441 Q132 436 142 426 L75 352 Q85 345 97.5 339 Q110 333 127 333 Q163 333 179 358.5 Q195 384 195 420 Q195 463 176.5 487 Q158 511 120 511 L94 511 L94 529 L119 529 Q154 529 169.5 555.5 Q185 582 185 620 Q185 659 167.5 673.5 Q150 688 130 688 Q114 688 100.5 681.5 Q87 675 82 670 L144 602 Z " />
<glyph glyph-name="acute" unicode="&#xb4;" horiz-adv-x="470" d="M205 660 Q225 685 247.5 698.5 Q270 712 303 712 Q329 712 345 697.5 Q361 683 361 661 Q361 640 348.5 622 Q336 604 304 590 L164 528 L95 528 L205 660 Z " />
<glyph glyph-name="mu" unicode="&#xb5;" horiz-adv-x="645" d="M608 86 Q608 50 632 50 Q640 50 646 55 Q652 60 657 67 L670 53 Q643 21 610 6.5 Q577 -8 533 -8 Q486 -8 453.5 11 Q421 30 406 72 Q392 49 365.5 27.5 Q339 6 297 -3 L297 -173 L349 -173 L349 -199 L31 -199 L31 -173 L85 -173 L85 441 L32 441 L32 467 L296 467 L296 132 Q296 86 307 69 Q318 52 340 52 Q361 52 379 71.5 Q397 91 397 138 L397 441 L346 441 L346 467 L608 467 L608 86 Z " />
<glyph glyph-name="paragraph" unicode="&#xb6;" horiz-adv-x="614" d="M47 499 Q47 594 108.5 646 Q170 698 289 698 L501 698 L501 -164 L401 -164 L401 668 L339 668 L339 -164 L313 -164 L313 298 L274 298 Q221 298 179 314 Q137 330 107.5 357 Q78 384 62.5 420.5 Q47 457 47 499 Z " />
<glyph glyph-name="periodcentered" unicode="&#xb7;" horiz-adv-x="263" d="M132 189 Q94 189 71.5 213 Q49 237 49 270 Q49 305 71.5 329.5 Q94 354 132 354 Q170 354 193 329.5 Q216 305 216 270 Q216 237 193 213 Q170 189 132 189 Z " />
<glyph glyph-name="cedilla" unicode="&#xb8;" horiz-adv-x="470" d="M200 9 L226 9 L183 -67 Q196 -64 216 -64 Q258 -64 288.5 -86 Q319 -108 319 -149 Q319 -174 308.5 -191.5 Q298 -209 280.5 -220.5 Q263 -232 241 -237.5 Q219 -243 196 -243 Q157 -243 135.5 -229 Q114 -215 114 -192 Q114 -178 123.5 -166 Q133 -154 150 -154 Q162 -154 171.5 -160.5 Q181 -167 186 -175 L144 -214 Q148 -219 155 -223 Q162 -227 170 -227 Q192 -227 205.5 -209 Q219 -191 219 -152 Q219 -116 207 -98 Q195 -80 175 -80 Q164 -80 156 -82 L152 -78 L200 9 Z " />
<glyph glyph-name="onesuperior" unicode="&#xb9;" horiz-adv-x="342" d="M33 590 Q81 613 123 641.5 Q165 670 210 705 L257 705 L257 338 L309 338 L309 317 L51 317 L51 338 L118 338 L118 603 Q102 593 84 584.5 Q66 576 45 567 L33 590 Z " />
<glyph glyph-name="ordmasculine" unicode="&#xba;" horiz-adv-x="385" d="M193 712 Q238 712 272 698 Q306 684 328.5 661.5 Q351 639 362.5 609 Q374 579 374 548 Q374 517 362.5 487.5 Q351 458 328.5 435.5 Q306 413 272 399 Q238 385 193 385 Q148 385 113.5 399 Q79 413 56.5 435.5 Q34 458 22.5 487.5 Q11 517 11 548 Q11 579 22.5 609 Q34 639 56.5 661.5 Q79 684 113 698 Q147 712 193 712 Z M193 403 Q216 403 223 440 Q230 477 230 548 Q230 620 221.5 657 Q213 694 193 694 Q172 694 163.5 657 Q155 620 155 548 Q155 477 162.5 440 Q170 403 193 403 Z " />
<glyph glyph-name="guillemotright" unicode="&#xbb;" horiz-adv-x="567" d="M290 213 L85 26 L53 45 L129 240 L53 433 L85 452 L290 265 L290 213 Z M525 213 L320 26 L288 45 L364 240 L288 433 L320 452 L525 265 L525 213 Z " />
<glyph glyph-name="onequarter" unicode="&#xbc;" horiz-adv-x="840" d="M33 590 Q81 613 123 641.5 Q165 670 210 705 L257 705 L257 338 L309 338 L309 317 L51 317 L51 338 L118 338 L118 603 Q102 593 84 584.5 Q66 576 45 567 L33 590 Z M189 -8 L630 666 L685 666 L244 -8 L189 -8 Z M758 388 L758 125 L807 125 L807 104 L758 104 L758 21 L807 21 L807 0 L574 0 L574 21 L627 21 L627 104 L487 104 L487 122 L661 388 L758 388 Z M627 125 L627 294 L518 125 L627 125 Z " />
<glyph glyph-name="onehalf" unicode="&#xbd;" horiz-adv-x="872" d="M33 590 Q81 613 123 641.5 Q165 670 210 705 L257 705 L257 338 L309 338 L309 317 L51 317 L51 338 L118 338 L118 603 Q102 593 84 584.5 Q66 576 45 567 L33 590 Z M173 -8 L614 666 L669 666 L228 -8 L173 -8 Z M510 0 Q521 26 539.5 48.5 Q558 71 581 93 Q604 116 625.5 136 Q647 156 664 178 Q681 200 691.5 226.5 Q702 253 702 288 Q702 321 685 343 Q668 365 633 365 Q613 365 597 357 Q581 349 571 338 L644 253 Q636 238 620 229 Q604 220 582 220 Q558 220 540.5 235 Q523 250 523 281 Q523 299 531.5 319 Q540 339 559 356 Q578 373 609.5 384 Q641 395 688 395 Q726 395 752.5 384.5 Q779 374 795 358.5 Q811 343 818 324 Q825 305 825 289 Q825 247 803 216 Q781 185 746 161 Q726 147 705.5 135 Q685 123 664 111 Q641 98 621 86 Q601 74 585 61 Q611 72 639.5 81.5 Q668 91 694 91 Q714 91 731 88.5 Q748 86 767 86 Q784 86 797.5 96 Q811 106 818 142 L830 142 L830 2 Q814 -3 800.5 -4 Q787 -5 770 -5 Q746 -5 721.5 -1.5 Q697 2 674 6 Q651 10 630 13.5 Q609 17 593 17 Q572 17 554 12 Q536 7 522 -10 L510 0 Z " />
<glyph glyph-name="threequarters" unicode="&#xbe;" horiz-adv-x="857" d="M144 602 Q134 587 121 581 Q108 575 93 575 Q72 575 57.5 589 Q43 603 43 627 Q43 637 48.5 652 Q54 667 68.5 680 Q83 693 109 702.5 Q135 712 176 712 Q243 712 275.5 684.5 Q308 657 308 622 Q308 582 286 558.5 Q264 535 229 525 Q273 516 294.5 490 Q316 464 316 430 Q316 377 277 344.5 Q238 312 162 312 Q99 312 66 336.5 Q33 361 33 391 Q33 413 47 429.5 Q61 446 91 446 Q108 446 120 441 Q132 436 142 426 L75 352 Q85 345 97.5 339 Q110 333 127 333 Q163 333 179 358.5 Q195 384 195 420 Q195 463 176.5 487 Q158 511 120 511 L94 511 L94 529 L119 529 Q154 529 169.5 555.5 Q185 582 185 620 Q185 659 167.5 673.5 Q150 688 130 688 Q114 688 100.5 681.5 Q87 675 82 670 L144 602 Z M189 -8 L630 666 L685 666 L244 -8 L189 -8 Z M775 388 L775 125 L824 125 L824 104 L775 104 L775 21 L824 21 L824 0 L591 0 L591 21 L644 21 L644 104 L504 104 L504 122 L678 388 L775 388 Z M644 125 L644 294 L535 125 L644 125 Z " />
<glyph glyph-name="questiondown" unicode="&#xbf;" horiz-adv-x="467" d="M35 -85 Q35 -45 49 -15.5 Q63 14 85 36 Q107 58 134 74 Q161 90 187 104 Q209 116 223 126 Q237 136 244.5 148 Q252 160 255 176 Q258 192 258 216 L258 269 L299 269 L299 181 Q299 147 286.5 123 Q274 99 258.5 73 Q243 47 230.5 12.5 Q218 -22 218 -76 Q218 -133 244.5 -166 Q271 -199 311 -199 Q341 -199 360.5 -187 Q380 -175 388 -160 L287 -42 Q289 -39 295 -32.5 Q301 -26 311 -19 Q321 -12 334.5 -7 Q348 -2 366 -2 Q403 -2 425.5 -28 Q448 -54 448 -88 Q448 -107 439 -133.5 Q430 -160 406.5 -184.5 Q383 -209 342 -226 Q301 -243 237 -243 Q188 -243 150 -229.5 Q112 -216 86.5 -193.5 Q61 -171 48 -143 Q35 -115 35 -85 Z M277 478 Q311 478 331.5 456 Q352 434 352 403 Q352 371 331.5 349 Q311 327 277 327 Q242 327 221 349 Q200 371 200 403 Q200 434 221 456 Q242 478 277 478 Z " />
<glyph glyph-name="Agrave" unicode="&#xc0;" horiz-adv-x="657" d="M308 26 L394 26 L336 198 L137 198 L73 26 L153 26 L153 0 L-14 0 L-14 26 L41 26 L288 698 L384 698 L611 26 L661 26 L661 0 L308 0 L308 26 Z M240 481 L148 225 L326 225 L240 481 Z M464 741 L411 741 L262 808 Q229 823 220 838.5 Q211 854 211 871 Q211 891 228.5 909.5 Q246 928 280 928 Q310 928 330 915.5 Q350 903 370 876 L464 741 Z " />
<glyph glyph-name="Aacute" unicode="&#xc1;" horiz-adv-x="657" d="M308 26 L394 26 L336 198 L137 198 L73 26 L153 26 L153 0 L-14 0 L-14 26 L41 26 L288 698 L384 698 L611 26 L661 26 L661 0 L308 0 L308 26 Z M240 481 L148 225 L326 225 L240 481 Z M322 876 Q342 901 364.5 914.5 Q387 928 420 928 Q446 928 462 913.5 Q478 899 478 877 Q478 856 465.5 838 Q453 820 421 806 L281 744 L212 744 L322 876 Z " />
<glyph glyph-name="Acircumflex" unicode="&#xc2;" horiz-adv-x="657" d="M308 26 L394 26 L336 198 L137 198 L73 26 L153 26 L153 0 L-14 0 L-14 26 L41 26 L288 698 L384 698 L611 26 L661 26 L661 0 L308 0 L308 26 Z M240 481 L148 225 L326 225 L240 481 Z M376 910 L503 739 L482 727 L333 806 L182 727 L162 739 L289 910 L376 910 Z " />
<glyph glyph-name="Atilde" unicode="&#xc3;" horiz-adv-x="657" d="M308 26 L394 26 L336 198 L137 198 L73 26 L153 26 L153 0 L-14 0 L-14 26 L41 26 L288 698 L384 698 L611 26 L661 26 L661 0 L308 0 L308 26 Z M240 481 L148 225 L326 225 L240 481 Z M540 919 Q539 889 530.5 861 Q522 833 506 810.5 Q490 788 466 774.5 Q442 761 410 761 Q389 761 367.5 767.5 Q346 774 324 782.5 Q302 791 279.5 797.5 Q257 804 234 804 Q228 804 219.5 802.5 Q211 801 202 796.5 Q193 792 185.5 783.5 Q178 775 174 761 L160 761 Q161 788 169.5 815.5 Q178 843 194 864.5 Q210 886 233.5 900 Q257 914 288 914 Q309 914 331.5 907.5 Q354 901 376.5 893 Q399 885 421.5 878.5 Q444 872 465 872 Q507 872 526 919 L540 919 Z " />
<glyph glyph-name="Adieresis" unicode="&#xc4;" horiz-adv-x="657" d="M308 26 L394 26 L336 198 L137 198 L73 26 L153 26 L153 0 L-14 0 L-14 26 L41 26 L288 698 L384 698 L611 26 L661 26 L661 0 L308 0 L308 26 Z M240 481 L148 225 L326 225 L240 481 Z M538 829 Q538 811 531.5 795.5 Q525 780 513.5 768.5 Q502 757 486 750 Q470 743 452 743 Q434 743 418.5 750 Q403 757 391.5 768.5 Q380 780 373 795.5 Q366 811 366 829 Q366 847 373 862.5 Q380 878 391.5 889.5 Q403 901 418.5 907.5 Q434 914 452 914 Q489 914 513.5 889 Q538 864 538 829 Z M320 829 Q320 811 313 795.5 Q306 780 294 768.5 Q282 757 266.5 750 Q251 743 234 743 Q196 743 172 768.5 Q148 794 148 829 Q148 864 172 889 Q196 914 234 914 Q251 914 266.5 907.5 Q282 901 294 889.5 Q306 878 313 862.5 Q320 847 320 829 Z " />
<glyph glyph-name="Aring" unicode="&#xc5;" horiz-adv-x="657" d="M308 26 L394 26 L336 198 L137 198 L73 26 L153 26 L153 0 L-14 0 L-14 26 L41 26 L288 698 L384 698 L611 26 L661 26 L661 0 L308 0 L308 26 Z M240 481 L148 225 L326 225 L240 481 Z M450 853 Q450 828 440.5 806 Q431 784 414 767.5 Q397 751 373.5 741.5 Q350 732 322 732 Q294 732 270.5 741.5 Q247 751 230 767.5 Q213 784 203.5 806 Q194 828 194 853 Q194 878 203.5 900.5 Q213 923 229.5 939.5 Q246 956 269.5 965.5 Q293 975 322 975 Q350 975 374 965.5 Q398 956 414.5 939.5 Q431 923 440.5 900.5 Q450 878 450 853 Z M355 853 Q355 869 353 886.5 Q351 904 347.5 918.5 Q344 933 337.5 942 Q331 951 322 951 Q313 951 307 942 Q301 933 297 918.5 Q293 904 291 886.5 Q289 869 289 853 Q289 837 291 820 Q293 803 297 789.5 Q301 776 307 767 Q313 758 322 758 Q331 758 337.5 767 Q344 776 347.5 789.5 Q351 803 353 820 Q355 837 355 853 Z " />
<glyph glyph-name="AE" unicode="&#xc6;" horiz-adv-x="904" d="M253 698 L739 698 Q808 698 846.5 667.5 Q885 637 885 580 Q885 538 858 508.5 Q831 479 783 479 Q748 479 727.5 490.5 Q707 502 690 518 L798 657 Q794 661 784.5 663.5 Q775 666 763.5 668 Q752 670 740 671 Q728 672 719 672 L594 672 L594 354 L750 354 L750 328 L594 328 L594 26 L635 26 Q693 26 731.5 40.5 Q770 55 794 81 Q818 107 830.5 143 Q843 179 850 221 L871 222 L871 0 L290 0 L290 26 L363 26 L363 240 L157 240 L54 26 L143 26 L143 0 L-24 0 L-24 26 L22 26 L330 672 L253 672 L253 698 Z M168 266 L363 266 L363 672 L168 266 Z " />
<glyph glyph-name="Ccedilla" unicode="&#xc7;" horiz-adv-x="623" d="M330 -8 Q259 -3 202 24 Q145 51 105 96.5 Q65 142 44 203 Q23 264 23 337 Q23 405 44 472 Q65 539 108 592.5 Q151 646 216.5 679 Q282 712 372 712 Q432 712 476 698 Q520 684 548.5 662 Q577 640 590.5 612 Q604 584 604 556 Q604 511 577.5 480.5 Q551 450 499 450 Q463 450 440.5 460.5 Q418 471 401 487 L522 635 Q507 652 480.5 665.5 Q454 679 423 679 Q379 679 349.5 655 Q320 631 302 589.5 Q284 548 276 491 Q268 434 268 368 Q268 280 280.5 216.5 Q293 153 316 112.5 Q339 72 371.5 52.5 Q404 33 444 33 Q490 33 521.5 50.5 Q553 68 578 97 L597 80 Q580 60 558 43.5 Q536 27 507.5 15.5 Q479 4 441.5 -2.5 Q404 -9 355 -9 L323 -67 Q336 -64 356 -64 Q398 -64 428.5 -84.5 Q459 -105 459 -146 Q459 -171 448.5 -189 Q438 -207 421 -219 Q404 -231 382 -237 Q360 -243 337 -243 Q297 -243 275.5 -229 Q254 -215 254 -192 Q254 -178 263.5 -166 Q273 -154 290 -154 Q302 -154 311.5 -160.5 Q321 -167 326 -175 L284 -214 Q289 -219 295.5 -223 Q302 -227 310 -227 Q332 -227 345.5 -207.5 Q359 -188 359 -149 Q359 -114 347 -97 Q335 -80 315 -80 Q304 -80 296 -82 L292 -78 L330 -8 Z " />
<glyph glyph-name="Egrave" unicode="&#xc8;" horiz-adv-x="631" d="M465 698 Q534 698 573 667.5 Q612 637 612 580 Q612 538 584.5 508.5 Q557 479 509 479 Q474 479 453.5 490.5 Q433 502 416 518 L525 657 Q520 661 511 663.5 Q502 666 490.5 668 Q479 670 467 671 Q455 672 446 672 L321 672 L321 354 L480 354 L480 328 L321 328 L321 26 L371 26 Q429 26 467.5 40.5 Q506 55 530 81 Q554 107 566.5 143 Q579 179 586 221 L607 222 L607 0 L17 0 L17 26 L89 26 L89 672 L17 672 L17 698 L465 698 Z M451 741 L398 741 L249 808 Q216 823 207 838.5 Q198 854 198 871 Q198 891 215.5 909.5 Q233 928 267 928 Q297 928 317 915.5 Q337 903 357 876 L451 741 Z " />
<glyph glyph-name="Eacute" unicode="&#xc9;" horiz-adv-x="631" d="M465 698 Q534 698 573 667.5 Q612 637 612 580 Q612 538 584.5 508.5 Q557 479 509 479 Q474 479 453.5 490.5 Q433 502 416 518 L525 657 Q520 661 511 663.5 Q502 666 490.5 668 Q479 670 467 671 Q455 672 446 672 L321 672 L321 354 L480 354 L480 328 L321 328 L321 26 L371 26 Q429 26 467.5 40.5 Q506 55 530 81 Q554 107 566.5 143 Q579 179 586 221 L607 222 L607 0 L17 0 L17 26 L89 26 L89 672 L17 672 L17 698 L465 698 Z M336 876 Q356 901 378.5 914.5 Q401 928 434 928 Q460 928 476 913.5 Q492 899 492 877 Q492 856 479.5 838 Q467 820 435 806 L295 744 L226 744 L336 876 Z " />
<glyph glyph-name="Ecircumflex" unicode="&#xca;" horiz-adv-x="631" d="M465 698 Q534 698 573 667.5 Q612 637 612 580 Q612 538 584.5 508.5 Q557 479 509 479 Q474 479 453.5 490.5 Q433 502 416 518 L525 657 Q520 661 511 663.5 Q502 666 490.5 668 Q479 670 467 671 Q455 672 446 672 L321 672 L321 354 L480 354 L480 328 L321 328 L321 26 L371 26 Q429 26 467.5 40.5 Q506 55 530 81 Q554 107 566.5 143 Q579 179 586 221 L607 222 L607 0 L17 0 L17 26 L89 26 L89 672 L17 672 L17 698 L465 698 Z M376 910 L503 739 L482 727 L333 806 L182 727 L162 739 L289 910 L376 910 Z " />
<glyph glyph-name="Edieresis" unicode="&#xcb;" horiz-adv-x="631" d="M465 698 Q534 698 573 667.5 Q612 637 612 580 Q612 538 584.5 508.5 Q557 479 509 479 Q474 479 453.5 490.5 Q433 502 416 518 L525 657 Q520 661 511 663.5 Q502 666 490.5 668 Q479 670 467 671 Q455 672 446 672 L321 672 L321 354 L480 354 L480 328 L321 328 L321 26 L371 26 Q429 26 467.5 40.5 Q506 55 530 81 Q554 107 566.5 143 Q579 179 586 221 L607 222 L607 0 L17 0 L17 26 L89 26 L89 672 L17 672 L17 698 L465 698 Z M526 829 Q526 811 519.5 795.5 Q513 780 501.5 768.5 Q490 757 474 750 Q458 743 440 743 Q422 743 406.5 750 Q391 757 379.5 768.5 Q368 780 361 795.5 Q354 811 354 829 Q354 847 361 862.5 Q368 878 379.5 889.5 Q391 901 406.5 907.5 Q422 914 440 914 Q477 914 501.5 889 Q526 864 526 829 Z M308 829 Q308 811 301 795.5 Q294 780 282 768.5 Q270 757 254.5 750 Q239 743 222 743 Q184 743 160 768.5 Q136 794 136 829 Q136 864 160 889 Q184 914 222 914 Q239 914 254.5 907.5 Q270 901 282 889.5 Q294 878 301 862.5 Q308 847 308 829 Z " />
<glyph glyph-name="Igrave" unicode="&#xcc;" horiz-adv-x="415" d="M323 26 L396 26 L396 0 L19 0 L19 26 L91 26 L91 672 L19 672 L19 698 L396 698 L396 672 L323 672 L323 26 Z M343 741 L290 741 L141 808 Q108 823 99 838.5 Q90 854 90 871 Q90 891 107.5 909.5 Q125 928 159 928 Q189 928 209 915.5 Q229 903 249 876 L343 741 Z " />
<glyph glyph-name="Iacute" unicode="&#xcd;" horiz-adv-x="415" d="M323 26 L396 26 L396 0 L19 0 L19 26 L91 26 L91 672 L19 672 L19 698 L396 698 L396 672 L323 672 L323 26 Z M238 876 Q258 901 280.5 914.5 Q303 928 336 928 Q362 928 378 913.5 Q394 899 394 877 Q394 856 381.5 838 Q369 820 337 806 L197 744 L128 744 L238 876 Z " />
<glyph glyph-name="Icircumflex" unicode="&#xce;" horiz-adv-x="415" d="M323 26 L396 26 L396 0 L19 0 L19 26 L91 26 L91 672 L19 672 L19 698 L396 698 L396 672 L323 672 L323 26 Z M254 910 L381 739 L360 727 L211 806 L60 727 L40 739 L167 910 L254 910 Z " />
<glyph glyph-name="Idieresis" unicode="&#xcf;" horiz-adv-x="415" d="M323 26 L396 26 L396 0 L19 0 L19 26 L91 26 L91 672 L19 672 L19 698 L396 698 L396 672 L323 672 L323 26 Z M416 829 Q416 811 409.5 795.5 Q403 780 391.5 768.5 Q380 757 364 750 Q348 743 330 743 Q312 743 296.5 750 Q281 757 269.5 768.5 Q258 780 251 795.5 Q244 811 244 829 Q244 847 251 862.5 Q258 878 269.5 889.5 Q281 901 296.5 907.5 Q312 914 330 914 Q367 914 391.5 889 Q416 864 416 829 Z M198 829 Q198 811 191 795.5 Q184 780 172 768.5 Q160 757 144.5 750 Q129 743 112 743 Q74 743 50 768.5 Q26 794 26 829 Q26 864 50 889 Q74 914 112 914 Q129 914 144.5 907.5 Q160 901 172 889.5 Q184 878 191 862.5 Q198 847 198 829 Z " />
<glyph glyph-name="Eth" unicode="&#xd0;" horiz-adv-x="757" d="M35 371 L93 371 L93 672 L21 672 L21 698 L352 698 Q446 698 517.5 671 Q589 644 637 597 Q685 550 709 487.5 Q733 425 733 353 Q733 282 709 218 Q685 154 637 105.5 Q589 57 517.5 28.5 Q446 0 352 0 L21 0 L21 26 L93 26 L93 340 L35 340 L35 371 Z M324 371 L414 371 L414 340 L324 340 L324 26 L335 26 Q370 26 399.5 48 Q429 70 450 112 Q471 154 482.5 215 Q494 276 494 353 Q494 509 450.5 590.5 Q407 672 338 672 L324 672 L324 371 Z " />
<glyph glyph-name="Ntilde" unicode="&#xd1;" horiz-adv-x="723" d="M611 672 L528 672 L528 698 L712 698 L712 672 L639 672 L639 0 L422 0 L117 676 L117 26 L200 26 L200 0 L17 0 L17 26 L89 26 L89 672 L17 672 L17 698 L380 698 L611 160 L611 672 Z M615 929 Q614 899 605.5 871 Q597 843 581 820.5 Q565 798 541 784.5 Q517 771 485 771 Q464 771 442.5 777.5 Q421 784 399 792.5 Q377 801 354.5 807.5 Q332 814 309 814 Q303 814 294.5 812.5 Q286 811 277 806.5 Q268 802 260.5 793.5 Q253 785 249 771 L235 771 Q236 798 244.5 825.5 Q253 853 269 874.5 Q285 896 308.5 910 Q332 924 363 924 Q384 924 406.5 917.5 Q429 911 451.5 903 Q474 895 496.5 888.5 Q519 882 540 882 Q582 882 601 929 L615 929 Z " />
<glyph glyph-name="Ograve" unicode="&#xd2;" horiz-adv-x="744" d="M372 712 Q455 712 519 684.5 Q583 657 627 607.5 Q671 558 693.5 490 Q716 422 716 342 Q716 262 693.5 197.5 Q671 133 627 87 Q583 41 519 16.5 Q455 -8 372 -8 Q289 -8 225 16.5 Q161 41 117 87 Q73 133 50.5 197.5 Q28 262 28 342 Q28 422 50.5 490 Q73 558 117 607.5 Q161 657 225 684.5 Q289 712 372 712 Z M372 20 Q402 20 421 41.5 Q440 63 451 104.5 Q462 146 466 205.5 Q470 265 470 342 Q470 418 466 481 Q462 544 451 589 Q440 634 421 658.5 Q402 683 372 683 Q342 683 323 658.5 Q304 634 293 589 Q282 544 278 481 Q274 418 274 342 Q274 265 278 205.5 Q282 146 293 104.5 Q304 63 323 41.5 Q342 20 372 20 Z M515 741 L462 741 L313 808 Q280 823 271 838.5 Q262 854 262 871 Q262 891 279.5 909.5 Q297 928 331 928 Q361 928 381 915.5 Q401 903 421 876 L515 741 Z " />
<glyph glyph-name="Oacute" unicode="&#xd3;" horiz-adv-x="744" d="M372 712 Q455 712 519 684.5 Q583 657 627 607.5 Q671 558 693.5 490 Q716 422 716 342 Q716 262 693.5 197.5 Q671 133 627 87 Q583 41 519 16.5 Q455 -8 372 -8 Q289 -8 225 16.5 Q161 41 117 87 Q73 133 50.5 197.5 Q28 262 28 342 Q28 422 50.5 490 Q73 558 117 607.5 Q161 657 225 684.5 Q289 712 372 712 Z M372 20 Q402 20 421 41.5 Q440 63 451 104.5 Q462 146 466 205.5 Q470 265 470 342 Q470 418 466 481 Q462 544 451 589 Q440 634 421 658.5 Q402 683 372 683 Q342 683 323 658.5 Q304 634 293 589 Q282 544 278 481 Q274 418 274 342 Q274 265 278 205.5 Q282 146 293 104.5 Q304 63 323 41.5 Q342 20 372 20 Z M406 876 Q426 901 448.5 914.5 Q471 928 504 928 Q530 928 546 913.5 Q562 899 562 877 Q562 856 549.5 838 Q537 820 505 806 L365 744 L296 744 L406 876 Z " />
<glyph glyph-name="Ocircumflex" unicode="&#xd4;" horiz-adv-x="744" d="M372 712 Q455 712 519 684.5 Q583 657 627 607.5 Q671 558 693.5 490 Q716 422 716 342 Q716 262 693.5 197.5 Q671 133 627 87 Q583 41 519 16.5 Q455 -8 372 -8 Q289 -8 225 16.5 Q161 41 117 87 Q73 133 50.5 197.5 Q28 262 28 342 Q28 422 50.5 490 Q73 558 117 607.5 Q161 657 225 684.5 Q289 712 372 712 Z M372 20 Q402 20 421 41.5 Q440 63 451 104.5 Q462 146 466 205.5 Q470 265 470 342 Q470 418 466 481 Q462 544 451 589 Q440 634 421 658.5 Q402 683 372 683 Q342 683 323 658.5 Q304 634 293 589 Q282 544 278 481 Q274 418 274 342 Q274 265 278 205.5 Q282 146 293 104.5 Q304 63 323 41.5 Q342 20 372 20 Z M423 910 L550 739 L529 727 L380 806 L229 727 L209 739 L336 910 L423 910 Z " />
<glyph glyph-name="Otilde" unicode="&#xd5;" horiz-adv-x="744" d="M372 712 Q455 712 519 684.5 Q583 657 627 607.5 Q671 558 693.5 490 Q716 422 716 342 Q716 262 693.5 197.5 Q671 133 627 87 Q583 41 519 16.5 Q455 -8 372 -8 Q289 -8 225 16.5 Q161 41 117 87 Q73 133 50.5 197.5 Q28 262 28 342 Q28 422 50.5 490 Q73 558 117 607.5 Q161 657 225 684.5 Q289 712 372 712 Z M372 20 Q402 20 421 41.5 Q440 63 451 104.5 Q462 146 466 205.5 Q470 265 470 342 Q470 418 466 481 Q462 544 451 589 Q440 634 421 658.5 Q402 683 372 683 Q342 683 323 658.5 Q304 634 293 589 Q282 544 278 481 Q274 418 274 342 Q274 265 278 205.5 Q282 146 293 104.5 Q304 63 323 41.5 Q342 20 372 20 Z M580 919 Q579 889 570.5 861 Q562 833 546 810.5 Q530 788 506 774.5 Q482 761 450 761 Q429 761 407.5 767.5 Q386 774 364 782.5 Q342 791 319.5 797.5 Q297 804 274 804 Q268 804 259.5 802.5 Q251 801 242 796.5 Q233 792 225.5 783.5 Q218 775 214 761 L200 761 Q201 788 209.5 815.5 Q218 843 234 864.5 Q250 886 273.5 900 Q297 914 328 914 Q349 914 371.5 907.5 Q394 901 416.5 893 Q439 885 461.5 878.5 Q484 872 505 872 Q547 872 566 919 L580 919 Z " />
<glyph glyph-name="Odieresis" unicode="&#xd6;" horiz-adv-x="744" d="M372 712 Q455 712 519 684.5 Q583 657 627 607.5 Q671 558 693.5 490 Q716 422 716 342 Q716 262 693.5 197.5 Q671 133 627 87 Q583 41 519 16.5 Q455 -8 372 -8 Q289 -8 225 16.5 Q161 41 117 87 Q73 133 50.5 197.5 Q28 262 28 342 Q28 422 50.5 490 Q73 558 117 607.5 Q161 657 225 684.5 Q289 712 372 712 Z M372 20 Q402 20 421 41.5 Q440 63 451 104.5 Q462 146 466 205.5 Q470 265 470 342 Q470 418 466 481 Q462 544 451 589 Q440 634 421 658.5 Q402 683 372 683 Q342 683 323 658.5 Q304 634 293 589 Q282 544 278 481 Q274 418 274 342 Q274 265 278 205.5 Q282 146 293 104.5 Q304 63 323 41.5 Q342 20 372 20 Z M573 830 Q573 812 566.5 796.5 Q560 781 548.5 769.5 Q537 758 521 751 Q505 744 487 744 Q469 744 453.5 751 Q438 758 426.5 769.5 Q415 781 408 796.5 Q401 812 401 830 Q401 848 408 863.5 Q415 879 426.5 890.5 Q438 902 453.5 908.5 Q469 915 487 915 Q524 915 548.5 890 Q573 865 573 830 Z M355 830 Q355 812 348 796.5 Q341 781 329 769.5 Q317 758 301.5 751 Q286 744 269 744 Q231 744 207 769.5 Q183 795 183 830 Q183 865 207 890 Q231 915 269 915 Q286 915 301.5 908.5 Q317 902 329 890.5 Q341 879 348 863.5 Q355 848 355 830 Z " />
<glyph glyph-name="multiply" unicode="&#xd7;" horiz-adv-x="649" d="M519 56 L319 248 L127 63 L89 99 L283 282 L93 465 L133 503 L323 321 L515 506 L552 471 L359 287 L559 95 L519 56 Z " />
<glyph glyph-name="Oslash" unicode="&#xd8;" horiz-adv-x="744" d="M372 712 Q427 712 472.5 700 Q518 688 556 665 L607 747 L643 747 L582 648 Q648 599 682 520.5 Q716 442 716 342 Q716 262 693.5 197.5 Q671 133 627 87 Q583 41 519 16.5 Q455 -8 372 -8 Q273 -8 201 25 L150 -57 L115 -57 L174 40 Q102 85 65 162 Q28 239 28 342 Q28 422 50.5 490 Q73 558 117 607.5 Q161 657 225 684.5 Q289 712 372 712 Z M274 342 Q274 305 275 272 Q276 239 278 210 L463 512 Q455 593 434.5 638 Q414 683 372 683 Q342 683 323 658.5 Q304 634 293 589 Q282 544 278 481 Q274 418 274 342 Z M372 20 Q402 20 421 41.5 Q440 63 451 104.5 Q462 146 466 205.5 Q470 265 470 342 Q470 405 467 461 L283 159 Q291 91 312.5 55.5 Q334 20 372 20 Z " />
<glyph glyph-name="Ugrave" unicode="&#xd9;" horiz-adv-x="692" d="M412 698 L412 672 L330 672 L330 203 Q330 158 339 126.5 Q348 95 364 76 Q380 57 403 48.5 Q426 40 454 40 Q511 40 544.5 85 Q578 130 578 218 L578 672 L496 672 L496 698 L682 698 L682 672 L611 672 L611 251 Q611 193 599.5 145 Q588 97 558.5 63 Q529 29 479.5 10.5 Q430 -8 355 -8 Q298 -8 251 8 Q204 24 170.5 56.5 Q137 89 118 138 Q99 187 99 253 L99 672 L17 672 L17 698 L412 698 Z M502 741 L449 741 L300 808 Q267 823 258 838.5 Q249 854 249 871 Q249 891 266.5 909.5 Q284 928 318 928 Q348 928 368 915.5 Q388 903 408 876 L502 741 Z " />
<glyph glyph-name="Uacute" unicode="&#xda;" horiz-adv-x="692" d="M412 698 L412 672 L330 672 L330 203 Q330 158 339 126.5 Q348 95 364 76 Q380 57 403 48.5 Q426 40 454 40 Q511 40 544.5 85 Q578 130 578 218 L578 672 L496 672 L496 698 L682 698 L682 672 L611 672 L611 251 Q611 193 599.5 145 Q588 97 558.5 63 Q529 29 479.5 10.5 Q430 -8 355 -8 Q298 -8 251 8 Q204 24 170.5 56.5 Q137 89 118 138 Q99 187 99 253 L99 672 L17 672 L17 698 L412 698 Z M384 876 Q404 901 426.5 914.5 Q449 928 482 928 Q508 928 524 913.5 Q540 899 540 877 Q540 856 527.5 838 Q515 820 483 806 L343 744 L274 744 L384 876 Z " />
<glyph glyph-name="Ucircumflex" unicode="&#xdb;" horiz-adv-x="692" d="M418 910 L545 739 L524 727 L375 806 L224 727 L204 739 L331 910 L418 910 Z M412 698 L412 672 L330 672 L330 203 Q330 158 339 126.5 Q348 95 364 76 Q380 57 403 48.5 Q426 40 454 40 Q511 40 544.5 85 Q578 130 578 218 L578 672 L496 672 L496 698 L682 698 L682 672 L611 672 L611 251 Q611 193 599.5 145 Q588 97 558.5 63 Q529 29 479.5 10.5 Q430 -8 355 -8 Q298 -8 251 8 Q204 24 170.5 56.5 Q137 89 118 138 Q99 187 99 253 L99 672 L17 672 L17 698 L412 698 Z " />
<glyph glyph-name="Udieresis" unicode="&#xdc;" horiz-adv-x="692" d="M569 829 Q569 811 562.5 795.5 Q556 780 544.5 768.5 Q533 757 517 750 Q501 743 483 743 Q465 743 449.5 750 Q434 757 422.5 768.5 Q411 780 404 795.5 Q397 811 397 829 Q397 847 404 862.5 Q411 878 422.5 889.5 Q434 901 449.5 907.5 Q465 914 483 914 Q520 914 544.5 889 Q569 864 569 829 Z M351 829 Q351 811 344 795.5 Q337 780 325 768.5 Q313 757 297.5 750 Q282 743 265 743 Q227 743 203 768.5 Q179 794 179 829 Q179 864 203 889 Q227 914 265 914 Q282 914 297.5 907.5 Q313 901 325 889.5 Q337 878 344 862.5 Q351 847 351 829 Z M412 698 L412 672 L330 672 L330 203 Q330 158 339 126.5 Q348 95 364 76 Q380 57 403 48.5 Q426 40 454 40 Q511 40 544.5 85 Q578 130 578 218 L578 672 L496 672 L496 698 L682 698 L682 672 L611 672 L611 251 Q611 193 599.5 145 Q588 97 558.5 63 Q529 29 479.5 10.5 Q430 -8 355 -8 Q298 -8 251 8 Q204 24 170.5 56.5 Q137 89 118 138 Q99 187 99 253 L99 672 L17 672 L17 698 L412 698 Z " />
<glyph glyph-name="Yacute" unicode="&#xdd;" horiz-adv-x="693" d="M552 26 L552 0 L157 0 L157 26 L238 26 L238 295 L67 672 L-9 672 L-9 698 L415 698 L415 672 L327 672 L459 360 L590 672 L508 672 L508 698 L702 698 L702 672 L626 672 L470 307 L470 26 L552 26 Z M448 876 Q468 901 490.5 914.5 Q513 928 546 928 Q572 928 588 913.5 Q604 899 604 877 Q604 856 591.5 838 Q579 820 547 806 L407 744 L338 744 L448 876 Z " />
<glyph glyph-name="Thorn" unicode="&#xde;" horiz-adv-x="712" d="M321 545 L387 545 Q694 545 694 351 Q694 253 616.5 201 Q539 149 387 149 L321 149 L321 26 L394 26 L394 0 L17 0 L17 26 L89 26 L89 672 L17 672 L17 698 L394 698 L394 672 L321 672 L321 545 Z M361 175 Q387 175 411 184.5 Q435 194 453 214.5 Q471 235 481.5 267.5 Q492 300 492 347 Q492 393 481.5 426 Q471 459 453 479.5 Q435 500 411 509.5 Q387 519 361 519 L321 519 L321 175 L361 175 Z " />
<glyph glyph-name="germandbls" unicode="&#xdf;" horiz-adv-x="631" d="M284 0 L15 0 L15 26 L68 26 L68 427 L-4 427 L-4 453 Q31 453 51 468.5 Q71 484 71 525 Q71 577 89 617.5 Q107 658 141 685 Q175 712 223 726 Q271 740 330 740 Q397 740 443 721 Q489 702 517.5 672.5 Q546 643 559 608 Q572 573 572 540 Q572 507 560.5 479.5 Q549 452 528.5 430 Q508 408 481.5 393 Q455 378 425 370 Q466 365 501 351 Q536 337 561 315 Q586 293 600 262.5 Q614 232 614 193 Q614 142 599.5 104.5 Q585 67 560 42 Q535 17 500.5 4.5 Q466 -8 426 -8 Q376 -8 346 0.5 Q316 9 301 17 L311 39 Q327 28 346 28 Q357 28 367 35.5 Q377 43 385 62 Q393 81 398 113 Q403 145 403 194 Q403 242 396 272.5 Q389 303 376.5 321 Q364 339 347 345.5 Q330 352 311 352 L311 371 Q332 371 344.5 385.5 Q357 400 364.5 423.5 Q372 447 374.5 477.5 Q377 508 377 540 Q377 616 362 664 Q347 712 327 712 Q305 712 294.5 674.5 Q284 637 284 547 L284 0 Z " />
<glyph glyph-name="agrave" unicode="&#xe0;" horiz-adv-x="520" d="M195 447 Q173 447 160 439 Q147 431 140 425 L202 313 Q191 299 168.5 286.5 Q146 274 116 274 Q83 274 56.5 292.5 Q30 311 30 352 Q30 382 47.5 405 Q65 428 94 444.5 Q123 461 160.5 469.5 Q198 478 238 478 Q304 478 347.5 466 Q391 454 416.5 428.5 Q442 403 452.5 364 Q463 325 463 271 L463 86 Q463 50 487 50 Q495 50 501.5 55 Q508 60 512 67 L525 53 Q498 21 465 6.5 Q432 -8 388 -8 Q352 -8 322 10 Q292 28 273 62 Q247 28 211 10 Q175 -8 133 -8 Q79 -8 47 16.5 Q15 41 15 98 Q15 141 39 168.5 Q63 196 100 212 Q137 228 180 234 Q223 240 261 242 L261 372 Q261 393 255.5 407 Q250 421 241 430 Q232 439 220 443 Q208 447 195 447 Z M261 221 Q227 219 204 199.5 Q181 180 181 137 Q181 92 197 76.5 Q213 61 233 61 Q252 61 261 72 L261 221 Z M396 525 L343 525 L194 592 Q161 607 152 622.5 Q143 638 143 655 Q143 675 160.5 693.5 Q178 712 212 712 Q242 712 262 699.5 Q282 687 302 660 L396 525 Z " />
<glyph glyph-name="aacute" unicode="&#xe1;" horiz-adv-x="520" d="M195 447 Q173 447 160 439 Q147 431 140 425 L202 313 Q191 299 168.5 286.5 Q146 274 116 274 Q83 274 56.5 292.5 Q30 311 30 352 Q30 382 47.5 405 Q65 428 94 444.5 Q123 461 160.5 469.5 Q198 478 238 478 Q304 478 347.5 466 Q391 454 416.5 428.5 Q442 403 452.5 364 Q463 325 463 271 L463 86 Q463 50 487 50 Q495 50 501.5 55 Q508 60 512 67 L525 53 Q498 21 465 6.5 Q432 -8 388 -8 Q352 -8 322 10 Q292 28 273 62 Q247 28 211 10 Q175 -8 133 -8 Q79 -8 47 16.5 Q15 41 15 98 Q15 141 39 168.5 Q63 196 100 212 Q137 228 180 234 Q223 240 261 242 L261 372 Q261 393 255.5 407 Q250 421 241 430 Q232 439 220 443 Q208 447 195 447 Z M261 221 Q227 219 204 199.5 Q181 180 181 137 Q181 92 197 76.5 Q213 61 233 61 Q252 61 261 72 L261 221 Z M254 660 Q274 685 296.5 698.5 Q319 712 352 712 Q378 712 394 697.5 Q410 683 410 661 Q410 640 397.5 622 Q385 604 353 590 L213 528 L144 528 L254 660 Z " />
<glyph glyph-name="acircumflex" unicode="&#xe2;" horiz-adv-x="520" d="M195 447 Q173 447 160 439 Q147 431 140 425 L202 313 Q191 299 168.5 286.5 Q146 274 116 274 Q83 274 56.5 292.5 Q30 311 30 352 Q30 382 47.5 405 Q65 428 94 444.5 Q123 461 160.5 469.5 Q198 478 238 478 Q304 478 347.5 466 Q391 454 416.5 428.5 Q442 403 452.5 364 Q463 325 463 271 L463 86 Q463 50 487 50 Q495 50 501.5 55 Q508 60 512 67 L525 53 Q498 21 465 6.5 Q432 -8 388 -8 Q352 -8 322 10 Q292 28 273 62 Q247 28 211 10 Q175 -8 133 -8 Q79 -8 47 16.5 Q15 41 15 98 Q15 141 39 168.5 Q63 196 100 212 Q137 228 180 234 Q223 240 261 242 L261 372 Q261 393 255.5 407 Q250 421 241 430 Q232 439 220 443 Q208 447 195 447 Z M261 221 Q227 219 204 199.5 Q181 180 181 137 Q181 92 197 76.5 Q213 61 233 61 Q252 61 261 72 L261 221 Z M296 694 L423 523 L402 511 L253 590 L102 511 L82 523 L209 694 L296 694 Z " />
<glyph glyph-name="atilde" unicode="&#xe3;" horiz-adv-x="520" d="M195 447 Q173 447 160 439 Q147 431 140 425 L202 313 Q191 299 168.5 286.5 Q146 274 116 274 Q83 274 56.5 292.5 Q30 311 30 352 Q30 382 47.5 405 Q65 428 94 444.5 Q123 461 160.5 469.5 Q198 478 238 478 Q304 478 347.5 466 Q391 454 416.5 428.5 Q442 403 452.5 364 Q463 325 463 271 L463 86 Q463 50 487 50 Q495 50 501.5 55 Q508 60 512 67 L525 53 Q498 21 465 6.5 Q432 -8 388 -8 Q352 -8 322 10 Q292 28 273 62 Q247 28 211 10 Q175 -8 133 -8 Q79 -8 47 16.5 Q15 41 15 98 Q15 141 39 168.5 Q63 196 100 212 Q137 228 180 234 Q223 240 261 242 L261 372 Q261 393 255.5 407 Q250 421 241 430 Q232 439 220 443 Q208 447 195 447 Z M261 221 Q227 219 204 199.5 Q181 180 181 137 Q181 92 197 76.5 Q213 61 233 61 Q252 61 261 72 L261 221 Z M439 703 Q438 673 429.5 645 Q421 617 405 594.5 Q389 572 365 558.5 Q341 545 309 545 Q288 545 266.5 551.5 Q245 558 223 566.5 Q201 575 178.5 581.5 Q156 588 133 588 Q127 588 118.5 586.5 Q110 585 101 580.5 Q92 576 84.5 567.5 Q77 559 73 545 L59 545 Q60 572 68.5 599.5 Q77 627 93 648.5 Q109 670 132.5 684 Q156 698 187 698 Q208 698 230.5 691.5 Q253 685 275.5 677 Q298 669 320.5 662.5 Q343 656 364 656 Q406 656 425 703 L439 703 Z " />
<glyph glyph-name="adieresis" unicode="&#xe4;" horiz-adv-x="520" d="M195 447 Q173 447 160 439 Q147 431 140 425 L202 313 Q191 299 168.5 286.5 Q146 274 116 274 Q83 274 56.5 292.5 Q30 311 30 352 Q30 382 47.5 405 Q65 428 94 444.5 Q123 461 160.5 469.5 Q198 478 238 478 Q304 478 347.5 466 Q391 454 416.5 428.5 Q442 403 452.5 364 Q463 325 463 271 L463 86 Q463 50 487 50 Q495 50 501.5 55 Q508 60 512 67 L525 53 Q498 21 465 6.5 Q432 -8 388 -8 Q352 -8 322 10 Q292 28 273 62 Q247 28 211 10 Q175 -8 133 -8 Q79 -8 47 16.5 Q15 41 15 98 Q15 141 39 168.5 Q63 196 100 212 Q137 228 180 234 Q223 240 261 242 L261 372 Q261 393 255.5 407 Q250 421 241 430 Q232 439 220 443 Q208 447 195 447 Z M261 221 Q227 219 204 199.5 Q181 180 181 137 Q181 92 197 76.5 Q213 61 233 61 Q252 61 261 72 L261 221 Z M451 613 Q451 595 444.5 579.5 Q438 564 426.5 552.5 Q415 541 399 534 Q383 527 365 527 Q347 527 331.5 534 Q316 541 304.5 552.5 Q293 564 286 579.5 Q279 595 279 613 Q279 631 286 646.5 Q293 662 304.5 673.5 Q316 685 331.5 691.5 Q347 698 365 698 Q402 698 426.5 673 Q451 648 451 613 Z M233 613 Q233 595 226 579.5 Q219 564 207 552.5 Q195 541 179.5 534 Q164 527 147 527 Q109 527 85 552.5 Q61 578 61 613 Q61 648 85 673 Q109 698 147 698 Q164 698 179.5 691.5 Q195 685 207 673.5 Q219 662 226 646.5 Q233 631 233 613 Z " />
<glyph glyph-name="aring" unicode="&#xe5;" horiz-adv-x="520" d="M195 447 Q173 447 160 439 Q147 431 140 425 L202 313 Q191 299 168.5 286.5 Q146 274 116 274 Q83 274 56.5 292.5 Q30 311 30 352 Q30 382 47.5 405 Q65 428 94 444.5 Q123 461 160.5 469.5 Q198 478 238 478 Q304 478 347.5 466 Q391 454 416.5 428.5 Q442 403 452.5 364 Q463 325 463 271 L463 86 Q463 50 487 50 Q495 50 501.5 55 Q508 60 512 67 L525 53 Q498 21 465 6.5 Q432 -8 388 -8 Q352 -8 322 10 Q292 28 273 62 Q247 28 211 10 Q175 -8 133 -8 Q79 -8 47 16.5 Q15 41 15 98 Q15 141 39 168.5 Q63 196 100 212 Q137 228 180 234 Q223 240 261 242 L261 372 Q261 393 255.5 407 Q250 421 241 430 Q232 439 220 443 Q208 447 195 447 Z M261 221 Q227 219 204 199.5 Q181 180 181 137 Q181 92 197 76.5 Q213 61 233 61 Q252 61 261 72 L261 221 Z M386 637 Q386 612 376.5 590 Q367 568 350 551.5 Q333 535 309.5 525.5 Q286 516 258 516 Q230 516 206.5 525.5 Q183 535 166 551.5 Q149 568 139.5 590 Q130 612 130 637 Q130 662 139.5 684.5 Q149 707 165.5 723.5 Q182 740 205.5 749.5 Q229 759 258 759 Q286 759 310 749.5 Q334 740 350.5 723.5 Q367 707 376.5 684.5 Q386 662 386 637 Z M291 637 Q291 653 289 670.5 Q287 688 283.5 702.5 Q280 717 273.5 726 Q267 735 258 735 Q249 735 243 726 Q237 717 233 702.5 Q229 688 227 670.5 Q225 653 225 637 Q225 621 227 604 Q229 587 233 573.5 Q237 560 243 551 Q249 542 258 542 Q267 542 273.5 551 Q280 560 283.5 573.5 Q287 587 289 604 Q291 621 291 637 Z " />
<glyph glyph-name="ae" unicode="&#xe6;" horiz-adv-x="714" d="M260 221 Q226 219 203 199.5 Q180 180 180 137 Q180 114 184.5 99.5 Q189 85 196 76.5 Q203 68 211 64.5 Q219 61 226 61 Q260 61 260 110 L260 221 Z M282 70 Q261 30 223 11 Q185 -8 133 -8 Q109 -8 87.5 -2.5 Q66 3 49.5 15.5 Q33 28 23.5 48.5 Q14 69 14 98 Q14 141 38 168.5 Q62 196 99 212 Q136 228 179 234 Q222 240 260 242 L260 372 Q260 414 241.5 431 Q223 448 198 448 Q180 448 165 441 Q150 434 139 425 L201 313 Q190 299 166 286.5 Q142 274 115 274 Q82 274 55.5 294 Q29 314 29 352 Q29 383 48 407 Q67 431 95 446.5 Q123 462 156 470 Q189 478 217 478 Q270 478 306 462 Q342 446 362 427 Q387 449 425 463.5 Q463 478 507 478 Q553 478 589 466.5 Q625 455 650 436 Q675 417 688.5 391 Q702 365 702 337 Q702 302 687.5 275.5 Q673 249 647.5 231 Q622 213 587 204 Q552 195 511 195 Q495 195 479 196 Q463 197 453 199 Q455 155 465.5 124.5 Q476 94 492 74 Q508 54 529 45 Q550 36 574 36 Q638 36 689 92 L704 75 Q688 58 669 43 Q650 28 625.5 16.5 Q601 5 570 -1.5 Q539 -8 499 -8 Q431 -8 375.5 10 Q320 28 282 70 Z M502 452 Q489 452 479.5 438 Q470 424 463.5 400 Q457 376 454 344.5 Q451 313 451 279 Q451 265 451.5 252 Q452 239 453 226 Q458 224 464.5 222.5 Q471 221 482 221 Q506 221 520.5 250.5 Q535 280 535 351 Q535 393 526 422.5 Q517 452 502 452 Z " />
<glyph glyph-name="ccedilla" unicode="&#xe7;" horiz-adv-x="454" d="M215 -6 Q170 0 133.5 19.5 Q97 39 70.5 69 Q44 99 29.5 139.5 Q15 180 15 228 Q15 282 32.5 327.5 Q50 373 82 406.5 Q114 440 160.5 459 Q207 478 265 478 Q313 478 346.5 466.5 Q380 455 400 437.5 Q420 420 429 399 Q438 378 438 359 Q438 319 414 291.5 Q390 264 352 264 Q324 264 300.5 276 Q277 288 266 308 L379 428 Q372 438 352.5 444 Q333 450 316 450 Q273 450 251 391.5 Q229 333 229 237 Q229 135 257.5 83.5 Q286 32 330 32 Q359 32 382 46 Q405 60 423 78 L438 59 Q408 26 364.5 8.5 Q321 -9 257 -9 Q252 -9 249.5 -9 Q247 -9 239 -8 L207 -67 Q219 -64 240 -64 Q281 -64 311.5 -85 Q342 -106 342 -146 Q342 -171 331.5 -189 Q321 -207 304 -219 Q287 -231 265 -237 Q243 -243 220 -243 Q180 -243 158.5 -229 Q137 -215 137 -192 Q137 -178 146.5 -166 Q156 -154 174 -154 Q186 -154 195.5 -160.5 Q205 -167 210 -175 L167 -214 Q172 -219 178.5 -223 Q185 -227 194 -227 Q216 -227 229.5 -207.5 Q243 -188 243 -149 Q243 -114 230.5 -97 Q218 -80 198 -80 Q186 -80 180 -82 L176 -78 L215 -6 Z " />
<glyph glyph-name="egrave" unicode="&#xe8;" horiz-adv-x="491" d="M273 478 Q323 478 361.5 466.5 Q400 455 426 436 Q452 417 465 391 Q478 365 478 337 Q478 302 463.5 275.5 Q449 249 423.5 231 Q398 213 363.5 204 Q329 195 288 195 Q271 195 255.5 196 Q240 197 229 199 Q231 155 241.5 124.5 Q252 94 268.5 74 Q285 54 306 45 Q327 36 351 36 Q414 36 465 92 L480 75 Q464 58 444.5 43 Q425 28 400.5 16.5 Q376 5 345 -1.5 Q314 -8 276 -8 Q218 -8 170 7.5 Q122 23 87.5 53 Q53 83 34 127 Q15 171 15 227 Q15 281 33.5 326.5 Q52 372 86 406 Q120 440 167.5 459 Q215 478 273 478 Z M278 452 Q265 452 255.5 438 Q246 424 239.5 400 Q233 376 230 344.5 Q227 313 227 279 Q227 265 227.5 252 Q228 239 229 226 Q234 224 240.5 222.5 Q247 221 258 221 Q282 221 296.5 250.5 Q311 280 311 351 Q311 393 302 422.5 Q293 452 278 452 Z M402 525 L349 525 L200 592 Q167 607 158 622.5 Q149 638 149 655 Q149 675 166.5 693.5 Q184 712 218 712 Q248 712 268 699.5 Q288 687 308 660 L402 525 Z " />
<glyph glyph-name="eacute" unicode="&#xe9;" horiz-adv-x="491" d="M273 478 Q323 478 361.5 466.5 Q400 455 426 436 Q452 417 465 391 Q478 365 478 337 Q478 302 463.5 275.5 Q449 249 423.5 231 Q398 213 363.5 204 Q329 195 288 195 Q271 195 255.5 196 Q240 197 229 199 Q231 155 241.5 124.5 Q252 94 268.5 74 Q285 54 306 45 Q327 36 351 36 Q414 36 465 92 L480 75 Q464 58 444.5 43 Q425 28 400.5 16.5 Q376 5 345 -1.5 Q314 -8 276 -8 Q218 -8 170 7.5 Q122 23 87.5 53 Q53 83 34 127 Q15 171 15 227 Q15 281 33.5 326.5 Q52 372 86 406 Q120 440 167.5 459 Q215 478 273 478 Z M278 452 Q265 452 255.5 438 Q246 424 239.5 400 Q233 376 230 344.5 Q227 313 227 279 Q227 265 227.5 252 Q228 239 229 226 Q234 224 240.5 222.5 Q247 221 258 221 Q282 221 296.5 250.5 Q311 280 311 351 Q311 393 302 422.5 Q293 452 278 452 Z M279 660 Q299 685 321.5 698.5 Q344 712 377 712 Q403 712 419 697.5 Q435 683 435 661 Q435 640 422.5 622 Q410 604 378 590 L238 528 L169 528 L279 660 Z " />
<glyph glyph-name="ecircumflex" unicode="&#xea;" horiz-adv-x="491" d="M273 478 Q323 478 361.5 466.5 Q400 455 426 436 Q452 417 465 391 Q478 365 478 337 Q478 302 463.5 275.5 Q449 249 423.5 231 Q398 213 363.5 204 Q329 195 288 195 Q271 195 255.5 196 Q240 197 229 199 Q231 155 241.5 124.5 Q252 94 268.5 74 Q285 54 306 45 Q327 36 351 36 Q414 36 465 92 L480 75 Q464 58 444.5 43 Q425 28 400.5 16.5 Q376 5 345 -1.5 Q314 -8 276 -8 Q218 -8 170 7.5 Q122 23 87.5 53 Q53 83 34 127 Q15 171 15 227 Q15 281 33.5 326.5 Q52 372 86 406 Q120 440 167.5 459 Q215 478 273 478 Z M278 452 Q265 452 255.5 438 Q246 424 239.5 400 Q233 376 230 344.5 Q227 313 227 279 Q227 265 227.5 252 Q228 239 229 226 Q234 224 240.5 222.5 Q247 221 258 221 Q282 221 296.5 250.5 Q311 280 311 351 Q311 393 302 422.5 Q293 452 278 452 Z M315 694 L442 523 L421 511 L272 590 L121 511 L101 523 L228 694 L315 694 Z " />
<glyph glyph-name="edieresis" unicode="&#xeb;" horiz-adv-x="491" d="M273 478 Q323 478 361.5 466.5 Q400 455 426 436 Q452 417 465 391 Q478 365 478 337 Q478 302 463.5 275.5 Q449 249 423.5 231 Q398 213 363.5 204 Q329 195 288 195 Q271 195 255.5 196 Q240 197 229 199 Q231 155 241.5 124.5 Q252 94 268.5 74 Q285 54 306 45 Q327 36 351 36 Q414 36 465 92 L480 75 Q464 58 444.5 43 Q425 28 400.5 16.5 Q376 5 345 -1.5 Q314 -8 276 -8 Q218 -8 170 7.5 Q122 23 87.5 53 Q53 83 34 127 Q15 171 15 227 Q15 281 33.5 326.5 Q52 372 86 406 Q120 440 167.5 459 Q215 478 273 478 Z M278 452 Q265 452 255.5 438 Q246 424 239.5 400 Q233 376 230 344.5 Q227 313 227 279 Q227 265 227.5 252 Q228 239 229 226 Q234 224 240.5 222.5 Q247 221 258 221 Q282 221 296.5 250.5 Q311 280 311 351 Q311 393 302 422.5 Q293 452 278 452 Z M461 613 Q461 595 454.5 579.5 Q448 564 436.5 552.5 Q425 541 409 534 Q393 527 375 527 Q357 527 341.5 534 Q326 541 314.5 552.5 Q303 564 296 579.5 Q289 595 289 613 Q289 631 296 646.5 Q303 662 314.5 673.5 Q326 685 341.5 691.5 Q357 698 375 698 Q412 698 436.5 673 Q461 648 461 613 Z M243 613 Q243 595 236 579.5 Q229 564 217 552.5 Q205 541 189.5 534 Q174 527 157 527 Q119 527 95 552.5 Q71 578 71 613 Q71 648 95 673 Q119 698 157 698 Q174 698 189.5 691.5 Q205 685 217 673.5 Q229 662 236 646.5 Q243 631 243 613 Z " />
<glyph glyph-name="igrave" unicode="&#xec;" horiz-adv-x="346" d="M277 467 L277 26 L329 26 L329 0 L13 0 L13 26 L66 26 L66 441 L13 441 L13 467 L277 467 Z M293 525 L240 525 L91 592 Q58 607 49 622.5 Q40 638 40 655 Q40 675 57.5 693.5 Q75 712 109 712 Q139 712 159 699.5 Q179 687 199 660 L293 525 Z " />
<glyph glyph-name="iacute" unicode="&#xed;" horiz-adv-x="346" d="M277 467 L277 26 L329 26 L329 0 L13 0 L13 26 L66 26 L66 441 L13 441 L13 467 L277 467 Z M178 660 Q198 685 220.5 698.5 Q243 712 276 712 Q302 712 318 697.5 Q334 683 334 661 Q334 640 321.5 622 Q309 604 277 590 L137 528 L68 528 L178 660 Z " />
<glyph glyph-name="icircumflex" unicode="&#xee;" horiz-adv-x="346" d="M277 467 L277 26 L329 26 L329 0 L13 0 L13 26 L66 26 L66 441 L13 441 L13 467 L277 467 Z M213 694 L340 523 L319 511 L170 590 L19 511 L-1 523 L126 694 L213 694 Z " />
<glyph glyph-name="idieresis" unicode="&#xef;" horiz-adv-x="346" d="M277 467 L277 26 L329 26 L329 0 L13 0 L13 26 L66 26 L66 441 L13 441 L13 467 L277 467 Z M371 613 Q371 595 364.5 579.5 Q358 564 346.5 552.5 Q335 541 319 534 Q303 527 285 527 Q267 527 251.5 534 Q236 541 224.5 552.5 Q213 564 206 579.5 Q199 595 199 613 Q199 631 206 646.5 Q213 662 224.5 673.5 Q236 685 251.5 691.5 Q267 698 285 698 Q322 698 346.5 673 Q371 648 371 613 Z M153 613 Q153 595 146 579.5 Q139 564 127 552.5 Q115 541 99.5 534 Q84 527 67 527 Q29 527 5 552.5 Q-19 578 -19 613 Q-19 648 5 673 Q29 698 67 698 Q84 698 99.5 691.5 Q115 685 127 673.5 Q139 662 146 646.5 Q153 631 153 613 Z " />
<glyph glyph-name="eth" unicode="&#xf0;" horiz-adv-x="575" d="M123 572 L239 634 Q205 665 175.5 681.5 Q146 698 108 709 L117 729 Q166 721 215.5 704 Q265 687 301 666 L410 728 L423 704 L327 652 Q364 628 404 593.5 Q444 559 477 514 Q510 469 531.5 413 Q553 357 553 291 Q553 223 534.5 167.5 Q516 112 481.5 73 Q447 34 398 13 Q349 -8 287 -8 Q229 -8 179.5 9 Q130 26 93.5 57.5 Q57 89 36.5 133.5 Q16 178 16 233 Q16 290 37 335.5 Q58 381 93 412.5 Q128 444 174 461 Q220 478 270 478 Q282 478 293.5 477 Q305 476 317 474 Q304 559 258 613 L136 547 L123 572 Z M287 19 Q321 19 332 73.5 Q343 128 343 234 Q343 340 330.5 394.5 Q318 449 287 449 Q255 449 242.5 395 Q230 341 230 233 Q230 127 241 73 Q252 19 287 19 Z " />
<glyph glyph-name="ntilde" unicode="&#xf1;" horiz-adv-x="654" d="M592 86 Q592 50 616 50 Q624 50 630 55 Q636 60 641 67 L654 53 Q627 21 594 6.5 Q561 -8 517 -8 Q454 -8 417 27.5 Q380 63 380 144 L380 337 Q380 383 368.5 400.5 Q357 418 335 418 Q314 418 295.5 398 Q277 378 277 331 L277 26 L328 26 L328 0 L13 0 L13 26 L66 26 L66 441 L13 441 L13 467 L277 467 L277 406 Q284 419 298 432 Q312 445 331 455 Q350 465 374.5 471.5 Q399 478 428 478 Q473 478 504.5 465.5 Q536 453 555.5 432 Q575 411 583.5 383 Q592 355 592 323 L592 86 Z M538 703 Q537 673 528.5 645 Q520 617 504 594.5 Q488 572 464 558.5 Q440 545 408 545 Q387 545 365.5 551.5 Q344 558 322 566.5 Q300 575 277.5 581.5 Q255 588 232 588 Q226 588 217.5 586.5 Q209 585 200 580.5 Q191 576 183.5 567.5 Q176 559 172 545 L158 545 Q159 572 167.5 599.5 Q176 627 192 648.5 Q208 670 231.5 684 Q255 698 286 698 Q307 698 329.5 691.5 Q352 685 374.5 677 Q397 669 419.5 662.5 Q442 656 463 656 Q505 656 524 703 L538 703 Z " />
<glyph glyph-name="ograve" unicode="&#xf2;" horiz-adv-x="575" d="M288 478 Q355 478 406 457.5 Q457 437 490.5 403 Q524 369 541 325 Q558 281 558 235 Q558 188 541 144.5 Q524 101 490 67 Q456 33 405.5 12.5 Q355 -8 288 -8 Q220 -8 169.5 12.5 Q119 33 85 67 Q51 101 34 144.5 Q17 188 17 235 Q17 281 34 325 Q51 369 84.5 403 Q118 437 169 457.5 Q220 478 288 478 Z M288 19 Q322 19 333 74 Q344 129 344 235 Q344 341 331.5 396.5 Q319 452 288 452 Q256 452 243.5 396.5 Q231 341 231 235 Q231 129 242.5 74 Q254 19 288 19 Z M437 525 L384 525 L235 592 Q202 607 193 622.5 Q184 638 184 655 Q184 675 201.5 693.5 Q219 712 253 712 Q283 712 303 699.5 Q323 687 343 660 L437 525 Z " />
<glyph glyph-name="oacute" unicode="&#xf3;" horiz-adv-x="575" d="M318 660 Q338 685 360.5 698.5 Q383 712 416 712 Q442 712 458 697.5 Q474 683 474 661 Q474 640 461.5 622 Q449 604 417 590 L277 528 L208 528 L318 660 Z M288 478 Q355 478 406 457.5 Q457 437 490.5 403 Q524 369 541 325 Q558 281 558 235 Q558 188 541 144.5 Q524 101 490 67 Q456 33 405.5 12.5 Q355 -8 288 -8 Q220 -8 169.5 12.5 Q119 33 85 67 Q51 101 34 144.5 Q17 188 17 235 Q17 281 34 325 Q51 369 84.5 403 Q118 437 169 457.5 Q220 478 288 478 Z M288 19 Q322 19 333 74 Q344 129 344 235 Q344 341 331.5 396.5 Q319 452 288 452 Q256 452 243.5 396.5 Q231 341 231 235 Q231 129 242.5 74 Q254 19 288 19 Z " />
<glyph glyph-name="ocircumflex" unicode="&#xf4;" horiz-adv-x="575" d="M288 478 Q355 478 406 457.5 Q457 437 490.5 403 Q524 369 541 325 Q558 281 558 235 Q558 188 541 144.5 Q524 101 490 67 Q456 33 405.5 12.5 Q355 -8 288 -8 Q220 -8 169.5 12.5 Q119 33 85 67 Q51 101 34 144.5 Q17 188 17 235 Q17 281 34 325 Q51 369 84.5 403 Q118 437 169 457.5 Q220 478 288 478 Z M288 19 Q322 19 333 74 Q344 129 344 235 Q344 341 331.5 396.5 Q319 452 288 452 Q256 452 243.5 396.5 Q231 341 231 235 Q231 129 242.5 74 Q254 19 288 19 Z M331 694 L458 523 L437 511 L288 590 L137 511 L117 523 L244 694 L331 694 Z " />
<glyph glyph-name="otilde" unicode="&#xf5;" horiz-adv-x="575" d="M288 478 Q355 478 406 457.5 Q457 437 490.5 403 Q524 369 541 325 Q558 281 558 235 Q558 188 541 144.5 Q524 101 490 67 Q456 33 405.5 12.5 Q355 -8 288 -8 Q220 -8 169.5 12.5 Q119 33 85 67 Q51 101 34 144.5 Q17 188 17 235 Q17 281 34 325 Q51 369 84.5 403 Q118 437 169 457.5 Q220 478 288 478 Z M288 19 Q322 19 333 74 Q344 129 344 235 Q344 341 331.5 396.5 Q319 452 288 452 Q256 452 243.5 396.5 Q231 341 231 235 Q231 129 242.5 74 Q254 19 288 19 Z M492 703 Q491 673 482.5 645 Q474 617 458 594.5 Q442 572 418 558.5 Q394 545 362 545 Q341 545 319.5 551.5 Q298 558 276 566.5 Q254 575 231.5 581.5 Q209 588 186 588 Q180 588 171.5 586.5 Q163 585 154 580.5 Q145 576 137.5 567.5 Q130 559 126 545 L112 545 Q113 572 121.5 599.5 Q130 627 146 648.5 Q162 670 185.5 684 Q209 698 240 698 Q261 698 283.5 691.5 Q306 685 328.5 677 Q351 669 373.5 662.5 Q396 656 417 656 Q459 656 478 703 L492 703 Z " />
<glyph glyph-name="odieresis" unicode="&#xf6;" horiz-adv-x="575" d="M288 478 Q355 478 406 457.5 Q457 437 490.5 403 Q524 369 541 325 Q558 281 558 235 Q558 188 541 144.5 Q524 101 490 67 Q456 33 405.5 12.5 Q355 -8 288 -8 Q220 -8 169.5 12.5 Q119 33 85 67 Q51 101 34 144.5 Q17 188 17 235 Q17 281 34 325 Q51 369 84.5 403 Q118 437 169 457.5 Q220 478 288 478 Z M288 19 Q322 19 333 74 Q344 129 344 235 Q344 341 331.5 396.5 Q319 452 288 452 Q256 452 243.5 396.5 Q231 341 231 235 Q231 129 242.5 74 Q254 19 288 19 Z M482 613 Q482 595 475.5 579.5 Q469 564 457.5 552.5 Q446 541 430 534 Q414 527 396 527 Q378 527 362.5 534 Q347 541 335.5 552.5 Q324 564 317 579.5 Q310 595 310 613 Q310 631 317 646.5 Q324 662 335.5 673.5 Q347 685 362.5 691.5 Q378 698 396 698 Q433 698 457.5 673 Q482 648 482 613 Z M264 613 Q264 595 257 579.5 Q250 564 238 552.5 Q226 541 210.5 534 Q195 527 178 527 Q140 527 116 552.5 Q92 578 92 613 Q92 648 116 673 Q140 698 178 698 Q195 698 210.5 691.5 Q226 685 238 673.5 Q250 662 257 646.5 Q264 631 264 613 Z " />
<glyph glyph-name="divide" unicode="&#xf7;" horiz-adv-x="649" d="M65 259 L65 307 L584 307 L584 259 L65 259 Z M323 508 Q347 508 364 492.5 Q381 477 381 454 Q381 431 364 415 Q347 399 323 399 Q300 399 283.5 415 Q267 431 267 454 Q267 477 283.5 492.5 Q300 508 323 508 Z M325 165 Q349 165 365.5 149.5 Q382 134 382 111 Q382 88 365.5 72.5 Q349 57 325 57 Q302 57 285.5 72.5 Q269 88 269 111 Q269 134 285.5 149.5 Q302 165 325 165 Z " />
<glyph glyph-name="oslash" unicode="&#xf8;" horiz-adv-x="575" d="M288 478 Q355 478 407 458 L445 524 L473 524 L429 447 Q461 431 485.5 408 Q510 385 526 357 Q542 329 550 298 Q558 267 558 235 Q558 188 541 144.5 Q524 101 490 67 Q456 33 405.5 12.5 Q355 -8 288 -8 Q225 -8 176 9 L131 -69 L102 -69 L153 19 Q120 34 95 57 Q70 80 52.5 108.5 Q35 137 26 169.5 Q17 202 17 235 Q17 281 34 325 Q51 369 84.5 403 Q118 437 169 457.5 Q220 478 288 478 Z M231 231 Q231 210 231 191.5 Q231 173 232 156 L339 341 Q334 395 322.5 423.5 Q311 452 288 452 Q256 452 243.5 395.5 Q231 339 231 231 Z M288 19 Q322 19 333 72.5 Q344 126 344 231 Q344 249 343.5 265.5 Q343 282 342 298 L236 113 Q241 68 253 43.5 Q265 19 288 19 Z " />
<glyph glyph-name="ugrave" unicode="&#xf9;" horiz-adv-x="644" d="M580 86 Q580 50 603 50 Q611 50 617.5 55 Q624 60 629 67 L642 53 Q614 21 581.5 6.5 Q549 -8 505 -8 Q458 -8 425.5 11 Q393 30 378 72 Q369 58 355 43.5 Q341 29 321.5 17.5 Q302 6 276.5 -1 Q251 -8 220 -8 Q175 -8 143.5 4 Q112 16 92.5 37 Q73 58 64.5 86 Q56 114 56 146 L56 441 L6 441 L6 467 L268 467 L268 132 Q268 86 279 69 Q290 52 312 52 Q332 52 350 71.5 Q368 91 368 138 L368 441 L318 441 L318 467 L580 467 L580 86 Z M447 525 L394 525 L245 592 Q212 607 203 622.5 Q194 638 194 655 Q194 675 211.5 693.5 Q229 712 263 712 Q293 712 313 699.5 Q333 687 353 660 L447 525 Z " />
<glyph glyph-name="uacute" unicode="&#xfa;" horiz-adv-x="644" d="M580 86 Q580 50 603 50 Q611 50 617.5 55 Q624 60 629 67 L642 53 Q614 21 581.5 6.5 Q549 -8 505 -8 Q458 -8 425.5 11 Q393 30 378 72 Q369 58 355 43.5 Q341 29 321.5 17.5 Q302 6 276.5 -1 Q251 -8 220 -8 Q175 -8 143.5 4 Q112 16 92.5 37 Q73 58 64.5 86 Q56 114 56 146 L56 441 L6 441 L6 467 L268 467 L268 132 Q268 86 279 69 Q290 52 312 52 Q332 52 350 71.5 Q368 91 368 138 L368 441 L318 441 L318 467 L580 467 L580 86 Z M349 660 Q369 685 391.5 698.5 Q414 712 447 712 Q473 712 489 697.5 Q505 683 505 661 Q505 640 492.5 622 Q480 604 448 590 L308 528 L239 528 L349 660 Z " />
<glyph glyph-name="ucircumflex" unicode="&#xfb;" horiz-adv-x="644" d="M580 86 Q580 50 603 50 Q611 50 617.5 55 Q624 60 629 67 L642 53 Q614 21 581.5 6.5 Q549 -8 505 -8 Q458 -8 425.5 11 Q393 30 378 72 Q369 58 355 43.5 Q341 29 321.5 17.5 Q302 6 276.5 -1 Q251 -8 220 -8 Q175 -8 143.5 4 Q112 16 92.5 37 Q73 58 64.5 86 Q56 114 56 146 L56 441 L6 441 L6 467 L268 467 L268 132 Q268 86 279 69 Q290 52 312 52 Q332 52 350 71.5 Q368 91 368 138 L368 441 L318 441 L318 467 L580 467 L580 86 Z M363 694 L490 523 L469 511 L320 590 L169 511 L149 523 L276 694 L363 694 Z " />
<glyph glyph-name="udieresis" unicode="&#xfc;" horiz-adv-x="644" d="M580 86 Q580 50 603 50 Q611 50 617.5 55 Q624 60 629 67 L642 53 Q614 21 581.5 6.5 Q549 -8 505 -8 Q458 -8 425.5 11 Q393 30 378 72 Q369 58 355 43.5 Q341 29 321.5 17.5 Q302 6 276.5 -1 Q251 -8 220 -8 Q175 -8 143.5 4 Q112 16 92.5 37 Q73 58 64.5 86 Q56 114 56 146 L56 441 L6 441 L6 467 L268 467 L268 132 Q268 86 279 69 Q290 52 312 52 Q332 52 350 71.5 Q368 91 368 138 L368 441 L318 441 L318 467 L580 467 L580 86 Z M512 613 Q512 595 505.5 579.5 Q499 564 487.5 552.5 Q476 541 460 534 Q444 527 426 527 Q408 527 392.5 534 Q377 541 365.5 552.5 Q354 564 347 579.5 Q340 595 340 613 Q340 631 347 646.5 Q354 662 365.5 673.5 Q377 685 392.5 691.5 Q408 698 426 698 Q463 698 487.5 673 Q512 648 512 613 Z M294 613 Q294 595 287 579.5 Q280 564 268 552.5 Q256 541 240.5 534 Q225 527 208 527 Q170 527 146 552.5 Q122 578 122 613 Q122 648 146 673 Q170 698 208 698 Q225 698 240.5 691.5 Q256 685 268 673.5 Q280 662 287 646.5 Q294 631 294 613 Z " />
<glyph glyph-name="yacute" unicode="&#xfd;" horiz-adv-x="455" d="M-14 441 L-61 441 L-61 467 L266 467 L266 441 L214 441 L309 215 L399 441 L353 441 L353 467 L483 467 L483 441 L430 441 L253 0 Q230 -57 212 -98 Q194 -139 176 -165 Q158 -191 137 -203.5 Q116 -216 88 -216 Q52 -216 29.5 -196.5 Q7 -177 7 -143 Q7 -130 10 -116 L114 -116 Q136 -116 149.5 -114 Q163 -112 173 -104.5 Q183 -97 191 -81 Q199 -65 210 -37 L-14 441 Z M298 660 Q318 685 340.5 698.5 Q363 712 396 712 Q422 712 438 697.5 Q454 683 454 661 Q454 640 441.5 622 Q429 604 397 590 L257 528 L188 528 L298 660 Z " />
<glyph glyph-name="thorn" unicode="&#xfe;" horiz-adv-x="593" d="M574 233 Q574 174 558 129 Q542 84 515 53.5 Q488 23 451.5 7.5 Q415 -8 373 -8 Q334 -8 306 5 Q278 18 265 35 L265 -173 L317 -173 L317 -199 L-1 -199 L-1 -173 L52 -173 L52 700 L-1 700 L-1 727 L264 727 L264 433 Q277 450 305.5 464 Q334 478 373 478 Q415 478 451.5 462 Q488 446 515 415 Q542 384 558 338 Q574 292 574 233 Z M360 234 Q360 293 355.5 331.5 Q351 370 343 392.5 Q335 415 325 423.5 Q315 432 305 432 Q285 432 274.5 410.5 Q264 389 264 359 L264 108 Q264 79 274.5 58.5 Q285 38 305 38 Q315 38 325 46.5 Q335 55 343 77 Q351 99 355.5 137 Q360 175 360 234 Z " />
<glyph glyph-name="ydieresis" unicode="&#xff;" horiz-adv-x="455" d="M-14 441 L-61 441 L-61 467 L266 467 L266 441 L214 441 L309 215 L399 441 L353 441 L353 467 L483 467 L483 441 L430 441 L253 0 Q230 -57 212 -98 Q194 -139 176 -165 Q158 -191 137 -203.5 Q116 -216 88 -216 Q52 -216 29.5 -196.5 Q7 -177 7 -143 Q7 -130 10 -116 L114 -116 Q136 -116 149.5 -114 Q163 -112 173 -104.5 Q183 -97 191 -81 Q199 -65 210 -37 L-14 441 Z M448 613 Q448 595 441.5 579.5 Q435 564 423.5 552.5 Q412 541 396 534 Q380 527 362 527 Q344 527 328.5 534 Q313 541 301.5 552.5 Q290 564 283 579.5 Q276 595 276 613 Q276 631 283 646.5 Q290 662 301.5 673.5 Q313 685 328.5 691.5 Q344 698 362 698 Q399 698 423.5 673 Q448 648 448 613 Z M230 613 Q230 595 223 579.5 Q216 564 204 552.5 Q192 541 176.5 534 Q161 527 144 527 Q106 527 82 552.5 Q58 578 58 613 Q58 648 82 673 Q106 698 144 698 Q161 698 176.5 691.5 Q192 685 204 673.5 Q216 662 223 646.5 Q230 631 230 613 Z " />
<glyph glyph-name="Amacron" unicode="&#x100;" horiz-adv-x="657" d="M308 26 L394 26 L336 198 L137 198 L73 26 L153 26 L153 0 L-14 0 L-14 26 L41 26 L288 698 L384 698 L611 26 L661 26 L661 0 L308 0 L308 26 Z M240 481 L148 225 L326 225 L240 481 Z M187 781 L187 881 L497 881 L497 781 L187 781 Z " />
<glyph glyph-name="amacron" unicode="&#x101;" horiz-adv-x="520" d="M195 447 Q173 447 160 439 Q147 431 140 425 L202 313 Q191 299 168.5 286.5 Q146 274 116 274 Q83 274 56.5 292.5 Q30 311 30 352 Q30 382 47.5 405 Q65 428 94 444.5 Q123 461 160.5 469.5 Q198 478 238 478 Q304 478 347.5 466 Q391 454 416.5 428.5 Q442 403 452.5 364 Q463 325 463 271 L463 86 Q463 50 487 50 Q495 50 501.5 55 Q508 60 512 67 L525 53 Q498 21 465 6.5 Q432 -8 388 -8 Q352 -8 322 10 Q292 28 273 62 Q247 28 211 10 Q175 -8 133 -8 Q79 -8 47 16.5 Q15 41 15 98 Q15 141 39 168.5 Q63 196 100 212 Q137 228 180 234 Q223 240 261 242 L261 372 Q261 393 255.5 407 Q250 421 241 430 Q232 439 220 443 Q208 447 195 447 Z M261 221 Q227 219 204 199.5 Q181 180 181 137 Q181 92 197 76.5 Q213 61 233 61 Q252 61 261 72 L261 221 Z M97 555 L97 655 L407 655 L407 555 L97 555 Z " />
<glyph glyph-name="Abreve" unicode="&#x102;" horiz-adv-x="657" d="M308 26 L394 26 L336 198 L137 198 L73 26 L153 26 L153 0 L-14 0 L-14 26 L41 26 L288 698 L384 698 L611 26 L661 26 L661 0 L308 0 L308 26 Z M240 481 L148 225 L326 225 L240 481 Z M479 924 Q479 845 443.5 797 Q408 749 329 749 Q250 749 215.5 797 Q181 845 181 924 L209 924 Q219 901 234 887 Q249 873 265.5 865.5 Q282 858 298.5 855 Q315 852 329 852 Q358 852 391.5 865.5 Q425 879 451 924 L479 924 Z " />
<glyph glyph-name="abreve" unicode="&#x103;" horiz-adv-x="520" d="M195 447 Q173 447 160 439 Q147 431 140 425 L202 313 Q191 299 168.5 286.5 Q146 274 116 274 Q83 274 56.5 292.5 Q30 311 30 352 Q30 382 47.5 405 Q65 428 94 444.5 Q123 461 160.5 469.5 Q198 478 238 478 Q304 478 347.5 466 Q391 454 416.5 428.5 Q442 403 452.5 364 Q463 325 463 271 L463 86 Q463 50 487 50 Q495 50 501.5 55 Q508 60 512 67 L525 53 Q498 21 465 6.5 Q432 -8 388 -8 Q352 -8 322 10 Q292 28 273 62 Q247 28 211 10 Q175 -8 133 -8 Q79 -8 47 16.5 Q15 41 15 98 Q15 141 39 168.5 Q63 196 100 212 Q137 228 180 234 Q223 240 261 242 L261 372 Q261 393 255.5 407 Q250 421 241 430 Q232 439 220 443 Q208 447 195 447 Z M261 221 Q227 219 204 199.5 Q181 180 181 137 Q181 92 197 76.5 Q213 61 233 61 Q252 61 261 72 L261 221 Z M395 698 Q395 619 359.5 571 Q324 523 245 523 Q166 523 131.5 571 Q97 619 97 698 L125 698 Q135 675 150 661 Q165 647 181.5 639.5 Q198 632 214.5 629 Q231 626 245 626 Q274 626 307.5 639.5 Q341 653 367 698 L395 698 Z " />
<glyph glyph-name="Aogonek" unicode="&#x104;" horiz-adv-x="657" d="M308 26 L394 26 L336 198 L137 198 L73 26 L153 26 L153 0 L-14 0 L-14 26 L41 26 L288 698 L384 698 L611 26 L661 26 L661 0 L584 0 Q561 -19 550.5 -47.5 Q540 -76 540 -104 Q540 -146 560 -169.5 Q580 -193 610 -193 Q625 -193 635 -187.5 Q645 -182 653 -176 L666 -188 Q638 -214 603 -228 Q568 -242 532 -242 Q500 -242 477.5 -233.5 Q455 -225 441 -211 Q427 -197 420.5 -179 Q414 -161 414 -141 Q414 -99 445.5 -61.5 Q477 -24 542 0 L308 0 L308 26 Z M240 481 L148 225 L326 225 L240 481 Z " />
<glyph glyph-name="aogonek" unicode="&#x105;" horiz-adv-x="520" d="M195 447 Q173 447 160 439 Q147 431 140 425 L202 313 Q191 299 168.5 286.5 Q146 274 116 274 Q83 274 56.5 292.5 Q30 311 30 352 Q30 382 47.5 405 Q65 428 94 444.5 Q123 461 160.5 469.5 Q198 478 238 478 Q304 478 347.5 466 Q391 454 416.5 428.5 Q442 403 452.5 364 Q463 325 463 271 L463 86 Q463 50 487 50 Q495 50 501.5 55 Q508 60 512 67 L525 53 Q508 33 493 25 Q478 17 457 4 Q425 -16 412.5 -46.5 Q400 -77 400 -104 Q400 -146 420 -170 Q440 -194 470 -194 Q487 -194 496 -188.5 Q505 -183 513 -177 L525 -189 Q498 -215 463 -229 Q428 -243 392 -243 Q360 -243 337.5 -234.5 Q315 -226 301 -211.5 Q287 -197 280.5 -179 Q274 -161 274 -141 Q274 -103 300.5 -68 Q327 -33 383 -8 Q313 -6 273 63 Q247 29 211 10.5 Q175 -8 133 -8 Q79 -8 47 16.5 Q15 41 15 98 Q15 141 39 168.5 Q63 196 100 212 Q137 228 180 234 Q223 240 261 242 L261 372 Q261 393 255.5 407 Q250 421 241 430 Q232 439 220 443 Q208 447 195 447 Z M261 221 Q227 219 204 199.5 Q181 180 181 137 Q181 92 197 76.5 Q213 61 233 61 Q244 61 250.5 64.5 Q257 68 261 73 L261 221 Z " />
<glyph glyph-name="Cacute" unicode="&#x106;" horiz-adv-x="623" d="M597 80 Q580 60 558.5 43.5 Q537 27 508.5 15.5 Q480 4 443.5 -2 Q407 -8 360 -8 Q282 -8 219.5 17 Q157 42 113.5 88 Q70 134 46.5 197 Q23 260 23 337 Q23 405 44 472 Q65 539 108 592.5 Q151 646 216.5 679 Q282 712 372 712 Q432 712 476 698 Q520 684 548.5 662 Q577 640 590.5 612 Q604 584 604 556 Q604 511 577.5 480.5 Q551 450 499 450 Q463 450 440.5 460.5 Q418 471 401 487 L522 635 Q507 652 480.5 665.5 Q454 679 423 679 Q379 679 349.5 655 Q320 631 302 589.5 Q284 548 276 491 Q268 434 268 368 Q268 280 280.5 216.5 Q293 153 316 112.5 Q339 72 371.5 53 Q404 34 444 34 Q490 34 521.5 51 Q553 68 578 97 L597 80 Z M363 886 Q383 911 405.5 924.5 Q428 938 461 938 Q487 938 503 923.5 Q519 909 519 887 Q519 866 506.5 848 Q494 830 462 816 L322 754 L253 754 L363 886 Z " />
<glyph glyph-name="cacute" unicode="&#x107;" horiz-adv-x="454" d="M438 59 Q408 26 364.5 9 Q321 -8 257 -8 Q204 -8 159.5 9 Q115 26 83 57 Q51 88 33 131.5 Q15 175 15 228 Q15 282 32.5 327.5 Q50 373 82 406.5 Q114 440 160.5 459 Q207 478 265 478 Q313 478 346.5 466.5 Q380 455 400 437.5 Q420 420 429 399 Q438 378 438 359 Q438 319 414 291.5 Q390 264 352 264 Q324 264 300.5 276 Q277 288 266 308 L379 428 Q372 438 352.5 444 Q333 450 316 450 Q273 450 251 391.5 Q229 333 229 237 Q229 135 257.5 83.5 Q286 32 330 32 Q359 32 382 46 Q405 60 423 78 L438 59 Z M255 652 Q275 677 297.5 690.5 Q320 704 353 704 Q379 704 395 689.5 Q411 675 411 653 Q411 632 398.5 614 Q386 596 354 582 L214 520 L145 520 L255 652 Z " />
<glyph glyph-name="Ccircumflex" unicode="&#x108;" horiz-adv-x="623" d="M597 80 Q580 60 558.5 43.5 Q537 27 508.5 15.5 Q480 4 443.5 -2 Q407 -8 360 -8 Q282 -8 219.5 17 Q157 42 113.5 88 Q70 134 46.5 197 Q23 260 23 337 Q23 405 44 472 Q65 539 108 592.5 Q151 646 216.5 679 Q282 712 372 712 Q432 712 476 698 Q520 684 548.5 662 Q577 640 590.5 612 Q604 584 604 556 Q604 511 577.5 480.5 Q551 450 499 450 Q463 450 440.5 460.5 Q418 471 401 487 L522 635 Q507 652 480.5 665.5 Q454 679 423 679 Q379 679 349.5 655 Q320 631 302 589.5 Q284 548 276 491 Q268 434 268 368 Q268 280 280.5 216.5 Q293 153 316 112.5 Q339 72 371.5 53 Q404 34 444 34 Q490 34 521.5 51 Q553 68 578 97 L597 80 Z M387 920 L514 749 L493 737 L344 816 L193 737 L173 749 L300 920 L387 920 Z " />
<glyph glyph-name="ccircumflex" unicode="&#x109;" horiz-adv-x="454" d="M438 59 Q408 26 364.5 9 Q321 -8 257 -8 Q204 -8 159.5 9 Q115 26 83 57 Q51 88 33 131.5 Q15 175 15 228 Q15 282 32.5 327.5 Q50 373 82 406.5 Q114 440 160.5 459 Q207 478 265 478 Q313 478 346.5 466.5 Q380 455 400 437.5 Q420 420 429 399 Q438 378 438 359 Q438 319 414 291.5 Q390 264 352 264 Q324 264 300.5 276 Q277 288 266 308 L379 428 Q372 438 352.5 444 Q333 450 316 450 Q273 450 251 391.5 Q229 333 229 237 Q229 135 257.5 83.5 Q286 32 330 32 Q359 32 382 46 Q405 60 423 78 L438 59 Z M291 694 L418 523 L397 511 L248 590 L97 511 L77 523 L204 694 L291 694 Z " />
<glyph glyph-name="Cdotaccent" unicode="&#x10a;" horiz-adv-x="623" d="M597 80 Q580 60 558.5 43.5 Q537 27 508.5 15.5 Q480 4 443.5 -2 Q407 -8 360 -8 Q282 -8 219.5 17 Q157 42 113.5 88 Q70 134 46.5 197 Q23 260 23 337 Q23 405 44 472 Q65 539 108 592.5 Q151 646 216.5 679 Q282 712 372 712 Q432 712 476 698 Q520 684 548.5 662 Q577 640 590.5 612 Q604 584 604 556 Q604 511 577.5 480.5 Q551 450 499 450 Q463 450 440.5 460.5 Q418 471 401 487 L522 635 Q507 652 480.5 665.5 Q454 679 423 679 Q379 679 349.5 655 Q320 631 302 589.5 Q284 548 276 491 Q268 434 268 368 Q268 280 280.5 216.5 Q293 153 316 112.5 Q339 72 371.5 53 Q404 34 444 34 Q490 34 521.5 51 Q553 68 578 97 L597 80 Z M443 841 Q443 803 418.5 778 Q394 753 358 753 Q323 753 298.5 778 Q274 803 274 841 Q274 876 298.5 900 Q323 924 358 924 Q394 924 418.5 900 Q443 876 443 841 Z " />
<glyph glyph-name="cdotaccent" unicode="&#x10b;" horiz-adv-x="454" d="M438 59 Q408 26 364.5 9 Q321 -8 257 -8 Q204 -8 159.5 9 Q115 26 83 57 Q51 88 33 131.5 Q15 175 15 228 Q15 282 32.5 327.5 Q50 373 82 406.5 Q114 440 160.5 459 Q207 478 265 478 Q313 478 346.5 466.5 Q380 455 400 437.5 Q420 420 429 399 Q438 378 438 359 Q438 319 414 291.5 Q390 264 352 264 Q324 264 300.5 276 Q277 288 266 308 L379 428 Q372 438 352.5 444 Q333 450 316 450 Q273 450 251 391.5 Q229 333 229 237 Q229 135 257.5 83.5 Q286 32 330 32 Q359 32 382 46 Q405 60 423 78 L438 59 Z M337 615 Q337 577 312.5 552 Q288 527 252 527 Q217 527 192.5 552 Q168 577 168 615 Q168 650 192.5 674 Q217 698 252 698 Q288 698 312.5 674 Q337 650 337 615 Z " />
<glyph glyph-name="Ccaron" unicode="&#x10c;" horiz-adv-x="623" d="M597 80 Q580 60 558.5 43.5 Q537 27 508.5 15.5 Q480 4 443.5 -2 Q407 -8 360 -8 Q282 -8 219.5 17 Q157 42 113.5 88 Q70 134 46.5 197 Q23 260 23 337 Q23 405 44 472 Q65 539 108 592.5 Q151 646 216.5 679 Q282 712 372 712 Q432 712 476 698 Q520 684 548.5 662 Q577 640 590.5 612 Q604 584 604 556 Q604 511 577.5 480.5 Q551 450 499 450 Q463 450 440.5 460.5 Q418 471 401 487 L522 635 Q507 652 480.5 665.5 Q454 679 423 679 Q379 679 349.5 655 Q320 631 302 589.5 Q284 548 276 491 Q268 434 268 368 Q268 280 280.5 216.5 Q293 153 316 112.5 Q339 72 371.5 53 Q404 34 444 34 Q490 34 521.5 51 Q553 68 578 97 L597 80 Z M311 758 L191 922 L221 939 L356 862 L491 939 L520 922 L401 758 L311 758 Z " />
<glyph glyph-name="ccaron" unicode="&#x10d;" horiz-adv-x="454" d="M438 59 Q408 26 364.5 9 Q321 -8 257 -8 Q204 -8 159.5 9 Q115 26 83 57 Q51 88 33 131.5 Q15 175 15 228 Q15 282 32.5 327.5 Q50 373 82 406.5 Q114 440 160.5 459 Q207 478 265 478 Q313 478 346.5 466.5 Q380 455 400 437.5 Q420 420 429 399 Q438 378 438 359 Q438 319 414 291.5 Q390 264 352 264 Q324 264 300.5 276 Q277 288 266 308 L379 428 Q372 438 352.5 444 Q333 450 316 450 Q273 450 251 391.5 Q229 333 229 237 Q229 135 257.5 83.5 Q286 32 330 32 Q359 32 382 46 Q405 60 423 78 L438 59 Z M198 532 L78 696 L108 713 L243 636 L378 713 L407 696 L288 532 L198 532 Z " />
<glyph glyph-name="Dcaron" unicode="&#x10e;" horiz-adv-x="753" d="M321 26 L331 26 Q366 26 395.5 48 Q425 70 446 112 Q467 154 479 215 Q491 276 491 353 Q491 431 479.5 490.5 Q468 550 447 590.5 Q426 631 397.5 651.5 Q369 672 335 672 L321 672 L321 26 Z M89 672 L17 672 L17 698 L349 698 Q443 698 514.5 671 Q586 644 633.5 597 Q681 550 705 487.5 Q729 425 729 353 Q729 282 705 218 Q681 154 633.5 105.5 Q586 57 514.5 28.5 Q443 0 349 0 L17 0 L17 26 L89 26 L89 672 Z M293 758 L173 922 L203 939 L338 862 L473 939 L502 922 L383 758 L293 758 Z " />
<glyph glyph-name="dcaron" unicode="&#x10f;" horiz-adv-x="713" d="M547 86 Q547 50 571 50 Q579 50 585 55 Q591 60 596 67 L609 53 Q581 21 548.5 6.5 Q516 -8 472 -8 Q423 -8 389 9 Q355 26 335 54 Q313 19 284.5 5.5 Q256 -8 211 -8 Q167 -8 132 11.5 Q97 31 71.5 64 Q46 97 32.5 141 Q19 185 19 234 Q19 281 33.5 325 Q48 369 75.5 403 Q103 437 141.5 457.5 Q180 478 228 478 Q270 478 294 470 Q318 462 335 450 L335 700 L283 700 L283 727 L547 727 L547 86 Z M284 41 Q299 41 309 55.5 Q319 70 324.5 94 Q330 118 332.5 148 Q335 178 335 209 L335 349 Q335 377 330.5 395 Q326 413 319 423 Q312 433 304 436.5 Q296 440 289 440 Q257 440 245 390 Q233 340 233 234 Q233 128 245.5 84.5 Q258 41 284 41 Z M626 521 Q649 540 661.5 556 Q674 572 674 586 Q674 593 662.5 598.5 Q651 604 637.5 612.5 Q624 621 613 635 Q602 649 602 674 Q602 708 626 726 Q650 744 680 744 Q710 744 735 724 Q760 704 760 661 Q760 608 728.5 569 Q697 530 647 495 L626 521 Z " />
<glyph glyph-name="Dcroat" unicode="&#x110;" horiz-adv-x="757" d="M35 371 L93 371 L93 672 L21 672 L21 698 L352 698 Q446 698 517.5 671 Q589 644 637 597 Q685 550 709 487.5 Q733 425 733 353 Q733 282 709 218 Q685 154 637 105.5 Q589 57 517.5 28.5 Q446 0 352 0 L21 0 L21 26 L93 26 L93 340 L35 340 L35 371 Z M324 371 L414 371 L414 340 L324 340 L324 26 L335 26 Q370 26 399.5 48 Q429 70 450 112 Q471 154 482.5 215 Q494 276 494 353 Q494 509 450.5 590.5 Q407 672 338 672 L324 672 L324 371 Z " />
<glyph glyph-name="dcroat" unicode="&#x111;" horiz-adv-x="611" d="M198 573 L198 600 L335 600 L335 700 L283 700 L283 727 L547 727 L547 600 L596 600 L596 573 L547 573 L547 86 Q547 50 571 50 Q579 50 585 55 Q591 60 596 67 L609 53 Q581 21 548.5 6.5 Q516 -8 472 -8 Q423 -8 389 9 Q355 26 335 54 Q313 19 284.5 5.5 Q256 -8 211 -8 Q167 -8 132 11.5 Q97 31 71.5 64 Q46 97 32.5 141 Q19 185 19 234 Q19 281 33.5 325 Q48 369 75.5 403 Q103 437 141.5 457.5 Q180 478 228 478 Q270 478 294 470 Q318 462 335 450 L335 573 L198 573 Z M284 41 Q299 41 309 55.5 Q319 70 324.5 94 Q330 118 332.5 148 Q335 178 335 209 L335 349 Q335 377 330.5 395 Q326 413 319 423 Q312 433 304 436.5 Q296 440 289 440 Q257 440 245 390 Q233 340 233 234 Q233 128 245.5 84.5 Q258 41 284 41 Z " />
<glyph glyph-name="Emacron" unicode="&#x112;" horiz-adv-x="631" d="M465 698 Q534 698 573 667.5 Q612 637 612 580 Q612 538 584.5 508.5 Q557 479 509 479 Q474 479 453.5 490.5 Q433 502 416 518 L525 657 Q520 661 511 663.5 Q502 666 490.5 668 Q479 670 467 671 Q455 672 446 672 L321 672 L321 354 L480 354 L480 328 L321 328 L321 26 L371 26 Q429 26 467.5 40.5 Q506 55 530 81 Q554 107 566.5 143 Q579 179 586 221 L607 222 L607 0 L17 0 L17 26 L89 26 L89 672 L17 672 L17 698 L465 698 Z M172 781 L172 881 L482 881 L482 781 L172 781 Z " />
<glyph glyph-name="emacron" unicode="&#x113;" horiz-adv-x="491" d="M273 478 Q323 478 361.5 466.5 Q400 455 426 436 Q452 417 465 391 Q478 365 478 337 Q478 302 463.5 275.5 Q449 249 423.5 231 Q398 213 363.5 204 Q329 195 288 195 Q271 195 255.5 196 Q240 197 229 199 Q231 155 241.5 124.5 Q252 94 268.5 74 Q285 54 306 45 Q327 36 351 36 Q414 36 465 92 L480 75 Q464 58 444.5 43 Q425 28 400.5 16.5 Q376 5 345 -1.5 Q314 -8 276 -8 Q218 -8 170 7.5 Q122 23 87.5 53 Q53 83 34 127 Q15 171 15 227 Q15 281 33.5 326.5 Q52 372 86 406 Q120 440 167.5 459 Q215 478 273 478 Z M278 452 Q265 452 255.5 438 Q246 424 239.5 400 Q233 376 230 344.5 Q227 313 227 279 Q227 265 227.5 252 Q228 239 229 226 Q234 224 240.5 222.5 Q247 221 258 221 Q282 221 296.5 250.5 Q311 280 311 351 Q311 393 302 422.5 Q293 452 278 452 Z M110 555 L110 655 L420 655 L420 555 L110 555 Z " />
<glyph glyph-name="Ebreve" unicode="&#x114;" horiz-adv-x="631" d="M465 698 Q534 698 573 667.5 Q612 637 612 580 Q612 538 584.5 508.5 Q557 479 509 479 Q474 479 453.5 490.5 Q433 502 416 518 L525 657 Q520 661 511 663.5 Q502 666 490.5 668 Q479 670 467 671 Q455 672 446 672 L321 672 L321 354 L480 354 L480 328 L321 328 L321 26 L371 26 Q429 26 467.5 40.5 Q506 55 530 81 Q554 107 566.5 143 Q579 179 586 221 L607 222 L607 0 L17 0 L17 26 L89 26 L89 672 L17 672 L17 698 L465 698 Z M478 924 Q478 845 442.5 797 Q407 749 328 749 Q249 749 214.5 797 Q180 845 180 924 L208 924 Q218 901 233 887 Q248 873 264.5 865.5 Q281 858 297.5 855 Q314 852 328 852 Q357 852 390.5 865.5 Q424 879 450 924 L478 924 Z " />
<glyph glyph-name="ebreve" unicode="&#x115;" horiz-adv-x="491" d="M273 478 Q323 478 361.5 466.5 Q400 455 426 436 Q452 417 465 391 Q478 365 478 337 Q478 302 463.5 275.5 Q449 249 423.5 231 Q398 213 363.5 204 Q329 195 288 195 Q271 195 255.5 196 Q240 197 229 199 Q231 155 241.5 124.5 Q252 94 268.5 74 Q285 54 306 45 Q327 36 351 36 Q414 36 465 92 L480 75 Q464 58 444.5 43 Q425 28 400.5 16.5 Q376 5 345 -1.5 Q314 -8 276 -8 Q218 -8 170 7.5 Q122 23 87.5 53 Q53 83 34 127 Q15 171 15 227 Q15 281 33.5 326.5 Q52 372 86 406 Q120 440 167.5 459 Q215 478 273 478 Z M278 452 Q265 452 255.5 438 Q246 424 239.5 400 Q233 376 230 344.5 Q227 313 227 279 Q227 265 227.5 252 Q228 239 229 226 Q234 224 240.5 222.5 Q247 221 258 221 Q282 221 296.5 250.5 Q311 280 311 351 Q311 393 302 422.5 Q293 452 278 452 Z M417 698 Q417 619 381.5 571 Q346 523 267 523 Q188 523 153.5 571 Q119 619 119 698 L147 698 Q157 675 172 661 Q187 647 203.5 639.5 Q220 632 236.5 629 Q253 626 267 626 Q296 626 329.5 639.5 Q363 653 389 698 L417 698 Z " />
<glyph glyph-name="Edotaccent" unicode="&#x116;" horiz-adv-x="631" d="M465 698 Q534 698 573 667.5 Q612 637 612 580 Q612 538 584.5 508.5 Q557 479 509 479 Q474 479 453.5 490.5 Q433 502 416 518 L525 657 Q520 661 511 663.5 Q502 666 490.5 668 Q479 670 467 671 Q455 672 446 672 L321 672 L321 354 L480 354 L480 328 L321 328 L321 26 L371 26 Q429 26 467.5 40.5 Q506 55 530 81 Q554 107 566.5 143 Q579 179 586 221 L607 222 L607 0 L17 0 L17 26 L89 26 L89 672 L17 672 L17 698 L465 698 Z M415 841 Q415 803 390.5 778 Q366 753 330 753 Q295 753 270.5 778 Q246 803 246 841 Q246 876 270.5 900 Q295 924 330 924 Q366 924 390.5 900 Q415 876 415 841 Z " />
<glyph glyph-name="edotaccent" unicode="&#x117;" horiz-adv-x="491" d="M273 478 Q323 478 361.5 466.5 Q400 455 426 436 Q452 417 465 391 Q478 365 478 337 Q478 302 463.5 275.5 Q449 249 423.5 231 Q398 213 363.5 204 Q329 195 288 195 Q271 195 255.5 196 Q240 197 229 199 Q231 155 241.5 124.5 Q252 94 268.5 74 Q285 54 306 45 Q327 36 351 36 Q414 36 465 92 L480 75 Q464 58 444.5 43 Q425 28 400.5 16.5 Q376 5 345 -1.5 Q314 -8 276 -8 Q218 -8 170 7.5 Q122 23 87.5 53 Q53 83 34 127 Q15 171 15 227 Q15 281 33.5 326.5 Q52 372 86 406 Q120 440 167.5 459 Q215 478 273 478 Z M278 452 Q265 452 255.5 438 Q246 424 239.5 400 Q233 376 230 344.5 Q227 313 227 279 Q227 265 227.5 252 Q228 239 229 226 Q234 224 240.5 222.5 Q247 221 258 221 Q282 221 296.5 250.5 Q311 280 311 351 Q311 393 302 422.5 Q293 452 278 452 Z M358 615 Q358 577 333.5 552 Q309 527 273 527 Q238 527 213.5 552 Q189 577 189 615 Q189 650 213.5 674 Q238 698 273 698 Q309 698 333.5 674 Q358 650 358 615 Z " />
<glyph glyph-name="Eogonek" unicode="&#x118;" horiz-adv-x="631" d="M17 26 L89 26 L89 672 L17 672 L17 698 L465 698 Q534 698 573 667.5 Q612 637 612 580 Q612 538 584.5 508.5 Q557 479 509 479 Q474 479 453.5 490.5 Q433 502 416 518 L525 657 Q520 661 511 663.5 Q502 666 490.5 668 Q479 670 467 671 Q455 672 446 672 L321 672 L321 354 L480 354 L480 328 L321 328 L321 26 L371 26 Q429 26 467.5 40.5 Q506 55 530 81 Q554 107 566.5 143 Q579 179 586 221 L607 222 L607 0 L489 0 Q466 -19 456 -47.5 Q446 -76 446 -104 Q446 -146 465.5 -170 Q485 -194 515 -194 Q532 -194 541.5 -189 Q551 -184 558 -177 L571 -189 Q543 -215 508 -229 Q473 -243 437 -243 Q405 -243 382.5 -234.5 Q360 -226 346 -211.5 Q332 -197 325.5 -179 Q319 -161 319 -141 Q319 -99 350.5 -61.5 Q382 -24 447 0 L17 0 L17 26 Z " />
<glyph glyph-name="eogonek" unicode="&#x119;" horiz-adv-x="491" d="M273 478 Q323 478 361.5 466.5 Q400 455 426 436 Q452 417 465 391 Q478 365 478 337 Q478 302 463.5 275.5 Q449 249 423.5 231 Q398 213 363.5 204 Q329 195 288 195 Q271 195 255.5 196 Q240 197 229 199 Q231 155 241.5 124.5 Q252 94 268.5 74 Q285 54 306 45 Q327 36 351 36 Q414 36 465 92 L480 75 Q462 56 445 43 Q428 30 399 16 Q363 -2 346 -34 Q329 -66 329 -104 Q329 -146 348.5 -170 Q368 -194 399 -194 Q414 -194 424 -188.5 Q434 -183 442 -177 L454 -189 Q426 -215 391 -229 Q356 -243 321 -243 Q289 -243 266.5 -234.5 Q244 -226 229.5 -211.5 Q215 -197 208.5 -179 Q202 -161 202 -141 Q202 -103 230 -67 Q258 -31 315 -7 Q306 -8 296.5 -8 Q287 -8 276 -8 Q218 -8 170 7.5 Q122 23 87.5 53 Q53 83 34 127 Q15 171 15 227 Q15 281 33.5 326.5 Q52 372 86 406 Q120 440 167.5 459 Q215 478 273 478 Z M278 452 Q265 452 255.5 438 Q246 424 239.5 400 Q233 376 230 344.5 Q227 313 227 279 Q227 265 227.5 252 Q228 239 229 226 Q234 224 240.5 222.5 Q247 221 258 221 Q282 221 296.5 250.5 Q311 280 311 351 Q311 393 302 422.5 Q293 452 278 452 Z " />
<glyph glyph-name="Ecaron" unicode="&#x11a;" horiz-adv-x="631" d="M465 698 Q534 698 573 667.5 Q612 637 612 580 Q612 538 584.5 508.5 Q557 479 509 479 Q474 479 453.5 490.5 Q433 502 416 518 L525 657 Q520 661 511 663.5 Q502 666 490.5 668 Q479 670 467 671 Q455 672 446 672 L321 672 L321 354 L480 354 L480 328 L321 328 L321 26 L371 26 Q429 26 467.5 40.5 Q506 55 530 81 Q554 107 566.5 143 Q579 179 586 221 L607 222 L607 0 L17 0 L17 26 L89 26 L89 672 L17 672 L17 698 L465 698 Z M285 758 L165 922 L195 939 L330 862 L465 939 L494 922 L375 758 L285 758 Z " />
<glyph glyph-name="ecaron" unicode="&#x11b;" horiz-adv-x="491" d="M273 478 Q323 478 361.5 466.5 Q400 455 426 436 Q452 417 465 391 Q478 365 478 337 Q478 302 463.5 275.5 Q449 249 423.5 231 Q398 213 363.5 204 Q329 195 288 195 Q271 195 255.5 196 Q240 197 229 199 Q231 155 241.5 124.5 Q252 94 268.5 74 Q285 54 306 45 Q327 36 351 36 Q414 36 465 92 L480 75 Q464 58 444.5 43 Q425 28 400.5 16.5 Q376 5 345 -1.5 Q314 -8 276 -8 Q218 -8 170 7.5 Q122 23 87.5 53 Q53 83 34 127 Q15 171 15 227 Q15 281 33.5 326.5 Q52 372 86 406 Q120 440 167.5 459 Q215 478 273 478 Z M278 452 Q265 452 255.5 438 Q246 424 239.5 400 Q233 376 230 344.5 Q227 313 227 279 Q227 265 227.5 252 Q228 239 229 226 Q234 224 240.5 222.5 Q247 221 258 221 Q282 221 296.5 250.5 Q311 280 311 351 Q311 393 302 422.5 Q293 452 278 452 Z M222 532 L102 696 L132 713 L267 636 L402 713 L431 696 L312 532 L222 532 Z " />
<glyph glyph-name="Gcircumflex" unicode="&#x11c;" horiz-adv-x="712" d="M400 306 L712 306 L712 280 L657 280 L657 0 L643 0 Q632 6 618 11.5 Q604 17 579 17 Q558 17 533 13 Q508 9 481.5 4.5 Q455 0 427.5 -4 Q400 -8 375 -8 Q288 -8 222.5 17.5 Q157 43 112.5 89 Q68 135 45.5 199 Q23 263 23 339 Q23 412 47 479 Q71 546 118.5 598 Q166 650 235.5 681 Q305 712 397 712 Q462 712 507.5 697.5 Q553 683 582 660.5 Q611 638 624 612 Q637 586 637 562 Q637 540 630.5 520 Q624 500 610.5 485 Q597 470 577.5 461 Q558 452 532 452 Q496 452 473.5 463.5 Q451 475 434 491 L547 636 Q526 657 497.5 669 Q469 681 438 681 Q392 681 360 656.5 Q328 632 308 589.5 Q288 547 279 490.5 Q270 434 270 370 Q270 194 307 109.5 Q344 25 409 25 Q425 25 441.5 28 Q458 31 469 37 L469 280 L400 280 L400 306 Z M433 920 L560 749 L539 737 L390 816 L239 737 L219 749 L346 920 L433 920 Z " />
<glyph glyph-name="gcircumflex" unicode="&#x11d;" horiz-adv-x="489" d="M338 -133 Q338 -111 313.5 -99 Q289 -87 254 -79.5 Q219 -72 181 -66 Q143 -60 117 -49 Q107 -61 102.5 -71.5 Q98 -82 98 -102 Q98 -122 109.5 -137 Q121 -152 140 -162.5 Q159 -173 184 -178.5 Q209 -184 236 -184 Q278 -184 308 -171.5 Q338 -159 338 -133 Z M244 193 Q256 193 264 204.5 Q272 216 277.5 233.5 Q283 251 285 272.5 Q287 294 287 314 Q287 336 285 360.5 Q283 385 277.5 406 Q272 427 264 440.5 Q256 454 244 454 Q232 454 224 440.5 Q216 427 211.5 406 Q207 385 205 360.5 Q203 336 203 314 Q203 294 205 272.5 Q207 251 211.5 233.5 Q216 216 224 204.5 Q232 193 244 193 Z M399 446 Q431 425 448.5 393 Q466 361 466 325 Q466 295 452.5 266 Q439 237 411.5 214.5 Q384 192 342 178 Q300 164 244 164 Q200 164 169.5 170 Q139 176 118 181 Q113 176 109.5 168.5 Q106 161 106 153 Q106 140 118.5 132.5 Q131 125 156 119 Q181 113 218 107.5 Q255 102 303 93 Q348 84 383 72.5 Q418 61 442 43.5 Q466 26 478.5 2 Q491 -22 491 -55 Q491 -96 468 -126 Q445 -156 408.5 -176 Q372 -196 327.5 -206 Q283 -216 240 -216 Q190 -216 147.5 -208.5 Q105 -201 73.5 -187.5 Q42 -174 24 -156.5 Q6 -139 6 -118 Q6 -86 30 -65.5 Q54 -45 92 -40 Q70 -33 54.5 -20 Q39 -7 29 8 Q19 23 14.5 39.5 Q10 56 10 70 Q10 93 17.5 111.5 Q25 130 37.5 145 Q50 160 65.5 171.5 Q81 183 96 191 Q64 209 43.5 242 Q23 275 23 314 Q23 338 33.5 367 Q44 396 69.5 420.5 Q95 445 137.5 461.5 Q180 478 244 478 Q282 478 318 473 Q354 468 380 459 Q385 469 385 478 Q385 490 374 505.5 Q363 521 339 537 Q309 557 282 573 Q255 589 244 594 L104 512 L80 528 L201 692 L288 692 Q323 647 348.5 614 Q374 581 391 557 Q408 533 416 516 Q424 499 424 485 Q424 461 399 446 Z " />
<glyph glyph-name="Gbreve" unicode="&#x11e;" horiz-adv-x="712" d="M400 306 L712 306 L712 280 L657 280 L657 0 L643 0 Q632 6 618 11.5 Q604 17 579 17 Q558 17 533 13 Q508 9 481.5 4.5 Q455 0 427.5 -4 Q400 -8 375 -8 Q288 -8 222.5 17.5 Q157 43 112.5 89 Q68 135 45.5 199 Q23 263 23 339 Q23 412 47 479 Q71 546 118.5 598 Q166 650 235.5 681 Q305 712 397 712 Q462 712 507.5 697.5 Q553 683 582 660.5 Q611 638 624 612 Q637 586 637 562 Q637 540 630.5 520 Q624 500 610.5 485 Q597 470 577.5 461 Q558 452 532 452 Q496 452 473.5 463.5 Q451 475 434 491 L547 636 Q526 657 497.5 669 Q469 681 438 681 Q392 681 360 656.5 Q328 632 308 589.5 Q288 547 279 490.5 Q270 434 270 370 Q270 194 307 109.5 Q344 25 409 25 Q425 25 441.5 28 Q458 31 469 37 L469 280 L400 280 L400 306 Z M556 924 Q556 845 520.5 797 Q485 749 406 749 Q327 749 292.5 797 Q258 845 258 924 L286 924 Q296 901 311 887 Q326 873 342.5 865.5 Q359 858 375.5 855 Q392 852 406 852 Q435 852 468.5 865.5 Q502 879 528 924 L556 924 Z " />
<glyph glyph-name="gbreve" unicode="&#x11f;" horiz-adv-x="489" d="M244 478 Q282 478 318 473 Q354 468 380 459 Q404 475 419 490 Q434 505 434 517 Q434 530 413 530 L370 530 Q367 540 367 549 Q367 569 382 581.5 Q397 594 420 594 Q449 594 462 579 Q475 564 475 542 Q475 516 454.5 491 Q434 466 399 446 Q431 425 448.5 393 Q466 361 466 325 Q466 295 452.5 266 Q439 237 411.5 214.5 Q384 192 342 178 Q300 164 244 164 Q200 164 170.5 169.5 Q141 175 118 181 Q113 176 109.5 168.5 Q106 161 106 153 Q106 140 118.5 132.5 Q131 125 156 119 Q181 113 218 107.5 Q255 102 303 93 Q394 76 442.5 44 Q491 12 491 -46 Q491 -92 468 -124 Q445 -156 408.5 -176.5 Q372 -197 327.5 -206.5 Q283 -216 240 -216 Q189 -216 146 -208.5 Q103 -201 72 -188 Q41 -175 23.5 -156.5 Q6 -138 6 -117 Q6 -85 30 -65 Q54 -45 92 -40 Q70 -33 54.5 -20 Q39 -7 29 8 Q19 23 14.5 39.5 Q10 56 10 70 Q10 93 17.5 111.5 Q25 130 37.5 145 Q50 160 65.5 171.5 Q81 183 96 191 Q64 209 43.5 242 Q23 275 23 314 Q23 338 33.5 367 Q44 396 69.5 420.5 Q95 445 137.5 461.5 Q180 478 244 478 Z M338 -132 Q338 -110 313.5 -98 Q289 -86 254 -79 Q219 -72 181 -66 Q143 -60 117 -49 Q107 -61 102.5 -71.5 Q98 -82 98 -102 Q98 -121 109.5 -136 Q121 -151 140 -161.5 Q159 -172 184 -178 Q209 -184 236 -184 Q278 -184 308 -171 Q338 -158 338 -132 Z M244 193 Q256 193 264 204.5 Q272 216 277.5 233.5 Q283 251 285 272.5 Q287 294 287 314 Q287 336 285 360.5 Q283 385 277.5 406 Q272 427 264 440.5 Q256 454 244 454 Q232 454 224 440.5 Q216 427 211.5 406 Q207 385 205 360.5 Q203 336 203 314 Q203 294 205 272.5 Q207 251 211.5 233.5 Q216 216 224 204.5 Q232 193 244 193 Z M388 703 Q388 624 352.5 576 Q317 528 238 528 Q159 528 124.5 576 Q90 624 90 703 L118 703 Q128 680 143 666 Q158 652 174.5 644.5 Q191 637 207.5 634 Q224 631 238 631 Q267 631 300.5 644.5 Q334 658 360 703 L388 703 Z " />
<glyph glyph-name="Gdotaccent" unicode="&#x120;" horiz-adv-x="712" d="M400 306 L712 306 L712 280 L657 280 L657 0 L643 0 Q632 6 618 11.5 Q604 17 579 17 Q558 17 533 13 Q508 9 481.5 4.5 Q455 0 427.5 -4 Q400 -8 375 -8 Q288 -8 222.5 17.5 Q157 43 112.5 89 Q68 135 45.5 199 Q23 263 23 339 Q23 412 47 479 Q71 546 118.5 598 Q166 650 235.5 681 Q305 712 397 712 Q462 712 507.5 697.5 Q553 683 582 660.5 Q611 638 624 612 Q637 586 637 562 Q637 540 630.5 520 Q624 500 610.5 485 Q597 470 577.5 461 Q558 452 532 452 Q496 452 473.5 463.5 Q451 475 434 491 L547 636 Q526 657 497.5 669 Q469 681 438 681 Q392 681 360 656.5 Q328 632 308 589.5 Q288 547 279 490.5 Q270 434 270 370 Q270 194 307 109.5 Q344 25 409 25 Q425 25 441.5 28 Q458 31 469 37 L469 280 L400 280 L400 306 Z M480 841 Q480 803 455.5 778 Q431 753 395 753 Q360 753 335.5 778 Q311 803 311 841 Q311 876 335.5 900 Q360 924 395 924 Q431 924 455.5 900 Q480 876 480 841 Z " />
<glyph glyph-name="gdotaccent" unicode="&#x121;" horiz-adv-x="489" d="M338 -133 Q338 -111 313.5 -99 Q289 -87 254 -79.5 Q219 -72 181 -66 Q143 -60 117 -49 Q107 -61 102.5 -71.5 Q98 -82 98 -102 Q98 -121 109.5 -136.5 Q121 -152 140 -162.5 Q159 -173 184 -178.5 Q209 -184 236 -184 Q278 -184 308 -171.5 Q338 -159 338 -133 Z M244 193 Q256 193 264 204.5 Q272 216 277.5 233.5 Q283 251 285 272.5 Q287 294 287 314 Q287 336 285 360.5 Q283 385 277.5 406 Q272 427 264 440.5 Q256 454 244 454 Q232 454 224 440.5 Q216 427 211.5 406 Q207 385 205 360.5 Q203 336 203 314 Q203 294 205 272.5 Q207 251 211.5 233.5 Q216 216 224 204.5 Q232 193 244 193 Z M397 448 Q428 428 447 394.5 Q466 361 466 325 Q466 295 452.5 266 Q439 237 411.5 214.5 Q384 192 342 178 Q300 164 244 164 Q200 164 170.5 169.5 Q141 175 118 181 Q113 176 109.5 168.5 Q106 161 106 153 Q106 140 118.5 132.5 Q131 125 156 119 Q181 113 218 107.5 Q255 102 303 93 Q393 76 442 42.5 Q491 9 491 -52 Q491 -96 468 -127 Q445 -158 408.5 -177.5 Q372 -197 327.5 -206.5 Q283 -216 240 -216 Q189 -216 146 -208 Q103 -200 72 -186.5 Q41 -173 23.5 -155 Q6 -137 6 -118 Q6 -86 30 -65.5 Q54 -45 92 -40 Q70 -33 54.5 -20 Q39 -7 29 8 Q19 23 14.5 39.5 Q10 56 10 70 Q10 93 17.5 111.5 Q25 130 37.5 145 Q50 160 65.5 171.5 Q81 183 96 191 Q64 209 43.5 242 Q23 275 23 314 Q23 338 33.5 367 Q44 396 69.5 420.5 Q95 445 137.5 461.5 Q180 478 244 478 Q282 478 318 473 Q354 468 380 459 Q397 482 406.5 507 Q416 532 416 561 Q416 609 394 635.5 Q372 662 339 662 Q324 662 313 657.5 Q302 653 297 648 Q308 637 314 624 Q320 611 320 594 Q320 560 297.5 537.5 Q275 515 243 515 Q211 515 189 537.5 Q167 560 167 594 Q167 612 175 631.5 Q183 651 200 666.5 Q217 682 244.5 692.5 Q272 703 310 703 Q345 703 372 692.5 Q399 682 417.5 665 Q436 648 445.5 624.5 Q455 601 455 576 Q455 538 439 506.5 Q423 475 397 448 Z " />
<glyph glyph-name="Gcommaaccent" unicode="&#x122;" horiz-adv-x="712" d="M400 306 L712 306 L712 280 L657 280 L657 0 L643 0 Q632 6 618 11.5 Q604 17 579 17 Q558 17 533 13 Q508 9 481.5 4.5 Q455 0 427.5 -4 Q400 -8 375 -8 Q288 -8 222.5 17.5 Q157 43 112.5 89 Q68 135 45.5 199 Q23 263 23 339 Q23 412 47 479 Q71 546 118.5 598 Q166 650 235.5 681 Q305 712 397 712 Q462 712 507.5 697.5 Q553 683 582 660.5 Q611 638 624 612 Q637 586 637 562 Q637 540 630.5 520 Q624 500 610.5 485 Q597 470 577.5 461 Q558 452 532 452 Q496 452 473.5 463.5 Q451 475 434 491 L547 636 Q526 657 497.5 669 Q469 681 438 681 Q392 681 360 656.5 Q328 632 308 589.5 Q288 547 279 490.5 Q270 434 270 370 Q270 194 307 109.5 Q344 25 409 25 Q425 25 441.5 28 Q458 31 469 37 L469 280 L400 280 L400 306 Z M357 -265 Q380 -246 392.5 -230 Q405 -214 405 -200 Q405 -193 393.5 -187.5 Q382 -182 368.5 -173.5 Q355 -165 344 -151 Q333 -137 333 -112 Q333 -78 357 -60 Q381 -42 411 -42 Q441 -42 466 -62 Q491 -82 491 -125 Q491 -178 459.5 -217 Q428 -256 378 -291 L357 -265 Z " />
<glyph glyph-name="gcommaaccent" unicode="&#x123;" horiz-adv-x="489" d="M244 478 Q282 478 318 473 Q354 468 380 459 Q404 475 419 490 Q434 505 434 517 Q434 530 413 530 L370 530 Q367 540 367 549 Q367 569 382 581.5 Q397 594 420 594 Q449 594 462 579 Q475 564 475 542 Q475 516 454.5 491 Q434 466 399 446 Q431 425 448.5 393 Q466 361 466 325 Q466 295 452.5 266 Q439 237 411.5 214.5 Q384 192 342 178 Q300 164 244 164 Q200 164 170.5 169.5 Q141 175 118 181 Q113 176 109.5 168.5 Q106 161 106 153 Q106 140 118.5 132.5 Q131 125 156 119 Q181 113 218 107.5 Q255 102 303 93 Q394 76 442.5 44 Q491 12 491 -46 Q491 -92 468 -124 Q445 -156 408.5 -176.5 Q372 -197 327.5 -206.5 Q283 -216 240 -216 Q189 -216 146 -208.5 Q103 -201 72 -188 Q41 -175 23.5 -156.5 Q6 -138 6 -117 Q6 -85 30 -65 Q54 -45 92 -40 Q70 -33 54.5 -20 Q39 -7 29 8 Q19 23 14.5 39.5 Q10 56 10 70 Q10 93 17.5 111.5 Q25 130 37.5 145 Q50 160 65.5 171.5 Q81 183 96 191 Q64 209 43.5 242 Q23 275 23 314 Q23 338 33.5 367 Q44 396 69.5 420.5 Q95 445 137.5 461.5 Q180 478 244 478 Z M338 -132 Q338 -110 313.5 -98 Q289 -86 254 -79 Q219 -72 181 -66 Q143 -60 117 -49 Q107 -61 102.5 -71.5 Q98 -82 98 -102 Q98 -121 109.5 -136 Q121 -151 140 -161.5 Q159 -172 184 -178 Q209 -184 236 -184 Q278 -184 308 -171 Q338 -158 338 -132 Z M244 193 Q256 193 264 204.5 Q272 216 277.5 233.5 Q283 251 285 272.5 Q287 294 287 314 Q287 336 285 360.5 Q283 385 277.5 406 Q272 427 264 440.5 Q256 454 244 454 Q232 454 224 440.5 Q216 427 211.5 406 Q207 385 205 360.5 Q203 336 203 314 Q203 294 205 272.5 Q207 251 211.5 233.5 Q216 216 224 204.5 Q232 193 244 193 Z M299 760 Q252 721 252 696 Q252 688 263 682.5 Q274 677 287.5 668.5 Q301 660 312 646 Q323 632 323 607 Q323 573 299 555.5 Q275 538 245 538 Q215 538 190 557.5 Q165 577 165 620 Q165 673 196.5 712.5 Q228 752 278 787 L299 760 Z " />
<glyph glyph-name="Hcircumflex" unicode="&#x124;" horiz-adv-x="859" d="M321 26 L384 26 L384 0 L17 0 L17 26 L89 26 L89 672 L17 672 L17 698 L384 698 L384 672 L321 672 L321 374 L539 374 L539 672 L476 672 L476 698 L842 698 L842 672 L770 672 L770 26 L842 26 L842 0 L476 0 L476 26 L539 26 L539 348 L321 348 L321 26 Z M484 920 L611 749 L590 737 L441 816 L290 737 L270 749 L397 920 L484 920 Z " />
<glyph glyph-name="hcircumflex" unicode="&#x125;" horiz-adv-x="645" d="M509 -8 Q446 -8 408.5 27.5 Q371 63 371 144 L371 337 Q371 383 359.5 400.5 Q348 418 326 418 Q306 418 287.5 398 Q269 378 269 331 L269 26 L320 26 L320 0 L5 0 L5 26 L57 26 L57 700 L5 700 L5 727 L269 727 L269 406 Q276 419 290 432 Q304 445 323 455 Q342 465 366 471.5 Q390 478 419 478 Q464 478 495.5 465.5 Q527 453 546.5 432 Q566 411 575 383 Q584 355 584 323 L584 86 Q584 50 607 50 Q615 50 620 54 Q625 58 630 65 L643 51 Q615 19 584 5.5 Q553 -8 509 -8 Z M195 915 L322 744 L301 732 L152 811 L1 732 L-19 744 L108 915 L195 915 Z " />
<glyph glyph-name="Hbar" unicode="&#x126;" horiz-adv-x="859" d="M321 487 L321 374 L539 374 L539 487 L321 487 Z M770 26 L842 26 L842 0 L476 0 L476 26 L539 26 L539 348 L321 348 L321 26 L384 26 L384 0 L17 0 L17 26 L89 26 L89 487 L17 487 L17 513 L89 513 L89 673 L17 673 L17 699 L384 699 L384 673 L321 673 L321 513 L539 513 L539 673 L476 673 L476 699 L842 699 L842 673 L770 673 L770 513 L842 513 L842 487 L770 487 L770 26 Z " />
<glyph glyph-name="hbar" unicode="&#x127;" horiz-adv-x="645" d="M5 600 L57 600 L57 700 L5 700 L5 727 L269 727 L269 600 L421 600 L421 573 L269 573 L269 406 Q276 419 290 432 Q304 445 323 455 Q342 465 366 471.5 Q390 478 419 478 Q464 478 495.5 465.5 Q527 453 546.5 432 Q566 411 575 383 Q584 355 584 323 L584 86 Q584 50 607 50 Q615 50 620 54 Q625 58 630 65 L643 51 Q615 19 584 5.5 Q553 -8 509 -8 Q446 -8 408.5 27.5 Q371 63 371 144 L371 337 Q371 383 359.5 400.5 Q348 418 326 418 Q306 418 287.5 398 Q269 378 269 331 L269 26 L320 26 L320 0 L5 0 L5 26 L57 26 L57 573 L5 573 L5 600 Z " />
<glyph glyph-name="Itilde" unicode="&#x128;" horiz-adv-x="415" d="M323 26 L396 26 L396 0 L19 0 L19 26 L91 26 L91 672 L19 672 L19 698 L396 698 L396 672 L323 672 L323 26 Z M404 929 Q403 899 394.5 871 Q386 843 370 820.5 Q354 798 330 784.5 Q306 771 274 771 Q253 771 231.5 777.5 Q210 784 188 792.5 Q166 801 143.5 807.5 Q121 814 98 814 Q92 814 83.5 812.5 Q75 811 66 806.5 Q57 802 49.5 793.5 Q42 785 38 771 L24 771 Q25 798 33.5 825.5 Q42 853 58 874.5 Q74 896 97.5 910 Q121 924 152 924 Q173 924 195.5 917.5 Q218 911 240.5 903 Q263 895 285.5 888.5 Q308 882 329 882 Q371 882 390 929 L404 929 Z " />
<glyph glyph-name="itilde" unicode="&#x129;" horiz-adv-x="346" d="M277 467 L277 26 L329 26 L329 0 L13 0 L13 26 L66 26 L66 441 L13 441 L13 467 L277 467 Z M363 703 Q362 673 353.5 645 Q345 617 329 594.5 Q313 572 289 558.5 Q265 545 233 545 Q212 545 190.5 551.5 Q169 558 147 566.5 Q125 575 102.5 581.5 Q80 588 57 588 Q51 588 42.5 586.5 Q34 585 25 580.5 Q16 576 8.5 567.5 Q1 559 -3 545 L-17 545 Q-16 572 -7.5 599.5 Q1 627 17 648.5 Q33 670 56.5 684 Q80 698 111 698 Q132 698 154.5 691.5 Q177 685 199.5 677 Q222 669 244.5 662.5 Q267 656 288 656 Q330 656 349 703 L363 703 Z " />
<glyph glyph-name="Imacron" unicode="&#x12a;" horiz-adv-x="415" d="M323 26 L396 26 L396 0 L19 0 L19 26 L91 26 L91 672 L19 672 L19 698 L396 698 L396 672 L323 672 L323 26 Z M60 758 L60 858 L370 858 L370 758 L60 758 Z " />
<glyph glyph-name="imacron" unicode="&#x12b;" horiz-adv-x="346" d="M277 467 L277 26 L329 26 L329 0 L13 0 L13 26 L66 26 L66 441 L13 441 L13 467 L277 467 Z M14 555 L14 655 L324 655 L324 555 L14 555 Z " />
<glyph glyph-name="Ibreve" unicode="&#x12c;" horiz-adv-x="415" d="M323 26 L396 26 L396 0 L19 0 L19 26 L91 26 L91 672 L19 672 L19 698 L396 698 L396 672 L323 672 L323 26 Z M366 924 Q366 845 330.5 797 Q295 749 216 749 Q137 749 102.5 797 Q68 845 68 924 L96 924 Q106 901 121 887 Q136 873 152.5 865.5 Q169 858 185.5 855 Q202 852 216 852 Q245 852 278.5 865.5 Q312 879 338 924 L366 924 Z " />
<glyph glyph-name="ibreve" unicode="&#x12d;" horiz-adv-x="346" d="M277 467 L277 26 L329 26 L329 0 L13 0 L13 26 L66 26 L66 441 L13 441 L13 467 L277 467 Z M327 698 Q327 619 291.5 571 Q256 523 177 523 Q98 523 63.5 571 Q29 619 29 698 L57 698 Q67 675 82 661 Q97 647 113.5 639.5 Q130 632 146.5 629 Q163 626 177 626 Q206 626 239.5 639.5 Q273 653 299 698 L327 698 Z " />
<glyph glyph-name="Iogonek" unicode="&#x12e;" horiz-adv-x="415" d="M323 26 L396 26 L396 0 L285 0 Q262 -19 252 -47.5 Q242 -76 242 -104 Q242 -146 261.5 -170 Q281 -194 311 -194 Q328 -194 337 -188.5 Q346 -183 354 -177 L367 -189 Q339 -215 304 -229 Q269 -243 233 -243 Q201 -243 179 -234.5 Q157 -226 142.5 -211.5 Q128 -197 121.5 -179 Q115 -161 115 -141 Q115 -99 146.5 -61.5 Q178 -24 243 0 L19 0 L19 26 L91 26 L91 672 L19 672 L19 698 L396 698 L396 672 L323 672 L323 26 Z " />
<glyph glyph-name="iogonek" unicode="&#x12f;" horiz-adv-x="346" d="M277 467 L277 26 L329 26 L329 0 L243 0 Q220 -19 209.5 -48 Q199 -77 199 -105 Q199 -147 218.5 -170.5 Q238 -194 269 -194 Q286 -194 295 -188.5 Q304 -183 312 -177 L324 -189 Q297 -215 262 -229 Q227 -243 191 -243 Q159 -243 136.5 -234.5 Q114 -226 99.5 -212 Q85 -198 78.5 -180 Q72 -162 72 -142 Q72 -100 104 -62 Q136 -24 201 0 L13 0 L13 26 L66 26 L66 441 L13 441 L13 467 L277 467 Z M274 619 Q274 598 266 579.5 Q258 561 244.5 547.5 Q231 534 213 526.5 Q195 519 175 519 Q155 519 137.5 526.5 Q120 534 106.5 547.5 Q93 561 85.5 579.5 Q78 598 78 619 Q78 639 85.5 656.5 Q93 674 106.5 687.5 Q120 701 137.5 708.5 Q155 716 175 716 Q195 716 213 708.5 Q231 701 244.5 687.5 Q258 674 266 656.5 Q274 639 274 619 Z " />
<glyph glyph-name="Idotaccent" unicode="&#x130;" horiz-adv-x="415" d="M323 26 L396 26 L396 0 L19 0 L19 26 L91 26 L91 672 L19 672 L19 698 L396 698 L396 672 L323 672 L323 26 Z M292 841 Q292 803 267.5 778 Q243 753 207 753 Q172 753 147.5 778 Q123 803 123 841 Q123 876 147.5 900 Q172 924 207 924 Q243 924 267.5 900 Q292 876 292 841 Z " />
<glyph glyph-name="dotlessi" unicode="&#x131;" horiz-adv-x="346" d="M277 467 L277 26 L329 26 L329 0 L13 0 L13 26 L66 26 L66 441 L13 441 L13 467 L277 467 Z " />
<glyph glyph-name="IJ" unicode="&#x132;" horiz-adv-x="823" d="M323 26 L396 26 L396 0 L19 0 L19 26 L91 26 L91 672 L19 672 L19 698 L396 698 L396 672 L323 672 L323 26 Z M433 698 L810 698 L810 672 L737 672 L737 247 Q737 -103 483 -103 Q435 -103 403.5 -95 Q372 -87 349 -70 L365 -50 Q378 -61 393.5 -68 Q409 -75 429 -75 Q469 -75 487 -37 Q505 1 505 70 L505 672 L433 672 L433 698 Z " />
<glyph glyph-name="ij" unicode="&#x133;" horiz-adv-x="635" d="M277 467 L277 26 L329 26 L329 0 L13 0 L13 26 L66 26 L66 441 L13 441 L13 467 L277 467 Z M274 619 Q274 598 266 579.5 Q258 561 244.5 547.5 Q231 534 213 526.5 Q195 519 175 519 Q155 519 137.5 526.5 Q120 534 106.5 547.5 Q93 561 85.5 579.5 Q78 598 78 619 Q78 639 85.5 656.5 Q93 674 106.5 687.5 Q120 701 137.5 708.5 Q155 716 175 716 Q195 716 213 708.5 Q231 701 244.5 687.5 Q258 674 266 656.5 Q274 639 274 619 Z M256 -216 Q277 -214 297 -206.5 Q317 -199 333 -180 Q349 -161 359 -129 Q369 -97 369 -47 L369 441 L317 441 L317 467 L574 467 L574 105 Q574 19 546.5 -44 Q519 -107 474.5 -148.5 Q430 -190 374 -212 Q318 -234 262 -238 L256 -216 Z M573 619 Q573 598 565.5 579.5 Q558 561 544.5 547.5 Q531 534 513 526.5 Q495 519 475 519 Q455 519 437.5 526.5 Q420 534 406.5 547.5 Q393 561 385.5 579.5 Q378 598 378 619 Q378 639 385.5 656.5 Q393 674 406.5 687.5 Q420 701 437.5 708.5 Q455 716 475 716 Q495 716 513 708.5 Q531 701 544.5 687.5 Q558 674 565.5 656.5 Q573 639 573 619 Z " />
<glyph glyph-name="Jcircumflex" unicode="&#x134;" horiz-adv-x="427" d="M37 698 L414 698 L414 672 L341 672 L341 247 Q341 -103 87 -103 Q39 -103 7.5 -95 Q-24 -87 -47 -70 L-31 -50 Q-18 -61 -2.5 -68 Q13 -75 33 -75 Q73 -75 91 -37 Q109 1 109 70 L109 672 L37 672 L37 698 Z M270 920 L397 749 L376 737 L227 816 L76 737 L56 749 L183 920 L270 920 Z " />
<glyph glyph-name="jcircumflex" unicode="&#x135;" horiz-adv-x="323" d="M198 694 L325 523 L304 511 L155 590 L4 511 L-16 523 L111 694 L198 694 Z M-56 -216 Q-35 -214 -15 -206.5 Q5 -199 21 -180 Q37 -161 47 -129 Q57 -97 57 -47 L57 441 L5 441 L5 467 L262 467 L262 105 Q262 19 234.5 -44 Q207 -107 162.5 -148.5 Q118 -190 62 -212 Q6 -234 -50 -238 L-56 -216 Z " />
<glyph glyph-name="Kcommaaccent" unicode="&#x136;" horiz-adv-x="758" d="M538 463 Q591 490 611 516 Q631 542 632 559 Q632 569 623 574 Q614 579 590 579 L478 579 Q474 587 472.5 596.5 Q471 606 471 615 Q471 633 478 650.5 Q485 668 499 681.5 Q513 695 534.5 703.5 Q556 712 585 712 Q642 712 670 683.5 Q698 655 698 613 Q698 560 657.5 516 Q617 472 529 431 L448 394 Q465 398 478 400 Q491 402 511 402 Q544 402 573 392.5 Q602 383 623.5 361.5 Q645 340 658 305.5 Q671 271 671 220 L671 136 Q671 109 676 93.5 Q681 78 689 69.5 Q697 61 705.5 59 Q714 57 722 57 Q733 57 740.5 64 Q748 71 754 82 L771 67 Q762 52 750.5 38.5 Q739 25 721.5 14.5 Q704 4 678.5 -2 Q653 -8 616 -8 Q589 -8 559.5 0 Q530 8 504.5 27.5 Q479 47 462.5 78.5 Q446 110 446 158 L446 254 Q446 308 435 330.5 Q424 353 399 353 Q382 353 370 348.5 Q358 344 347 338 L321 324 L321 26 L402 26 L402 0 L17 0 L17 26 L89 26 L89 672 L17 672 L17 698 L402 698 L402 672 L321 672 L321 352 L538 463 Z M374 -265 Q397 -246 409.5 -230 Q422 -214 422 -200 Q422 -193 410.5 -187.5 Q399 -182 385.5 -173.5 Q372 -165 361 -151 Q350 -137 350 -112 Q350 -78 374 -60 Q398 -42 428 -42 Q458 -42 483 -62 Q508 -82 508 -125 Q508 -178 476.5 -217 Q445 -256 395 -291 L374 -265 Z " />
<glyph glyph-name="kcommaaccent" unicode="&#x137;" horiz-adv-x="603" d="M609 47 Q567 -8 488 -8 Q461 -8 436 -2 Q411 4 392.5 19 Q374 34 362.5 58.5 Q351 83 351 120 L351 197 Q351 216 344.5 224 Q338 232 328 232 Q321 232 313 229.5 Q305 227 292 222 L269 213 L269 26 L320 26 L320 0 L5 0 L5 26 L57 26 L57 700 L5 700 L5 727 L269 727 L269 239 L386 282 Q447 305 470 322.5 Q493 340 493 351 Q493 359 484.5 363.5 Q476 368 450 368 L367 368 Q363 379 363 393 Q363 408 369 423.5 Q375 439 387 451 Q399 463 418 470.5 Q437 478 463 478 Q509 478 535 456.5 Q561 435 561 403 Q561 361 527 332 Q493 303 440 281 L387 259 Q398 262 412.5 264.5 Q427 267 441 267 Q462 267 481.5 259.5 Q501 252 516.5 237 Q532 222 541.5 200 Q551 178 551 150 L551 86 Q551 50 572 50 Q586 50 596 62 L609 47 Z M289 -265 Q312 -246 324.5 -230 Q337 -214 337 -200 Q337 -193 325.5 -187.5 Q314 -182 300.5 -173.5 Q287 -165 276 -151 Q265 -137 265 -112 Q265 -78 289 -60 Q313 -42 343 -42 Q373 -42 398 -62 Q423 -82 423 -125 Q423 -178 391.5 -217 Q360 -256 310 -291 L289 -265 Z " />
<glyph glyph-name="Lacute" unicode="&#x139;" horiz-adv-x="599" d="M233 876 Q253 901 275.5 914.5 Q298 928 331 928 Q357 928 373 913.5 Q389 899 389 877 Q389 856 376.5 838 Q364 820 332 806 L192 744 L123 744 L233 876 Z M358 26 Q405 26 438.5 42 Q472 58 494.5 88 Q517 118 530.5 161.5 Q544 205 551 259 L576 259 L576 0 L14 0 L14 26 L86 26 L86 672 L14 672 L14 698 L391 698 L391 672 L319 672 L319 26 L358 26 Z " />
<glyph glyph-name="lacute" unicode="&#x13a;" horiz-adv-x="352" d="M258 102 Q258 65 270.5 50.5 Q283 36 303 36 Q316 36 327 42.5 Q338 49 345 60 L356 47 Q327 13 287.5 2.5 Q248 -8 211 -8 Q179 -8 149 -1 Q119 6 96 25.5 Q73 45 59.5 80.5 Q46 116 46 172 L46 700 L-6 700 L-6 727 L258 727 L258 102 Z M159 902 Q179 927 201.5 940.5 Q224 954 257 954 Q283 954 299 939.5 Q315 925 315 903 Q315 882 302.5 864 Q290 846 258 832 L118 770 L49 770 L159 902 Z " />
<glyph glyph-name="Lcommaaccent" unicode="&#x13b;" horiz-adv-x="599" d="M358 26 Q405 26 438.5 42 Q472 58 494.5 88 Q517 118 530.5 161.5 Q544 205 551 259 L576 259 L576 0 L14 0 L14 26 L86 26 L86 672 L14 672 L14 698 L391 698 L391 672 L319 672 L319 26 L358 26 Z M284 -265 Q307 -246 319.5 -230 Q332 -214 332 -200 Q332 -193 320.5 -187.5 Q309 -182 295.5 -173.5 Q282 -165 271 -151 Q260 -137 260 -112 Q260 -78 284 -60 Q308 -42 338 -42 Q368 -42 393 -62 Q418 -82 418 -125 Q418 -178 386.5 -217 Q355 -256 305 -291 L284 -265 Z " />
<glyph glyph-name="lcommaaccent" unicode="&#x13c;" horiz-adv-x="329" d="M258 102 Q258 65 270.5 50.5 Q283 36 303 36 Q316 36 327 42.5 Q338 49 345 60 L356 47 Q327 13 287.5 2.5 Q248 -8 211 -8 Q179 -8 149 -1 Q119 6 96 25.5 Q73 45 59.5 80.5 Q46 116 46 172 L46 700 L-6 700 L-6 727 L258 727 L258 102 Z M128 -265 Q151 -246 163.5 -230 Q176 -214 176 -200 Q176 -193 164.5 -187.5 Q153 -182 139.5 -173.5 Q126 -165 115 -151 Q104 -137 104 -112 Q104 -78 128 -60 Q152 -42 182 -42 Q212 -42 237 -62 Q262 -82 262 -125 Q262 -178 230.5 -217 Q199 -256 149 -291 L128 -265 Z " />
<glyph glyph-name="Lcaron" unicode="&#x13d;" horiz-adv-x="599" d="M358 26 Q405 26 438.5 42 Q472 58 494.5 88 Q517 118 530.5 161.5 Q544 205 551 259 L576 259 L576 0 L14 0 L14 26 L86 26 L86 672 L14 672 L14 698 L391 698 L391 672 L319 672 L319 26 L358 26 Z M439 480 Q462 499 474.5 515 Q487 531 487 545 Q487 552 475.5 557.5 Q464 563 450.5 571.5 Q437 580 426 594 Q415 608 415 633 Q415 667 439 685 Q463 703 493 703 Q523 703 548 683 Q573 663 573 620 Q573 567 541.5 528 Q510 489 460 454 L439 480 Z " />
<glyph glyph-name="lcaron" unicode="&#x13e;" horiz-adv-x="425" d="M258 102 Q258 65 270.5 50.5 Q283 36 303 36 Q316 36 327 42.5 Q338 49 345 60 L356 47 Q327 13 287.5 2.5 Q248 -8 211 -8 Q179 -8 149 -1 Q119 6 96 25.5 Q73 45 59.5 80.5 Q46 116 46 172 L46 700 L-6 700 L-6 727 L258 727 L258 102 Z M333 521 Q356 540 368.5 556 Q381 572 381 586 Q381 593 369.5 598.5 Q358 604 344.5 612.5 Q331 621 320 635 Q309 649 309 674 Q309 708 333 726 Q357 744 387 744 Q417 744 442 724 Q467 704 467 661 Q467 608 435.5 569 Q404 530 354 495 L333 521 Z " />
<glyph glyph-name="Ldot" unicode="&#x13f;" horiz-adv-x="599" d="M358 26 Q405 26 438.5 42 Q472 58 494.5 88 Q517 118 530.5 161.5 Q544 205 551 259 L576 259 L576 0 L14 0 L14 26 L86 26 L86 672 L14 672 L14 698 L391 698 L391 672 L319 672 L319 26 L358 26 Z M582 392 Q582 354 557.5 329 Q533 304 497 304 Q462 304 437.5 329 Q413 354 413 392 Q413 427 437.5 451 Q462 475 497 475 Q533 475 557.5 451 Q582 427 582 392 Z " />
<glyph glyph-name="ldot" unicode="&#x140;" horiz-adv-x="487" d="M258 102 Q258 65 270.5 50.5 Q283 36 303 36 Q316 36 327 42.5 Q338 49 345 60 L356 47 Q327 13 287.5 2.5 Q248 -8 211 -8 Q179 -8 149 -1 Q119 6 96 25.5 Q73 45 59.5 80.5 Q46 116 46 172 L46 700 L-6 700 L-6 727 L258 727 L258 102 Z M474 363 Q474 325 449.5 300 Q425 275 389 275 Q354 275 329.5 300 Q305 325 305 363 Q305 398 329.5 422 Q354 446 389 446 Q425 446 449.5 422 Q474 398 474 363 Z " />
<glyph glyph-name="Lslash" unicode="&#x141;" horiz-adv-x="606" d="M20 269 L94 294 L94 672 L22 672 L22 698 L399 698 L399 672 L326 672 L326 374 L488 431 L488 397 L326 340 L326 26 L366 26 Q413 26 446.5 42 Q480 58 502.5 88 Q525 118 538 161.5 Q551 205 558 259 L584 259 L584 0 L22 0 L22 26 L94 26 L94 260 L20 235 L20 269 Z " />
<glyph glyph-name="lslash" unicode="&#x142;" horiz-adv-x="372" d="M269 405 L356 444 L356 414 L269 375 L269 102 Q269 65 281.5 50.5 Q294 36 313 36 Q326 36 337 42.5 Q348 49 355 60 L367 47 Q337 13 298.5 2.5 Q260 -8 222 -8 Q189 -8 159 -1 Q129 6 106 25.5 Q83 45 69.5 80.5 Q56 116 56 172 L56 283 L-5 257 L-5 287 L56 313 L56 700 L5 700 L5 727 L269 727 L269 405 Z " />
<glyph glyph-name="Nacute" unicode="&#x143;" horiz-adv-x="723" d="M611 672 L528 672 L528 698 L712 698 L712 672 L639 672 L639 0 L422 0 L117 676 L117 26 L200 26 L200 0 L17 0 L17 26 L89 26 L89 672 L17 672 L17 698 L380 698 L611 160 L611 672 Z M410 886 Q430 911 452.5 924.5 Q475 938 508 938 Q534 938 550 923.5 Q566 909 566 887 Q566 866 553.5 848 Q541 830 509 816 L369 754 L300 754 L410 886 Z " />
<glyph glyph-name="nacute" unicode="&#x144;" horiz-adv-x="654" d="M592 86 Q592 50 616 50 Q624 50 630 55 Q636 60 641 67 L654 53 Q627 21 594 6.5 Q561 -8 517 -8 Q454 -8 417 27.5 Q380 63 380 144 L380 337 Q380 383 368.5 400.5 Q357 418 335 418 Q314 418 295.5 398 Q277 378 277 331 L277 26 L328 26 L328 0 L13 0 L13 26 L66 26 L66 441 L13 441 L13 467 L277 467 L277 406 Q284 419 298 432 Q312 445 331 455 Q350 465 374.5 471.5 Q399 478 428 478 Q473 478 504.5 465.5 Q536 453 555.5 432 Q575 411 583.5 383 Q592 355 592 323 L592 86 Z M373 660 Q393 685 415.5 698.5 Q438 712 471 712 Q497 712 513 697.5 Q529 683 529 661 Q529 640 516.5 622 Q504 604 472 590 L332 528 L263 528 L373 660 Z " />
<glyph glyph-name="Ncommaaccent" unicode="&#x145;" horiz-adv-x="723" d="M611 672 L528 672 L528 698 L712 698 L712 672 L639 672 L639 0 L422 0 L117 676 L117 26 L200 26 L200 0 L17 0 L17 26 L89 26 L89 672 L17 672 L17 698 L380 698 L611 160 L611 672 Z M325 -265 Q348 -246 360.5 -230 Q373 -214 373 -200 Q373 -193 361.5 -187.5 Q350 -182 336.5 -173.5 Q323 -165 312 -151 Q301 -137 301 -112 Q301 -78 325 -60 Q349 -42 379 -42 Q409 -42 434 -62 Q459 -82 459 -125 Q459 -178 427.5 -217 Q396 -256 346 -291 L325 -265 Z " />
<glyph glyph-name="ncommaaccent" unicode="&#x146;" horiz-adv-x="654" d="M592 86 Q592 50 616 50 Q624 50 630 55 Q636 60 641 67 L654 53 Q627 21 594 6.5 Q561 -8 517 -8 Q454 -8 417 27.5 Q380 63 380 144 L380 337 Q380 383 368.5 400.5 Q357 418 335 418 Q314 418 295.5 398 Q277 378 277 331 L277 26 L328 26 L328 0 L13 0 L13 26 L66 26 L66 441 L13 441 L13 467 L277 467 L277 406 Q284 419 298 432 Q312 445 331 455 Q350 465 374.5 471.5 Q399 478 428 478 Q473 478 504.5 465.5 Q536 453 555.5 432 Q575 411 583.5 383 Q592 355 592 323 L592 86 Z M312 -265 Q335 -246 347.5 -230 Q360 -214 360 -200 Q360 -193 348.5 -187.5 Q337 -182 323.5 -173.5 Q310 -165 299 -151 Q288 -137 288 -112 Q288 -78 312 -60 Q336 -42 366 -42 Q396 -42 421 -62 Q446 -82 446 -125 Q446 -178 414.5 -217 Q383 -256 333 -291 L312 -265 Z " />
<glyph glyph-name="Ncaron" unicode="&#x147;" horiz-adv-x="723" d="M611 672 L528 672 L528 698 L712 698 L712 672 L639 672 L639 0 L422 0 L117 676 L117 26 L200 26 L200 0 L17 0 L17 26 L89 26 L89 672 L17 672 L17 698 L380 698 L611 160 L611 672 Z M351 758 L231 922 L261 939 L396 862 L531 939 L560 922 L441 758 L351 758 Z " />
<glyph glyph-name="ncaron" unicode="&#x148;" horiz-adv-x="654" d="M592 86 Q592 50 616 50 Q624 50 630 55 Q636 60 641 67 L654 53 Q627 21 594 6.5 Q561 -8 517 -8 Q454 -8 417 27.5 Q380 63 380 144 L380 337 Q380 383 368.5 400.5 Q357 418 335 418 Q314 418 295.5 398 Q277 378 277 331 L277 26 L328 26 L328 0 L13 0 L13 26 L66 26 L66 441 L13 441 L13 467 L277 467 L277 406 Q284 419 298 432 Q312 445 331 455 Q350 465 374.5 471.5 Q399 478 428 478 Q473 478 504.5 465.5 Q536 453 555.5 432 Q575 411 583.5 383 Q592 355 592 323 L592 86 Z M278 532 L158 696 L188 713 L323 636 L458 713 L487 696 L368 532 L278 532 Z " />
<glyph glyph-name="Omacron" unicode="&#x14c;" horiz-adv-x="744" d="M372 712 Q455 712 519 684.5 Q583 657 627 607.5 Q671 558 693.5 490 Q716 422 716 342 Q716 262 693.5 197.5 Q671 133 627 87 Q583 41 519 16.5 Q455 -8 372 -8 Q289 -8 225 16.5 Q161 41 117 87 Q73 133 50.5 197.5 Q28 262 28 342 Q28 422 50.5 490 Q73 558 117 607.5 Q161 657 225 684.5 Q289 712 372 712 Z M372 20 Q402 20 421 41.5 Q440 63 451 104.5 Q462 146 466 205.5 Q470 265 470 342 Q470 418 466 481 Q462 544 451 589 Q440 634 421 658.5 Q402 683 372 683 Q342 683 323 658.5 Q304 634 293 589 Q282 544 278 481 Q274 418 274 342 Q274 265 278 205.5 Q282 146 293 104.5 Q304 63 323 41.5 Q342 20 372 20 Z M217 781 L217 881 L527 881 L527 781 L217 781 Z " />
<glyph glyph-name="omacron" unicode="&#x14d;" horiz-adv-x="575" d="M288 478 Q355 478 406 457.5 Q457 437 490.5 403 Q524 369 541 325 Q558 281 558 235 Q558 188 541 144.5 Q524 101 490 67 Q456 33 405.5 12.5 Q355 -8 288 -8 Q220 -8 169.5 12.5 Q119 33 85 67 Q51 101 34 144.5 Q17 188 17 235 Q17 281 34 325 Q51 369 84.5 403 Q118 437 169 457.5 Q220 478 288 478 Z M288 19 Q322 19 333 74 Q344 129 344 235 Q344 341 331.5 396.5 Q319 452 288 452 Q256 452 243.5 396.5 Q231 341 231 235 Q231 129 242.5 74 Q254 19 288 19 Z M141 555 L141 655 L451 655 L451 555 L141 555 Z " />
<glyph glyph-name="Obreve" unicode="&#x14e;" horiz-adv-x="744" d="M372 712 Q455 712 519 684.5 Q583 657 627 607.5 Q671 558 693.5 490 Q716 422 716 342 Q716 262 693.5 197.5 Q671 133 627 87 Q583 41 519 16.5 Q455 -8 372 -8 Q289 -8 225 16.5 Q161 41 117 87 Q73 133 50.5 197.5 Q28 262 28 342 Q28 422 50.5 490 Q73 558 117 607.5 Q161 657 225 684.5 Q289 712 372 712 Z M372 20 Q402 20 421 41.5 Q440 63 451 104.5 Q462 146 466 205.5 Q470 265 470 342 Q470 418 466 481 Q462 544 451 589 Q440 634 421 658.5 Q402 683 372 683 Q342 683 323 658.5 Q304 634 293 589 Q282 544 278 481 Q274 418 274 342 Q274 265 278 205.5 Q282 146 293 104.5 Q304 63 323 41.5 Q342 20 372 20 Z M530 924 Q530 845 494.5 797 Q459 749 380 749 Q301 749 266.5 797 Q232 845 232 924 L260 924 Q270 901 285 887 Q300 873 316.5 865.5 Q333 858 349.5 855 Q366 852 380 852 Q409 852 442.5 865.5 Q476 879 502 924 L530 924 Z " />
<glyph glyph-name="obreve" unicode="&#x14f;" horiz-adv-x="575" d="M445 698 Q445 619 409.5 571 Q374 523 295 523 Q216 523 181.5 571 Q147 619 147 698 L175 698 Q185 675 200 661 Q215 647 231.5 639.5 Q248 632 264.5 629 Q281 626 295 626 Q324 626 357.5 639.5 Q391 653 417 698 L445 698 Z M288 478 Q355 478 406 457.5 Q457 437 490.5 403 Q524 369 541 325 Q558 281 558 235 Q558 188 541 144.5 Q524 101 490 67 Q456 33 405.5 12.5 Q355 -8 288 -8 Q220 -8 169.5 12.5 Q119 33 85 67 Q51 101 34 144.5 Q17 188 17 235 Q17 281 34 325 Q51 369 84.5 403 Q118 437 169 457.5 Q220 478 288 478 Z M288 19 Q322 19 333 74 Q344 129 344 235 Q344 341 331.5 396.5 Q319 452 288 452 Q256 452 243.5 396.5 Q231 341 231 235 Q231 129 242.5 74 Q254 19 288 19 Z " />
<glyph glyph-name="Ohungarumlaut" unicode="&#x150;" horiz-adv-x="744" d="M372 712 Q455 712 519 684.5 Q583 657 627 607.5 Q671 558 693.5 490 Q716 422 716 342 Q716 262 693.5 197.5 Q671 133 627 87 Q583 41 519 16.5 Q455 -8 372 -8 Q289 -8 225 16.5 Q161 41 117 87 Q73 133 50.5 197.5 Q28 262 28 342 Q28 422 50.5 490 Q73 558 117 607.5 Q161 657 225 684.5 Q289 712 372 712 Z M372 20 Q402 20 421 41.5 Q440 63 451 104.5 Q462 146 466 205.5 Q470 265 470 342 Q470 418 466 481 Q462 544 451 589 Q440 634 421 658.5 Q402 683 372 683 Q342 683 323 658.5 Q304 634 293 589 Q282 544 278 481 Q274 418 274 342 Q274 265 278 205.5 Q282 146 293 104.5 Q304 63 323 41.5 Q342 20 372 20 Z M317 886 Q339 910 357 924 Q375 938 403 938 Q429 938 443 923.5 Q457 909 457 887 Q457 868 444 852.5 Q431 837 399 821 L264 754 L198 754 L317 886 Z M503 886 Q526 910 543.5 924 Q561 938 589 938 Q615 938 629 923.5 Q643 909 643 887 Q643 868 630 852.5 Q617 837 585 821 L450 754 L384 754 L503 886 Z " />
<glyph glyph-name="ohungarumlaut" unicode="&#x151;" horiz-adv-x="575" d="M288 478 Q355 478 406 457.5 Q457 437 490.5 403 Q524 369 541 325 Q558 281 558 235 Q558 188 541 144.5 Q524 101 490 67 Q456 33 405.5 12.5 Q355 -8 288 -8 Q220 -8 169.5 12.5 Q119 33 85 67 Q51 101 34 144.5 Q17 188 17 235 Q17 281 34 325 Q51 369 84.5 403 Q118 437 169 457.5 Q220 478 288 478 Z M288 19 Q322 19 333 74 Q344 129 344 235 Q344 341 331.5 396.5 Q319 452 288 452 Q256 452 243.5 396.5 Q231 341 231 235 Q231 129 242.5 74 Q254 19 288 19 Z M238 660 Q260 684 278 698 Q296 712 324 712 Q350 712 364 697.5 Q378 683 378 661 Q378 642 365 626.5 Q352 611 320 595 L185 528 L119 528 L238 660 Z M424 660 Q447 684 464.5 698 Q482 712 510 712 Q536 712 550 697.5 Q564 683 564 661 Q564 642 551 626.5 Q538 611 506 595 L371 528 L305 528 L424 660 Z " />
<glyph glyph-name="OE" unicode="&#x152;" horiz-adv-x="1014" d="M476 42 Q424 -8 329 -8 Q270 -8 216.5 11.5 Q163 31 122 73 Q81 115 56.5 180 Q32 245 32 337 Q32 428 57 498.5 Q82 569 124 616 Q166 663 221 687.5 Q276 712 336 712 Q380 712 416 699 Q452 686 475 665 L473 698 L849 698 Q918 698 956.5 667.5 Q995 637 995 580 Q995 538 968 508.5 Q941 479 893 479 Q858 479 837.5 490.5 Q817 502 800 518 L908 657 Q904 661 894.5 663.5 Q885 666 873.5 668 Q862 670 850 671 Q838 672 829 672 L704 672 L704 354 L854 354 L854 328 L704 328 L704 26 L745 26 Q803 26 841.5 40.5 Q880 55 904 81 Q928 107 940.5 143 Q953 179 960 221 L981 222 L981 0 L473 0 L476 42 Z M380 39 Q435 39 460.5 112 Q486 185 486 337 Q486 412 480 473.5 Q474 535 461 578.5 Q448 622 428 646 Q408 670 380 670 Q352 670 332 645 Q312 620 299 575.5 Q286 531 280 470 Q274 409 274 337 Q274 193 299.5 116 Q325 39 380 39 Z " />
<glyph glyph-name="oe" unicode="&#x153;" horiz-adv-x="820" d="M612 478 Q655 478 691 466.5 Q727 455 753 436 Q779 417 793 391 Q807 365 807 337 Q807 302 792.5 275.5 Q778 249 752.5 231 Q727 213 692 204 Q657 195 616 195 Q599 195 583.5 196 Q568 197 557 199 Q559 155 569.5 124.5 Q580 94 596.5 74 Q613 54 634 45 Q655 36 679 36 Q743 36 793 92 L808 75 Q792 58 773 43 Q754 28 729.5 16.5 Q705 5 674 -1.5 Q643 -8 604 -8 Q556 -8 512 8 Q468 24 443 45 Q417 24 375.5 8 Q334 -8 285 -8 Q219 -8 168.5 12 Q118 32 84.5 66 Q51 100 34 143.5 Q17 187 17 234 Q17 281 33.5 325 Q50 369 84 403 Q118 437 168 457.5 Q218 478 286 478 Q333 478 374 462.5 Q415 447 453 420 Q526 478 612 478 Z M288 19 Q322 19 333 74 Q344 129 344 235 Q344 341 331.5 396.5 Q319 452 288 452 Q256 452 243.5 396.5 Q231 341 231 235 Q231 129 242.5 74 Q254 19 288 19 Z M606 452 Q593 452 583.5 438 Q574 424 568 400 Q562 376 559 344.5 Q556 313 556 279 Q556 265 556 252 Q556 239 557 226 Q567 221 587 221 Q611 221 625 250.5 Q639 280 639 351 Q639 393 630 422.5 Q621 452 606 452 Z " />
<glyph glyph-name="Racute" unicode="&#x154;" horiz-adv-x="749" d="M668 524 Q668 494 659 467.5 Q650 441 630 419 Q610 397 577.5 381 Q545 365 499 356 Q531 354 559.5 345 Q588 336 610.5 319.5 Q633 303 647.5 278.5 Q662 254 666 221 L675 150 Q682 94 690.5 75.5 Q699 57 713 57 Q724 57 729.5 63.5 Q735 70 741 81 L757 67 Q737 36 696.5 14 Q656 -8 602 -8 Q571 -8 544 -2 Q517 4 496 20.5 Q475 37 461 66 Q447 95 441 142 L431 224 Q423 287 403.5 313.5 Q384 340 352 340 L321 340 L321 26 L402 26 L402 0 L17 0 L17 26 L89 26 L89 672 L17 672 L17 698 L391 698 Q471 698 524.5 683 Q578 668 610 644 Q642 620 655 588.5 Q668 557 668 524 Z M321 672 L321 367 L364 367 Q380 367 395.5 375 Q411 383 422 401 Q433 419 440 447.5 Q447 476 447 517 Q447 600 421.5 636 Q396 672 347 672 L321 672 Z M383 886 Q403 911 425.5 924.5 Q448 938 481 938 Q507 938 523 923.5 Q539 909 539 887 Q539 866 526.5 848 Q514 830 482 816 L342 754 L273 754 L383 886 Z " />
<glyph glyph-name="racute" unicode="&#x155;" horiz-adv-x="509" d="M272 392 Q278 408 288 423.5 Q298 439 313 451 Q328 463 348 470.5 Q368 478 394 478 Q418 478 438.5 469.5 Q459 461 473.5 446 Q488 431 496 412 Q504 393 504 372 Q504 323 472 292.5 Q440 262 392 262 Q365 262 339.5 275 Q314 288 304 304 L431 437 Q423 444 413 447 Q403 450 384 450 Q362 450 341.5 439 Q321 428 305.5 407 Q290 386 281 356 Q272 326 272 288 L272 26 L342 26 L342 0 L8 0 L8 26 L61 26 L61 441 L8 441 L8 467 L272 467 L272 392 Z M260 660 Q280 685 302.5 698.5 Q325 712 358 712 Q384 712 400 697.5 Q416 683 416 661 Q416 640 403.5 622 Q391 604 359 590 L219 528 L150 528 L260 660 Z " />
<glyph glyph-name="Rcommaaccent" unicode="&#x156;" horiz-adv-x="749" d="M668 524 Q668 494 659 467.5 Q650 441 630 419 Q610 397 577.5 381 Q545 365 499 356 Q531 354 559.5 345 Q588 336 610.5 319.5 Q633 303 647.5 278.5 Q662 254 666 221 L675 150 Q682 94 690.5 75.5 Q699 57 713 57 Q724 57 729.5 63.5 Q735 70 741 81 L757 67 Q737 36 696.5 14 Q656 -8 602 -8 Q571 -8 544 -2 Q517 4 496 20.5 Q475 37 461 66 Q447 95 441 142 L431 224 Q423 287 403.5 313.5 Q384 340 352 340 L321 340 L321 26 L402 26 L402 0 L17 0 L17 26 L89 26 L89 672 L17 672 L17 698 L391 698 Q471 698 524.5 683 Q578 668 610 644 Q642 620 655 588.5 Q668 557 668 524 Z M321 672 L321 367 L364 367 Q380 367 395.5 375 Q411 383 422 401 Q433 419 440 447.5 Q447 476 447 517 Q447 600 421.5 636 Q396 672 347 672 L321 672 Z M374 -265 Q397 -246 409.5 -230 Q422 -214 422 -200 Q422 -193 410.5 -187.5 Q399 -182 385.5 -173.5 Q372 -165 361 -151 Q350 -137 350 -112 Q350 -78 374 -60 Q398 -42 428 -42 Q458 -42 483 -62 Q508 -82 508 -125 Q508 -178 476.5 -217 Q445 -256 395 -291 L374 -265 Z " />
<glyph glyph-name="rcommaaccent" unicode="&#x157;" horiz-adv-x="509" d="M272 392 Q278 408 288 423.5 Q298 439 313 451 Q328 463 348 470.5 Q368 478 394 478 Q418 478 438.5 469.5 Q459 461 473.5 446 Q488 431 496 412 Q504 393 504 372 Q504 323 472 292.5 Q440 262 392 262 Q365 262 339.5 275 Q314 288 304 304 L431 437 Q423 444 413 447 Q403 450 384 450 Q362 450 341.5 439 Q321 428 305.5 407 Q290 386 281 356 Q272 326 272 288 L272 26 L342 26 L342 0 L8 0 L8 26 L61 26 L61 441 L8 441 L8 467 L272 467 L272 392 Z M114 -265 Q137 -246 149.5 -230 Q162 -214 162 -200 Q162 -193 150.5 -187.5 Q139 -182 125.5 -173.5 Q112 -165 101 -151 Q90 -137 90 -112 Q90 -78 114 -60 Q138 -42 168 -42 Q198 -42 223 -62 Q248 -82 248 -125 Q248 -178 216.5 -217 Q185 -256 135 -291 L114 -265 Z " />
<glyph glyph-name="Rcaron" unicode="&#x158;" horiz-adv-x="749" d="M668 524 Q668 494 659 467.5 Q650 441 630 419 Q610 397 577.5 381 Q545 365 499 356 Q531 354 559.5 345 Q588 336 610.5 319.5 Q633 303 647.5 278.5 Q662 254 666 221 L675 150 Q682 94 690.5 75.5 Q699 57 713 57 Q724 57 729.5 63.5 Q735 70 741 81 L757 67 Q737 36 696.5 14 Q656 -8 602 -8 Q571 -8 544 -2 Q517 4 496 20.5 Q475 37 461 66 Q447 95 441 142 L431 224 Q423 287 403.5 313.5 Q384 340 352 340 L321 340 L321 26 L402 26 L402 0 L17 0 L17 26 L89 26 L89 672 L17 672 L17 698 L391 698 Q471 698 524.5 683 Q578 668 610 644 Q642 620 655 588.5 Q668 557 668 524 Z M321 672 L321 367 L364 367 Q380 367 395.5 375 Q411 383 422 401 Q433 419 440 447.5 Q447 476 447 517 Q447 600 421.5 636 Q396 672 347 672 L321 672 Z M314 758 L194 922 L224 939 L359 862 L494 939 L523 922 L404 758 L314 758 Z " />
<glyph glyph-name="rcaron" unicode="&#x159;" horiz-adv-x="509" d="M272 392 Q278 408 288 423.5 Q298 439 313 451 Q328 463 348 470.5 Q368 478 394 478 Q418 478 438.5 469.5 Q459 461 473.5 446 Q488 431 496 412 Q504 393 504 372 Q504 323 472 292.5 Q440 262 392 262 Q365 262 339.5 275 Q314 288 304 304 L431 437 Q423 444 413 447 Q403 450 384 450 Q362 450 341.5 439 Q321 428 305.5 407 Q290 386 281 356 Q272 326 272 288 L272 26 L342 26 L342 0 L8 0 L8 26 L61 26 L61 441 L8 441 L8 467 L272 467 L272 392 Z M223 532 L103 696 L133 713 L268 636 L403 713 L432 696 L313 532 L223 532 Z " />
<glyph glyph-name="Sacute" unicode="&#x15a;" horiz-adv-x="572" d="M249 24 Q272 24 294.5 30.5 Q317 37 334.5 49.5 Q352 62 363 80 Q374 98 374 122 Q374 135 369.5 150 Q365 165 350.5 182.5 Q336 200 308.5 220 Q281 240 235 263 Q187 287 149.5 309.5 Q112 332 86 359 Q60 386 46.5 420 Q33 454 33 501 Q33 543 51 581.5 Q69 620 103 649 Q137 678 186 695 Q235 712 297 712 Q355 712 396 700.5 Q437 689 463.5 670 Q490 651 502.5 628 Q515 605 515 583 Q515 546 493.5 521 Q472 496 433 496 Q409 496 388 506.5 Q367 517 353 534 L446 643 Q424 660 393.5 671 Q363 682 328 682 Q277 682 243 658.5 Q209 635 209 593 Q209 555 242 523 Q275 491 353 454 Q407 428 445 401.5 Q483 375 506.5 346 Q530 317 541 284 Q552 251 552 213 Q552 160 530.5 119 Q509 78 470 50 Q431 22 377 7 Q323 -8 259 -8 Q211 -8 170.5 2.5 Q130 13 100.5 31.5 Q71 50 54.5 76 Q38 102 38 134 Q38 175 62 198.5 Q86 222 121 222 Q173 222 208 181 L118 63 Q144 45 177.5 34.5 Q211 24 249 24 Z M298 886 Q318 911 340.5 924.5 Q363 938 396 938 Q422 938 438 923.5 Q454 909 454 887 Q454 866 441.5 848 Q429 830 397 816 L257 754 L188 754 L298 886 Z " />
<glyph glyph-name="sacute" unicode="&#x15b;" horiz-adv-x="440" d="M181 19 Q214 19 237 31 Q260 43 260 70 Q260 83 255 95 Q250 107 237 119.5 Q224 132 201 146 Q178 160 143 177 Q76 208 49.5 248 Q23 288 23 322 Q23 397 79.5 437.5 Q136 478 236 478 Q312 478 359 455 Q406 432 406 391 Q406 362 387.5 345 Q369 328 343 328 Q322 328 306.5 336 Q291 344 283 352 L345 419 Q335 430 314 440 Q293 450 267 450 Q229 450 213.5 435.5 Q198 421 198 401 Q198 378 219 359 Q240 340 294 313 Q354 284 388.5 247.5 Q423 211 423 160 Q423 114 405.5 82 Q388 50 358 30 Q328 10 287.5 1 Q247 -8 201 -8 Q171 -8 140 -3 Q109 2 84 13 Q59 24 43.5 41.5 Q28 59 28 84 Q28 109 45 127.5 Q62 146 90 146 Q111 146 124 139 Q137 132 147 117 L84 49 Q102 35 127 27 Q152 19 181 19 Z M248 660 Q268 685 290.5 698.5 Q313 712 346 712 Q372 712 388 697.5 Q404 683 404 661 Q404 640 391.5 622 Q379 604 347 590 L207 528 L138 528 L248 660 Z " />
<glyph glyph-name="Scircumflex" unicode="&#x15c;" horiz-adv-x="572" d="M249 24 Q272 24 294.5 30.5 Q317 37 334.5 49.5 Q352 62 363 80 Q374 98 374 122 Q374 135 369.5 150 Q365 165 350.5 182.5 Q336 200 308.5 220 Q281 240 235 263 Q187 287 149.5 309.5 Q112 332 86 359 Q60 386 46.5 420 Q33 454 33 501 Q33 543 51 581.5 Q69 620 103 649 Q137 678 186 695 Q235 712 297 712 Q355 712 396 700.5 Q437 689 463.5 670 Q490 651 502.5 628 Q515 605 515 583 Q515 546 493.5 521 Q472 496 433 496 Q409 496 388 506.5 Q367 517 353 534 L446 643 Q424 660 393.5 671 Q363 682 328 682 Q277 682 243 658.5 Q209 635 209 593 Q209 555 242 523 Q275 491 353 454 Q407 428 445 401.5 Q483 375 506.5 346 Q530 317 541 284 Q552 251 552 213 Q552 160 530.5 119 Q509 78 470 50 Q431 22 377 7 Q323 -8 259 -8 Q211 -8 170.5 2.5 Q130 13 100.5 31.5 Q71 50 54.5 76 Q38 102 38 134 Q38 175 62 198.5 Q86 222 121 222 Q173 222 208 181 L118 63 Q144 45 177.5 34.5 Q211 24 249 24 Z M351 920 L478 749 L457 737 L308 816 L157 737 L137 749 L264 920 L351 920 Z " />
<glyph glyph-name="scircumflex" unicode="&#x15d;" horiz-adv-x="440" d="M181 19 Q214 19 237 31 Q260 43 260 70 Q260 83 255 95 Q250 107 237 119.5 Q224 132 201 146 Q178 160 143 177 Q76 208 49.5 248 Q23 288 23 322 Q23 397 79.5 437.5 Q136 478 236 478 Q312 478 359 455 Q406 432 406 391 Q406 362 387.5 345 Q369 328 343 328 Q322 328 306.5 336 Q291 344 283 352 L345 419 Q335 430 314 440 Q293 450 267 450 Q229 450 213.5 435.5 Q198 421 198 401 Q198 378 219 359 Q240 340 294 313 Q354 284 388.5 247.5 Q423 211 423 160 Q423 114 405.5 82 Q388 50 358 30 Q328 10 287.5 1 Q247 -8 201 -8 Q171 -8 140 -3 Q109 2 84 13 Q59 24 43.5 41.5 Q28 59 28 84 Q28 109 45 127.5 Q62 146 90 146 Q111 146 124 139 Q137 132 147 117 L84 49 Q102 35 127 27 Q152 19 181 19 Z M273 694 L400 523 L379 511 L230 590 L79 511 L59 523 L186 694 L273 694 Z " />
<glyph glyph-name="Scedilla" unicode="&#x15e;" horiz-adv-x="572" d="M260 -8 Q212 -8 171.5 2.5 Q131 13 101.5 31.5 Q72 50 55 76 Q38 102 38 134 Q38 175 62 198.5 Q86 222 121 222 Q173 222 208 181 L118 63 Q144 45 177.5 34.5 Q211 24 249 24 Q272 24 294.5 30.5 Q317 37 334.5 49.5 Q352 62 363 80 Q374 98 374 122 Q374 135 369.5 150 Q365 165 350.5 182.5 Q336 200 308.5 220 Q281 240 235 263 Q187 287 149.5 309.5 Q112 332 86 359 Q60 386 46.5 420 Q33 454 33 501 Q33 543 51 581.5 Q69 620 103 649 Q137 678 186 695 Q235 712 297 712 Q355 712 396 700.5 Q437 689 463.5 670 Q490 651 502.5 628 Q515 605 515 583 Q515 546 493.5 521 Q472 496 433 496 Q409 496 388 506.5 Q367 517 353 534 L446 643 Q424 660 393.5 671 Q363 682 328 682 Q277 682 243 658.5 Q209 635 209 593 Q209 555 242 523 Q275 491 353 454 Q407 428 445 401.5 Q483 375 506.5 346 Q530 317 541 284 Q552 251 552 213 Q552 163 532.5 123.5 Q513 84 478 56 Q443 28 394.5 11.5 Q346 -5 287 -8 L254 -67 Q266 -64 287 -64 Q328 -64 358.5 -85 Q389 -106 389 -146 Q389 -171 378.5 -189 Q368 -207 351 -219 Q334 -231 312 -237 Q290 -243 267 -243 Q227 -243 205.5 -229 Q184 -215 184 -192 Q184 -178 193.5 -166 Q203 -154 221 -154 Q233 -154 242.5 -160.5 Q252 -167 257 -175 L214 -214 Q219 -219 225.5 -223 Q232 -227 241 -227 Q263 -227 276.5 -207.5 Q290 -188 290 -149 Q290 -114 277.5 -97 Q265 -80 245 -80 Q233 -80 227 -82 L223 -78 L260 -8 Z " />
<glyph glyph-name="scedilla" unicode="&#x15f;" horiz-adv-x="440" d="M196 -8 Q166 -8 136 -3 Q106 2 82 13 Q58 24 43 41.5 Q28 59 28 84 Q28 109 45 127.5 Q62 146 90 146 Q111 146 124 139 Q137 132 147 117 L84 49 Q102 35 127 27 Q152 19 181 19 Q214 19 237 31 Q260 43 260 70 Q260 83 255 95 Q250 107 237 119.5 Q224 132 201 146 Q178 160 143 177 Q76 208 49.5 248 Q23 288 23 322 Q23 397 79.5 437.5 Q136 478 236 478 Q312 478 359 455 Q406 432 406 391 Q406 362 387.5 345 Q369 328 343 328 Q322 328 306.5 336 Q291 344 283 352 L345 419 Q335 430 314 440 Q293 450 267 450 Q229 450 213.5 435.5 Q198 421 198 401 Q198 378 219 359 Q240 340 294 313 Q354 284 388.5 247.5 Q423 211 423 160 Q423 116 407.5 85.5 Q392 55 365 34.5 Q338 14 301.5 4 Q265 -6 223 -8 L190 -67 Q196 -65 205 -64.5 Q214 -64 223 -64 Q265 -64 295 -86 Q325 -108 325 -149 Q325 -174 314.5 -191.5 Q304 -209 287 -220.5 Q270 -232 248 -237.5 Q226 -243 203 -243 Q163 -243 141.5 -229 Q120 -215 120 -192 Q120 -178 129.5 -166 Q139 -154 157 -154 Q169 -154 178.5 -160.5 Q188 -167 193 -175 L150 -214 Q155 -219 161.5 -223 Q168 -227 177 -227 Q199 -227 212.5 -209 Q226 -191 226 -152 Q226 -116 213.5 -98 Q201 -80 181 -80 Q169 -80 163 -82 L159 -78 L196 -8 Z " />
<glyph glyph-name="Scaron" unicode="&#x160;" horiz-adv-x="572" d="M249 24 Q272 24 294.5 30.5 Q317 37 334.5 49.5 Q352 62 363 80 Q374 98 374 122 Q374 135 369.5 150 Q365 165 350.5 182.5 Q336 200 308.5 220 Q281 240 235 263 Q187 287 149.5 309.5 Q112 332 86 359 Q60 386 46.5 420 Q33 454 33 501 Q33 543 51 581.5 Q69 620 103 649 Q137 678 186 695 Q235 712 297 712 Q355 712 396 700.5 Q437 689 463.5 670 Q490 651 502.5 628 Q515 605 515 583 Q515 546 493.5 521 Q472 496 433 496 Q409 496 388 506.5 Q367 517 353 534 L446 643 Q424 660 393.5 671 Q363 682 328 682 Q277 682 243 658.5 Q209 635 209 593 Q209 555 242 523 Q275 491 353 454 Q407 428 445 401.5 Q483 375 506.5 346 Q530 317 541 284 Q552 251 552 213 Q552 160 530.5 119 Q509 78 470 50 Q431 22 377 7 Q323 -8 259 -8 Q211 -8 170.5 2.5 Q130 13 100.5 31.5 Q71 50 54.5 76 Q38 102 38 134 Q38 175 62 198.5 Q86 222 121 222 Q173 222 208 181 L118 63 Q144 45 177.5 34.5 Q211 24 249 24 Z M259 758 L139 922 L169 939 L304 862 L439 939 L468 922 L349 758 L259 758 Z " />
<glyph glyph-name="scaron" unicode="&#x161;" horiz-adv-x="440" d="M181 19 Q214 19 237 31 Q260 43 260 70 Q260 83 255 95 Q250 107 237 119.5 Q224 132 201 146 Q178 160 143 177 Q76 208 49.5 248 Q23 288 23 322 Q23 397 79.5 437.5 Q136 478 236 478 Q312 478 359 455 Q406 432 406 391 Q406 362 387.5 345 Q369 328 343 328 Q322 328 306.5 336 Q291 344 283 352 L345 419 Q335 430 314 440 Q293 450 267 450 Q229 450 213.5 435.5 Q198 421 198 401 Q198 378 219 359 Q240 340 294 313 Q354 284 388.5 247.5 Q423 211 423 160 Q423 114 405.5 82 Q388 50 358 30 Q328 10 287.5 1 Q247 -8 201 -8 Q171 -8 140 -3 Q109 2 84 13 Q59 24 43.5 41.5 Q28 59 28 84 Q28 109 45 127.5 Q62 146 90 146 Q111 146 124 139 Q137 132 147 117 L84 49 Q102 35 127 27 Q152 19 181 19 Z M182 532 L62 696 L92 713 L227 636 L362 713 L391 696 L272 532 L182 532 Z " />
<glyph glyph-name="uni0162" unicode="&#x162;" horiz-adv-x="655" d="M18 477 L18 698 L637 698 L637 477 L617 477 Q608 537 589.5 575 Q571 613 547.5 634.5 Q524 656 497 664 Q470 672 444 672 L444 26 L526 26 L526 0 L129 0 L129 26 L211 26 L211 672 Q183 672 156 664 Q129 656 106 634.5 Q83 613 65.5 575 Q48 537 39 477 L18 477 Z M272 -265 Q295 -246 307.5 -230 Q320 -214 320 -200 Q320 -193 308.5 -187.5 Q297 -182 283.5 -173.5 Q270 -165 259 -151 Q248 -137 248 -112 Q248 -78 272 -60 Q296 -42 326 -42 Q356 -42 381 -62 Q406 -82 406 -125 Q406 -178 374.5 -217 Q343 -256 293 -291 L272 -265 Z " />
<glyph glyph-name="uni0163" unicode="&#x163;" horiz-adv-x="373" d="M180 -7 Q123 1 87.5 43 Q52 85 52 170 L52 441 L-2 441 L-2 467 L31 467 Q107 467 157 512.5 Q207 558 233 633 L243 663 L264 663 L264 467 L368 467 L368 441 L264 441 L264 108 Q264 68 278.5 55 Q293 42 315 42 Q329 42 342.5 48.5 Q356 55 365 64 L381 49 Q347 18 306 5 Q265 -8 211 -8 L203 -8 L171 -67 Q184 -64 204 -64 Q246 -64 276 -86 Q306 -108 306 -149 Q306 -174 295.5 -191.5 Q285 -209 268 -220.5 Q251 -232 229 -237.5 Q207 -243 184 -243 Q145 -243 123.5 -229 Q102 -215 102 -192 Q102 -178 111.5 -166 Q121 -154 138 -154 Q150 -154 159.5 -160.5 Q169 -167 174 -175 L132 -214 Q136 -219 143 -223 Q150 -227 158 -227 Q180 -227 193.5 -209 Q207 -191 207 -152 Q207 -116 195 -98 Q183 -80 163 -80 Q152 -80 144 -82 L140 -78 L180 -7 Z " />
<glyph glyph-name="Tcaron" unicode="&#x164;" horiz-adv-x="655" d="M18 477 L18 698 L637 698 L637 477 L617 477 Q608 537 589.5 575 Q571 613 547.5 634.5 Q524 656 497 664 Q470 672 444 672 L444 26 L526 26 L526 0 L129 0 L129 26 L211 26 L211 672 Q183 672 156 664 Q129 656 106 634.5 Q83 613 65.5 575 Q48 537 39 477 L18 477 Z M281 758 L161 922 L191 939 L326 862 L461 939 L490 922 L371 758 L281 758 Z " />
<glyph glyph-name="tcaron" unicode="&#x165;" horiz-adv-x="405" d="M52 440 L-2 440 L-2 467 L31 467 Q107 467 157 512.5 Q207 558 233 633 L243 663 L264 663 L264 467 L368 467 L368 440 L264 440 L264 108 Q264 68 278.5 55 Q293 42 315 42 Q329 42 342.5 48.5 Q356 55 365 64 L381 49 Q347 18 306 5 Q265 -8 211 -8 Q176 -8 147 2 Q118 12 97 33 Q76 54 64 88 Q52 122 52 170 L52 440 Z M336 521 Q359 540 371.5 556 Q384 572 384 586 Q384 593 372.5 598.5 Q361 604 347.5 612.5 Q334 621 323 635 Q312 649 312 674 Q312 708 336 726 Q360 744 390 744 Q420 744 445 724 Q470 704 470 661 Q470 608 438.5 569 Q407 530 357 495 L336 521 Z " />
<glyph glyph-name="Tbar" unicode="&#x166;" horiz-adv-x="655" d="M444 309 L444 26 L526 26 L526 0 L129 0 L129 26 L211 26 L211 309 L83 309 L83 336 L211 336 L211 672 Q182 672 155 664 Q128 656 105.5 634.5 Q83 613 65.5 575 Q48 537 39 477 L18 477 L18 698 L637 698 L637 477 L617 477 Q608 537 589.5 575 Q571 613 547.5 634.5 Q524 656 497 664 Q470 672 444 672 L444 336 L572 336 L572 309 L444 309 Z " />
<glyph glyph-name="tbar" unicode="&#x167;" horiz-adv-x="382" d="M3 289 L56 289 L56 440 L3 440 L3 467 L36 467 Q73 467 105 480 Q137 493 162.5 515.5 Q188 538 207 568 Q226 598 238 633 L248 663 L269 663 L269 467 L373 467 L373 440 L269 440 L269 289 L373 289 L373 262 L269 262 L269 108 Q269 68 283 55 Q297 42 320 42 Q333 42 347 48.5 Q361 55 369 64 L385 49 Q351 18 310 5 Q269 -8 215 -8 Q181 -8 152 2 Q123 12 101.5 33 Q80 54 68 88 Q56 122 56 170 L56 262 L3 262 L3 289 Z " />
<glyph glyph-name="Utilde" unicode="&#x168;" horiz-adv-x="692" d="M564 929 Q563 899 554.5 871 Q546 843 530 820.5 Q514 798 490 784.5 Q466 771 434 771 Q413 771 391.5 777.5 Q370 784 348 792.5 Q326 801 303.5 807.5 Q281 814 258 814 Q252 814 243.5 812.5 Q235 811 226 806.5 Q217 802 209.5 793.5 Q202 785 198 771 L184 771 Q185 798 193.5 825.5 Q202 853 218 874.5 Q234 896 257.5 910 Q281 924 312 924 Q333 924 355.5 917.5 Q378 911 400.5 903 Q423 895 445.5 888.5 Q468 882 489 882 Q531 882 550 929 L564 929 Z M412 698 L412 672 L330 672 L330 203 Q330 158 339 126.5 Q348 95 364 76 Q380 57 403 48.5 Q426 40 454 40 Q511 40 544.5 85 Q578 130 578 218 L578 672 L496 672 L496 698 L682 698 L682 672 L611 672 L611 251 Q611 193 599.5 145 Q588 97 558.5 63 Q529 29 479.5 10.5 Q430 -8 355 -8 Q298 -8 251 8 Q204 24 170.5 56.5 Q137 89 118 138 Q99 187 99 253 L99 672 L17 672 L17 698 L412 698 Z " />
<glyph glyph-name="utilde" unicode="&#x169;" horiz-adv-x="644" d="M580 86 Q580 50 603 50 Q611 50 617.5 55 Q624 60 629 67 L642 53 Q614 21 581.5 6.5 Q549 -8 505 -8 Q458 -8 425.5 11 Q393 30 378 72 Q369 58 355 43.5 Q341 29 321.5 17.5 Q302 6 276.5 -1 Q251 -8 220 -8 Q175 -8 143.5 4 Q112 16 92.5 37 Q73 58 64.5 86 Q56 114 56 146 L56 441 L6 441 L6 467 L268 467 L268 132 Q268 86 279 69 Q290 52 312 52 Q332 52 350 71.5 Q368 91 368 138 L368 441 L318 441 L318 467 L580 467 L580 86 Z M516 703 Q515 673 506.5 645 Q498 617 482 594.5 Q466 572 442 558.5 Q418 545 386 545 Q365 545 343.5 551.5 Q322 558 300 566.5 Q278 575 255.5 581.5 Q233 588 210 588 Q204 588 195.5 586.5 Q187 585 178 580.5 Q169 576 161.5 567.5 Q154 559 150 545 L136 545 Q137 572 145.5 599.5 Q154 627 170 648.5 Q186 670 209.5 684 Q233 698 264 698 Q285 698 307.5 691.5 Q330 685 352.5 677 Q375 669 397.5 662.5 Q420 656 441 656 Q483 656 502 703 L516 703 Z " />
<glyph glyph-name="Umacron" unicode="&#x16a;" horiz-adv-x="692" d="M219 781 L219 881 L529 881 L529 781 L219 781 Z M412 698 L412 672 L330 672 L330 203 Q330 158 339 126.5 Q348 95 364 76 Q380 57 403 48.5 Q426 40 454 40 Q511 40 544.5 85 Q578 130 578 218 L578 672 L496 672 L496 698 L682 698 L682 672 L611 672 L611 251 Q611 193 599.5 145 Q588 97 558.5 63 Q529 29 479.5 10.5 Q430 -8 355 -8 Q298 -8 251 8 Q204 24 170.5 56.5 Q137 89 118 138 Q99 187 99 253 L99 672 L17 672 L17 698 L412 698 Z " />
<glyph glyph-name="umacron" unicode="&#x16b;" horiz-adv-x="644" d="M580 86 Q580 50 603 50 Q611 50 617.5 55 Q624 60 629 67 L642 53 Q614 21 581.5 6.5 Q549 -8 505 -8 Q458 -8 425.5 11 Q393 30 378 72 Q369 58 355 43.5 Q341 29 321.5 17.5 Q302 6 276.5 -1 Q251 -8 220 -8 Q175 -8 143.5 4 Q112 16 92.5 37 Q73 58 64.5 86 Q56 114 56 146 L56 441 L6 441 L6 467 L268 467 L268 132 Q268 86 279 69 Q290 52 312 52 Q332 52 350 71.5 Q368 91 368 138 L368 441 L318 441 L318 467 L580 467 L580 86 Z M170 555 L170 655 L480 655 L480 555 L170 555 Z " />
<glyph glyph-name="Ubreve" unicode="&#x16c;" horiz-adv-x="692" d="M523 924 Q523 845 487.5 797 Q452 749 373 749 Q294 749 259.5 797 Q225 845 225 924 L253 924 Q263 901 278 887 Q293 873 309.5 865.5 Q326 858 342.5 855 Q359 852 373 852 Q402 852 435.5 865.5 Q469 879 495 924 L523 924 Z M412 698 L412 672 L330 672 L330 203 Q330 158 339 126.5 Q348 95 364 76 Q380 57 403 48.5 Q426 40 454 40 Q511 40 544.5 85 Q578 130 578 218 L578 672 L496 672 L496 698 L682 698 L682 672 L611 672 L611 251 Q611 193 599.5 145 Q588 97 558.5 63 Q529 29 479.5 10.5 Q430 -8 355 -8 Q298 -8 251 8 Q204 24 170.5 56.5 Q137 89 118 138 Q99 187 99 253 L99 672 L17 672 L17 698 L412 698 Z " />
<glyph glyph-name="ubreve" unicode="&#x16d;" horiz-adv-x="644" d="M580 86 Q580 50 603 50 Q611 50 617.5 55 Q624 60 629 67 L642 53 Q614 21 581.5 6.5 Q549 -8 505 -8 Q458 -8 425.5 11 Q393 30 378 72 Q369 58 355 43.5 Q341 29 321.5 17.5 Q302 6 276.5 -1 Q251 -8 220 -8 Q175 -8 143.5 4 Q112 16 92.5 37 Q73 58 64.5 86 Q56 114 56 146 L56 441 L6 441 L6 467 L268 467 L268 132 Q268 86 279 69 Q290 52 312 52 Q332 52 350 71.5 Q368 91 368 138 L368 441 L318 441 L318 467 L580 467 L580 86 Z M479 698 Q479 619 443.5 571 Q408 523 329 523 Q250 523 215.5 571 Q181 619 181 698 L209 698 Q219 675 234 661 Q249 647 265.5 639.5 Q282 632 298.5 629 Q315 626 329 626 Q358 626 391.5 639.5 Q425 653 451 698 L479 698 Z " />
<glyph glyph-name="Uring" unicode="&#x16e;" horiz-adv-x="692" d="M502 863 Q502 838 492.5 816 Q483 794 466 777.5 Q449 761 425.5 751.5 Q402 742 374 742 Q346 742 322.5 751.5 Q299 761 282 777.5 Q265 794 255.5 816 Q246 838 246 863 Q246 888 255.5 910.5 Q265 933 281.5 949.5 Q298 966 321.5 975.5 Q345 985 374 985 Q402 985 426 975.5 Q450 966 466.5 949.5 Q483 933 492.5 910.5 Q502 888 502 863 Z M407 863 Q407 879 405 896.5 Q403 914 399.5 928.5 Q396 943 389.5 952 Q383 961 374 961 Q365 961 359 952 Q353 943 349 928.5 Q345 914 343 896.5 Q341 879 341 863 Q341 847 343 830 Q345 813 349 799.5 Q353 786 359 777 Q365 768 374 768 Q383 768 389.5 777 Q396 786 399.5 799.5 Q403 813 405 830 Q407 847 407 863 Z M412 698 L412 672 L330 672 L330 203 Q330 158 339 126.5 Q348 95 364 76 Q380 57 403 48.5 Q426 40 454 40 Q511 40 544.5 85 Q578 130 578 218 L578 672 L496 672 L496 698 L682 698 L682 672 L611 672 L611 251 Q611 193 599.5 145 Q588 97 558.5 63 Q529 29 479.5 10.5 Q430 -8 355 -8 Q298 -8 251 8 Q204 24 170.5 56.5 Q137 89 118 138 Q99 187 99 253 L99 672 L17 672 L17 698 L412 698 Z " />
<glyph glyph-name="uring" unicode="&#x16f;" horiz-adv-x="644" d="M580 86 Q580 50 603 50 Q611 50 617.5 55 Q624 60 629 67 L642 53 Q614 21 581.5 6.5 Q549 -8 505 -8 Q458 -8 425.5 11 Q393 30 378 72 Q369 58 355 43.5 Q341 29 321.5 17.5 Q302 6 276.5 -1 Q251 -8 220 -8 Q175 -8 143.5 4 Q112 16 92.5 37 Q73 58 64.5 86 Q56 114 56 146 L56 441 L6 441 L6 467 L268 467 L268 132 Q268 86 279 69 Q290 52 312 52 Q332 52 350 71.5 Q368 91 368 138 L368 441 L318 441 L318 467 L580 467 L580 86 Z M434 637 Q434 612 424.5 590 Q415 568 398 551.5 Q381 535 357.5 525.5 Q334 516 306 516 Q278 516 254.5 525.5 Q231 535 214 551.5 Q197 568 187.5 590 Q178 612 178 637 Q178 662 187.5 684.5 Q197 707 213.5 723.5 Q230 740 253.5 749.5 Q277 759 306 759 Q334 759 358 749.5 Q382 740 398.5 723.5 Q415 707 424.5 684.5 Q434 662 434 637 Z M339 637 Q339 653 337 670.5 Q335 688 331.5 702.5 Q328 717 321.5 726 Q315 735 306 735 Q297 735 291 726 Q285 717 281 702.5 Q277 688 275 670.5 Q273 653 273 637 Q273 621 275 604 Q277 587 281 573.5 Q285 560 291 551 Q297 542 306 542 Q315 542 321.5 551 Q328 560 331.5 573.5 Q335 587 337 604 Q339 621 339 637 Z " />
<glyph glyph-name="Uhungarumlaut" unicode="&#x170;" horiz-adv-x="692" d="M412 698 L412 672 L330 672 L330 203 Q330 158 339 126.5 Q348 95 364 76 Q380 57 403 48.5 Q426 40 454 40 Q511 40 544.5 85 Q578 130 578 218 L578 672 L496 672 L496 698 L682 698 L682 672 L611 672 L611 251 Q611 193 599.5 145 Q588 97 558.5 63 Q529 29 479.5 10.5 Q430 -8 355 -8 Q298 -8 251 8 Q204 24 170.5 56.5 Q137 89 118 138 Q99 187 99 253 L99 672 L17 672 L17 698 L412 698 Z M312 886 Q334 910 352 924 Q370 938 398 938 Q424 938 438 923.5 Q452 909 452 887 Q452 868 439 852.5 Q426 837 394 821 L259 754 L193 754 L312 886 Z M498 886 Q521 910 538.5 924 Q556 938 584 938 Q610 938 624 923.5 Q638 909 638 887 Q638 868 625 852.5 Q612 837 580 821 L445 754 L379 754 L498 886 Z " />
<glyph glyph-name="uhungarumlaut" unicode="&#x171;" horiz-adv-x="644" d="M580 86 Q580 50 603 50 Q611 50 617.5 55 Q624 60 629 67 L642 53 Q614 21 581.5 6.5 Q549 -8 505 -8 Q458 -8 425.5 11 Q393 30 378 72 Q369 58 355 43.5 Q341 29 321.5 17.5 Q302 6 276.5 -1 Q251 -8 220 -8 Q175 -8 143.5 4 Q112 16 92.5 37 Q73 58 64.5 86 Q56 114 56 146 L56 441 L6 441 L6 467 L268 467 L268 132 Q268 86 279 69 Q290 52 312 52 Q332 52 350 71.5 Q368 91 368 138 L368 441 L318 441 L318 467 L580 467 L580 86 Z M269 660 Q291 684 309 698 Q327 712 355 712 Q381 712 395 697.5 Q409 683 409 661 Q409 642 396 626.5 Q383 611 351 595 L216 528 L150 528 L269 660 Z M455 660 Q478 684 495.5 698 Q513 712 541 712 Q567 712 581 697.5 Q595 683 595 661 Q595 642 582 626.5 Q569 611 537 595 L402 528 L336 528 L455 660 Z " />
<glyph glyph-name="Uogonek" unicode="&#x172;" horiz-adv-x="692" d="M521 30 Q483 1 467.5 -34 Q452 -69 452 -104 Q452 -146 471.5 -170 Q491 -194 522 -194 Q538 -194 547.5 -188.5 Q557 -183 565 -177 L577 -189 Q549 -215 514.5 -229 Q480 -243 444 -243 Q412 -243 389.5 -234.5 Q367 -226 352.5 -211.5 Q338 -197 331.5 -179 Q325 -161 325 -141 Q325 -117 336 -95.5 Q347 -74 365 -55 Q383 -36 406.5 -21 Q430 -6 455 3 Q426 -5 397.5 -6.5 Q369 -8 355 -8 Q298 -8 251 8 Q204 24 170.5 56.5 Q137 89 118 138 Q99 187 99 253 L99 672 L17 672 L17 698 L412 698 L412 672 L330 672 L330 203 Q330 158 339 126.5 Q348 95 364 75.5 Q380 56 403 47.5 Q426 39 454 39 Q511 39 544.5 84.5 Q578 130 578 218 L578 672 L496 672 L496 698 L682 698 L682 672 L611 672 L611 251 Q611 176 592 122 Q573 68 521 30 Z " />
<glyph glyph-name="uogonek" unicode="&#x173;" horiz-adv-x="644" d="M499 -8 Q457 -8 425 11.5 Q393 31 378 73 Q369 59 355 44.5 Q341 30 321.5 18.5 Q302 7 276.5 -0.5 Q251 -8 220 -8 Q175 -8 143.5 4 Q112 16 92.5 37 Q73 58 64.5 86 Q56 114 56 146 L56 441 L6 441 L6 467 L268 467 L268 132 Q268 86 279 69 Q290 52 312 52 Q332 52 350 71.5 Q368 91 368 138 L368 441 L318 441 L318 467 L580 467 L580 86 Q580 50 603 50 Q611 50 617.5 55 Q624 60 629 67 L642 53 Q633 43 625.5 36.5 Q618 30 610 25 Q602 20 593 15 Q584 10 573 4 Q541 -16 529 -46.5 Q517 -77 517 -104 Q517 -146 536.5 -170 Q556 -194 587 -194 Q602 -194 612 -188.5 Q622 -183 630 -177 L642 -189 Q614 -215 579 -229 Q544 -243 509 -243 Q477 -243 454.5 -234.5 Q432 -226 417.5 -211.5 Q403 -197 396.5 -179 Q390 -161 390 -141 Q390 -103 417 -68 Q444 -33 499 -8 Z " />
<glyph glyph-name="Wcircumflex" unicode="&#x174;" horiz-adv-x="1012" d="M401 698 L739 698 L739 672 L681 672 L831 241 Q858 305 882 366.5 Q906 428 924 480 Q942 532 952.5 571 Q963 610 963 628 Q963 656 951.5 664 Q940 672 923 672 L794 672 Q791 681 791 689 Q791 704 795.5 721.5 Q800 739 811.5 754 Q823 769 843 779 Q863 789 895 789 Q922 789 941.5 779 Q961 769 974.5 752 Q988 735 994.5 712.5 Q1001 690 1001 665 Q1001 634 989 587 Q977 540 957.5 483 Q938 426 912 362 Q886 298 858 234.5 Q830 171 802 110.5 Q774 50 750 0 L684 0 L542 396 L365 0 L287 0 L46 672 L-5 672 L-5 698 L338 698 L338 672 L284 672 L430 224 L525 440 L443 672 L401 672 L401 698 Z M628 920 L755 749 L734 737 L585 816 L434 737 L414 749 L541 920 L628 920 Z " />
<glyph glyph-name="wcircumflex" unicode="&#x175;" horiz-adv-x="830" d="M780 403 Q780 424 770 433.5 Q760 443 734 443 L656 443 Q654 448 653 453.5 Q652 459 652 464 Q652 479 657.5 493.5 Q663 508 673.5 519.5 Q684 531 699.5 538 Q715 545 735 545 Q785 545 806 516.5 Q827 488 827 448 Q827 425 818.5 391 Q810 357 795.5 317 Q781 277 762 234 Q743 191 723 149 Q703 107 683.5 68.5 Q664 30 648 0 L517 0 L414 258 L301 0 L164 0 L-7 441 L-61 441 L-61 467 L263 467 L263 441 L220 441 L331 133 L399 294 L344 441 L308 441 L308 467 L614 467 L614 441 L571 441 L683 131 Q741 246 760.5 313.5 Q780 381 780 403 Z M490 694 L617 523 L596 511 L447 590 L296 511 L276 523 L403 694 L490 694 Z " />
<glyph glyph-name="Ycircumflex" unicode="&#x176;" horiz-adv-x="693" d="M552 26 L552 0 L157 0 L157 26 L238 26 L238 295 L67 672 L-9 672 L-9 698 L415 698 L415 672 L327 672 L459 360 L590 672 L508 672 L508 698 L702 698 L702 672 L626 672 L470 307 L470 26 L552 26 Z M458 920 L585 749 L564 737 L415 816 L264 737 L244 749 L371 920 L458 920 Z " />
<glyph glyph-name="ycircumflex" unicode="&#x177;" horiz-adv-x="455" d="M-14 441 L-61 441 L-61 467 L266 467 L266 441 L214 441 L309 215 L399 441 L353 441 L353 467 L483 467 L483 441 L430 441 L253 0 Q230 -57 212 -98 Q194 -139 176 -165 Q158 -191 137 -203.5 Q116 -216 88 -216 Q52 -216 29.5 -196.5 Q7 -177 7 -143 Q7 -130 10 -116 L114 -116 Q136 -116 149.5 -114 Q163 -112 173 -104.5 Q183 -97 191 -81 Q199 -65 210 -37 L-14 441 Z M297 694 L424 523 L403 511 L254 590 L103 511 L83 523 L210 694 L297 694 Z " />
<glyph glyph-name="Ydieresis" unicode="&#x178;" horiz-adv-x="693" d="M552 26 L552 0 L157 0 L157 26 L238 26 L238 295 L67 672 L-9 672 L-9 698 L415 698 L415 672 L327 672 L459 360 L590 672 L508 672 L508 698 L702 698 L702 672 L626 672 L470 307 L470 26 L552 26 Z M604 829 Q604 811 597.5 795.5 Q591 780 579.5 768.5 Q568 757 552 750 Q536 743 518 743 Q500 743 484.5 750 Q469 757 457.5 768.5 Q446 780 439 795.5 Q432 811 432 829 Q432 847 439 862.5 Q446 878 457.5 889.5 Q469 901 484.5 907.5 Q500 914 518 914 Q555 914 579.5 889 Q604 864 604 829 Z M386 829 Q386 811 379 795.5 Q372 780 360 768.5 Q348 757 332.5 750 Q317 743 300 743 Q262 743 238 768.5 Q214 794 214 829 Q214 864 238 889 Q262 914 300 914 Q317 914 332.5 907.5 Q348 901 360 889.5 Q372 878 379 862.5 Q386 847 386 829 Z " />
<glyph glyph-name="Zacute" unicode="&#x179;" horiz-adv-x="639" d="M620 698 L620 687 L260 26 L369 26 Q463 26 512.5 78.5 Q562 131 576 241 L602 241 L587 0 L19 0 L19 26 L378 672 L197 672 Q171 672 149 667 Q127 662 116 654 L212 529 Q200 514 177 500.5 Q154 487 119 487 Q86 487 60.5 510.5 Q35 534 35 573 Q35 603 47.5 626 Q60 649 81.5 665 Q103 681 132.5 689.5 Q162 698 196 698 L620 698 Z M375 875 Q395 900 417.5 913.5 Q440 927 473 927 Q499 927 515 912.5 Q531 898 531 876 Q531 855 518.5 837 Q506 819 474 805 L334 743 L265 743 L375 875 Z " />
<glyph glyph-name="zacute" unicode="&#x17a;" horiz-adv-x="496" d="M182 441 Q151 441 129.5 438.5 Q108 436 86 431 L139 326 Q130 316 114 310 Q98 304 80 304 Q49 304 28.5 321.5 Q8 339 8 369 Q8 422 55.5 444.5 Q103 467 179 467 L489 467 L489 454 L233 24 L337 24 Q361 24 379.5 36 Q398 48 412 69 Q426 90 436.5 118.5 Q447 147 456 180 L471 180 L471 0 L14 0 L14 21 L269 441 L182 441 Z M291 660 Q311 685 333.5 698.5 Q356 712 389 712 Q415 712 431 697.5 Q447 683 447 661 Q447 640 434.5 622 Q422 604 390 590 L250 528 L181 528 L291 660 Z " />
<glyph glyph-name="Zdotaccent" unicode="&#x17b;" horiz-adv-x="639" d="M620 698 L620 687 L260 26 L369 26 Q463 26 512.5 78.5 Q562 131 576 241 L602 241 L587 0 L19 0 L19 26 L378 672 L197 672 Q171 672 149 667 Q127 662 116 654 L212 529 Q200 514 177 500.5 Q154 487 119 487 Q86 487 60.5 510.5 Q35 534 35 573 Q35 603 47.5 626 Q60 649 81.5 665 Q103 681 132.5 689.5 Q162 698 196 698 L620 698 Z M456 841 Q456 803 431.5 778 Q407 753 371 753 Q336 753 311.5 778 Q287 803 287 841 Q287 876 311.5 900 Q336 924 371 924 Q407 924 431.5 900 Q456 876 456 841 Z " />
<glyph glyph-name="zdotaccent" unicode="&#x17c;" horiz-adv-x="496" d="M182 441 Q151 441 129.5 438.5 Q108 436 86 431 L139 326 Q130 316 114 310 Q98 304 80 304 Q49 304 28.5 321.5 Q8 339 8 369 Q8 422 55.5 444.5 Q103 467 179 467 L489 467 L489 454 L233 24 L337 24 Q361 24 379.5 36 Q398 48 412 69 Q426 90 436.5 118.5 Q447 147 456 180 L471 180 L471 0 L14 0 L14 21 L269 441 L182 441 Z M371 615 Q371 577 346.5 552 Q322 527 286 527 Q251 527 226.5 552 Q202 577 202 615 Q202 650 226.5 674 Q251 698 286 698 Q322 698 346.5 674 Q371 650 371 615 Z " />
<glyph glyph-name="Zcaron" unicode="&#x17d;" horiz-adv-x="639" d="M620 698 L620 687 L260 26 L369 26 Q463 26 512.5 78.5 Q562 131 576 241 L602 241 L587 0 L19 0 L19 26 L378 672 L197 672 Q171 672 149 667 Q127 662 116 654 L212 529 Q200 514 177 500.5 Q154 487 119 487 Q86 487 60.5 510.5 Q35 534 35 573 Q35 603 47.5 626 Q60 649 81.5 665 Q103 681 132.5 689.5 Q162 698 196 698 L620 698 Z M325 758 L205 922 L235 939 L370 862 L505 939 L534 922 L415 758 L325 758 Z " />
</font>
</svg>
