<?xml version="1.0" encoding="UTF-8"?>
<svg xmlns="http://www.w3.org/2000/svg" xmlns:xlink="http://www.w3.org/1999/xlink" version="1.2" >
<font id="Exquise FY Bold Italic">
<font-face  font-family="Exquise FY" units-per-em="1000" ascent="780" descent="-220" font-style="italic" font-weight="700" font-stretch="normal" slope="-12" cap-height="697" x-height="461" underline-position="-80" underline-thickness="40" />
<missing-glyph  horiz-adv-x="528" d="M264 135 Q219 157 179.5 186.5 Q140 216 110 250 Q80 284 62.5 321 Q45 358 45 394 Q45 445 73.5 471.5 Q102 498 149 498 Q181 498 211 481 Q241 464 264 432 Q287 464 317 481 Q347 498 379 498 Q426 498 454.5 471.5 Q483 445 483 394 Q483 358 465.5 321 Q448 284 418 250 Q388 216 348.5 186.5 Q309 157 264 135 Z " />
<glyph glyph-name=".null" d="" />
<glyph glyph-name="&amp;#x0;" d="" />
<glyph glyph-name="&amp;#xd;" unicode="&#xd;" d="" />
<glyph glyph-name="space" unicode="&#x20;" horiz-adv-x="180" d="" />
<glyph glyph-name="exclam" unicode="&#x21;" horiz-adv-x="319" d="M123 192 Q132 239 137 286.5 Q142 334 144 379 Q147 444 147.5 501 Q148 558 153 598 Q156 648 178.5 679 Q201 710 243 710 Q271 710 285 694.5 Q299 679 299 653 Q299 621 281 570.5 Q263 520 239 458.5 Q215 397 190.5 328.5 Q166 260 154 192 L123 192 Z M98 -9 Q73 -9 59 5.5 Q45 20 45 41 Q45 56 51 70.5 Q57 85 67.5 95.5 Q78 106 92.5 112.5 Q107 119 123 119 Q149 119 163 104.5 Q177 90 177 68 Q177 38 154 14.5 Q131 -9 98 -9 Z " />
<glyph glyph-name="quotedbl" unicode="&#x22;" horiz-adv-x="366" d="M287 462 Q287 500 287 539 Q287 578 288 613 Q289 640 292 663 Q295 686 302.5 702.5 Q310 719 323 728.5 Q336 738 356 738 Q374 738 385 729 Q396 720 396 701 Q396 680 387.5 651.5 Q379 623 368 592 L321 462 L287 462 Z M125 462 Q125 500 125 539 Q125 578 126 613 Q127 640 130 663 Q133 686 140.5 702.5 Q148 719 161 728.5 Q174 738 194 738 Q212 738 223 729 Q234 720 234 701 Q234 680 225.5 651.5 Q217 623 206 592 L159 462 L125 462 Z " />
<glyph glyph-name="numbersign" unicode="&#x23;" horiz-adv-x="616" d="M78 463 L204 463 L258 680 L312 680 L258 463 L422 463 L476 680 L530 680 L477 463 L601 463 L593 425 L467 425 L425 261 L550 261 L542 222 L415 222 L360 0 L306 0 L361 222 L197 222 L141 0 L88 0 L142 222 L20 222 L27 261 L153 261 L195 425 L71 425 L78 463 Z M207 261 L371 261 L413 425 L248 425 L207 261 Z " />
<glyph glyph-name="dollar" unicode="&#x24;" horiz-adv-x="548" d="M169 -92 L188 -8 Q140 -6 98.5 4.5 Q57 15 25 30 L61 221 L83 221 Q81 210 81 200.5 Q81 191 81 182 Q81 107 112 67.5 Q143 28 193 18 L250 288 Q204 312 174 335 Q144 358 126.5 381 Q109 404 102 427.5 Q95 451 95 475 Q95 518 112.5 552 Q130 586 161.5 609.5 Q193 633 236 645.5 Q279 658 329 658 L342 719 L370 719 L357 658 Q399 656 440.5 648 Q482 640 512 631 L478 465 L455 465 Q455 494 450 521 Q445 548 433 570 Q421 592 401 607.5 Q381 623 351 629 L302 402 Q347 381 377 357 Q407 333 425 307 Q443 281 450.5 252.5 Q458 224 458 194 Q458 96 392.5 43.5 Q327 -9 215 -9 L197 -92 L169 -92 Z M349 160 Q349 195 333 223 Q317 251 275 277 L220 16 Q250 16 274 27 Q298 38 314.5 57.5 Q331 77 340 103.5 Q349 130 349 160 Z M204 522 Q204 484 221 461 Q238 438 277 414 L324 633 Q294 633 271.5 623 Q249 613 234 597 Q219 581 211.5 561 Q204 541 204 522 Z " />
<glyph glyph-name="percent" unicode="&#x25;" horiz-adv-x="916" d="M138 -9 L726 691 L772 691 L184 -9 L138 -9 Z M309 710 Q334 710 355 700 Q376 690 391 673 Q406 656 414 631.5 Q422 607 422 579 Q422 523 406 473 Q390 423 362.5 385 Q335 347 297 325 Q259 303 216 303 Q165 303 131.5 340 Q98 377 98 446 Q98 500 115 548 Q132 596 160.5 632 Q189 668 227.5 689 Q266 710 309 710 Z M302 691 Q283 691 263.5 662.5 Q244 634 227.5 590.5 Q211 547 200.5 495.5 Q190 444 190 398 Q190 362 197.5 341.5 Q205 321 221 321 Q239 321 258.5 348 Q278 375 294 418 Q310 461 320.5 514 Q331 567 331 620 Q331 658 323 674.5 Q315 691 302 691 Z M711 398 Q736 398 756.5 388 Q777 378 792 361 Q807 344 815.5 319.5 Q824 295 824 267 Q824 211 808 161 Q792 111 764 73 Q736 35 698 13 Q660 -9 617 -9 Q567 -9 533.5 28.5 Q500 66 500 134 Q500 188 517 236 Q534 284 562.5 320 Q591 356 629.5 377 Q668 398 711 398 Z M704 379 Q685 379 665.5 350.5 Q646 322 629.5 278.5 Q613 235 602.5 183.5 Q592 132 592 86 Q592 50 599.5 29.5 Q607 9 623 9 Q641 9 660 36 Q679 63 695.5 106 Q712 149 722.5 202.5 Q733 256 733 309 Q733 347 725 363 Q717 379 704 379 Z " />
<glyph glyph-name="ampersand" unicode="&#x26;" horiz-adv-x="768" d="M304 552 Q304 525 312 500 Q320 475 335.5 456 Q351 437 374 426 Q397 415 427 415 L477 415 L473 394 L419 394 Q357 394 312 375.5 Q267 357 238 327 Q209 297 195.5 260 Q182 223 182 186 Q182 150 192.5 120 Q203 90 223 67.5 Q243 45 273 32.5 Q303 20 341 20 Q392 20 431.5 41 Q471 62 499.5 97 Q528 132 545 178 Q562 224 567 275 L456 275 Q407 275 382.5 260.5 Q358 246 349 224 L451 143 Q442 129 423.5 119.5 Q405 110 382 110 Q351 110 331.5 128.5 Q312 147 312 182 Q312 205 320.5 225.5 Q329 246 347 261 Q365 276 393.5 285 Q422 294 461 294 L609 294 Q657 294 680 308.5 Q703 323 714 345 L611 428 Q621 441 639 451 Q657 461 680 461 Q711 461 731.5 442.5 Q752 424 752 389 Q752 368 744 347.5 Q736 327 718.5 311 Q701 295 672.5 285 Q644 275 604 275 L588 275 Q583 219 563.5 168 Q544 117 509.5 77.5 Q475 38 424 14.5 Q373 -9 305 -9 Q240 -9 192.5 6.5 Q145 22 114 49 Q83 76 68 112 Q53 148 53 188 Q53 225 67.5 262.5 Q82 300 113 331 Q144 362 193 383 Q242 404 312 409 Q276 416 251 430 Q226 444 209.5 463 Q193 482 185.5 503.5 Q178 525 178 547 Q178 586 196.5 616.5 Q215 647 245.5 667.5 Q276 688 316 699 Q356 710 400 710 Q428 710 450.5 706 Q473 702 490.5 697.5 Q508 693 521.5 689 Q535 685 545 685 Q553 685 559.5 689.5 Q566 694 569 708 L588 708 L545 509 L527 509 L535 548 Q537 556 537.5 563.5 Q538 571 538 582 Q538 607 528.5 626.5 Q519 646 503.5 659.5 Q488 673 468 680 Q448 687 427 687 Q404 687 382 678.5 Q360 670 343 653.5 Q326 637 315 611.5 Q304 586 304 552 Z " />
<glyph glyph-name="quotesingle" unicode="&#x27;" horiz-adv-x="204" d="M125 462 Q125 500 125 539 Q125 578 126 613 Q127 640 130 663 Q133 686 140.5 702.5 Q148 719 161 728.5 Q174 738 194 738 Q212 738 223 729 Q234 720 234 701 Q234 680 225.5 651.5 Q217 623 206 592 L159 462 L125 462 L125 462 Z " />
<glyph glyph-name="parenleft" unicode="&#x28;" horiz-adv-x="390" d="M456 733 Q389 690 337.5 620 Q286 550 251 468 Q216 386 198 300 Q180 214 180 141 Q180 45 203.5 -30 Q227 -105 275 -145 L265 -159 Q172 -107 119 -17 Q66 73 66 189 Q66 279 95.5 362 Q125 445 176.5 516.5 Q228 588 298.5 646.5 Q369 705 452 747 L456 733 Z " />
<glyph glyph-name="parenright" unicode="&#x29;" horiz-adv-x="406" d="M-72 -145 Q-5 -102 46.5 -32 Q98 38 133 120 Q168 202 186.5 287.5 Q205 373 205 447 Q205 543 181.5 618 Q158 693 110 733 L120 747 Q212 696 265 606 Q318 516 318 400 Q318 309 289 226 Q260 143 208 71.5 Q156 0 85.5 -58.5 Q15 -117 -67 -159 L-72 -145 Z " />
<glyph glyph-name="asterisk" unicode="&#x2a;" horiz-adv-x="466" d="M299 434 Q305 404 308.5 386 Q312 368 312 349 Q312 321 298.5 307.5 Q285 294 262 294 Q221 294 221 332 Q221 352 230.5 379 Q240 406 251 434 L271 489 L229 447 Q217 435 203.5 422 Q190 409 176.5 398.5 Q163 388 149.5 381 Q136 374 124 374 Q108 374 96.5 387 Q85 400 85 419 Q85 435 97 446.5 Q109 458 127.5 466 Q146 474 167.5 479.5 Q189 485 208 489 L266 502 L211 515 Q194 519 174.5 524 Q155 529 138 536 Q121 543 109.5 553.5 Q98 564 98 578 Q98 587 102.5 596 Q107 605 113.5 612.5 Q120 620 129 625 Q138 630 147 630 Q158 630 170 623 Q182 616 194 605.5 Q206 595 217.5 582.5 Q229 570 239 558 L274 516 L262 570 Q257 592 253 614 Q249 636 249 656 Q249 684 262.5 697 Q276 710 299 710 Q318 710 329 701 Q340 692 340 672 Q340 649 331 623 Q322 597 311 570 L289 515 L332 557 Q360 584 387 607 Q414 630 437 630 Q452 630 464 617 Q476 604 476 585 Q476 568 464.5 557 Q453 546 435 538 Q417 530 395 524.5 Q373 519 352 515 L295 503 L353 489 Q375 484 395 478.5 Q415 473 430 466 Q445 459 454 449.5 Q463 440 463 427 Q463 409 447.5 391.5 Q432 374 413 374 Q393 374 373 393 Q353 412 331 438 L287 490 L299 434 Z " />
<glyph glyph-name="plus" unicode="&#x2b;" horiz-adv-x="696" d="M361 276 L311 40 L252 40 L302 276 L56 276 L67 324 L313 324 L363 560 L422 560 L372 324 L618 324 L607 276 L361 276 Z " />
<glyph glyph-name="comma" unicode="&#x2c;" horiz-adv-x="276" d="M-10 -119 Q35 -90 55.5 -67.5 Q76 -45 76 -29 Q76 -22 68 -16 Q60 -10 50.5 -2.5 Q41 5 33 15.5 Q25 26 25 43 Q25 59 31.5 73.5 Q38 88 49 99 Q60 110 75.5 116.5 Q91 123 108 123 Q135 123 150.5 107.5 Q166 92 166 64 Q166 36 152 7 Q138 -22 115 -48.5 Q92 -75 62.5 -98 Q33 -121 3 -138 L-10 -119 L-10 -119 Z " />
<glyph glyph-name="hyphen" unicode="&#x2d;" horiz-adv-x="370" d="M53 282 L315 282 L297 223 L35 223 L53 282 Z " />
<glyph glyph-name="period" unicode="&#x2e;" horiz-adv-x="278" d="M76 -9 Q50 -9 35 6.5 Q20 22 20 44 Q20 76 43 100 Q66 124 101 124 Q128 124 143 109.5 Q158 95 158 72 Q158 40 134.5 15.5 Q111 -9 76 -9 Z " />
<glyph glyph-name="slash" unicode="&#x2f;" horiz-adv-x="376" d="M356 730 L420 730 L51 -39 L-12 -39 L356 730 Z " />
<glyph glyph-name="zero" unicode="0" horiz-adv-x="555" d="M318 490 Q405 490 454 439 Q503 388 503 300 Q503 234 480 177.5 Q457 121 417.5 79.5 Q378 38 325 14.5 Q272 -9 213 -9 Q166 -9 131.5 5 Q97 19 74 44 Q51 69 39.5 103.5 Q28 138 28 178 Q28 249 52.5 306.5 Q77 364 117.5 405 Q158 446 210 468 Q262 490 318 490 Z M312 468 Q281 468 253.5 438 Q226 408 205 360.5 Q184 313 171.5 254 Q159 195 159 137 Q159 80 172.5 46.5 Q186 13 221 13 Q252 13 279.5 40 Q307 67 327.5 112.5 Q348 158 360 218.5 Q372 279 372 346 Q372 468 312 468 Z " />
<glyph glyph-name="one" unicode="1" horiz-adv-x="410" d="M30 319 Q102 353 169.5 397 Q237 441 300 492 L343 492 L243 21 L336 21 L331 0 L-18 0 L-13 21 L102 21 L176 368 Q143 349 110 332 Q77 315 39 298 L30 319 Z " />
<glyph glyph-name="two" unicode="2" horiz-adv-x="487" d="M369 16 Q353 2 333.5 -3.5 Q314 -9 289 -9 Q252 -9 223.5 -0.5 Q195 8 170 17.5 Q145 27 121 35.5 Q97 44 70 44 Q41 44 18 27.5 Q-5 11 -25 -14 L-36 -4 Q-15 37 21.5 73.5 Q58 110 96 138 Q132 164 167.5 191 Q203 218 231.5 249 Q260 280 277.5 315 Q295 350 295 392 Q295 424 276.5 443.5 Q258 463 225 463 Q195 463 166.5 447.5 Q138 432 119 410 L183 305 Q174 291 154 279 Q134 267 110 267 Q83 267 66.5 284 Q50 301 50 333 Q50 364 67 392.5 Q84 421 114.5 443 Q145 465 186.5 478.5 Q228 492 277 492 Q353 492 392.5 461.5 Q432 431 432 386 Q432 359 423 337.5 Q414 316 395 297 Q376 278 348 260 Q320 242 283 222 Q256 208 233 195 Q210 182 189 169 Q168 156 147.5 142 Q127 128 105 112 Q122 119 137 121 Q152 123 165 123 Q197 123 229.5 114.5 Q262 106 298 106 Q316 106 330.5 109.5 Q345 113 357.5 123.5 Q370 134 380.5 151.5 Q391 169 402 198 L419 198 L369 16 Z " />
<glyph glyph-name="three" unicode="3" horiz-adv-x="471" d="M-34 -142 Q-17 -150 6.5 -157 Q30 -164 62 -164 Q104 -164 137.5 -149 Q171 -134 195 -108.5 Q219 -83 232 -50 Q245 -17 245 19 Q245 83 214 109.5 Q183 136 132 136 Q112 136 95 132 Q78 128 57 120 L52 142 L94 154 Q147 169 185 191.5 Q223 214 247.5 241 Q272 268 283.5 299 Q295 330 295 363 Q295 390 287.5 408.5 Q280 427 268 438.5 Q256 450 241 455.5 Q226 461 210 461 Q180 461 149.5 447 Q119 433 101 408 L164 301 Q152 283 135 275 Q118 267 100 267 Q75 267 57.5 284 Q40 301 40 334 Q40 361 55.5 389.5 Q71 418 100.5 440.5 Q130 463 171.5 477.5 Q213 492 265 492 Q337 492 379 457.5 Q421 423 421 368 Q421 331 404 300.5 Q387 270 358 245.5 Q329 221 289 203.5 Q249 186 204 174 Q241 173 273 164 Q305 155 329 137 Q353 119 366.5 93 Q380 67 380 33 Q380 -18 358 -59 Q336 -100 298 -129.5 Q260 -159 208 -175 Q156 -191 96 -191 Q45 -191 10 -183 Q-25 -175 -45 -164 L-34 -142 Z " />
<glyph glyph-name="four" unicode="4" horiz-adv-x="458" d="M317 483 L397 483 L300 26 L377 26 L372 0 L294 0 L260 -157 L341 -157 L337 -178 L50 -178 L54 -157 L135 -157 L168 0 L-55 0 L-51 20 L317 483 Z M174 26 L247 357 L-17 26 L174 26 Z " />
<glyph glyph-name="five" unicode="5" horiz-adv-x="477" d="M402 84 Q402 17 374 -34.5 Q346 -86 300 -121.5 Q254 -157 194.5 -175 Q135 -193 72 -193 Q35 -193 3 -187 Q-29 -181 -55 -168 L-46 -148 Q-6 -166 38 -166 Q92 -166 134.5 -145.5 Q177 -125 207 -89 Q237 -53 252.5 -4 Q268 45 268 101 Q268 153 247.5 178.5 Q227 204 190 204 Q153 204 117.5 177.5 Q82 151 56 112 L25 112 L112 476 L388 476 Q416 476 432 490 Q448 504 456 528 L469 528 L437 363 L109 363 L56 145 Q93 190 140 214 Q187 238 247 238 Q316 238 359 198 Q402 158 402 84 Z " />
<glyph glyph-name="six" unicode="6" horiz-adv-x="540" d="M493 650 Q471 660 438 660 Q353 660 289.5 592 Q226 524 198 399 Q226 441 264 464 Q302 487 349 487 Q412 487 448 444 Q484 401 484 322 Q484 257 462 197 Q440 137 403 91.5 Q366 46 316.5 18.5 Q267 -9 212 -9 Q170 -9 138.5 7.5 Q107 24 86 54 Q65 84 54.5 126.5 Q44 169 44 221 Q44 308 75.5 392 Q107 476 160 541 Q213 606 282 646 Q351 686 427 686 Q452 686 471.5 682 Q491 678 502 673 L493 650 Z M218 13 Q245 13 269 44 Q293 75 311 123 Q329 171 339.5 229 Q350 287 350 341 Q350 392 338.5 420.5 Q327 449 299 449 Q276 449 251.5 422.5 Q227 396 206.5 351.5 Q186 307 172.5 250 Q159 193 159 132 Q159 76 173 44.5 Q187 13 218 13 Z " />
<glyph glyph-name="seven" unicode="7" horiz-adv-x="470" d="M72 462 Q92 475 117 483.5 Q142 492 175 492 Q211 492 240.5 482.5 Q270 473 296 461.5 Q322 450 347 440.5 Q372 431 399 431 Q427 431 445.5 449.5 Q464 468 471 496 L496 496 Q481 430 448.5 377.5 Q416 325 374.5 281.5 Q333 238 287 201 Q241 164 200 128.5 Q159 93 127.5 57.5 Q96 22 83 -18 L214 -132 Q203 -155 177 -171 Q151 -187 124 -187 Q89 -187 62.5 -162 Q36 -137 36 -86 Q36 -35 57.5 7.5 Q79 50 112.5 87 Q146 124 188.5 158 Q231 192 273 226.5 Q315 261 352.5 297.5 Q390 334 414 378 Q391 355 366.5 345 Q342 335 312 335 Q289 335 270 338.5 Q251 342 232.5 346.5 Q214 351 194.5 354.5 Q175 358 150 358 Q136 358 121.5 354.5 Q107 351 93.5 343 Q80 335 69.5 321.5 Q59 308 54 289 L46 257 L27 257 L72 462 Z " />
<glyph glyph-name="eight" unicode="8" horiz-adv-x="556" d="M489 208 Q489 154 464.5 113.5 Q440 73 401 45.5 Q362 18 312.5 4.5 Q263 -9 213 -9 Q125 -9 73 25 Q21 59 21 128 Q21 166 36 198 Q51 230 77 256 Q103 282 137.5 303 Q172 324 211 341 Q165 377 141.5 411.5 Q118 446 118 495 Q118 529 134 563 Q150 597 181.5 624.5 Q213 652 259.5 669.5 Q306 687 366 687 Q405 687 435.5 678 Q466 669 486 653.5 Q506 638 516.5 617 Q527 596 527 573 Q527 542 514 514 Q501 486 479 462.5 Q457 439 428 421.5 Q399 404 368 393 Q425 348 457 303.5 Q489 259 489 208 Z M345 409 Q384 444 406.5 487.5 Q429 531 429 581 Q429 619 409 642 Q389 665 357 665 Q337 665 318 657 Q299 649 284.5 634 Q270 619 261 597 Q252 575 252 548 Q252 509 276 476.5 Q300 444 345 409 Z M218 14 Q245 14 269 24.5 Q293 35 310.5 53.5 Q328 72 338 96.5 Q348 121 348 150 Q348 177 340 199.5 Q332 222 317 242 Q302 262 281.5 281 Q261 300 236 320 Q188 286 156 235.5 Q124 185 124 123 Q124 69 150 41.5 Q176 14 218 14 Z " />
<glyph glyph-name="nine" unicode="9" horiz-adv-x="533" d="M13 -153 Q23 -158 40.5 -160.5 Q58 -163 70 -163 Q112 -163 151 -145.5 Q190 -128 223 -96.5 Q256 -65 282 -21 Q308 23 324 76 Q299 42 263.5 16.5 Q228 -9 175 -9 Q109 -9 72 37 Q35 83 35 164 Q35 234 59 294 Q83 354 121.5 397.5 Q160 441 209 465.5 Q258 490 309 490 Q351 490 382.5 473.5 Q414 457 435 428.5 Q456 400 467 360.5 Q478 321 478 276 Q478 179 447.5 94 Q417 9 363.5 -54.5 Q310 -118 237.5 -154.5 Q165 -191 81 -191 Q57 -191 38.5 -187 Q20 -183 4 -176 L13 -153 Z M360 358 Q360 408 347 438 Q334 468 307 468 Q279 468 254 440.5 Q229 413 210.5 368.5 Q192 324 181.5 267 Q171 210 171 151 Q171 27 226 27 Q253 27 277.5 57.5 Q302 88 320.5 135.5 Q339 183 349.5 242 Q360 301 360 358 Z " />
<glyph glyph-name="colon" unicode="&#x3a;" horiz-adv-x="318" d="M162 329 Q136 329 121 344.5 Q106 360 106 382 Q106 414 129 438 Q152 462 187 462 Q214 462 229 447.5 Q244 433 244 410 Q244 378 220.5 353.5 Q197 329 162 329 Z M101 -9 Q75 -9 60 6.5 Q45 22 45 44 Q45 76 68 100 Q91 124 126 124 Q153 124 168 109.5 Q183 95 183 72 Q183 40 159.5 15.5 Q136 -9 101 -9 Z " />
<glyph glyph-name="semicolon" unicode="&#x3b;" horiz-adv-x="321" d="M10 -119 Q55 -90 75.5 -67.5 Q96 -45 96 -29 Q96 -22 88 -16 Q80 -10 70.5 -2.5 Q61 5 53 15.5 Q45 26 45 43 Q45 59 51.5 73.5 Q58 88 69 99 Q80 110 95.5 116.5 Q111 123 128 123 Q155 123 170.5 107.5 Q186 92 186 64 Q186 36 172 7 Q158 -22 135 -48.5 Q112 -75 82.5 -98 Q53 -121 23 -138 L10 -119 Z M172 329 Q146 329 131 344.5 Q116 360 116 382 Q116 414 139 438 Q162 462 197 462 Q224 462 239 447.5 Q254 433 254 410 Q254 378 230.5 353.5 Q207 329 172 329 Z " />
<glyph glyph-name="less" unicode="&#x3c;" horiz-adv-x="696" d="M70 328 L642 532 L630 477 L130 300 L555 123 L543 68 L59 272 L70 328 Z " />
<glyph glyph-name="equal" unicode="&#x3d;" horiz-adv-x="696" d="M87 372 L97 421 L626 421 L616 372 L87 372 Z M48 186 L58 235 L587 235 L577 186 L48 186 Z " />
<glyph glyph-name="greater" unicode="&#x3e;" horiz-adv-x="696" d="M603 262 L31 58 L43 113 L543 290 L118 467 L130 522 L614 318 L603 262 Z " />
<glyph glyph-name="question" unicode="&#x3f;" horiz-adv-x="487" d="M233 501 Q226 493 207.5 481 Q189 469 160 469 Q131 469 113 486.5 Q95 504 95 533 Q95 565 111 596.5 Q127 628 157.5 653.5 Q188 679 232.5 694.5 Q277 710 333 710 Q372 710 403 700.5 Q434 691 456 673.5 Q478 656 490 632 Q502 608 502 580 Q502 538 485 504 Q468 470 440 442 Q412 414 377.5 391 Q343 368 307 348 Q284 335 270.5 324 Q257 313 248 300.5 Q239 288 234 271 Q229 254 224 230 L216 192 L186 192 L202 271 Q207 296 222 318 Q237 340 256 360.5 Q275 381 296.5 403 Q318 425 335.5 451.5 Q353 478 364.5 511 Q376 544 376 586 Q376 634 348.5 657.5 Q321 681 283 681 Q263 681 244 675 Q225 669 208 659.5 Q191 650 177.5 638 Q164 626 156 614 L233 501 Z M161 -9 Q136 -9 122 5.5 Q108 20 108 41 Q108 56 114 70.5 Q120 85 130.5 95.5 Q141 106 155.5 112.5 Q170 119 186 119 Q212 119 226 104.5 Q240 90 240 68 Q240 38 217 14.5 Q194 -9 161 -9 Z " />
<glyph glyph-name="at" unicode="&#x40;" horiz-adv-x="838" d="M507 480 Q475 480 443.5 451.5 Q412 423 387 381 Q362 339 346.5 290 Q331 241 331 201 Q331 170 341.5 155 Q352 140 369 140 Q395 140 426 168 Q457 196 483.5 238.5 Q510 281 527.5 331.5 Q545 382 545 428 Q545 454 534.5 467 Q524 480 507 480 Z M621 487 L678 487 Q633 391 605.5 333.5 Q578 276 563.5 243 Q549 210 544.5 193.5 Q540 177 540 163 Q540 140 551.5 129 Q563 118 583 118 Q617 118 649 142 Q681 166 706 206 Q731 246 746 296.5 Q761 347 761 401 Q761 448 747.5 492.5 Q734 537 705 571.5 Q676 606 631.5 627 Q587 648 524 648 Q444 648 375 610 Q306 572 255 510.5 Q204 449 174.5 372.5 Q145 296 145 219 Q145 166 162 120.5 Q179 75 213 42 Q247 9 296.5 -10 Q346 -29 411 -29 Q478 -29 532 -14.5 Q586 0 639 24 L647 6 Q593 -20 529 -37 Q465 -54 389 -54 Q311 -54 247.5 -34.5 Q184 -15 138.5 21.5 Q93 58 68 111 Q43 164 43 232 Q43 320 81 399.5 Q119 479 184 539 Q249 599 336.5 634.5 Q424 670 522 670 Q589 670 643.5 651.5 Q698 633 736 598.5 Q774 564 794.5 516 Q815 468 815 410 Q815 352 794.5 296 Q774 240 738.5 196 Q703 152 657 125 Q611 98 560 98 Q520 98 494.5 118 Q469 138 467 180 Q435 145 399 124.5 Q363 104 326 104 Q291 104 266.5 129 Q242 154 242 205 Q242 253 263 305 Q284 357 319 400 Q354 443 400.5 471 Q447 499 498 499 Q533 499 550.5 483.5 Q568 468 576 437 L621 487 Z " />
<glyph glyph-name="A" unicode="A" horiz-adv-x="583" d="M252 21 L351 21 L323 227 L117 227 L5 21 L102 21 L97 0 L-75 0 L-70 21 L-24 21 L350 704 L397 704 L491 21 L536 21 L531 0 L247 0 L252 21 Z M281 529 L131 251 L319 251 L281 529 Z " />
<glyph glyph-name="B" unicode="B" horiz-adv-x="630" d="M94 654 Q145 677 210.5 693.5 Q276 710 350 710 Q472 710 537 666 Q602 622 602 550 Q602 509 585.5 478 Q569 447 542.5 425 Q516 403 481.5 389.5 Q447 376 411 372 Q495 364 539.5 322.5 Q584 281 584 220 Q584 166 560.5 125 Q537 84 495.5 56.5 Q454 29 397.5 14.5 Q341 0 276 0 L-31 0 L-26 21 L49 21 L158 532 Q168 577 186 613 Q204 649 232 675 Q206 670 168.5 658.5 Q131 647 102 634 L94 654 Z M256 355 L185 22 L247 22 Q295 22 331.5 38 Q368 54 392.5 81.5 Q417 109 429 145.5 Q441 182 441 223 Q441 287 403 321 Q365 355 303 355 L256 355 Z M260 376 L288 376 Q378 376 425 423.5 Q472 471 472 566 Q472 592 465.5 614 Q459 636 445 652 Q431 668 407.5 677 Q384 686 351 686 Q345 686 338.5 686 Q332 686 326 685 L260 376 Z " />
<glyph glyph-name="C" unicode="C" horiz-adv-x="576" d="M331 26 Q368 26 398.5 40 Q429 54 452.5 76.5 Q476 99 493.5 126 Q511 153 524 179 L542 168 Q527 136 505 104.5 Q483 73 452 48 Q421 23 380 7 Q339 -9 288 -9 Q225 -9 179.5 13 Q134 35 105.5 72.5 Q77 110 63.5 160.5 Q50 211 50 269 Q50 345 74.5 423 Q99 501 147 565 Q195 629 265.5 669.5 Q336 710 428 710 Q476 710 509.5 698 Q543 686 564 666.5 Q585 647 594 622.5 Q603 598 603 574 Q603 548 595 527.5 Q587 507 573 492.5 Q559 478 540.5 470 Q522 462 501 462 Q472 462 457.5 471.5 Q443 481 435 492 L566 620 Q552 649 523 668 Q494 687 446 687 Q383 687 336.5 647.5 Q290 608 259.5 545.5 Q229 483 214.5 405 Q200 327 200 251 Q200 136 234 81 Q268 26 331 26 Z " />
<glyph glyph-name="D" unicode="D" horiz-adv-x="690" d="M87 656 Q103 663 127.5 672.5 Q152 682 185 690 Q218 698 259.5 704 Q301 710 352 710 Q501 710 582 631 Q663 552 663 411 Q663 327 633.5 252 Q604 177 548.5 121 Q493 65 412.5 32.5 Q332 0 230 0 L-33 0 L-28 21 L49 21 L158 533 Q169 584 184 618 Q199 652 227 675 Q195 669 158.5 658 Q122 647 94 634 L87 656 Z M185 21 L221 21 Q290 21 346 51.5 Q402 82 442.5 138.5 Q483 195 505 276.5 Q527 358 527 460 Q527 575 475.5 629.5 Q424 684 327 684 L185 21 Z " />
<glyph glyph-name="E" unicode="E" horiz-adv-x="587" d="M478 697 Q544 697 575.5 669 Q607 641 607 603 Q607 556 577.5 523.5 Q548 491 499 491 Q474 491 460.5 499.5 Q447 508 439 519 L557 643 Q546 660 526.5 668 Q507 676 470 676 L317 676 L250 357 L434 357 L429 335 L245 335 L178 21 L250 21 Q357 21 416.5 59 Q476 97 499 161 L510 191 L526 191 L484 0 L-40 0 L-35 21 L42 21 L181 676 L103 676 L107 697 L478 697 Z " />
<glyph glyph-name="F" unicode="F" horiz-adv-x="549" d="M291 21 L287 0 L-39 0 L-35 21 L42 21 L181 676 L103 676 L107 697 L471 697 Q537 697 567 672 Q597 647 597 609 Q597 558 568.5 529.5 Q540 501 498 501 Q470 501 456.5 509 Q443 517 435 528 L548 649 Q538 662 519 669 Q500 676 462 676 L317 676 L248 356 L441 356 L435 334 L243 334 L177 21 L291 21 Z " />
<glyph glyph-name="G" unicode="G" horiz-adv-x="659" d="M536 0 L521 0 Q513 6 504 9 Q495 12 481 12 Q470 12 451 8.5 Q432 5 408 1.5 Q384 -2 357.5 -5.5 Q331 -9 304 -9 Q232 -9 183.5 11.5 Q135 32 105.5 69 Q76 106 63 157 Q50 208 50 269 Q50 345 75.5 423 Q101 501 152 565 Q203 629 278.5 669.5 Q354 710 454 710 Q502 710 536.5 698.5 Q571 687 592.5 669 Q614 651 624 628.5 Q634 606 634 584 Q634 559 625.5 539 Q617 519 602.5 505.5 Q588 492 570 484.5 Q552 477 533 477 Q504 477 489.5 487 Q475 497 467 508 L590 631 Q573 657 543 671.5 Q513 686 469 686 Q423 686 385.5 666.5 Q348 647 317.5 613.5 Q287 580 264.5 536 Q242 492 227 443 Q212 394 204.5 342.5 Q197 291 197 244 Q197 135 226.5 76 Q256 17 327 17 Q353 17 378.5 23 Q404 29 424 41 L474 275 L397 275 L401 295 L655 295 L651 275 L595 275 L536 0 Z " />
<glyph glyph-name="H" unicode="H" horiz-adv-x="754" d="M178 21 L256 21 L252 0 L-40 0 L-35 21 L42 21 L181 676 L103 676 L108 697 L396 697 L392 676 L317 676 L254 376 L535 376 L599 676 L524 676 L529 697 L818 697 L813 676 L735 676 L596 21 L673 21 L668 0 L381 0 L386 21 L460 21 L530 353 L249 353 L178 21 Z " />
<glyph glyph-name="I" unicode="I" horiz-adv-x="344" d="M-36 0 L-31 21 L46 21 L185 676 L107 676 L111 697 L404 697 L400 676 L321 676 L182 21 L260 21 L255 0 L-36 0 Z " />
<glyph glyph-name="J" unicode="J" horiz-adv-x="404" d="M73 -14 Q50 -14 29.5 -9 Q9 -4 -7 7 Q-23 18 -32 34.5 Q-41 51 -41 74 Q-41 105 -24 126 Q-7 147 25 149 L66 28 Q75 8 86 8 Q97 8 106 17 Q115 26 123 45.5 Q131 65 139.5 96.5 Q148 128 157 173 L260 676 L171 676 L176 697 L479 697 L474 676 L396 676 L303 237 Q277 112 220 49 Q163 -14 73 -14 Z " />
<glyph glyph-name="K" unicode="K" horiz-adv-x="669" d="M235 291 L178 21 L259 21 L255 0 L-40 0 L-35 21 L42 21 L181 676 L103 676 L107 697 L394 697 L389 676 L317 676 L241 321 L452 444 Q524 486 563.5 524 Q603 562 603 591 Q603 618 570 618 L491 618 Q491 658 513 684 Q535 710 580 710 Q621 710 639 689 Q657 668 657 636 Q657 532 471 429 L406 393 Q420 397 431 398 Q442 399 456 399 Q505 399 537.5 373.5 Q570 348 570 287 Q570 263 564 233 L545 135 Q539 105 539 87 Q539 60 549 51.5 Q559 43 572 43 Q586 43 597 51 Q608 59 618 72 L629 60 Q608 31 578 11 Q548 -9 496 -9 Q478 -9 461.5 -4 Q445 1 432.5 13 Q420 25 412.5 45 Q405 65 405 95 Q405 109 406.5 126 Q408 143 412 162 L429 256 Q435 289 435 312 Q435 344 423.5 356 Q412 368 391 368 Q370 368 350 358.5 Q330 349 302 332 L235 291 Z " />
<glyph glyph-name="L" unicode="L" horiz-adv-x="548" d="M-39 0 L-35 21 L42 21 L181 676 L103 676 L107 697 L411 697 L407 676 L317 676 L178 21 L219 21 Q277 21 320 33.5 Q363 46 393.5 67.5 Q424 89 443.5 118 Q463 147 475 180 L490 224 L508 224 L455 0 L-39 0 Z " />
<glyph glyph-name="M" unicode="M" horiz-adv-x="827" d="M340 697 L423 303 L670 697 L890 697 L885 676 L808 676 L669 21 L747 21 L742 0 L457 0 L461 21 L543 21 L680 665 L360 153 L314 153 L202 663 L65 21 L147 21 L142 0 L-41 0 L-36 21 L40 21 L180 676 L102 676 L106 697 L340 697 Z " />
<glyph glyph-name="N" unicode="N" horiz-adv-x="678" d="M106 697 L344 697 L525 156 L636 676 L555 676 L559 697 L744 697 L739 676 L661 676 L517 0 L430 0 L202 660 L66 21 L162 21 L157 0 L-41 0 L-36 21 L41 21 L179 676 L101 676 L106 697 Z " />
<glyph glyph-name="O" unicode="O" horiz-adv-x="689" d="M429 710 Q485 710 528.5 690 Q572 670 601.5 635 Q631 600 646.5 552 Q662 504 662 449 Q662 366 638.5 284 Q615 202 567.5 137 Q520 72 449.5 31.5 Q379 -9 286 -9 Q171 -9 110.5 60.5 Q50 130 50 258 Q50 339 77 419.5 Q104 500 153.5 564.5 Q203 629 273 669.5 Q343 710 429 710 Z M291 14 Q327 14 358.5 39 Q390 64 415.5 105.5 Q441 147 460.5 201 Q480 255 493.5 312 Q507 369 514 425 Q521 481 521 527 Q521 601 499 644.5 Q477 688 424 688 Q389 688 358.5 663.5 Q328 639 302 598 Q276 557 256 504 Q236 451 222 394 Q208 337 200.5 280 Q193 223 193 175 Q193 99 215.5 56.5 Q238 14 291 14 Z " />
<glyph glyph-name="P" unicode="P" horiz-adv-x="589" d="M88 658 Q133 677 196 693.5 Q259 710 334 710 Q409 710 460 693.5 Q511 677 542.5 650 Q574 623 587.5 587.5 Q601 552 601 515 Q601 452 577 404.5 Q553 357 511.5 325.5 Q470 294 416 278 Q362 262 302 262 Q288 262 270 262.5 Q252 263 238 264 L186 21 L285 21 L281 0 L-33 0 L-28 21 L49 21 L158 533 Q169 581 187 618 Q205 655 229 675 Q200 670 162.5 659.5 Q125 649 96 636 L88 658 Z M243 286 Q255 285 266 284.5 Q277 284 285 284 Q330 284 364 305 Q398 326 420 360.5 Q442 395 453 440.5 Q464 486 464 536 Q464 567 458 594.5 Q452 622 437.5 642 Q423 662 399 673.5 Q375 685 340 685 L327 685 L243 286 Z " />
<glyph glyph-name="Q" unicode="Q" horiz-adv-x="670" d="M729 -45 Q709 -107 672 -144.5 Q635 -182 586 -182 Q520 -182 469.5 -132 Q419 -82 376 8 Q347 -2 324.5 -5.5 Q302 -9 269 -9 Q154 -9 93 60.5 Q32 130 32 258 Q32 339 59 419.5 Q86 500 135.5 564.5 Q185 629 255 669.5 Q325 710 411 710 Q467 710 510.5 690 Q554 670 583.5 635 Q613 600 628.5 552 Q644 504 644 449 Q644 375 628 311 Q612 247 585 195 Q558 143 521.5 103.5 Q485 64 444 39 Q478 -4 505.5 -29.5 Q533 -55 555.5 -68.5 Q578 -82 597 -86.5 Q616 -91 633 -91 Q660 -91 680.5 -75.5 Q701 -60 714 -37 L729 -45 Z M406 688 Q371 688 340.5 663.5 Q310 639 284 598 Q258 557 238 504 Q218 451 204 394 Q190 337 182.5 280 Q175 223 175 175 Q175 138 181 104.5 Q187 71 206 42 Q200 58 200 71 Q200 86 205.5 101 Q211 116 221.5 128 Q232 140 248.5 148 Q265 156 286 156 Q321 156 344.5 139.5 Q368 123 392 97 Q416 137 436.5 187.5 Q457 238 472 294 Q487 350 495 409.5 Q503 469 503 527 Q503 601 481 644.5 Q459 688 406 688 Z M275 112 Q252 112 237.5 98.5 Q223 85 223 62 Q223 45 235 29.5 Q247 14 277 14 Q293 14 313.5 22.5 Q334 31 354 51 Q334 80 316 96 Q298 112 275 112 Z " />
<glyph glyph-name="R" unicode="R" horiz-adv-x="647" d="M87 658 Q138 678 202 694 Q266 710 344 710 Q481 710 545.5 665 Q610 620 610 547 Q610 505 592 471.5 Q574 438 546 414 Q518 390 482.5 375.5 Q447 361 413 356 Q441 352 462 343.5 Q483 335 497.5 319 Q512 303 520.5 278.5 Q529 254 531 219 Q533 187 535 150 Q537 113 541 88 Q548 45 577 45 Q598 45 616 70 L627 57 Q607 29 575.5 10 Q544 -9 506 -9 Q455 -9 425 21.5 Q395 52 391 127 Q390 149 389.5 173 Q389 197 388 219 Q387 241 385.5 260 Q384 279 381 293 Q373 325 353.5 333.5 Q334 342 300 342 L252 342 L185 21 L263 21 L258 0 L-34 0 L-28 21 L49 21 L158 533 Q168 578 184.5 613.5 Q201 649 229 675 Q195 669 159.5 658.5 Q124 648 95 636 L87 658 Z M479 564 Q479 626 441 655.5 Q403 685 343 685 L325 685 L257 364 L301 364 Q351 364 385 380 Q419 396 440 423.5 Q461 451 470 487 Q479 523 479 564 Z " />
<glyph glyph-name="S" unicode="S" horiz-adv-x="536" d="M89 505 Q89 542 105.5 578.5 Q122 615 154.5 644 Q187 673 235.5 691.5 Q284 710 349 710 Q392 710 425 699.5 Q458 689 480.5 671.5 Q503 654 514.5 631 Q526 608 526 583 Q526 545 501.5 518.5 Q477 492 439 492 Q413 492 397.5 502 Q382 512 375 523 L481 630 Q464 654 433 669.5 Q402 685 358 685 Q327 685 300.5 676.5 Q274 668 254.5 652.5 Q235 637 223.5 616 Q212 595 212 570 Q212 546 221 527 Q230 508 246 491.5 Q262 475 284.5 459.5 Q307 444 333 427 Q366 406 393 385.5 Q420 365 439.5 342 Q459 319 470 292 Q481 265 481 230 Q481 176 459 131.5 Q437 87 399.5 56 Q362 25 312 8 Q262 -9 205 -9 Q161 -9 126.5 1.5 Q92 12 68 30.5 Q44 49 31 73.5 Q18 98 18 126 Q18 168 42.5 196.5 Q67 225 108 225 Q134 225 149 215 Q164 205 172 193 L63 79 Q83 50 118 33 Q153 16 201 16 Q233 16 261.5 25 Q290 34 311.5 52 Q333 70 345.5 96.5 Q358 123 358 158 Q358 205 323.5 239 Q289 273 232 309 Q201 328 174.5 347.5 Q148 367 129 389.5 Q110 412 99.5 440 Q89 468 89 505 Z " />
<glyph glyph-name="T" unicode="T" horiz-adv-x="613" d="M71 479 L117 697 L670 697 L624 479 L607 479 L607 507 Q607 592 575 634 Q543 676 481 676 L457 676 L318 21 L400 21 L395 0 L95 0 L99 21 L182 21 L321 676 L300 676 Q269 676 239.5 666.5 Q210 657 184.5 639 Q159 621 139.5 594 Q120 567 109 531 L93 479 L71 479 Z " />
<glyph glyph-name="U" unicode="U" horiz-adv-x="663" d="M394 697 L390 676 L308 676 L213 231 Q208 210 206.5 191 Q205 172 205 154 Q205 118 215 93.5 Q225 69 242 53.5 Q259 38 281 31.5 Q303 25 327 25 Q402 25 458 76 Q514 127 537 238 L629 676 L548 676 L553 697 L742 697 L738 676 L656 676 L565 243 Q553 185 530 138.5 Q507 92 473 59 Q439 26 392.5 8.5 Q346 -9 286 -9 Q181 -9 127.5 35.5 Q74 80 74 171 Q74 191 76 212.5 Q78 234 83 257 L172 676 L91 676 L95 697 L394 697 Z " />
<glyph glyph-name="V" unicode="V" horiz-adv-x="586" d="M214 -9 L122 676 L62 676 L67 697 L363 697 L358 676 L270 676 L327 137 Q388 222 436.5 300 Q485 378 519.5 444 Q554 510 572.5 560 Q591 610 591 640 Q591 660 581.5 668 Q572 676 558 676 L448 676 Q449 693 455.5 711 Q462 729 474.5 744 Q487 759 505.5 768.5 Q524 778 549 778 Q587 778 610.5 757 Q634 736 634 693 Q634 637 603 556.5 Q572 476 519.5 382.5 Q467 289 398 188 Q329 87 253 -9 L214 -9 Z " />
<glyph glyph-name="W" unicode="W" horiz-adv-x="924" d="M634 676 L697 163 Q749 242 792 318 Q835 394 866 458.5 Q897 523 914.5 572.5 Q932 622 932 649 Q931 666 922 671 Q913 676 897 676 L786 676 Q786 694 793 711.5 Q800 729 812.5 743.5 Q825 758 844 767 Q863 776 887 776 Q923 776 947.5 755 Q972 734 972 692 Q972 653 955.5 600 Q939 547 911 486 Q883 425 847 359.5 Q811 294 771.5 229 Q732 164 692.5 103 Q653 42 618 -9 L580 -9 L520 441 Q497 398 462.5 337.5 Q428 277 390.5 213 Q353 149 317 90 Q281 31 256 -9 L212 -9 L115 676 L55 676 L60 697 L339 697 L335 676 L260 676 L326 153 Q342 180 369 225 Q396 270 423.5 318.5 Q451 367 476 411 Q501 455 514 479 L489 676 L431 676 L435 697 L707 697 L702 676 L634 676 Z " />
<glyph glyph-name="X" unicode="X" horiz-adv-x="624" d="M400 378 L518 21 L576 21 L570 0 L262 0 L268 21 L366 21 L272 318 L47 21 L143 21 L137 0 L-60 0 L-55 21 L17 21 L263 343 L153 676 L82 676 L88 697 L410 697 L405 676 L307 676 L392 405 L593 676 L502 676 L508 697 L704 697 L699 676 L625 676 L400 378 Z " />
<glyph glyph-name="Y" unicode="Y" horiz-adv-x="607" d="M404 21 L399 0 L101 0 L105 21 L187 21 L243 289 L143 676 L69 676 L73 697 L402 697 L398 676 L301 676 L378 343 L602 676 L510 676 L514 697 L701 697 L697 676 L635 676 L382 302 L322 21 L404 21 Z " />
<glyph glyph-name="Z" unicode="Z" horiz-adv-x="581" d="M222 512 Q211 502 195 495.5 Q179 489 156 489 Q126 489 102 509.5 Q78 530 78 572 Q78 597 88.5 619.5 Q99 642 121 659 Q143 676 177.5 686.5 Q212 697 259 697 L534 697 Q568 697 588.5 706 Q609 715 624 737 L639 728 L132 21 L270 21 Q359 21 415.5 60.5 Q472 100 505 184 L518 219 L541 219 L480 0 L-20 0 L-16 21 L457 676 L254 676 Q221 676 197 669.5 Q173 663 154 646 L222 512 Z " />
<glyph glyph-name="bracketleft" unicode="&#x5b;" horiz-adv-x="422" d="M224 744 L471 744 L467 722 L342 722 L163 -128 L288 -128 L283 -150 L35 -150 L224 744 Z " />
<glyph glyph-name="backslash" unicode="&#x5c;" horiz-adv-x="366" d="M304 -39 L248 -39 L95 730 L153 730 L304 -39 Z " />
<glyph glyph-name="bracketright" unicode="&#x5d;" horiz-adv-x="444" d="M195 -150 L-53 -150 L-49 -128 L76 -128 L256 722 L130 722 L135 744 L383 744 L195 -150 Z " />
<glyph glyph-name="asciicircum" unicode="&#x5e;" horiz-adv-x="696" d="M527 326 L412 622 L169 326 L125 326 L400 697 L458 697 L571 326 L527 326 Z " />
<glyph glyph-name="underscore" unicode="&#x5f;" horiz-adv-x="475" d="M-86 -122 L-75 -63 L413 -63 L401 -122 L-86 -122 Z " />
<glyph glyph-name="grave" unicode="&#x60;" horiz-adv-x="384" d="M378 518 L342 518 L198 601 Q179 612 170 623 Q161 634 161 648 Q161 667 176 681.5 Q191 696 212 696 Q233 696 246.5 686.5 Q260 677 273 660 L378 518 Z " />
<glyph glyph-name="a" unicode="a" horiz-adv-x="543" d="M198 31 Q217 31 235 47.5 Q253 64 269 91 Q285 118 298.5 153.5 Q312 189 321.5 227 Q331 265 336.5 302.5 Q342 340 342 373 Q342 404 332.5 426.5 Q323 449 299 449 Q274 449 253.5 433.5 Q233 418 216.5 392.5 Q200 367 188 334 Q176 301 167.5 266 Q159 231 155 196 Q151 161 151 132 Q151 83 161 57 Q171 31 198 31 Z M149 -9 Q95 -9 58.5 31.5 Q22 72 22 155 Q22 208 38.5 264 Q55 320 88 366 Q121 412 170 441.5 Q219 471 283 471 Q312 471 338.5 458 Q365 445 385 418 L411 461 L495 461 L426 140 Q419 110 416 92 Q413 74 413 63 Q413 52 417 44.5 Q421 37 433 37 Q447 37 462.5 54 Q478 71 492 94 L505 85 Q481 42 449.5 16.5 Q418 -9 379 -9 Q358 -9 343.5 -1 Q329 7 320.5 19.5 Q312 32 308 48.5 Q304 65 304 83 Q304 91 304 97 Q304 103 305 110 Q283 56 241.5 23.5 Q200 -9 149 -9 Z " />
<glyph glyph-name="b" unicode="b" horiz-adv-x="538" d="M155 693 Q140 697 119 698 Q98 699 82 699 L86 715 L291 732 L216 393 Q239 429 273.5 450 Q308 471 352 471 Q382 471 407.5 460.5 Q433 450 452 430 Q471 410 482 380.5 Q493 351 493 313 Q493 245 471 186.5 Q449 128 409.5 84.5 Q370 41 315 16 Q260 -9 194 -9 Q168 -9 148.5 -5 Q129 -1 112 4 Q95 9 80.5 13 Q66 17 51 17 Q18 17 -18 -16 L-30 -4 Q-7 16 6 35 Q19 54 25 84 L155 693 Z M161 131 Q151 81 151 62 Q151 38 162.5 25.5 Q174 13 194 13 Q231 13 261 45.5 Q291 78 312 127 Q333 176 344.5 231.5 Q356 287 356 334 Q356 380 344.5 409.5 Q333 439 303 439 Q291 439 275.5 430 Q260 421 245 403 Q230 385 217 359 Q204 333 197 299 L161 131 Z " />
<glyph glyph-name="c" unicode="c" horiz-adv-x="423" d="M313 449 Q273 449 243 420.5 Q213 392 193.5 348.5 Q174 305 164 253 Q154 201 154 155 Q154 92 173 56.5 Q192 21 232 21 Q253 21 272 30.5 Q291 40 307.5 56 Q324 72 337 91.5 Q350 111 358 131 L373 122 Q361 97 344.5 73.5 Q328 50 305.5 31.5 Q283 13 252.5 2 Q222 -9 182 -9 Q112 -9 67 36.5 Q22 82 22 168 Q22 227 41 282 Q60 337 95 379 Q130 421 179.5 446 Q229 471 290 471 Q341 471 375.5 448 Q410 425 410 383 Q410 355 390 333 Q370 311 338 311 Q318 311 302.5 319 Q287 327 279 341 L357 433 Q342 449 313 449 Z " />
<glyph glyph-name="d" unicode="d" horiz-adv-x="546" d="M351 353 Q353 365 354.5 377 Q356 389 356 399 Q356 420 345 433 Q334 446 311 446 Q272 446 240.5 411 Q209 376 187.5 325.5 Q166 275 154.5 220.5 Q143 166 143 127 Q143 77 154 50 Q165 23 194 23 Q209 23 227.5 35.5 Q246 48 263 71.5 Q280 95 295.5 129.5 Q311 164 320 209 L351 353 Z M422 693 Q407 697 386 698 Q365 699 348 699 L352 715 L558 732 L432 140 Q425 109 422.5 93 Q420 77 420 65 Q420 54 423.5 45.5 Q427 37 440 37 Q454 37 470.5 54.5 Q487 72 499 94 L513 86 Q504 70 492.5 53.5 Q481 37 465.5 23 Q450 9 431.5 0 Q413 -9 391 -9 Q368 -9 352.5 1.5 Q337 12 327.5 29.5 Q318 47 314 68.5 Q310 90 310 112 Q285 58 247 24.5 Q209 -9 147 -9 Q82 -9 48 35 Q14 79 14 153 Q14 211 34.5 268 Q55 325 93 370 Q131 415 184 443 Q237 471 302 471 Q322 471 340.5 467 Q359 463 372 455 L422 693 Z " />
<glyph glyph-name="e" unicode="e" horiz-adv-x="444" d="M238 23 Q264 23 285.5 33 Q307 43 323.5 58.5 Q340 74 352 92 Q364 110 372 127 L387 118 Q363 64 314.5 27.5 Q266 -9 186 -9 Q151 -9 121 2 Q91 13 69 35.5 Q47 58 34.5 92 Q22 126 22 173 Q22 231 43 284.5 Q64 338 100.5 379.5 Q137 421 186.5 446 Q236 471 294 471 Q331 471 357 463 Q383 455 399.5 441 Q416 427 424 408.5 Q432 390 432 370 Q432 340 417 314 Q402 288 375.5 268.5 Q349 249 312 238 Q275 227 230 227 Q187 227 162 234 Q158 213 155.5 192.5 Q153 172 153 148 Q153 127 157 104.5 Q161 82 170.5 64 Q180 46 196.5 34.5 Q213 23 238 23 Z M291 452 Q268 452 249 435 Q230 418 214 390.5 Q198 363 186 327.5 Q174 292 166 256 Q191 250 211 250 Q239 250 261 263.5 Q283 277 297.5 298 Q312 319 319.5 344 Q327 369 327 393 Q327 417 318 434.5 Q309 452 291 452 Z " />
<glyph glyph-name="f" unicode="f" horiz-adv-x="321" d="M-138 -215 Q-105 -215 -80.5 -205 Q-56 -195 -37 -171 Q-18 -147 -3 -106 Q12 -65 25 -2 L118 441 L51 441 L55 461 L71 461 Q90 461 102.5 467 Q115 473 123.5 485 Q132 497 139 516.5 Q146 536 154 563 Q167 606 189 638.5 Q211 671 239 692.5 Q267 714 299.5 725 Q332 736 365 736 Q397 736 418.5 728.5 Q440 721 453 709.5 Q466 698 471.5 683.5 Q477 669 477 654 Q477 622 456.5 601.5 Q436 581 408 581 Q385 581 370.5 591 Q356 601 349 613 L432 693 Q417 716 384 716 Q355 716 336 700 Q317 684 302 652.5 Q287 621 274 573 Q261 525 246 461 L368 461 L364 441 L243 441 L176 135 Q161 68 138.5 2.5 Q116 -63 79.5 -115 Q43 -167 -11 -199 Q-65 -231 -142 -231 L-138 -215 Z " />
<glyph glyph-name="g" unicode="g" horiz-adv-x="465" d="M390 440 Q405 448 421 463.5 Q437 479 437 501 Q437 524 403 524 L329 524 Q329 540 335 555.5 Q341 571 352 583 Q363 595 378.5 602.5 Q394 610 413 610 Q446 610 462.5 590 Q479 570 479 542 Q479 512 462 481.5 Q445 451 404 428 Q431 396 431 351 Q431 316 416.5 283 Q402 250 374.5 223.5 Q347 197 306 181 Q265 165 211 165 Q176 165 149 171 Q122 177 103 186 Q92 180 87 168.5 Q82 157 82 146 Q82 124 100.5 111.5 Q119 99 165 88 Q221 75 264 63.5 Q307 52 336.5 36.5 Q366 21 381 -2.5 Q396 -26 396 -63 Q396 -99 377 -128.5 Q358 -158 326 -178 Q294 -198 250 -209 Q206 -220 157 -220 Q71 -220 19 -192 Q-33 -164 -33 -112 Q-33 -69 -4.5 -40.5 Q24 -12 66 2 Q40 14 24.5 33 Q9 52 9 84 Q9 115 27.5 143.5 Q46 172 87 196 Q70 211 60 232.5 Q50 254 50 281 Q50 325 66.5 360 Q83 395 113 420 Q143 445 183.5 458 Q224 471 272 471 Q302 471 335 463.5 Q368 456 390 440 Z M298 -118 Q298 -85 274 -67.5 Q250 -50 216.5 -39.5 Q183 -29 147.5 -22.5 Q112 -16 90 -7 Q73 -18 57 -42.5 Q41 -67 41 -99 Q41 -138 72.5 -167.5 Q104 -197 169 -197 Q192 -197 215 -192 Q238 -187 256.5 -177 Q275 -167 286.5 -152 Q298 -137 298 -118 Z M213 189 Q235 189 253.5 204.5 Q272 220 285.5 244.5 Q299 269 306.5 300.5 Q314 332 314 365 Q314 378 312.5 393.5 Q311 409 306 422 Q301 435 292.5 443.5 Q284 452 269 452 Q246 452 227.5 434.5 Q209 417 195.5 390 Q182 363 174.5 330.5 Q167 298 167 268 Q167 257 168.5 243 Q170 229 175 217 Q180 205 189 197 Q198 189 213 189 Z " />
<glyph glyph-name="h" unicode="h" horiz-adv-x="550" d="M151 693 Q136 697 115.5 698 Q95 699 78 699 L82 715 L287 732 L202 348 Q236 410 280.5 440.5 Q325 471 379 471 Q437 471 461 441.5 Q485 412 485 369 Q485 341 477 307 Q469 273 458 221 Q444 160 434.5 120.5 Q425 81 425 61 Q425 37 443 37 Q454 37 470.5 53 Q487 69 501 94 L514 85 Q488 40 455.5 15.5 Q423 -9 383 -9 Q338 -9 318.5 14 Q299 37 299 70 Q299 98 308.5 136 Q318 174 330 230 Q341 277 349 313.5 Q357 350 357 375 Q357 401 347.5 416 Q338 431 320 431 Q305 431 285.5 417 Q266 403 245.5 375.5 Q225 348 207 307.5 Q189 267 178 214 L132 0 L4 0 L151 693 Z " />
<glyph glyph-name="i" unicode="i" horiz-adv-x="284" d="M223 676 Q251 676 265.5 659 Q280 642 280 620 Q280 602 273 586 Q266 570 254.5 558.5 Q243 547 227.5 540 Q212 533 194 533 Q166 533 152 550 Q138 567 138 590 Q138 607 145 622.5 Q152 638 163 650 Q174 662 189.5 669 Q205 676 223 676 Z M107 432 Q92 436 72.5 437 Q53 438 37 438 L41 454 L244 471 L176 156 Q168 117 163.5 94.5 Q159 72 159 61 Q159 37 177 37 Q189 37 204.5 53 Q220 69 234 94 L248 85 Q222 40 189.5 15.5 Q157 -9 117 -9 Q71 -9 53 14 Q35 37 35 70 Q35 93 39 119 Q43 145 53 189 L107 432 Z " />
<glyph glyph-name="j" unicode="j" horiz-adv-x="275" d="M107 430 Q92 434 72.5 435 Q53 436 37 436 L41 453 L243 471 L157 65 Q142 -4 114 -56.5 Q86 -109 47.5 -145.5 Q9 -182 -38.5 -203 Q-86 -224 -138 -231 L-140 -215 Q-105 -208 -80.5 -192 Q-56 -176 -38.5 -150.5 Q-21 -125 -8.5 -88.5 Q4 -52 14 -3 L107 430 Z M218 676 Q246 676 260.5 659 Q275 642 275 620 Q275 602 268 586 Q261 570 249.5 558.5 Q238 547 222.5 540 Q207 533 189 533 Q161 533 147 550 Q133 567 133 590 Q133 607 140 622.5 Q147 638 158 650 Q169 662 184.5 669 Q200 676 218 676 Z " />
<glyph glyph-name="k" unicode="k" horiz-adv-x="513" d="M151 693 Q136 697 115.5 698 Q95 699 78 699 L82 715 L287 732 L165 160 Q178 188 203 210 Q228 232 257.5 250.5 Q287 269 317.5 284 Q348 299 373 312.5 Q398 326 414 337.5 Q430 349 430 361 Q430 370 423.5 376 Q417 382 397 382 L316 382 Q316 422 337.5 446.5 Q359 471 405 471 Q442 471 459 451 Q476 431 476 405 Q476 361 434.5 329 Q393 297 310 262 Q326 265 342 265 Q364 265 380 258.5 Q396 252 406 241.5 Q416 231 420.5 217 Q425 203 425 189 Q425 170 422 155 Q419 140 415 121 Q412 104 408.5 87.5 Q405 71 405 60 Q405 37 423 37 Q434 37 446 48 Q458 59 469 76 L481 66 Q458 29 428 10 Q398 -9 365 -9 Q326 -9 304.5 10.5 Q283 30 283 65 Q283 82 286.5 99 Q290 116 294 134 Q298 154 302 171 Q306 188 306 204 Q306 218 300 225 Q294 232 279 232 Q263 232 243 219.5 Q223 207 204 186 Q185 165 169.5 136 Q154 107 147 74 L132 0 L4 0 L151 693 Z " />
<glyph glyph-name="l" unicode="l" horiz-adv-x="280" d="M149 693 Q134 697 113 698 Q92 699 76 699 L80 715 L285 732 L170 193 Q159 139 152.5 108.5 Q146 78 146 62 Q146 37 169 37 Q179 37 190 45 Q201 53 211 64 Q221 75 228.5 86.5 Q236 98 241 106 L254 96 Q245 81 231.5 63 Q218 45 199 29 Q180 13 157 2 Q134 -9 106 -9 Q61 -9 41.5 14 Q22 37 22 69 Q22 89 27 117 Q32 145 42 188 L149 693 Z " />
<glyph glyph-name="m" unicode="m" horiz-adv-x="810" d="M106 432 Q91 437 72 437.5 Q53 438 37 438 L40 455 L244 472 L213 348 Q243 409 284 440 Q325 471 380 471 Q435 471 457.5 439.5 Q480 408 480 354 Q511 412 548.5 441.5 Q586 471 636 471 Q695 471 719.5 442 Q744 413 744 370 Q744 344 736 306.5 Q728 269 717 221 Q704 167 694 124 Q684 81 684 61 Q684 37 702 37 Q713 37 729.5 53 Q746 69 760 94 L773 85 Q747 40 714.5 15.5 Q682 -9 642 -9 Q597 -9 577.5 14 Q558 37 558 70 Q558 96 567 136 Q576 176 589 230 Q601 280 609.5 319 Q618 358 618 382 Q618 404 612 417.5 Q606 431 587 431 Q569 431 550 415.5 Q531 400 514 372.5 Q497 345 482.5 307 Q468 269 458 224 L410 0 L279 0 L325 216 Q336 270 345 313.5 Q354 357 354 381 Q354 404 347.5 417.5 Q341 431 321 431 Q306 431 287.5 417.5 Q269 404 250.5 375 Q232 346 215 301.5 Q198 257 185 196 L144 0 L14 0 L106 432 Z " />
<glyph glyph-name="n" unicode="n" horiz-adv-x="566" d="M473 221 Q459 161 449.5 122.5 Q440 84 440 61 Q440 37 458 37 Q470 37 486 53 Q502 69 516 94 L529 85 Q503 40 470.5 15.5 Q438 -9 398 -9 Q353 -9 333.5 14 Q314 37 314 70 Q314 97 323.5 136.5 Q333 176 345 230 Q357 283 364 318 Q371 353 371 379 Q371 403 362.5 417 Q354 431 334 431 Q319 431 299 417.5 Q279 404 258 375 Q237 346 217.5 301.5 Q198 257 185 195 L144 0 L15 0 L106 432 Q91 437 72 437.5 Q53 438 37 438 L40 455 L244 472 L212 345 Q245 405 289 438 Q333 471 392 471 Q422 471 442.5 463 Q463 455 475.5 441.5 Q488 428 494 410 Q500 392 500 372 Q500 356 498 340.5 Q496 325 492.5 307.5 Q489 290 484 269 Q479 248 473 221 Z " />
<glyph glyph-name="o" unicode="o" horiz-adv-x="519" d="M295 471 Q342 471 376 457 Q410 443 432 419 Q454 395 464.5 362 Q475 329 475 291 Q475 235 456.5 181 Q438 127 403 85 Q368 43 317 17 Q266 -9 201 -9 Q154 -9 120 5.5 Q86 20 64 45 Q42 70 32 103.5 Q22 137 22 176 Q22 230 39.5 283 Q57 336 91.5 378 Q126 420 177 445.5 Q228 471 295 471 Z M205 12 Q240 12 266.5 47.5 Q293 83 311 134.5 Q329 186 338 242.5 Q347 299 347 341 Q347 451 290 451 Q261 451 235.5 417 Q210 383 190 332.5 Q170 282 158.5 223 Q147 164 147 114 Q147 67 160 39.5 Q173 12 205 12 Z " />
<glyph glyph-name="p" unicode="p" horiz-adv-x="536" d="M108 432 Q93 436 73 437 Q53 438 37 438 L40 455 L242 472 L217 371 Q245 417 285 444 Q325 471 373 471 Q430 471 461.5 430 Q493 389 493 315 Q493 241 471 181 Q449 121 411.5 79 Q374 37 325.5 14 Q277 -9 224 -9 Q200 -9 178 -5 Q156 -1 142 5 L101 -184 Q118 -186 141 -187 Q164 -188 180 -188 L176 -207 L-90 -207 L-85 -188 Q-70 -188 -53 -186.5 Q-36 -185 -23 -182 L108 432 Z M152 53 Q156 38 169.5 26.5 Q183 15 206 15 Q244 15 273 47.5 Q302 80 322 129 Q342 178 352 235 Q362 292 362 341 Q362 381 353.5 406 Q345 431 321 431 Q308 431 290 420.5 Q272 410 254 389.5 Q236 369 220.5 339 Q205 309 197 270 L152 53 Z " />
<glyph glyph-name="q" unicode="q" horiz-adv-x="528" d="M302 107 Q279 52 241 21.5 Q203 -9 150 -9 Q93 -9 56 31.5 Q19 72 19 156 Q19 217 38 274 Q57 331 91.5 374.5 Q126 418 174.5 444.5 Q223 471 282 471 Q324 471 348.5 455 Q373 439 387 419 L419 461 L497 461 L359 -183 Q373 -186 389.5 -187 Q406 -188 423 -188 L419 -207 L156 -207 L160 -188 Q174 -188 198.5 -186.5 Q223 -185 237 -183 L302 107 Z M195 30 Q225 30 252 64.5 Q279 99 299.5 150.5 Q320 202 332 261.5 Q344 321 344 372 Q344 387 342.5 400.5 Q341 414 336 425 Q331 436 322 442.5 Q313 449 298 449 Q261 449 232.5 415.5 Q204 382 185 333.5 Q166 285 156.5 230 Q147 175 147 132 Q147 83 158 56.5 Q169 30 195 30 Z " />
<glyph glyph-name="r" unicode="r" horiz-adv-x="448" d="M106 432 Q91 437 72 437.5 Q53 438 37 438 L40 455 L244 472 L202 311 Q218 345 236 374 Q254 403 275 424.5 Q296 446 320.5 458.5 Q345 471 374 471 Q414 471 436 450 Q458 429 458 398 Q458 359 434.5 334 Q411 309 378 309 Q358 309 340 318 Q322 327 314 341 L391 441 Q378 449 362 449 Q336 449 309 426.5 Q282 404 257 367 Q232 330 212.5 281 Q193 232 182 180 L145 0 L14 0 L106 432 Z " />
<glyph glyph-name="s" unicode="s" horiz-adv-x="395" d="M251 451 Q207 451 185 429 Q163 407 163 379 Q163 362 171 349 Q179 336 192 324 Q205 312 222.5 299.5 Q240 287 260 273 Q296 247 318.5 217 Q341 187 341 146 Q341 103 323.5 73.5 Q306 44 277.5 25.5 Q249 7 213.5 -1 Q178 -9 143 -9 Q114 -9 87.5 -3.5 Q61 2 41 13.5 Q21 25 9 41.5 Q-3 58 -3 81 Q-3 106 14.5 124.5 Q32 143 59 143 Q95 143 110 114 L45 46 Q57 30 79.5 19.5 Q102 9 131 9 Q171 9 200 30 Q229 51 229 90 Q229 126 207 149.5 Q185 173 143 201 Q100 230 74.5 257.5 Q49 285 49 325 Q49 360 64 387 Q79 414 104.5 433 Q130 452 164 461.5 Q198 471 236 471 Q293 471 330 448.5 Q367 426 367 387 Q367 362 352 346 Q337 330 311 330 Q294 330 279 337 Q264 344 256 357 L323 421 Q314 434 294 442.5 Q274 451 251 451 Z " />
<glyph glyph-name="t" unicode="t" horiz-adv-x="335" d="M294 70 Q266 34 225.5 12.5 Q185 -9 136 -9 Q91 -9 62.5 15.5 Q34 40 34 95 Q34 112 36 127.5 Q38 143 42 162 L101 441 L40 441 L45 461 L83 461 Q108 461 133 473 Q158 485 180 503.5 Q202 522 219 545.5 Q236 569 246 592 L255 613 L272 613 L240 461 L358 461 L354 441 L236 441 L167 119 Q164 105 162.5 96 Q161 87 161 80 Q161 55 172 44.5 Q183 34 200 34 Q223 34 245 48.5 Q267 63 281 81 L294 70 Z " />
<glyph glyph-name="u" unicode="u" horiz-adv-x="562" d="M105 432 Q90 437 71 437.5 Q52 438 36 438 L39 455 L243 472 L167 124 Q163 107 162 95.5 Q161 84 161 75 Q161 50 170 40.5 Q179 31 196 31 Q218 31 240 51.5 Q262 72 281.5 107.5 Q301 143 317.5 189.5 Q334 236 345 288 L382 461 L514 461 L439 111 Q432 82 432 63 Q432 52 436.5 44.5 Q441 37 452 37 Q466 37 481.5 53.5 Q497 70 511 93 L524 84 Q501 44 470.5 17.5 Q440 -9 397 -9 Q359 -9 337.5 16.5 Q316 42 316 84 Q316 106 320 126 Q282 53 235.5 22 Q189 -9 137 -9 Q86 -9 61 16 Q36 41 36 86 Q36 102 39.5 122.5 Q43 143 49 171 L105 432 Z " />
<glyph glyph-name="v" unicode="v" horiz-adv-x="432" d="M183 472 Q195 384 201 285.5 Q207 187 209 94 Q237 131 268 176.5 Q299 222 325 266.5 Q351 311 367.5 350.5 Q384 390 384 415 Q384 431 374.5 436.5 Q365 442 347 442 L280 442 Q281 475 298.5 501 Q316 527 357 527 Q387 527 407.5 509 Q428 491 428 456 Q428 414 403 357 Q378 300 339.5 238 Q301 176 254.5 114 Q208 52 165 0 L97 0 Q93 122 84.5 227.5 Q76 333 57 437 Q43 440 25 440.5 Q7 441 -4 441 L-1 459 L183 472 L183 472 Z " />
<glyph glyph-name="w" unicode="w" horiz-adv-x="692" d="M646 414 Q646 430 635.5 436 Q625 442 605 442 L542 442 Q543 475 561.5 501 Q580 527 622 527 Q650 527 670 510.5 Q690 494 690 459 Q690 418 666.5 360.5 Q643 303 606.5 240 Q570 177 526 114.5 Q482 52 442 0 L381 0 Q378 75 371.5 149 Q365 223 356 290 Q262 123 170 0 L108 0 Q100 120 88 228.5 Q76 337 53 437 Q37 439 23 440 Q9 441 -7 441 L-3 458 L182 472 Q197 404 207 310.5 Q217 217 223 117 Q239 142 256.5 169.5 Q274 197 290.5 224.5 Q307 252 321.5 279 Q336 306 348 330 Q345 353 340 381 Q335 409 328 435 Q314 439 298 440 Q282 441 265 441 L268 458 L456 472 Q463 443 469 402.5 Q475 362 479.5 314.5 Q484 267 487.5 215 Q491 163 494 111 Q524 152 551.5 196 Q579 240 600 280.5 Q621 321 633.5 356 Q646 391 646 414 Z " />
<glyph glyph-name="x" unicode="x" horiz-adv-x="526" d="M494 440 Q482 452 457 452 Q424 452 396.5 422.5 Q369 393 348.5 347 Q328 301 316.5 244.5 Q305 188 305 133 Q305 77 317 51 Q329 25 355 25 Q371 25 386 34.5 Q401 44 414 59 Q427 74 437.5 91 Q448 108 456 123 L470 115 Q458 90 443 67.5 Q428 45 408 28 Q388 11 361.5 1 Q335 -9 301 -9 Q245 -9 213 24.5 Q181 58 178 125 Q151 53 118.5 22 Q86 -9 47 -9 Q15 -9 -6 12 Q-27 33 -27 62 Q-27 94 -8 116 Q11 138 42 138 Q56 138 71 131.5 Q86 125 92 111 L16 24 Q21 18 31 13.5 Q41 9 54 9 Q90 9 117 43 Q144 77 163 127.5 Q182 178 191.5 237 Q201 296 201 347 Q201 396 191 417 Q181 438 158 438 Q140 438 124.5 428.5 Q109 419 95.5 404.5 Q82 390 70.5 371.5 Q59 353 51 335 L38 342 Q46 361 58 384 Q70 407 89.5 426 Q109 445 137 458 Q165 471 204 471 Q260 471 293.5 438 Q327 405 332 345 Q355 408 389 439.5 Q423 471 462 471 Q497 471 516.5 450.5 Q536 430 536 398 Q536 369 517.5 346 Q499 323 466 323 Q451 323 436.5 329.5 Q422 336 413 350 L494 440 Z " />
<glyph glyph-name="y" unicode="y" horiz-adv-x="422" d="M177 470 Q200 386 217 287 Q234 188 240 91 Q261 124 286.5 167 Q312 210 333.5 254.5 Q355 299 369.5 340.5 Q384 382 384 413 Q384 442 342 442 L275 442 Q275 457 278.5 472 Q282 487 291 499.5 Q300 512 315 519.5 Q330 527 352 527 Q387 527 405 506 Q423 485 423 448 Q423 408 399.5 342.5 Q376 277 337 202.5 Q298 128 247 52 Q196 -24 141.5 -85.5 Q87 -147 32.5 -185.5 Q-22 -224 -68 -224 Q-105 -224 -125.5 -204.5 Q-146 -185 -146 -152 Q-146 -120 -125 -100.5 Q-104 -81 -73 -75 Q-60 -139 -50.5 -163 Q-41 -187 -24 -187 Q-13 -187 8 -174 Q29 -161 54 -139 Q79 -117 103.5 -89 Q128 -61 146 -32 Q138 25 127.5 85.5 Q117 146 104 206 Q91 266 75.5 324.5 Q60 383 44 436 Q31 439 20 440 Q9 441 -6 441 L-2 458 L177 470 Z " />
<glyph glyph-name="z" unicode="z" horiz-adv-x="400" d="M231 -9 Q196 -9 168.5 -3 Q141 3 116.5 10 Q92 17 69.5 23 Q47 29 22 29 Q-9 29 -28 3 L-38 -11 L-51 -5 Q-15 58 27.5 105 Q70 152 115 192.5 Q160 233 206.5 272.5 Q253 312 297 360 L77 360 Q70 351 58.5 331 Q47 311 42 297 L26 297 L83 461 L331 461 Q360 461 375 467.5 Q390 474 400 499 L411 495 Q386 430 345.5 380.5 Q305 331 258 288.5 Q211 246 162.5 206.5 Q114 167 75 122 Q82 124 88.5 124 Q95 124 101 124 Q131 124 154.5 113 Q178 102 199 89 Q223 74 250 58 Q277 42 296 42 Q321 42 321 61 Q321 67 317 74 Q313 81 307 89 L247 160 Q266 183 299 183 Q328 183 344 163 Q360 143 360 119 Q360 88 348 64.5 Q336 41 317 24.5 Q298 8 275.5 -0.5 Q253 -9 231 -9 Z " />
<glyph glyph-name="braceleft" unicode="&#x7b;" horiz-adv-x="408" d="M45 295 L50 316 L65 316 Q103 316 131 339 Q159 362 167 410 Q177 475 183.5 535.5 Q190 596 206.5 642.5 Q223 689 257 716.5 Q291 744 357 744 Q382 744 405.5 740.5 Q429 737 452 732 L448 713 Q434 716 423 717.5 Q412 719 400 719 Q375 719 359 708 Q343 697 333 679 Q323 661 318.5 638.5 Q314 616 312 594 Q306 535 301.5 486 Q297 437 284 399.5 Q271 362 243.5 338 Q216 314 165 305 Q201 294 221.5 271 Q242 248 242 210 Q242 187 236 158.5 Q230 130 220.5 99.5 Q211 69 200.5 37.5 Q190 6 181 -23 Q176 -40 172.5 -54.5 Q169 -69 169 -82 Q169 -129 219 -129 Q238 -129 265 -122 L265 -141 Q211 -156 160 -156 Q103 -156 77.5 -130.5 Q52 -105 52 -60 Q52 -37 61 -8 Q74 38 91 87.5 Q108 137 121 185 Q126 208 126 223 Q126 257 109.5 276 Q93 295 61 295 L45 295 Z " />
<glyph glyph-name="bar" unicode="&#x7c;" horiz-adv-x="251" d="M195 776 L259 776 L59 -161 L-4 -161 L195 776 Z " />
<glyph glyph-name="braceright" unicode="&#x7d;" horiz-adv-x="403" d="M353 293 L348 272 L333 272 Q295 272 267 249 Q239 226 231 178 Q224 135 219.5 93 Q215 51 208.5 14 Q202 -23 191.5 -54 Q181 -85 162 -108 Q143 -131 114 -143.5 Q85 -156 41 -156 Q16 -156 -7.5 -152.5 Q-31 -149 -54 -144 L-50 -125 Q-36 -128 -25 -129.5 Q-14 -131 -2 -131 Q23 -131 39 -120 Q55 -109 65 -91 Q75 -73 79.5 -50.5 Q84 -28 86 -6 Q92 53 96.5 102 Q101 151 114 188.5 Q127 226 154.5 250 Q182 274 233 283 Q197 294 176.5 317 Q156 340 156 378 Q156 401 162 429.5 Q168 458 177.5 488.5 Q187 519 197.5 550.5 Q208 582 217 611 Q222 628 225.5 642.5 Q229 657 229 670 Q229 717 179 717 Q160 717 133 710 L133 729 Q187 744 238 744 Q295 744 320.5 718.5 Q346 693 346 648 Q346 624 337 596 Q324 550 307 500.5 Q290 451 277 403 Q272 380 272 365 Q272 331 288.5 312 Q305 293 337 293 L353 293 Z " />
<glyph glyph-name="asciitilde" unicode="&#x7e;" horiz-adv-x="696" d="M630 375 Q583 242 476 242 Q440 242 403.5 253.5 Q367 265 330.5 279.5 Q294 294 258.5 305.5 Q223 317 190 317 Q154 317 127.5 293 Q101 269 85 234 L44 234 Q91 367 198 367 Q234 367 270.5 355.5 Q307 344 343.5 329.5 Q380 315 415.5 303.5 Q451 292 484 292 Q520 292 546.5 316 Q573 340 589 375 L630 375 Z " />
<glyph glyph-name="uni00A0" unicode="&#xa0;" horiz-adv-x="180" d="" />
<glyph glyph-name="exclamdown" unicode="&#xa1;" horiz-adv-x="292" d="M174 272 Q166 227 161 180.5 Q156 134 154 77 Q152 41 152.5 3 Q153 -35 151 -73 Q150 -108 145 -139.5 Q140 -171 129 -195 Q118 -219 100 -233 Q82 -247 55 -247 Q26 -247 12 -231 Q-2 -215 -2 -189 Q-2 -157 16 -106.5 Q34 -56 58.5 5.5 Q83 67 107 135.5 Q131 204 143 272 L174 272 Z M200 473 Q225 473 238.5 458.5 Q252 444 252 423 Q252 408 246 393.5 Q240 379 229.5 368.5 Q219 358 204.5 351.5 Q190 345 174 345 Q148 345 134 359.5 Q120 374 120 396 Q120 426 143 449.5 Q166 473 200 473 Z " />
<glyph glyph-name="cent" unicode="&#xa2;" horiz-adv-x="522" d="M214 -3 Q182 0 153.5 13 Q125 26 103 50 Q81 74 68.5 108.5 Q56 143 56 188 Q56 262 78 323 Q100 384 137 428.5 Q174 473 223.5 499 Q273 525 327 530 L347 627 L375 627 L355 531 Q415 529 447.5 499 Q480 469 480 429 Q480 379 451.5 350.5 Q423 322 386 322 Q363 322 350.5 333.5 Q338 345 335 353 L441 453 Q427 486 404 496.5 Q381 507 350 509 L249 30 Q254 28 257.5 28 Q261 28 265 28 Q301 28 331 45.5 Q361 63 393 93 L405 77 Q373 42 333.5 20.5 Q294 -1 242 -3 L223 -92 L195 -92 L214 -3 Z M321 505 Q296 497 276 475.5 Q256 454 240.5 424.5 Q225 395 213.5 360 Q202 325 195 290 Q188 255 184.5 222 Q181 189 181 163 Q181 113 190.5 82.5 Q200 52 223 38 L321 505 Z " />
<glyph glyph-name="sterling" unicode="&#xa3;" horiz-adv-x="570" d="M64 319 L133 319 Q133 332 133 343 Q133 354 134 369 Q137 430 157.5 483 Q178 536 213.5 575 Q249 614 299 636 Q349 658 411 658 Q448 658 476 647.5 Q504 637 522 620.5 Q540 604 549 583 Q558 562 558 541 Q558 519 551 498 Q544 477 531.5 461 Q519 445 501.5 435.5 Q484 426 462 426 Q435 426 420.5 437 Q406 448 401 462 L522 581 Q512 604 487 620 Q462 636 432 636 Q370 636 334 589.5 Q298 543 287 463 Q284 441 281.5 423.5 Q279 406 277.5 389.5 Q276 373 274.5 356.5 Q273 340 271 319 L423 319 L416 293 L269 293 Q255 180 203.5 116 Q152 52 69 21 L212 21 Q267 21 307 33 Q347 45 376 69 Q405 93 426 129 Q447 165 466 213 L486 213 L436 0 L-30 0 L-26 21 L-6 21 Q32 22 58.5 39.5 Q85 57 102 86.5 Q119 116 127 154.5 Q135 193 135 235 Q135 246 135 261 Q135 276 134 293 L58 293 L64 319 Z " />
<glyph glyph-name="currency" unicode="&#xa4;" horiz-adv-x="557" d="M467 294 Q467 261 456.5 231.5 Q446 202 426 174 L483 116 L451 85 L395 143 Q364 121 337 111 Q310 101 274 101 Q239 101 211 111 Q183 121 153 143 L97 85 L64 116 L122 174 Q102 202 91.5 231.5 Q81 261 81 294 Q81 328 91.5 358 Q102 388 122 415 L64 473 L97 504 L153 446 Q183 468 211 477 Q239 486 274 486 Q310 486 337 477 Q364 468 395 446 L451 504 L483 473 L426 415 Q446 388 456.5 358 Q467 328 467 294 Z M120 294 Q120 261 131.5 232.5 Q143 204 164 183 Q185 162 213 150 Q241 138 274 138 Q307 138 335.5 150 Q364 162 384.5 183 Q405 204 417 232.5 Q429 261 429 294 Q429 328 417 356.5 Q405 385 384.5 406 Q364 427 335.5 439 Q307 451 274 451 Q241 451 213 439 Q185 427 164 406 Q143 385 131.5 356.5 Q120 328 120 294 Z " />
<glyph glyph-name="yen" unicode="&#xa5;" horiz-adv-x="556" d="M276 629 L338 316 L528 629 L446 629 L450 650 L623 650 L619 629 L558 629 L388 343 L510 343 L503 317 L369 317 L344 276 L336 235 L489 235 L483 209 L331 209 L295 21 L377 21 L373 0 L78 0 L82 21 L163 21 L199 209 L52 209 L57 235 L204 235 L211 270 L202 317 L76 317 L81 343 L195 343 L133 629 L72 629 L76 650 L368 650 L364 629 L276 629 Z " />
<glyph glyph-name="brokenbar" unicode="&#xa6;" horiz-adv-x="250" d="M75 214 L139 214 L59 -161 L-4 -161 L75 214 Z M195 776 L259 776 L179 402 L115 402 L195 776 Z " />
<glyph glyph-name="section" unicode="&#xa7;" horiz-adv-x="545" d="M326 125 Q338 128 352 135.5 Q366 143 378 153.5 Q390 164 397.5 177.5 Q405 191 405 207 Q405 232 385 259 Q365 286 335.5 311.5 Q306 337 272.5 361 Q239 385 212 405 Q182 395 160.5 372.5 Q139 350 139 323 Q139 289 158 261.5 Q177 234 205.5 210 Q234 186 266.5 165.5 Q299 145 326 125 Z M166 -154 Q217 -154 252 -129.5 Q287 -105 287 -60 Q287 -36 278.5 -17.5 Q270 1 254 17.5 Q238 34 214.5 50.5 Q191 67 161 87 Q96 129 65.5 167 Q35 205 35 242 Q35 276 49 304 Q63 332 86 354 Q109 376 138 391.5 Q167 407 197 417 Q163 446 145 471.5 Q127 497 127 532 Q127 567 144 598 Q161 629 192.5 652.5 Q224 676 269 690 Q314 704 371 704 Q411 704 441.5 694.5 Q472 685 491.5 670 Q511 655 521 636 Q531 617 531 598 Q531 554 505.5 527 Q480 500 444 500 Q420 500 405 509 Q390 518 385 528 L494 628 Q477 654 449 668 Q421 682 377 682 Q346 682 322 674 Q298 666 282 652.5 Q266 639 258 621.5 Q250 604 250 586 Q250 568 257 553.5 Q264 539 280 523 Q296 507 320.5 488.5 Q345 470 381 444 Q438 403 471.5 366.5 Q505 330 505 288 Q505 252 492.5 225 Q480 198 458.5 177 Q437 156 407 140.5 Q377 125 342 112 Q378 83 395.5 55 Q413 27 413 -5 Q413 -39 396.5 -70 Q380 -101 348.5 -124.5 Q317 -148 272.5 -162 Q228 -176 172 -176 Q131 -176 100 -166.5 Q69 -157 48 -141.5 Q27 -126 16.5 -106.5 Q6 -87 6 -68 Q6 -46 13 -28.5 Q20 -11 32 2 Q44 15 60 22 Q76 29 94 29 Q118 29 132.5 19.5 Q147 10 152 0 L43 -99 Q60 -125 91 -139.5 Q122 -154 166 -154 Z " />
<glyph glyph-name="dieresis" unicode="&#xa8;" horiz-adv-x="384" d="M419 615 Q419 581 396 557.5 Q373 534 340 534 Q316 534 301 549.5 Q286 565 286 588 Q286 603 292.5 617.5 Q299 632 310 643 Q321 654 335.5 661 Q350 668 366 668 Q390 668 404.5 653 Q419 638 419 615 Z M214 613 Q214 597 207.5 582.5 Q201 568 190 557.5 Q179 547 164.5 540.5 Q150 534 134 534 Q109 534 95 549 Q81 564 81 587 Q81 602 87.5 617 Q94 632 104.5 643 Q115 654 129.5 661 Q144 668 161 668 Q184 668 199 652 Q214 636 214 613 Z " />
<glyph glyph-name="copyright" unicode="&#xa9;" horiz-adv-x="758" d="M538 209 Q514 180 482.5 163.5 Q451 147 406 147 Q358 147 322.5 163.5 Q287 180 263.5 208 Q240 236 228 272 Q216 308 216 347 Q216 384 228.5 419 Q241 454 265.5 482 Q290 510 327 527 Q364 544 414 544 Q445 544 467 536 Q489 528 503.5 515.5 Q518 503 525 487.5 Q532 472 532 458 Q532 437 519 425.5 Q506 414 489 414 Q475 414 466.5 419.5 Q458 425 454 430 L508 490 Q494 509 472 520 Q450 531 418 531 Q382 531 357 517 Q332 503 317 478.5 Q302 454 295.5 422 Q289 390 289 354 Q289 305 299 269.5 Q309 234 326.5 211.5 Q344 189 366.5 178 Q389 167 414 167 Q449 167 476 178.5 Q503 190 528 219 L538 209 Z M53 349 Q53 419 80 481.5 Q107 544 153 590 Q199 636 261 663 Q323 690 393 690 Q463 690 525.5 663 Q588 636 634 590 Q680 544 707 481.5 Q734 419 734 349 Q734 279 707 217 Q680 155 634 109 Q588 63 525.5 36 Q463 9 393 9 Q323 9 261 36 Q199 63 153 109 Q107 155 80 217 Q53 279 53 349 Z M100 349 Q100 288 123 233.5 Q146 179 185.5 138 Q225 97 278.5 73 Q332 49 393 49 Q454 49 508 73 Q562 97 602 138 Q642 179 665.5 233.5 Q689 288 689 349 Q689 410 665.5 464.5 Q642 519 602 559.5 Q562 600 508 623.5 Q454 647 393 647 Q332 647 278.5 623.5 Q225 600 185.5 559.5 Q146 519 123 464.5 Q100 410 100 349 Z " />
<glyph glyph-name="ordfeminine" unicode="&#xaa;" horiz-adv-x="362" d="M188 416 Q206 416 223 439.5 Q240 463 253 497.5 Q266 532 274 571.5 Q282 611 282 643 Q282 664 276 678.5 Q270 693 254 693 Q231 693 213 672.5 Q195 652 183 621.5 Q171 591 164.5 554 Q158 517 158 484 Q158 473 158.5 461.5 Q159 450 162 439.5 Q165 429 171 422.5 Q177 416 188 416 Z M155 387 Q118 387 93 414 Q68 441 68 497 Q68 533 79.5 571 Q91 609 113 640 Q135 671 167 690.5 Q199 710 241 710 Q261 710 281 702 Q301 694 315 677 L335 704 L388 704 L339 472 Q336 457 334.5 449 Q333 441 333 436 Q333 420 343 420 Q353 420 363 431.5 Q373 443 382 458 L394 451 Q377 421 355.5 404 Q334 387 308 387 Q280 387 267.5 405.5 Q255 424 255 456 Q240 427 213.5 407 Q187 387 155 387 Z " />
<glyph glyph-name="guillemotleft" unicode="&#xab;" horiz-adv-x="523" d="M409 54 L253 235 L260 265 L481 435 L501 421 L373 248 L434 66 L409 54 Z M193 54 L37 235 L44 265 L265 435 L285 421 L157 248 L218 66 L193 54 Z " />
<glyph glyph-name="logicalnot" unicode="&#xac;" horiz-adv-x="696" d="M497 146 L536 332 L61 332 L71 381 L600 381 L551 146 L497 146 Z " />
<glyph glyph-name="uni00AD" unicode="&#xad;" horiz-adv-x="370" d="M53 282 L315 282 L297 223 L35 223 L53 282 Z " />
<glyph glyph-name="registered" unicode="&#xae;" horiz-adv-x="454" d="M342 564 Q342 546 329 532 Q316 518 289 513 Q308 510 317 496 Q326 482 331 453 L332 448 Q335 432 339.5 426 Q344 420 351 420 Q356 420 362 429 L367 424 Q363 416 357 410 Q351 404 338 404 Q326 404 314 412.5 Q302 421 296 451 L294 461 Q289 482 284 494 Q279 506 261 506 L234 506 L234 415 L261 415 L261 407 L176 407 L176 415 L200 415 L200 605 L176 605 L176 616 L269 616 Q312 616 327 600.5 Q342 585 342 564 Z M234 605 L234 516 L255 516 Q302 516 302 564 Q302 589 291 597 Q280 605 255 605 L234 605 Z M266 708 Q308 708 344 692.5 Q380 677 407 650 Q434 623 449 586.5 Q464 550 464 508 Q464 466 448.5 430 Q433 394 406 367 Q379 340 343 324.5 Q307 309 266 309 Q225 309 189 324.5 Q153 340 126 367 Q99 394 83.5 430 Q68 466 68 508 Q68 550 83.5 586.5 Q99 623 126 650 Q153 677 189 692.5 Q225 708 266 708 Z M266 684 Q231 684 200 669.5 Q169 655 146 631 Q123 607 109.5 575 Q96 543 96 508 Q96 473 109.5 441 Q123 409 146 385 Q169 361 200 347 Q231 333 266 333 Q301 333 332 347 Q363 361 386 385 Q409 409 422.5 441 Q436 473 436 508 Q436 543 422.5 575 Q409 607 386 631 Q363 655 332 669.5 Q301 684 266 684 Z " />
<glyph glyph-name="macron" unicode="&#xaf;" horiz-adv-x="384" d="M81 550 L98 622 L386 622 L370 550 L81 550 Z " />
<glyph glyph-name="degree" unicode="&#xb0;" horiz-adv-x="339" d="M129 569 Q129 532 152 505.5 Q175 479 213 479 Q234 479 252 487.5 Q270 496 283.5 510 Q297 524 305 542.5 Q313 561 313 581 Q313 618 288.5 645.5 Q264 673 227 673 Q207 673 189 664 Q171 655 157.5 640.5 Q144 626 136.5 607.5 Q129 589 129 569 Z M84 564 Q84 593 95 619.5 Q106 646 125.5 666 Q145 686 172 698 Q199 710 230 710 Q258 710 281 700 Q304 690 320.5 673 Q337 656 346.5 633 Q356 610 356 584 Q356 554 344.5 528 Q333 502 312.5 482.5 Q292 463 265.5 451.5 Q239 440 209 440 Q183 440 160 449.5 Q137 459 120 475.5 Q103 492 93.5 515 Q84 538 84 564 Z " />
<glyph glyph-name="plusminus" unicode="&#xb1;" horiz-adv-x="696" d="M372 340 L333 169 L274 169 L313 340 L77 340 L87 390 L323 390 L361 560 L420 560 L382 390 L618 390 L608 340 L372 340 Z M18 70 L28 118 L559 118 L549 70 L18 70 Z " />
<glyph glyph-name="twosuperior" unicode="&#xb2;" horiz-adv-x="338" d="M316 317 Q306 307 292.5 304 Q279 301 265 301 Q244 301 225 306 Q206 311 187 317 Q168 323 150 328 Q132 333 113 333 Q90 333 72 323.5 Q54 314 40 299 L31 306 Q48 329 70.5 354 Q93 379 119 403 Q147 428 175 454.5 Q203 481 225 509.5 Q247 538 260.5 567.5 Q274 597 274 629 Q274 661 257.5 674 Q241 687 224 687 Q205 687 189 679.5 Q173 672 159 659 L202 583 Q195 573 182 565 Q169 557 151 557 Q131 557 118 570.5 Q105 584 105 604 Q105 622 115 641 Q125 660 144.5 675.5 Q164 691 191 700.5 Q218 710 253 710 Q305 710 335 685.5 Q365 661 365 619 Q365 591 353 567.5 Q341 544 322 524 Q303 504 278.5 486 Q254 468 229 451 Q203 434 177.5 417.5 Q152 401 126 378 Q146 388 174 388 Q199 388 221 380.5 Q243 373 269 373 Q276 373 283.5 374.5 Q291 376 298.5 381.5 Q306 387 313 398 Q320 409 327 427 L342 427 L316 317 Z " />
<glyph glyph-name="threesuperior" unicode="&#xb3;" horiz-adv-x="325" d="M56 339 Q76 331 89.5 328.5 Q103 326 119 326 Q143 326 162.5 334.5 Q182 343 195.5 357.5 Q209 372 216 390 Q223 408 223 428 Q223 463 208.5 475.5 Q194 488 174 488 Q163 488 148.5 485.5 Q134 483 119 478 L113 497 L147 507 Q200 521 231.5 556.5 Q263 592 263 634 Q263 663 249.5 674.5 Q236 686 219 686 Q204 686 188.5 679.5 Q173 673 162 662 L200 598 Q186 577 158 577 Q141 577 129 587.5 Q117 598 117 616 Q117 634 126.5 650.5 Q136 667 154 680.5 Q172 694 197 702 Q222 710 252 710 Q300 710 327.5 690 Q355 670 355 636 Q355 595 321 563 Q287 531 235 517 Q274 511 297.5 490 Q321 469 321 434 Q321 408 307.5 384 Q294 360 269.5 341.5 Q245 323 210.5 312 Q176 301 135 301 Q107 301 86 305 Q65 309 48 317 L56 339 Z " />
<glyph glyph-name="acute" unicode="&#xb4;" horiz-adv-x="384" d="M270 660 Q288 678 302.5 687 Q317 696 337 696 Q356 696 368 686 Q380 676 380 659 Q380 639 367 625.5 Q354 612 326 598 L174 519 L131 519 L270 660 Z " />
<glyph glyph-name="mu" unicode="&#xb5;" horiz-adv-x="653" d="M524 75 Q522 65 522 60 Q522 46 528.5 39.5 Q535 33 546 33 Q563 33 578 50 L586 38 Q563 15 534 3 Q505 -9 472 -9 Q442 -9 419.5 4 Q397 17 392 46 Q390 51 389 56 Q388 61 388 67 Q370 43 349 29 Q328 15 305.5 7 Q283 -1 259 -3.5 Q235 -6 211 -6 L168 -207 L-25 -207 L-20 -186 L34 -186 L168 441 L112 441 L117 461 L311 461 L241 132 Q235 106 235 84 Q235 59 244.5 44 Q254 29 282 29 Q326 29 358.5 64 Q391 99 403 157 L463 441 L408 441 L413 461 L606 461 L524 75 Z " />
<glyph glyph-name="paragraph" unicode="&#xb6;" horiz-adv-x="565" d="M64 448 Q64 507 86 553.5 Q108 600 146.5 632 Q185 664 237.5 680.5 Q290 697 352 697 L554 697 L370 -170 L290 -170 L468 666 L397 666 L220 -170 L199 -170 L297 294 L250 294 Q156 294 110 337 Q64 380 64 448 Z " />
<glyph glyph-name="periodcentered" unicode="&#xb7;" horiz-adv-x="256" d="M112 196 Q86 196 71 211.5 Q56 227 56 249 Q56 281 79 305 Q102 329 137 329 Q164 329 179 314.5 Q194 300 194 277 Q194 245 170.5 220.5 Q147 196 112 196 Z " />
<glyph glyph-name="cedilla" unicode="&#xb8;" horiz-adv-x="384" d="M127 9 L152 9 L108 -72 Q120 -69 142 -69 Q185 -69 207.5 -88 Q230 -107 230 -135 Q230 -161 218.5 -180 Q207 -199 189 -211 Q171 -223 148.5 -229 Q126 -235 105 -235 Q69 -235 47.5 -221.5 Q26 -208 26 -187 Q26 -171 36 -161 Q46 -151 60 -151 Q71 -151 79 -156.5 Q87 -162 91 -167 L50 -205 Q54 -210 63 -214.5 Q72 -219 84 -219 Q95 -219 106.5 -215 Q118 -211 127.5 -201.5 Q137 -192 143 -177 Q149 -162 149 -140 Q149 -117 138 -102 Q127 -87 107 -87 Q91 -87 81 -92 L74 -87 L127 9 Z " />
<glyph glyph-name="onesuperior" unicode="&#xb9;" horiz-adv-x="308" d="M105 594 Q124 603 146 616 Q168 629 190.5 643 Q213 657 234.5 671.5 Q256 686 274 700 L312 700 L232 326 L285 326 L282 308 L73 308 L76 326 L136 326 L199 620 Q179 609 155.5 596.5 Q132 584 113 574 L105 594 Z " />
<glyph glyph-name="ordmasculine" unicode="&#xba;" horiz-adv-x="350" d="M257 710 Q321 710 350 674.5 Q379 639 379 588 Q379 551 366.5 515 Q354 479 330.5 450.5 Q307 422 273 404.5 Q239 387 195 387 Q163 387 140 396.5 Q117 406 102 423 Q87 440 80 462.5 Q73 485 73 511 Q73 547 85 583 Q97 619 120 647 Q143 675 177.5 692.5 Q212 710 257 710 Z M198 402 Q220 402 237.5 426 Q255 450 266.5 484 Q278 518 284 556 Q290 594 290 623 Q290 694 255 694 Q236 694 219 671 Q202 648 189 614.5 Q176 581 168.5 542 Q161 503 161 470 Q161 439 169 420.5 Q177 402 198 402 Z " />
<glyph glyph-name="guillemotright" unicode="&#xbb;" horiz-adv-x="523" d="M319 435 L475 254 L468 224 L247 54 L227 68 L355 241 L294 423 L319 435 Z M103 435 L259 254 L252 224 L31 54 L11 68 L139 241 L78 423 L103 435 Z " />
<glyph glyph-name="onequarter" unicode="&#xbc;" horiz-adv-x="814" d="M105 594 Q124 603 146 616 Q168 629 190.5 643 Q213 657 234.5 671.5 Q256 686 274 700 L312 700 L232 326 L285 326 L282 308 L73 308 L76 326 L136 326 L199 620 Q179 609 155.5 596.5 Q132 584 113 574 L105 594 Z M116 -9 L703 691 L750 691 L162 -9 L116 -9 Z M696 110 L752 110 L748 92 L693 92 L678 18 L726 18 L722 0 L534 0 L539 18 L583 18 L599 92 L453 92 L456 110 L695 392 L757 392 L696 110 Z M602 110 L646 302 L483 110 L602 110 Z " />
<glyph glyph-name="onehalf" unicode="&#xbd;" horiz-adv-x="812" d="M105 594 Q124 603 146 616 Q168 629 190.5 643 Q213 657 234.5 671.5 Q256 686 274 700 L312 700 L232 326 L285 326 L282 308 L73 308 L76 326 L136 326 L199 620 Q179 609 155.5 596.5 Q132 584 113 574 L105 594 Z M96 -9 L683 691 L730 691 L142 -9 L96 -9 Z M725 9 Q715 -1 701.5 -4 Q688 -7 674 -7 Q653 -7 634 -2 Q615 3 596 9 Q577 15 559 20 Q541 25 522 25 Q499 25 481 15.5 Q463 6 449 -9 L440 -2 Q457 21 479.5 46 Q502 71 528 95 Q556 120 584 146.5 Q612 173 634 201.5 Q656 230 669.5 259.5 Q683 289 683 321 Q683 353 666.5 366 Q650 379 633 379 Q614 379 598 371.5 Q582 364 568 351 L611 275 Q604 265 591 257 Q578 249 560 249 Q540 249 527 262.5 Q514 276 514 296 Q514 314 524 333 Q534 352 553.5 367.5 Q573 383 600 392.5 Q627 402 662 402 Q714 402 744 377.5 Q774 353 774 311 Q774 283 762 259.5 Q750 236 731 216 Q712 196 687.5 178 Q663 160 638 143 Q612 126 586.5 109.5 Q561 93 535 70 Q555 80 583 80 Q608 80 630 72.5 Q652 65 678 65 Q685 65 692.5 66.5 Q700 68 707.5 73.5 Q715 79 722 90 Q729 101 736 119 L751 119 L725 9 Z " />
<glyph glyph-name="threequarters" unicode="&#xbe;" horiz-adv-x="831" d="M56 339 Q76 331 89.5 328.5 Q103 326 119 326 Q143 326 162.5 334.5 Q182 343 195.5 357.5 Q209 372 216 390 Q223 408 223 428 Q223 463 208.5 475.5 Q194 488 174 488 Q163 488 148.5 485.5 Q134 483 119 478 L113 497 L147 507 Q200 521 231.5 556.5 Q263 592 263 634 Q263 663 249.5 674.5 Q236 686 219 686 Q204 686 188.5 679.5 Q173 673 162 662 L200 598 Q186 577 158 577 Q141 577 129 587.5 Q117 598 117 616 Q117 634 126.5 650.5 Q136 667 154 680.5 Q172 694 197 702 Q222 710 252 710 Q300 710 327.5 690 Q355 670 355 636 Q355 595 321 563 Q287 531 235 517 Q274 511 297.5 490 Q321 469 321 434 Q321 408 307.5 384 Q294 360 269.5 341.5 Q245 323 210.5 312 Q176 301 135 301 Q107 301 86 305 Q65 309 48 317 L56 339 Z M123 -9 L710 691 L757 691 L169 -9 L123 -9 Z M713 110 L769 110 L765 92 L710 92 L695 18 L743 18 L739 0 L551 0 L556 18 L600 18 L616 92 L470 92 L473 110 L712 392 L774 392 L713 110 Z M619 110 L663 302 L500 110 L619 110 Z " />
<glyph glyph-name="questiondown" unicode="&#xbf;" horiz-adv-x="433" d="M234 -38 Q241 -30 259.5 -18 Q278 -6 307 -6 Q336 -6 354 -23.5 Q372 -41 372 -70 Q372 -102 356 -133.5 Q340 -165 309.5 -190.5 Q279 -216 235 -232 Q191 -248 134 -248 Q95 -248 64 -238 Q33 -228 11 -211 Q-11 -194 -23 -170 Q-35 -146 -35 -117 Q-35 -75 -18 -41 Q-1 -7 27 21 Q55 49 89.5 72 Q124 95 160 115 Q182 128 196 139 Q210 150 219 162.5 Q228 175 233 192 Q238 209 243 233 L250 271 L281 271 L265 191 Q260 166 245 144.5 Q230 123 211 102 Q192 81 170.5 59.5 Q149 38 131.5 11.5 Q114 -15 102.5 -48 Q91 -81 91 -123 Q91 -171 118.5 -194.5 Q146 -218 184 -218 Q203 -218 222.5 -212.5 Q242 -207 259 -197.5 Q276 -188 289.5 -176 Q303 -164 311 -151 L234 -38 Z M306 472 Q331 472 345 457.5 Q359 443 359 422 Q359 391 336 367.5 Q313 344 280 344 Q254 344 240 358.5 Q226 373 226 395 Q226 425 249.5 448.5 Q273 472 306 472 Z " />
<glyph glyph-name="Agrave" unicode="&#xc0;" horiz-adv-x="583" d="M252 21 L351 21 L323 227 L117 227 L5 21 L102 21 L97 0 L-75 0 L-70 21 L-24 21 L350 704 L397 704 L491 21 L536 21 L531 0 L247 0 L252 21 Z M281 529 L131 251 L319 251 L281 529 Z M512 756 L476 756 L332 839 Q313 850 304 861 Q295 872 295 886 Q295 905 310 919.5 Q325 934 346 934 Q367 934 380.5 924.5 Q394 915 407 898 L512 756 Z " />
<glyph glyph-name="Aacute" unicode="&#xc1;" horiz-adv-x="583" d="M252 21 L351 21 L323 227 L117 227 L5 21 L102 21 L97 0 L-75 0 L-70 21 L-24 21 L350 704 L397 704 L491 21 L536 21 L531 0 L247 0 L252 21 Z M281 529 L131 251 L319 251 L281 529 Z M414 898 Q432 916 446.5 925 Q461 934 481 934 Q500 934 512 924 Q524 914 524 897 Q524 877 511 863.5 Q498 850 470 836 L318 757 L275 757 L414 898 Z " />
<glyph glyph-name="Acircumflex" unicode="&#xc2;" horiz-adv-x="583" d="M252 21 L351 21 L323 227 L117 227 L5 21 L102 21 L97 0 L-75 0 L-70 21 L-24 21 L350 704 L397 704 L491 21 L536 21 L531 0 L247 0 L252 21 Z M281 529 L131 251 L319 251 L281 529 Z M494 752 L381 839 L235 753 L218 766 L372 928 L429 928 L518 766 L494 752 Z " />
<glyph glyph-name="Atilde" unicode="&#xc3;" horiz-adv-x="583" d="M252 21 L351 21 L323 227 L117 227 L5 21 L102 21 L97 0 L-75 0 L-70 21 L-24 21 L350 704 L397 704 L491 21 L536 21 L531 0 L247 0 L252 21 Z M281 529 L131 251 L319 251 L281 529 Z M565 904 Q550 844 519 809.5 Q488 775 440 775 Q420 775 401 782 Q382 789 364.5 797.5 Q347 806 330 813 Q313 820 297 820 Q280 820 261.5 810.5 Q243 801 229 772 L215 772 Q228 828 262 863 Q296 898 342 898 Q364 898 383 891 Q402 884 419 876 Q436 868 452.5 861 Q469 854 486 854 Q505 854 522 866 Q539 878 551 904 L565 904 Z " />
<glyph glyph-name="Adieresis" unicode="&#xc4;" horiz-adv-x="583" d="M252 21 L351 21 L323 227 L117 227 L5 21 L102 21 L97 0 L-75 0 L-70 21 L-24 21 L350 704 L397 704 L491 21 L536 21 L531 0 L247 0 L252 21 Z M281 529 L131 251 L319 251 L281 529 Z M555 853 Q555 819 532 795.5 Q509 772 476 772 Q452 772 437 787.5 Q422 803 422 826 Q422 841 428.5 855.5 Q435 870 446 881 Q457 892 471.5 899 Q486 906 502 906 Q526 906 540.5 891 Q555 876 555 853 Z M350 851 Q350 835 343.5 820.5 Q337 806 326 795.5 Q315 785 300.5 778.5 Q286 772 270 772 Q245 772 231 787 Q217 802 217 825 Q217 840 223.5 855 Q230 870 240.5 881 Q251 892 265.5 899 Q280 906 297 906 Q320 906 335 890 Q350 874 350 851 Z " />
<glyph glyph-name="Aring" unicode="&#xc5;" horiz-adv-x="583" d="M252 21 L351 21 L323 227 L117 227 L5 21 L102 21 L97 0 L-75 0 L-70 21 L-24 21 L350 704 L397 704 L491 21 L536 21 L531 0 L247 0 L252 21 Z M281 529 L131 251 L319 251 L281 529 Z M511 880 Q511 853 500.5 828.5 Q490 804 471.5 785.5 Q453 767 428 756 Q403 745 374 745 Q332 745 308 769 Q284 793 284 831 Q284 859 295 883.5 Q306 908 325 927 Q344 946 369 957 Q394 968 422 968 Q465 968 488 943 Q511 918 511 880 Z M380 767 Q396 767 408.5 780 Q421 793 428.5 812 Q436 831 440 852.5 Q444 874 444 891 Q444 912 439.5 929.5 Q435 947 418 947 Q402 947 390 933.5 Q378 920 369.5 900.5 Q361 881 356.5 859 Q352 837 352 820 Q352 800 357.5 783.5 Q363 767 380 767 Z " />
<glyph glyph-name="AE" unicode="&#xc6;" horiz-adv-x="848" d="M-25 21 L429 676 L354 676 L359 697 L742 697 Q806 697 837 669 Q868 641 868 599 Q868 579 860 559.5 Q852 540 838 525 Q824 510 804 500.5 Q784 491 760 491 Q737 491 722.5 499.5 Q708 508 700 519 L816 643 Q803 661 784 668.5 Q765 676 730 676 L588 676 L520 357 L695 357 L690 335 L515 335 L449 21 L516 21 Q570 21 610 31.5 Q650 42 679 61 Q708 80 727 106.5 Q746 133 758 165 L768 194 L785 194 L740 0 L230 0 L235 21 L313 21 L360 239 L153 239 L4 21 L97 21 L92 0 L-77 0 L-72 21 L-25 21 Z M365 261 L455 676 L168 261 L365 261 Z " />
<glyph glyph-name="Ccedilla" unicode="&#xc7;" horiz-adv-x="576" d="M281 -9 Q219 -8 175.5 14.5 Q132 37 104 74.5 Q76 112 63 162 Q50 212 50 269 Q50 345 74.5 423 Q99 501 147 565 Q195 629 265.5 669.5 Q336 710 428 710 Q476 710 509.5 698 Q543 686 564 666.5 Q585 647 594 622.5 Q603 598 603 574 Q603 548 595 527.5 Q587 507 573 492.5 Q559 478 540.5 470 Q522 462 501 462 Q472 462 457.5 471.5 Q443 481 435 492 L566 620 Q552 649 523 668 Q494 687 446 687 Q383 687 336.5 647.5 Q290 608 259.5 545.5 Q229 483 214.5 405 Q200 327 200 251 Q200 136 234 81 Q268 26 331 26 Q368 26 398.5 40 Q429 54 452.5 76.5 Q476 99 493.5 126 Q511 153 524 179 L542 168 Q528 138 507 108 Q486 78 457 53 Q428 28 390.5 11.5 Q353 -5 306 -8 L272 -72 Q284 -69 306 -69 Q349 -69 371.5 -88 Q394 -107 394 -135 Q394 -161 382.5 -180 Q371 -199 353 -211 Q335 -223 312.5 -229 Q290 -235 269 -235 Q233 -235 211.5 -221.5 Q190 -208 190 -187 Q190 -171 200 -161 Q210 -151 224 -151 Q235 -151 243 -156.5 Q251 -162 255 -167 L214 -205 Q218 -210 227 -214.5 Q236 -219 248 -219 Q259 -219 270.5 -215 Q282 -211 291.5 -201.5 Q301 -192 307 -177 Q313 -162 313 -140 Q313 -117 302 -102 Q291 -87 271 -87 Q255 -87 245 -92 L238 -87 L281 -9 Z " />
<glyph glyph-name="Egrave" unicode="&#xc8;" horiz-adv-x="587" d="M478 697 Q544 697 575.5 669 Q607 641 607 603 Q607 556 577.5 523.5 Q548 491 499 491 Q474 491 460.5 499.5 Q447 508 439 519 L557 643 Q546 660 526.5 668 Q507 676 470 676 L317 676 L250 357 L434 357 L429 335 L245 335 L178 21 L250 21 Q357 21 416.5 59 Q476 97 499 161 L510 191 L526 191 L484 0 L-40 0 L-35 21 L42 21 L181 676 L103 676 L107 697 L478 697 Z M525 756 L489 756 L345 839 Q326 850 317 861 Q308 872 308 886 Q308 905 323 919.5 Q338 934 359 934 Q380 934 393.5 924.5 Q407 915 420 898 L525 756 Z " />
<glyph glyph-name="Eacute" unicode="&#xc9;" horiz-adv-x="587" d="M478 697 Q544 697 575.5 669 Q607 641 607 603 Q607 556 577.5 523.5 Q548 491 499 491 Q474 491 460.5 499.5 Q447 508 439 519 L557 643 Q546 660 526.5 668 Q507 676 470 676 L317 676 L250 357 L434 357 L429 335 L245 335 L178 21 L250 21 Q357 21 416.5 59 Q476 97 499 161 L510 191 L526 191 L484 0 L-40 0 L-35 21 L42 21 L181 676 L103 676 L107 697 L478 697 Z M427 898 Q445 916 459.5 925 Q474 934 494 934 Q513 934 525 924 Q537 914 537 897 Q537 877 524 863.5 Q511 850 483 836 L331 757 L288 757 L427 898 Z " />
<glyph glyph-name="Ecircumflex" unicode="&#xca;" horiz-adv-x="587" d="M478 697 Q544 697 575.5 669 Q607 641 607 603 Q607 556 577.5 523.5 Q548 491 499 491 Q474 491 460.5 499.5 Q447 508 439 519 L557 643 Q546 660 526.5 668 Q507 676 470 676 L317 676 L250 357 L434 357 L429 335 L245 335 L178 21 L250 21 Q357 21 416.5 59 Q476 97 499 161 L510 191 L526 191 L484 0 L-40 0 L-35 21 L42 21 L181 676 L103 676 L107 697 L478 697 Z M507 752 L394 839 L248 753 L231 766 L385 928 L442 928 L531 766 L507 752 Z " />
<glyph glyph-name="Edieresis" unicode="&#xcb;" horiz-adv-x="587" d="M478 697 Q544 697 575.5 669 Q607 641 607 603 Q607 556 577.5 523.5 Q548 491 499 491 Q474 491 460.5 499.5 Q447 508 439 519 L557 643 Q546 660 526.5 668 Q507 676 470 676 L317 676 L250 357 L434 357 L429 335 L245 335 L178 21 L250 21 Q357 21 416.5 59 Q476 97 499 161 L510 191 L526 191 L484 0 L-40 0 L-35 21 L42 21 L181 676 L103 676 L107 697 L478 697 Z M581 853 Q581 819 558 795.5 Q535 772 502 772 Q478 772 463 787.5 Q448 803 448 826 Q448 841 454.5 855.5 Q461 870 472 881 Q483 892 497.5 899 Q512 906 528 906 Q552 906 566.5 891 Q581 876 581 853 Z M376 851 Q376 835 369.5 820.5 Q363 806 352 795.5 Q341 785 326.5 778.5 Q312 772 296 772 Q271 772 257 787 Q243 802 243 825 Q243 840 249.5 855 Q256 870 266.5 881 Q277 892 291.5 899 Q306 906 323 906 Q346 906 361 890 Q376 874 376 851 Z " />
<glyph glyph-name="Igrave" unicode="&#xcc;" horiz-adv-x="344" d="M-36 0 L-31 21 L46 21 L185 676 L107 676 L111 697 L404 697 L400 676 L321 676 L182 21 L260 21 L255 0 L-36 0 Z M408 756 L372 756 L228 839 Q209 850 200 861 Q191 872 191 886 Q191 905 206 919.5 Q221 934 242 934 Q263 934 276.5 924.5 Q290 915 303 898 L408 756 Z " />
<glyph glyph-name="Iacute" unicode="&#xcd;" horiz-adv-x="344" d="M-36 0 L-31 21 L46 21 L185 676 L107 676 L111 697 L404 697 L400 676 L321 676 L182 21 L260 21 L255 0 L-36 0 Z M320 898 Q338 916 352.5 925 Q367 934 387 934 Q406 934 418 924 Q430 914 430 897 Q430 877 417 863.5 Q404 850 376 836 L224 757 L181 757 L320 898 Z " />
<glyph glyph-name="Icircumflex" unicode="&#xce;" horiz-adv-x="344" d="M-36 0 L-31 21 L46 21 L185 676 L107 676 L111 697 L404 697 L400 676 L321 676 L182 21 L260 21 L255 0 L-36 0 Z M397 752 L284 839 L138 753 L121 766 L275 928 L332 928 L421 766 L397 752 Z " />
<glyph glyph-name="Idieresis" unicode="&#xcf;" horiz-adv-x="344" d="M-36 0 L-31 21 L46 21 L185 676 L107 676 L111 697 L404 697 L400 676 L321 676 L182 21 L260 21 L255 0 L-36 0 Z M462 853 Q462 819 439 795.5 Q416 772 383 772 Q359 772 344 787.5 Q329 803 329 826 Q329 841 335.5 855.5 Q342 870 353 881 Q364 892 378.5 899 Q393 906 409 906 Q433 906 447.5 891 Q462 876 462 853 Z M257 851 Q257 835 250.5 820.5 Q244 806 233 795.5 Q222 785 207.5 778.5 Q193 772 177 772 Q152 772 138 787 Q124 802 124 825 Q124 840 130.5 855 Q137 870 147.5 881 Q158 892 172.5 899 Q187 906 204 906 Q227 906 242 890 Q257 874 257 851 Z " />
<glyph glyph-name="Eth" unicode="&#xd0;" horiz-adv-x="695" d="M190 21 L226 21 Q295 21 351 51 Q407 81 447.5 138 Q488 195 510 276.5 Q532 358 532 460 Q532 575 480.5 629.5 Q429 684 332 684 L265 370 L395 370 L390 346 L259 346 L190 21 Z M52 346 L58 370 L129 370 L163 533 Q174 584 189 618 Q204 652 232 675 Q200 669 163 658 Q126 647 99 634 L92 656 Q108 663 132.5 672.5 Q157 682 190 690 Q223 698 264.5 704 Q306 710 357 710 Q431 710 489 689.5 Q547 669 586.5 630.5 Q626 592 647 536.5 Q668 481 668 411 Q668 327 638.5 252 Q609 177 553.5 121 Q498 65 417.5 32.5 Q337 0 235 0 L-28 0 L-23 21 L54 21 L124 346 L52 346 Z " />
<glyph glyph-name="Ntilde" unicode="&#xd1;" horiz-adv-x="678" d="M106 697 L344 697 L525 156 L636 676 L555 676 L559 697 L744 697 L739 676 L661 676 L517 0 L430 0 L202 660 L66 21 L162 21 L157 0 L-41 0 L-36 21 L41 21 L179 676 L101 676 L106 697 Z M638 904 Q623 844 592 809.5 Q561 775 513 775 Q493 775 474 782 Q455 789 437.5 797.5 Q420 806 403 813 Q386 820 370 820 Q353 820 334.5 810.5 Q316 801 302 772 L288 772 Q301 828 335 863 Q369 898 415 898 Q437 898 456 891 Q475 884 492 876 Q509 868 525.5 861 Q542 854 559 854 Q578 854 595 866 Q612 878 624 904 L638 904 Z " />
<glyph glyph-name="Ograve" unicode="&#xd2;" horiz-adv-x="689" d="M429 710 Q485 710 528.5 690 Q572 670 601.5 635 Q631 600 646.5 552 Q662 504 662 449 Q662 366 638.5 284 Q615 202 567.5 137 Q520 72 449.5 31.5 Q379 -9 286 -9 Q171 -9 110.5 60.5 Q50 130 50 258 Q50 339 77 419.5 Q104 500 153.5 564.5 Q203 629 273 669.5 Q343 710 429 710 Z M291 14 Q327 14 358.5 39 Q390 64 415.5 105.5 Q441 147 460.5 201 Q480 255 493.5 312 Q507 369 514 425 Q521 481 521 527 Q521 601 499 644.5 Q477 688 424 688 Q389 688 358.5 663.5 Q328 639 302 598 Q276 557 256 504 Q236 451 222 394 Q208 337 200.5 280 Q193 223 193 175 Q193 99 215.5 56.5 Q238 14 291 14 Z M589 756 L553 756 L409 839 Q390 850 381 861 Q372 872 372 886 Q372 905 387 919.5 Q402 934 423 934 Q444 934 457.5 924.5 Q471 915 484 898 L589 756 Z " />
<glyph glyph-name="Oacute" unicode="&#xd3;" horiz-adv-x="689" d="M429 710 Q485 710 528.5 690 Q572 670 601.5 635 Q631 600 646.5 552 Q662 504 662 449 Q662 366 638.5 284 Q615 202 567.5 137 Q520 72 449.5 31.5 Q379 -9 286 -9 Q171 -9 110.5 60.5 Q50 130 50 258 Q50 339 77 419.5 Q104 500 153.5 564.5 Q203 629 273 669.5 Q343 710 429 710 Z M291 14 Q327 14 358.5 39 Q390 64 415.5 105.5 Q441 147 460.5 201 Q480 255 493.5 312 Q507 369 514 425 Q521 481 521 527 Q521 601 499 644.5 Q477 688 424 688 Q389 688 358.5 663.5 Q328 639 302 598 Q276 557 256 504 Q236 451 222 394 Q208 337 200.5 280 Q193 223 193 175 Q193 99 215.5 56.5 Q238 14 291 14 Z M492 898 Q510 916 524.5 925 Q539 934 559 934 Q578 934 590 924 Q602 914 602 897 Q602 877 589 863.5 Q576 850 548 836 L396 757 L353 757 L492 898 Z " />
<glyph glyph-name="Ocircumflex" unicode="&#xd4;" horiz-adv-x="689" d="M429 710 Q485 710 528.5 690 Q572 670 601.5 635 Q631 600 646.5 552 Q662 504 662 449 Q662 366 638.5 284 Q615 202 567.5 137 Q520 72 449.5 31.5 Q379 -9 286 -9 Q171 -9 110.5 60.5 Q50 130 50 258 Q50 339 77 419.5 Q104 500 153.5 564.5 Q203 629 273 669.5 Q343 710 429 710 Z M291 14 Q327 14 358.5 39 Q390 64 415.5 105.5 Q441 147 460.5 201 Q480 255 493.5 312 Q507 369 514 425 Q521 481 521 527 Q521 601 499 644.5 Q477 688 424 688 Q389 688 358.5 663.5 Q328 639 302 598 Q276 557 256 504 Q236 451 222 394 Q208 337 200.5 280 Q193 223 193 175 Q193 99 215.5 56.5 Q238 14 291 14 Z M572 752 L459 839 L313 753 L296 766 L450 928 L507 928 L596 766 L572 752 Z " />
<glyph glyph-name="Otilde" unicode="&#xd5;" horiz-adv-x="689" d="M429 710 Q485 710 528.5 690 Q572 670 601.5 635 Q631 600 646.5 552 Q662 504 662 449 Q662 366 638.5 284 Q615 202 567.5 137 Q520 72 449.5 31.5 Q379 -9 286 -9 Q171 -9 110.5 60.5 Q50 130 50 258 Q50 339 77 419.5 Q104 500 153.5 564.5 Q203 629 273 669.5 Q343 710 429 710 Z M291 14 Q327 14 358.5 39 Q390 64 415.5 105.5 Q441 147 460.5 201 Q480 255 493.5 312 Q507 369 514 425 Q521 481 521 527 Q521 601 499 644.5 Q477 688 424 688 Q389 688 358.5 663.5 Q328 639 302 598 Q276 557 256 504 Q236 451 222 394 Q208 337 200.5 280 Q193 223 193 175 Q193 99 215.5 56.5 Q238 14 291 14 Z M645 904 Q630 844 599 809.5 Q568 775 520 775 Q500 775 481 782 Q462 789 444.5 797.5 Q427 806 410 813 Q393 820 377 820 Q360 820 341.5 810.5 Q323 801 309 772 L295 772 Q308 828 342 863 Q376 898 422 898 Q444 898 463 891 Q482 884 499 876 Q516 868 532.5 861 Q549 854 566 854 Q585 854 602 866 Q619 878 631 904 L645 904 Z " />
<glyph glyph-name="Odieresis" unicode="&#xd6;" horiz-adv-x="689" d="M429 710 Q485 710 528.5 690 Q572 670 601.5 635 Q631 600 646.5 552 Q662 504 662 449 Q662 366 638.5 284 Q615 202 567.5 137 Q520 72 449.5 31.5 Q379 -9 286 -9 Q171 -9 110.5 60.5 Q50 130 50 258 Q50 339 77 419.5 Q104 500 153.5 564.5 Q203 629 273 669.5 Q343 710 429 710 Z M291 14 Q327 14 358.5 39 Q390 64 415.5 105.5 Q441 147 460.5 201 Q480 255 493.5 312 Q507 369 514 425 Q521 481 521 527 Q521 601 499 644.5 Q477 688 424 688 Q389 688 358.5 663.5 Q328 639 302 598 Q276 557 256 504 Q236 451 222 394 Q208 337 200.5 280 Q193 223 193 175 Q193 99 215.5 56.5 Q238 14 291 14 Z M638 853 Q638 819 615 795.5 Q592 772 559 772 Q535 772 520 787.5 Q505 803 505 826 Q505 841 511.5 855.5 Q518 870 529 881 Q540 892 554.5 899 Q569 906 585 906 Q609 906 623.5 891 Q638 876 638 853 Z M433 851 Q433 835 426.5 820.5 Q420 806 409 795.5 Q398 785 383.5 778.5 Q369 772 353 772 Q328 772 314 787 Q300 802 300 825 Q300 840 306.5 855 Q313 870 323.5 881 Q334 892 348.5 899 Q363 906 380 906 Q403 906 418 890 Q433 874 433 851 Z " />
<glyph glyph-name="multiply" unicode="&#xd7;" horiz-adv-x="696" d="M492 60 L322 264 L76 67 L44 105 L292 300 L131 495 L182 535 L344 342 L589 538 L620 501 L374 305 L543 101 L492 60 Z " />
<glyph glyph-name="Oslash" unicode="&#xd8;" horiz-adv-x="670" d="M420 710 Q469 710 508.5 694.5 Q548 679 577 652 L649 743 L682 743 L595 632 Q624 597 638.5 550 Q653 503 653 449 Q653 366 629.5 284 Q606 202 558.5 137 Q511 72 440.5 31.5 Q370 -9 277 -9 Q184 -9 126 38 L56 -50 L23 -50 L106 56 Q41 124 41 258 Q41 339 68 419.5 Q95 500 144.5 564.5 Q194 629 264 669.5 Q334 710 420 710 Z M184 154 L510 567 Q505 624 483 656 Q461 688 415 688 Q380 688 349.5 663.5 Q319 639 293 598 Q267 557 247 504 Q227 451 213 394 Q199 337 191.5 280 Q184 223 184 175 L184 154 Z M282 14 Q318 14 349.5 39 Q381 64 406.5 105.5 Q432 147 451.5 201 Q471 255 484.5 312 Q498 369 505 425 Q512 481 512 527 L188 117 Q196 67 218 40.5 Q240 14 282 14 Z " />
<glyph glyph-name="Ugrave" unicode="&#xd9;" horiz-adv-x="663" d="M394 697 L390 676 L308 676 L213 231 Q208 210 206.5 191 Q205 172 205 154 Q205 118 215 93.5 Q225 69 242 53.5 Q259 38 281 31.5 Q303 25 327 25 Q402 25 458 76 Q514 127 537 238 L629 676 L548 676 L553 697 L742 697 L738 676 L656 676 L565 243 Q553 185 530 138.5 Q507 92 473 59 Q439 26 392.5 8.5 Q346 -9 286 -9 Q181 -9 127.5 35.5 Q74 80 74 171 Q74 191 76 212.5 Q78 234 83 257 L172 676 L91 676 L95 697 L394 697 Z M577 756 L541 756 L397 839 Q378 850 369 861 Q360 872 360 886 Q360 905 375 919.5 Q390 934 411 934 Q432 934 445.5 924.5 Q459 915 472 898 L577 756 Z " />
<glyph glyph-name="Uacute" unicode="&#xda;" horiz-adv-x="663" d="M394 697 L390 676 L308 676 L213 231 Q208 210 206.5 191 Q205 172 205 154 Q205 118 215 93.5 Q225 69 242 53.5 Q259 38 281 31.5 Q303 25 327 25 Q402 25 458 76 Q514 127 537 238 L629 676 L548 676 L553 697 L742 697 L738 676 L656 676 L565 243 Q553 185 530 138.5 Q507 92 473 59 Q439 26 392.5 8.5 Q346 -9 286 -9 Q181 -9 127.5 35.5 Q74 80 74 171 Q74 191 76 212.5 Q78 234 83 257 L172 676 L91 676 L95 697 L394 697 Z M489 898 Q507 916 521.5 925 Q536 934 556 934 Q575 934 587 924 Q599 914 599 897 Q599 877 586 863.5 Q573 850 545 836 L393 757 L350 757 L489 898 Z " />
<glyph glyph-name="Ucircumflex" unicode="&#xdb;" horiz-adv-x="663" d="M394 697 L390 676 L308 676 L213 231 Q208 210 206.5 191 Q205 172 205 154 Q205 118 215 93.5 Q225 69 242 53.5 Q259 38 281 31.5 Q303 25 327 25 Q402 25 458 76 Q514 127 537 238 L629 676 L548 676 L553 697 L742 697 L738 676 L656 676 L565 243 Q553 185 530 138.5 Q507 92 473 59 Q439 26 392.5 8.5 Q346 -9 286 -9 Q181 -9 127.5 35.5 Q74 80 74 171 Q74 191 76 212.5 Q78 234 83 257 L172 676 L91 676 L95 697 L394 697 Z M569 752 L456 839 L310 753 L293 766 L447 928 L504 928 L593 766 L569 752 Z " />
<glyph glyph-name="Udieresis" unicode="&#xdc;" horiz-adv-x="663" d="M394 697 L390 676 L308 676 L213 231 Q208 210 206.5 191 Q205 172 205 154 Q205 118 215 93.5 Q225 69 242 53.5 Q259 38 281 31.5 Q303 25 327 25 Q402 25 458 76 Q514 127 537 238 L629 676 L548 676 L553 697 L742 697 L738 676 L656 676 L565 243 Q553 185 530 138.5 Q507 92 473 59 Q439 26 392.5 8.5 Q346 -9 286 -9 Q181 -9 127.5 35.5 Q74 80 74 171 Q74 191 76 212.5 Q78 234 83 257 L172 676 L91 676 L95 697 L394 697 Z M633 853 Q633 819 610 795.5 Q587 772 554 772 Q530 772 515 787.5 Q500 803 500 826 Q500 841 506.5 855.5 Q513 870 524 881 Q535 892 549.5 899 Q564 906 580 906 Q604 906 618.5 891 Q633 876 633 853 Z M428 851 Q428 835 421.5 820.5 Q415 806 404 795.5 Q393 785 378.5 778.5 Q364 772 348 772 Q323 772 309 787 Q295 802 295 825 Q295 840 301.5 855 Q308 870 318.5 881 Q329 892 343.5 899 Q358 906 375 906 Q398 906 413 890 Q428 874 428 851 Z " />
<glyph glyph-name="Yacute" unicode="&#xdd;" horiz-adv-x="607" d="M404 21 L399 0 L101 0 L105 21 L187 21 L243 289 L143 676 L69 676 L73 697 L402 697 L398 676 L301 676 L378 343 L602 676 L510 676 L514 697 L701 697 L697 676 L635 676 L382 302 L322 21 L404 21 Z M471 898 Q489 916 503.5 925 Q518 934 538 934 Q557 934 569 924 Q581 914 581 897 Q581 877 568 863.5 Q555 850 527 836 L375 757 L332 757 L471 898 Z " />
<glyph glyph-name="Thorn" unicode="&#xde;" horiz-adv-x="601" d="M274 21 L270 0 L-36 0 L-31 21 L46 21 L185 676 L107 676 L111 697 L400 697 L395 676 L321 676 L294 552 L339 552 Q406 552 453 540 Q500 528 530 506 Q560 484 573.5 454.5 Q587 425 587 390 Q587 343 568.5 300 Q550 257 510.5 224.5 Q471 192 409.5 172.5 Q348 153 263 153 L208 153 L181 21 L274 21 Z M253 174 Q306 174 344 194 Q382 214 406 246 Q430 278 441.5 319.5 Q453 361 453 405 Q453 463 423 497 Q393 531 325 531 L289 531 L213 174 L253 174 Z " />
<glyph glyph-name="germandbls" unicode="&#xdf;" horiz-adv-x="562" d="M111 433 L44 433 L49 455 L60 455 Q95 455 110.5 474.5 Q126 494 137 533 Q149 577 165.5 613.5 Q182 650 208.5 675.5 Q235 701 273 715 Q311 729 367 729 Q438 729 482.5 692 Q527 655 527 587 Q527 508 480.5 457.5 Q434 407 353 389 Q430 384 469.5 339.5 Q509 295 509 229 Q509 181 493.5 138 Q478 95 448.5 62.5 Q419 30 376.5 10.5 Q334 -9 281 -9 Q256 -9 231 -3 Q206 3 184 18 L198 37 Q219 22 242 22 Q263 22 283.5 39.5 Q304 57 320.5 88 Q337 119 347 161.5 Q357 204 357 254 Q357 309 339 342 Q321 375 269 376 L272 392 Q305 392 329 413.5 Q353 435 368.5 469 Q384 503 391.5 544.5 Q399 586 399 625 Q399 705 356 705 Q330 705 307.5 676.5 Q285 648 270 579 L172 125 Q153 37 122 -28.5 Q91 -94 50.5 -138 Q10 -182 -39 -206 Q-88 -230 -142 -234 L-145 -217 Q-120 -213 -96 -201.5 Q-72 -190 -51.5 -169 Q-31 -148 -15 -117.5 Q1 -87 10 -45 L111 433 Z " />
<glyph glyph-name="agrave" unicode="&#xe0;" horiz-adv-x="543" d="M198 31 Q217 31 235 47.5 Q253 64 269 91 Q285 118 298.5 153.5 Q312 189 321.5 227 Q331 265 336.5 302.5 Q342 340 342 373 Q342 404 332.5 426.5 Q323 449 299 449 Q274 449 253.5 433.5 Q233 418 216.5 392.5 Q200 367 188 334 Q176 301 167.5 266 Q159 231 155 196 Q151 161 151 132 Q151 83 161 57 Q171 31 198 31 Z M149 -9 Q95 -9 58.5 31.5 Q22 72 22 155 Q22 208 38.5 264 Q55 320 88 366 Q121 412 170 441.5 Q219 471 283 471 Q312 471 338.5 458 Q365 445 385 418 L411 461 L495 461 L426 140 Q419 110 416 92 Q413 74 413 63 Q413 52 417 44.5 Q421 37 433 37 Q447 37 462.5 54 Q478 71 492 94 L505 85 Q481 42 449.5 16.5 Q418 -9 379 -9 Q358 -9 343.5 -1 Q329 7 320.5 19.5 Q312 32 308 48.5 Q304 65 304 83 Q304 91 304 97 Q304 103 305 110 Q283 56 241.5 23.5 Q200 -9 149 -9 Z M458 518 L422 518 L278 601 Q259 612 250 623 Q241 634 241 648 Q241 667 256 681.5 Q271 696 292 696 Q313 696 326.5 686.5 Q340 677 353 660 L458 518 Z " />
<glyph glyph-name="aacute" unicode="&#xe1;" horiz-adv-x="543" d="M198 31 Q217 31 235 47.5 Q253 64 269 91 Q285 118 298.5 153.5 Q312 189 321.5 227 Q331 265 336.5 302.5 Q342 340 342 373 Q342 404 332.5 426.5 Q323 449 299 449 Q274 449 253.5 433.5 Q233 418 216.5 392.5 Q200 367 188 334 Q176 301 167.5 266 Q159 231 155 196 Q151 161 151 132 Q151 83 161 57 Q171 31 198 31 Z M149 -9 Q95 -9 58.5 31.5 Q22 72 22 155 Q22 208 38.5 264 Q55 320 88 366 Q121 412 170 441.5 Q219 471 283 471 Q312 471 338.5 458 Q365 445 385 418 L411 461 L495 461 L426 140 Q419 110 416 92 Q413 74 413 63 Q413 52 417 44.5 Q421 37 433 37 Q447 37 462.5 54 Q478 71 492 94 L505 85 Q481 42 449.5 16.5 Q418 -9 379 -9 Q358 -9 343.5 -1 Q329 7 320.5 19.5 Q312 32 308 48.5 Q304 65 304 83 Q304 91 304 97 Q304 103 305 110 Q283 56 241.5 23.5 Q200 -9 149 -9 Z M360 660 Q378 678 392.5 687 Q407 696 427 696 Q446 696 458 686 Q470 676 470 659 Q470 639 457 625.5 Q444 612 416 598 L264 519 L221 519 L360 660 Z " />
<glyph glyph-name="acircumflex" unicode="&#xe2;" horiz-adv-x="543" d="M198 31 Q217 31 235 47.5 Q253 64 269 91 Q285 118 298.5 153.5 Q312 189 321.5 227 Q331 265 336.5 302.5 Q342 340 342 373 Q342 404 332.5 426.5 Q323 449 299 449 Q274 449 253.5 433.5 Q233 418 216.5 392.5 Q200 367 188 334 Q176 301 167.5 266 Q159 231 155 196 Q151 161 151 132 Q151 83 161 57 Q171 31 198 31 Z M149 -9 Q95 -9 58.5 31.5 Q22 72 22 155 Q22 208 38.5 264 Q55 320 88 366 Q121 412 170 441.5 Q219 471 283 471 Q312 471 338.5 458 Q365 445 385 418 L411 461 L495 461 L426 140 Q419 110 416 92 Q413 74 413 63 Q413 52 417 44.5 Q421 37 433 37 Q447 37 462.5 54 Q478 71 492 94 L505 85 Q481 42 449.5 16.5 Q418 -9 379 -9 Q358 -9 343.5 -1 Q329 7 320.5 19.5 Q312 32 308 48.5 Q304 65 304 83 Q304 91 304 97 Q304 103 305 110 Q283 56 241.5 23.5 Q200 -9 149 -9 Z M448 514 L335 601 L189 515 L172 528 L326 690 L383 690 L472 528 L448 514 Z " />
<glyph glyph-name="atilde" unicode="&#xe3;" horiz-adv-x="543" d="M198 31 Q217 31 235 47.5 Q253 64 269 91 Q285 118 298.5 153.5 Q312 189 321.5 227 Q331 265 336.5 302.5 Q342 340 342 373 Q342 404 332.5 426.5 Q323 449 299 449 Q274 449 253.5 433.5 Q233 418 216.5 392.5 Q200 367 188 334 Q176 301 167.5 266 Q159 231 155 196 Q151 161 151 132 Q151 83 161 57 Q171 31 198 31 Z M149 -9 Q95 -9 58.5 31.5 Q22 72 22 155 Q22 208 38.5 264 Q55 320 88 366 Q121 412 170 441.5 Q219 471 283 471 Q312 471 338.5 458 Q365 445 385 418 L411 461 L495 461 L426 140 Q419 110 416 92 Q413 74 413 63 Q413 52 417 44.5 Q421 37 433 37 Q447 37 462.5 54 Q478 71 492 94 L505 85 Q481 42 449.5 16.5 Q418 -9 379 -9 Q358 -9 343.5 -1 Q329 7 320.5 19.5 Q312 32 308 48.5 Q304 65 304 83 Q304 91 304 97 Q304 103 305 110 Q283 56 241.5 23.5 Q200 -9 149 -9 Z M506 666 Q491 606 460 571.5 Q429 537 381 537 Q361 537 342 544 Q323 551 305.5 559.5 Q288 568 271 575 Q254 582 238 582 Q221 582 202.5 572.5 Q184 563 170 534 L156 534 Q169 590 203 625 Q237 660 283 660 Q305 660 324 653 Q343 646 360 638 Q377 630 393.5 623 Q410 616 427 616 Q446 616 463 628 Q480 640 492 666 L506 666 Z " />
<glyph glyph-name="adieresis" unicode="&#xe4;" horiz-adv-x="543" d="M198 31 Q217 31 235 47.5 Q253 64 269 91 Q285 118 298.5 153.5 Q312 189 321.5 227 Q331 265 336.5 302.5 Q342 340 342 373 Q342 404 332.5 426.5 Q323 449 299 449 Q274 449 253.5 433.5 Q233 418 216.5 392.5 Q200 367 188 334 Q176 301 167.5 266 Q159 231 155 196 Q151 161 151 132 Q151 83 161 57 Q171 31 198 31 Z M149 -9 Q95 -9 58.5 31.5 Q22 72 22 155 Q22 208 38.5 264 Q55 320 88 366 Q121 412 170 441.5 Q219 471 283 471 Q312 471 338.5 458 Q365 445 385 418 L411 461 L495 461 L426 140 Q419 110 416 92 Q413 74 413 63 Q413 52 417 44.5 Q421 37 433 37 Q447 37 462.5 54 Q478 71 492 94 L505 85 Q481 42 449.5 16.5 Q418 -9 379 -9 Q358 -9 343.5 -1 Q329 7 320.5 19.5 Q312 32 308 48.5 Q304 65 304 83 Q304 91 304 97 Q304 103 305 110 Q283 56 241.5 23.5 Q200 -9 149 -9 Z M501 615 Q501 581 478 557.5 Q455 534 422 534 Q398 534 383 549.5 Q368 565 368 588 Q368 603 374.5 617.5 Q381 632 392 643 Q403 654 417.5 661 Q432 668 448 668 Q472 668 486.5 653 Q501 638 501 615 Z M296 613 Q296 597 289.5 582.5 Q283 568 272 557.5 Q261 547 246.5 540.5 Q232 534 216 534 Q191 534 177 549 Q163 564 163 587 Q163 602 169.5 617 Q176 632 186.5 643 Q197 654 211.5 661 Q226 668 243 668 Q266 668 281 652 Q296 636 296 613 Z " />
<glyph glyph-name="aring" unicode="&#xe5;" horiz-adv-x="543" d="M198 31 Q217 31 235 47.5 Q253 64 269 91 Q285 118 298.5 153.5 Q312 189 321.5 227 Q331 265 336.5 302.5 Q342 340 342 373 Q342 404 332.5 426.5 Q323 449 299 449 Q274 449 253.5 433.5 Q233 418 216.5 392.5 Q200 367 188 334 Q176 301 167.5 266 Q159 231 155 196 Q151 161 151 132 Q151 83 161 57 Q171 31 198 31 Z M149 -9 Q95 -9 58.5 31.5 Q22 72 22 155 Q22 208 38.5 264 Q55 320 88 366 Q121 412 170 441.5 Q219 471 283 471 Q312 471 338.5 458 Q365 445 385 418 L411 461 L495 461 L426 140 Q419 110 416 92 Q413 74 413 63 Q413 52 417 44.5 Q421 37 433 37 Q447 37 462.5 54 Q478 71 492 94 L505 85 Q481 42 449.5 16.5 Q418 -9 379 -9 Q358 -9 343.5 -1 Q329 7 320.5 19.5 Q312 32 308 48.5 Q304 65 304 83 Q304 91 304 97 Q304 103 305 110 Q283 56 241.5 23.5 Q200 -9 149 -9 Z M445 642 Q445 615 434.5 590.5 Q424 566 405.5 547.5 Q387 529 362 518 Q337 507 308 507 Q266 507 242 531 Q218 555 218 593 Q218 621 229 645.5 Q240 670 259 689 Q278 708 303 719 Q328 730 356 730 Q399 730 422 705 Q445 680 445 642 Z M314 529 Q330 529 342.5 542 Q355 555 362.5 574 Q370 593 374 614.5 Q378 636 378 653 Q378 674 373.5 691.5 Q369 709 352 709 Q336 709 324 695.5 Q312 682 303.5 662.5 Q295 643 290.5 621 Q286 599 286 582 Q286 562 291.5 545.5 Q297 529 314 529 Z " />
<glyph glyph-name="ae" unicode="&#xe6;" horiz-adv-x="693" d="M277 100 Q275 108 274 119 Q273 130 273 142 Q273 164 276.5 189 Q280 214 284 230 Q252 228 223 219 Q194 210 172 193 Q150 176 136.5 150.5 Q123 125 123 89 Q123 67 134.5 50 Q146 33 172 33 Q206 33 231.5 52.5 Q257 72 277 100 Z M287 77 Q255 37 209 14 Q163 -9 112 -9 Q56 -9 27.5 15 Q-1 39 -1 81 Q-1 133 27.5 165 Q56 197 99.5 215 Q143 233 193.5 239.5 Q244 246 288 247 Q296 277 306.5 308 Q317 339 317 365 Q317 408 294 429.5 Q271 451 240 451 Q190 451 154 417 L196 308 Q188 297 170 290 Q152 283 131 283 Q108 283 90.5 297 Q73 311 73 338 Q73 370 91.5 395 Q110 420 137.5 437 Q165 454 198.5 462.5 Q232 471 262 471 Q320 471 352 453 Q384 435 398 412 Q429 438 467 454.5 Q505 471 551 471 Q578 471 602 465.5 Q626 460 643.5 449 Q661 438 671.5 419.5 Q682 401 682 376 Q682 338 663.5 310 Q645 282 615.5 263.5 Q586 245 549 236 Q512 227 476 227 Q459 227 443.5 228.5 Q428 230 414 235 Q405 193 405 152 Q405 129 409.5 106 Q414 83 424 64.5 Q434 46 451 34.5 Q468 23 494 23 Q518 23 538.5 33 Q559 43 575.5 58 Q592 73 604 91 Q616 109 624 125 L639 117 Q627 90 609 67 Q591 44 566 27 Q541 10 509.5 0.5 Q478 -9 438 -9 Q387 -9 348 12 Q309 33 287 77 Z M543 452 Q520 452 500.5 435 Q481 418 465.5 390.5 Q450 363 438 327.5 Q426 292 418 256 Q440 249 463 249 Q490 249 511 261 Q532 273 546.5 293 Q561 313 569 338.5 Q577 364 577 391 Q577 416 570 434 Q563 452 543 452 Z " />
<glyph glyph-name="ccedilla" unicode="&#xe7;" horiz-adv-x="422" d="M175 -9 Q107 -7 64.5 38.5 Q22 84 22 168 Q22 227 41 282 Q60 337 95 379 Q130 421 179.5 446 Q229 471 290 471 Q341 471 375.5 448 Q410 425 410 383 Q410 355 390 333 Q370 311 338 311 Q318 311 302.5 319 Q287 327 279 341 L357 433 Q342 449 313 449 Q273 449 243 420.5 Q213 392 193.5 348.5 Q174 305 164 253 Q154 201 154 155 Q154 92 173 56.5 Q192 21 232 21 Q253 21 272 30.5 Q291 40 307.5 56 Q324 72 337 91.5 Q350 111 358 131 L373 122 Q361 98 346 76 Q331 54 310.5 36 Q290 18 263 6.5 Q236 -5 200 -8 L166 -72 Q178 -69 200 -69 Q243 -69 265.5 -88 Q288 -107 288 -135 Q288 -161 276.5 -180 Q265 -199 247 -211 Q229 -223 206.5 -229 Q184 -235 163 -235 Q127 -235 105.5 -221.5 Q84 -208 84 -187 Q84 -171 94 -161 Q104 -151 118 -151 Q129 -151 137 -156.5 Q145 -162 149 -167 L108 -205 Q112 -210 121 -214.5 Q130 -219 142 -219 Q153 -219 164.5 -215 Q176 -211 185.5 -201.5 Q195 -192 201 -177 Q207 -162 207 -140 Q207 -117 196 -102 Q185 -87 165 -87 Q149 -87 139 -92 L132 -87 L175 -9 Z " />
<glyph glyph-name="egrave" unicode="&#xe8;" horiz-adv-x="444" d="M238 23 Q264 23 285.5 33 Q307 43 323.5 58.5 Q340 74 352 92 Q364 110 372 127 L387 118 Q363 64 314.5 27.5 Q266 -9 186 -9 Q151 -9 121 2 Q91 13 69 35.5 Q47 58 34.5 92 Q22 126 22 173 Q22 231 43 284.5 Q64 338 100.5 379.5 Q137 421 186.5 446 Q236 471 294 471 Q331 471 357 463 Q383 455 399.5 441 Q416 427 424 408.5 Q432 390 432 370 Q432 340 417 314 Q402 288 375.5 268.5 Q349 249 312 238 Q275 227 230 227 Q187 227 162 234 Q158 213 155.5 192.5 Q153 172 153 148 Q153 127 157 104.5 Q161 82 170.5 64 Q180 46 196.5 34.5 Q213 23 238 23 Z M291 452 Q268 452 249 435 Q230 418 214 390.5 Q198 363 186 327.5 Q174 292 166 256 Q191 250 211 250 Q239 250 261 263.5 Q283 277 297.5 298 Q312 319 319.5 344 Q327 369 327 393 Q327 417 318 434.5 Q309 452 291 452 Z M408 518 L372 518 L228 601 Q209 612 200 623 Q191 634 191 648 Q191 667 206 681.5 Q221 696 242 696 Q263 696 276.5 686.5 Q290 677 303 660 L408 518 Z " />
<glyph glyph-name="eacute" unicode="&#xe9;" horiz-adv-x="444" d="M238 23 Q264 23 285.5 33 Q307 43 323.5 58.5 Q340 74 352 92 Q364 110 372 127 L387 118 Q363 64 314.5 27.5 Q266 -9 186 -9 Q151 -9 121 2 Q91 13 69 35.5 Q47 58 34.5 92 Q22 126 22 173 Q22 231 43 284.5 Q64 338 100.5 379.5 Q137 421 186.5 446 Q236 471 294 471 Q331 471 357 463 Q383 455 399.5 441 Q416 427 424 408.5 Q432 390 432 370 Q432 340 417 314 Q402 288 375.5 268.5 Q349 249 312 238 Q275 227 230 227 Q187 227 162 234 Q158 213 155.5 192.5 Q153 172 153 148 Q153 127 157 104.5 Q161 82 170.5 64 Q180 46 196.5 34.5 Q213 23 238 23 Z M291 452 Q268 452 249 435 Q230 418 214 390.5 Q198 363 186 327.5 Q174 292 166 256 Q191 250 211 250 Q239 250 261 263.5 Q283 277 297.5 298 Q312 319 319.5 344 Q327 369 327 393 Q327 417 318 434.5 Q309 452 291 452 Z M330 660 Q348 678 362.5 687 Q377 696 397 696 Q416 696 428 686 Q440 676 440 659 Q440 639 427 625.5 Q414 612 386 598 L234 519 L191 519 L330 660 Z " />
<glyph glyph-name="ecircumflex" unicode="&#xea;" horiz-adv-x="444" d="M238 23 Q264 23 285.5 33 Q307 43 323.5 58.5 Q340 74 352 92 Q364 110 372 127 L387 118 Q363 64 314.5 27.5 Q266 -9 186 -9 Q151 -9 121 2 Q91 13 69 35.5 Q47 58 34.5 92 Q22 126 22 173 Q22 231 43 284.5 Q64 338 100.5 379.5 Q137 421 186.5 446 Q236 471 294 471 Q331 471 357 463 Q383 455 399.5 441 Q416 427 424 408.5 Q432 390 432 370 Q432 340 417 314 Q402 288 375.5 268.5 Q349 249 312 238 Q275 227 230 227 Q187 227 162 234 Q158 213 155.5 192.5 Q153 172 153 148 Q153 127 157 104.5 Q161 82 170.5 64 Q180 46 196.5 34.5 Q213 23 238 23 Z M291 452 Q268 452 249 435 Q230 418 214 390.5 Q198 363 186 327.5 Q174 292 166 256 Q191 250 211 250 Q239 250 261 263.5 Q283 277 297.5 298 Q312 319 319.5 344 Q327 369 327 393 Q327 417 318 434.5 Q309 452 291 452 Z M414 514 L301 601 L155 515 L138 528 L292 690 L349 690 L438 528 L414 514 Z " />
<glyph glyph-name="edieresis" unicode="&#xeb;" horiz-adv-x="444" d="M238 23 Q264 23 285.5 33 Q307 43 323.5 58.5 Q340 74 352 92 Q364 110 372 127 L387 118 Q363 64 314.5 27.5 Q266 -9 186 -9 Q151 -9 121 2 Q91 13 69 35.5 Q47 58 34.5 92 Q22 126 22 173 Q22 231 43 284.5 Q64 338 100.5 379.5 Q137 421 186.5 446 Q236 471 294 471 Q331 471 357 463 Q383 455 399.5 441 Q416 427 424 408.5 Q432 390 432 370 Q432 340 417 314 Q402 288 375.5 268.5 Q349 249 312 238 Q275 227 230 227 Q187 227 162 234 Q158 213 155.5 192.5 Q153 172 153 148 Q153 127 157 104.5 Q161 82 170.5 64 Q180 46 196.5 34.5 Q213 23 238 23 Z M291 452 Q268 452 249 435 Q230 418 214 390.5 Q198 363 186 327.5 Q174 292 166 256 Q191 250 211 250 Q239 250 261 263.5 Q283 277 297.5 298 Q312 319 319.5 344 Q327 369 327 393 Q327 417 318 434.5 Q309 452 291 452 Z M465 615 Q465 581 442 557.5 Q419 534 386 534 Q362 534 347 549.5 Q332 565 332 588 Q332 603 338.5 617.5 Q345 632 356 643 Q367 654 381.5 661 Q396 668 412 668 Q436 668 450.5 653 Q465 638 465 615 Z M260 613 Q260 597 253.5 582.5 Q247 568 236 557.5 Q225 547 210.5 540.5 Q196 534 180 534 Q155 534 141 549 Q127 564 127 587 Q127 602 133.5 617 Q140 632 150.5 643 Q161 654 175.5 661 Q190 668 207 668 Q230 668 245 652 Q260 636 260 613 Z " />
<glyph glyph-name="igrave" unicode="&#xec;" horiz-adv-x="284" d="M107 432 Q92 436 72.5 437 Q53 438 37 438 L41 454 L244 471 L176 156 Q168 117 163.5 94.5 Q159 72 159 61 Q159 37 177 37 Q189 37 204.5 53 Q220 69 234 94 L248 85 Q222 40 189.5 15.5 Q157 -9 117 -9 Q71 -9 53 14 Q35 37 35 70 Q35 93 39 119 Q43 145 53 189 L107 432 Z M328 518 L292 518 L148 601 Q129 612 120 623 Q111 634 111 648 Q111 667 126 681.5 Q141 696 162 696 Q183 696 196.5 686.5 Q210 677 223 660 L328 518 Z " />
<glyph glyph-name="iacute" unicode="&#xed;" horiz-adv-x="284" d="M107 432 Q92 436 72.5 437 Q53 438 37 438 L41 454 L244 471 L176 156 Q168 117 163.5 94.5 Q159 72 159 61 Q159 37 177 37 Q189 37 204.5 53 Q220 69 234 94 L248 85 Q222 40 189.5 15.5 Q157 -9 117 -9 Q71 -9 53 14 Q35 37 35 70 Q35 93 39 119 Q43 145 53 189 L107 432 Z M220 660 Q238 678 252.5 687 Q267 696 287 696 Q306 696 318 686 Q330 676 330 659 Q330 639 317 625.5 Q304 612 276 598 L124 519 L81 519 L220 660 Z " />
<glyph glyph-name="icircumflex" unicode="&#xee;" horiz-adv-x="284" d="M107 432 Q92 436 72.5 437 Q53 438 37 438 L41 454 L244 471 L176 156 Q168 117 163.5 94.5 Q159 72 159 61 Q159 37 177 37 Q189 37 204.5 53 Q220 69 234 94 L248 85 Q222 40 189.5 15.5 Q157 -9 117 -9 Q71 -9 53 14 Q35 37 35 70 Q35 93 39 119 Q43 145 53 189 L107 432 Z M315 514 L202 601 L56 515 L39 528 L193 690 L250 690 L339 528 L315 514 Z " />
<glyph glyph-name="idieresis" unicode="&#xef;" horiz-adv-x="284" d="M107 432 Q92 436 72.5 437 Q53 438 37 438 L41 454 L244 471 L176 156 Q168 117 163.5 94.5 Q159 72 159 61 Q159 37 177 37 Q189 37 204.5 53 Q220 69 234 94 L248 85 Q222 40 189.5 15.5 Q157 -9 117 -9 Q71 -9 53 14 Q35 37 35 70 Q35 93 39 119 Q43 145 53 189 L107 432 Z M389 615 Q389 581 366 557.5 Q343 534 310 534 Q286 534 271 549.5 Q256 565 256 588 Q256 603 262.5 617.5 Q269 632 280 643 Q291 654 305.5 661 Q320 668 336 668 Q360 668 374.5 653 Q389 638 389 615 Z M184 613 Q184 597 177.5 582.5 Q171 568 160 557.5 Q149 547 134.5 540.5 Q120 534 104 534 Q79 534 65 549 Q51 564 51 587 Q51 602 57.5 617 Q64 632 74.5 643 Q85 654 99.5 661 Q114 668 131 668 Q154 668 169 652 Q184 636 184 613 Z " />
<glyph glyph-name="eth" unicode="&#xf0;" horiz-adv-x="531" d="M22 174 Q22 245 45.5 298.5 Q69 352 106 388 Q143 424 189.5 442.5 Q236 461 282 461 Q304 461 325.5 455.5 Q347 450 361 439 Q358 537 309 609 L173 541 L163 562 L295 626 Q273 652 240.5 673 Q208 694 173 705 L184 724 Q226 715 265.5 697 Q305 679 347 651 L469 711 L477 691 L365 636 Q419 588 450 520 Q481 452 481 359 Q481 292 464 226 Q447 160 412 108 Q377 56 324 23.5 Q271 -9 199 -9 Q155 -9 122 5.5 Q89 20 66.5 44.5 Q44 69 33 102.5 Q22 136 22 174 Z M204 12 Q228 12 248.5 29.5 Q269 47 285.5 75 Q302 103 314.5 138.5 Q327 174 335.5 210.5 Q344 247 348 280 Q352 313 352 337 Q352 388 335.5 413.5 Q319 439 291 439 Q267 439 246.5 420.5 Q226 402 210 372.5 Q194 343 182 306 Q170 269 162 232 Q154 195 150 161.5 Q146 128 146 106 Q146 62 159.5 37 Q173 12 204 12 Z " />
<glyph glyph-name="ntilde" unicode="&#xf1;" horiz-adv-x="566" d="M473 221 Q459 161 449.5 122.5 Q440 84 440 61 Q440 37 458 37 Q470 37 486 53 Q502 69 516 94 L529 85 Q503 40 470.5 15.5 Q438 -9 398 -9 Q353 -9 333.5 14 Q314 37 314 70 Q314 97 323.5 136.5 Q333 176 345 230 Q357 283 364 318 Q371 353 371 379 Q371 403 362.5 417 Q354 431 334 431 Q319 431 299 417.5 Q279 404 258 375 Q237 346 217.5 301.5 Q198 257 185 195 L144 0 L15 0 L106 432 Q91 437 72 437.5 Q53 438 37 438 L40 455 L244 472 L212 345 Q245 405 289 438 Q333 471 392 471 Q422 471 442.5 463 Q463 455 475.5 441.5 Q488 428 494 410 Q500 392 500 372 Q500 356 498 340.5 Q496 325 492.5 307.5 Q489 290 484 269 Q479 248 473 221 Z M522 666 Q507 606 476 571.5 Q445 537 397 537 Q377 537 358 544 Q339 551 321.5 559.5 Q304 568 287 575 Q270 582 254 582 Q237 582 218.5 572.5 Q200 563 186 534 L172 534 Q185 590 219 625 Q253 660 299 660 Q321 660 340 653 Q359 646 376 638 Q393 630 409.5 623 Q426 616 443 616 Q462 616 479 628 Q496 640 508 666 L522 666 Z " />
<glyph glyph-name="ograve" unicode="&#xf2;" horiz-adv-x="519" d="M295 471 Q342 471 376 457 Q410 443 432 419 Q454 395 464.5 362 Q475 329 475 291 Q475 235 456.5 181 Q438 127 403 85 Q368 43 317 17 Q266 -9 201 -9 Q154 -9 120 5.5 Q86 20 64 45 Q42 70 32 103.5 Q22 137 22 176 Q22 230 39.5 283 Q57 336 91.5 378 Q126 420 177 445.5 Q228 471 295 471 Z M205 12 Q240 12 266.5 47.5 Q293 83 311 134.5 Q329 186 338 242.5 Q347 299 347 341 Q347 451 290 451 Q261 451 235.5 417 Q210 383 190 332.5 Q170 282 158.5 223 Q147 164 147 114 Q147 67 160 39.5 Q173 12 205 12 Z M444 518 L408 518 L264 601 Q245 612 236 623 Q227 634 227 648 Q227 667 242 681.5 Q257 696 278 696 Q299 696 312.5 686.5 Q326 677 339 660 L444 518 Z " />
<glyph glyph-name="oacute" unicode="&#xf3;" horiz-adv-x="519" d="M295 471 Q342 471 376 457 Q410 443 432 419 Q454 395 464.5 362 Q475 329 475 291 Q475 235 456.5 181 Q438 127 403 85 Q368 43 317 17 Q266 -9 201 -9 Q154 -9 120 5.5 Q86 20 64 45 Q42 70 32 103.5 Q22 137 22 176 Q22 230 39.5 283 Q57 336 91.5 378 Q126 420 177 445.5 Q228 471 295 471 Z M205 12 Q240 12 266.5 47.5 Q293 83 311 134.5 Q329 186 338 242.5 Q347 299 347 341 Q347 451 290 451 Q261 451 235.5 417 Q210 383 190 332.5 Q170 282 158.5 223 Q147 164 147 114 Q147 67 160 39.5 Q173 12 205 12 Z M346 660 Q364 678 378.5 687 Q393 696 413 696 Q432 696 444 686 Q456 676 456 659 Q456 639 443 625.5 Q430 612 402 598 L250 519 L207 519 L346 660 Z " />
<glyph glyph-name="ocircumflex" unicode="&#xf4;" horiz-adv-x="519" d="M295 471 Q342 471 376 457 Q410 443 432 419 Q454 395 464.5 362 Q475 329 475 291 Q475 235 456.5 181 Q438 127 403 85 Q368 43 317 17 Q266 -9 201 -9 Q154 -9 120 5.5 Q86 20 64 45 Q42 70 32 103.5 Q22 137 22 176 Q22 230 39.5 283 Q57 336 91.5 378 Q126 420 177 445.5 Q228 471 295 471 Z M205 12 Q240 12 266.5 47.5 Q293 83 311 134.5 Q329 186 338 242.5 Q347 299 347 341 Q347 451 290 451 Q261 451 235.5 417 Q210 383 190 332.5 Q170 282 158.5 223 Q147 164 147 114 Q147 67 160 39.5 Q173 12 205 12 Z M424 514 L311 601 L165 515 L148 528 L302 690 L359 690 L448 528 L424 514 Z " />
<glyph glyph-name="otilde" unicode="&#xf5;" horiz-adv-x="519" d="M295 471 Q342 471 376 457 Q410 443 432 419 Q454 395 464.5 362 Q475 329 475 291 Q475 235 456.5 181 Q438 127 403 85 Q368 43 317 17 Q266 -9 201 -9 Q154 -9 120 5.5 Q86 20 64 45 Q42 70 32 103.5 Q22 137 22 176 Q22 230 39.5 283 Q57 336 91.5 378 Q126 420 177 445.5 Q228 471 295 471 Z M205 12 Q240 12 266.5 47.5 Q293 83 311 134.5 Q329 186 338 242.5 Q347 299 347 341 Q347 451 290 451 Q261 451 235.5 417 Q210 383 190 332.5 Q170 282 158.5 223 Q147 164 147 114 Q147 67 160 39.5 Q173 12 205 12 Z M494 666 Q479 606 448 571.5 Q417 537 369 537 Q349 537 330 544 Q311 551 293.5 559.5 Q276 568 259 575 Q242 582 226 582 Q209 582 190.5 572.5 Q172 563 158 534 L144 534 Q157 590 191 625 Q225 660 271 660 Q293 660 312 653 Q331 646 348 638 Q365 630 381.5 623 Q398 616 415 616 Q434 616 451 628 Q468 640 480 666 L494 666 Z " />
<glyph glyph-name="odieresis" unicode="&#xf6;" horiz-adv-x="519" d="M295 471 Q342 471 376 457 Q410 443 432 419 Q454 395 464.5 362 Q475 329 475 291 Q475 235 456.5 181 Q438 127 403 85 Q368 43 317 17 Q266 -9 201 -9 Q154 -9 120 5.5 Q86 20 64 45 Q42 70 32 103.5 Q22 137 22 176 Q22 230 39.5 283 Q57 336 91.5 378 Q126 420 177 445.5 Q228 471 295 471 Z M205 12 Q240 12 266.5 47.5 Q293 83 311 134.5 Q329 186 338 242.5 Q347 299 347 341 Q347 451 290 451 Q261 451 235.5 417 Q210 383 190 332.5 Q170 282 158.5 223 Q147 164 147 114 Q147 67 160 39.5 Q173 12 205 12 Z M489 615 Q489 581 466 557.5 Q443 534 410 534 Q386 534 371 549.5 Q356 565 356 588 Q356 603 362.5 617.5 Q369 632 380 643 Q391 654 405.5 661 Q420 668 436 668 Q460 668 474.5 653 Q489 638 489 615 Z M284 613 Q284 597 277.5 582.5 Q271 568 260 557.5 Q249 547 234.5 540.5 Q220 534 204 534 Q179 534 165 549 Q151 564 151 587 Q151 602 157.5 617 Q164 632 174.5 643 Q185 654 199.5 661 Q214 668 231 668 Q254 668 269 652 Q284 636 284 613 Z " />
<glyph glyph-name="divide" unicode="&#xf7;" horiz-adv-x="696" d="M53 276 L64 327 L616 327 L605 276 L53 276 Z M384 540 Q407 540 420.5 527.5 Q434 515 434 495 Q434 480 427.5 467.5 Q421 455 410.5 445.5 Q400 436 387 430.5 Q374 425 360 425 Q338 425 324.5 438 Q311 451 311 471 Q311 499 333.5 519.5 Q356 540 384 540 Z M309 176 Q331 176 344.5 163 Q358 150 358 130 Q358 115 352 102.5 Q346 90 335.5 81 Q325 72 312 66.5 Q299 61 285 61 Q263 61 249.5 73.5 Q236 86 236 106 Q236 134 258.5 155 Q281 176 309 176 Z " />
<glyph glyph-name="oslash" unicode="&#xf8;" horiz-adv-x="522" d="M298 471 Q329 471 354 464.5 Q379 458 399 447 L440 502 L468 502 L417 434 Q448 410 463 373 Q478 336 478 291 Q478 235 459.5 181 Q441 127 406 85 Q371 43 320 17 Q269 -9 204 -9 Q173 -9 148.5 -3 Q124 3 104 14 L59 -46 L31 -46 L85 27 Q53 52 39 90.5 Q25 129 25 176 Q25 230 42.5 283 Q60 336 94.5 378 Q129 420 180 445.5 Q231 471 298 471 Z M208 12 Q231 12 250.5 28.5 Q270 45 286 72.5 Q302 100 314 135 Q326 170 334 207 Q342 244 346 279.5 Q350 315 350 344 L152 79 Q156 47 169 29.5 Q182 12 208 12 Z M348 378 Q339 451 293 451 Q264 451 238.5 417.5 Q213 384 193 333.5 Q173 283 161.5 223.5 Q150 164 150 113 L348 378 Z " />
<glyph glyph-name="ugrave" unicode="&#xf9;" horiz-adv-x="562" d="M105 432 Q90 437 71 437.5 Q52 438 36 438 L39 455 L243 472 L167 124 Q163 107 162 95.5 Q161 84 161 75 Q161 50 170 40.5 Q179 31 196 31 Q218 31 240 51.5 Q262 72 281.5 107.5 Q301 143 317.5 189.5 Q334 236 345 288 L382 461 L514 461 L439 111 Q432 82 432 63 Q432 52 436.5 44.5 Q441 37 452 37 Q466 37 481.5 53.5 Q497 70 511 93 L524 84 Q501 44 470.5 17.5 Q440 -9 397 -9 Q359 -9 337.5 16.5 Q316 42 316 84 Q316 106 320 126 Q282 53 235.5 22 Q189 -9 137 -9 Q86 -9 61 16 Q36 41 36 86 Q36 102 39.5 122.5 Q43 143 49 171 L105 432 Z M465 518 L429 518 L285 601 Q266 612 257 623 Q248 634 248 648 Q248 667 263 681.5 Q278 696 299 696 Q320 696 333.5 686.5 Q347 677 360 660 L465 518 Z " />
<glyph glyph-name="uacute" unicode="&#xfa;" horiz-adv-x="562" d="M105 432 Q90 437 71 437.5 Q52 438 36 438 L39 455 L243 472 L167 124 Q163 107 162 95.5 Q161 84 161 75 Q161 50 170 40.5 Q179 31 196 31 Q218 31 240 51.5 Q262 72 281.5 107.5 Q301 143 317.5 189.5 Q334 236 345 288 L382 461 L514 461 L439 111 Q432 82 432 63 Q432 52 436.5 44.5 Q441 37 452 37 Q466 37 481.5 53.5 Q497 70 511 93 L524 84 Q501 44 470.5 17.5 Q440 -9 397 -9 Q359 -9 337.5 16.5 Q316 42 316 84 Q316 106 320 126 Q282 53 235.5 22 Q189 -9 137 -9 Q86 -9 61 16 Q36 41 36 86 Q36 102 39.5 122.5 Q43 143 49 171 L105 432 Z M367 660 Q385 678 399.5 687 Q414 696 434 696 Q453 696 465 686 Q477 676 477 659 Q477 639 464 625.5 Q451 612 423 598 L271 519 L228 519 L367 660 Z " />
<glyph glyph-name="ucircumflex" unicode="&#xfb;" horiz-adv-x="562" d="M105 432 Q90 437 71 437.5 Q52 438 36 438 L39 455 L243 472 L167 124 Q163 107 162 95.5 Q161 84 161 75 Q161 50 170 40.5 Q179 31 196 31 Q218 31 240 51.5 Q262 72 281.5 107.5 Q301 143 317.5 189.5 Q334 236 345 288 L382 461 L514 461 L439 111 Q432 82 432 63 Q432 52 436.5 44.5 Q441 37 452 37 Q466 37 481.5 53.5 Q497 70 511 93 L524 84 Q501 44 470.5 17.5 Q440 -9 397 -9 Q359 -9 337.5 16.5 Q316 42 316 84 Q316 106 320 126 Q282 53 235.5 22 Q189 -9 137 -9 Q86 -9 61 16 Q36 41 36 86 Q36 102 39.5 122.5 Q43 143 49 171 L105 432 Z M459 514 L346 601 L200 515 L183 528 L337 690 L394 690 L483 528 L459 514 Z " />
<glyph glyph-name="udieresis" unicode="&#xfc;" horiz-adv-x="562" d="M105 432 Q90 437 71 437.5 Q52 438 36 438 L39 455 L243 472 L167 124 Q163 107 162 95.5 Q161 84 161 75 Q161 50 170 40.5 Q179 31 196 31 Q218 31 240 51.5 Q262 72 281.5 107.5 Q301 143 317.5 189.5 Q334 236 345 288 L382 461 L514 461 L439 111 Q432 82 432 63 Q432 52 436.5 44.5 Q441 37 452 37 Q466 37 481.5 53.5 Q497 70 511 93 L524 84 Q501 44 470.5 17.5 Q440 -9 397 -9 Q359 -9 337.5 16.5 Q316 42 316 84 Q316 106 320 126 Q282 53 235.5 22 Q189 -9 137 -9 Q86 -9 61 16 Q36 41 36 86 Q36 102 39.5 122.5 Q43 143 49 171 L105 432 Z M506 615 Q506 581 483 557.5 Q460 534 427 534 Q403 534 388 549.5 Q373 565 373 588 Q373 603 379.5 617.5 Q386 632 397 643 Q408 654 422.5 661 Q437 668 453 668 Q477 668 491.5 653 Q506 638 506 615 Z M301 613 Q301 597 294.5 582.5 Q288 568 277 557.5 Q266 547 251.5 540.5 Q237 534 221 534 Q196 534 182 549 Q168 564 168 587 Q168 602 174.5 617 Q181 632 191.5 643 Q202 654 216.5 661 Q231 668 248 668 Q271 668 286 652 Q301 636 301 613 Z " />
<glyph glyph-name="yacute" unicode="&#xfd;" horiz-adv-x="422" d="M177 470 Q200 386 217 287 Q234 188 240 91 Q261 124 286.5 167 Q312 210 333.5 254.5 Q355 299 369.5 340.5 Q384 382 384 413 Q384 442 342 442 L275 442 Q275 457 278.5 472 Q282 487 291 499.5 Q300 512 315 519.5 Q330 527 352 527 Q387 527 405 506 Q423 485 423 448 Q423 408 399.5 342.5 Q376 277 337 202.5 Q298 128 247 52 Q196 -24 141.5 -85.5 Q87 -147 32.5 -185.5 Q-22 -224 -68 -224 Q-105 -224 -125.5 -204.5 Q-146 -185 -146 -152 Q-146 -120 -125 -100.5 Q-104 -81 -73 -75 Q-60 -139 -50.5 -163 Q-41 -187 -24 -187 Q-13 -187 8 -174 Q29 -161 54 -139 Q79 -117 103.5 -89 Q128 -61 146 -32 Q138 25 127.5 85.5 Q117 146 104 206 Q91 266 75.5 324.5 Q60 383 44 436 Q31 439 20 440 Q9 441 -6 441 L-2 458 L177 470 Z M289 660 Q307 678 321.5 687 Q336 696 356 696 Q375 696 387 686 Q399 676 399 659 Q399 639 386 625.5 Q373 612 345 598 L193 519 L150 519 L289 660 Z " />
<glyph glyph-name="thorn" unicode="&#xfe;" horiz-adv-x="536" d="M99 -184 Q116 -186 139 -187 Q162 -188 178 -188 L174 -207 L-98 -207 L-93 -188 Q-78 -188 -61 -186.5 Q-44 -185 -31 -182 L154 693 Q137 697 116.5 698 Q96 699 81 699 L85 715 L290 732 L218 391 Q241 427 276 449 Q311 471 360 471 Q418 471 456 429.5 Q494 388 494 308 Q494 243 474 185.5 Q454 128 417.5 85 Q381 42 329.5 16.5 Q278 -9 215 -9 Q192 -9 171 -5 Q150 -1 139 4 L99 -184 Z M160 128 Q151 90 151 70 Q151 21 197 21 Q236 21 265.5 50 Q295 79 315 124.5 Q335 170 345.5 225.5 Q356 281 356 333 Q356 352 354 371 Q352 390 346 405 Q340 420 330 429.5 Q320 439 304 439 Q292 439 277 431 Q262 423 247 406 Q232 389 219 362 Q206 335 197 297 L160 128 Z " />
<glyph glyph-name="ydieresis" unicode="&#xff;" horiz-adv-x="422" d="M438 615 Q438 581 415 557.5 Q392 534 359 534 Q335 534 320 549.5 Q305 565 305 588 Q305 603 311.5 617.5 Q318 632 329 643 Q340 654 354.5 661 Q369 668 385 668 Q409 668 423.5 653 Q438 638 438 615 Z M233 613 Q233 597 226.5 582.5 Q220 568 209 557.5 Q198 547 183.5 540.5 Q169 534 153 534 Q128 534 114 549 Q100 564 100 587 Q100 602 106.5 617 Q113 632 123.5 643 Q134 654 148.5 661 Q163 668 180 668 Q203 668 218 652 Q233 636 233 613 Z M240 89 Q261 123 283.5 163 Q306 203 324.5 242 Q343 281 354.5 316.5 Q366 352 366 377 Q366 393 359 398.5 Q352 404 336 404 L270 404 Q270 420 273.5 434.5 Q277 449 285 460 Q293 471 306.5 477.5 Q320 484 341 484 Q371 484 390 464 Q409 444 409 409 Q409 394 403.5 370 Q398 346 387.5 317.5 Q377 289 362.5 256 Q348 223 330 190 Q291 116 241 42 Q191 -32 137.5 -91 Q84 -150 30.5 -187 Q-23 -224 -68 -224 Q-105 -224 -125.5 -204.5 Q-146 -185 -146 -152 Q-146 -120 -125 -100.5 Q-104 -81 -73 -75 Q-60 -139 -50.5 -163 Q-41 -187 -24 -187 Q-13 -187 8 -174 Q29 -161 54 -139 Q79 -117 103.5 -89 Q128 -61 146 -32 Q138 25 127.5 85.5 Q117 146 104 206 Q91 266 75.5 324.5 Q60 383 44 436 Q31 439 20 440 Q9 441 -6 441 L-2 458 L177 470 Q200 386 217 286 Q234 186 240 89 Z " />
<glyph glyph-name="Amacron" unicode="&#x100;" horiz-adv-x="583" d="M252 21 L351 21 L323 227 L117 227 L5 21 L102 21 L97 0 L-75 0 L-70 21 L-24 21 L350 704 L397 704 L491 21 L536 21 L531 0 L247 0 L252 21 Z M281 529 L131 251 L319 251 L281 529 Z M245 788 L262 860 L550 860 L534 788 L245 788 Z " />
<glyph glyph-name="amacron" unicode="&#x101;" horiz-adv-x="543" d="M198 31 Q217 31 235 47.5 Q253 64 269 91 Q285 118 298.5 153.5 Q312 189 321.5 227 Q331 265 336.5 302.5 Q342 340 342 373 Q342 404 332.5 426.5 Q323 449 299 449 Q274 449 253.5 433.5 Q233 418 216.5 392.5 Q200 367 188 334 Q176 301 167.5 266 Q159 231 155 196 Q151 161 151 132 Q151 83 161 57 Q171 31 198 31 Z M149 -9 Q95 -9 58.5 31.5 Q22 72 22 155 Q22 208 38.5 264 Q55 320 88 366 Q121 412 170 441.5 Q219 471 283 471 Q312 471 338.5 458 Q365 445 385 418 L411 461 L495 461 L426 140 Q419 110 416 92 Q413 74 413 63 Q413 52 417 44.5 Q421 37 433 37 Q447 37 462.5 54 Q478 71 492 94 L505 85 Q481 42 449.5 16.5 Q418 -9 379 -9 Q358 -9 343.5 -1 Q329 7 320.5 19.5 Q312 32 308 48.5 Q304 65 304 83 Q304 91 304 97 Q304 103 305 110 Q283 56 241.5 23.5 Q200 -9 149 -9 Z M171 550 L188 622 L476 622 L460 550 L171 550 Z " />
<glyph glyph-name="Abreve" unicode="&#x102;" horiz-adv-x="583" d="M252 21 L351 21 L323 227 L117 227 L5 21 L102 21 L97 0 L-75 0 L-70 21 L-24 21 L350 704 L397 704 L491 21 L536 21 L531 0 L247 0 L252 21 Z M281 529 L131 251 L319 251 L281 529 Z M387 842 Q435 842 473 866 Q511 890 524 926 L549 926 Q543 895 528.5 865.5 Q514 836 492.5 812.5 Q471 789 441.5 775 Q412 761 375 761 Q318 761 290 795.5 Q262 830 262 884 Q262 903 268 926 L293 926 Q293 888 318.5 865 Q344 842 387 842 Z " />
<glyph glyph-name="abreve" unicode="&#x103;" horiz-adv-x="543" d="M198 31 Q217 31 235 47.5 Q253 64 269 91 Q285 118 298.5 153.5 Q312 189 321.5 227 Q331 265 336.5 302.5 Q342 340 342 373 Q342 404 332.5 426.5 Q323 449 299 449 Q274 449 253.5 433.5 Q233 418 216.5 392.5 Q200 367 188 334 Q176 301 167.5 266 Q159 231 155 196 Q151 161 151 132 Q151 83 161 57 Q171 31 198 31 Z M149 -9 Q95 -9 58.5 31.5 Q22 72 22 155 Q22 208 38.5 264 Q55 320 88 366 Q121 412 170 441.5 Q219 471 283 471 Q312 471 338.5 458 Q365 445 385 418 L411 461 L495 461 L426 140 Q419 110 416 92 Q413 74 413 63 Q413 52 417 44.5 Q421 37 433 37 Q447 37 462.5 54 Q478 71 492 94 L505 85 Q481 42 449.5 16.5 Q418 -9 379 -9 Q358 -9 343.5 -1 Q329 7 320.5 19.5 Q312 32 308 48.5 Q304 65 304 83 Q304 91 304 97 Q304 103 305 110 Q283 56 241.5 23.5 Q200 -9 149 -9 Z M333 604 Q381 604 419 628 Q457 652 470 688 L495 688 Q489 657 474.5 627.5 Q460 598 438.5 574.5 Q417 551 387.5 537 Q358 523 321 523 Q264 523 236 557.5 Q208 592 208 646 Q208 665 214 688 L239 688 Q239 650 264.5 627 Q290 604 333 604 Z " />
<glyph glyph-name="Aogonek" unicode="&#x104;" horiz-adv-x="583" d="M252 21 L351 21 L323 227 L117 227 L5 21 L102 21 L97 0 L-75 0 L-70 21 L-24 21 L350 704 L397 704 L491 21 L536 21 L531 0 L465 0 Q423 -29 406 -64.5 Q389 -100 389 -134 Q389 -158 398 -173.5 Q407 -189 427 -189 Q445 -189 461 -174.5 Q477 -160 489 -142 L501 -153 Q474 -196 442.5 -215.5 Q411 -235 376 -235 Q340 -235 321.5 -214 Q303 -193 303 -164 Q303 -111 342 -69.5 Q381 -28 438 0 L247 0 L252 21 Z M281 529 L131 251 L319 251 L281 529 Z " />
<glyph glyph-name="aogonek" unicode="&#x105;" horiz-adv-x="543" d="M149 -9 Q95 -9 58.5 31.5 Q22 72 22 155 Q22 208 38.5 264 Q55 320 88 366 Q121 412 170 441.5 Q219 471 283 471 Q312 471 338.5 458 Q365 445 385 418 L411 461 L495 461 L426 140 Q419 110 416 92 Q413 74 413 63 Q413 52 417 44.5 Q421 37 433 37 Q447 37 462.5 54 Q478 71 492 94 L505 85 Q485 51 464 31 Q443 11 415 -4 Q373 -27 356.5 -64 Q340 -101 340 -134 Q340 -158 349 -173.5 Q358 -189 378 -189 Q396 -189 412 -174.5 Q428 -160 440 -142 L452 -153 Q425 -196 393.5 -215.5 Q362 -235 327 -235 Q291 -235 272.5 -214 Q254 -193 254 -164 Q254 -115 288 -76 Q322 -37 373 -9 Q354 -8 341 0 Q328 8 319.5 21 Q311 34 307.5 50 Q304 66 304 83 Q304 91 304 97 Q304 103 305 110 Q283 56 241.5 23.5 Q200 -9 149 -9 Z M198 31 Q217 31 235 47.5 Q253 64 269 91 Q285 118 298.5 153.5 Q312 189 321.5 227 Q331 265 336.5 302.5 Q342 340 342 373 Q342 404 332.5 426.5 Q323 449 299 449 Q274 449 253.5 433.5 Q233 418 216.5 392.5 Q200 367 188 334 Q176 301 167.5 266 Q159 231 155 196 Q151 161 151 132 Q151 83 161 57 Q171 31 198 31 Z " />
<glyph glyph-name="Cacute" unicode="&#x106;" horiz-adv-x="576" d="M331 26 Q368 26 398.5 40 Q429 54 452.5 76.5 Q476 99 493.5 126 Q511 153 524 179 L542 168 Q527 136 505 104.5 Q483 73 452 48 Q421 23 380 7 Q339 -9 288 -9 Q225 -9 179.5 13 Q134 35 105.5 72.5 Q77 110 63.5 160.5 Q50 211 50 269 Q50 345 74.5 423 Q99 501 147 565 Q195 629 265.5 669.5 Q336 710 428 710 Q476 710 509.5 698 Q543 686 564 666.5 Q585 647 594 622.5 Q603 598 603 574 Q603 548 595 527.5 Q587 507 573 492.5 Q559 478 540.5 470 Q522 462 501 462 Q472 462 457.5 471.5 Q443 481 435 492 L566 620 Q552 649 523 668 Q494 687 446 687 Q383 687 336.5 647.5 Q290 608 259.5 545.5 Q229 483 214.5 405 Q200 327 200 251 Q200 136 234 81 Q268 26 331 26 Z M440 898 Q458 916 472.5 925 Q487 934 507 934 Q526 934 538 924 Q550 914 550 897 Q550 877 537 863.5 Q524 850 496 836 L344 757 L301 757 L440 898 Z " />
<glyph glyph-name="cacute" unicode="&#x107;" horiz-adv-x="423" d="M313 449 Q273 449 243 420.5 Q213 392 193.5 348.5 Q174 305 164 253 Q154 201 154 155 Q154 92 173 56.5 Q192 21 232 21 Q253 21 272 30.5 Q291 40 307.5 56 Q324 72 337 91.5 Q350 111 358 131 L373 122 Q361 97 344.5 73.5 Q328 50 305.5 31.5 Q283 13 252.5 2 Q222 -9 182 -9 Q112 -9 67 36.5 Q22 82 22 168 Q22 227 41 282 Q60 337 95 379 Q130 421 179.5 446 Q229 471 290 471 Q341 471 375.5 448 Q410 425 410 383 Q410 355 390 333 Q370 311 338 311 Q318 311 302.5 319 Q287 327 279 341 L357 433 Q342 449 313 449 Z M299 660 Q317 678 331.5 687 Q346 696 366 696 Q385 696 397 686 Q409 676 409 659 Q409 639 396 625.5 Q383 612 355 598 L203 519 L160 519 L299 660 Z " />
<glyph glyph-name="Ccircumflex" unicode="&#x108;" horiz-adv-x="576" d="M331 26 Q368 26 398.5 40 Q429 54 452.5 76.5 Q476 99 493.5 126 Q511 153 524 179 L542 168 Q527 136 505 104.5 Q483 73 452 48 Q421 23 380 7 Q339 -9 288 -9 Q225 -9 179.5 13 Q134 35 105.5 72.5 Q77 110 63.5 160.5 Q50 211 50 269 Q50 345 74.5 423 Q99 501 147 565 Q195 629 265.5 669.5 Q336 710 428 710 Q476 710 509.5 698 Q543 686 564 666.5 Q585 647 594 622.5 Q603 598 603 574 Q603 548 595 527.5 Q587 507 573 492.5 Q559 478 540.5 470 Q522 462 501 462 Q472 462 457.5 471.5 Q443 481 435 492 L566 620 Q552 649 523 668 Q494 687 446 687 Q383 687 336.5 647.5 Q290 608 259.5 545.5 Q229 483 214.5 405 Q200 327 200 251 Q200 136 234 81 Q268 26 331 26 Z M530 752 L417 839 L271 753 L254 766 L408 928 L465 928 L554 766 L530 752 Z " />
<glyph glyph-name="ccircumflex" unicode="&#x109;" horiz-adv-x="423" d="M313 449 Q273 449 243 420.5 Q213 392 193.5 348.5 Q174 305 164 253 Q154 201 154 155 Q154 92 173 56.5 Q192 21 232 21 Q253 21 272 30.5 Q291 40 307.5 56 Q324 72 337 91.5 Q350 111 358 131 L373 122 Q361 97 344.5 73.5 Q328 50 305.5 31.5 Q283 13 252.5 2 Q222 -9 182 -9 Q112 -9 67 36.5 Q22 82 22 168 Q22 227 41 282 Q60 337 95 379 Q130 421 179.5 446 Q229 471 290 471 Q341 471 375.5 448 Q410 425 410 383 Q410 355 390 333 Q370 311 338 311 Q318 311 302.5 319 Q287 327 279 341 L357 433 Q342 449 313 449 Z M392 514 L279 601 L133 515 L116 528 L270 690 L327 690 L416 528 L392 514 Z " />
<glyph glyph-name="Cdotaccent" unicode="&#x10a;" horiz-adv-x="576" d="M331 26 Q368 26 398.5 40 Q429 54 452.5 76.5 Q476 99 493.5 126 Q511 153 524 179 L542 168 Q527 136 505 104.5 Q483 73 452 48 Q421 23 380 7 Q339 -9 288 -9 Q225 -9 179.5 13 Q134 35 105.5 72.5 Q77 110 63.5 160.5 Q50 211 50 269 Q50 345 74.5 423 Q99 501 147 565 Q195 629 265.5 669.5 Q336 710 428 710 Q476 710 509.5 698 Q543 686 564 666.5 Q585 647 594 622.5 Q603 598 603 574 Q603 548 595 527.5 Q587 507 573 492.5 Q559 478 540.5 470 Q522 462 501 462 Q472 462 457.5 471.5 Q443 481 435 492 L566 620 Q552 649 523 668 Q494 687 446 687 Q383 687 336.5 647.5 Q290 608 259.5 545.5 Q229 483 214.5 405 Q200 327 200 251 Q200 136 234 81 Q268 26 331 26 Z M501 851 Q501 817 478 794 Q455 771 421 771 Q397 771 382 787 Q367 803 367 827 Q367 859 390 882.5 Q413 906 447 906 Q471 906 486 890 Q501 874 501 851 Z " />
<glyph glyph-name="cdotaccent" unicode="&#x10b;" horiz-adv-x="423" d="M313 449 Q273 449 243 420.5 Q213 392 193.5 348.5 Q174 305 164 253 Q154 201 154 155 Q154 92 173 56.5 Q192 21 232 21 Q253 21 272 30.5 Q291 40 307.5 56 Q324 72 337 91.5 Q350 111 358 131 L373 122 Q361 97 344.5 73.5 Q328 50 305.5 31.5 Q283 13 252.5 2 Q222 -9 182 -9 Q112 -9 67 36.5 Q22 82 22 168 Q22 227 41 282 Q60 337 95 379 Q130 421 179.5 446 Q229 471 290 471 Q341 471 375.5 448 Q410 425 410 383 Q410 355 390 333 Q370 311 338 311 Q318 311 302.5 319 Q287 327 279 341 L357 433 Q342 449 313 449 Z M349 613 Q349 579 326 556 Q303 533 269 533 Q245 533 230 549 Q215 565 215 589 Q215 621 238 644.5 Q261 668 295 668 Q319 668 334 652 Q349 636 349 613 Z " />
<glyph glyph-name="Ccaron" unicode="&#x10c;" horiz-adv-x="576" d="M331 26 Q368 26 398.5 40 Q429 54 452.5 76.5 Q476 99 493.5 126 Q511 153 524 179 L542 168 Q527 136 505 104.5 Q483 73 452 48 Q421 23 380 7 Q339 -9 288 -9 Q225 -9 179.5 13 Q134 35 105.5 72.5 Q77 110 63.5 160.5 Q50 211 50 269 Q50 345 74.5 423 Q99 501 147 565 Q195 629 265.5 669.5 Q336 710 428 710 Q476 710 509.5 698 Q543 686 564 666.5 Q585 647 594 622.5 Q603 598 603 574 Q603 548 595 527.5 Q587 507 573 492.5 Q559 478 540.5 470 Q522 462 501 462 Q472 462 457.5 471.5 Q443 481 435 492 L566 620 Q552 649 523 668 Q494 687 446 687 Q383 687 336.5 647.5 Q290 608 259.5 545.5 Q229 483 214.5 405 Q200 327 200 251 Q200 136 234 81 Q268 26 331 26 Z M597 923 L447 760 L391 760 L304 923 L327 936 L435 849 L580 937 L597 923 Z " />
<glyph glyph-name="ccaron" unicode="&#x10d;" horiz-adv-x="423" d="M313 449 Q273 449 243 420.5 Q213 392 193.5 348.5 Q174 305 164 253 Q154 201 154 155 Q154 92 173 56.5 Q192 21 232 21 Q253 21 272 30.5 Q291 40 307.5 56 Q324 72 337 91.5 Q350 111 358 131 L373 122 Q361 97 344.5 73.5 Q328 50 305.5 31.5 Q283 13 252.5 2 Q222 -9 182 -9 Q112 -9 67 36.5 Q22 82 22 168 Q22 227 41 282 Q60 337 95 379 Q130 421 179.5 446 Q229 471 290 471 Q341 471 375.5 448 Q410 425 410 383 Q410 355 390 333 Q370 311 338 311 Q318 311 302.5 319 Q287 327 279 341 L357 433 Q342 449 313 449 Z M446 685 L296 522 L240 522 L153 685 L176 698 L284 611 L429 699 L446 685 Z " />
<glyph glyph-name="Dcaron" unicode="&#x10e;" horiz-adv-x="690" d="M87 656 Q103 663 127.5 672.5 Q152 682 185 690 Q218 698 259.5 704 Q301 710 352 710 Q501 710 582 631 Q663 552 663 411 Q663 327 633.5 252 Q604 177 548.5 121 Q493 65 412.5 32.5 Q332 0 230 0 L-33 0 L-28 21 L49 21 L158 533 Q169 584 184 618 Q199 652 227 675 Q195 669 158.5 658 Q122 647 94 634 L87 656 Z M185 21 L221 21 Q290 21 346 51.5 Q402 82 442.5 138.5 Q483 195 505 276.5 Q527 358 527 460 Q527 575 475.5 629.5 Q424 684 327 684 L185 21 Z M598 923 L448 760 L392 760 L305 923 L328 936 L436 849 L581 937 L598 923 Z " />
<glyph glyph-name="dcaron" unicode="&#x10f;" horiz-adv-x="546" d="M351 353 Q353 365 354.5 377 Q356 389 356 399 Q356 420 345 433 Q334 446 311 446 Q272 446 240.5 411 Q209 376 187.5 325.5 Q166 275 154.5 220.5 Q143 166 143 127 Q143 77 154 50 Q165 23 194 23 Q209 23 227.5 35.5 Q246 48 263 71.5 Q280 95 295.5 129.5 Q311 164 320 209 L351 353 Z M422 693 Q407 697 386 698 Q365 699 348 699 L352 715 L558 732 L432 140 Q425 109 422.5 93 Q420 77 420 65 Q420 54 423.5 45.5 Q427 37 440 37 Q454 37 470.5 54.5 Q487 72 499 94 L513 86 Q504 70 492.5 53.5 Q481 37 465.5 23 Q450 9 431.5 0 Q413 -9 391 -9 Q368 -9 352.5 1.5 Q337 12 327.5 29.5 Q318 47 314 68.5 Q310 90 310 112 Q285 58 247 24.5 Q209 -9 147 -9 Q82 -9 48 35 Q14 79 14 153 Q14 211 34.5 268 Q55 325 93 370 Q131 415 184 443 Q237 471 302 471 Q322 471 340.5 467 Q359 463 372 455 L422 693 Z M588 540 Q614 560 627.5 577.5 Q641 595 641 606 Q641 613 634.5 618 Q628 623 620.5 630 Q613 637 606.5 646.5 Q600 656 600 673 Q600 703 620.5 719.5 Q641 736 667 736 Q692 736 705.5 720.5 Q719 705 719 679 Q719 637 686 597 Q653 557 602 523 L588 540 Z " />
<glyph glyph-name="Dcroat" unicode="&#x110;" horiz-adv-x="695" d="M190 21 L226 21 Q295 21 351 51 Q407 81 447.5 138 Q488 195 510 276.5 Q532 358 532 460 Q532 575 480.5 629.5 Q429 684 332 684 L265 370 L395 370 L390 346 L259 346 L190 21 Z M52 346 L58 370 L129 370 L163 533 Q174 584 189 618 Q204 652 232 675 Q200 669 163 658 Q126 647 99 634 L92 656 Q108 663 132.5 672.5 Q157 682 190 690 Q223 698 264.5 704 Q306 710 357 710 Q431 710 489 689.5 Q547 669 586.5 630.5 Q626 592 647 536.5 Q668 481 668 411 Q668 327 638.5 252 Q609 177 553.5 121 Q498 65 417.5 32.5 Q337 0 235 0 L-28 0 L-23 21 L54 21 L124 346 L52 346 Z " />
<glyph glyph-name="dcroat" unicode="&#x111;" horiz-adv-x="546" d="M396 572 L237 572 L241 592 L400 592 L422 693 Q407 697 386 698 Q365 699 348 699 L352 715 L555 732 L525 592 L584 592 L581 572 L521 572 L429 140 Q422 109 419.5 93 Q417 77 417 65 Q417 54 420.5 45.5 Q424 37 437 37 Q451 37 467.5 54.5 Q484 72 496 94 L510 86 Q501 70 489.5 53.5 Q478 37 462.5 23 Q447 9 428.5 0 Q410 -9 388 -9 Q365 -9 350 1.5 Q335 12 326 29.5 Q317 47 313.5 68.5 Q310 90 310 112 Q285 58 247 24.5 Q209 -9 147 -9 Q82 -9 48 35 Q14 79 14 153 Q14 211 34.5 268 Q55 325 93 370 Q131 415 184 443 Q237 471 302 471 Q322 471 340.5 467 Q359 463 372 455 L396 572 Z M351 353 Q353 365 354.5 377 Q356 389 356 399 Q356 420 345 433 Q334 446 311 446 Q272 446 240.5 411 Q209 376 187.5 325.5 Q166 275 154.5 220.5 Q143 166 143 127 Q143 77 154 50 Q165 23 194 23 Q209 23 227.5 35.5 Q246 48 263 71.5 Q280 95 295.5 129.5 Q311 164 320 209 L351 353 Z " />
<glyph glyph-name="Emacron" unicode="&#x112;" horiz-adv-x="587" d="M478 697 Q544 697 575.5 669 Q607 641 607 603 Q607 556 577.5 523.5 Q548 491 499 491 Q474 491 460.5 499.5 Q447 508 439 519 L557 643 Q546 660 526.5 668 Q507 676 470 676 L317 676 L250 357 L434 357 L429 335 L245 335 L178 21 L250 21 Q357 21 416.5 59 Q476 97 499 161 L510 191 L526 191 L484 0 L-40 0 L-35 21 L42 21 L181 676 L103 676 L107 697 L478 697 Z M248 788 L265 860 L553 860 L537 788 L248 788 Z " />
<glyph glyph-name="emacron" unicode="&#x113;" horiz-adv-x="444" d="M238 23 Q264 23 285.5 33 Q307 43 323.5 58.5 Q340 74 352 92 Q364 110 372 127 L387 118 Q363 64 314.5 27.5 Q266 -9 186 -9 Q151 -9 121 2 Q91 13 69 35.5 Q47 58 34.5 92 Q22 126 22 173 Q22 231 43 284.5 Q64 338 100.5 379.5 Q137 421 186.5 446 Q236 471 294 471 Q331 471 357 463 Q383 455 399.5 441 Q416 427 424 408.5 Q432 390 432 370 Q432 340 417 314 Q402 288 375.5 268.5 Q349 249 312 238 Q275 227 230 227 Q187 227 162 234 Q158 213 155.5 192.5 Q153 172 153 148 Q153 127 157 104.5 Q161 82 170.5 64 Q180 46 196.5 34.5 Q213 23 238 23 Z M291 452 Q268 452 249 435 Q230 418 214 390.5 Q198 363 186 327.5 Q174 292 166 256 Q191 250 211 250 Q239 250 261 263.5 Q283 277 297.5 298 Q312 319 319.5 344 Q327 369 327 393 Q327 417 318 434.5 Q309 452 291 452 Z M141 550 L158 622 L446 622 L430 550 L141 550 Z " />
<glyph glyph-name="Ebreve" unicode="&#x114;" horiz-adv-x="587" d="M478 697 Q544 697 575.5 669 Q607 641 607 603 Q607 556 577.5 523.5 Q548 491 499 491 Q474 491 460.5 499.5 Q447 508 439 519 L557 643 Q546 660 526.5 668 Q507 676 470 676 L317 676 L250 357 L434 357 L429 335 L245 335 L178 21 L250 21 Q357 21 416.5 59 Q476 97 499 161 L510 191 L526 191 L484 0 L-40 0 L-35 21 L42 21 L181 676 L103 676 L107 697 L478 697 Z M400 842 Q448 842 486 866 Q524 890 537 926 L562 926 Q556 895 541.5 865.5 Q527 836 505.5 812.5 Q484 789 454.5 775 Q425 761 388 761 Q331 761 303 795.5 Q275 830 275 884 Q275 903 281 926 L306 926 Q306 888 331.5 865 Q357 842 400 842 Z " />
<glyph glyph-name="ebreve" unicode="&#x115;" horiz-adv-x="444" d="M238 23 Q264 23 285.5 33 Q307 43 323.5 58.5 Q340 74 352 92 Q364 110 372 127 L387 118 Q363 64 314.5 27.5 Q266 -9 186 -9 Q151 -9 121 2 Q91 13 69 35.5 Q47 58 34.5 92 Q22 126 22 173 Q22 231 43 284.5 Q64 338 100.5 379.5 Q137 421 186.5 446 Q236 471 294 471 Q331 471 357 463 Q383 455 399.5 441 Q416 427 424 408.5 Q432 390 432 370 Q432 340 417 314 Q402 288 375.5 268.5 Q349 249 312 238 Q275 227 230 227 Q187 227 162 234 Q158 213 155.5 192.5 Q153 172 153 148 Q153 127 157 104.5 Q161 82 170.5 64 Q180 46 196.5 34.5 Q213 23 238 23 Z M291 452 Q268 452 249 435 Q230 418 214 390.5 Q198 363 186 327.5 Q174 292 166 256 Q191 250 211 250 Q239 250 261 263.5 Q283 277 297.5 298 Q312 319 319.5 344 Q327 369 327 393 Q327 417 318 434.5 Q309 452 291 452 Z M291 604 Q339 604 377 628 Q415 652 428 688 L453 688 Q447 657 432.5 627.5 Q418 598 396.5 574.5 Q375 551 345.5 537 Q316 523 279 523 Q222 523 194 557.5 Q166 592 166 646 Q166 665 172 688 L197 688 Q197 650 222.5 627 Q248 604 291 604 Z " />
<glyph glyph-name="Edotaccent" unicode="&#x116;" horiz-adv-x="587" d="M478 697 Q544 697 575.5 669 Q607 641 607 603 Q607 556 577.5 523.5 Q548 491 499 491 Q474 491 460.5 499.5 Q447 508 439 519 L557 643 Q546 660 526.5 668 Q507 676 470 676 L317 676 L250 357 L434 357 L429 335 L245 335 L178 21 L250 21 Q357 21 416.5 59 Q476 97 499 161 L510 191 L526 191 L484 0 L-40 0 L-35 21 L42 21 L181 676 L103 676 L107 697 L478 697 Z M478 851 Q478 817 455 794 Q432 771 398 771 Q374 771 359 787 Q344 803 344 827 Q344 859 367 882.5 Q390 906 424 906 Q448 906 463 890 Q478 874 478 851 Z " />
<glyph glyph-name="edotaccent" unicode="&#x117;" horiz-adv-x="444" d="M238 23 Q264 23 285.5 33 Q307 43 323.5 58.5 Q340 74 352 92 Q364 110 372 127 L387 118 Q363 64 314.5 27.5 Q266 -9 186 -9 Q151 -9 121 2 Q91 13 69 35.5 Q47 58 34.5 92 Q22 126 22 173 Q22 231 43 284.5 Q64 338 100.5 379.5 Q137 421 186.5 446 Q236 471 294 471 Q331 471 357 463 Q383 455 399.5 441 Q416 427 424 408.5 Q432 390 432 370 Q432 340 417 314 Q402 288 375.5 268.5 Q349 249 312 238 Q275 227 230 227 Q187 227 162 234 Q158 213 155.5 192.5 Q153 172 153 148 Q153 127 157 104.5 Q161 82 170.5 64 Q180 46 196.5 34.5 Q213 23 238 23 Z M291 452 Q268 452 249 435 Q230 418 214 390.5 Q198 363 186 327.5 Q174 292 166 256 Q191 250 211 250 Q239 250 261 263.5 Q283 277 297.5 298 Q312 319 319.5 344 Q327 369 327 393 Q327 417 318 434.5 Q309 452 291 452 Z M360 613 Q360 579 337 556 Q314 533 280 533 Q256 533 241 549 Q226 565 226 589 Q226 621 249 644.5 Q272 668 306 668 Q330 668 345 652 Q360 636 360 613 Z " />
<glyph glyph-name="Eogonek" unicode="&#x118;" horiz-adv-x="587" d="M478 697 Q544 697 575.5 669 Q607 641 607 603 Q607 556 577.5 523.5 Q548 491 499 491 Q474 491 460.5 499.5 Q447 508 439 519 L557 643 Q546 660 526.5 668 Q507 676 470 676 L317 676 L250 357 L434 357 L429 335 L245 335 L178 21 L250 21 Q357 21 416.5 59 Q476 97 499 161 L510 191 L526 191 L484 0 L393 0 Q351 -29 334 -64.5 Q317 -100 317 -134 Q317 -158 326 -173.5 Q335 -189 355 -189 Q373 -189 389 -174.5 Q405 -160 417 -142 L429 -153 Q402 -196 370.5 -215.5 Q339 -235 304 -235 Q268 -235 249.5 -214 Q231 -193 231 -164 Q231 -111 270 -69.5 Q309 -28 366 0 L-40 0 L-35 21 L42 21 L181 676 L103 676 L107 697 L478 697 Z " />
<glyph glyph-name="eogonek" unicode="&#x119;" horiz-adv-x="439" d="M234 23 Q260 23 281.5 33 Q303 43 319.5 58.5 Q336 74 348 92 Q360 110 368 127 L383 118 Q352 50 281 10 Q230 -19 209 -57.5 Q188 -96 188 -134 Q188 -158 197 -173.5 Q206 -189 226 -189 Q244 -189 260 -174.5 Q276 -160 288 -142 L300 -153 Q273 -196 241.5 -215.5 Q210 -235 175 -235 Q139 -235 120.5 -214 Q102 -193 102 -164 Q102 -113 137.5 -73.5 Q173 -34 227 -5 Q208 -9 182 -9 Q147 -9 117 2 Q87 13 65 35.5 Q43 58 30.5 92 Q18 126 18 173 Q18 231 39 284.5 Q60 338 96.5 379.5 Q133 421 182.5 446 Q232 471 290 471 Q327 471 353 463 Q379 455 395.5 441 Q412 427 420 408.5 Q428 390 428 370 Q428 340 413 314 Q398 288 371.5 268.5 Q345 249 308 238 Q271 227 226 227 Q183 227 158 234 Q154 213 151.5 192.5 Q149 172 149 148 Q149 127 153 104.5 Q157 82 166.5 64 Q176 46 192.5 34.5 Q209 23 234 23 Z M287 452 Q264 452 245 435 Q226 418 210 390.5 Q194 363 182 327.5 Q170 292 162 256 Q187 250 207 250 Q235 250 257 263.5 Q279 277 293.5 298 Q308 319 315.5 344 Q323 369 323 393 Q323 417 314 434.5 Q305 452 287 452 Z " />
<glyph glyph-name="Ecaron" unicode="&#x11a;" horiz-adv-x="587" d="M478 697 Q544 697 575.5 669 Q607 641 607 603 Q607 556 577.5 523.5 Q548 491 499 491 Q474 491 460.5 499.5 Q447 508 439 519 L557 643 Q546 660 526.5 668 Q507 676 470 676 L317 676 L250 357 L434 357 L429 335 L245 335 L178 21 L250 21 Q357 21 416.5 59 Q476 97 499 161 L510 191 L526 191 L484 0 L-40 0 L-35 21 L42 21 L181 676 L103 676 L107 697 L478 697 Z M574 923 L424 760 L368 760 L281 923 L304 936 L412 849 L557 937 L574 923 Z " />
<glyph glyph-name="ecaron" unicode="&#x11b;" horiz-adv-x="444" d="M238 23 Q264 23 285.5 33 Q307 43 323.5 58.5 Q340 74 352 92 Q364 110 372 127 L387 118 Q363 64 314.5 27.5 Q266 -9 186 -9 Q151 -9 121 2 Q91 13 69 35.5 Q47 58 34.5 92 Q22 126 22 173 Q22 231 43 284.5 Q64 338 100.5 379.5 Q137 421 186.5 446 Q236 471 294 471 Q331 471 357 463 Q383 455 399.5 441 Q416 427 424 408.5 Q432 390 432 370 Q432 340 417 314 Q402 288 375.5 268.5 Q349 249 312 238 Q275 227 230 227 Q187 227 162 234 Q158 213 155.5 192.5 Q153 172 153 148 Q153 127 157 104.5 Q161 82 170.5 64 Q180 46 196.5 34.5 Q213 23 238 23 Z M291 452 Q268 452 249 435 Q230 418 214 390.5 Q198 363 186 327.5 Q174 292 166 256 Q191 250 211 250 Q239 250 261 263.5 Q283 277 297.5 298 Q312 319 319.5 344 Q327 369 327 393 Q327 417 318 434.5 Q309 452 291 452 Z M447 685 L297 522 L241 522 L154 685 L177 698 L285 611 L430 699 L447 685 Z " />
<glyph glyph-name="Gcircumflex" unicode="&#x11c;" horiz-adv-x="659" d="M536 0 L521 0 Q513 6 504 9 Q495 12 481 12 Q470 12 451 8.5 Q432 5 408 1.5 Q384 -2 357.5 -5.5 Q331 -9 304 -9 Q232 -9 183.5 11.5 Q135 32 105.5 69 Q76 106 63 157 Q50 208 50 269 Q50 345 75.5 423 Q101 501 152 565 Q203 629 278.5 669.5 Q354 710 454 710 Q502 710 536.5 698.5 Q571 687 592.5 669 Q614 651 624 628.5 Q634 606 634 584 Q634 559 625.5 539 Q617 519 602.5 505.5 Q588 492 570 484.5 Q552 477 533 477 Q504 477 489.5 487 Q475 497 467 508 L590 631 Q573 657 543 671.5 Q513 686 469 686 Q423 686 385.5 666.5 Q348 647 317.5 613.5 Q287 580 264.5 536 Q242 492 227 443 Q212 394 204.5 342.5 Q197 291 197 244 Q197 135 226.5 76 Q256 17 327 17 Q353 17 378.5 23 Q404 29 424 41 L474 275 L397 275 L401 295 L655 295 L651 275 L595 275 L536 0 Z M565 752 L452 839 L306 753 L289 766 L443 928 L500 928 L589 766 L565 752 Z " />
<glyph glyph-name="gcircumflex" unicode="&#x11d;" horiz-adv-x="465" d="M298 -118 Q298 -85 274 -67.5 Q250 -50 216.5 -39.5 Q183 -29 147.5 -22.5 Q112 -16 90 -7 Q73 -18 57 -42.5 Q41 -67 41 -99 Q41 -138 72.5 -167.5 Q104 -197 169 -197 Q192 -197 215 -192 Q238 -187 256.5 -177 Q275 -167 286.5 -152 Q298 -137 298 -118 Z M213 189 Q235 189 253.5 204.5 Q272 220 285.5 244.5 Q299 269 306.5 300.5 Q314 332 314 365 Q314 378 312.5 393.5 Q311 409 306 422 Q301 435 292.5 443.5 Q284 452 269 452 Q246 452 227.5 434.5 Q209 417 195.5 390 Q182 363 174.5 330.5 Q167 298 167 268 Q167 257 168.5 243 Q170 229 175 217 Q180 205 189 197 Q198 189 213 189 Z M419 547 Q432 524 439 511.5 Q446 499 446 485 Q446 468 432.5 452 Q419 436 404 428 Q431 396 431 351 Q431 316 416.5 283 Q402 250 374.5 223.5 Q347 197 306 181 Q265 165 211 165 Q176 165 149 171 Q122 177 103 186 Q92 180 87 168.5 Q82 157 82 146 Q82 124 100.5 111.5 Q119 99 165 88 Q221 75 264 63.5 Q307 52 336.5 36.5 Q366 21 381 -2.5 Q396 -26 396 -63 Q396 -99 377 -128.5 Q358 -158 326 -178 Q294 -198 250 -209 Q206 -220 157 -220 Q71 -220 19 -192 Q-33 -164 -33 -112 Q-33 -69 -4.5 -40.5 Q24 -12 66 2 Q40 14 24.5 33 Q9 52 9 84 Q9 115 27.5 143.5 Q46 172 87 196 Q70 211 60 232.5 Q50 254 50 281 Q50 325 66.5 360 Q83 395 113 420 Q143 445 183.5 458 Q224 471 272 471 Q302 471 335 463.5 Q368 456 390 440 Q422 458 422 481 Q422 498 402 514 L289 601 L143 515 L126 528 L280 690 L337 690 L419 547 Z " />
<glyph glyph-name="Gbreve" unicode="&#x11e;" horiz-adv-x="659" d="M536 0 L521 0 Q513 6 504 9 Q495 12 481 12 Q470 12 451 8.5 Q432 5 408 1.5 Q384 -2 357.5 -5.5 Q331 -9 304 -9 Q232 -9 183.5 11.5 Q135 32 105.5 69 Q76 106 63 157 Q50 208 50 269 Q50 345 75.5 423 Q101 501 152 565 Q203 629 278.5 669.5 Q354 710 454 710 Q502 710 536.5 698.5 Q571 687 592.5 669 Q614 651 624 628.5 Q634 606 634 584 Q634 559 625.5 539 Q617 519 602.5 505.5 Q588 492 570 484.5 Q552 477 533 477 Q504 477 489.5 487 Q475 497 467 508 L590 631 Q573 657 543 671.5 Q513 686 469 686 Q423 686 385.5 666.5 Q348 647 317.5 613.5 Q287 580 264.5 536 Q242 492 227 443 Q212 394 204.5 342.5 Q197 291 197 244 Q197 135 226.5 76 Q256 17 327 17 Q353 17 378.5 23 Q404 29 424 41 L474 275 L397 275 L401 295 L655 295 L651 275 L595 275 L536 0 Z M454 842 Q502 842 540 866 Q578 890 591 926 L616 926 Q610 895 595.5 865.5 Q581 836 559.5 812.5 Q538 789 508.5 775 Q479 761 442 761 Q385 761 357 795.5 Q329 830 329 884 Q329 903 335 926 L360 926 Q360 888 385.5 865 Q411 842 454 842 Z " />
<glyph glyph-name="gbreve" unicode="&#x11f;" horiz-adv-x="465" d="M269 604 Q317 604 355 628 Q393 652 406 688 L431 688 Q425 657 410.5 627.5 Q396 598 374.5 574.5 Q353 551 323.5 537 Q294 523 257 523 Q200 523 172 557.5 Q144 592 144 646 Q144 665 150 688 L175 688 Q175 650 200.5 627 Q226 604 269 604 Z M298 -118 Q298 -85 274 -67.5 Q250 -50 216.5 -39.5 Q183 -29 147.5 -22.5 Q112 -16 90 -7 Q73 -18 57 -42.5 Q41 -67 41 -99 Q41 -138 72.5 -167.5 Q104 -197 169 -197 Q192 -197 215 -192 Q238 -187 256.5 -177 Q275 -167 286.5 -152 Q298 -137 298 -118 Z M213 189 Q235 189 253.5 204.5 Q272 220 285.5 244.5 Q299 269 306.5 300.5 Q314 332 314 365 Q314 378 312.5 393.5 Q311 409 306 422 Q301 435 292.5 443.5 Q284 452 269 452 Q246 452 227.5 434.5 Q209 417 195.5 390 Q182 363 174.5 330.5 Q167 298 167 268 Q167 257 168.5 243 Q170 229 175 217 Q180 205 189 197 Q198 189 213 189 Z M403 428 Q431 395 431 351 Q431 316 416.5 283 Q402 250 374.5 223.5 Q347 197 306 181 Q265 165 211 165 Q176 165 149 171 Q122 177 103 186 Q92 180 87 168.5 Q82 157 82 146 Q82 124 100.5 111.5 Q119 99 165 88 Q221 75 264 63.5 Q307 52 336.5 36.5 Q366 21 381 -2.5 Q396 -26 396 -63 Q396 -99 377 -128.5 Q358 -158 326 -178 Q294 -198 250 -209 Q206 -220 157 -220 Q71 -220 19 -192 Q-33 -164 -33 -112 Q-33 -69 -4.5 -40.5 Q24 -12 66 2 Q40 14 24.5 33 Q9 52 9 84 Q9 115 27.5 143.5 Q46 172 87 196 Q70 211 60 232.5 Q50 254 50 281 Q50 325 66.5 360 Q83 395 113 420 Q143 445 183.5 458 Q224 471 272 471 Q302 471 335 463.5 Q368 456 390 440 Q416 457 426.5 470.5 Q437 484 437 494 Q437 501 431.5 504.5 Q426 508 411 508 L367 508 Q367 537 383 552.5 Q399 568 424 568 Q445 568 459 555.5 Q473 543 473 523 Q473 500 459 476 Q445 452 403 428 Z " />
<glyph glyph-name="Gdotaccent" unicode="&#x120;" horiz-adv-x="659" d="M536 0 L521 0 Q513 6 504 9 Q495 12 481 12 Q470 12 451 8.5 Q432 5 408 1.5 Q384 -2 357.5 -5.5 Q331 -9 304 -9 Q232 -9 183.5 11.5 Q135 32 105.5 69 Q76 106 63 157 Q50 208 50 269 Q50 345 75.5 423 Q101 501 152 565 Q203 629 278.5 669.5 Q354 710 454 710 Q502 710 536.5 698.5 Q571 687 592.5 669 Q614 651 624 628.5 Q634 606 634 584 Q634 559 625.5 539 Q617 519 602.5 505.5 Q588 492 570 484.5 Q552 477 533 477 Q504 477 489.5 487 Q475 497 467 508 L590 631 Q573 657 543 671.5 Q513 686 469 686 Q423 686 385.5 666.5 Q348 647 317.5 613.5 Q287 580 264.5 536 Q242 492 227 443 Q212 394 204.5 342.5 Q197 291 197 244 Q197 135 226.5 76 Q256 17 327 17 Q353 17 378.5 23 Q404 29 424 41 L474 275 L397 275 L401 295 L655 295 L651 275 L595 275 L536 0 Z M537 851 Q537 817 514 794 Q491 771 457 771 Q433 771 418 787 Q403 803 403 827 Q403 859 426 882.5 Q449 906 483 906 Q507 906 522 890 Q537 874 537 851 Z " />
<glyph glyph-name="gdotaccent" unicode="&#x121;" horiz-adv-x="465" d="M360 613 Q360 579 337 556 Q314 533 280 533 Q256 533 241 549 Q226 565 226 589 Q226 616 237.5 636 Q249 656 267.5 668.5 Q286 681 308.5 687.5 Q331 694 353 694 Q383 694 405.5 684 Q428 674 443 657.5 Q458 641 466 620.5 Q474 600 474 579 Q474 540 456.5 500 Q439 460 404 428 Q431 396 431 351 Q431 316 416.5 283 Q402 250 374.5 223.5 Q347 197 306 181 Q265 165 211 165 Q176 165 149 171 Q122 177 103 186 Q92 180 87 168.5 Q82 157 82 146 Q82 124 100.5 111.5 Q119 99 165 88 Q221 75 264 63.5 Q307 52 336.5 36.5 Q366 21 381 -2.5 Q396 -26 396 -63 Q396 -99 377 -128.5 Q358 -158 326 -178 Q294 -198 250 -209 Q206 -220 157 -220 Q71 -220 19 -192 Q-33 -164 -33 -112 Q-33 -69 -4.5 -40.5 Q24 -12 66 2 Q40 14 24.5 33 Q9 52 9 84 Q9 115 27.5 143.5 Q46 172 87 196 Q70 211 60 232.5 Q50 254 50 281 Q50 325 66.5 360 Q83 395 113 420 Q143 445 183.5 458 Q224 471 272 471 Q302 471 335 463.5 Q368 456 390 440 Q418 469 433 502.5 Q448 536 448 572 Q448 615 422.5 644.5 Q397 674 346 674 Q321 674 302 668 Q329 668 344.5 652 Q360 636 360 613 Z M298 -118 Q298 -85 274 -67.5 Q250 -50 216.5 -39.5 Q183 -29 147.5 -22.5 Q112 -16 90 -7 Q73 -18 57 -42.5 Q41 -67 41 -99 Q41 -138 72.5 -167.5 Q104 -197 169 -197 Q192 -197 215 -192 Q238 -187 256.5 -177 Q275 -167 286.5 -152 Q298 -137 298 -118 Z M213 189 Q235 189 253.5 204.5 Q272 220 285.5 244.5 Q299 269 306.5 300.5 Q314 332 314 365 Q314 378 312.5 393.5 Q311 409 306 422 Q301 435 292.5 443.5 Q284 452 269 452 Q246 452 227.5 434.5 Q209 417 195.5 390 Q182 363 174.5 330.5 Q167 298 167 268 Q167 257 168.5 243 Q170 229 175 217 Q180 205 189 197 Q198 189 213 189 Z " />
<glyph glyph-name="Gcommaaccent" unicode="&#x122;" horiz-adv-x="659" d="M536 0 L521 0 Q513 6 504 9 Q495 12 481 12 Q470 12 451 8.5 Q432 5 408 1.5 Q384 -2 357.5 -5.5 Q331 -9 304 -9 Q232 -9 183.5 11.5 Q135 32 105.5 69 Q76 106 63 157 Q50 208 50 269 Q50 345 75.5 423 Q101 501 152 565 Q203 629 278.5 669.5 Q354 710 454 710 Q502 710 536.5 698.5 Q571 687 592.5 669 Q614 651 624 628.5 Q634 606 634 584 Q634 559 625.5 539 Q617 519 602.5 505.5 Q588 492 570 484.5 Q552 477 533 477 Q504 477 489.5 487 Q475 497 467 508 L590 631 Q573 657 543 671.5 Q513 686 469 686 Q423 686 385.5 666.5 Q348 647 317.5 613.5 Q287 580 264.5 536 Q242 492 227 443 Q212 394 204.5 342.5 Q197 291 197 244 Q197 135 226.5 76 Q256 17 327 17 Q353 17 378.5 23 Q404 29 424 41 L474 275 L397 275 L401 295 L655 295 L651 275 L595 275 L536 0 Z M230 -240 Q256 -220 269.5 -202.5 Q283 -185 283 -174 Q283 -167 276.5 -162 Q270 -157 262.5 -150 Q255 -143 248.5 -133.5 Q242 -124 242 -107 Q242 -77 262.5 -60.5 Q283 -44 309 -44 Q334 -44 347.5 -59.5 Q361 -75 361 -101 Q361 -143 328 -183 Q295 -223 244 -257 L230 -240 Z " />
<glyph glyph-name="gcommaaccent" unicode="&#x123;" horiz-adv-x="465" d="M355 728 Q329 708 315.5 690.5 Q302 673 302 662 Q302 655 308.5 650 Q315 645 323 638 Q331 631 337.5 621 Q344 611 344 595 Q344 565 323.5 548.5 Q303 532 277 532 Q252 532 238.5 547.5 Q225 563 225 588 Q225 630 257.5 670.5 Q290 711 341 746 L355 728 Z M298 -118 Q298 -85 274 -67.5 Q250 -50 216.5 -39.5 Q183 -29 147.5 -22.5 Q112 -16 90 -7 Q73 -18 57 -42.5 Q41 -67 41 -99 Q41 -138 72.5 -167.5 Q104 -197 169 -197 Q192 -197 215 -192 Q238 -187 256.5 -177 Q275 -167 286.5 -152 Q298 -137 298 -118 Z M213 189 Q235 189 253.5 204.5 Q272 220 285.5 244.5 Q299 269 306.5 300.5 Q314 332 314 365 Q314 378 312.5 393.5 Q311 409 306 422 Q301 435 292.5 443.5 Q284 452 269 452 Q246 452 227.5 434.5 Q209 417 195.5 390 Q182 363 174.5 330.5 Q167 298 167 268 Q167 257 168.5 243 Q170 229 175 217 Q180 205 189 197 Q198 189 213 189 Z M403 428 Q431 395 431 351 Q431 316 416.5 283 Q402 250 374.5 223.5 Q347 197 306 181 Q265 165 211 165 Q176 165 149 171 Q122 177 103 186 Q92 180 87 168.5 Q82 157 82 146 Q82 124 100.5 111.5 Q119 99 165 88 Q221 75 264 63.5 Q307 52 336.5 36.5 Q366 21 381 -2.5 Q396 -26 396 -63 Q396 -99 377 -128.5 Q358 -158 326 -178 Q294 -198 250 -209 Q206 -220 157 -220 Q71 -220 19 -192 Q-33 -164 -33 -112 Q-33 -69 -4.5 -40.5 Q24 -12 66 2 Q40 14 24.5 33 Q9 52 9 84 Q9 115 27.5 143.5 Q46 172 87 196 Q70 211 60 232.5 Q50 254 50 281 Q50 325 66.5 360 Q83 395 113 420 Q143 445 183.5 458 Q224 471 272 471 Q302 471 335 463.5 Q368 456 390 440 Q416 457 426.5 470.5 Q437 484 437 494 Q437 501 431.5 504.5 Q426 508 411 508 L367 508 Q367 537 383 552.5 Q399 568 424 568 Q445 568 459 555.5 Q473 543 473 523 Q473 500 459 476 Q445 452 403 428 Z " />
<glyph glyph-name="Hcircumflex" unicode="&#x124;" horiz-adv-x="754" d="M178 21 L256 21 L252 0 L-40 0 L-35 21 L42 21 L181 676 L103 676 L108 697 L396 697 L392 676 L317 676 L254 376 L535 376 L599 676 L524 676 L529 697 L818 697 L813 676 L735 676 L596 21 L673 21 L668 0 L381 0 L386 21 L460 21 L530 353 L249 353 L178 21 Z M601 752 L488 839 L342 753 L325 766 L479 928 L536 928 L625 766 L601 752 Z " />
<glyph glyph-name="hcircumflex" unicode="&#x125;" horiz-adv-x="550" d="M151 693 Q136 697 115.5 698 Q95 699 78 699 L82 715 L287 732 L202 348 Q236 410 280.5 440.5 Q325 471 379 471 Q437 471 461 441.5 Q485 412 485 369 Q485 341 477 307 Q469 273 458 221 Q444 160 434.5 120.5 Q425 81 425 61 Q425 37 443 37 Q454 37 470.5 53 Q487 69 501 94 L514 85 Q488 40 455.5 15.5 Q423 -9 383 -9 Q338 -9 318.5 14 Q299 37 299 70 Q299 98 308.5 136 Q318 174 330 230 Q341 277 349 313.5 Q357 350 357 375 Q357 401 347.5 416 Q338 431 320 431 Q305 431 285.5 417 Q266 403 245.5 375.5 Q225 348 207 307.5 Q189 267 178 214 L132 0 L4 0 L151 693 Z M334 721 L221 808 L75 722 L58 735 L212 897 L269 897 L358 735 L334 721 Z " />
<glyph glyph-name="Hbar" unicode="&#x126;" horiz-adv-x="754" d="M76 543 L153 543 L181 676 L103 676 L108 697 L396 697 L392 676 L317 676 L289 543 L570 543 L599 676 L524 676 L529 697 L818 697 L813 676 L735 676 L707 543 L787 543 L782 520 L702 520 L596 21 L673 21 L668 0 L381 0 L386 21 L460 21 L530 353 L249 353 L178 21 L256 21 L252 0 L-40 0 L-35 21 L42 21 L148 520 L71 520 L76 543 Z M535 376 L565 520 L284 520 L254 376 L535 376 Z " />
<glyph glyph-name="hbar" unicode="&#x127;" horiz-adv-x="550" d="M125 572 L60 572 L64 592 L129 592 L151 693 Q136 697 115.5 698 Q95 699 78 699 L82 715 L287 732 L256 592 L407 592 L404 572 L251 572 L202 348 Q236 410 280.5 440.5 Q325 471 379 471 Q437 471 461 441.5 Q485 412 485 369 Q485 341 477 307 Q469 273 458 221 Q444 160 434.5 120.5 Q425 81 425 61 Q425 37 443 37 Q454 37 470.5 53 Q487 69 501 94 L514 85 Q488 40 455.5 15.5 Q423 -9 383 -9 Q338 -9 318.5 14 Q299 37 299 70 Q299 98 308.5 136 Q318 174 330 230 Q341 277 349 313.5 Q357 350 357 375 Q357 401 347.5 416 Q338 431 320 431 Q305 431 285.5 417 Q266 403 245.5 375.5 Q225 348 207 307.5 Q189 267 178 214 L132 0 L4 0 L125 572 Z " />
<glyph glyph-name="Itilde" unicode="&#x128;" horiz-adv-x="344" d="M-36 0 L-31 21 L46 21 L185 676 L107 676 L111 697 L404 697 L400 676 L321 676 L182 21 L260 21 L255 0 L-36 0 Z M461 904 Q446 844 415 809.5 Q384 775 336 775 Q316 775 297 782 Q278 789 260.5 797.5 Q243 806 226 813 Q209 820 193 820 Q176 820 157.5 810.5 Q139 801 125 772 L111 772 Q124 828 158 863 Q192 898 238 898 Q260 898 279 891 Q298 884 315 876 Q332 868 348.5 861 Q365 854 382 854 Q401 854 418 866 Q435 878 447 904 L461 904 Z " />
<glyph glyph-name="itilde" unicode="&#x129;" horiz-adv-x="284" d="M107 432 Q92 436 72.5 437 Q53 438 37 438 L41 454 L244 471 L176 156 Q168 117 163.5 94.5 Q159 72 159 61 Q159 37 177 37 Q189 37 204.5 53 Q220 69 234 94 L248 85 Q222 40 189.5 15.5 Q157 -9 117 -9 Q71 -9 53 14 Q35 37 35 70 Q35 93 39 119 Q43 145 53 189 L107 432 Z M385 666 Q370 606 339 571.5 Q308 537 260 537 Q240 537 221 544 Q202 551 184.5 559.5 Q167 568 150 575 Q133 582 117 582 Q100 582 81.5 572.5 Q63 563 49 534 L35 534 Q48 590 82 625 Q116 660 162 660 Q184 660 203 653 Q222 646 239 638 Q256 630 272.5 623 Q289 616 306 616 Q325 616 342 628 Q359 640 371 666 L385 666 Z " />
<glyph glyph-name="Imacron" unicode="&#x12a;" horiz-adv-x="344" d="M-36 0 L-31 21 L46 21 L185 676 L107 676 L111 697 L404 697 L400 676 L321 676 L182 21 L260 21 L255 0 L-36 0 Z M133 788 L150 860 L438 860 L422 788 L133 788 Z " />
<glyph glyph-name="imacron" unicode="&#x12b;" horiz-adv-x="284" d="M107 432 Q92 436 72.5 437 Q53 438 37 438 L41 454 L244 471 L176 156 Q168 117 163.5 94.5 Q159 72 159 61 Q159 37 177 37 Q189 37 204.5 53 Q220 69 234 94 L248 85 Q222 40 189.5 15.5 Q157 -9 117 -9 Q71 -9 53 14 Q35 37 35 70 Q35 93 39 119 Q43 145 53 189 L107 432 Z M72 550 L88 618 L335 618 L319 550 L72 550 Z " />
<glyph glyph-name="Ibreve" unicode="&#x12c;" horiz-adv-x="344" d="M-36 0 L-31 21 L46 21 L185 676 L107 676 L111 697 L404 697 L400 676 L321 676 L182 21 L260 21 L255 0 L-36 0 Z M287 842 Q335 842 373 866 Q411 890 424 926 L449 926 Q443 895 428.5 865.5 Q414 836 392.5 812.5 Q371 789 341.5 775 Q312 761 275 761 Q218 761 190 795.5 Q162 830 162 884 Q162 903 168 926 L193 926 Q193 888 218.5 865 Q244 842 287 842 Z " />
<glyph glyph-name="ibreve" unicode="&#x12d;" horiz-adv-x="284" d="M107 432 Q92 436 72.5 437 Q53 438 37 438 L41 454 L244 471 L176 156 Q168 117 163.5 94.5 Q159 72 159 61 Q159 37 177 37 Q189 37 204.5 53 Q220 69 234 94 L248 85 Q222 40 189.5 15.5 Q157 -9 117 -9 Q71 -9 53 14 Q35 37 35 70 Q35 93 39 119 Q43 145 53 189 L107 432 Z M208 604 Q250 604 281 628 Q312 652 328 688 L353 688 Q345 655 332 625.5 Q319 596 300 573 Q281 550 255.5 536.5 Q230 523 197 523 Q170 523 150.5 533.5 Q131 544 119 560.5 Q107 577 101.5 598 Q96 619 96 641 Q96 656 98 667 Q100 678 102 688 L128 688 Q128 653 147.5 628.5 Q167 604 208 604 Z " />
<glyph glyph-name="Iogonek" unicode="&#x12e;" horiz-adv-x="344" d="M176 0 Q134 -29 117 -64.5 Q100 -100 100 -134 Q100 -158 109 -173.5 Q118 -189 138 -189 Q156 -189 172 -174.5 Q188 -160 200 -142 L212 -153 Q185 -196 153.5 -215.5 Q122 -235 87 -235 Q51 -235 32.5 -214 Q14 -193 14 -164 Q14 -111 53 -69.5 Q92 -28 149 0 L-36 0 L-31 21 L46 21 L185 676 L107 676 L111 697 L404 697 L400 676 L321 676 L182 21 L260 21 L255 0 L176 0 Z " />
<glyph glyph-name="iogonek" unicode="&#x12f;" horiz-adv-x="284" d="M107 432 Q92 436 72.5 437 Q53 438 37 438 L41 454 L244 471 L176 156 Q168 117 163.5 94.5 Q159 72 159 61 Q159 37 177 37 Q189 37 204.5 53 Q220 69 234 94 L248 85 Q231 56 213 37 Q195 18 174 5 Q128 -23 108.5 -61 Q89 -99 89 -134 Q89 -158 98 -173.5 Q107 -189 127 -189 Q145 -189 161 -174.5 Q177 -160 189 -142 L201 -153 Q174 -196 142.5 -215.5 Q111 -235 76 -235 Q40 -235 21.5 -214 Q3 -193 3 -164 Q3 -115 37 -76 Q71 -37 122 -9 Q72 -9 53.5 14 Q35 37 35 70 Q35 93 39 119 Q43 145 53 189 L107 432 Z M223 676 Q251 676 265.5 659 Q280 642 280 620 Q280 602 273 586 Q266 570 254.5 558.5 Q243 547 227.5 540 Q212 533 194 533 Q166 533 152 550 Q138 567 138 590 Q138 607 145 622.5 Q152 638 163 650 Q174 662 189.5 669 Q205 676 223 676 Z " />
<glyph glyph-name="Idotaccent" unicode="&#x130;" horiz-adv-x="344" d="M-36 0 L-31 21 L46 21 L185 676 L107 676 L111 697 L404 697 L400 676 L321 676 L182 21 L260 21 L255 0 L-36 0 Z M355 851 Q355 817 332 794 Q309 771 275 771 Q251 771 236 787 Q221 803 221 827 Q221 859 244 882.5 Q267 906 301 906 Q325 906 340 890 Q355 874 355 851 Z " />
<glyph glyph-name="dotlessi" unicode="&#x131;" horiz-adv-x="284" d="M107 432 Q92 436 72.5 437 Q53 438 37 438 L41 454 L244 471 L176 156 Q168 117 163.5 94.5 Q159 72 159 61 Q159 37 177 37 Q189 37 204.5 53 Q220 69 234 94 L248 85 Q222 40 189.5 15.5 Q157 -9 117 -9 Q71 -9 53 14 Q35 37 35 70 Q35 93 39 119 Q43 145 53 189 L107 432 Z " />
<glyph glyph-name="IJ" unicode="&#x132;" horiz-adv-x="748" d="M-36 0 L-31 21 L46 21 L185 676 L107 676 L111 697 L404 697 L400 676 L321 676 L182 21 L260 21 L255 0 L-36 0 Z M417 -14 Q394 -14 373.5 -9 Q353 -4 337 7 Q321 18 312 34.5 Q303 51 303 74 Q303 105 320 126 Q337 147 369 149 L410 28 Q419 8 430 8 Q441 8 450 17 Q459 26 467 45.5 Q475 65 483.5 96.5 Q492 128 501 173 L604 676 L515 676 L520 697 L823 697 L818 676 L740 676 L647 237 Q621 112 564 49 Q507 -14 417 -14 Z " />
<glyph glyph-name="ij" unicode="&#x133;" horiz-adv-x="559" d="M223 676 Q251 676 265.5 659 Q280 642 280 620 Q280 602 273 586 Q266 570 254.5 558.5 Q243 547 227.5 540 Q212 533 194 533 Q166 533 152 550 Q138 567 138 590 Q138 607 145 622.5 Q152 638 163 650 Q174 662 189.5 669 Q205 676 223 676 Z M107 432 Q92 436 72.5 437 Q53 438 37 438 L41 454 L244 471 L176 156 Q168 117 163.5 94.5 Q159 72 159 61 Q159 37 177 37 Q189 37 204.5 53 Q220 69 234 94 L248 85 Q222 40 189.5 15.5 Q157 -9 117 -9 Q71 -9 53 14 Q35 37 35 70 Q35 93 39 119 Q43 145 53 189 L107 432 Z M391 430 Q376 434 356.5 435 Q337 436 321 436 L325 453 L527 471 L441 65 Q426 -4 398 -56.5 Q370 -109 331.5 -145.5 Q293 -182 245.5 -203 Q198 -224 146 -231 L144 -215 Q179 -208 203.5 -192 Q228 -176 245.5 -150.5 Q263 -125 275.5 -88.5 Q288 -52 298 -3 L391 430 Z M502 676 Q530 676 544.5 659 Q559 642 559 620 Q559 602 552 586 Q545 570 533.5 558.5 Q522 547 506.5 540 Q491 533 473 533 Q445 533 431 550 Q417 567 417 590 Q417 607 424 622.5 Q431 638 442 650 Q453 662 468.5 669 Q484 676 502 676 Z " />
<glyph glyph-name="Jcircumflex" unicode="&#x134;" horiz-adv-x="404" d="M73 -14 Q50 -14 29.5 -9 Q9 -4 -7 7 Q-23 18 -32 34.5 Q-41 51 -41 74 Q-41 105 -24 126 Q-7 147 25 149 L66 28 Q75 8 86 8 Q97 8 106 17 Q115 26 123 45.5 Q131 65 139.5 96.5 Q148 128 157 173 L260 676 L171 676 L176 697 L479 697 L474 676 L396 676 L303 237 Q277 112 220 49 Q163 -14 73 -14 Z M470 752 L357 839 L211 753 L194 766 L348 928 L405 928 L494 766 L470 752 Z " />
<glyph glyph-name="jcircumflex" unicode="&#x135;" horiz-adv-x="275" d="M107 430 Q92 434 72.5 435 Q53 436 37 436 L41 453 L243 471 L157 65 Q142 -4 114 -56.5 Q86 -109 47.5 -145.5 Q9 -182 -38.5 -203 Q-86 -224 -138 -231 L-140 -215 Q-105 -208 -80.5 -192 Q-56 -176 -38.5 -150.5 Q-21 -125 -8.5 -88.5 Q4 -52 14 -3 L107 430 Z M307 514 L194 601 L48 515 L31 528 L185 690 L242 690 L331 528 L307 514 Z " />
<glyph glyph-name="Kcommaaccent" unicode="&#x136;" horiz-adv-x="669" d="M235 291 L178 21 L259 21 L255 0 L-40 0 L-35 21 L42 21 L181 676 L103 676 L107 697 L394 697 L389 676 L317 676 L241 321 L452 444 Q524 486 563.5 524 Q603 562 603 591 Q603 618 570 618 L491 618 Q491 658 513 684 Q535 710 580 710 Q621 710 639 689 Q657 668 657 636 Q657 532 471 429 L406 393 Q420 397 431 398 Q442 399 456 399 Q505 399 537.5 373.5 Q570 348 570 287 Q570 263 564 233 L545 135 Q539 105 539 87 Q539 60 549 51.5 Q559 43 572 43 Q586 43 597 51 Q608 59 618 72 L629 60 Q608 31 578 11 Q548 -9 496 -9 Q478 -9 461.5 -4 Q445 1 432.5 13 Q420 25 412.5 45 Q405 65 405 95 Q405 109 406.5 126 Q408 143 412 162 L429 256 Q435 289 435 312 Q435 344 423.5 356 Q412 368 391 368 Q370 368 350 358.5 Q330 349 302 332 L235 291 Z M235 -240 Q261 -220 274.5 -202.5 Q288 -185 288 -174 Q288 -167 281.5 -162 Q275 -157 267.5 -150 Q260 -143 253.5 -133.5 Q247 -124 247 -107 Q247 -77 267.5 -60.5 Q288 -44 314 -44 Q339 -44 352.5 -59.5 Q366 -75 366 -101 Q366 -143 333 -183 Q300 -223 249 -257 L235 -240 Z " />
<glyph glyph-name="kcommaaccent" unicode="&#x137;" horiz-adv-x="513" d="M151 693 Q136 697 115.5 698 Q95 699 78 699 L82 715 L287 732 L165 160 Q178 188 203 210 Q228 232 257.5 250.5 Q287 269 317.5 284 Q348 299 373 312.5 Q398 326 414 337.5 Q430 349 430 361 Q430 370 423.5 376 Q417 382 397 382 L316 382 Q316 422 337.5 446.5 Q359 471 405 471 Q442 471 459 451 Q476 431 476 405 Q476 361 434.5 329 Q393 297 310 262 Q326 265 342 265 Q364 265 380 258.5 Q396 252 406 241.5 Q416 231 420.5 217 Q425 203 425 189 Q425 170 422 155 Q419 140 415 121 Q412 104 408.5 87.5 Q405 71 405 60 Q405 37 423 37 Q434 37 446 48 Q458 59 469 76 L481 66 Q458 29 428 10 Q398 -9 365 -9 Q326 -9 304.5 10.5 Q283 30 283 65 Q283 82 286.5 99 Q290 116 294 134 Q298 154 302 171 Q306 188 306 204 Q306 218 300 225 Q294 232 279 232 Q263 232 243 219.5 Q223 207 204 186 Q185 165 169.5 136 Q154 107 147 74 L132 0 L4 0 L151 693 Z M143 -240 Q169 -220 182.5 -202.5 Q196 -185 196 -174 Q196 -167 189.5 -162 Q183 -157 175.5 -150 Q168 -143 161.5 -133.5 Q155 -124 155 -107 Q155 -77 175.5 -60.5 Q196 -44 222 -44 Q247 -44 260.5 -59.5 Q274 -75 274 -101 Q274 -143 241 -183 Q208 -223 157 -257 L143 -240 Z " />
<glyph glyph-name="Lacute" unicode="&#x139;" horiz-adv-x="548" d="M-39 0 L-35 21 L42 21 L181 676 L103 676 L107 697 L411 697 L407 676 L317 676 L178 21 L219 21 Q277 21 320 33.5 Q363 46 393.5 67.5 Q424 89 443.5 118 Q463 147 475 180 L490 224 L508 224 L455 0 L-39 0 Z M352 898 Q370 916 384.5 925 Q399 934 419 934 Q438 934 450 924 Q462 914 462 897 Q462 877 449 863.5 Q436 850 408 836 L256 757 L213 757 L352 898 Z " />
<glyph glyph-name="lacute" unicode="&#x13a;" horiz-adv-x="280" d="M149 693 Q134 697 113 698 Q92 699 76 699 L80 715 L285 732 L170 193 Q159 139 152.5 108.5 Q146 78 146 62 Q146 37 169 37 Q179 37 190 45 Q201 53 211 64 Q221 75 228.5 86.5 Q236 98 241 106 L254 96 Q245 81 231.5 63 Q218 45 199 29 Q180 13 157 2 Q134 -9 106 -9 Q61 -9 41.5 14 Q22 37 22 69 Q22 89 27 117 Q32 145 42 188 L149 693 Z M270 894 Q288 912 302.5 921 Q317 930 337 930 Q356 930 368 920 Q380 910 380 893 Q380 873 367 859.5 Q354 846 326 832 L174 753 L131 753 L270 894 Z " />
<glyph glyph-name="Lcommaaccent" unicode="&#x13b;" horiz-adv-x="548" d="M-39 0 L-35 21 L42 21 L181 676 L103 676 L107 697 L411 697 L407 676 L317 676 L178 21 L219 21 Q277 21 320 33.5 Q363 46 393.5 67.5 Q424 89 443.5 118 Q463 147 475 180 L490 224 L508 224 L455 0 L-39 0 Z M154 -240 Q180 -220 193.5 -202.5 Q207 -185 207 -174 Q207 -167 200.5 -162 Q194 -157 186.5 -150 Q179 -143 172.5 -133.5 Q166 -124 166 -107 Q166 -77 186.5 -60.5 Q207 -44 233 -44 Q258 -44 271.5 -59.5 Q285 -75 285 -101 Q285 -143 252 -183 Q219 -223 168 -257 L154 -240 Z " />
<glyph glyph-name="lcommaaccent" unicode="&#x13c;" horiz-adv-x="280" d="M149 693 Q134 697 113 698 Q92 699 76 699 L80 715 L285 732 L170 193 Q159 139 152.5 108.5 Q146 78 146 62 Q146 37 169 37 Q179 37 190 45 Q201 53 211 64 Q221 75 228.5 86.5 Q236 98 241 106 L254 96 Q245 81 231.5 63 Q218 45 199 29 Q180 13 157 2 Q134 -9 106 -9 Q61 -9 41.5 14 Q22 37 22 69 Q22 89 27 117 Q32 145 42 188 L149 693 Z M17 -240 Q43 -220 56.5 -202.5 Q70 -185 70 -174 Q70 -167 63.5 -162 Q57 -157 49.5 -150 Q42 -143 35.5 -133.5 Q29 -124 29 -107 Q29 -77 49.5 -60.5 Q70 -44 96 -44 Q121 -44 134.5 -59.5 Q148 -75 148 -101 Q148 -143 115 -183 Q82 -223 31 -257 L17 -240 Z " />
<glyph glyph-name="Lcaron" unicode="&#x13d;" horiz-adv-x="548" d="M-39 0 L-35 21 L42 21 L181 676 L103 676 L107 697 L411 697 L407 676 L317 676 L178 21 L219 21 Q277 21 320 33.5 Q363 46 393.5 67.5 Q424 89 443.5 118 Q463 147 475 180 L490 224 L508 224 L455 0 L-39 0 Z M446 514 Q472 534 485.5 551.5 Q499 569 499 580 Q499 587 492.5 592 Q486 597 478.5 604 Q471 611 464.5 620.5 Q458 630 458 647 Q458 677 478.5 693.5 Q499 710 525 710 Q550 710 563.5 694.5 Q577 679 577 653 Q577 611 544 571 Q511 531 460 497 L446 514 Z " />
<glyph glyph-name="lcaron" unicode="&#x13e;" horiz-adv-x="280" d="M149 693 Q134 697 113 698 Q92 699 76 699 L80 715 L285 732 L170 193 Q159 139 152.5 108.5 Q146 78 146 62 Q146 37 169 37 Q179 37 190 45 Q201 53 211 64 Q221 75 228.5 86.5 Q236 98 241 106 L254 96 Q245 81 231.5 63 Q218 45 199 29 Q180 13 157 2 Q134 -9 106 -9 Q61 -9 41.5 14 Q22 37 22 69 Q22 89 27 117 Q32 145 42 188 L149 693 Z M318 540 Q344 560 357.5 577.5 Q371 595 371 606 Q371 613 364.5 618 Q358 623 350.5 630 Q343 637 336.5 646.5 Q330 656 330 673 Q330 703 350.5 719.5 Q371 736 397 736 Q422 736 435.5 720.5 Q449 705 449 679 Q449 637 416 597 Q383 557 332 523 L318 540 Z " />
<glyph glyph-name="Ldot" unicode="&#x13f;" horiz-adv-x="548" d="M-39 0 L-35 21 L42 21 L181 676 L103 676 L107 697 L411 697 L407 676 L317 676 L178 21 L219 21 Q277 21 320 33.5 Q363 46 393.5 67.5 Q424 89 443.5 118 Q463 147 475 180 L490 224 L508 224 L455 0 L-39 0 Z M533 388 Q533 354 510 331 Q487 308 453 308 Q429 308 414 324 Q399 340 399 364 Q399 396 422 419.5 Q445 443 479 443 Q503 443 518 427 Q533 411 533 388 Z " />
<glyph glyph-name="ldot" unicode="&#x140;" horiz-adv-x="280" d="M149 693 Q134 697 113 698 Q92 699 76 699 L80 715 L285 732 L170 193 Q159 139 152.5 108.5 Q146 78 146 62 Q146 37 169 37 Q179 37 190 45 Q201 53 211 64 Q221 75 228.5 86.5 Q236 98 241 106 L254 96 Q245 81 231.5 63 Q218 45 199 29 Q180 13 157 2 Q134 -9 106 -9 Q61 -9 41.5 14 Q22 37 22 69 Q22 89 27 117 Q32 145 42 188 L149 693 Z M398 375 Q398 341 375 318 Q352 295 318 295 Q294 295 279 311 Q264 327 264 351 Q264 383 287 406.5 Q310 430 344 430 Q368 430 383 414 Q398 398 398 375 Z " />
<glyph glyph-name="Lslash" unicode="&#x141;" horiz-adv-x="548" d="M178 21 L219 21 Q277 21 320 33.5 Q363 46 393.5 67.5 Q424 89 443.5 118 Q463 147 475 180 L490 224 L508 224 L455 0 L-39 0 L-35 21 L42 21 L95 270 L16 244 L23 272 L100 298 L181 676 L103 676 L107 697 L411 697 L407 676 L317 676 L247 348 L422 405 L416 378 L241 320 L178 21 Z " />
<glyph glyph-name="lslash" unicode="&#x142;" horiz-adv-x="293" d="M-4 284 L1 310 L74 339 L149 693 Q134 697 113 698 Q92 699 76 699 L80 715 L285 732 L213 395 L307 434 L301 408 L207 370 L169 193 Q158 140 151.5 108 Q145 76 145 62 Q145 37 168 37 Q178 37 189 45 Q200 53 210 64 Q220 75 227.5 86.5 Q235 98 240 106 L253 96 Q244 81 230.5 63 Q217 45 198.5 29 Q180 13 157 2 Q134 -9 106 -9 Q62 -9 42 13.5 Q22 36 22 69 Q22 89 27 116 Q32 143 42 188 L69 314 L-4 284 Z " />
<glyph glyph-name="Nacute" unicode="&#x143;" horiz-adv-x="678" d="M106 697 L344 697 L525 156 L636 676 L555 676 L559 697 L744 697 L739 676 L661 676 L517 0 L430 0 L202 660 L66 21 L162 21 L157 0 L-41 0 L-36 21 L41 21 L179 676 L101 676 L106 697 Z M487 898 Q505 916 519.5 925 Q534 934 554 934 Q573 934 585 924 Q597 914 597 897 Q597 877 584 863.5 Q571 850 543 836 L391 757 L348 757 L487 898 Z " />
<glyph glyph-name="nacute" unicode="&#x144;" horiz-adv-x="566" d="M473 221 Q459 161 449.5 122.5 Q440 84 440 61 Q440 37 458 37 Q470 37 486 53 Q502 69 516 94 L529 85 Q503 40 470.5 15.5 Q438 -9 398 -9 Q353 -9 333.5 14 Q314 37 314 70 Q314 97 323.5 136.5 Q333 176 345 230 Q357 283 364 318 Q371 353 371 379 Q371 403 362.5 417 Q354 431 334 431 Q319 431 299 417.5 Q279 404 258 375 Q237 346 217.5 301.5 Q198 257 185 195 L144 0 L15 0 L106 432 Q91 437 72 437.5 Q53 438 37 438 L40 455 L244 472 L212 345 Q245 405 289 438 Q333 471 392 471 Q422 471 442.5 463 Q463 455 475.5 441.5 Q488 428 494 410 Q500 392 500 372 Q500 356 498 340.5 Q496 325 492.5 307.5 Q489 290 484 269 Q479 248 473 221 Z M371 660 Q389 678 403.5 687 Q418 696 438 696 Q457 696 469 686 Q481 676 481 659 Q481 639 468 625.5 Q455 612 427 598 L275 519 L232 519 L371 660 Z " />
<glyph glyph-name="Ncommaaccent" unicode="&#x145;" horiz-adv-x="678" d="M106 697 L344 697 L525 156 L636 676 L555 676 L559 697 L744 697 L739 676 L661 676 L517 0 L430 0 L202 660 L66 21 L162 21 L157 0 L-41 0 L-36 21 L41 21 L179 676 L101 676 L106 697 Z M206 -240 Q232 -220 245.5 -202.5 Q259 -185 259 -174 Q259 -167 252.5 -162 Q246 -157 238.5 -150 Q231 -143 224.5 -133.5 Q218 -124 218 -107 Q218 -77 238.5 -60.5 Q259 -44 285 -44 Q310 -44 323.5 -59.5 Q337 -75 337 -101 Q337 -143 304 -183 Q271 -223 220 -257 L206 -240 Z " />
<glyph glyph-name="ncommaaccent" unicode="&#x146;" horiz-adv-x="566" d="M473 221 Q459 161 449.5 122.5 Q440 84 440 61 Q440 37 458 37 Q470 37 486 53 Q502 69 516 94 L529 85 Q503 40 470.5 15.5 Q438 -9 398 -9 Q353 -9 333.5 14 Q314 37 314 70 Q314 97 323.5 136.5 Q333 176 345 230 Q357 283 364 318 Q371 353 371 379 Q371 403 362.5 417 Q354 431 334 431 Q319 431 299 417.5 Q279 404 258 375 Q237 346 217.5 301.5 Q198 257 185 195 L144 0 L15 0 L106 432 Q91 437 72 437.5 Q53 438 37 438 L40 455 L244 472 L212 345 Q245 405 289 438 Q333 471 392 471 Q422 471 442.5 463 Q463 455 475.5 441.5 Q488 428 494 410 Q500 392 500 372 Q500 356 498 340.5 Q496 325 492.5 307.5 Q489 290 484 269 Q479 248 473 221 Z M168 -240 Q194 -220 207.5 -202.5 Q221 -185 221 -174 Q221 -167 214.5 -162 Q208 -157 200.5 -150 Q193 -143 186.5 -133.5 Q180 -124 180 -107 Q180 -77 200.5 -60.5 Q221 -44 247 -44 Q272 -44 285.5 -59.5 Q299 -75 299 -101 Q299 -143 266 -183 Q233 -223 182 -257 L168 -240 Z " />
<glyph glyph-name="Ncaron" unicode="&#x147;" horiz-adv-x="678" d="M106 697 L344 697 L525 156 L636 676 L555 676 L559 697 L744 697 L739 676 L661 676 L517 0 L430 0 L202 660 L66 21 L162 21 L157 0 L-41 0 L-36 21 L41 21 L179 676 L101 676 L106 697 Z M624 923 L474 760 L418 760 L331 923 L354 936 L462 849 L607 937 L624 923 Z " />
<glyph glyph-name="ncaron" unicode="&#x148;" horiz-adv-x="566" d="M473 221 Q459 161 449.5 122.5 Q440 84 440 61 Q440 37 458 37 Q470 37 486 53 Q502 69 516 94 L529 85 Q503 40 470.5 15.5 Q438 -9 398 -9 Q353 -9 333.5 14 Q314 37 314 70 Q314 97 323.5 136.5 Q333 176 345 230 Q357 283 364 318 Q371 353 371 379 Q371 403 362.5 417 Q354 431 334 431 Q319 431 299 417.5 Q279 404 258 375 Q237 346 217.5 301.5 Q198 257 185 195 L144 0 L15 0 L106 432 Q91 437 72 437.5 Q53 438 37 438 L40 455 L244 472 L212 345 Q245 405 289 438 Q333 471 392 471 Q422 471 442.5 463 Q463 455 475.5 441.5 Q488 428 494 410 Q500 392 500 372 Q500 356 498 340.5 Q496 325 492.5 307.5 Q489 290 484 269 Q479 248 473 221 Z M508 685 L358 522 L302 522 L215 685 L238 698 L346 611 L491 699 L508 685 Z " />
<glyph glyph-name="Omacron" unicode="&#x14c;" horiz-adv-x="689" d="M429 710 Q485 710 528.5 690 Q572 670 601.5 635 Q631 600 646.5 552 Q662 504 662 449 Q662 366 638.5 284 Q615 202 567.5 137 Q520 72 449.5 31.5 Q379 -9 286 -9 Q171 -9 110.5 60.5 Q50 130 50 258 Q50 339 77 419.5 Q104 500 153.5 564.5 Q203 629 273 669.5 Q343 710 429 710 Z M291 14 Q327 14 358.5 39 Q390 64 415.5 105.5 Q441 147 460.5 201 Q480 255 493.5 312 Q507 369 514 425 Q521 481 521 527 Q521 601 499 644.5 Q477 688 424 688 Q389 688 358.5 663.5 Q328 639 302 598 Q276 557 256 504 Q236 451 222 394 Q208 337 200.5 280 Q193 223 193 175 Q193 99 215.5 56.5 Q238 14 291 14 Z M308 788 L325 860 L613 860 L597 788 L308 788 Z " />
<glyph glyph-name="omacron" unicode="&#x14d;" horiz-adv-x="519" d="M295 471 Q342 471 376 457 Q410 443 432 419 Q454 395 464.5 362 Q475 329 475 291 Q475 235 456.5 181 Q438 127 403 85 Q368 43 317 17 Q266 -9 201 -9 Q154 -9 120 5.5 Q86 20 64 45 Q42 70 32 103.5 Q22 137 22 176 Q22 230 39.5 283 Q57 336 91.5 378 Q126 420 177 445.5 Q228 471 295 471 Z M205 12 Q240 12 266.5 47.5 Q293 83 311 134.5 Q329 186 338 242.5 Q347 299 347 341 Q347 451 290 451 Q261 451 235.5 417 Q210 383 190 332.5 Q170 282 158.5 223 Q147 164 147 114 Q147 67 160 39.5 Q173 12 205 12 Z M163 550 L180 622 L468 622 L452 550 L163 550 Z " />
<glyph glyph-name="Obreve" unicode="&#x14e;" horiz-adv-x="689" d="M429 710 Q485 710 528.5 690 Q572 670 601.5 635 Q631 600 646.5 552 Q662 504 662 449 Q662 366 638.5 284 Q615 202 567.5 137 Q520 72 449.5 31.5 Q379 -9 286 -9 Q171 -9 110.5 60.5 Q50 130 50 258 Q50 339 77 419.5 Q104 500 153.5 564.5 Q203 629 273 669.5 Q343 710 429 710 Z M291 14 Q327 14 358.5 39 Q390 64 415.5 105.5 Q441 147 460.5 201 Q480 255 493.5 312 Q507 369 514 425 Q521 481 521 527 Q521 601 499 644.5 Q477 688 424 688 Q389 688 358.5 663.5 Q328 639 302 598 Q276 557 256 504 Q236 451 222 394 Q208 337 200.5 280 Q193 223 193 175 Q193 99 215.5 56.5 Q238 14 291 14 Z M465 842 Q513 842 551 866 Q589 890 602 926 L627 926 Q621 895 606.5 865.5 Q592 836 570.5 812.5 Q549 789 519.5 775 Q490 761 453 761 Q396 761 368 795.5 Q340 830 340 884 Q340 903 346 926 L371 926 Q371 888 396.5 865 Q422 842 465 842 Z " />
<glyph glyph-name="obreve" unicode="&#x14f;" horiz-adv-x="519" d="M295 471 Q342 471 376 457 Q410 443 432 419 Q454 395 464.5 362 Q475 329 475 291 Q475 235 456.5 181 Q438 127 403 85 Q368 43 317 17 Q266 -9 201 -9 Q154 -9 120 5.5 Q86 20 64 45 Q42 70 32 103.5 Q22 137 22 176 Q22 230 39.5 283 Q57 336 91.5 378 Q126 420 177 445.5 Q228 471 295 471 Z M205 12 Q240 12 266.5 47.5 Q293 83 311 134.5 Q329 186 338 242.5 Q347 299 347 341 Q347 451 290 451 Q261 451 235.5 417 Q210 383 190 332.5 Q170 282 158.5 223 Q147 164 147 114 Q147 67 160 39.5 Q173 12 205 12 Z M307 604 Q355 604 393 628 Q431 652 444 688 L469 688 Q463 657 448.5 627.5 Q434 598 412.5 574.5 Q391 551 361.5 537 Q332 523 295 523 Q238 523 210 557.5 Q182 592 182 646 Q182 665 188 688 L213 688 Q213 650 238.5 627 Q264 604 307 604 Z " />
<glyph glyph-name="Ohungarumlaut" unicode="&#x150;" horiz-adv-x="689" d="M429 710 Q485 710 528.5 690 Q572 670 601.5 635 Q631 600 646.5 552 Q662 504 662 449 Q662 366 638.5 284 Q615 202 567.5 137 Q520 72 449.5 31.5 Q379 -9 286 -9 Q171 -9 110.5 60.5 Q50 130 50 258 Q50 339 77 419.5 Q104 500 153.5 564.5 Q203 629 273 669.5 Q343 710 429 710 Z M291 14 Q327 14 358.5 39 Q390 64 415.5 105.5 Q441 147 460.5 201 Q480 255 493.5 312 Q507 369 514 425 Q521 481 521 527 Q521 601 499 644.5 Q477 688 424 688 Q389 688 358.5 663.5 Q328 639 302 598 Q276 557 256 504 Q236 451 222 394 Q208 337 200.5 280 Q193 223 193 175 Q193 99 215.5 56.5 Q238 14 291 14 Z M432 898 Q449 914 464 924 Q479 934 497 934 Q513 934 524 924 Q535 914 535 897 Q535 880 522 867 Q509 854 483 839 L341 757 L301 757 L432 898 Z M594 898 Q609 915 624.5 924.5 Q640 934 659 934 Q675 934 685.5 924 Q696 914 696 897 Q696 880 683.5 867 Q671 854 644 839 L502 757 L462 757 L594 898 Z " />
<glyph glyph-name="ohungarumlaut" unicode="&#x151;" horiz-adv-x="519" d="M295 471 Q342 471 376 457 Q410 443 432 419 Q454 395 464.5 362 Q475 329 475 291 Q475 235 456.5 181 Q438 127 403 85 Q368 43 317 17 Q266 -9 201 -9 Q154 -9 120 5.5 Q86 20 64 45 Q42 70 32 103.5 Q22 137 22 176 Q22 230 39.5 283 Q57 336 91.5 378 Q126 420 177 445.5 Q228 471 295 471 Z M205 12 Q240 12 266.5 47.5 Q293 83 311 134.5 Q329 186 338 242.5 Q347 299 347 341 Q347 451 290 451 Q261 451 235.5 417 Q210 383 190 332.5 Q170 282 158.5 223 Q147 164 147 114 Q147 67 160 39.5 Q173 12 205 12 Z M291 660 Q308 676 323 686 Q338 696 356 696 Q372 696 383 686 Q394 676 394 659 Q394 642 381 629 Q368 616 342 601 L200 519 L160 519 L291 660 Z M453 660 Q468 677 483.5 686.5 Q499 696 518 696 Q534 696 544.5 686 Q555 676 555 659 Q555 642 542.5 629 Q530 616 503 601 L361 519 L321 519 L453 660 Z " />
<glyph glyph-name="OE" unicode="&#x152;" horiz-adv-x="973" d="M872 697 Q938 697 969.5 669 Q1001 641 1001 603 Q1001 577 992.5 556.5 Q984 536 969 521.5 Q954 507 934.5 499 Q915 491 893 491 Q868 491 854.5 499.5 Q841 508 833 519 L951 643 Q940 660 920.5 668 Q901 676 864 676 L713 676 L646 357 L828 357 L823 335 L641 335 L574 21 L646 21 Q752 21 811.5 60 Q871 99 894 164 L905 194 L921 194 L878 0 L434 0 L451 64 Q419 35 375.5 13 Q332 -9 268 -9 Q161 -9 101 59 Q41 127 41 245 Q41 334 71 418 Q101 502 152 567 Q203 632 271 671 Q339 710 416 710 Q475 710 511.5 689.5 Q548 669 569 635 L580 697 L872 697 Z M299 21 Q336 21 368.5 45.5 Q401 70 428.5 110.5 Q456 151 477.5 202.5 Q499 254 514 308 Q529 362 537 414 Q545 466 545 507 Q545 558 535.5 591.5 Q526 625 510.5 645.5 Q495 666 475 674 Q455 682 434 682 Q399 682 367.5 661.5 Q336 641 309 605.5 Q282 570 260.5 522.5 Q239 475 223.5 421.5 Q208 368 199.5 311 Q191 254 191 199 Q191 114 217.5 67.5 Q244 21 299 21 Z " />
<glyph glyph-name="oe" unicode="&#x153;" horiz-adv-x="753" d="M550 23 Q576 23 597.5 33 Q619 43 635.5 58 Q652 73 664 91 Q676 109 684 125 L699 117 Q687 90 669 67 Q651 44 626.5 27 Q602 10 571.5 0.5 Q541 -9 503 -9 Q458 -9 424 9.5 Q390 28 370 61 Q339 31 295 11 Q251 -9 197 -9 Q152 -9 119.5 5.5 Q87 20 66 45 Q45 70 34.5 104.5 Q24 139 24 178 Q24 228 41.5 280 Q59 332 93 374.5 Q127 417 177 444 Q227 471 292 471 Q348 471 385 451.5 Q422 432 444 398 Q476 431 519 451 Q562 471 610 471 Q680 471 711.5 441.5 Q743 412 743 370 Q743 340 728 314 Q713 288 686.5 268.5 Q660 249 623 238 Q586 227 542 227 Q521 227 504.5 228.5 Q488 230 474 235 Q469 214 467 194.5 Q465 175 465 160 Q465 133 469 108 Q473 83 482.5 64.5 Q492 46 508.5 34.5 Q525 23 550 23 Z M207 12 Q231 12 251 29.5 Q271 47 287 75.5 Q303 104 315 139.5 Q327 175 334.5 211.5 Q342 248 346 282 Q350 316 350 341 Q350 451 293 451 Q273 451 255 435 Q237 419 221 392 Q205 365 192 330 Q179 295 169.5 257.5 Q160 220 155 183 Q150 146 150 114 Q150 67 162.5 39.5 Q175 12 207 12 Z M603 452 Q580 452 560.5 435 Q541 418 525.5 390.5 Q510 363 498 327.5 Q486 292 478 256 Q500 249 523 249 Q551 249 572.5 263 Q594 277 609 298 Q624 319 631.5 344.5 Q639 370 639 393 Q639 418 630 435 Q621 452 603 452 Z " />
<glyph glyph-name="Racute" unicode="&#x154;" horiz-adv-x="647" d="M87 658 Q138 678 202 694 Q266 710 344 710 Q481 710 545.5 665 Q610 620 610 547 Q610 505 592 471.5 Q574 438 546 414 Q518 390 482.5 375.5 Q447 361 413 356 Q441 352 462 343.5 Q483 335 497.5 319 Q512 303 520.5 278.5 Q529 254 531 219 Q533 187 535 150 Q537 113 541 88 Q548 45 577 45 Q598 45 616 70 L627 57 Q607 29 575.5 10 Q544 -9 506 -9 Q455 -9 425 21.5 Q395 52 391 127 Q390 149 389.5 173 Q389 197 388 219 Q387 241 385.5 260 Q384 279 381 293 Q373 325 353.5 333.5 Q334 342 300 342 L252 342 L185 21 L263 21 L258 0 L-34 0 L-28 21 L49 21 L158 533 Q168 578 184.5 613.5 Q201 649 229 675 Q195 669 159.5 658.5 Q124 648 95 636 L87 658 Z M479 564 Q479 626 441 655.5 Q403 685 343 685 L325 685 L257 364 L301 364 Q351 364 385 380 Q419 396 440 423.5 Q461 451 470 487 Q479 523 479 564 Z M449 898 Q467 916 481.5 925 Q496 934 516 934 Q535 934 547 924 Q559 914 559 897 Q559 877 546 863.5 Q533 850 505 836 L353 757 L310 757 L449 898 Z " />
<glyph glyph-name="racute" unicode="&#x155;" horiz-adv-x="448" d="M106 432 Q91 437 72 437.5 Q53 438 37 438 L40 455 L244 472 L202 311 Q218 345 236 374 Q254 403 275 424.5 Q296 446 320.5 458.5 Q345 471 374 471 Q414 471 436 450 Q458 429 458 398 Q458 359 434.5 334 Q411 309 378 309 Q358 309 340 318 Q322 327 314 341 L391 441 Q378 449 362 449 Q336 449 309 426.5 Q282 404 257 367 Q232 330 212.5 281 Q193 232 182 180 L145 0 L14 0 L106 432 Z M312 660 Q330 678 344.5 687 Q359 696 379 696 Q398 696 410 686 Q422 676 422 659 Q422 639 409 625.5 Q396 612 368 598 L216 519 L173 519 L312 660 Z " />
<glyph glyph-name="Rcommaaccent" unicode="&#x156;" horiz-adv-x="647" d="M87 658 Q138 678 202 694 Q266 710 344 710 Q481 710 545.5 665 Q610 620 610 547 Q610 505 592 471.5 Q574 438 546 414 Q518 390 482.5 375.5 Q447 361 413 356 Q441 352 462 343.5 Q483 335 497.5 319 Q512 303 520.5 278.5 Q529 254 531 219 Q533 187 535 150 Q537 113 541 88 Q548 45 577 45 Q598 45 616 70 L627 57 Q607 29 575.5 10 Q544 -9 506 -9 Q455 -9 425 21.5 Q395 52 391 127 Q390 149 389.5 173 Q389 197 388 219 Q387 241 385.5 260 Q384 279 381 293 Q373 325 353.5 333.5 Q334 342 300 342 L252 342 L185 21 L263 21 L258 0 L-34 0 L-28 21 L49 21 L158 533 Q168 578 184.5 613.5 Q201 649 229 675 Q195 669 159.5 658.5 Q124 648 95 636 L87 658 Z M479 564 Q479 626 441 655.5 Q403 685 343 685 L325 685 L257 364 L301 364 Q351 364 385 380 Q419 396 440 423.5 Q461 451 470 487 Q479 523 479 564 Z M231 -240 Q257 -220 270.5 -202.5 Q284 -185 284 -174 Q284 -167 277.5 -162 Q271 -157 263.5 -150 Q256 -143 249.5 -133.5 Q243 -124 243 -107 Q243 -77 263.5 -60.5 Q284 -44 310 -44 Q335 -44 348.5 -59.5 Q362 -75 362 -101 Q362 -143 329 -183 Q296 -223 245 -257 L231 -240 Z " />
<glyph glyph-name="rcommaaccent" unicode="&#x157;" horiz-adv-x="448" d="M106 432 Q91 437 72 437.5 Q53 438 37 438 L40 455 L244 472 L202 311 Q218 345 236 374 Q254 403 275 424.5 Q296 446 320.5 458.5 Q345 471 374 471 Q414 471 436 450 Q458 429 458 398 Q458 359 434.5 334 Q411 309 378 309 Q358 309 340 318 Q322 327 314 341 L391 441 Q378 449 362 449 Q336 449 309 426.5 Q282 404 257 367 Q232 330 212.5 281 Q193 232 182 180 L145 0 L14 0 L106 432 Z M-10 -240 Q16 -220 29.5 -202.5 Q43 -185 43 -174 Q43 -167 36.5 -162 Q30 -157 22.5 -150 Q15 -143 8.5 -133.5 Q2 -124 2 -107 Q2 -77 22.5 -60.5 Q43 -44 69 -44 Q94 -44 107.5 -59.5 Q121 -75 121 -101 Q121 -143 88 -183 Q55 -223 4 -257 L-10 -240 Z " />
<glyph glyph-name="Rcaron" unicode="&#x158;" horiz-adv-x="647" d="M87 658 Q138 678 202 694 Q266 710 344 710 Q481 710 545.5 665 Q610 620 610 547 Q610 505 592 471.5 Q574 438 546 414 Q518 390 482.5 375.5 Q447 361 413 356 Q441 352 462 343.5 Q483 335 497.5 319 Q512 303 520.5 278.5 Q529 254 531 219 Q533 187 535 150 Q537 113 541 88 Q548 45 577 45 Q598 45 616 70 L627 57 Q607 29 575.5 10 Q544 -9 506 -9 Q455 -9 425 21.5 Q395 52 391 127 Q390 149 389.5 173 Q389 197 388 219 Q387 241 385.5 260 Q384 279 381 293 Q373 325 353.5 333.5 Q334 342 300 342 L252 342 L185 21 L263 21 L258 0 L-34 0 L-28 21 L49 21 L158 533 Q168 578 184.5 613.5 Q201 649 229 675 Q195 669 159.5 658.5 Q124 648 95 636 L87 658 Z M479 564 Q479 626 441 655.5 Q403 685 343 685 L325 685 L257 364 L301 364 Q351 364 385 380 Q419 396 440 423.5 Q461 451 470 487 Q479 523 479 564 Z M576 923 L426 760 L370 760 L283 923 L306 936 L414 849 L559 937 L576 923 Z " />
<glyph glyph-name="rcaron" unicode="&#x159;" horiz-adv-x="448" d="M106 432 Q91 437 72 437.5 Q53 438 37 438 L40 455 L244 472 L202 311 Q218 345 236 374 Q254 403 275 424.5 Q296 446 320.5 458.5 Q345 471 374 471 Q414 471 436 450 Q458 429 458 398 Q458 359 434.5 334 Q411 309 378 309 Q358 309 340 318 Q322 327 314 341 L391 441 Q378 449 362 449 Q336 449 309 426.5 Q282 404 257 367 Q232 330 212.5 281 Q193 232 182 180 L145 0 L14 0 L106 432 Z M449 685 L299 522 L243 522 L156 685 L179 698 L287 611 L432 699 L449 685 Z " />
<glyph glyph-name="Sacute" unicode="&#x15a;" horiz-adv-x="536" d="M89 505 Q89 542 105.5 578.5 Q122 615 154.5 644 Q187 673 235.5 691.5 Q284 710 349 710 Q392 710 425 699.5 Q458 689 480.5 671.5 Q503 654 514.5 631 Q526 608 526 583 Q526 545 501.5 518.5 Q477 492 439 492 Q413 492 397.5 502 Q382 512 375 523 L481 630 Q464 654 433 669.5 Q402 685 358 685 Q327 685 300.5 676.5 Q274 668 254.5 652.5 Q235 637 223.5 616 Q212 595 212 570 Q212 546 221 527 Q230 508 246 491.5 Q262 475 284.5 459.5 Q307 444 333 427 Q366 406 393 385.5 Q420 365 439.5 342 Q459 319 470 292 Q481 265 481 230 Q481 176 459 131.5 Q437 87 399.5 56 Q362 25 312 8 Q262 -9 205 -9 Q161 -9 126.5 1.5 Q92 12 68 30.5 Q44 49 31 73.5 Q18 98 18 126 Q18 168 42.5 196.5 Q67 225 108 225 Q134 225 149 215 Q164 205 172 193 L63 79 Q83 50 118 33 Q153 16 201 16 Q233 16 261.5 25 Q290 34 311.5 52 Q333 70 345.5 96.5 Q358 123 358 158 Q358 205 323.5 239 Q289 273 232 309 Q201 328 174.5 347.5 Q148 367 129 389.5 Q110 412 99.5 440 Q89 468 89 505 Z M391 898 Q409 916 423.5 925 Q438 934 458 934 Q477 934 489 924 Q501 914 501 897 Q501 877 488 863.5 Q475 850 447 836 L295 757 L252 757 L391 898 Z " />
<glyph glyph-name="sacute" unicode="&#x15b;" horiz-adv-x="395" d="M251 451 Q207 451 185 429 Q163 407 163 379 Q163 362 171 349 Q179 336 192 324 Q205 312 222.5 299.5 Q240 287 260 273 Q296 247 318.5 217 Q341 187 341 146 Q341 103 323.5 73.5 Q306 44 277.5 25.5 Q249 7 213.5 -1 Q178 -9 143 -9 Q114 -9 87.5 -3.5 Q61 2 41 13.5 Q21 25 9 41.5 Q-3 58 -3 81 Q-3 106 14.5 124.5 Q32 143 59 143 Q95 143 110 114 L45 46 Q57 30 79.5 19.5 Q102 9 131 9 Q171 9 200 30 Q229 51 229 90 Q229 126 207 149.5 Q185 173 143 201 Q100 230 74.5 257.5 Q49 285 49 325 Q49 360 64 387 Q79 414 104.5 433 Q130 452 164 461.5 Q198 471 236 471 Q293 471 330 448.5 Q367 426 367 387 Q367 362 352 346 Q337 330 311 330 Q294 330 279 337 Q264 344 256 357 L323 421 Q314 434 294 442.5 Q274 451 251 451 Z M285 660 Q303 678 317.5 687 Q332 696 352 696 Q371 696 383 686 Q395 676 395 659 Q395 639 382 625.5 Q369 612 341 598 L189 519 L146 519 L285 660 Z " />
<glyph glyph-name="Scircumflex" unicode="&#x15c;" horiz-adv-x="536" d="M89 505 Q89 542 105.5 578.5 Q122 615 154.5 644 Q187 673 235.5 691.5 Q284 710 349 710 Q392 710 425 699.5 Q458 689 480.5 671.5 Q503 654 514.5 631 Q526 608 526 583 Q526 545 501.5 518.5 Q477 492 439 492 Q413 492 397.5 502 Q382 512 375 523 L481 630 Q464 654 433 669.5 Q402 685 358 685 Q327 685 300.5 676.5 Q274 668 254.5 652.5 Q235 637 223.5 616 Q212 595 212 570 Q212 546 221 527 Q230 508 246 491.5 Q262 475 284.5 459.5 Q307 444 333 427 Q366 406 393 385.5 Q420 365 439.5 342 Q459 319 470 292 Q481 265 481 230 Q481 176 459 131.5 Q437 87 399.5 56 Q362 25 312 8 Q262 -9 205 -9 Q161 -9 126.5 1.5 Q92 12 68 30.5 Q44 49 31 73.5 Q18 98 18 126 Q18 168 42.5 196.5 Q67 225 108 225 Q134 225 149 215 Q164 205 172 193 L63 79 Q83 50 118 33 Q153 16 201 16 Q233 16 261.5 25 Q290 34 311.5 52 Q333 70 345.5 96.5 Q358 123 358 158 Q358 205 323.5 239 Q289 273 232 309 Q201 328 174.5 347.5 Q148 367 129 389.5 Q110 412 99.5 440 Q89 468 89 505 Z M462 752 L349 839 L203 753 L186 766 L340 928 L397 928 L486 766 L462 752 Z " />
<glyph glyph-name="scircumflex" unicode="&#x15d;" horiz-adv-x="395" d="M251 451 Q207 451 185 429 Q163 407 163 379 Q163 362 171 349 Q179 336 192 324 Q205 312 222.5 299.5 Q240 287 260 273 Q296 247 318.5 217 Q341 187 341 146 Q341 103 323.5 73.5 Q306 44 277.5 25.5 Q249 7 213.5 -1 Q178 -9 143 -9 Q114 -9 87.5 -3.5 Q61 2 41 13.5 Q21 25 9 41.5 Q-3 58 -3 81 Q-3 106 14.5 124.5 Q32 143 59 143 Q95 143 110 114 L45 46 Q57 30 79.5 19.5 Q102 9 131 9 Q171 9 200 30 Q229 51 229 90 Q229 126 207 149.5 Q185 173 143 201 Q100 230 74.5 257.5 Q49 285 49 325 Q49 360 64 387 Q79 414 104.5 433 Q130 452 164 461.5 Q198 471 236 471 Q293 471 330 448.5 Q367 426 367 387 Q367 362 352 346 Q337 330 311 330 Q294 330 279 337 Q264 344 256 357 L323 421 Q314 434 294 442.5 Q274 451 251 451 Z M352 514 L239 601 L93 515 L76 528 L230 690 L287 690 L376 528 L352 514 Z " />
<glyph glyph-name="Scedilla" unicode="&#x15e;" horiz-adv-x="536" d="M214 -9 Q167 -9 130.5 1.5 Q94 12 69 30.5 Q44 49 31 73.5 Q18 98 18 126 Q18 168 42.5 196.5 Q67 225 108 225 Q134 225 149 215 Q164 205 172 193 L63 79 Q83 50 118 33 Q153 16 201 16 Q233 16 261.5 25 Q290 34 311.5 52 Q333 70 345.5 96.5 Q358 123 358 158 Q358 205 323.5 239 Q289 273 232 309 Q201 328 174.5 347.5 Q148 367 129 389.5 Q110 412 99.5 440 Q89 468 89 505 Q89 542 105.5 578.5 Q122 615 154.5 644 Q187 673 235.5 691.5 Q284 710 349 710 Q392 710 425 699.5 Q458 689 480.5 671.5 Q503 654 514.5 631 Q526 608 526 583 Q526 545 501.5 518.5 Q477 492 439 492 Q413 492 397.5 502 Q382 512 375 523 L481 630 Q464 654 433 669.5 Q402 685 358 685 Q327 685 300.5 676.5 Q274 668 254.5 652.5 Q235 637 223.5 616 Q212 595 212 570 Q212 546 221 527 Q230 508 246 491.5 Q262 475 284.5 459.5 Q307 444 333 427 Q366 406 393 385.5 Q420 365 439.5 342 Q459 319 470 292 Q481 265 481 230 Q481 180 462.5 138.5 Q444 97 411.5 66 Q379 35 335 16.5 Q291 -2 240 -7 L205 -72 Q217 -69 239 -69 Q282 -69 304.5 -88 Q327 -107 327 -135 Q327 -161 315.5 -180 Q304 -199 286 -211 Q268 -223 245.5 -229 Q223 -235 202 -235 Q166 -235 144.5 -221.5 Q123 -208 123 -187 Q123 -171 133 -161 Q143 -151 157 -151 Q168 -151 176 -156.5 Q184 -162 188 -167 L147 -205 Q151 -210 160 -214.5 Q169 -219 181 -219 Q192 -219 203.5 -215 Q215 -211 224.5 -201.5 Q234 -192 240 -177 Q246 -162 246 -140 Q246 -117 235 -102 Q224 -87 204 -87 Q188 -87 178 -92 L171 -87 L214 -9 Z " />
<glyph glyph-name="scedilla" unicode="&#x15f;" horiz-adv-x="396" d="M142 -9 Q113 -9 86.5 -3 Q60 3 40 14 Q20 25 8.5 41.5 Q-3 58 -3 81 Q-3 106 14.5 124.5 Q32 143 59 143 Q95 143 110 114 L45 46 Q57 30 79.5 19.5 Q102 9 131 9 Q171 9 200 30 Q229 51 229 90 Q229 126 207 149.5 Q185 173 143 201 Q100 230 74.5 257.5 Q49 285 49 325 Q49 360 64 387 Q79 414 104.5 433 Q130 452 164 461.5 Q198 471 236 471 Q293 471 330 448.5 Q367 426 367 387 Q367 362 352 346 Q337 330 311 330 Q294 330 279 337 Q264 344 256 357 L323 421 Q314 434 294 442.5 Q274 451 251 451 Q207 451 185 429 Q163 407 163 379 Q163 362 171 349 Q179 336 192 324 Q205 312 222.5 299.5 Q240 287 260 273 Q296 247 318.5 217 Q341 187 341 146 Q341 107 326 78.5 Q311 50 286.5 31.5 Q262 13 231 3.5 Q200 -6 167 -8 L133 -72 Q145 -69 167 -69 Q210 -69 232.5 -88 Q255 -107 255 -135 Q255 -161 243.5 -180 Q232 -199 214 -211 Q196 -223 173.5 -229 Q151 -235 130 -235 Q94 -235 72.5 -221.5 Q51 -208 51 -187 Q51 -171 61 -161 Q71 -151 85 -151 Q96 -151 104 -156.5 Q112 -162 116 -167 L75 -205 Q79 -210 88 -214.5 Q97 -219 109 -219 Q120 -219 131.5 -215 Q143 -211 152.5 -201.5 Q162 -192 168 -177 Q174 -162 174 -140 Q174 -117 163 -102 Q152 -87 132 -87 Q116 -87 106 -92 L99 -87 L142 -9 Z " />
<glyph glyph-name="Scaron" unicode="&#x160;" horiz-adv-x="536" d="M89 505 Q89 542 105.5 578.5 Q122 615 154.5 644 Q187 673 235.5 691.5 Q284 710 349 710 Q392 710 425 699.5 Q458 689 480.5 671.5 Q503 654 514.5 631 Q526 608 526 583 Q526 545 501.5 518.5 Q477 492 439 492 Q413 492 397.5 502 Q382 512 375 523 L481 630 Q464 654 433 669.5 Q402 685 358 685 Q327 685 300.5 676.5 Q274 668 254.5 652.5 Q235 637 223.5 616 Q212 595 212 570 Q212 546 221 527 Q230 508 246 491.5 Q262 475 284.5 459.5 Q307 444 333 427 Q366 406 393 385.5 Q420 365 439.5 342 Q459 319 470 292 Q481 265 481 230 Q481 176 459 131.5 Q437 87 399.5 56 Q362 25 312 8 Q262 -9 205 -9 Q161 -9 126.5 1.5 Q92 12 68 30.5 Q44 49 31 73.5 Q18 98 18 126 Q18 168 42.5 196.5 Q67 225 108 225 Q134 225 149 215 Q164 205 172 193 L63 79 Q83 50 118 33 Q153 16 201 16 Q233 16 261.5 25 Q290 34 311.5 52 Q333 70 345.5 96.5 Q358 123 358 158 Q358 205 323.5 239 Q289 273 232 309 Q201 328 174.5 347.5 Q148 367 129 389.5 Q110 412 99.5 440 Q89 468 89 505 Z M530 923 L380 760 L324 760 L237 923 L260 936 L368 849 L513 937 L530 923 Z " />
<glyph glyph-name="scaron" unicode="&#x161;" horiz-adv-x="395" d="M251 451 Q207 451 185 429 Q163 407 163 379 Q163 362 171 349 Q179 336 192 324 Q205 312 222.5 299.5 Q240 287 260 273 Q296 247 318.5 217 Q341 187 341 146 Q341 103 323.5 73.5 Q306 44 277.5 25.5 Q249 7 213.5 -1 Q178 -9 143 -9 Q114 -9 87.5 -3.5 Q61 2 41 13.5 Q21 25 9 41.5 Q-3 58 -3 81 Q-3 106 14.5 124.5 Q32 143 59 143 Q95 143 110 114 L45 46 Q57 30 79.5 19.5 Q102 9 131 9 Q171 9 200 30 Q229 51 229 90 Q229 126 207 149.5 Q185 173 143 201 Q100 230 74.5 257.5 Q49 285 49 325 Q49 360 64 387 Q79 414 104.5 433 Q130 452 164 461.5 Q198 471 236 471 Q293 471 330 448.5 Q367 426 367 387 Q367 362 352 346 Q337 330 311 330 Q294 330 279 337 Q264 344 256 357 L323 421 Q314 434 294 442.5 Q274 451 251 451 Z M408 685 L258 522 L202 522 L115 685 L138 698 L246 611 L391 699 L408 685 Z " />
<glyph glyph-name="uni0162" unicode="&#x162;" horiz-adv-x="613" d="M71 479 L117 697 L670 697 L624 479 L607 479 L607 507 Q607 592 575 634 Q543 676 481 676 L457 676 L318 21 L400 21 L395 0 L95 0 L99 21 L182 21 L321 676 L300 676 Q269 676 239.5 666.5 Q210 657 184.5 639 Q159 621 139.5 594 Q120 567 109 531 L93 479 L71 479 Z M151 -240 Q177 -220 190.5 -202.5 Q204 -185 204 -174 Q204 -167 197.5 -162 Q191 -157 183.5 -150 Q176 -143 169.5 -133.5 Q163 -124 163 -107 Q163 -77 183.5 -60.5 Q204 -44 230 -44 Q255 -44 268.5 -59.5 Q282 -75 282 -101 Q282 -143 249 -183 Q216 -223 165 -257 L151 -240 Z " />
<glyph glyph-name="uni0163" unicode="&#x163;" horiz-adv-x="335" d="M294 70 Q266 34 225.5 12.5 Q185 -9 136 -9 Q91 -9 62.5 15.5 Q34 40 34 95 Q34 112 36 127.5 Q38 143 42 162 L101 441 L40 441 L45 461 L83 461 Q108 461 133 473 Q158 485 180 503.5 Q202 522 219 545.5 Q236 569 246 592 L255 613 L272 613 L240 461 L358 461 L354 441 L236 441 L167 119 Q164 105 162.5 96 Q161 87 161 80 Q161 55 172 44.5 Q183 34 200 34 Q223 34 245 48.5 Q267 63 281 81 L294 70 Z M44 -240 Q70 -220 83.5 -202.5 Q97 -185 97 -174 Q97 -167 90.5 -162 Q84 -157 76.5 -150 Q69 -143 62.5 -133.5 Q56 -124 56 -107 Q56 -77 76.5 -60.5 Q97 -44 123 -44 Q148 -44 161.5 -59.5 Q175 -75 175 -101 Q175 -143 142 -183 Q109 -223 58 -257 L44 -240 Z " />
<glyph glyph-name="Tcaron" unicode="&#x164;" horiz-adv-x="613" d="M71 479 L117 697 L670 697 L624 479 L607 479 L607 507 Q607 592 575 634 Q543 676 481 676 L457 676 L318 21 L400 21 L395 0 L95 0 L99 21 L182 21 L321 676 L300 676 Q269 676 239.5 666.5 Q210 657 184.5 639 Q159 621 139.5 594 Q120 567 109 531 L93 479 L71 479 Z M576 923 L426 760 L370 760 L283 923 L306 936 L414 849 L559 937 L576 923 Z " />
<glyph glyph-name="tcaron" unicode="&#x165;" horiz-adv-x="335" d="M294 70 Q266 34 225.5 12.5 Q185 -9 136 -9 Q91 -9 62.5 15.5 Q34 40 34 95 Q34 112 36 127.5 Q38 143 42 162 L101 441 L40 441 L45 461 L83 461 Q108 461 133 473 Q158 485 180 503.5 Q202 522 219 545.5 Q236 569 246 592 L255 613 L272 613 L240 461 L358 461 L354 441 L236 441 L167 119 Q164 105 162.5 96 Q161 87 161 80 Q161 55 172 44.5 Q183 34 200 34 Q223 34 245 48.5 Q267 63 281 81 L294 70 Z M309 540 Q335 560 348.5 577.5 Q362 595 362 606 Q362 613 355.5 618 Q349 623 341.5 630 Q334 637 327.5 646.5 Q321 656 321 673 Q321 703 341.5 719.5 Q362 736 388 736 Q413 736 426.5 720.5 Q440 705 440 679 Q440 637 407 597 Q374 557 323 523 L309 540 Z " />
<glyph glyph-name="Tbar" unicode="&#x166;" horiz-adv-x="613" d="M71 479 L117 697 L670 697 L624 479 L607 479 L607 507 Q607 592 575 634 Q543 676 481 676 L457 676 L387 346 L528 346 L524 324 L382 324 L318 21 L400 21 L395 0 L95 0 L99 21 L182 21 L246 324 L105 324 L109 346 L251 346 L321 676 L300 676 Q269 676 239.5 666.5 Q210 657 184.5 639 Q159 621 139.5 594 Q120 567 109 531 L93 479 L71 479 Z " />
<glyph glyph-name="tbar" unicode="&#x167;" horiz-adv-x="335" d="M294 70 Q266 34 225.5 12.5 Q185 -9 136 -9 Q91 -9 62.5 15.5 Q34 40 34 95 Q34 112 36 127.5 Q38 143 42 162 L58 241 L7 241 L12 261 L62 261 L101 441 L40 441 L45 461 L83 461 Q108 461 133 473 Q158 485 180 503.5 Q202 522 219 545.5 Q236 569 246 592 L255 613 L272 613 L240 461 L358 461 L354 441 L236 441 L197 261 L326 261 L322 241 L193 241 L167 119 Q164 105 162.5 96 Q161 87 161 80 Q161 55 172 44.5 Q183 34 200 34 Q223 34 245 48.5 Q267 63 281 81 L294 70 Z " />
<glyph glyph-name="Utilde" unicode="&#x168;" horiz-adv-x="663" d="M394 697 L390 676 L308 676 L213 231 Q208 210 206.5 191 Q205 172 205 154 Q205 118 215 93.5 Q225 69 242 53.5 Q259 38 281 31.5 Q303 25 327 25 Q402 25 458 76 Q514 127 537 238 L629 676 L548 676 L553 697 L742 697 L738 676 L656 676 L565 243 Q553 185 530 138.5 Q507 92 473 59 Q439 26 392.5 8.5 Q346 -9 286 -9 Q181 -9 127.5 35.5 Q74 80 74 171 Q74 191 76 212.5 Q78 234 83 257 L172 676 L91 676 L95 697 L394 697 Z M636 904 Q621 844 590 809.5 Q559 775 511 775 Q491 775 472 782 Q453 789 435.5 797.5 Q418 806 401 813 Q384 820 368 820 Q351 820 332.5 810.5 Q314 801 300 772 L286 772 Q299 828 333 863 Q367 898 413 898 Q435 898 454 891 Q473 884 490 876 Q507 868 523.5 861 Q540 854 557 854 Q576 854 593 866 Q610 878 622 904 L636 904 Z " />
<glyph glyph-name="utilde" unicode="&#x169;" horiz-adv-x="562" d="M105 432 Q90 437 71 437.5 Q52 438 36 438 L39 455 L243 472 L167 124 Q163 107 162 95.5 Q161 84 161 75 Q161 50 170 40.5 Q179 31 196 31 Q218 31 240 51.5 Q262 72 281.5 107.5 Q301 143 317.5 189.5 Q334 236 345 288 L382 461 L514 461 L439 111 Q432 82 432 63 Q432 52 436.5 44.5 Q441 37 452 37 Q466 37 481.5 53.5 Q497 70 511 93 L524 84 Q501 44 470.5 17.5 Q440 -9 397 -9 Q359 -9 337.5 16.5 Q316 42 316 84 Q316 106 320 126 Q282 53 235.5 22 Q189 -9 137 -9 Q86 -9 61 16 Q36 41 36 86 Q36 102 39.5 122.5 Q43 143 49 171 L105 432 Z M518 666 Q503 606 472 571.5 Q441 537 393 537 Q373 537 354 544 Q335 551 317.5 559.5 Q300 568 283 575 Q266 582 250 582 Q233 582 214.5 572.5 Q196 563 182 534 L168 534 Q181 590 215 625 Q249 660 295 660 Q317 660 336 653 Q355 646 372 638 Q389 630 405.5 623 Q422 616 439 616 Q458 616 475 628 Q492 640 504 666 L518 666 Z " />
<glyph glyph-name="Umacron" unicode="&#x16a;" horiz-adv-x="663" d="M394 697 L390 676 L308 676 L213 231 Q208 210 206.5 191 Q205 172 205 154 Q205 118 215 93.5 Q225 69 242 53.5 Q259 38 281 31.5 Q303 25 327 25 Q402 25 458 76 Q514 127 537 238 L629 676 L548 676 L553 697 L742 697 L738 676 L656 676 L565 243 Q553 185 530 138.5 Q507 92 473 59 Q439 26 392.5 8.5 Q346 -9 286 -9 Q181 -9 127.5 35.5 Q74 80 74 171 Q74 191 76 212.5 Q78 234 83 257 L172 676 L91 676 L95 697 L394 697 Z M310 788 L327 860 L615 860 L599 788 L310 788 Z " />
<glyph glyph-name="umacron" unicode="&#x16b;" horiz-adv-x="562" d="M105 432 Q90 437 71 437.5 Q52 438 36 438 L39 455 L243 472 L167 124 Q163 107 162 95.5 Q161 84 161 75 Q161 50 170 40.5 Q179 31 196 31 Q218 31 240 51.5 Q262 72 281.5 107.5 Q301 143 317.5 189.5 Q334 236 345 288 L382 461 L514 461 L439 111 Q432 82 432 63 Q432 52 436.5 44.5 Q441 37 452 37 Q466 37 481.5 53.5 Q497 70 511 93 L524 84 Q501 44 470.5 17.5 Q440 -9 397 -9 Q359 -9 337.5 16.5 Q316 42 316 84 Q316 106 320 126 Q282 53 235.5 22 Q189 -9 137 -9 Q86 -9 61 16 Q36 41 36 86 Q36 102 39.5 122.5 Q43 143 49 171 L105 432 Z M178 550 L195 622 L483 622 L467 550 L178 550 Z " />
<glyph glyph-name="Ubreve" unicode="&#x16c;" horiz-adv-x="663" d="M394 697 L390 676 L308 676 L213 231 Q208 210 206.5 191 Q205 172 205 154 Q205 118 215 93.5 Q225 69 242 53.5 Q259 38 281 31.5 Q303 25 327 25 Q402 25 458 76 Q514 127 537 238 L629 676 L548 676 L553 697 L742 697 L738 676 L656 676 L565 243 Q553 185 530 138.5 Q507 92 473 59 Q439 26 392.5 8.5 Q346 -9 286 -9 Q181 -9 127.5 35.5 Q74 80 74 171 Q74 191 76 212.5 Q78 234 83 257 L172 676 L91 676 L95 697 L394 697 Z M463 842 Q511 842 549 866 Q587 890 600 926 L625 926 Q619 895 604.5 865.5 Q590 836 568.5 812.5 Q547 789 517.5 775 Q488 761 451 761 Q394 761 366 795.5 Q338 830 338 884 Q338 903 344 926 L369 926 Q369 888 394.5 865 Q420 842 463 842 Z " />
<glyph glyph-name="ubreve" unicode="&#x16d;" horiz-adv-x="562" d="M105 432 Q90 437 71 437.5 Q52 438 36 438 L39 455 L243 472 L167 124 Q163 107 162 95.5 Q161 84 161 75 Q161 50 170 40.5 Q179 31 196 31 Q218 31 240 51.5 Q262 72 281.5 107.5 Q301 143 317.5 189.5 Q334 236 345 288 L382 461 L514 461 L439 111 Q432 82 432 63 Q432 52 436.5 44.5 Q441 37 452 37 Q466 37 481.5 53.5 Q497 70 511 93 L524 84 Q501 44 470.5 17.5 Q440 -9 397 -9 Q359 -9 337.5 16.5 Q316 42 316 84 Q316 106 320 126 Q282 53 235.5 22 Q189 -9 137 -9 Q86 -9 61 16 Q36 41 36 86 Q36 102 39.5 122.5 Q43 143 49 171 L105 432 Z M340 604 Q388 604 426 628 Q464 652 477 688 L502 688 Q496 657 481.5 627.5 Q467 598 445.5 574.5 Q424 551 394.5 537 Q365 523 328 523 Q271 523 243 557.5 Q215 592 215 646 Q215 665 221 688 L246 688 Q246 650 271.5 627 Q297 604 340 604 Z " />
<glyph glyph-name="Uring" unicode="&#x16e;" horiz-adv-x="663" d="M394 697 L390 676 L308 676 L213 231 Q208 210 206.5 191 Q205 172 205 154 Q205 118 215 93.5 Q225 69 242 53.5 Q259 38 281 31.5 Q303 25 327 25 Q402 25 458 76 Q514 127 537 238 L629 676 L548 676 L553 697 L742 697 L738 676 L656 676 L565 243 Q553 185 530 138.5 Q507 92 473 59 Q439 26 392.5 8.5 Q346 -9 286 -9 Q181 -9 127.5 35.5 Q74 80 74 171 Q74 191 76 212.5 Q78 234 83 257 L172 676 L91 676 L95 697 L394 697 Z M588 880 Q588 853 577.5 828.5 Q567 804 548.5 785.5 Q530 767 505 756 Q480 745 451 745 Q409 745 385 769 Q361 793 361 831 Q361 859 372 883.5 Q383 908 402 927 Q421 946 446 957 Q471 968 499 968 Q542 968 565 943 Q588 918 588 880 Z M457 767 Q473 767 485.5 780 Q498 793 505.5 812 Q513 831 517 852.5 Q521 874 521 891 Q521 912 516.5 929.5 Q512 947 495 947 Q479 947 467 933.5 Q455 920 446.5 900.5 Q438 881 433.5 859 Q429 837 429 820 Q429 800 434.5 783.5 Q440 767 457 767 Z " />
<glyph glyph-name="uring" unicode="&#x16f;" horiz-adv-x="562" d="M105 432 Q90 437 71 437.5 Q52 438 36 438 L39 455 L243 472 L167 124 Q163 107 162 95.5 Q161 84 161 75 Q161 50 170 40.5 Q179 31 196 31 Q218 31 240 51.5 Q262 72 281.5 107.5 Q301 143 317.5 189.5 Q334 236 345 288 L382 461 L514 461 L439 111 Q432 82 432 63 Q432 52 436.5 44.5 Q441 37 452 37 Q466 37 481.5 53.5 Q497 70 511 93 L524 84 Q501 44 470.5 17.5 Q440 -9 397 -9 Q359 -9 337.5 16.5 Q316 42 316 84 Q316 106 320 126 Q282 53 235.5 22 Q189 -9 137 -9 Q86 -9 61 16 Q36 41 36 86 Q36 102 39.5 122.5 Q43 143 49 171 L105 432 Z M463 642 Q463 615 452.5 590.5 Q442 566 423.5 547.5 Q405 529 380 518 Q355 507 326 507 Q284 507 260 531 Q236 555 236 593 Q236 621 247 645.5 Q258 670 277 689 Q296 708 321 719 Q346 730 374 730 Q417 730 440 705 Q463 680 463 642 Z M332 529 Q348 529 360.5 542 Q373 555 380.5 574 Q388 593 392 614.5 Q396 636 396 653 Q396 674 391.5 691.5 Q387 709 370 709 Q354 709 342 695.5 Q330 682 321.5 662.5 Q313 643 308.5 621 Q304 599 304 582 Q304 562 309.5 545.5 Q315 529 332 529 Z " />
<glyph glyph-name="Uhungarumlaut" unicode="&#x170;" horiz-adv-x="663" d="M394 697 L390 676 L308 676 L213 231 Q208 210 206.5 191 Q205 172 205 154 Q205 118 215 93.5 Q225 69 242 53.5 Q259 38 281 31.5 Q303 25 327 25 Q402 25 458 76 Q514 127 537 238 L629 676 L548 676 L553 697 L742 697 L738 676 L656 676 L565 243 Q553 185 530 138.5 Q507 92 473 59 Q439 26 392.5 8.5 Q346 -9 286 -9 Q181 -9 127.5 35.5 Q74 80 74 171 Q74 191 76 212.5 Q78 234 83 257 L172 676 L91 676 L95 697 L394 697 Z M424 898 Q441 914 456 924 Q471 934 489 934 Q505 934 516 924 Q527 914 527 897 Q527 880 514 867 Q501 854 475 839 L333 757 L293 757 L424 898 Z M586 898 Q601 915 616.5 924.5 Q632 934 651 934 Q667 934 677.5 924 Q688 914 688 897 Q688 880 675.5 867 Q663 854 636 839 L494 757 L454 757 L586 898 Z " />
</font>
</svg>
