<?xml version="1.0" encoding="UTF-8"?>
<svg xmlns="http://www.w3.org/2000/svg" xmlns:xlink="http://www.w3.org/1999/xlink" version="1.2" >
<font id="Exquise FY Regular">
<font-face  font-family="Exquise FY" units-per-em="1000" ascent="780" descent="-220" font-style="normal" font-weight="400" font-stretch="normal" cap-height="697" x-height="457" underline-position="-85" underline-thickness="30" />
<missing-glyph  horiz-adv-x="524" d="M262 135 Q217 157 177.5 186.5 Q138 216 108 250 Q78 284 60.5 321 Q43 358 43 394 Q43 445 71.5 471.5 Q100 498 147 498 Q179 498 209 481 Q239 464 262 432 Q285 464 315 481 Q345 498 377 498 Q424 498 452.5 471.5 Q481 445 481 394 Q481 358 463.5 321 Q446 284 416 250 Q386 216 346.5 186.5 Q307 157 262 135 Z " />
<glyph glyph-name=".null" d="" />
<glyph glyph-name="&amp;#x0;" d="" />
<glyph glyph-name="&amp;#xd;" unicode="&#xd;" d="" />
<glyph glyph-name="space" unicode="&#x20;" horiz-adv-x="190" d="" />
<glyph glyph-name="exclam" unicode="&#x21;" horiz-adv-x="320" d="M148 185 Q148 248 141 314.5 Q134 381 125.5 442 Q117 503 110 554.5 Q103 606 103 641 Q103 671 117.5 689.5 Q132 708 160 708 Q188 708 202.5 689.5 Q217 671 217 641 Q217 606 210 554.5 Q203 503 194.5 442 Q186 381 179 314.5 Q172 248 172 185 L148 185 Z M160 -9 Q134 -9 118.5 7.5 Q103 24 103 47 Q103 70 118.5 86.5 Q134 103 160 103 Q186 103 201.5 86.5 Q217 70 217 47 Q217 24 201.5 7.5 Q186 -9 160 -9 Z " />
<glyph glyph-name="quotedbl" unicode="&#x22;" horiz-adv-x="410" d="M88 466 Q80 529 75.5 568 Q71 607 69 630 Q67 653 66 663 Q65 673 65 679 Q65 708 75.5 720.5 Q86 733 105 733 Q124 733 134.5 720.5 Q145 708 145 679 Q145 673 144 663 Q143 653 141 630 Q139 607 134 568 Q129 529 122 466 L88 466 Z M288 466 Q280 529 275.5 568 Q271 607 269 630 Q267 653 266 663 Q265 673 265 679 Q265 708 275.5 720.5 Q286 733 305 733 Q324 733 334.5 720.5 Q345 708 345 679 Q345 673 344 663 Q343 653 341 630 Q339 607 334 568 Q329 529 322 466 L288 466 Z " />
<glyph glyph-name="numbersign" unicode="&#x23;" horiz-adv-x="580" d="M54 475 L187 475 L222 697 L267 697 L232 475 L398 475 L433 697 L478 697 L443 475 L557 475 L557 439 L436 439 L410 267 L524 267 L524 231 L403 231 L368 0 L323 0 L358 231 L192 231 L156 0 L112 0 L147 231 L20 231 L20 267 L154 267 L180 439 L54 439 L54 475 Z M199 267 L365 267 L391 439 L224 439 L199 267 Z " />
<glyph glyph-name="dollar" unicode="&#x24;" horiz-adv-x="568" d="M265 -9 Q217 -9 166 -3 Q115 3 70 15 L70 206 L90 206 Q94 154 110 117 Q126 80 150 56.5 Q174 33 204 22 Q234 11 265 11 L265 290 Q211 314 172.5 336.5 Q134 359 110 383 Q86 407 75 433 Q64 459 64 491 Q64 524 78.5 552.5 Q93 581 119.5 602 Q146 623 183 635.5 Q220 648 265 648 L265 715 L291 715 L291 648 Q333 646 380.5 640 Q428 634 468 623 L468 471 L448 471 Q443 496 432.5 523 Q422 550 403.5 572.5 Q385 595 357.5 610.5 Q330 626 291 629 L291 387 Q340 364 378.5 341 Q417 318 443 293 Q469 268 482.5 239 Q496 210 496 174 Q496 138 479.5 106 Q463 74 435.5 50 Q408 26 370.5 11 Q333 -4 291 -7 L291 -92 L265 -92 L265 -9 Z M422 135 Q422 155 416 173 Q410 191 395 208.5 Q380 226 355 243 Q330 260 291 278 L291 13 Q317 15 341 24.5 Q365 34 383 49.5 Q401 65 411.5 86.5 Q422 108 422 135 Z M135 522 Q135 482 165.5 453.5 Q196 425 265 397 L265 630 Q235 629 210.5 620 Q186 611 169.5 596 Q153 581 144 562 Q135 543 135 522 Z " />
<glyph glyph-name="percent" unicode="&#x25;" horiz-adv-x="931" d="M231 708 Q302 708 344 652 Q386 596 386 502 Q386 405 344 350 Q302 295 231 295 Q161 295 119 350 Q77 405 77 502 Q77 549 88 587 Q99 625 119 652 Q139 679 167.5 693.5 Q196 708 231 708 Z M231 691 Q214 691 200.5 683 Q187 675 177.5 653.5 Q168 632 163 595.5 Q158 559 158 502 Q158 443 163 406 Q168 369 177.5 348 Q187 327 200.5 319.5 Q214 312 231 312 Q248 312 261.5 319.5 Q275 327 284.5 348 Q294 369 299 406 Q304 443 304 502 Q304 559 299 595.5 Q294 632 284.5 653.5 Q275 675 261.5 683 Q248 691 231 691 Z M699 404 Q770 404 812 348 Q854 292 854 198 Q854 101 812 46 Q770 -9 699 -9 Q629 -9 587 46 Q545 101 545 198 Q545 245 556 283 Q567 321 587 348 Q607 375 635.5 389.5 Q664 404 699 404 Z M699 387 Q682 387 668.5 379 Q655 371 645.5 349.5 Q636 328 631 291.5 Q626 255 626 198 Q626 139 631 102 Q636 65 645.5 44 Q655 23 668.5 15.5 Q682 8 699 8 Q716 8 729.5 15.5 Q743 23 752.5 44 Q762 65 767 102 Q772 139 772 198 Q772 255 767 291.5 Q762 328 752.5 349.5 Q743 371 729.5 379 Q716 387 699 387 Z M196 -9 L696 708 L741 708 L241 -9 L196 -9 Z " />
<glyph glyph-name="ampersand" unicode="&#x26;" horiz-adv-x="729" d="M714 72 Q683 35 649 13 Q615 -9 578 -9 Q544 -9 508 8 Q472 25 437 56 Q397 24 351.5 7.5 Q306 -9 248 -9 Q202 -9 165.5 4 Q129 17 103.5 39.5 Q78 62 64 92.5 Q50 123 50 158 Q50 197 63 228.5 Q76 260 97.5 285.5 Q119 311 147 331 Q175 351 205 368 Q182 416 166 461 Q150 506 150 554 Q150 593 162.5 622 Q175 651 196.5 670 Q218 689 247.5 698.5 Q277 708 311 708 Q374 708 408 677 Q442 646 442 602 Q442 548 405.5 499 Q369 450 290 394 Q329 319 385.5 250.5 Q442 182 496 129 Q528 158 550.5 194.5 Q573 231 586 260 L486 382 Q493 390 507.5 397 Q522 404 548 404 Q577 404 599 382 Q621 360 621 322 Q621 301 613.5 275.5 Q606 250 591.5 222.5 Q577 195 556.5 167.5 Q536 140 510 116 Q547 82 580 68.5 Q613 55 637 55 Q656 55 669 60 Q682 65 704 85 L714 72 Z M305 36 Q340 36 365 44 Q390 52 420 71 Q361 128 308 201 Q255 274 214 349 Q175 319 158 280.5 Q141 242 141 200 Q141 125 186 80.5 Q231 36 305 36 Z M232 584 Q232 536 244 496.5 Q256 457 282 410 Q343 464 365.5 510.5 Q388 557 388 600 Q388 648 365 668 Q342 688 310 688 Q275 688 253.5 660 Q232 632 232 584 Z " />
<glyph glyph-name="quotesingle" unicode="&#x27;" horiz-adv-x="210" d="M88 466 Q80 529 75.5 568 Q71 607 69 630 Q67 653 66 663 Q65 673 65 679 Q65 708 75.5 720.5 Q86 733 105 733 Q124 733 134.5 720.5 Q145 708 145 679 Q145 673 144 663 Q143 653 141 630 Q139 607 134 568 Q129 529 122 466 L88 466 L88 466 Z " />
<glyph glyph-name="parenleft" unicode="&#x28;" horiz-adv-x="385" d="M177 298 Q177 232 190.5 164 Q204 96 227.5 36.5 Q251 -23 282.5 -69.5 Q314 -116 350 -140 L343 -152 Q284 -119 238 -71 Q192 -23 160.5 35 Q129 93 112 160 Q95 227 95 298 Q95 369 112 436 Q129 503 160.5 561 Q192 619 238 667 Q284 715 343 748 L350 736 Q314 712 282.5 665.5 Q251 619 227.5 559.5 Q204 500 190.5 432 Q177 364 177 298 Z " />
<glyph glyph-name="parenright" unicode="&#x29;" horiz-adv-x="385" d="M208 298 Q208 364 194.5 432 Q181 500 157.5 559.5 Q134 619 102.5 665.5 Q71 712 35 736 L42 748 Q100 715 146.5 667 Q193 619 224.5 561 Q256 503 273 436 Q290 369 290 298 Q290 227 273 160 Q256 93 224.5 35 Q193 -23 146.5 -71 Q100 -119 42 -152 L35 -140 Q71 -116 102.5 -69.5 Q134 -23 157.5 36.5 Q181 96 194.5 164 Q208 232 208 298 Z " />
<glyph glyph-name="asterisk" unicode="&#x2a;" horiz-adv-x="431" d="M237 433 Q243 409 248.5 386.5 Q254 364 254 337 Q254 316 243.5 306.5 Q233 297 215 297 Q197 297 186.5 306.5 Q176 316 176 337 Q176 363 181.5 386 Q187 409 193 433 L207 489 L166 449 Q157 441 145.5 429 Q134 417 121 406 Q108 395 94.5 387 Q81 379 68 379 Q53 379 41.5 392.5 Q30 406 30 422 Q30 437 43.5 448 Q57 459 75.5 466.5 Q94 474 113.5 479 Q133 484 144 487 L200 502 L145 518 Q135 521 116 526 Q97 531 78 538.5 Q59 546 45 557.5 Q31 569 31 584 Q31 598 41.5 612 Q52 626 68 626 Q79 626 92.5 619 Q106 612 119.5 601.5 Q133 591 145.5 579 Q158 567 167 557 L208 515 L194 572 Q188 596 182.5 618.5 Q177 641 177 668 Q177 689 187.5 698.5 Q198 708 216 708 Q234 708 244.5 698.5 Q255 689 255 668 Q255 638 249.5 617 Q244 596 238 572 L223 515 L265 556 Q274 564 286 576 Q298 588 311.5 599 Q325 610 338.5 618 Q352 626 363 626 Q378 626 389.5 612.5 Q401 599 401 583 Q401 568 387.5 557 Q374 546 355.5 538.5 Q337 531 318 526 Q299 521 287 518 L229 502 L287 486 Q297 483 316 478 Q335 473 353.5 465.5 Q372 458 386 447 Q400 436 400 421 Q400 407 389.5 393 Q379 379 363 379 Q342 379 319.5 397.5 Q297 416 265 448 L222 490 L237 433 Z " />
<glyph glyph-name="plus" unicode="&#x2b;" horiz-adv-x="690" d="M374 276 L374 40 L315 40 L315 276 L69 276 L69 324 L315 324 L315 560 L374 560 L374 324 L620 324 L620 276 L374 276 Z " />
<glyph glyph-name="comma" unicode="&#x2c;" horiz-adv-x="219" d="M40 -131 Q63 -115 77 -99.5 Q91 -84 98.5 -71.5 Q106 -59 108.5 -48.5 Q111 -38 111 -31 Q111 -21 102 -15 Q93 -9 82.5 -2 Q72 5 63.5 15.5 Q55 26 55 46 Q55 72 71.5 87 Q88 102 113 102 Q140 102 154.5 84.5 Q169 67 169 38 Q169 18 162.5 -7 Q156 -32 141.5 -57 Q127 -82 105 -105.5 Q83 -129 53 -147 L40 -131 L40 -131 Z " />
<glyph glyph-name="hyphen" unicode="&#x2d;" horiz-adv-x="389" d="M60 277 L329 277 L329 229 L60 229 L60 277 Z " />
<glyph glyph-name="period" unicode="&#x2e;" horiz-adv-x="234" d="M117 -9 Q91 -9 75.5 7.5 Q60 24 60 47 Q60 70 75.5 86.5 Q91 103 117 103 Q143 103 158.5 86.5 Q174 70 174 47 Q174 24 158.5 7.5 Q143 -9 117 -9 Z " />
<glyph glyph-name="slash" unicode="&#x2f;" horiz-adv-x="341" d="M280 728 L333 728 L60 -40 L8 -40 L280 728 Z " />
<glyph glyph-name="zero" unicode="0" horiz-adv-x="585" d="M292 481 Q353 481 398 460.5 Q443 440 472 406.5 Q501 373 515.5 329 Q530 285 530 238 Q530 192 515.5 148 Q501 104 472 69 Q443 34 398 12.5 Q353 -9 292 -9 Q231 -9 186.5 12.5 Q142 34 112.5 69 Q83 104 69 148 Q55 192 55 238 Q55 285 69 329 Q83 373 112.5 406.5 Q142 440 186.5 460.5 Q231 481 292 481 Z M292 8 Q329 8 355 25.5 Q381 43 397 74 Q413 105 420.5 147 Q428 189 428 238 Q428 294 417 336.5 Q406 379 387.5 407.5 Q369 436 344.5 450.5 Q320 465 292 465 Q265 465 240 450.5 Q215 436 196.5 407.5 Q178 379 167 336.5 Q156 294 156 238 Q156 189 163.5 147 Q171 105 187.5 74 Q204 43 229.5 25.5 Q255 8 292 8 Z " />
<glyph glyph-name="one" unicode="1" horiz-adv-x="404" d="M35 341 Q68 356 96 370.5 Q124 385 150 402 Q176 419 201.5 438 Q227 457 255 481 L281 481 L281 18 L349 18 L349 0 L54 0 L54 18 L182 18 L182 390 Q154 373 118.5 354 Q83 335 43 319 L35 341 Z " />
<glyph glyph-name="two" unicode="2" horiz-adv-x="489" d="M40 -1 Q59 28 80.5 54.5 Q102 81 127 106.5 Q152 132 181 158 Q210 184 243 213 Q258 226 273 243 Q288 260 300 279.5 Q312 299 319.5 321 Q327 343 327 368 Q327 393 318.5 410 Q310 427 296.5 437 Q283 447 265.5 451 Q248 455 230 455 Q192 455 156.5 436.5 Q121 418 101 391 L175 305 Q170 297 155.5 287 Q141 277 118 277 Q95 277 74.5 293 Q54 309 54 343 Q54 369 69 394 Q84 419 110 438.5 Q136 458 171.5 469.5 Q207 481 249 481 Q329 481 376 447 Q423 413 423 359 Q423 325 408 299 Q393 273 368.5 251.5 Q344 230 313.5 211.5 Q283 193 252 174 Q220 154 191 131 Q162 108 133 78 Q144 83 156 86 Q168 89 189 89 Q207 89 228 86 Q249 83 271.5 80 Q294 77 316.5 74 Q339 71 360 71 Q387 71 402.5 90.5 Q418 110 423 144 L440 144 L440 -1 Q426 -6 410.5 -7.5 Q395 -9 374 -9 Q349 -9 319 -5 Q289 -1 258 4.5 Q227 10 197.5 14 Q168 18 146 18 Q111 18 91 10 Q71 2 55 -12 L40 -1 Z " />
<glyph glyph-name="three" unicode="3" horiz-adv-x="501" d="M60 -107 Q86 -131 119.5 -145 Q153 -159 196 -159 Q231 -159 258 -146.5 Q285 -134 303 -113 Q321 -92 330 -64.5 Q339 -37 339 -6 Q339 74 296.5 110.5 Q254 147 186 147 L138 147 L138 169 L185 169 Q218 169 243.5 181.5 Q269 194 286.5 215 Q304 236 313.5 263.5 Q323 291 323 322 Q323 352 315 377 Q307 402 292 420.5 Q277 439 255.5 449.5 Q234 460 208 460 Q158 460 122.5 435 Q87 410 67 378 L143 282 Q126 257 90 257 Q65 257 47.5 275 Q30 293 30 325 Q30 352 44 379.5 Q58 407 84 429.5 Q110 452 147.5 466.5 Q185 481 233 481 Q277 481 312 467.5 Q347 454 371.5 432.5 Q396 411 409 384 Q422 357 422 329 Q422 294 410 266 Q398 238 377.5 217 Q357 196 329 182.5 Q301 169 269 163 Q351 155 395.5 112 Q440 69 440 0 Q440 -37 423 -71 Q406 -105 376 -131.5 Q346 -158 303.5 -173.5 Q261 -189 210 -189 Q153 -189 113 -171 Q73 -153 46 -127 L60 -107 Z " />
<glyph glyph-name="four" unicode="4" horiz-adv-x="513" d="M372 24 L478 24 L478 0 L372 0 L372 -162 L459 -162 L459 -180 L190 -180 L190 -162 L278 -162 L278 0 L30 0 L30 15 L334 481 L372 481 L372 24 Z M278 24 L278 354 L62 24 L278 24 Z " />
<glyph glyph-name="five" unicode="5" horiz-adv-x="510" d="M70 466 L342 466 Q372 466 386.5 480.5 Q401 495 404 519 L417 519 L417 376 L84 376 L70 140 Q101 187 144 212.5 Q187 238 250 238 Q292 238 328.5 224.5 Q365 211 392 185.5 Q419 160 434.5 124 Q450 88 450 42 Q450 -15 429 -58.5 Q408 -102 375 -131 Q342 -160 300 -174.5 Q258 -189 216 -189 Q156 -189 119 -175 Q82 -161 57 -141 L71 -123 Q90 -138 123 -149.5 Q156 -161 191 -161 Q259 -161 302 -111 Q345 -61 345 36 Q345 124 310 168 Q275 212 215 212 Q175 212 137.5 187.5 Q100 163 70 109 L50 109 L70 466 Z " />
<glyph glyph-name="six" unicode="6" horiz-adv-x="553" d="M441 643 Q431 648 412.5 651.5 Q394 655 375 655 Q325 655 285.5 640.5 Q246 626 218.5 593.5 Q191 561 175 509.5 Q159 458 155 384 Q184 434 224.5 457.5 Q265 481 305 481 Q348 481 384 462.5 Q420 444 445 413 Q470 382 484 341 Q498 300 498 254 Q498 197 481 149 Q464 101 434 65.5 Q404 30 363 10.5 Q322 -9 275 -9 Q225 -9 184.5 15 Q144 39 115.5 80 Q87 121 71 175 Q55 229 55 289 Q55 377 80 449 Q105 521 147.5 572 Q190 623 247 650.5 Q304 678 367 678 Q390 678 412 673 Q434 668 445 662 L441 643 Z M397 236 Q397 277 391 316.5 Q385 356 371.5 386.5 Q358 417 337.5 436 Q317 455 289 455 Q265 455 240 441.5 Q215 428 195.5 401 Q176 374 163.5 334 Q151 294 151 242 Q151 192 160 149.5 Q169 107 185.5 75.5 Q202 44 225.5 26.5 Q249 9 279 9 Q340 9 368.5 66.5 Q397 124 397 236 Z " />
<glyph glyph-name="seven" unicode="7" horiz-adv-x="463" d="M242 -136 Q228 -154 207.5 -166.5 Q187 -179 159 -179 Q132 -179 108.5 -159.5 Q85 -140 85 -95 Q85 -66 96.5 -36.5 Q108 -7 129 24.5 Q150 56 179 91 Q208 126 242 167 Q258 186 276 210.5 Q294 235 311 262 Q328 289 343.5 318 Q359 347 370 376 L120 376 Q85 376 72 351 Q59 326 59 277 L43 277 L43 466 L434 466 Q408 377 369 305.5 Q330 234 279 171 Q251 136 230.5 110 Q210 84 194 63 Q178 42 164.5 23.5 Q151 5 137 -15 L242 -136 Z " />
<glyph glyph-name="eight" unicode="8" horiz-adv-x="570" d="M515 181 Q515 141 498.5 106.5 Q482 72 451 46.5 Q420 21 376.5 6 Q333 -9 279 -9 Q232 -9 191 1.5 Q150 12 120 32.5 Q90 53 72.5 82.5 Q55 112 55 150 Q55 187 68.5 215.5 Q82 244 106 267 Q130 290 161.5 308.5 Q193 327 229 345 Q89 421 89 516 Q89 550 101.5 579.5 Q114 609 139 631 Q164 653 202.5 665.5 Q241 678 294 678 Q334 678 368 667 Q402 656 427 637 Q452 618 466.5 592 Q481 566 481 536 Q481 509 468.5 486.5 Q456 464 436.5 445.5 Q417 427 392.5 412 Q368 397 344 385 Q383 360 414.5 338 Q446 316 468.5 293 Q491 270 503 243 Q515 216 515 181 Z M411 538 Q411 595 381.5 627.5 Q352 660 287 660 Q234 660 205.5 632 Q177 604 177 560 Q177 531 190 508 Q203 485 224 465.5 Q245 446 272 428.5 Q299 411 327 395 Q341 403 356 417 Q371 431 383 450 Q395 469 403 491.5 Q411 514 411 538 Z M419 139 Q419 172 403.5 199.5 Q388 227 363.5 250.5 Q339 274 307.5 294.5 Q276 315 244 335 Q189 297 160.5 256 Q132 215 132 155 Q132 88 173.5 48.5 Q215 9 281 9 Q311 9 336 18.5 Q361 28 379.5 45 Q398 62 408.5 86 Q419 110 419 139 Z " />
<glyph glyph-name="nine" unicode="9" horiz-adv-x="551" d="M119 -154 Q155 -165 187 -165 Q233 -165 271 -152 Q309 -139 335.5 -110.5 Q362 -82 377 -36.5 Q392 9 392 75 Q372 39 334 15 Q296 -9 242 -9 Q201 -9 167 8.5 Q133 26 108 57 Q83 88 69 129.5 Q55 171 55 218 Q55 266 71 313 Q87 360 115.5 397.5 Q144 435 184.5 458 Q225 481 274 481 Q327 481 368 455.5 Q409 430 437.5 387.5 Q466 345 481 290.5 Q496 236 496 178 Q496 94 473 26.5 Q450 -41 410.5 -89 Q371 -137 318 -163 Q265 -189 206 -189 Q180 -189 159 -185 Q138 -181 115 -173 L119 -154 Z M399 223 Q399 274 391.5 317.5 Q384 361 368 393 Q352 425 328 443 Q304 461 271 461 Q215 461 186 404.5 Q157 348 157 242 Q157 194 163.5 152 Q170 110 183.5 79 Q197 48 217.5 30.5 Q238 13 267 13 Q294 13 318 28.5 Q342 44 360 72 Q378 100 388.5 138.5 Q399 177 399 223 Z " />
<glyph glyph-name="colon" unicode="&#x3a;" horiz-adv-x="264" d="M132 337 Q106 337 90.5 353.5 Q75 370 75 393 Q75 416 90.5 432.5 Q106 449 132 449 Q158 449 173.5 432.5 Q189 416 189 393 Q189 370 173.5 353.5 Q158 337 132 337 Z M132 -9 Q106 -9 90.5 7.5 Q75 24 75 47 Q75 70 90.5 86.5 Q106 103 132 103 Q158 103 173.5 86.5 Q189 70 189 47 Q189 24 173.5 7.5 Q158 -9 132 -9 Z " />
<glyph glyph-name="semicolon" unicode="&#x3b;" horiz-adv-x="249" d="M55 -131 Q78 -115 92 -99.5 Q106 -84 113.5 -71.5 Q121 -59 123.5 -48.5 Q126 -38 126 -31 Q126 -21 117 -15 Q108 -9 97.5 -2 Q87 5 78.5 15.5 Q70 26 70 46 Q70 72 86.5 87 Q103 102 128 102 Q155 102 169.5 84.5 Q184 67 184 38 Q184 18 177.5 -7 Q171 -32 156.5 -57 Q142 -82 120 -105.5 Q98 -129 68 -147 L55 -131 Z M126 337 Q100 337 84.5 353.5 Q69 370 69 393 Q69 416 84.5 432.5 Q100 449 126 449 Q152 449 167.5 432.5 Q183 416 183 393 Q183 370 167.5 353.5 Q152 337 126 337 Z " />
<glyph glyph-name="less" unicode="&#x3c;" horiz-adv-x="690" d="M81 328 L609 532 L609 477 L146 300 L609 123 L609 68 L81 272 L81 328 Z " />
<glyph glyph-name="equal" unicode="&#x3d;" horiz-adv-x="690" d="M80 372 L80 421 L609 421 L609 372 L80 372 Z M80 186 L80 235 L609 235 L609 186 L80 186 Z " />
<glyph glyph-name="greater" unicode="&#x3e;" horiz-adv-x="690" d="M589 272 L61 68 L61 123 L524 300 L61 477 L61 532 L589 328 L589 272 Z " />
<glyph glyph-name="question" unicode="&#x3f;" horiz-adv-x="499" d="M170 492 Q164 484 150 475 Q136 466 110 466 Q81 466 58 486 Q35 506 35 545 Q35 572 46.5 600.5 Q58 629 83 653 Q108 677 146 692.5 Q184 708 238 708 Q280 708 317.5 696.5 Q355 685 382.5 663.5 Q410 642 426 612 Q442 582 442 545 Q442 513 432.5 487.5 Q423 462 403 438 Q383 414 352.5 389 Q322 364 279 334 Q261 321 250.5 309.5 Q240 298 235 284.5 Q230 271 228.5 254 Q227 237 227 212 L227 185 L203 185 L203 259 Q203 287 212.5 307.5 Q222 328 236 345.5 Q250 363 267 380 Q284 397 298 419.5 Q312 442 321.5 471.5 Q331 501 331 543 Q331 582 320.5 609.5 Q310 637 292.5 654 Q275 671 253 679 Q231 687 207 687 Q163 687 124 664 Q85 641 71 602 L170 492 Z M215 -9 Q189 -9 173.5 7.5 Q158 24 158 47 Q158 70 173.5 86.5 Q189 103 215 103 Q241 103 256.5 86.5 Q272 70 272 47 Q272 24 256.5 7.5 Q241 -9 215 -9 Z " />
<glyph glyph-name="at" unicode="&#x40;" horiz-adv-x="876" d="M336 263 Q336 200 358.5 172 Q381 144 414 144 Q442 144 469 168 Q496 192 517.5 230.5 Q539 269 552 317.5 Q565 366 565 414 Q565 456 545.5 475 Q526 494 500 494 Q469 494 439.5 476 Q410 458 387 427 Q364 396 350 354 Q336 312 336 263 Z M621 498 L675 498 Q651 417 634.5 364.5 Q618 312 608.5 278.5 Q599 245 595 226 Q591 207 591 194 Q591 161 608 146.5 Q625 132 653 132 Q686 132 712 155 Q738 178 756 213.5 Q774 249 783.5 292 Q793 335 793 374 Q793 423 769.5 474 Q746 525 703 566 Q660 607 601 633.5 Q542 660 470 660 Q407 660 348.5 637 Q290 614 244.5 569 Q199 524 171.5 458 Q144 392 144 306 Q144 239 168.5 180 Q193 121 237.5 77 Q282 33 345 7.5 Q408 -18 485 -18 Q559 -18 615 -2.5 Q671 13 727 38 L734 19 Q679 -6 616.5 -23 Q554 -40 483 -40 Q394 -40 316.5 -16 Q239 8 182 53 Q125 98 92.5 162 Q60 226 60 306 Q60 394 93.5 463.5 Q127 533 183.5 580.5 Q240 628 314.5 653 Q389 678 471 678 Q545 678 611.5 655.5 Q678 633 728 592 Q778 551 807 494.5 Q836 438 836 369 Q836 327 822.5 282 Q809 237 783.5 199.5 Q758 162 720.5 138 Q683 114 634 114 Q602 114 580 125.5 Q558 137 544 152 Q530 167 524 181.5 Q518 196 518 202 Q491 160 452.5 137 Q414 114 376 114 Q353 114 332 122.5 Q311 131 295 149 Q279 167 269.5 194.5 Q260 222 260 260 Q260 306 276.5 351 Q293 396 323 431.5 Q353 467 394.5 489 Q436 511 485 511 Q520 511 544.5 496 Q569 481 583 448 L621 498 Z " />
<glyph glyph-name="A" unicode="A" horiz-adv-x="686" d="M402 18 L510 18 L431 237 L179 237 L95 18 L203 18 L203 0 L0 0 L0 18 L68 18 L332 708 L370 708 L618 18 L686 18 L686 0 L402 0 L402 18 Z M309 578 L187 260 L423 260 L309 578 Z " />
<glyph glyph-name="B" unicode="B" horiz-adv-x="676" d="M135 679 L47 679 L47 697 L354 697 Q406 697 447.5 684.5 Q489 672 518.5 650 Q548 628 564 598 Q580 568 580 534 Q580 495 564.5 466 Q549 437 523.5 417 Q498 397 466 385.5 Q434 374 401 368 Q507 358 562.5 312 Q618 266 618 197 Q618 104 544 52 Q470 0 317 0 L47 0 L47 18 L135 18 L135 679 Z M235 18 L278 18 Q396 18 451 58.5 Q506 99 506 195 Q506 281 460 317.5 Q414 354 321 354 L235 354 L235 18 Z M235 372 L284 372 Q372 372 421 407.5 Q470 443 470 527 Q470 603 431.5 641 Q393 679 324 679 L235 679 L235 372 Z " />
<glyph glyph-name="C" unicode="C" horiz-adv-x="674" d="M639 97 Q597 49 539 20 Q481 -9 399 -9 Q313 -9 249 20.5 Q185 50 142 100 Q99 150 78 215 Q57 280 57 351 Q57 418 79.5 482 Q102 546 146.5 596 Q191 646 258 677 Q325 708 414 708 Q470 708 510.5 693.5 Q551 679 577 656.5 Q603 634 615 607 Q627 580 627 555 Q627 516 604 496 Q581 476 552 476 Q526 476 512 485 Q498 494 492 502 L590 612 Q564 649 524 669.5 Q484 690 421 690 Q350 690 302 664 Q254 638 224.5 593.5 Q195 549 182 489.5 Q169 430 169 363 Q169 272 189.5 206.5 Q210 141 244 98.5 Q278 56 322.5 36 Q367 16 415 16 Q480 16 530.5 38 Q581 60 625 110 L639 97 L639 97 Z " />
<glyph glyph-name="D" unicode="D" horiz-adv-x="760" d="M235 18 L315 18 Q463 18 528.5 99.5 Q594 181 594 351 Q594 436 578 497.5 Q562 559 528.5 599.5 Q495 640 442 659.5 Q389 679 315 679 L235 679 L235 18 Z M135 679 L47 679 L47 697 L324 697 Q419 697 490.5 669 Q562 641 610 593.5 Q658 546 682 483.5 Q706 421 706 351 Q706 281 682 217.5 Q658 154 610 105.5 Q562 57 490.5 28.5 Q419 0 324 0 L47 0 L47 18 L135 18 L135 679 Z " />
<glyph glyph-name="E" unicode="E" horiz-adv-x="648" d="M430 697 Q471 697 500.5 687.5 Q530 678 549 662.5 Q568 647 577 627 Q586 607 586 586 Q586 545 563 525 Q540 505 503 505 Q483 505 470.5 511.5 Q458 518 451 525 L536 638 Q517 661 493.5 670 Q470 679 430 679 L235 679 L235 368 L418 368 L418 350 L235 350 L235 18 L372 18 Q416 18 445.5 28 Q475 38 494.5 58.5 Q514 79 526 109 Q538 139 547 180 L555 216 L577 216 L577 0 L47 0 L47 18 L135 18 L135 679 L47 679 L47 697 L430 697 Z " />
<glyph glyph-name="F" unicode="F" horiz-adv-x="609" d="M413 697 Q454 697 483.5 687.5 Q513 678 532 662.5 Q551 647 560 627 Q569 607 569 586 Q569 545 546 525 Q523 505 486 505 Q466 505 453.5 511.5 Q441 518 434 525 L519 638 Q500 661 476.5 670 Q453 679 413 679 L235 679 L235 368 L448 368 L448 350 L235 350 L235 18 L323 18 L323 0 L47 0 L47 18 L135 18 L135 679 L47 679 L47 697 L413 697 Z " />
<glyph glyph-name="G" unicode="G" horiz-adv-x="755" d="M659 0 L648 0 Q640 4 628 7.5 Q616 11 602 11 Q557 11 510 1 Q463 -9 409 -9 Q318 -9 252 19 Q186 47 142.5 95.5 Q99 144 78 208.5 Q57 273 57 346 Q57 420 81.5 485.5 Q106 551 153.5 600.5 Q201 650 269.5 679 Q338 708 426 708 Q487 708 530.5 693.5 Q574 679 601.5 656.5 Q629 634 641.5 607 Q654 580 654 555 Q654 516 631 496 Q608 476 579 476 Q553 476 539 485 Q525 494 519 502 L617 612 Q588 649 545.5 669.5 Q503 690 433 690 Q364 690 314.5 660.5 Q265 631 232.5 583 Q200 535 184.5 473.5 Q169 412 169 348 Q169 270 187.5 208 Q206 146 239.5 102.5 Q273 59 320 36 Q367 13 424 13 Q443 13 462.5 14 Q482 15 500 17.5 Q518 20 533.5 23 Q549 26 559 31 L559 270 L461 270 L461 288 L727 288 L727 270 L659 270 L659 0 Z " />
<glyph glyph-name="H" unicode="H" horiz-adv-x="852" d="M235 18 L323 18 L323 0 L47 0 L47 18 L135 18 L135 679 L47 679 L47 697 L323 697 L323 679 L235 679 L235 377 L617 377 L617 679 L529 679 L529 697 L805 697 L805 679 L717 679 L717 18 L805 18 L805 0 L529 0 L529 18 L617 18 L617 355 L235 355 L235 18 Z " />
<glyph glyph-name="I" unicode="I" horiz-adv-x="370" d="M47 0 L47 18 L135 18 L135 679 L47 679 L47 697 L323 697 L323 679 L235 679 L235 18 L323 18 L323 0 L47 0 Z " />
<glyph glyph-name="J" unicode="J" horiz-adv-x="365" d="M9 -73 Q18 -81 34 -86 Q50 -91 64 -91 Q100 -91 120 -57.5 Q140 -24 140 27 L140 679 L52 679 L52 697 L328 697 L328 679 L240 679 L240 137 Q240 21 202.5 -44.5 Q165 -110 77 -110 Q55 -110 36 -104.5 Q17 -99 0 -85 L9 -73 Z " />
<glyph glyph-name="K" unicode="K" horiz-adv-x="714" d="M235 18 L323 18 L323 0 L47 0 L47 18 L135 18 L135 679 L47 679 L47 697 L323 697 L323 679 L235 679 L235 312 L448 438 Q515 478 552.5 516 Q590 554 590 587 Q590 624 555 624 L468 624 Q466 634 466 640 Q466 668 486.5 688 Q507 708 542 708 Q564 708 579.5 699.5 Q595 691 605 678 Q615 665 620 648 Q625 631 625 615 Q625 560 580 513.5 Q535 467 456 421 L391 383 Q403 385 415.5 386.5 Q428 388 440 388 Q469 388 496 380.5 Q523 373 544 355 Q565 337 577.5 307.5 Q590 278 590 235 L590 133 Q590 75 602.5 54 Q615 33 640 33 Q655 33 665.5 42.5 Q676 52 684 66 L697 55 Q682 27 658 9 Q634 -9 594 -9 Q573 -9 554.5 -1 Q536 7 521.5 26.5 Q507 46 498.5 78.5 Q490 111 490 161 L490 252 Q490 285 483 307.5 Q476 330 463.5 343.5 Q451 357 434.5 363 Q418 369 399 369 Q379 369 368 364 Q357 359 342 350 L235 286 L235 18 Z " />
<glyph glyph-name="L" unicode="L" horiz-adv-x="628" d="M47 0 L47 18 L135 18 L135 679 L47 679 L47 697 L343 697 L343 679 L235 679 L235 18 L373 18 Q422 18 453 31.5 Q484 45 503.5 72 Q523 99 534.5 140 Q546 181 556 236 L578 236 L578 0 L47 0 Z " />
<glyph glyph-name="M" unicode="M" horiz-adv-x="908" d="M258 697 L452 280 L660 697 L861 697 L861 679 L773 679 L773 18 L861 18 L861 0 L585 0 L585 18 L673 18 L673 669 L430 180 L391 180 L160 669 L160 18 L248 18 L248 0 L47 0 L47 18 L135 18 L135 679 L47 679 L47 697 L258 697 Z " />
<glyph glyph-name="N" unicode="N" horiz-adv-x="776" d="M625 679 L537 679 L537 697 L738 697 L738 679 L650 679 L650 -9 L624 -9 L160 673 L160 18 L248 18 L248 0 L47 0 L47 18 L135 18 L135 679 L47 679 L47 697 L266 697 L625 161 L625 679 Z " />
<glyph glyph-name="O" unicode="O" horiz-adv-x="782" d="M391 708 Q463 708 523.5 679.5 Q584 651 627.5 601.5 Q671 552 695.5 485.5 Q720 419 720 344 Q720 265 695.5 200 Q671 135 627.5 88.5 Q584 42 523.5 16.5 Q463 -9 391 -9 Q319 -9 258.5 16.5 Q198 42 154.5 88.5 Q111 135 86.5 200 Q62 265 62 344 Q62 419 86.5 485.5 Q111 552 154.5 601.5 Q198 651 258.5 679.5 Q319 708 391 708 Z M391 10 Q442 10 482 34.5 Q522 59 550 103 Q578 147 593 208.5 Q608 270 608 344 Q608 421 594.5 484.5 Q581 548 553.5 594 Q526 640 485.5 665 Q445 690 391 690 Q337 690 296.5 665 Q256 640 228.5 594 Q201 548 187.5 484.5 Q174 421 174 344 Q174 270 189 208.5 Q204 147 232 103 Q260 59 300 34.5 Q340 10 391 10 Z " />
<glyph glyph-name="P" unicode="P" horiz-adv-x="643" d="M603 500 Q603 437 577.5 394.5 Q552 352 511.5 326.5 Q471 301 421.5 290.5 Q372 280 324 280 L235 280 L235 18 L343 18 L343 0 L47 0 L47 18 L135 18 L135 679 L47 679 L47 697 L297 697 Q392 697 452 681 Q512 665 545.5 638 Q579 611 591 575.5 Q603 540 603 500 Z M491 496 Q491 593 442 636 Q393 679 290 679 L235 679 L235 298 L296 298 Q338 298 373.5 309 Q409 320 435.5 343.5 Q462 367 476.5 404.5 Q491 442 491 496 Z " />
<glyph glyph-name="Q" unicode="Q" horiz-adv-x="774" d="M391 708 Q463 708 523.5 679.5 Q584 651 627.5 601.5 Q671 552 695.5 485.5 Q720 419 720 344 Q720 284 705 232 Q690 180 663.5 138 Q637 96 600 65 Q563 34 519 15 Q532 -20 545 -56 Q558 -92 574.5 -121 Q591 -150 613 -168.5 Q635 -187 668 -187 Q685 -187 697.5 -180.5 Q710 -174 718 -164 Q726 -154 730 -142 Q734 -130 734 -119 L751 -119 Q751 -143 745.5 -167.5 Q740 -192 727.5 -211.5 Q715 -231 695 -243 Q675 -255 646 -255 Q598 -255 567 -231 Q536 -207 516 -169.5 Q496 -132 484 -87.5 Q472 -43 463 -2 Q446 -5 428 -7 Q410 -9 391 -9 Q319 -9 258.5 16.5 Q198 42 154.5 88.5 Q111 135 86.5 200 Q62 265 62 344 Q62 419 86.5 485.5 Q111 552 154.5 601.5 Q198 651 258.5 679.5 Q319 708 391 708 Z M390 149 Q433 149 459 121 Q485 93 504 52 Q552 90 580 167.5 Q608 245 608 344 Q608 421 594.5 484.5 Q581 548 553.5 594 Q526 640 485.5 665 Q445 690 391 690 Q337 690 296.5 665 Q256 640 228.5 594 Q201 548 187.5 484.5 Q174 421 174 344 Q174 219 215.5 133 Q257 47 328 18 Q316 29 310.5 43.5 Q305 58 305 73 Q305 102 326.5 125.5 Q348 149 390 149 Z M391 10 Q409 10 425.5 12 Q442 14 457 20 Q447 63 430.5 91.5 Q414 120 381 120 Q354 120 340.5 104 Q327 88 327 68 Q327 47 342.5 28.5 Q358 10 391 10 Z " />
<glyph glyph-name="R" unicode="R" horiz-adv-x="714" d="M594 523 Q594 493 584.5 465 Q575 437 553.5 415 Q532 393 497.5 377 Q463 361 413 355 Q453 347 483.5 333 Q514 319 535 295 Q556 271 568.5 236 Q581 201 587 151 L589 133 Q595 80 610 58.5 Q625 37 650 37 Q665 37 674 44 Q683 51 690 66 L704 55 Q692 27 670 9 Q648 -9 608 -9 Q585 -9 564.5 -1 Q544 7 527.5 26.5 Q511 46 499 78.5 Q487 111 482 161 L480 178 Q475 218 466 249 Q457 280 440 301 Q423 322 395.5 333 Q368 344 326 344 L235 344 L235 18 L323 18 L323 0 L47 0 L47 18 L135 18 L135 679 L47 679 L47 697 L350 697 Q422 697 469 683 Q516 669 543.5 645 Q571 621 582.5 589.5 Q594 558 594 523 Z M235 679 L235 362 L303 362 Q394 362 438 400 Q482 438 482 523 Q482 609 438 644 Q394 679 303 679 L235 679 Z " />
<glyph glyph-name="S" unicode="S" horiz-adv-x="596" d="M306 708 Q362 708 402.5 693.5 Q443 679 469.5 656.5 Q496 634 508.5 607 Q521 580 521 555 Q521 516 498 496 Q475 476 446 476 Q420 476 406 485 Q392 494 386 502 L482 611 Q456 648 412.5 668.5 Q369 689 306 689 Q240 689 198 658 Q156 627 156 573 Q156 547 164 526.5 Q172 506 190.5 488 Q209 470 239 454 Q269 438 313 423 Q375 401 418.5 378.5 Q462 356 489 330.5 Q516 305 528.5 276 Q541 247 541 212 Q541 159 517 118 Q493 77 455 49 Q417 21 368 6 Q319 -9 270 -9 Q216 -9 176 4 Q136 17 109 37.5 Q82 58 68.5 83.5 Q55 109 55 134 Q55 173 78 193 Q101 213 130 213 Q156 213 170 204 Q184 195 190 187 L97 81 Q128 49 169 30.5 Q210 12 281 12 Q314 12 345.5 21 Q377 30 402 48 Q427 66 442.5 94 Q458 122 458 160 Q458 185 449.5 208 Q441 231 418 253.5 Q395 276 354.5 298 Q314 320 250 344 Q153 379 111.5 422.5 Q70 466 70 526 Q70 571 89.5 605 Q109 639 141.5 662 Q174 685 216.5 696.5 Q259 708 306 708 Z " />
<glyph glyph-name="T" unicode="T" horiz-adv-x="682" d="M637 697 L637 489 L615 489 L608 529 Q594 611 551 645 Q508 679 444 679 L391 679 L391 18 L479 18 L479 0 L203 0 L203 18 L291 18 L291 679 L238 679 Q174 679 131 645 Q88 611 74 529 L67 489 L45 489 L45 697 L637 697 Z " />
<glyph glyph-name="U" unicode="U" horiz-adv-x="765" d="M315 697 L315 679 L227 679 L227 237 Q227 173 244.5 130.5 Q262 88 289 62.5 Q316 37 349 26.5 Q382 16 413 16 Q459 16 498 30 Q537 44 565 72.5 Q593 101 608.5 144 Q624 187 624 244 L624 679 L536 679 L536 697 L737 697 L737 679 L649 679 L649 243 Q649 184 632 137 Q615 90 583.5 57.5 Q552 25 508.5 8 Q465 -9 413 -9 Q268 -9 197.5 55 Q127 119 127 260 L127 679 L39 679 L39 697 L315 697 Z " />
<glyph glyph-name="V" unicode="V" horiz-adv-x="672" d="M181 679 L395 102 Q419 152 444 207.5 Q469 263 492 318 Q515 373 535 424 Q555 475 569.5 517.5 Q584 560 592.5 591.5 Q601 623 601 637 Q601 663 589.5 671 Q578 679 561 679 L459 679 Q457 684 457 688 Q457 692 457 697 Q457 728 479.5 748 Q502 768 541 768 Q559 768 576 762.5 Q593 757 607 744.5 Q621 732 629.5 712.5 Q638 693 638 665 Q638 632 623.5 580.5 Q609 529 585.5 466.5 Q562 404 532.5 336.5 Q503 269 473.5 205 Q444 141 416.5 85 Q389 29 370 -9 L332 -9 L71 679 L2 679 L2 697 L289 697 L289 679 L181 679 Z " />
<glyph glyph-name="W" unicode="W" horiz-adv-x="985" d="M912 632 Q912 661 899.5 670 Q887 679 870 679 L768 679 Q766 684 766 688 Q766 692 766 697 Q766 728 788.5 748 Q811 768 850 768 Q868 768 885 762.5 Q902 757 916 744.5 Q930 732 938.5 712.5 Q947 693 947 665 Q947 639 934.5 589.5 Q922 540 901.5 478 Q881 416 855 346.5 Q829 277 802.5 210.5 Q776 144 750.5 86.5 Q725 29 706 -9 L668 -9 L518 469 L340 -9 L302 -9 L72 679 L4 679 L4 697 L286 697 L286 679 L178 679 L362 119 L506 507 L448 679 L380 679 L380 697 L663 697 L663 679 L555 679 L732 119 Q768 194 800.5 274.5 Q833 355 857.5 426.5 Q882 498 897 553 Q912 608 912 632 Z " />
<glyph glyph-name="X" unicode="X" horiz-adv-x="704" d="M398 402 L636 18 L704 18 L704 0 L410 0 L410 18 L518 18 L317 341 L100 18 L208 18 L208 0 L0 0 L0 18 L68 18 L302 364 L107 679 L39 679 L39 697 L335 697 L335 679 L227 679 L383 426 L555 679 L447 679 L447 697 L654 697 L654 679 L586 679 L398 402 Z " />
<glyph glyph-name="Y" unicode="Y" horiz-adv-x="657" d="M465 18 L465 0 L189 0 L189 18 L277 18 L277 309 L68 679 L0 679 L0 697 L292 697 L292 679 L184 679 L364 352 L558 679 L450 679 L450 697 L657 697 L657 679 L589 679 L377 323 L377 18 L465 18 Z " />
<glyph glyph-name="Z" unicode="Z" horiz-adv-x="628" d="M192 530 Q185 523 172.5 516.5 Q160 510 140 510 Q103 510 80 530 Q57 550 57 591 Q57 612 66 631 Q75 650 94 665 Q113 680 142.5 688.5 Q172 697 213 697 L580 697 L580 683 L144 18 L355 18 Q404 18 438 32 Q472 46 495 72.5 Q518 99 532 137.5 Q546 176 556 226 L578 226 L562 0 L42 0 L42 18 L475 679 L213 679 Q173 679 149.5 671.5 Q126 664 107 643 L192 530 Z " />
<glyph glyph-name="bracketleft" unicode="&#x5b;" horiz-adv-x="395" d="M130 748 L339 748 L339 730 L210 730 L210 -136 L339 -136 L339 -154 L130 -154 L130 748 Z " />
<glyph glyph-name="backslash" unicode="&#x5c;" horiz-adv-x="335" d="M330 -40 L278 -40 L5 728 L58 728 L330 -40 Z " />
<glyph glyph-name="bracketright" unicode="&#x5d;" horiz-adv-x="395" d="M265 -154 L56 -154 L56 -136 L185 -136 L185 730 L56 730 L56 748 L265 748 L265 -154 Z " />
<glyph glyph-name="asciicircum" unicode="&#x5e;" horiz-adv-x="690" d="M524 326 L346 622 L166 326 L122 326 L318 697 L376 697 L568 326 L524 326 Z " />
<glyph glyph-name="underscore" unicode="&#x5f;" horiz-adv-x="500" d="M0 -125 L0 -75 L500 -75 L500 -125 L0 -125 Z " />
<glyph glyph-name="grave" unicode="&#x60;" horiz-adv-x="370" d="M293 516 L267 516 L108 609 Q87 622 76.5 630.5 Q66 639 66 655 Q66 671 77.5 680.5 Q89 690 103 690 Q117 690 130 682.5 Q143 675 154 664 L293 516 Z " />
<glyph glyph-name="a" unicode="a" horiz-adv-x="511" d="M326 42 Q307 24 276.5 7.5 Q246 -9 192 -9 Q120 -9 86 25.5 Q52 60 52 113 Q52 156 76 183 Q100 210 135 225 Q170 240 208.5 245.5 Q247 251 276 251 Q290 251 300.5 250.5 Q311 250 319 250 L319 358 Q319 381 311 398.5 Q303 416 289.5 427.5 Q276 439 258 444.5 Q240 450 221 450 Q193 450 166.5 439 Q140 428 125 412 L182 316 Q178 308 165 301.5 Q152 295 135 295 Q112 295 93.5 309.5 Q75 324 75 356 Q75 378 86 398 Q97 418 118 433 Q139 448 168.5 457 Q198 466 235 466 Q289 466 323 453.5 Q357 441 376 420.5 Q395 400 402 374.5 Q409 349 409 323 L409 68 Q409 45 420 33.5 Q431 22 445 22 Q463 22 476 38 L485 28 Q473 11 451 1 Q429 -9 403 -9 Q378 -9 356.5 2.5 Q335 14 326 42 Z M319 235 Q289 233 258.5 229.5 Q228 226 203.5 214.5 Q179 203 163.5 180.5 Q148 158 148 119 Q148 91 155.5 72 Q163 53 175 42 Q187 31 201.5 26 Q216 21 231 21 Q271 21 291.5 35 Q312 49 319 61 L319 235 Z " />
<glyph glyph-name="b" unicode="b" horiz-adv-x="553" d="M290 -9 Q261 -9 241 -3 Q221 3 205 10.5 Q189 18 173 24.5 Q157 31 135 31 Q112 31 98.5 20.5 Q85 10 73 -9 L60 0 Q66 9 71 17 Q76 25 79.5 34.5 Q83 44 84.5 56.5 Q86 69 86 86 L86 711 L28 711 L28 727 L176 727 L176 393 Q190 422 222.5 444 Q255 466 302 466 Q346 466 382.5 448.5 Q419 431 445.5 401 Q472 371 486.5 329.5 Q501 288 501 240 Q501 180 484.5 133.5 Q468 87 439.5 55.5 Q411 24 372.5 7.5 Q334 -9 290 -9 Z M176 157 Q176 130 182 103.5 Q188 77 201 56 Q214 35 234.5 22 Q255 9 283 9 Q308 9 330 21.5 Q352 34 368.5 61 Q385 88 395 130 Q405 172 405 231 Q405 338 371.5 392 Q338 446 283 446 Q255 446 234.5 433.5 Q214 421 201 400 Q188 379 182 353 Q176 327 176 300 L176 157 Z " />
<glyph glyph-name="c" unicode="c" horiz-adv-x="461" d="M420 56 Q391 25 354 8 Q317 -9 262 -9 Q221 -9 182.5 6 Q144 21 114 50 Q84 79 66 122.5 Q48 166 48 222 Q48 274 63.5 318.5 Q79 363 108.5 396 Q138 429 180.5 447.5 Q223 466 277 466 Q316 466 343.5 456 Q371 446 388 430 Q405 414 413 394 Q421 374 421 355 Q421 320 400.5 302 Q380 284 354 284 Q331 284 318 292 Q305 300 300 308 L387 397 Q383 404 375.5 413 Q368 422 356.5 430.5 Q345 439 329 444.5 Q313 450 291 450 Q224 450 184 394 Q144 338 144 231 Q144 174 157 134 Q170 94 191.5 68.5 Q213 43 241 31.5 Q269 20 299 20 Q334 20 358.5 30.5 Q383 41 410 67 L420 56 Z " />
<glyph glyph-name="d" unicode="d" horiz-adv-x="569" d="M468 68 Q468 45 479 33.5 Q490 22 504 22 Q521 22 534 38 L543 28 Q531 11 509 1 Q487 -9 461 -9 Q432 -9 407.5 7.5 Q383 24 378 63 Q365 36 334 13.5 Q303 -9 259 -9 Q215 -9 177 7 Q139 23 111.5 54 Q84 85 68 129.5 Q52 174 52 231 Q52 281 66.5 324 Q81 367 107 398.5 Q133 430 170 448 Q207 466 251 466 Q298 466 331 444 Q364 422 378 393 L378 711 L321 711 L321 727 L468 727 L468 68 Z M378 300 Q378 327 371.5 353 Q365 379 352 400 Q339 421 319 433.5 Q299 446 271 446 Q216 446 182 394 Q148 342 148 240 Q148 178 158 134.5 Q168 91 184.5 63 Q201 35 223.5 22 Q246 9 271 9 Q299 9 319 22 Q339 35 352 56 Q365 77 371.5 103.5 Q378 130 378 157 L378 300 Z " />
<glyph glyph-name="e" unicode="e" horiz-adv-x="464" d="M262 466 Q345 466 385.5 430.5 Q426 395 426 341 Q426 306 411 280.5 Q396 255 371 238.5 Q346 222 314.5 214 Q283 206 249 206 Q193 206 144 226 Q145 170 157.5 131 Q170 92 191 66.5 Q212 41 239.5 29.5 Q267 18 297 18 Q337 18 365.5 31 Q394 44 426 74 L435 62 Q404 29 362 10 Q320 -9 260 -9 Q219 -9 181 6 Q143 21 113.5 50 Q84 79 66 122.5 Q48 166 48 222 Q48 274 62 318.5 Q76 363 103.5 396 Q131 429 171 447.5 Q211 466 262 466 Z M258 450 Q236 450 216 437 Q196 424 180.5 398 Q165 372 155 333 Q145 294 144 241 Q166 235 187 232 Q208 229 226 229 Q249 229 268.5 234.5 Q288 240 302.5 253 Q317 266 325 287 Q333 308 333 339 Q333 395 311.5 422.5 Q290 450 258 450 Z " />
<glyph glyph-name="f" unicode="f" horiz-adv-x="334" d="M267 733 Q297 733 320 724.5 Q343 716 358.5 702.5 Q374 689 381.5 671 Q389 653 389 634 Q389 602 370 584.5 Q351 567 330 567 Q307 567 294.5 575.5 Q282 584 277 592 L356 676 Q354 682 349 688.5 Q344 695 335.5 701 Q327 707 315 711 Q303 715 287 715 Q238 715 210.5 671 Q183 627 183 552 L183 457 L307 457 L307 441 L183 441 L183 16 L273 16 L273 0 L36 0 L36 16 L93 16 L93 378 Q93 413 78.5 427 Q64 441 36 441 L36 457 L93 457 L93 502 Q93 550 103 592.5 Q113 635 134 666 Q155 697 188 715 Q221 733 267 733 Z " />
<glyph glyph-name="g" unicode="g" horiz-adv-x="514" d="M42 -98 Q42 -75 49.5 -58 Q57 -41 69 -28.5 Q81 -16 97 -7 Q113 2 130 10 Q97 26 76.5 49 Q56 72 56 110 Q56 136 70.5 166 Q85 196 120 214 Q96 234 84.5 260 Q73 286 73 315 Q73 340 82 367 Q91 394 112.5 416 Q134 438 170.5 452 Q207 466 262 466 Q307 466 338.5 457 Q370 448 392 433 Q408 440 419 455 Q430 470 430 485 Q430 509 419 514.5 Q408 520 394 520 L320 520 Q318 530 318 535 Q318 560 336.5 578 Q355 596 386 596 Q415 596 438 578 Q461 560 461 515 Q461 495 449.5 468.5 Q438 442 406 421 Q431 398 441 370 Q451 342 451 315 Q451 288 440 262 Q429 236 406 216.5 Q383 197 347 185 Q311 173 262 173 Q219 173 187.5 181.5 Q156 190 133 205 Q118 195 112.5 180 Q107 165 107 154 Q107 136 115 121.5 Q123 107 142.5 95.5 Q162 84 195.5 76 Q229 68 280 63 Q323 58 358 48.5 Q393 39 418.5 22.5 Q444 6 458 -18.5 Q472 -43 472 -77 Q472 -144 417.5 -187 Q363 -230 254 -230 Q212 -230 173.5 -222.5 Q135 -215 106 -198.5 Q77 -182 59.5 -157.5 Q42 -133 42 -98 Z M392 -111 Q392 -70 363.5 -49.5 Q335 -29 287 -22 Q250 -17 217 -11 Q184 -5 147 4 Q130 -18 122 -41.5 Q114 -65 114 -94 Q114 -119 122.5 -140.5 Q131 -162 148.5 -178 Q166 -194 194 -203.5 Q222 -213 261 -213 Q325 -213 358.5 -183 Q392 -153 392 -111 Z M262 189 Q291 189 309 200.5 Q327 212 337.5 230 Q348 248 351.5 270.5 Q355 293 355 315 Q355 339 350.5 363.5 Q346 388 335.5 407 Q325 426 307 438 Q289 450 262 450 Q235 450 217 438 Q199 426 188.5 407 Q178 388 173.5 363.5 Q169 339 169 315 Q169 293 173 270.5 Q177 248 187 230 Q197 212 215 200.5 Q233 189 262 189 Z " />
<glyph glyph-name="h" unicode="h" horiz-adv-x="582" d="M480 68 Q480 45 491 33.5 Q502 22 516 22 Q534 22 547 38 L556 28 Q543 11 521.5 1 Q500 -9 474 -9 Q458 -9 443 -4 Q428 1 416 12 Q404 23 397 40.5 Q390 58 390 84 L390 326 Q390 382 371 412.5 Q352 443 304 443 Q276 443 254.5 432 Q233 421 218 403.5 Q203 386 195.5 363.5 Q188 341 188 317 L188 16 L244 16 L244 0 L41 0 L41 16 L98 16 L98 711 L41 711 L41 727 L188 727 L188 390 Q193 400 203 413.5 Q213 427 230 438.5 Q247 450 270.5 458 Q294 466 326 466 Q371 466 400.5 453 Q430 440 448 418 Q466 396 473 366 Q480 336 480 303 L480 68 Z " />
<glyph glyph-name="i" unicode="i" horiz-adv-x="292" d="M191 457 L191 16 L247 16 L247 0 L44 0 L44 16 L101 16 L101 441 L44 441 L44 457 L191 457 Z M202 595 Q202 571 185.5 554.5 Q169 538 146 538 Q123 538 107 554.5 Q91 571 91 595 Q91 618 107 634 Q123 650 146 650 Q169 650 185.5 634 Q202 618 202 595 Z " />
<glyph glyph-name="j" unicode="j" horiz-adv-x="284" d="M15 -218 Q37 -213 53 -203 Q69 -193 79.5 -175 Q90 -157 94.5 -129.5 Q99 -102 99 -62 L99 441 L24 441 L24 457 L189 457 L189 -17 Q189 -54 178.5 -90.5 Q168 -127 147 -157 Q126 -187 93.5 -207 Q61 -227 18 -230 L15 -218 Z M200 595 Q200 571 183.5 554.5 Q167 538 144 538 Q121 538 105 554.5 Q89 571 89 595 Q89 618 105 634 Q121 650 144 650 Q167 650 183.5 634 Q200 618 200 595 Z " />
<glyph glyph-name="k" unicode="k" horiz-adv-x="529" d="M434 68 Q434 45 445 33.5 Q456 22 470 22 Q487 22 500 38 L509 28 Q497 11 475.5 1 Q454 -9 428 -9 Q395 -9 369.5 12 Q344 33 344 84 L344 151 Q344 192 326 214.5 Q308 237 275 237 Q249 237 212 223 L175 209 L175 16 L231 16 L231 0 L28 0 L28 16 L85 16 L85 711 L28 711 L28 727 L175 727 L175 229 L316 282 Q346 293 364.5 303 Q383 313 394 323 Q405 333 409 342 Q413 351 413 361 Q413 391 377 391 L304 391 Q302 401 302 406 Q302 431 320 448.5 Q338 466 370 466 Q389 466 403.5 459.5 Q418 453 427 442.5 Q436 432 440.5 419 Q445 406 445 393 Q445 345 410 315 Q375 285 318 264 L288 253 Q296 255 304 255 Q312 255 320 255 Q370 255 402 224 Q434 193 434 133 L434 68 Z " />
<glyph glyph-name="l" unicode="l" horiz-adv-x="295" d="M173 102 Q173 59 190.5 40.5 Q208 22 229 22 Q258 22 279 49 L287 40 Q271 16 246 3.5 Q221 -9 193 -9 Q172 -9 152 -2.5 Q132 4 116.5 19.5 Q101 35 92 61.5 Q83 88 83 127 L83 711 L26 711 L26 727 L173 727 L173 102 Z " />
<glyph glyph-name="m" unicode="m" horiz-adv-x="850" d="M748 68 Q748 45 759 33.5 Q770 22 784 22 Q801 22 814 38 L823 28 Q811 11 789 1 Q767 -9 741 -9 Q725 -9 710 -4 Q695 1 683.5 12 Q672 23 665 40.5 Q658 58 658 84 L658 326 Q658 382 641 411 Q624 440 578 440 Q552 440 532 429.5 Q512 419 498 402 Q484 385 476.5 363 Q469 341 469 317 L469 16 L526 16 L526 0 L322 0 L322 16 L379 16 L379 337 Q379 387 361.5 413.5 Q344 440 299 440 Q273 440 253 429.5 Q233 419 219 402 Q205 385 198 363 Q191 341 191 317 L191 16 L247 16 L247 0 L44 0 L44 16 L101 16 L101 441 L44 441 L44 457 L187 457 L187 381 Q192 393 203 408 Q214 423 231 435.5 Q248 448 271 457 Q294 466 324 466 Q356 466 379.5 459 Q403 452 419 439.5 Q435 427 445.5 410 Q456 393 462 372 Q468 388 479.5 405 Q491 422 508.5 435.5 Q526 449 549.5 457.5 Q573 466 603 466 Q647 466 675.5 453 Q704 440 720 418 Q736 396 742 366 Q748 336 748 303 L748 68 Z " />
<glyph glyph-name="n" unicode="n" horiz-adv-x="585" d="M477 -9 Q461 -9 446 -4 Q431 1 419 12 Q407 23 400 40.5 Q393 58 393 84 L393 326 Q393 382 373 412.5 Q353 443 305 443 Q277 443 256 432 Q235 421 220.5 403.5 Q206 386 198.5 363.5 Q191 341 191 317 L191 16 L247 16 L247 0 L44 0 L44 16 L101 16 L101 441 L44 441 L44 457 L187 457 L187 381 Q192 393 203 408 Q214 423 231.5 435.5 Q249 448 273 457 Q297 466 329 466 Q374 466 403.5 453 Q433 440 451 418 Q469 396 476 366 Q483 336 483 303 L483 68 Q483 45 494 33.5 Q505 22 519 22 Q537 22 550 38 L559 28 Q546 11 524.5 1 Q503 -9 477 -9 Z " />
<glyph glyph-name="o" unicode="o" horiz-adv-x="547" d="M273 466 Q325 466 366 448 Q407 430 435.5 398.5 Q464 367 479.5 324 Q495 281 495 231 Q495 183 479.5 139.5 Q464 96 435.5 63 Q407 30 366 10.5 Q325 -9 273 -9 Q222 -9 181 10.5 Q140 30 111.5 63 Q83 96 67.5 139.5 Q52 183 52 231 Q52 281 67.5 324 Q83 367 111.5 398.5 Q140 430 181 448 Q222 466 273 466 Z M273 8 Q312 8 336.5 25.5 Q361 43 374.5 73.5 Q388 104 393 144.5 Q398 185 398 231 Q398 338 365.5 394 Q333 450 273 450 Q214 450 181 394 Q148 338 148 231 Q148 185 153 144.5 Q158 104 172 73.5 Q186 43 210 25.5 Q234 8 273 8 Z " />
<glyph glyph-name="p" unicode="p" horiz-adv-x="552" d="M289 -9 Q246 -9 221 0 Q196 9 180 20 L180 -195 L254 -195 L254 -212 L33 -212 L33 -195 L90 -195 L90 441 L33 441 L33 457 L180 457 L180 393 Q194 422 224 444 Q254 466 302 466 Q346 466 382.5 448.5 Q419 431 445 401 Q471 371 485.5 329.5 Q500 288 500 240 Q500 188 487 142.5 Q474 97 448 63.5 Q422 30 382.5 10.5 Q343 -9 289 -9 Z M271 9 Q298 9 322 21.5 Q346 34 364 61 Q382 88 393 130 Q404 172 404 231 Q404 338 370.5 392 Q337 446 282 446 Q254 446 234.5 433.5 Q215 421 203 400 Q191 379 185.5 353 Q180 327 180 300 L180 76 Q186 64 193.5 52 Q201 40 211.5 30.5 Q222 21 236.5 15 Q251 9 271 9 Z " />
<glyph glyph-name="q" unicode="q" horiz-adv-x="552" d="M520 -195 L520 -212 L299 -212 L299 -195 L374 -195 L374 64 Q360 35 328 13 Q296 -9 250 -9 Q208 -9 171 7 Q134 23 106.5 54 Q79 85 63.5 129.5 Q48 174 48 231 Q48 281 62.5 324 Q77 367 104 398.5 Q131 430 170 448 Q209 466 259 466 Q289 466 308.5 460 Q328 454 344.5 446.5 Q361 439 377 433 Q393 427 414 427 Q437 427 450.5 437 Q464 447 476 466 L489 457 Q476 439 470 422 Q464 405 464 371 L464 -195 L520 -195 Z M374 300 Q374 327 367.5 353 Q361 379 348 400 Q335 421 315 433.5 Q295 446 267 446 Q212 446 178 394 Q144 342 144 240 Q144 178 154 134.5 Q164 91 180.5 63 Q197 35 219.5 22 Q242 9 267 9 Q295 9 315 22 Q335 35 348 56 Q361 77 367.5 103.5 Q374 130 374 157 L374 300 Z " />
<glyph glyph-name="r" unicode="r" horiz-adv-x="435" d="M302 466 Q347 466 377 442.5 Q407 419 407 373 Q407 338 386.5 320 Q366 302 340 302 Q316 302 303.5 310 Q291 318 286 326 L369 413 Q358 430 339.5 440 Q321 450 295 450 Q267 450 246.5 439 Q226 428 213 408.5 Q200 389 193.5 363.5 Q187 338 187 310 L187 16 L261 16 L261 0 L40 0 L40 16 L97 16 L97 441 L40 441 L40 457 L183 457 L183 393 Q200 432 230.5 449 Q261 466 302 466 Z " />
<glyph glyph-name="s" unicode="s" horiz-adv-x="424" d="M215 466 Q253 466 280.5 457 Q308 448 326 433.5 Q344 419 352.5 401.5 Q361 384 361 367 Q361 338 345 323.5 Q329 309 308 309 Q289 309 277 316 Q265 323 260 329 L326 400 Q312 416 286.5 431 Q261 446 221 446 Q176 446 146 425 Q116 404 116 370 Q116 331 144.5 310.5 Q173 290 227 273 Q304 248 341 215.5 Q378 183 378 132 Q378 99 364.5 73 Q351 47 327.5 28.5 Q304 10 271.5 0.5 Q239 -9 200 -9 Q171 -9 143 -3 Q115 3 93.5 15 Q72 27 59 45 Q46 63 46 86 Q46 118 64 132.5 Q82 147 101 147 Q121 147 131.5 140 Q142 133 147 127 L79 54 Q101 32 132 22 Q163 12 192 12 Q216 12 237 18 Q258 24 274 34.5 Q290 45 299.5 60 Q309 75 309 94 Q309 127 282 149.5 Q255 172 186 195 Q123 216 87 246.5 Q51 277 51 330 Q51 363 63.5 388 Q76 413 98.5 430.5 Q121 448 150.5 457 Q180 466 215 466 Z " />
<glyph glyph-name="t" unicode="t" horiz-adv-x="323" d="M315 40 Q298 16 270.5 3.5 Q243 -9 212 -9 Q187 -9 164 -2 Q141 5 123 21.5 Q105 38 94.5 66 Q84 94 84 136 L84 441 L35 441 L35 457 L47 457 Q68 457 86 468 Q104 479 118 495.5 Q132 512 142 532 Q152 552 155 571 L159 594 L174 594 L174 457 L297 457 L297 441 L174 441 L174 111 Q174 64 195.5 43 Q217 22 244 22 Q279 22 306 49 L315 40 Z " />
<glyph glyph-name="u" unicode="u" horiz-adv-x="568" d="M454 -9 Q424 -9 399.5 8 Q375 25 371 67 Q366 58 356.5 45 Q347 32 331 20 Q315 8 293 -0.5 Q271 -9 241 -9 Q196 -9 166 4 Q136 17 118.5 39 Q101 61 94 91 Q87 121 87 154 L87 441 L30 441 L30 457 L177 457 L177 132 Q177 111 180 90 Q183 69 192 52 Q201 35 217.5 24.5 Q234 14 262 14 Q288 14 308.5 25 Q329 36 342.5 54 Q356 72 363 95.5 Q370 119 370 145 L370 441 L313 441 L313 457 L460 457 L460 68 Q460 45 471 33.5 Q482 22 496 22 Q514 22 527 38 L536 28 Q524 11 502 1 Q480 -9 454 -9 Z " />
<glyph glyph-name="v" unicode="v" horiz-adv-x="474" d="M128 441 L273 76 Q342 205 374.5 282 Q407 359 407 399 Q407 425 395.5 433 Q384 441 369 441 L284 441 Q282 451 282 457 Q282 485 303 503 Q324 521 355 521 Q387 521 412.5 497.5 Q438 474 438 423 Q438 394 420.5 344 Q403 294 376 235 Q349 176 317.5 114 Q286 52 259 0 L213 0 L32 441 L-25 441 L-25 457 L203 457 L203 441 L128 441 Z " />
<glyph glyph-name="w" unicode="w" horiz-adv-x="737" d="M253 441 L253 457 L482 457 L482 441 L406 441 L547 82 Q616 210 642.5 287 Q669 364 669 399 Q669 425 658 433 Q647 441 632 441 L546 441 Q545 446 544.5 450 Q544 454 544 458 Q544 486 564.5 503.5 Q585 521 616 521 Q632 521 647 515.5 Q662 510 674 498 Q686 486 693.5 467.5 Q701 449 701 423 Q701 393 684 342.5 Q667 292 642 233 Q617 174 587 113 Q557 52 532 0 L486 0 L378 271 L264 0 L215 0 L32 441 L-25 441 L-25 457 L194 457 L194 441 L128 441 L275 83 L367 298 L310 441 L253 441 Z " />
<glyph glyph-name="x" unicode="x" horiz-adv-x="504" d="M159 16 L159 0 L2 0 L2 16 L59 16 L209 219 L65 441 L8 441 L8 457 L234 457 L234 441 L168 441 L272 282 L390 441 L316 441 L316 457 L472 457 L472 441 L416 441 L284 264 L445 16 L502 16 L502 0 L276 0 L276 16 L342 16 L221 200 L84 16 L159 16 Z " />
<glyph glyph-name="y" unicode="y" horiz-adv-x="479" d="M27 441 L-30 441 L-30 457 L198 457 L198 441 L123 441 L273 113 L402 441 L330 441 L330 457 L481 457 L481 441 L424 441 L251 0 Q228 -59 209.5 -102.5 Q191 -146 172.5 -174.5 Q154 -203 133.5 -216.5 Q113 -230 86 -230 Q55 -230 37 -211.5 Q19 -193 19 -165 Q19 -161 19.5 -157.5 Q20 -154 21 -149 L116 -149 Q138 -149 152 -141.5 Q166 -134 178 -117 Q190 -100 201.5 -71 Q213 -42 229 0 L27 441 Z " />
<glyph glyph-name="z" unicode="z" horiz-adv-x="454" d="M192 441 Q161 441 137 439 Q113 437 95 429 L135 337 Q127 331 117.5 326.5 Q108 322 92 322 Q70 322 53.5 337.5 Q37 353 37 377 Q37 398 46.5 413.5 Q56 429 71.5 438.5 Q87 448 107.5 452.5 Q128 457 149 457 L422 457 L422 450 L125 16 L287 16 Q339 16 365 51 Q391 86 394 151 L410 151 L410 0 L26 0 L26 12 L319 441 L192 441 Z " />
<glyph glyph-name="braceleft" unicode="&#x7b;" horiz-adv-x="379" d="M50 290 L50 308 L64 308 Q98 308 120 328.5 Q142 349 142 394 Q142 422 138 450.5 Q134 479 129.5 508 Q125 537 121 566 Q117 595 117 625 Q117 683 147 715.5 Q177 748 239 748 Q276 748 324 736 L324 720 Q307 725 293.5 726.5 Q280 728 269 728 Q227 728 211.5 704.5 Q196 681 196 643 Q196 614 200 584.5 Q204 555 208.5 525.5 Q213 496 217 465 Q221 434 221 402 Q221 357 202 334.5 Q183 312 152 298 Q183 284 202 261.5 Q221 239 221 194 Q221 164 217 134 Q213 104 208.5 74 Q204 44 200 14 Q196 -16 196 -47 Q196 -85 211.5 -108.5 Q227 -132 269 -132 Q280 -132 293.5 -130.5 Q307 -129 324 -124 L324 -140 Q278 -153 239 -153 Q177 -153 147 -120 Q117 -87 117 -29 Q117 -1 121 28 Q125 57 129.5 85.5 Q134 114 138 143 Q142 172 142 201 Q142 246 120 268 Q98 290 64 290 L50 290 Z " />
<glyph glyph-name="bar" unicode="&#x7c;" horiz-adv-x="250" d="M100 795 L150 795 L150 -165 L100 -165 L100 795 Z " />
<glyph glyph-name="braceright" unicode="&#x7d;" horiz-adv-x="379" d="M315 290 Q281 290 259 268 Q237 246 237 201 Q237 172 241 143 Q245 114 249.5 85.5 Q254 57 258 28 Q262 -1 262 -29 Q262 -87 232 -120 Q202 -153 140 -153 Q101 -153 55 -140 L55 -124 Q72 -129 85.5 -130.5 Q99 -132 110 -132 Q152 -132 167.5 -108.5 Q183 -85 183 -47 Q183 -16 179 14 Q175 44 170.5 74 Q166 104 162 134 Q158 164 158 194 Q158 239 177 261.5 Q196 284 227 298 Q196 312 177 334.5 Q158 357 158 402 Q158 434 162 465 Q166 496 170.5 525.5 Q175 555 179 584.5 Q183 614 183 643 Q183 681 167.5 704.5 Q152 728 110 728 Q99 728 85.5 726.5 Q72 725 55 720 L55 736 Q103 748 140 748 Q202 748 232 715.5 Q262 683 262 625 Q262 595 258 566 Q254 537 249.5 508 Q245 479 241 450.5 Q237 422 237 394 Q237 349 259 328.5 Q281 308 315 308 L329 308 L329 290 L315 290 Z " />
<glyph glyph-name="asciitilde" unicode="&#x7e;" horiz-adv-x="690" d="M623 375 Q604 242 497 242 Q461 242 422 253.5 Q383 265 343.5 279.5 Q304 294 266 305.5 Q228 317 195 317 Q159 317 137 293 Q115 269 107 234 L66 234 Q85 367 192 367 Q228 367 267 355.5 Q306 344 345.5 329.5 Q385 315 423 303.5 Q461 292 494 292 Q530 292 552 316 Q574 340 582 375 L623 375 Z " />
<glyph glyph-name="uni00A0" unicode="&#xa0;" horiz-adv-x="190" d="" />
<glyph glyph-name="exclamdown" unicode="&#xa1;" horiz-adv-x="312" d="M172 277 Q172 214 179 147.5 Q186 81 194.5 20 Q203 -41 210 -93 Q217 -145 217 -179 Q217 -209 202.5 -227.5 Q188 -246 160 -246 Q132 -246 117.5 -227.5 Q103 -209 103 -179 Q103 -145 110 -93 Q117 -41 125.5 20 Q134 81 141 147.5 Q148 214 148 277 L172 277 Z M160 471 Q186 471 201.5 454.5 Q217 438 217 415 Q217 392 201.5 375.5 Q186 359 160 359 Q134 359 118.5 375.5 Q103 392 103 415 Q103 438 118.5 454.5 Q134 471 160 471 Z " />
<glyph glyph-name="cent" unicode="&#xa2;" horiz-adv-x="515" d="M272 -9 Q230 -7 191.5 12 Q153 31 123.5 65 Q94 99 76.5 147.5 Q59 196 59 258 Q59 313 73.5 360 Q88 407 115.5 443 Q143 479 182.5 502 Q222 525 272 530 L272 628 L298 628 L298 532 Q340 532 369.5 520.5 Q399 509 417 491 Q435 473 443 451 Q451 429 451 407 Q451 368 430 348 Q409 328 381 328 Q356 328 342.5 337 Q329 346 324 354 L415 454 Q410 462 402.5 472 Q395 482 382.5 491 Q370 500 353 506.5 Q336 513 314 513 Q310 513 306 513 Q302 513 298 512 L298 22 Q303 21 307 21 Q311 21 317 21 Q354 21 386 41.5 Q418 62 446 92 L455 78 Q427 43 389.5 18.5 Q352 -6 298 -9 L298 -110 L272 -110 L272 -9 Z M161 268 Q161 166 193 106.5 Q225 47 272 29 L272 507 Q220 490 190.5 429 Q161 368 161 268 Z " />
<glyph glyph-name="sterling" unicode="&#xa3;" horiz-adv-x="580" d="M69 315 L143 315 Q135 347 128 388 Q121 429 121 465 Q121 501 135 534 Q149 567 175 592.5 Q201 618 238.5 633 Q276 648 323 648 Q366 648 398.5 634 Q431 620 452.5 598 Q474 576 484.5 549.5 Q495 523 495 499 Q495 461 474.5 441.5 Q454 422 428 422 Q405 422 392 430.5 Q379 439 374 447 L462 555 Q442 590 406.5 610 Q371 630 333 630 Q275 630 240 592 Q205 554 205 491 Q205 447 215.5 406.5 Q226 366 234 315 L414 315 L414 290 L237 290 Q237 250 231.5 209.5 Q226 169 211.5 132 Q197 95 172.5 65.5 Q148 36 111 18 L312 18 Q356 18 385 30.5 Q414 43 432.5 67.5 Q451 92 462 129 Q473 166 482 216 L496 216 L496 0 L35 0 L35 18 L41 18 Q101 20 130.5 60 Q160 100 160 170 Q160 199 157 230.5 Q154 262 148 290 L69 290 L69 315 Z " />
<glyph glyph-name="currency" unicode="&#xa4;" horiz-adv-x="580" d="M504 313 Q504 278 492.5 246 Q481 214 460 185 L521 123 L487 90 L427 152 Q395 129 365.5 118 Q336 107 298 107 Q260 107 231 118 Q202 129 170 152 L110 90 L75 123 L137 185 Q116 214 104.5 246 Q93 278 93 313 Q93 349 104.5 380.5 Q116 412 137 441 L75 503 L110 536 L170 474 Q202 497 231 508 Q260 519 298 519 Q336 519 365.5 508 Q395 497 427 474 L487 536 L521 503 L460 441 Q481 412 492.5 380.5 Q504 349 504 313 Z M135 313 Q135 277 147.5 247 Q160 217 181.5 195 Q203 173 233 160.5 Q263 148 298 148 Q333 148 363.5 160.5 Q394 173 416 195 Q438 217 450.5 247 Q463 277 463 313 Q463 349 450.5 379.5 Q438 410 416 431.5 Q394 453 363.5 465.5 Q333 478 298 478 Q263 478 233 465.5 Q203 453 181.5 431.5 Q160 410 147.5 379.5 Q135 349 135 313 Z " />
<glyph glyph-name="yen" unicode="&#xa5;" horiz-adv-x="580" d="M181 625 L329 308 L494 625 L394 625 L394 643 L591 643 L591 625 L523 625 L375 341 L505 341 L505 316 L361 316 L341 277 L341 237 L505 237 L505 212 L341 212 L341 18 L430 18 L430 0 L154 0 L154 18 L242 18 L242 212 L87 212 L87 237 L242 237 L242 264 L217 316 L87 316 L87 341 L205 341 L68 625 L0 625 L0 643 L289 643 L289 625 L181 625 Z " />
<glyph glyph-name="brokenbar" unicode="&#xa6;" horiz-adv-x="250" d="M100 219 L150 219 L150 -164 L100 -164 L100 219 Z M100 795 L150 795 L150 412 L100 412 L100 795 Z " />
<glyph glyph-name="section" unicode="&#xa7;" horiz-adv-x="546" d="M430 202 Q430 218 417.5 238 Q405 258 385 278.5 Q365 299 339.5 320 Q314 341 288.5 360 Q263 379 239 395 Q215 411 198 423 Q157 415 136.5 387 Q116 359 116 330 Q116 300 139 270.5 Q162 241 196.5 213.5 Q231 186 271 160.5 Q311 135 346 113 Q389 122 409.5 146.5 Q430 171 430 202 Z M258 -156 Q281 -156 302 -150.5 Q323 -145 339.5 -134 Q356 -123 365.5 -105.5 Q375 -88 375 -65 Q375 -11 315 30 Q232 85 180.5 121.5 Q129 158 100 185 Q71 212 60.5 233.5 Q50 255 50 280 Q50 308 61 332.5 Q72 357 90 376 Q108 395 132 409.5 Q156 424 183 433 Q138 465 116 493.5 Q94 522 94 563 Q94 595 108.5 622 Q123 649 149.5 668 Q176 687 212.5 697.5 Q249 708 293 708 Q339 708 372 697 Q405 686 426 669 Q447 652 457 630.5 Q467 609 467 588 Q467 568 460 551.5 Q453 535 442 522.5 Q431 510 417 503 Q403 496 388 496 Q362 496 348 505 Q334 514 328 522 L428 632 Q403 661 372.5 675.5 Q342 690 294 690 Q235 690 204 663 Q173 636 173 599 Q173 579 180 563.5 Q187 548 204.5 531.5 Q222 515 252 494 Q282 473 329 442 Q365 418 396 396.5 Q427 375 449 353 Q471 331 483.5 307.5 Q496 284 496 257 Q496 225 484.5 200 Q473 175 454.5 156 Q436 137 411.5 123.5 Q387 110 362 101 Q405 72 432 40.5 Q459 9 459 -26 Q459 -56 445 -83 Q431 -110 404.5 -130 Q378 -150 341 -162 Q304 -174 259 -174 Q213 -174 178.5 -163 Q144 -152 121 -135 Q98 -118 86.5 -96.5 Q75 -75 75 -54 Q75 -35 82 -18 Q89 -1 100 11.5 Q111 24 125 31 Q139 38 154 38 Q180 38 194 29 Q208 20 214 12 L114 -98 Q164 -156 258 -156 Z " />
<glyph glyph-name="dieresis" unicode="&#xa8;" horiz-adv-x="370" d="M339 594 Q339 571 323.5 555.5 Q308 540 285 540 Q262 540 246.5 555.5 Q231 571 231 594 Q231 617 246.5 632.5 Q262 648 285 648 Q308 648 323.5 632.5 Q339 617 339 594 Z M138 594 Q138 571 122.5 555.5 Q107 540 84 540 Q61 540 45.5 555.5 Q30 571 30 594 Q30 617 45.5 632.5 Q61 648 84 648 Q107 648 122.5 632.5 Q138 617 138 594 Z " />
<glyph glyph-name="copyright" unicode="&#xa9;" horiz-adv-x="781" d="M535 209 Q511 180 479.5 163.5 Q448 147 403 147 Q355 147 319.5 163.5 Q284 180 260.5 208 Q237 236 225 272 Q213 308 213 347 Q213 384 225.5 419 Q238 454 262.5 482 Q287 510 324 527 Q361 544 411 544 Q442 544 464 536 Q486 528 500.5 515.5 Q515 503 522 487.5 Q529 472 529 458 Q529 437 516 425.5 Q503 414 486 414 Q472 414 463.5 419.5 Q455 425 451 430 L505 490 Q491 509 469 520 Q447 531 415 531 Q379 531 354 517 Q329 503 314 478.5 Q299 454 292.5 422 Q286 390 286 354 Q286 305 296 269.5 Q306 234 323.5 211.5 Q341 189 363.5 178 Q386 167 411 167 Q446 167 473 178.5 Q500 190 525 219 L535 209 Z M50 349 Q50 419 77 481.5 Q104 544 150 590 Q196 636 258 663 Q320 690 390 690 Q460 690 522.5 663 Q585 636 631 590 Q677 544 704 481.5 Q731 419 731 349 Q731 279 704 217 Q677 155 631 109 Q585 63 522.5 36 Q460 9 390 9 Q320 9 258 36 Q196 63 150 109 Q104 155 77 217 Q50 279 50 349 Z M97 349 Q97 288 120 234 Q143 180 182.5 139.5 Q222 99 275.5 75.5 Q329 52 390 52 Q451 52 505 75.5 Q559 99 599 139.5 Q639 180 662 234 Q685 288 685 349 Q685 410 662 464.5 Q639 519 599 559.5 Q559 600 505 624 Q451 648 390 648 Q329 648 275.5 624 Q222 600 182.5 559.5 Q143 519 120 464.5 Q97 410 97 349 Z " />
<glyph glyph-name="ordfeminine" unicode="&#xaa;" horiz-adv-x="330" d="M262 388 Q245 388 230 394.5 Q215 401 208 418 Q197 407 177 397.5 Q157 388 122 388 Q71 388 48 411.5 Q25 435 25 471 Q25 500 41.5 518.5 Q58 537 81.5 547 Q105 557 131.5 560.5 Q158 564 178 564 Q187 564 192.5 563.5 Q198 563 203 563 L203 635 Q203 665 184 680 Q165 695 141 695 Q124 695 107.5 687.5 Q91 680 80 671 Q89 656 99.5 639 Q110 622 118 607 Q116 600 105.5 596 Q95 592 83 592 Q66 592 53 601.5 Q40 611 40 634 Q40 663 69.5 685.5 Q99 708 150 708 Q187 708 210.5 699.5 Q234 691 247 677 Q260 663 264.5 646 Q269 629 269 611 L269 441 Q269 426 275.5 418.5 Q282 411 290 411 Q301 411 311 423 L320 414 Q312 402 296 395 Q280 388 262 388 Z M203 551 Q183 550 164 547.5 Q145 545 129.5 537.5 Q114 530 104.5 515 Q95 500 95 475 Q95 456 100 443.5 Q105 431 112.5 423.5 Q120 416 129.5 413 Q139 410 148 410 Q172 410 185 419 Q198 428 203 436 L203 551 Z " />
<glyph glyph-name="guillemotleft" unicode="&#xab;" horiz-adv-x="549" d="M253 79 L55 254 L255 428 L284 418 L158 254 L284 92 L253 79 Z M463 79 L265 254 L465 428 L494 418 L368 254 L494 92 L463 79 Z " />
<glyph glyph-name="logicalnot" unicode="&#xac;" horiz-adv-x="690" d="M555 146 L555 332 L80 332 L80 381 L609 381 L609 146 L555 146 Z " />
<glyph glyph-name="uni00AD" unicode="&#xad;" horiz-adv-x="389" d="M60 277 L329 277 L329 229 L60 229 L60 277 Z " />
<glyph glyph-name="registered" unicode="&#xae;" horiz-adv-x="456" d="M304 564 Q304 546 291 532 Q278 518 251 513 Q270 510 279 496 Q288 482 293 453 L294 448 Q297 432 301.5 426 Q306 420 313 420 Q318 420 324 429 L329 424 Q325 416 319 410 Q313 404 300 404 Q288 404 276 412.5 Q264 421 258 451 L256 461 Q251 484 246.5 495 Q242 506 223 506 L196 506 L196 415 L223 415 L223 407 L138 407 L138 415 L162 415 L162 605 L138 605 L138 616 L231 616 Q274 616 289 600.5 Q304 585 304 564 Z M196 605 L196 516 L217 516 Q264 516 264 564 Q264 589 253 597 Q242 605 217 605 L196 605 Z M228 708 Q269 708 305 692.5 Q341 677 368 650 Q395 623 410.5 586.5 Q426 550 426 508 Q426 466 410.5 430 Q395 394 368 367 Q341 340 305 324.5 Q269 309 228 309 Q187 309 151 324.5 Q115 340 88 367 Q61 394 45.5 430 Q30 466 30 508 Q30 550 45.5 586.5 Q61 623 88 650 Q115 677 151 692.5 Q187 708 228 708 Z M228 684 Q193 684 162 669.5 Q131 655 108.5 631 Q86 607 73 575 Q60 543 60 508 Q60 473 73 441 Q86 409 108.5 385 Q131 361 162 347 Q193 333 228 333 Q263 333 293.5 347 Q324 361 347 385 Q370 409 383 441 Q396 473 396 508 Q396 543 383 575 Q370 607 347 631 Q324 655 293.5 669.5 Q263 684 228 684 Z " />
<glyph glyph-name="macron" unicode="&#xaf;" horiz-adv-x="370" d="M46 546 L46 600 L335 600 L335 546 L46 546 Z " />
<glyph glyph-name="degree" unicode="&#xb0;" horiz-adv-x="366" d="M89 570 Q89 549 96.5 530 Q104 511 117.5 497 Q131 483 149 474.5 Q167 466 188 466 Q209 466 227 474.5 Q245 483 258.5 497 Q272 511 279.5 530 Q287 549 287 570 Q287 591 279.5 609.5 Q272 628 258.5 642 Q245 656 227 664 Q209 672 188 672 Q167 672 149 664 Q131 656 117.5 642 Q104 628 96.5 609.5 Q89 591 89 570 Z M50 570 Q50 598 61 623.5 Q72 649 90.5 667.5 Q109 686 134 697 Q159 708 188 708 Q216 708 241.5 697 Q267 686 285.5 667.5 Q304 649 315 623.5 Q326 598 326 570 Q326 541 315 516 Q304 491 285.5 472.5 Q267 454 241.5 443 Q216 432 188 432 Q159 432 134 443 Q109 454 90.5 472.5 Q72 491 61 516 Q50 541 50 570 Z " />
<glyph glyph-name="plusminus" unicode="&#xb1;" horiz-adv-x="690" d="M374 340 L374 169 L315 169 L315 340 L79 340 L79 390 L315 390 L315 560 L374 560 L374 390 L610 390 L610 340 L374 340 Z M79 70 L79 118 L610 118 L610 70 L79 70 Z " />
<glyph glyph-name="twosuperior" unicode="&#xb2;" horiz-adv-x="362" d="M30 304 Q43 327 59 347 Q75 367 96 387 Q126 416 151 441.5 Q176 467 194 492 Q212 517 221.5 544.5 Q231 572 231 606 Q231 651 209.5 671 Q188 691 162 691 Q133 691 113 678 Q93 665 82 645 Q95 630 109.5 613.5 Q124 597 135 582 Q132 577 121.5 571 Q111 565 92 565 Q72 565 58 577.5 Q44 590 44 614 Q44 629 52 646 Q60 663 76.5 676.5 Q93 690 118 699 Q143 708 176 708 Q244 708 278.5 680 Q313 652 313 604 Q313 578 304 557 Q295 536 279.5 517 Q264 498 244 480.5 Q224 463 202 445 Q180 428 150.5 407 Q121 386 101 363 Q107 365 116 367 Q125 369 138 369 Q152 369 171 367 Q190 365 204 363 Q215 361 232 359.5 Q249 358 260 358 Q278 358 286.5 369.5 Q295 381 303 417 L317 417 L317 302 Q306 299 294 297 Q282 295 265 295 Q247 295 227.5 298 Q208 301 188 306 Q167 311 143.5 316 Q120 321 101 321 Q87 321 71 317.5 Q55 314 40 295 L30 304 Z " />
<glyph glyph-name="threesuperior" unicode="&#xb3;" horiz-adv-x="374" d="M143 592 Q129 574 104 574 Q84 574 70 585.5 Q56 597 56 619 Q56 634 63.5 649.5 Q71 665 86.5 678 Q102 691 126.5 699.5 Q151 708 186 708 Q254 708 286 680 Q318 652 318 616 Q318 576 292 550.5 Q266 525 228 516 Q329 495 329 412 Q329 362 286.5 328.5 Q244 295 166 295 Q135 295 111.5 303 Q88 311 72 324 Q56 337 48 352.5 Q40 368 40 382 Q40 408 54.5 420 Q69 432 89 432 Q108 432 118 426 Q128 420 132 415 L78 354 Q92 336 114 325.5 Q136 315 161 315 Q182 315 198 323 Q214 331 224 344.5 Q234 358 239 375 Q244 392 244 410 Q244 428 239.5 445 Q235 462 225.5 475.5 Q216 489 200.5 497.5 Q185 506 164 506 L126 506 L126 525 L163 525 Q183 525 196.5 532.5 Q210 540 218.5 552 Q227 564 231 579 Q235 594 235 609 Q235 654 215 672.5 Q195 691 169 691 Q147 691 126.5 681 Q106 671 92 651 L143 592 Z " />
<glyph glyph-name="acute" unicode="&#xb4;" horiz-adv-x="370" d="M215 664 Q226 675 239 682.5 Q252 690 266 690 Q280 690 291.5 680.5 Q303 671 303 655 Q303 639 292.5 630.5 Q282 622 261 609 L102 516 L76 516 L215 664 Z " />
<glyph glyph-name="mu" unicode="&#xb5;" horiz-adv-x="569" d="M467 68 Q467 45 478 33.5 Q489 22 503 22 Q520 22 533 38 L542 28 Q530 11 508 1 Q486 -9 460 -9 Q431 -9 406.5 8 Q382 25 377 67 Q373 58 363 45 Q353 32 337.5 20 Q322 8 299.5 -0.5 Q277 -9 247 -9 Q228 -9 212.5 -6.5 Q197 -4 183 0 L183 -212 L36 -212 L36 -195 L93 -195 L93 441 L36 441 L36 457 L183 457 L183 132 Q183 111 186 90 Q189 69 198 52 Q207 35 224 24.5 Q241 14 269 14 Q295 14 315.5 25 Q336 36 349.5 54 Q363 72 370 95.5 Q377 119 377 145 L377 441 L320 441 L320 457 L467 457 L467 68 Z " />
<glyph glyph-name="paragraph" unicode="&#xb6;" horiz-adv-x="568" d="M55 495 Q55 595 110.5 646 Q166 697 292 697 L488 697 L488 -174 L422 -174 L422 665 L346 665 L346 -174 L328 -174 L328 291 L276 291 Q220 291 178.5 306.5 Q137 322 109.5 349 Q82 376 68.5 413.5 Q55 451 55 495 Z " />
<glyph glyph-name="periodcentered" unicode="&#xb7;" horiz-adv-x="280" d="M140 201 Q114 201 98.5 217.5 Q83 234 83 257 Q83 280 98.5 296.5 Q114 313 140 313 Q166 313 181.5 296.5 Q197 280 197 257 Q197 234 181.5 217.5 Q166 201 140 201 Z " />
<glyph glyph-name="cedilla" unicode="&#xb8;" horiz-adv-x="370" d="M171 7 L196 7 L149 -80 Q154 -78 164 -76.5 Q174 -75 188 -75 Q224 -75 248.5 -94.5 Q273 -114 273 -144 Q273 -166 264 -182 Q255 -198 240 -208.5 Q225 -219 206 -224.5 Q187 -230 166 -230 Q133 -230 112 -216.5 Q91 -203 91 -183 Q91 -166 100.5 -157.5 Q110 -149 123 -149 Q134 -149 141 -153 Q148 -157 151 -162 L111 -199 Q114 -204 123.5 -209.5 Q133 -215 147 -215 Q168 -215 186.5 -199.5 Q205 -184 205 -148 Q205 -122 191.5 -107.5 Q178 -93 155 -93 Q139 -93 123 -100 L115 -95 L171 7 Z " />
<glyph glyph-name="onesuperior" unicode="&#xb9;" horiz-adv-x="298" d="M35 598 Q53 607 73 618.5 Q93 630 112.5 643.5 Q132 657 149 671 Q166 685 179 699 L211 699 L211 317 L266 317 L266 301 L54 301 L54 317 L131 317 L131 630 Q114 618 91 605.5 Q68 593 44 581 L35 598 Z " />
<glyph glyph-name="ordmasculine" unicode="&#xba;" horiz-adv-x="366" d="M183 708 Q218 708 246 696 Q274 684 293.5 662.5 Q313 641 323.5 612 Q334 583 334 550 Q334 517 323.5 487.5 Q313 458 293.5 436 Q274 414 246 401 Q218 388 183 388 Q148 388 120 401 Q92 414 72.5 436 Q53 458 42.5 487.5 Q32 517 32 550 Q32 583 42.5 612 Q53 641 72.5 662.5 Q92 684 120 696 Q148 708 183 708 Z M183 401 Q208 401 223.5 412.5 Q239 424 248 444.5 Q257 465 260 492 Q263 519 263 550 Q263 620 242 657.5 Q221 695 183 695 Q145 695 123.5 657.5 Q102 620 102 550 Q102 519 105 492 Q108 465 117 444.5 Q126 424 142 412.5 Q158 401 183 401 Z " />
<glyph glyph-name="guillemotright" unicode="&#xbb;" horiz-adv-x="549" d="M55 92 L181 254 L55 418 L84 428 L284 254 L86 79 L55 92 Z M265 92 L391 254 L265 418 L294 428 L494 254 L296 79 L265 92 Z " />
<glyph glyph-name="onequarter" unicode="&#xbc;" horiz-adv-x="815" d="M35 598 Q53 607 73 618.5 Q93 630 112.5 643.5 Q132 657 149 671 Q166 685 179 699 L211 699 L211 317 L266 317 L266 301 L54 301 L54 317 L131 317 L131 630 Q114 618 91 605.5 Q68 593 44 581 L35 598 Z M159 -9 L659 708 L704 708 L204 -9 L159 -9 Z M731 101 L795 101 L795 85 L731 85 L731 16 L783 16 L783 0 L601 0 L601 16 L655 16 L655 85 L493 85 L493 95 L690 398 L731 398 L731 101 Z M655 101 L655 306 L524 101 L655 101 Z " />
<glyph glyph-name="onehalf" unicode="&#xbd;" horiz-adv-x="845" d="M35 598 Q53 607 73 618.5 Q93 630 112.5 643.5 Q132 657 149 671 Q166 685 179 699 L211 699 L211 317 L266 317 L266 301 L54 301 L54 317 L131 317 L131 630 Q114 618 91 605.5 Q68 593 44 581 L35 598 Z M138 -9 L638 708 L683 708 L183 -9 L138 -9 Z M513 3 Q526 26 542 46 Q558 66 579 86 Q609 115 634 140.5 Q659 166 677 191 Q695 216 704.5 243.5 Q714 271 714 305 Q714 350 692.5 370 Q671 390 645 390 Q616 390 596 377 Q576 364 565 344 Q578 329 592.5 312.5 Q607 296 618 281 Q615 276 604.5 270 Q594 264 575 264 Q555 264 541 276.5 Q527 289 527 313 Q527 328 535 345 Q543 362 559.5 375.5 Q576 389 601 398 Q626 407 659 407 Q727 407 761.5 379 Q796 351 796 303 Q796 277 787 256 Q778 235 762.5 216 Q747 197 727 179.5 Q707 162 685 144 Q663 127 633.5 106 Q604 85 584 62 Q590 64 599 66 Q608 68 621 68 Q635 68 654 66 Q673 64 687 62 Q698 60 715 58.5 Q732 57 743 57 Q761 57 769.5 68.5 Q778 80 786 116 L800 116 L800 1 Q789 -2 777 -4 Q765 -6 748 -6 Q730 -6 710.5 -3 Q691 0 671 5 Q650 10 626.5 15 Q603 20 584 20 Q570 20 554 16.5 Q538 13 523 -6 L513 3 Z " />
<glyph glyph-name="threequarters" unicode="&#xbe;" horiz-adv-x="891" d="M143 592 Q129 574 104 574 Q84 574 70 585.5 Q56 597 56 619 Q56 634 63.5 649.5 Q71 665 86.5 678 Q102 691 126.5 699.5 Q151 708 186 708 Q254 708 286 680 Q318 652 318 616 Q318 576 292 550.5 Q266 525 228 516 Q329 495 329 412 Q329 362 286.5 328.5 Q244 295 166 295 Q135 295 111.5 303 Q88 311 72 324 Q56 337 48 352.5 Q40 368 40 382 Q40 408 54.5 420 Q69 432 89 432 Q108 432 118 426 Q128 420 132 415 L78 354 Q92 336 114 325.5 Q136 315 161 315 Q182 315 198 323 Q214 331 224 344.5 Q234 358 239 375 Q244 392 244 410 Q244 428 239.5 445 Q235 462 225.5 475.5 Q216 489 200.5 497.5 Q185 506 164 506 L126 506 L126 525 L163 525 Q183 525 196.5 532.5 Q210 540 218.5 552 Q227 564 231 579 Q235 594 235 609 Q235 654 215 672.5 Q195 691 169 691 Q147 691 126.5 681 Q106 671 92 651 L143 592 Z M215 -9 L715 708 L760 708 L260 -9 L215 -9 Z M807 101 L871 101 L871 85 L807 85 L807 16 L859 16 L859 0 L677 0 L677 16 L731 16 L731 85 L569 85 L569 95 L766 398 L807 398 L807 101 Z M731 101 L731 306 L600 101 L731 101 Z " />
<glyph glyph-name="questiondown" unicode="&#xbf;" horiz-adv-x="492" d="M367 -30 Q373 -22 387 -13 Q401 -4 427 -4 Q456 -4 479 -24 Q502 -44 502 -83 Q502 -110 490.5 -138.5 Q479 -167 454 -191 Q429 -215 391 -230.5 Q353 -246 299 -246 Q257 -246 219.5 -234.5 Q182 -223 154.5 -201.5 Q127 -180 111 -150 Q95 -120 95 -83 Q95 -52 104.5 -26 Q114 0 134 24 Q154 48 184.5 73 Q215 98 258 128 Q276 141 286.5 152.5 Q297 164 302 177.5 Q307 191 308.5 208 Q310 225 310 250 L310 277 L334 277 L334 203 Q334 175 324.5 154.5 Q315 134 301 116.5 Q287 99 270 82 Q253 65 239 42.5 Q225 20 215.5 -9.5 Q206 -39 206 -81 Q206 -120 216.5 -147.5 Q227 -175 244.5 -192 Q262 -209 284 -217 Q306 -225 330 -225 Q374 -225 413 -202 Q452 -179 466 -140 L367 -30 Z M322 471 Q348 471 363.5 454.5 Q379 438 379 415 Q379 392 363.5 375.5 Q348 359 322 359 Q296 359 280.5 375.5 Q265 392 265 415 Q265 438 280.5 454.5 Q296 471 322 471 Z " />
<glyph glyph-name="Agrave" unicode="&#xc0;" horiz-adv-x="686" d="M402 18 L510 18 L431 237 L179 237 L95 18 L203 18 L203 0 L0 0 L0 18 L68 18 L332 708 L370 708 L618 18 L686 18 L686 0 L402 0 L402 18 Z M309 578 L187 260 L423 260 L309 578 Z M457 756 L431 756 L272 849 Q251 862 240.5 870.5 Q230 879 230 895 Q230 911 241.5 920.5 Q253 930 267 930 Q281 930 294 922.5 Q307 915 318 904 L457 756 Z " />
<glyph glyph-name="Aacute" unicode="&#xc1;" horiz-adv-x="686" d="M402 18 L510 18 L431 237 L179 237 L95 18 L203 18 L203 0 L0 0 L0 18 L68 18 L332 708 L370 708 L618 18 L686 18 L686 0 L402 0 L402 18 Z M309 578 L187 260 L423 260 L309 578 Z M403 904 Q414 915 427 922.5 Q440 930 454 930 Q468 930 479.5 920.5 Q491 911 491 895 Q491 879 480.5 870.5 Q470 862 449 849 L290 756 L264 756 L403 904 Z " />
<glyph glyph-name="Acircumflex" unicode="&#xc2;" horiz-adv-x="686" d="M402 18 L510 18 L431 237 L179 237 L95 18 L203 18 L203 0 L0 0 L0 18 L68 18 L332 708 L370 708 L618 18 L686 18 L686 0 L402 0 L402 18 Z M309 578 L187 260 L423 260 L309 578 Z M488 749 L354 845 L216 751 L198 763 L338 923 L371 923 L507 763 L488 749 Z " />
<glyph glyph-name="Atilde" unicode="&#xc3;" horiz-adv-x="686" d="M402 18 L510 18 L431 237 L179 237 L95 18 L203 18 L203 0 L0 0 L0 18 L68 18 L332 708 L370 708 L618 18 L686 18 L686 0 L402 0 L402 18 Z M309 578 L187 260 L423 260 L309 578 Z M528 883 Q521 828 493 800.5 Q465 773 424 773 Q401 773 381.5 780.5 Q362 788 344 796.5 Q326 805 308.5 812.5 Q291 820 274 820 Q255 820 237 809 Q219 798 210 769 L195 769 Q202 824 230 851.5 Q258 879 299 879 Q321 879 341 871.5 Q361 864 379 855.5 Q397 847 414.5 839.5 Q432 832 449 832 Q468 832 486 843 Q504 854 513 883 L528 883 Z " />
<glyph glyph-name="Adieresis" unicode="&#xc4;" horiz-adv-x="686" d="M402 18 L510 18 L431 237 L179 237 L95 18 L203 18 L203 0 L0 0 L0 18 L68 18 L332 708 L370 708 L618 18 L686 18 L686 0 L402 0 L402 18 Z M309 578 L187 260 L423 260 L309 578 Z M507 839 Q507 816 491.5 800.5 Q476 785 453 785 Q430 785 414.5 800.5 Q399 816 399 839 Q399 862 414.5 877.5 Q430 893 453 893 Q476 893 491.5 877.5 Q507 862 507 839 Z M306 839 Q306 816 290.5 800.5 Q275 785 252 785 Q229 785 213.5 800.5 Q198 816 198 839 Q198 862 213.5 877.5 Q229 893 252 893 Q275 893 290.5 877.5 Q306 862 306 839 Z " />
<glyph glyph-name="Aring" unicode="&#xc5;" horiz-adv-x="686" d="M402 18 L510 18 L431 237 L179 237 L95 18 L203 18 L203 0 L0 0 L0 18 L68 18 L332 708 L370 708 L618 18 L686 18 L686 0 L402 0 L402 18 Z M309 578 L187 260 L423 260 L309 578 Z M458 841 Q458 796 428 766 Q398 736 353 736 Q308 736 278 766 Q248 796 248 841 Q248 886 278 916 Q308 946 353 946 Q398 946 428 916 Q458 886 458 841 Z M407 841 Q407 871 394 897 Q381 923 353 923 Q325 923 312 897 Q299 871 299 841 Q299 811 312 785.5 Q325 760 353 760 Q381 760 394 785.5 Q407 811 407 841 Z " />
<glyph glyph-name="AE" unicode="&#xc6;" horiz-adv-x="893" d="M41 18 L381 679 L267 679 L267 697 L675 697 Q716 697 745.5 687.5 Q775 678 794 662.5 Q813 647 822 627 Q831 607 831 586 Q831 545 808 525 Q785 505 748 505 Q728 505 715.5 511.5 Q703 518 696 525 L781 638 Q762 661 738.5 670 Q715 679 675 679 L505 679 L505 368 L663 368 L663 350 L505 350 L505 18 L617 18 Q660 18 689.5 27.5 Q719 37 739 56.5 Q759 76 771 104.5 Q783 133 791 172 L800 216 L822 216 L822 0 L317 0 L317 18 L405 18 L405 230 L178 230 L69 18 L174 18 L174 0 L-10 0 L-10 18 L41 18 Z M405 253 L405 676 L190 253 L405 253 Z " />
<glyph glyph-name="Ccedilla" unicode="&#xc7;" horiz-adv-x="674" d="M386 -9 Q303 -7 241.5 23.5 Q180 54 139 103.5 Q98 153 77.5 217 Q57 281 57 351 Q57 418 79.5 482 Q102 546 146.5 596 Q191 646 258 677 Q325 708 414 708 Q470 708 510.5 693.5 Q551 679 577 656.5 Q603 634 615 607 Q627 580 627 555 Q627 516 604 496 Q581 476 552 476 Q526 476 512 485 Q498 494 492 502 L590 612 Q564 649 524 669.5 Q484 690 421 690 Q350 690 302 664 Q254 638 224.5 593.5 Q195 549 182 489.5 Q169 430 169 363 Q169 272 189.5 206.5 Q210 141 244 98.5 Q278 56 322.5 36 Q367 16 415 16 Q480 16 530.5 38 Q581 60 625 110 L639 97 Q597 49 541.5 21 Q486 -7 411 -9 L373 -80 Q378 -78 388 -76.5 Q398 -75 412 -75 Q448 -75 472.5 -94.5 Q497 -114 497 -144 Q497 -166 488 -182 Q479 -198 464 -208.5 Q449 -219 430 -224.5 Q411 -230 390 -230 Q357 -230 336 -216.5 Q315 -203 315 -183 Q315 -166 324.5 -157.5 Q334 -149 347 -149 Q358 -149 365 -153 Q372 -157 375 -162 L335 -199 Q338 -204 347.5 -209.5 Q357 -215 371 -215 Q392 -215 410.5 -199.5 Q429 -184 429 -148 Q429 -122 415.5 -107.5 Q402 -93 379 -93 Q363 -93 347 -100 L339 -95 L386 -9 Z " />
<glyph glyph-name="Egrave" unicode="&#xc8;" horiz-adv-x="648" d="M430 697 Q471 697 500.5 687.5 Q530 678 549 662.5 Q568 647 577 627 Q586 607 586 586 Q586 545 563 525 Q540 505 503 505 Q483 505 470.5 511.5 Q458 518 451 525 L536 638 Q517 661 493.5 670 Q470 679 430 679 L235 679 L235 368 L418 368 L418 350 L235 350 L235 18 L372 18 Q416 18 445.5 28 Q475 38 494.5 58.5 Q514 79 526 109 Q538 139 547 180 L555 216 L577 216 L577 0 L47 0 L47 18 L135 18 L135 679 L47 679 L47 697 L430 697 Z M440 756 L414 756 L255 849 Q234 862 223.5 870.5 Q213 879 213 895 Q213 911 224.5 920.5 Q236 930 250 930 Q264 930 277 922.5 Q290 915 301 904 L440 756 Z " />
<glyph glyph-name="Eacute" unicode="&#xc9;" horiz-adv-x="648" d="M430 697 Q471 697 500.5 687.5 Q530 678 549 662.5 Q568 647 577 627 Q586 607 586 586 Q586 545 563 525 Q540 505 503 505 Q483 505 470.5 511.5 Q458 518 451 525 L536 638 Q517 661 493.5 670 Q470 679 430 679 L235 679 L235 368 L418 368 L418 350 L235 350 L235 18 L372 18 Q416 18 445.5 28 Q475 38 494.5 58.5 Q514 79 526 109 Q538 139 547 180 L555 216 L577 216 L577 0 L47 0 L47 18 L135 18 L135 679 L47 679 L47 697 L430 697 Z M392 904 Q403 915 416 922.5 Q429 930 443 930 Q457 930 468.5 920.5 Q480 911 480 895 Q480 879 469.5 870.5 Q459 862 438 849 L279 756 L253 756 L392 904 Z " />
<glyph glyph-name="Ecircumflex" unicode="&#xca;" horiz-adv-x="648" d="M430 697 Q471 697 500.5 687.5 Q530 678 549 662.5 Q568 647 577 627 Q586 607 586 586 Q586 545 563 525 Q540 505 503 505 Q483 505 470.5 511.5 Q458 518 451 525 L536 638 Q517 661 493.5 670 Q470 679 430 679 L235 679 L235 368 L418 368 L418 350 L235 350 L235 18 L372 18 Q416 18 445.5 28 Q475 38 494.5 58.5 Q514 79 526 109 Q538 139 547 180 L555 216 L577 216 L577 0 L47 0 L47 18 L135 18 L135 679 L47 679 L47 697 L430 697 Z M477 749 L343 845 L205 751 L187 763 L327 923 L360 923 L496 763 L477 749 Z " />
<glyph glyph-name="Edieresis" unicode="&#xcb;" horiz-adv-x="648" d="M430 697 Q471 697 500.5 687.5 Q530 678 549 662.5 Q568 647 577 627 Q586 607 586 586 Q586 545 563 525 Q540 505 503 505 Q483 505 470.5 511.5 Q458 518 451 525 L536 638 Q517 661 493.5 670 Q470 679 430 679 L235 679 L235 368 L418 368 L418 350 L235 350 L235 18 L372 18 Q416 18 445.5 28 Q475 38 494.5 58.5 Q514 79 526 109 Q538 139 547 180 L555 216 L577 216 L577 0 L47 0 L47 18 L135 18 L135 679 L47 679 L47 697 L430 697 Z M492 839 Q492 816 476.5 800.5 Q461 785 438 785 Q415 785 399.5 800.5 Q384 816 384 839 Q384 862 399.5 877.5 Q415 893 438 893 Q461 893 476.5 877.5 Q492 862 492 839 Z M291 839 Q291 816 275.5 800.5 Q260 785 237 785 Q214 785 198.5 800.5 Q183 816 183 839 Q183 862 198.5 877.5 Q214 893 237 893 Q260 893 275.5 877.5 Q291 862 291 839 Z " />
<glyph glyph-name="Igrave" unicode="&#xcc;" horiz-adv-x="370" d="M47 0 L47 18 L135 18 L135 679 L47 679 L47 697 L323 697 L323 679 L235 679 L235 18 L323 18 L323 0 L47 0 Z M303 756 L277 756 L118 849 Q97 862 86.5 870.5 Q76 879 76 895 Q76 911 87.5 920.5 Q99 930 113 930 Q127 930 140 922.5 Q153 915 164 904 L303 756 Z " />
<glyph glyph-name="Iacute" unicode="&#xcd;" horiz-adv-x="370" d="M47 0 L47 18 L135 18 L135 679 L47 679 L47 697 L323 697 L323 679 L235 679 L235 18 L323 18 L323 0 L47 0 Z M245 904 Q256 915 269 922.5 Q282 930 296 930 Q310 930 321.5 920.5 Q333 911 333 895 Q333 879 322.5 870.5 Q312 862 291 849 L132 756 L106 756 L245 904 Z " />
<glyph glyph-name="Icircumflex" unicode="&#xce;" horiz-adv-x="370" d="M47 0 L47 18 L135 18 L135 679 L47 679 L47 697 L323 697 L323 679 L235 679 L235 18 L323 18 L323 0 L47 0 Z M320 749 L186 845 L48 751 L30 763 L170 923 L203 923 L339 763 L320 749 Z " />
<glyph glyph-name="Idieresis" unicode="&#xcf;" horiz-adv-x="370" d="M47 0 L47 18 L135 18 L135 679 L47 679 L47 697 L323 697 L323 679 L235 679 L235 18 L323 18 L323 0 L47 0 Z M330 839 Q330 816 314.5 800.5 Q299 785 276 785 Q253 785 237.5 800.5 Q222 816 222 839 Q222 862 237.5 877.5 Q253 893 276 893 Q299 893 314.5 877.5 Q330 862 330 839 Z M149 839 Q149 816 133.5 800.5 Q118 785 95 785 Q72 785 56.5 800.5 Q41 816 41 839 Q41 862 56.5 877.5 Q72 893 95 893 Q118 893 133.5 877.5 Q149 862 149 839 Z " />
<glyph glyph-name="Eth" unicode="&#xd0;" horiz-adv-x="760" d="M135 346 L47 346 L47 372 L135 372 L135 679 L47 679 L47 697 L324 697 Q419 697 490.5 669 Q562 641 610 593.5 Q658 546 682 483.5 Q706 421 706 351 Q706 281 682 217.5 Q658 154 610 105.5 Q562 57 490.5 28.5 Q419 0 324 0 L47 0 L47 18 L135 18 L135 346 Z M235 372 L428 372 L428 346 L235 346 L235 18 L315 18 Q463 18 528.5 99.5 Q594 181 594 351 Q594 436 578 497.5 Q562 559 528.5 599.5 Q495 640 442 659.5 Q389 679 315 679 L235 679 L235 372 Z " />
<glyph glyph-name="Ntilde" unicode="&#xd1;" horiz-adv-x="776" d="M625 679 L537 679 L537 697 L738 697 L738 679 L650 679 L650 -9 L624 -9 L160 673 L160 18 L248 18 L248 0 L47 0 L47 18 L135 18 L135 679 L47 679 L47 697 L266 697 L625 161 L625 679 Z M588 892 Q581 837 553 809.5 Q525 782 484 782 Q461 782 441.5 789.5 Q422 797 404 805.5 Q386 814 368.5 821.5 Q351 829 334 829 Q315 829 297 818 Q279 807 270 778 L255 778 Q262 833 290 860.5 Q318 888 359 888 Q381 888 401 880.5 Q421 873 439 864.5 Q457 856 474.5 848.5 Q492 841 509 841 Q528 841 546 852 Q564 863 573 892 L588 892 Z " />
<glyph glyph-name="Ograve" unicode="&#xd2;" horiz-adv-x="782" d="M391 708 Q463 708 523.5 679.5 Q584 651 627.5 601.5 Q671 552 695.5 485.5 Q720 419 720 344 Q720 265 695.5 200 Q671 135 627.5 88.5 Q584 42 523.5 16.5 Q463 -9 391 -9 Q319 -9 258.5 16.5 Q198 42 154.5 88.5 Q111 135 86.5 200 Q62 265 62 344 Q62 419 86.5 485.5 Q111 552 154.5 601.5 Q198 651 258.5 679.5 Q319 708 391 708 Z M391 10 Q442 10 482 34.5 Q522 59 550 103 Q578 147 593 208.5 Q608 270 608 344 Q608 421 594.5 484.5 Q581 548 553.5 594 Q526 640 485.5 665 Q445 690 391 690 Q337 690 296.5 665 Q256 640 228.5 594 Q201 548 187.5 484.5 Q174 421 174 344 Q174 270 189 208.5 Q204 147 232 103 Q260 59 300 34.5 Q340 10 391 10 Z M509 756 L483 756 L324 849 Q303 862 292.5 870.5 Q282 879 282 895 Q282 911 293.5 920.5 Q305 930 319 930 Q333 930 346 922.5 Q359 915 370 904 L509 756 Z " />
<glyph glyph-name="Oacute" unicode="&#xd3;" horiz-adv-x="782" d="M391 708 Q463 708 523.5 679.5 Q584 651 627.5 601.5 Q671 552 695.5 485.5 Q720 419 720 344 Q720 265 695.5 200 Q671 135 627.5 88.5 Q584 42 523.5 16.5 Q463 -9 391 -9 Q319 -9 258.5 16.5 Q198 42 154.5 88.5 Q111 135 86.5 200 Q62 265 62 344 Q62 419 86.5 485.5 Q111 552 154.5 601.5 Q198 651 258.5 679.5 Q319 708 391 708 Z M391 10 Q442 10 482 34.5 Q522 59 550 103 Q578 147 593 208.5 Q608 270 608 344 Q608 421 594.5 484.5 Q581 548 553.5 594 Q526 640 485.5 665 Q445 690 391 690 Q337 690 296.5 665 Q256 640 228.5 594 Q201 548 187.5 484.5 Q174 421 174 344 Q174 270 189 208.5 Q204 147 232 103 Q260 59 300 34.5 Q340 10 391 10 Z M441 904 Q452 915 465 922.5 Q478 930 492 930 Q506 930 517.5 920.5 Q529 911 529 895 Q529 879 518.5 870.5 Q508 862 487 849 L328 756 L302 756 L441 904 Z " />
<glyph glyph-name="Ocircumflex" unicode="&#xd4;" horiz-adv-x="782" d="M391 708 Q463 708 523.5 679.5 Q584 651 627.5 601.5 Q671 552 695.5 485.5 Q720 419 720 344 Q720 265 695.5 200 Q671 135 627.5 88.5 Q584 42 523.5 16.5 Q463 -9 391 -9 Q319 -9 258.5 16.5 Q198 42 154.5 88.5 Q111 135 86.5 200 Q62 265 62 344 Q62 419 86.5 485.5 Q111 552 154.5 601.5 Q198 651 258.5 679.5 Q319 708 391 708 Z M391 10 Q442 10 482 34.5 Q522 59 550 103 Q578 147 593 208.5 Q608 270 608 344 Q608 421 594.5 484.5 Q581 548 553.5 594 Q526 640 485.5 665 Q445 690 391 690 Q337 690 296.5 665 Q256 640 228.5 594 Q201 548 187.5 484.5 Q174 421 174 344 Q174 270 189 208.5 Q204 147 232 103 Q260 59 300 34.5 Q340 10 391 10 Z M526 749 L392 845 L254 751 L236 763 L376 923 L409 923 L545 763 L526 749 Z " />
<glyph glyph-name="Otilde" unicode="&#xd5;" horiz-adv-x="782" d="M391 708 Q463 708 523.5 679.5 Q584 651 627.5 601.5 Q671 552 695.5 485.5 Q720 419 720 344 Q720 265 695.5 200 Q671 135 627.5 88.5 Q584 42 523.5 16.5 Q463 -9 391 -9 Q319 -9 258.5 16.5 Q198 42 154.5 88.5 Q111 135 86.5 200 Q62 265 62 344 Q62 419 86.5 485.5 Q111 552 154.5 601.5 Q198 651 258.5 679.5 Q319 708 391 708 Z M391 10 Q442 10 482 34.5 Q522 59 550 103 Q578 147 593 208.5 Q608 270 608 344 Q608 421 594.5 484.5 Q581 548 553.5 594 Q526 640 485.5 665 Q445 690 391 690 Q337 690 296.5 665 Q256 640 228.5 594 Q201 548 187.5 484.5 Q174 421 174 344 Q174 270 189 208.5 Q204 147 232 103 Q260 59 300 34.5 Q340 10 391 10 Z M556 892 Q549 837 521 809.5 Q493 782 452 782 Q429 782 409.5 789.5 Q390 797 372 805.5 Q354 814 336.5 821.5 Q319 829 302 829 Q283 829 265 818 Q247 807 238 778 L223 778 Q230 833 258 860.5 Q286 888 327 888 Q349 888 369 880.5 Q389 873 407 864.5 Q425 856 442.5 848.5 Q460 841 477 841 Q496 841 514 852 Q532 863 541 892 L556 892 Z " />
<glyph glyph-name="Odieresis" unicode="&#xd6;" horiz-adv-x="782" d="M391 708 Q463 708 523.5 679.5 Q584 651 627.5 601.5 Q671 552 695.5 485.5 Q720 419 720 344 Q720 265 695.5 200 Q671 135 627.5 88.5 Q584 42 523.5 16.5 Q463 -9 391 -9 Q319 -9 258.5 16.5 Q198 42 154.5 88.5 Q111 135 86.5 200 Q62 265 62 344 Q62 419 86.5 485.5 Q111 552 154.5 601.5 Q198 651 258.5 679.5 Q319 708 391 708 Z M391 10 Q442 10 482 34.5 Q522 59 550 103 Q578 147 593 208.5 Q608 270 608 344 Q608 421 594.5 484.5 Q581 548 553.5 594 Q526 640 485.5 665 Q445 690 391 690 Q337 690 296.5 665 Q256 640 228.5 594 Q201 548 187.5 484.5 Q174 421 174 344 Q174 270 189 208.5 Q204 147 232 103 Q260 59 300 34.5 Q340 10 391 10 Z M545 839 Q545 816 529.5 800.5 Q514 785 491 785 Q468 785 452.5 800.5 Q437 816 437 839 Q437 862 452.5 877.5 Q468 893 491 893 Q514 893 529.5 877.5 Q545 862 545 839 Z M344 839 Q344 816 328.5 800.5 Q313 785 290 785 Q267 785 251.5 800.5 Q236 816 236 839 Q236 862 251.5 877.5 Q267 893 290 893 Q313 893 328.5 877.5 Q344 862 344 839 Z " />
<glyph glyph-name="multiply" unicode="&#xd7;" horiz-adv-x="690" d="M552 60 L339 264 L135 67 L95 105 L301 300 L99 495 L141 535 L344 342 L548 538 L587 501 L382 305 L595 101 L552 60 Z " />
<glyph glyph-name="Oslash" unicode="&#xd8;" horiz-adv-x="781" d="M192 56 Q163 76 138.5 106 Q114 136 97 173.5 Q80 211 70.5 254 Q61 297 61 344 Q61 419 85.5 485.5 Q110 552 153.5 601.5 Q197 651 257.5 679.5 Q318 708 390 708 Q439 708 482.5 694.5 Q526 681 561 656 L612 740 L646 740 L584 639 Q612 619 636.5 589 Q661 559 679.5 521.5 Q698 484 708.5 439 Q719 394 719 344 Q719 265 694.5 200 Q670 135 626.5 88.5 Q583 42 522.5 16.5 Q462 -9 390 -9 Q288 -9 215 39 L164 -45 L130 -45 L192 56 Z M173 344 Q173 267 188 210 Q203 153 226 112 L537 617 Q514 650 476 670 Q438 690 390 690 Q336 690 295.5 665 Q255 640 227.5 594 Q200 548 186.5 484.5 Q173 421 173 344 Z M390 10 Q441 10 481 34.5 Q521 59 549 103 Q577 147 592 208.5 Q607 270 607 344 Q607 417 594 479.5 Q581 542 554 590 L243 85 Q297 10 390 10 Z " />
<glyph glyph-name="Ugrave" unicode="&#xd9;" horiz-adv-x="765" d="M315 697 L315 679 L227 679 L227 237 Q227 173 244.5 130.5 Q262 88 289 62.5 Q316 37 349 26.5 Q382 16 413 16 Q459 16 498 30 Q537 44 565 72.5 Q593 101 608.5 144 Q624 187 624 244 L624 679 L536 679 L536 697 L737 697 L737 679 L649 679 L649 243 Q649 184 632 137 Q615 90 583.5 57.5 Q552 25 508.5 8 Q465 -9 413 -9 Q268 -9 197.5 55 Q127 119 127 260 L127 679 L39 679 L39 697 L315 697 Z M520 756 L494 756 L335 849 Q314 862 303.5 870.5 Q293 879 293 895 Q293 911 304.5 920.5 Q316 930 330 930 Q344 930 357 922.5 Q370 915 381 904 L520 756 Z " />
<glyph glyph-name="Uacute" unicode="&#xda;" horiz-adv-x="765" d="M315 697 L315 679 L227 679 L227 237 Q227 173 244.5 130.5 Q262 88 289 62.5 Q316 37 349 26.5 Q382 16 413 16 Q459 16 498 30 Q537 44 565 72.5 Q593 101 608.5 144 Q624 187 624 244 L624 679 L536 679 L536 697 L737 697 L737 679 L649 679 L649 243 Q649 184 632 137 Q615 90 583.5 57.5 Q552 25 508.5 8 Q465 -9 413 -9 Q268 -9 197.5 55 Q127 119 127 260 L127 679 L39 679 L39 697 L315 697 Z M478 904 Q489 915 502 922.5 Q515 930 529 930 Q543 930 554.5 920.5 Q566 911 566 895 Q566 879 555.5 870.5 Q545 862 524 849 L365 756 L339 756 L478 904 Z " />
<glyph glyph-name="Ucircumflex" unicode="&#xdb;" horiz-adv-x="765" d="M315 697 L315 679 L227 679 L227 237 Q227 173 244.5 130.5 Q262 88 289 62.5 Q316 37 349 26.5 Q382 16 413 16 Q459 16 498 30 Q537 44 565 72.5 Q593 101 608.5 144 Q624 187 624 244 L624 679 L536 679 L536 697 L737 697 L737 679 L649 679 L649 243 Q649 184 632 137 Q615 90 583.5 57.5 Q552 25 508.5 8 Q465 -9 413 -9 Q268 -9 197.5 55 Q127 119 127 260 L127 679 L39 679 L39 697 L315 697 Z M549 749 L415 845 L277 751 L259 763 L399 923 L432 923 L568 763 L549 749 Z " />
<glyph glyph-name="Udieresis" unicode="&#xdc;" horiz-adv-x="765" d="M315 697 L315 679 L227 679 L227 237 Q227 173 244.5 130.5 Q262 88 289 62.5 Q316 37 349 26.5 Q382 16 413 16 Q459 16 498 30 Q537 44 565 72.5 Q593 101 608.5 144 Q624 187 624 244 L624 679 L536 679 L536 697 L737 697 L737 679 L649 679 L649 243 Q649 184 632 137 Q615 90 583.5 57.5 Q552 25 508.5 8 Q465 -9 413 -9 Q268 -9 197.5 55 Q127 119 127 260 L127 679 L39 679 L39 697 L315 697 Z M579 839 Q579 816 563.5 800.5 Q548 785 525 785 Q502 785 486.5 800.5 Q471 816 471 839 Q471 862 486.5 877.5 Q502 893 525 893 Q548 893 563.5 877.5 Q579 862 579 839 Z M378 839 Q378 816 362.5 800.5 Q347 785 324 785 Q301 785 285.5 800.5 Q270 816 270 839 Q270 862 285.5 877.5 Q301 893 324 893 Q347 893 362.5 877.5 Q378 862 378 839 Z " />
<glyph glyph-name="Yacute" unicode="&#xdd;" horiz-adv-x="657" d="M465 18 L465 0 L189 0 L189 18 L277 18 L277 309 L68 679 L0 679 L0 697 L292 697 L292 679 L184 679 L364 352 L558 679 L450 679 L450 697 L657 697 L657 679 L589 679 L377 323 L377 18 L465 18 Z M401 904 Q412 915 425 922.5 Q438 930 452 930 Q466 930 477.5 920.5 Q489 911 489 895 Q489 879 478.5 870.5 Q468 862 447 849 L288 756 L262 756 L401 904 Z " />
<glyph glyph-name="Thorn" unicode="&#xde;" horiz-adv-x="671" d="M343 18 L343 0 L47 0 L47 18 L135 18 L135 679 L47 679 L47 697 L323 697 L323 679 L235 679 L235 560 L305 560 Q400 560 460 544 Q520 528 553.5 501 Q587 474 599 438.5 Q611 403 611 363 Q611 323 599 286 Q587 249 553.5 220.5 Q520 192 460 175 Q400 158 305 158 L235 158 L235 18 L343 18 Z M298 176 Q401 176 450 219 Q499 262 499 359 Q499 456 450 499 Q401 542 298 542 L235 542 L235 176 L298 176 Z " />
<glyph glyph-name="germandbls" unicode="&#xdf;" horiz-adv-x="563" d="M479 566 Q479 535 470 504.5 Q461 474 441.5 448.5 Q422 423 392 405 Q362 387 321 381 Q418 373 470.5 320.5 Q523 268 523 187 Q523 142 508.5 106 Q494 70 469 44.5 Q444 19 410 5 Q376 -9 336 -9 Q312 -9 287.5 -2 Q263 5 243 19 L252 33 Q285 13 317 13 Q342 13 361.5 25.5 Q381 38 394 60.5 Q407 83 413.5 114 Q420 145 420 182 Q420 218 411.5 251.5 Q403 285 382.5 311.5 Q362 338 329 354 Q296 370 248 371 L248 385 Q286 385 311.5 400.5 Q337 416 352.5 441 Q368 466 374.5 498.5 Q381 531 381 565 Q381 640 352.5 677.5 Q324 715 281 715 Q232 715 207.5 680.5 Q183 646 183 580 L183 0 L36 0 L36 16 L93 16 L93 441 L36 441 L36 457 Q65 457 81 475.5 Q97 494 97 536 Q97 630 144.5 681.5 Q192 733 292 733 Q337 733 372 719.5 Q407 706 430.5 683.5 Q454 661 466.5 630.5 Q479 600 479 566 Z " />
<glyph glyph-name="agrave" unicode="&#xe0;" horiz-adv-x="511" d="M326 42 Q307 24 276.5 7.5 Q246 -9 192 -9 Q120 -9 86 25.5 Q52 60 52 113 Q52 156 76 183 Q100 210 135 225 Q170 240 208.5 245.5 Q247 251 276 251 Q290 251 300.5 250.5 Q311 250 319 250 L319 358 Q319 381 311 398.5 Q303 416 289.5 427.5 Q276 439 258 444.5 Q240 450 221 450 Q193 450 166.5 439 Q140 428 125 412 L182 316 Q178 308 165 301.5 Q152 295 135 295 Q112 295 93.5 309.5 Q75 324 75 356 Q75 378 86 398 Q97 418 118 433 Q139 448 168.5 457 Q198 466 235 466 Q289 466 323 453.5 Q357 441 376 420.5 Q395 400 402 374.5 Q409 349 409 323 L409 68 Q409 45 420 33.5 Q431 22 445 22 Q463 22 476 38 L485 28 Q473 11 451 1 Q429 -9 403 -9 Q378 -9 356.5 2.5 Q335 14 326 42 Z M319 235 Q289 233 258.5 229.5 Q228 226 203.5 214.5 Q179 203 163.5 180.5 Q148 158 148 119 Q148 91 155.5 72 Q163 53 175 42 Q187 31 201.5 26 Q216 21 231 21 Q271 21 291.5 35 Q312 49 319 61 L319 235 Z M369 516 L343 516 L184 609 Q163 622 152.5 630.5 Q142 639 142 655 Q142 671 153.5 680.5 Q165 690 179 690 Q193 690 206 682.5 Q219 675 230 664 L369 516 Z " />
<glyph glyph-name="aacute" unicode="&#xe1;" horiz-adv-x="511" d="M326 42 Q307 24 276.5 7.5 Q246 -9 192 -9 Q120 -9 86 25.5 Q52 60 52 113 Q52 156 76 183 Q100 210 135 225 Q170 240 208.5 245.5 Q247 251 276 251 Q290 251 300.5 250.5 Q311 250 319 250 L319 358 Q319 381 311 398.5 Q303 416 289.5 427.5 Q276 439 258 444.5 Q240 450 221 450 Q193 450 166.5 439 Q140 428 125 412 L182 316 Q178 308 165 301.5 Q152 295 135 295 Q112 295 93.5 309.5 Q75 324 75 356 Q75 378 86 398 Q97 418 118 433 Q139 448 168.5 457 Q198 466 235 466 Q289 466 323 453.5 Q357 441 376 420.5 Q395 400 402 374.5 Q409 349 409 323 L409 68 Q409 45 420 33.5 Q431 22 445 22 Q463 22 476 38 L485 28 Q473 11 451 1 Q429 -9 403 -9 Q378 -9 356.5 2.5 Q335 14 326 42 Z M319 235 Q289 233 258.5 229.5 Q228 226 203.5 214.5 Q179 203 163.5 180.5 Q148 158 148 119 Q148 91 155.5 72 Q163 53 175 42 Q187 31 201.5 26 Q216 21 231 21 Q271 21 291.5 35 Q312 49 319 61 L319 235 Z M301 664 Q312 675 325 682.5 Q338 690 352 690 Q366 690 377.5 680.5 Q389 671 389 655 Q389 639 378.5 630.5 Q368 622 347 609 L188 516 L162 516 L301 664 Z " />
<glyph glyph-name="acircumflex" unicode="&#xe2;" horiz-adv-x="511" d="M326 42 Q307 24 276.5 7.5 Q246 -9 192 -9 Q120 -9 86 25.5 Q52 60 52 113 Q52 156 76 183 Q100 210 135 225 Q170 240 208.5 245.5 Q247 251 276 251 Q290 251 300.5 250.5 Q311 250 319 250 L319 358 Q319 381 311 398.5 Q303 416 289.5 427.5 Q276 439 258 444.5 Q240 450 221 450 Q193 450 166.5 439 Q140 428 125 412 L182 316 Q178 308 165 301.5 Q152 295 135 295 Q112 295 93.5 309.5 Q75 324 75 356 Q75 378 86 398 Q97 418 118 433 Q139 448 168.5 457 Q198 466 235 466 Q289 466 323 453.5 Q357 441 376 420.5 Q395 400 402 374.5 Q409 349 409 323 L409 68 Q409 45 420 33.5 Q431 22 445 22 Q463 22 476 38 L485 28 Q473 11 451 1 Q429 -9 403 -9 Q378 -9 356.5 2.5 Q335 14 326 42 Z M319 235 Q289 233 258.5 229.5 Q228 226 203.5 214.5 Q179 203 163.5 180.5 Q148 158 148 119 Q148 91 155.5 72 Q163 53 175 42 Q187 31 201.5 26 Q216 21 231 21 Q271 21 291.5 35 Q312 49 319 61 L319 235 Z M386 514 L252 610 L114 516 L96 528 L236 688 L269 688 L405 528 L386 514 Z " />
<glyph glyph-name="atilde" unicode="&#xe3;" horiz-adv-x="511" d="M326 42 Q307 24 276.5 7.5 Q246 -9 192 -9 Q120 -9 86 25.5 Q52 60 52 113 Q52 156 76 183 Q100 210 135 225 Q170 240 208.5 245.5 Q247 251 276 251 Q290 251 300.5 250.5 Q311 250 319 250 L319 358 Q319 381 311 398.5 Q303 416 289.5 427.5 Q276 439 258 444.5 Q240 450 221 450 Q193 450 166.5 439 Q140 428 125 412 L182 316 Q178 308 165 301.5 Q152 295 135 295 Q112 295 93.5 309.5 Q75 324 75 356 Q75 378 86 398 Q97 418 118 433 Q139 448 168.5 457 Q198 466 235 466 Q289 466 323 453.5 Q357 441 376 420.5 Q395 400 402 374.5 Q409 349 409 323 L409 68 Q409 45 420 33.5 Q431 22 445 22 Q463 22 476 38 L485 28 Q473 11 451 1 Q429 -9 403 -9 Q378 -9 356.5 2.5 Q335 14 326 42 Z M319 235 Q289 233 258.5 229.5 Q228 226 203.5 214.5 Q179 203 163.5 180.5 Q148 158 148 119 Q148 91 155.5 72 Q163 53 175 42 Q187 31 201.5 26 Q216 21 231 21 Q271 21 291.5 35 Q312 49 319 61 L319 235 Z M416 642 Q409 587 381 559.5 Q353 532 312 532 Q289 532 269.5 539.5 Q250 547 232 555.5 Q214 564 196.5 571.5 Q179 579 162 579 Q143 579 125 568 Q107 557 98 528 L83 528 Q90 583 118 610.5 Q146 638 187 638 Q209 638 229 630.5 Q249 623 267 614.5 Q285 606 302.5 598.5 Q320 591 337 591 Q356 591 374 602 Q392 613 401 642 L416 642 Z " />
<glyph glyph-name="adieresis" unicode="&#xe4;" horiz-adv-x="511" d="M326 42 Q307 24 276.5 7.5 Q246 -9 192 -9 Q120 -9 86 25.5 Q52 60 52 113 Q52 156 76 183 Q100 210 135 225 Q170 240 208.5 245.5 Q247 251 276 251 Q290 251 300.5 250.5 Q311 250 319 250 L319 358 Q319 381 311 398.5 Q303 416 289.5 427.5 Q276 439 258 444.5 Q240 450 221 450 Q193 450 166.5 439 Q140 428 125 412 L182 316 Q178 308 165 301.5 Q152 295 135 295 Q112 295 93.5 309.5 Q75 324 75 356 Q75 378 86 398 Q97 418 118 433 Q139 448 168.5 457 Q198 466 235 466 Q289 466 323 453.5 Q357 441 376 420.5 Q395 400 402 374.5 Q409 349 409 323 L409 68 Q409 45 420 33.5 Q431 22 445 22 Q463 22 476 38 L485 28 Q473 11 451 1 Q429 -9 403 -9 Q378 -9 356.5 2.5 Q335 14 326 42 Z M319 235 Q289 233 258.5 229.5 Q228 226 203.5 214.5 Q179 203 163.5 180.5 Q148 158 148 119 Q148 91 155.5 72 Q163 53 175 42 Q187 31 201.5 26 Q216 21 231 21 Q271 21 291.5 35 Q312 49 319 61 L319 235 Z M405 594 Q405 571 389.5 555.5 Q374 540 351 540 Q328 540 312.5 555.5 Q297 571 297 594 Q297 617 312.5 632.5 Q328 648 351 648 Q374 648 389.5 632.5 Q405 617 405 594 Z M204 594 Q204 571 188.5 555.5 Q173 540 150 540 Q127 540 111.5 555.5 Q96 571 96 594 Q96 617 111.5 632.5 Q127 648 150 648 Q173 648 188.5 632.5 Q204 617 204 594 Z " />
<glyph glyph-name="aring" unicode="&#xe5;" horiz-adv-x="511" d="M326 42 Q307 24 276.5 7.5 Q246 -9 192 -9 Q120 -9 86 25.5 Q52 60 52 113 Q52 156 76 183 Q100 210 135 225 Q170 240 208.5 245.5 Q247 251 276 251 Q290 251 300.5 250.5 Q311 250 319 250 L319 358 Q319 381 311 398.5 Q303 416 289.5 427.5 Q276 439 258 444.5 Q240 450 221 450 Q193 450 166.5 439 Q140 428 125 412 L182 316 Q178 308 165 301.5 Q152 295 135 295 Q112 295 93.5 309.5 Q75 324 75 356 Q75 378 86 398 Q97 418 118 433 Q139 448 168.5 457 Q198 466 235 466 Q289 466 323 453.5 Q357 441 376 420.5 Q395 400 402 374.5 Q409 349 409 323 L409 68 Q409 45 420 33.5 Q431 22 445 22 Q463 22 476 38 L485 28 Q473 11 451 1 Q429 -9 403 -9 Q378 -9 356.5 2.5 Q335 14 326 42 Z M319 235 Q289 233 258.5 229.5 Q228 226 203.5 214.5 Q179 203 163.5 180.5 Q148 158 148 119 Q148 91 155.5 72 Q163 53 175 42 Q187 31 201.5 26 Q216 21 231 21 Q271 21 291.5 35 Q312 49 319 61 L319 235 Z M353 606 Q353 561 323 531 Q293 501 248 501 Q203 501 173 531 Q143 561 143 606 Q143 651 173 681 Q203 711 248 711 Q293 711 323 681 Q353 651 353 606 Z M302 606 Q302 636 289 662 Q276 688 248 688 Q220 688 207 662 Q194 636 194 606 Q194 576 207 550.5 Q220 525 248 525 Q276 525 289 550.5 Q302 576 302 606 Z " />
<glyph glyph-name="ae" unicode="&#xe6;" horiz-adv-x="720" d="M52 113 Q52 156 76 183 Q100 210 135 225 Q170 240 208.5 245.5 Q247 251 276 251 Q290 251 300.5 250.5 Q311 250 319 250 L319 359 Q319 382 311 399 Q303 416 289.5 427.5 Q276 439 258 444.5 Q240 450 221 450 Q193 450 166.5 439 Q140 428 125 412 L182 316 Q178 308 165 301.5 Q152 295 135 295 Q112 295 93.5 309.5 Q75 324 75 356 Q75 378 86 398 Q97 418 118 433 Q139 448 168.5 457 Q198 466 235 466 Q294 466 329 449.5 Q364 433 382 407 Q408 435 440.5 450.5 Q473 466 518 466 Q601 466 641.5 430.5 Q682 395 682 341 Q682 306 667.5 280.5 Q653 255 629 238.5 Q605 222 574 214.5 Q543 207 511 207 Q484 207 458.5 211.5 Q433 216 410 226 Q410 170 422 131 Q434 92 454 66.5 Q474 41 499.5 29.5 Q525 18 554 18 Q594 18 622 31 Q650 44 682 74 L691 62 Q661 29 619 10 Q577 -9 517 -9 Q458 -9 408.5 24 Q359 57 338 126 Q333 57 294.5 24 Q256 -9 193 -9 Q120 -9 86 25.5 Q52 60 52 113 Z M514 450 Q474 450 443 398.5 Q412 347 410 241 Q431 235 451 231.5 Q471 228 488 228 Q532 228 560 252.5 Q588 277 588 339 Q588 395 567 422.5 Q546 450 514 450 Z M148 119 Q148 63 172 38.5 Q196 14 226 14 Q243 14 259.5 21.5 Q276 29 289.5 44.5 Q303 60 311 83.5 Q319 107 319 139 L319 235 Q289 233 258.5 229.5 Q228 226 203.5 214.5 Q179 203 163.5 180.5 Q148 158 148 119 Z " />
<glyph glyph-name="ccedilla" unicode="&#xe7;" horiz-adv-x="461" d="M245 -8 Q206 -5 170.5 11 Q135 27 108 56 Q81 85 64.5 126.5 Q48 168 48 222 Q48 274 63.5 318.5 Q79 363 108.5 396 Q138 429 180.5 447.5 Q223 466 277 466 Q316 466 343.5 456 Q371 446 388 430 Q405 414 413 394 Q421 374 421 355 Q421 320 400.5 302 Q380 284 354 284 Q331 284 318 292 Q305 300 300 308 L387 397 Q383 404 375.5 413 Q368 422 356.5 430.5 Q345 439 329 444.5 Q313 450 291 450 Q224 450 184 394 Q144 338 144 231 Q144 174 157 134 Q170 94 191.5 68.5 Q213 43 241 31.5 Q269 20 299 20 Q334 20 358.5 30.5 Q383 41 410 67 L420 56 Q392 26 357 9.5 Q322 -7 270 -9 L232 -80 Q237 -78 247 -76.5 Q257 -75 271 -75 Q307 -75 331.5 -94.5 Q356 -114 356 -144 Q356 -166 347 -182 Q338 -198 323 -208.5 Q308 -219 289 -224.5 Q270 -230 249 -230 Q216 -230 195 -216.5 Q174 -203 174 -183 Q174 -166 183.5 -157.5 Q193 -149 206 -149 Q217 -149 224 -153 Q231 -157 234 -162 L194 -199 Q197 -204 206.5 -209.5 Q216 -215 230 -215 Q251 -215 269.5 -199.5 Q288 -184 288 -148 Q288 -122 274.5 -107.5 Q261 -93 238 -93 Q222 -93 206 -100 L198 -95 L245 -8 Z " />
<glyph glyph-name="egrave" unicode="&#xe8;" horiz-adv-x="464" d="M262 466 Q345 466 385.5 430.5 Q426 395 426 341 Q426 306 411 280.5 Q396 255 371 238.5 Q346 222 314.5 214 Q283 206 249 206 Q193 206 144 226 Q145 170 157.5 131 Q170 92 191 66.5 Q212 41 239.5 29.5 Q267 18 297 18 Q337 18 365.5 31 Q394 44 426 74 L435 62 Q404 29 362 10 Q320 -9 260 -9 Q219 -9 181 6 Q143 21 113.5 50 Q84 79 66 122.5 Q48 166 48 222 Q48 274 62 318.5 Q76 363 103.5 396 Q131 429 171 447.5 Q211 466 262 466 Z M258 450 Q236 450 216 437 Q196 424 180.5 398 Q165 372 155 333 Q145 294 144 241 Q166 235 187 232 Q208 229 226 229 Q249 229 268.5 234.5 Q288 240 302.5 253 Q317 266 325 287 Q333 308 333 339 Q333 395 311.5 422.5 Q290 450 258 450 Z M395 516 L369 516 L210 609 Q189 622 178.5 630.5 Q168 639 168 655 Q168 671 179.5 680.5 Q191 690 205 690 Q219 690 232 682.5 Q245 675 256 664 L395 516 Z " />
<glyph glyph-name="eacute" unicode="&#xe9;" horiz-adv-x="464" d="M262 466 Q345 466 385.5 430.5 Q426 395 426 341 Q426 306 411 280.5 Q396 255 371 238.5 Q346 222 314.5 214 Q283 206 249 206 Q193 206 144 226 Q145 170 157.5 131 Q170 92 191 66.5 Q212 41 239.5 29.5 Q267 18 297 18 Q337 18 365.5 31 Q394 44 426 74 L435 62 Q404 29 362 10 Q320 -9 260 -9 Q219 -9 181 6 Q143 21 113.5 50 Q84 79 66 122.5 Q48 166 48 222 Q48 274 62 318.5 Q76 363 103.5 396 Q131 429 171 447.5 Q211 466 262 466 Z M258 450 Q236 450 216 437 Q196 424 180.5 398 Q165 372 155 333 Q145 294 144 241 Q166 235 187 232 Q208 229 226 229 Q249 229 268.5 234.5 Q288 240 302.5 253 Q317 266 325 287 Q333 308 333 339 Q333 395 311.5 422.5 Q290 450 258 450 Z M312 664 Q323 675 336 682.5 Q349 690 363 690 Q377 690 388.5 680.5 Q400 671 400 655 Q400 639 389.5 630.5 Q379 622 358 609 L199 516 L173 516 L312 664 Z " />
<glyph glyph-name="ecircumflex" unicode="&#xea;" horiz-adv-x="464" d="M262 466 Q345 466 385.5 430.5 Q426 395 426 341 Q426 306 411 280.5 Q396 255 371 238.5 Q346 222 314.5 214 Q283 206 249 206 Q193 206 144 226 Q145 170 157.5 131 Q170 92 191 66.5 Q212 41 239.5 29.5 Q267 18 297 18 Q337 18 365.5 31 Q394 44 426 74 L435 62 Q404 29 362 10 Q320 -9 260 -9 Q219 -9 181 6 Q143 21 113.5 50 Q84 79 66 122.5 Q48 166 48 222 Q48 274 62 318.5 Q76 363 103.5 396 Q131 429 171 447.5 Q211 466 262 466 Z M258 450 Q236 450 216 437 Q196 424 180.5 398 Q165 372 155 333 Q145 294 144 241 Q166 235 187 232 Q208 229 226 229 Q249 229 268.5 234.5 Q288 240 302.5 253 Q317 266 325 287 Q333 308 333 339 Q333 395 311.5 422.5 Q290 450 258 450 Z M392 514 L258 610 L120 516 L102 528 L242 688 L275 688 L411 528 L392 514 Z " />
<glyph glyph-name="edieresis" unicode="&#xeb;" horiz-adv-x="464" d="M262 466 Q345 466 385.5 430.5 Q426 395 426 341 Q426 306 411 280.5 Q396 255 371 238.5 Q346 222 314.5 214 Q283 206 249 206 Q193 206 144 226 Q145 170 157.5 131 Q170 92 191 66.5 Q212 41 239.5 29.5 Q267 18 297 18 Q337 18 365.5 31 Q394 44 426 74 L435 62 Q404 29 362 10 Q320 -9 260 -9 Q219 -9 181 6 Q143 21 113.5 50 Q84 79 66 122.5 Q48 166 48 222 Q48 274 62 318.5 Q76 363 103.5 396 Q131 429 171 447.5 Q211 466 262 466 Z M258 450 Q236 450 216 437 Q196 424 180.5 398 Q165 372 155 333 Q145 294 144 241 Q166 235 187 232 Q208 229 226 229 Q249 229 268.5 234.5 Q288 240 302.5 253 Q317 266 325 287 Q333 308 333 339 Q333 395 311.5 422.5 Q290 450 258 450 Z M418 594 Q418 571 402.5 555.5 Q387 540 364 540 Q341 540 325.5 555.5 Q310 571 310 594 Q310 617 325.5 632.5 Q341 648 364 648 Q387 648 402.5 632.5 Q418 617 418 594 Z M217 594 Q217 571 201.5 555.5 Q186 540 163 540 Q140 540 124.5 555.5 Q109 571 109 594 Q109 617 124.5 632.5 Q140 648 163 648 Q186 648 201.5 632.5 Q217 617 217 594 Z " />
<glyph glyph-name="igrave" unicode="&#xec;" horiz-adv-x="292" d="M191 457 L191 16 L247 16 L247 0 L44 0 L44 16 L101 16 L101 441 L44 441 L44 457 L191 457 Z M240 516 L214 516 L55 609 Q34 622 23.5 630.5 Q13 639 13 655 Q13 671 24.5 680.5 Q36 690 50 690 Q64 690 77 682.5 Q90 675 101 664 L240 516 Z " />
<glyph glyph-name="iacute" unicode="&#xed;" horiz-adv-x="292" d="M191 457 L191 16 L247 16 L247 0 L44 0 L44 16 L101 16 L101 441 L44 441 L44 457 L191 457 Z M170 664 Q181 675 194 682.5 Q207 690 221 690 Q235 690 246.5 680.5 Q258 671 258 655 Q258 639 247.5 630.5 Q237 622 216 609 L57 516 L31 516 L170 664 Z " />
<glyph glyph-name="icircumflex" unicode="&#xee;" horiz-adv-x="358" d="M294 511 L180 605 L62 513 L44 525 L164 685 L197 685 L313 525 L294 511 Z M230 457 L230 16 L286 16 L286 0 L83 0 L83 16 L140 16 L140 441 L83 441 L83 457 L230 457 Z " />
<glyph glyph-name="idieresis" unicode="&#xef;" horiz-adv-x="292" d="M191 457 L191 16 L247 16 L247 0 L44 0 L44 16 L101 16 L101 441 L44 441 L44 457 L191 457 Z M282 595 Q282 572 266.5 556.5 Q251 541 228 541 Q205 541 189.5 556.5 Q174 572 174 595 Q174 618 189.5 633.5 Q205 649 228 649 Q251 649 266.5 633.5 Q282 618 282 595 Z M117 595 Q117 572 101.5 556.5 Q86 541 63 541 Q40 541 24.5 556.5 Q9 572 9 595 Q9 618 24.5 633.5 Q40 649 63 649 Q86 649 101.5 633.5 Q117 618 117 595 Z " />
<glyph glyph-name="eth" unicode="&#xf0;" horiz-adv-x="542" d="M267 634 Q242 657 207.5 678.5 Q173 700 139 709 L145 726 Q185 717 225 698.5 Q265 680 303 653 L409 711 L419 692 L322 640 Q404 575 448 480.5 Q492 386 492 267 Q492 135 434.5 63 Q377 -9 273 -9 Q222 -9 181 9.5 Q140 28 111.5 60 Q83 92 67.5 134 Q52 176 52 223 Q52 284 70.5 328 Q89 372 119 400.5 Q149 429 186.5 443 Q224 457 262 457 Q296 457 329 445 Q362 433 385 409 Q371 473 345.5 527 Q320 581 284 618 L164 553 L153 572 L267 634 Z M273 6 Q312 6 336.5 23 Q361 40 375.5 69.5 Q390 99 395 138.5 Q400 178 400 223 Q400 330 366.5 384.5 Q333 439 273 439 Q214 439 181 384.5 Q148 330 148 223 Q148 178 153 138.5 Q158 99 172 69.5 Q186 40 210 23 Q234 6 273 6 Z " />
<glyph glyph-name="ntilde" unicode="&#xf1;" horiz-adv-x="585" d="M477 -9 Q461 -9 446 -4 Q431 1 419 12 Q407 23 400 40.5 Q393 58 393 84 L393 326 Q393 382 373 412.5 Q353 443 305 443 Q277 443 256 432 Q235 421 220.5 403.5 Q206 386 198.5 363.5 Q191 341 191 317 L191 16 L247 16 L247 0 L44 0 L44 16 L101 16 L101 441 L44 441 L44 457 L187 457 L187 381 Q192 393 203 408 Q214 423 231.5 435.5 Q249 448 273 457 Q297 466 329 466 Q374 466 403.5 453 Q433 440 451 418 Q469 396 476 366 Q483 336 483 303 L483 68 Q483 45 494 33.5 Q505 22 519 22 Q537 22 550 38 L559 28 Q546 11 524.5 1 Q503 -9 477 -9 Z M458 642 Q451 587 423 559.5 Q395 532 354 532 Q331 532 311.5 539.5 Q292 547 274 555.5 Q256 564 238.5 571.5 Q221 579 204 579 Q185 579 167 568 Q149 557 140 528 L125 528 Q132 583 160 610.5 Q188 638 229 638 Q251 638 271 630.5 Q291 623 309 614.5 Q327 606 344.5 598.5 Q362 591 379 591 Q398 591 416 602 Q434 613 443 642 L458 642 Z " />
<glyph glyph-name="ograve" unicode="&#xf2;" horiz-adv-x="547" d="M273 466 Q325 466 366 448 Q407 430 435.5 398.5 Q464 367 479.5 324 Q495 281 495 231 Q495 183 479.5 139.5 Q464 96 435.5 63 Q407 30 366 10.5 Q325 -9 273 -9 Q222 -9 181 10.5 Q140 30 111.5 63 Q83 96 67.5 139.5 Q52 183 52 231 Q52 281 67.5 324 Q83 367 111.5 398.5 Q140 430 181 448 Q222 466 273 466 Z M273 8 Q312 8 336.5 25.5 Q361 43 374.5 73.5 Q388 104 393 144.5 Q398 185 398 231 Q398 338 365.5 394 Q333 450 273 450 Q214 450 181 394 Q148 338 148 231 Q148 185 153 144.5 Q158 104 172 73.5 Q186 43 210 25.5 Q234 8 273 8 Z M384 516 L358 516 L199 609 Q178 622 167.5 630.5 Q157 639 157 655 Q157 671 168.5 680.5 Q180 690 194 690 Q208 690 221 682.5 Q234 675 245 664 L384 516 Z " />
<glyph glyph-name="oacute" unicode="&#xf3;" horiz-adv-x="547" d="M273 466 Q325 466 366 448 Q407 430 435.5 398.5 Q464 367 479.5 324 Q495 281 495 231 Q495 183 479.5 139.5 Q464 96 435.5 63 Q407 30 366 10.5 Q325 -9 273 -9 Q222 -9 181 10.5 Q140 30 111.5 63 Q83 96 67.5 139.5 Q52 183 52 231 Q52 281 67.5 324 Q83 367 111.5 398.5 Q140 430 181 448 Q222 466 273 466 Z M273 8 Q312 8 336.5 25.5 Q361 43 374.5 73.5 Q388 104 393 144.5 Q398 185 398 231 Q398 338 365.5 394 Q333 450 273 450 Q214 450 181 394 Q148 338 148 231 Q148 185 153 144.5 Q158 104 172 73.5 Q186 43 210 25.5 Q234 8 273 8 Z M316 664 Q327 675 340 682.5 Q353 690 367 690 Q381 690 392.5 680.5 Q404 671 404 655 Q404 639 393.5 630.5 Q383 622 362 609 L203 516 L177 516 L316 664 Z " />
<glyph glyph-name="ocircumflex" unicode="&#xf4;" horiz-adv-x="547" d="M273 466 Q325 466 366 448 Q407 430 435.5 398.5 Q464 367 479.5 324 Q495 281 495 231 Q495 183 479.5 139.5 Q464 96 435.5 63 Q407 30 366 10.5 Q325 -9 273 -9 Q222 -9 181 10.5 Q140 30 111.5 63 Q83 96 67.5 139.5 Q52 183 52 231 Q52 281 67.5 324 Q83 367 111.5 398.5 Q140 430 181 448 Q222 466 273 466 Z M273 8 Q312 8 336.5 25.5 Q361 43 374.5 73.5 Q388 104 393 144.5 Q398 185 398 231 Q398 338 365.5 394 Q333 450 273 450 Q214 450 181 394 Q148 338 148 231 Q148 185 153 144.5 Q158 104 172 73.5 Q186 43 210 25.5 Q234 8 273 8 Z M411 514 L277 610 L139 516 L121 528 L261 688 L294 688 L430 528 L411 514 Z " />
<glyph glyph-name="otilde" unicode="&#xf5;" horiz-adv-x="547" d="M273 466 Q325 466 366 448 Q407 430 435.5 398.5 Q464 367 479.5 324 Q495 281 495 231 Q495 183 479.5 139.5 Q464 96 435.5 63 Q407 30 366 10.5 Q325 -9 273 -9 Q222 -9 181 10.5 Q140 30 111.5 63 Q83 96 67.5 139.5 Q52 183 52 231 Q52 281 67.5 324 Q83 367 111.5 398.5 Q140 430 181 448 Q222 466 273 466 Z M273 8 Q312 8 336.5 25.5 Q361 43 374.5 73.5 Q388 104 393 144.5 Q398 185 398 231 Q398 338 365.5 394 Q333 450 273 450 Q214 450 181 394 Q148 338 148 231 Q148 185 153 144.5 Q158 104 172 73.5 Q186 43 210 25.5 Q234 8 273 8 Z M441 642 Q434 587 406 559.5 Q378 532 337 532 Q314 532 294.5 539.5 Q275 547 257 555.5 Q239 564 221.5 571.5 Q204 579 187 579 Q168 579 150 568 Q132 557 123 528 L108 528 Q115 583 143 610.5 Q171 638 212 638 Q234 638 254 630.5 Q274 623 292 614.5 Q310 606 327.5 598.5 Q345 591 362 591 Q381 591 399 602 Q417 613 426 642 L441 642 Z " />
<glyph glyph-name="odieresis" unicode="&#xf6;" horiz-adv-x="547" d="M273 466 Q325 466 366 448 Q407 430 435.5 398.5 Q464 367 479.5 324 Q495 281 495 231 Q495 183 479.5 139.5 Q464 96 435.5 63 Q407 30 366 10.5 Q325 -9 273 -9 Q222 -9 181 10.5 Q140 30 111.5 63 Q83 96 67.5 139.5 Q52 183 52 231 Q52 281 67.5 324 Q83 367 111.5 398.5 Q140 430 181 448 Q222 466 273 466 Z M273 8 Q312 8 336.5 25.5 Q361 43 374.5 73.5 Q388 104 393 144.5 Q398 185 398 231 Q398 338 365.5 394 Q333 450 273 450 Q214 450 181 394 Q148 338 148 231 Q148 185 153 144.5 Q158 104 172 73.5 Q186 43 210 25.5 Q234 8 273 8 Z M425 594 Q425 571 409.5 555.5 Q394 540 371 540 Q348 540 332.5 555.5 Q317 571 317 594 Q317 617 332.5 632.5 Q348 648 371 648 Q394 648 409.5 632.5 Q425 617 425 594 Z M224 594 Q224 571 208.5 555.5 Q193 540 170 540 Q147 540 131.5 555.5 Q116 571 116 594 Q116 617 131.5 632.5 Q147 648 170 648 Q193 648 208.5 632.5 Q224 617 224 594 Z " />
<glyph glyph-name="divide" unicode="&#xf7;" horiz-adv-x="690" d="M69 276 L69 327 L621 327 L621 276 L69 276 Z M344 540 Q370 540 387.5 523.5 Q405 507 405 483 Q405 458 387.5 441.5 Q370 425 344 425 Q319 425 301.5 441.5 Q284 458 284 483 Q284 507 301.5 523.5 Q319 540 344 540 Z M346 176 Q372 176 389 159 Q406 142 406 118 Q406 93 389 77 Q372 61 346 61 Q321 61 303.5 77 Q286 93 286 118 Q286 142 303.5 159 Q321 176 346 176 Z " />
<glyph glyph-name="oslash" unicode="&#xf8;" horiz-adv-x="547" d="M273 466 Q305 466 331.5 459 Q358 452 381 440 L409 489 L437 489 L401 427 Q446 396 470.5 345 Q495 294 495 231 Q495 183 479.5 139.5 Q464 96 435.5 63 Q407 30 366 10.5 Q325 -9 273 -9 Q242 -9 215 -2 Q188 5 165 18 L137 -31 L109 -31 L145 31 Q100 64 76 116.5 Q52 169 52 231 Q52 281 67.5 324 Q83 367 111.5 398.5 Q140 430 181 448 Q222 466 273 466 Z M273 8 Q312 8 336.5 25.5 Q361 43 374.5 73.5 Q388 104 393 144.5 Q398 185 398 231 Q398 322 373 378 L184 51 Q198 30 219.5 19 Q241 8 273 8 Z M148 231 Q148 186 153 146 Q158 106 171 76 L360 402 Q327 450 273 450 Q214 450 181 394 Q148 338 148 231 Z " />
<glyph glyph-name="ugrave" unicode="&#xf9;" horiz-adv-x="568" d="M454 -9 Q424 -9 399.5 8 Q375 25 371 67 Q366 58 356.5 45 Q347 32 331 20 Q315 8 293 -0.5 Q271 -9 241 -9 Q196 -9 166 4 Q136 17 118.5 39 Q101 61 94 91 Q87 121 87 154 L87 441 L30 441 L30 457 L177 457 L177 132 Q177 111 180 90 Q183 69 192 52 Q201 35 217.5 24.5 Q234 14 262 14 Q288 14 308.5 25 Q329 36 342.5 54 Q356 72 363 95.5 Q370 119 370 145 L370 441 L313 441 L313 457 L460 457 L460 68 Q460 45 471 33.5 Q482 22 496 22 Q514 22 527 38 L536 28 Q524 11 502 1 Q480 -9 454 -9 Z M381 516 L355 516 L196 609 Q175 622 164.5 630.5 Q154 639 154 655 Q154 671 165.5 680.5 Q177 690 191 690 Q205 690 218 682.5 Q231 675 242 664 L381 516 Z " />
<glyph glyph-name="uacute" unicode="&#xfa;" horiz-adv-x="568" d="M454 -9 Q424 -9 399.5 8 Q375 25 371 67 Q366 58 356.5 45 Q347 32 331 20 Q315 8 293 -0.5 Q271 -9 241 -9 Q196 -9 166 4 Q136 17 118.5 39 Q101 61 94 91 Q87 121 87 154 L87 441 L30 441 L30 457 L177 457 L177 132 Q177 111 180 90 Q183 69 192 52 Q201 35 217.5 24.5 Q234 14 262 14 Q288 14 308.5 25 Q329 36 342.5 54 Q356 72 363 95.5 Q370 119 370 145 L370 441 L313 441 L313 457 L460 457 L460 68 Q460 45 471 33.5 Q482 22 496 22 Q514 22 527 38 L536 28 Q524 11 502 1 Q480 -9 454 -9 Z M343 664 Q354 675 367 682.5 Q380 690 394 690 Q408 690 419.5 680.5 Q431 671 431 655 Q431 639 420.5 630.5 Q410 622 389 609 L230 516 L204 516 L343 664 Z " />
<glyph glyph-name="ucircumflex" unicode="&#xfb;" horiz-adv-x="568" d="M454 -9 Q424 -9 399.5 8 Q375 25 371 67 Q366 58 356.5 45 Q347 32 331 20 Q315 8 293 -0.5 Q271 -9 241 -9 Q196 -9 166 4 Q136 17 118.5 39 Q101 61 94 91 Q87 121 87 154 L87 441 L30 441 L30 457 L177 457 L177 132 Q177 111 180 90 Q183 69 192 52 Q201 35 217.5 24.5 Q234 14 262 14 Q288 14 308.5 25 Q329 36 342.5 54 Q356 72 363 95.5 Q370 119 370 145 L370 441 L313 441 L313 457 L460 457 L460 68 Q460 45 471 33.5 Q482 22 496 22 Q514 22 527 38 L536 28 Q524 11 502 1 Q480 -9 454 -9 Z M408 514 L274 610 L136 516 L118 528 L258 688 L291 688 L427 528 L408 514 Z " />
<glyph glyph-name="udieresis" unicode="&#xfc;" horiz-adv-x="568" d="M454 -9 Q424 -9 399.5 8 Q375 25 371 67 Q366 58 356.5 45 Q347 32 331 20 Q315 8 293 -0.5 Q271 -9 241 -9 Q196 -9 166 4 Q136 17 118.5 39 Q101 61 94 91 Q87 121 87 154 L87 441 L30 441 L30 457 L177 457 L177 132 Q177 111 180 90 Q183 69 192 52 Q201 35 217.5 24.5 Q234 14 262 14 Q288 14 308.5 25 Q329 36 342.5 54 Q356 72 363 95.5 Q370 119 370 145 L370 441 L313 441 L313 457 L460 457 L460 68 Q460 45 471 33.5 Q482 22 496 22 Q514 22 527 38 L536 28 Q524 11 502 1 Q480 -9 454 -9 Z M427 594 Q427 571 411.5 555.5 Q396 540 373 540 Q350 540 334.5 555.5 Q319 571 319 594 Q319 617 334.5 632.5 Q350 648 373 648 Q396 648 411.5 632.5 Q427 617 427 594 Z M226 594 Q226 571 210.5 555.5 Q195 540 172 540 Q149 540 133.5 555.5 Q118 571 118 594 Q118 617 133.5 632.5 Q149 648 172 648 Q195 648 210.5 632.5 Q226 617 226 594 Z " />
<glyph glyph-name="yacute" unicode="&#xfd;" horiz-adv-x="479" d="M27 441 L-30 441 L-30 457 L198 457 L198 441 L123 441 L273 113 L402 441 L330 441 L330 457 L481 457 L481 441 L424 441 L251 0 Q228 -59 209.5 -102.5 Q191 -146 172.5 -174.5 Q154 -203 133.5 -216.5 Q113 -230 86 -230 Q55 -230 37 -211.5 Q19 -193 19 -165 Q19 -161 19.5 -157.5 Q20 -154 21 -149 L116 -149 Q138 -149 152 -141.5 Q166 -134 178 -117 Q190 -100 201.5 -71 Q213 -42 229 0 L27 441 Z M306 664 Q317 675 330 682.5 Q343 690 357 690 Q371 690 382.5 680.5 Q394 671 394 655 Q394 639 383.5 630.5 Q373 622 352 609 L193 516 L167 516 L306 664 Z " />
<glyph glyph-name="thorn" unicode="&#xfe;" horiz-adv-x="560" d="M298 -9 Q255 -9 227.5 11 Q200 31 184 60 L184 -195 L258 -195 L258 -212 L37 -212 L37 -195 L94 -195 L94 711 L37 711 L37 727 L184 727 L184 393 Q198 422 230.5 444 Q263 466 311 466 Q355 466 391.5 448.5 Q428 431 454 401 Q480 371 494.5 329.5 Q509 288 509 240 Q509 188 496 142.5 Q483 97 457 63.5 Q431 30 391.5 10.5 Q352 -9 298 -9 Z M291 9 Q316 9 338 21.5 Q360 34 376.5 61 Q393 88 403 130 Q413 172 413 231 Q413 338 379.5 392 Q346 446 291 446 Q263 446 242.5 433.5 Q222 421 209 400 Q196 379 190 353 Q184 327 184 300 L184 157 Q184 130 190 103.5 Q196 77 209 56 Q222 35 242.5 22 Q263 9 291 9 Z " />
<glyph glyph-name="ydieresis" unicode="&#xff;" horiz-adv-x="479" d="M27 441 L-30 441 L-30 457 L198 457 L198 441 L123 441 L273 113 L402 441 L330 441 L330 457 L481 457 L481 441 L424 441 L251 0 Q228 -59 209.5 -102.5 Q191 -146 172.5 -174.5 Q154 -203 133.5 -216.5 Q113 -230 86 -230 Q55 -230 37 -211.5 Q19 -193 19 -165 Q19 -161 19.5 -157.5 Q20 -154 21 -149 L116 -149 Q138 -149 152 -141.5 Q166 -134 178 -117 Q190 -100 201.5 -71 Q213 -42 229 0 L27 441 Z M410 594 Q410 571 394.5 555.5 Q379 540 356 540 Q333 540 317.5 555.5 Q302 571 302 594 Q302 617 317.5 632.5 Q333 648 356 648 Q379 648 394.5 632.5 Q410 617 410 594 Z M209 594 Q209 571 193.5 555.5 Q178 540 155 540 Q132 540 116.5 555.5 Q101 571 101 594 Q101 617 116.5 632.5 Q132 648 155 648 Q178 648 193.5 632.5 Q209 617 209 594 Z " />
<glyph glyph-name="Amacron" unicode="&#x100;" horiz-adv-x="686" d="M402 18 L510 18 L431 237 L179 237 L95 18 L203 18 L203 0 L0 0 L0 18 L68 18 L332 708 L370 708 L618 18 L686 18 L686 0 L402 0 L402 18 Z M309 578 L187 260 L423 260 L309 578 Z M199 796 L199 850 L488 850 L488 796 L199 796 Z " />
<glyph glyph-name="amacron" unicode="&#x101;" horiz-adv-x="511" d="M326 42 Q307 24 276.5 7.5 Q246 -9 192 -9 Q120 -9 86 25.5 Q52 60 52 113 Q52 156 76 183 Q100 210 135 225 Q170 240 208.5 245.5 Q247 251 276 251 Q290 251 300.5 250.5 Q311 250 319 250 L319 358 Q319 381 311 398.5 Q303 416 289.5 427.5 Q276 439 258 444.5 Q240 450 221 450 Q193 450 166.5 439 Q140 428 125 412 L182 316 Q178 308 165 301.5 Q152 295 135 295 Q112 295 93.5 309.5 Q75 324 75 356 Q75 378 86 398 Q97 418 118 433 Q139 448 168.5 457 Q198 466 235 466 Q289 466 323 453.5 Q357 441 376 420.5 Q395 400 402 374.5 Q409 349 409 323 L409 68 Q409 45 420 33.5 Q431 22 445 22 Q463 22 476 38 L485 28 Q473 11 451 1 Q429 -9 403 -9 Q378 -9 356.5 2.5 Q335 14 326 42 Z M319 235 Q289 233 258.5 229.5 Q228 226 203.5 214.5 Q179 203 163.5 180.5 Q148 158 148 119 Q148 91 155.5 72 Q163 53 175 42 Q187 31 201.5 26 Q216 21 231 21 Q271 21 291.5 35 Q312 49 319 61 L319 235 Z M109 546 L109 600 L398 600 L398 546 L109 546 Z " />
<glyph glyph-name="Abreve" unicode="&#x102;" horiz-adv-x="686" d="M402 18 L510 18 L431 237 L179 237 L95 18 L203 18 L203 0 L0 0 L0 18 L68 18 L332 708 L370 708 L618 18 L686 18 L686 0 L402 0 L402 18 Z M309 578 L187 260 L423 260 L309 578 Z M353 836 Q384 836 407 844.5 Q430 853 445.5 866.5 Q461 880 468.5 896.5 Q476 913 477 928 L503 928 Q502 903 492.5 875.5 Q483 848 465 824.5 Q447 801 419 786 Q391 771 353 771 Q315 771 287 786 Q259 801 241 824.5 Q223 848 213.5 875.5 Q204 903 203 928 L229 928 Q230 913 237.5 896.5 Q245 880 260.5 866.5 Q276 853 299 844.5 Q322 836 353 836 Z " />
<glyph glyph-name="abreve" unicode="&#x103;" horiz-adv-x="511" d="M326 42 Q307 24 276.5 7.5 Q246 -9 192 -9 Q120 -9 86 25.5 Q52 60 52 113 Q52 156 76 183 Q100 210 135 225 Q170 240 208.5 245.5 Q247 251 276 251 Q290 251 300.5 250.5 Q311 250 319 250 L319 358 Q319 381 311 398.5 Q303 416 289.5 427.5 Q276 439 258 444.5 Q240 450 221 450 Q193 450 166.5 439 Q140 428 125 412 L182 316 Q178 308 165 301.5 Q152 295 135 295 Q112 295 93.5 309.5 Q75 324 75 356 Q75 378 86 398 Q97 418 118 433 Q139 448 168.5 457 Q198 466 235 466 Q289 466 323 453.5 Q357 441 376 420.5 Q395 400 402 374.5 Q409 349 409 323 L409 68 Q409 45 420 33.5 Q431 22 445 22 Q463 22 476 38 L485 28 Q473 11 451 1 Q429 -9 403 -9 Q378 -9 356.5 2.5 Q335 14 326 42 Z M319 235 Q289 233 258.5 229.5 Q228 226 203.5 214.5 Q179 203 163.5 180.5 Q148 158 148 119 Q148 91 155.5 72 Q163 53 175 42 Q187 31 201.5 26 Q216 21 231 21 Q271 21 291.5 35 Q312 49 319 61 L319 235 Z M250 586 Q281 586 304 594.5 Q327 603 342.5 616.5 Q358 630 365.5 646.5 Q373 663 374 678 L400 678 Q399 653 389.5 625.5 Q380 598 362 574.5 Q344 551 316 536 Q288 521 250 521 Q212 521 184 536 Q156 551 138 574.5 Q120 598 110.5 625.5 Q101 653 100 678 L126 678 Q127 663 134.5 646.5 Q142 630 157.5 616.5 Q173 603 196 594.5 Q219 586 250 586 Z " />
<glyph glyph-name="Aogonek" unicode="&#x104;" horiz-adv-x="686" d="M402 18 L510 18 L431 237 L179 237 L95 18 L203 18 L203 0 L0 0 L0 18 L68 18 L332 708 L370 708 L618 18 L686 18 L686 0 L617 0 Q582 -26 569.5 -58.5 Q557 -91 557 -123 Q557 -150 569.5 -173 Q582 -196 615 -196 Q632 -196 644.5 -189 Q657 -182 668 -171 L674 -181 Q652 -204 627 -217 Q602 -230 570 -230 Q525 -230 502 -203.5 Q479 -177 479 -142 Q479 -109 502.5 -70.5 Q526 -32 589 0 L402 0 L402 18 Z M309 578 L187 260 L423 260 L309 578 Z " />
<glyph glyph-name="aogonek" unicode="&#x105;" horiz-adv-x="511" d="M326 42 Q307 24 276.5 7.5 Q246 -9 192 -9 Q120 -9 86 25.5 Q52 60 52 113 Q52 156 76 183 Q100 210 135 225 Q170 240 208.5 245.5 Q247 251 276 251 Q290 251 300.5 250.5 Q311 250 319 250 L319 358 Q319 381 311 398.5 Q303 416 289.5 427.5 Q276 439 258 444.5 Q240 450 221 450 Q193 450 166.5 439 Q140 428 125 412 L182 316 Q178 308 165 301.5 Q152 295 135 295 Q112 295 93.5 309.5 Q75 324 75 356 Q75 378 86 398 Q97 418 118 433 Q139 448 168.5 457 Q198 466 235 466 Q289 466 323 453.5 Q357 441 376 420.5 Q395 400 402 374.5 Q409 349 409 323 L409 68 Q409 45 420 33.5 Q431 22 445 22 Q463 22 476 38 L485 28 Q473 11 453.5 4.5 Q434 -2 418 -14 Q386 -37 376.5 -65.5 Q367 -94 367 -123 Q367 -150 379.5 -173 Q392 -196 425 -196 Q442 -196 454.5 -189 Q467 -182 478 -171 L484 -181 Q462 -204 437 -217 Q412 -230 380 -230 Q335 -230 312 -203.5 Q289 -177 289 -142 Q289 -110 310 -74.5 Q331 -39 385 -7 Q365 -4 349.5 7.5 Q334 19 326 42 Z M319 235 Q289 233 258.5 229.5 Q228 226 203.5 214.5 Q179 203 163.5 180.5 Q148 158 148 119 Q148 91 155.5 72 Q163 53 175 42 Q187 31 201.5 26 Q216 21 231 21 Q271 21 291.5 35 Q312 49 319 61 L319 235 Z " />
<glyph glyph-name="Cacute" unicode="&#x106;" horiz-adv-x="674" d="M639 97 Q597 49 539 20 Q481 -9 399 -9 Q313 -9 249 20.5 Q185 50 142 100 Q99 150 78 215 Q57 280 57 351 Q57 418 79.5 482 Q102 546 146.5 596 Q191 646 258 677 Q325 708 414 708 Q470 708 510.5 693.5 Q551 679 577 656.5 Q603 634 615 607 Q627 580 627 555 Q627 516 604 496 Q581 476 552 476 Q526 476 512 485 Q498 494 492 502 L590 612 Q564 649 524 669.5 Q484 690 421 690 Q350 690 302 664 Q254 638 224.5 593.5 Q195 549 182 489.5 Q169 430 169 363 Q169 272 189.5 206.5 Q210 141 244 98.5 Q278 56 322.5 36 Q367 16 415 16 Q480 16 530.5 38 Q581 60 625 110 L639 97 Z M426 904 Q437 915 450 922.5 Q463 930 477 930 Q491 930 502.5 920.5 Q514 911 514 895 Q514 879 503.5 870.5 Q493 862 472 849 L313 756 L287 756 L426 904 Z " />
<glyph glyph-name="cacute" unicode="&#x107;" horiz-adv-x="461" d="M428 56 Q399 25 362 8 Q325 -9 270 -9 Q229 -9 190.5 6 Q152 21 122 50 Q92 79 74 122.5 Q56 166 56 222 Q56 274 71.5 318.5 Q87 363 116.5 396 Q146 429 188.5 447.5 Q231 466 285 466 Q324 466 351.5 456 Q379 446 396 430 Q413 414 421 394 Q429 374 429 355 Q429 320 408.5 302 Q388 284 362 284 Q339 284 326 292 Q313 300 308 308 L395 397 Q391 404 383.5 413 Q376 422 364.5 430.5 Q353 439 337 444.5 Q321 450 299 450 Q232 450 192 394 Q152 338 152 231 Q152 174 165 134 Q178 94 199.5 68.5 Q221 43 249 31.5 Q277 20 307 20 Q342 20 366.5 30.5 Q391 41 418 67 L428 56 Z M308 664 Q319 675 332 682.5 Q345 690 359 690 Q373 690 384.5 680.5 Q396 671 396 655 Q396 639 385.5 630.5 Q375 622 354 609 L195 516 L169 516 L308 664 Z " />
<glyph glyph-name="Ccircumflex" unicode="&#x108;" horiz-adv-x="674" d="M639 97 Q597 49 539 20 Q481 -9 399 -9 Q313 -9 249 20.5 Q185 50 142 100 Q99 150 78 215 Q57 280 57 351 Q57 418 79.5 482 Q102 546 146.5 596 Q191 646 258 677 Q325 708 414 708 Q470 708 510.5 693.5 Q551 679 577 656.5 Q603 634 615 607 Q627 580 627 555 Q627 516 604 496 Q581 476 552 476 Q526 476 512 485 Q498 494 492 502 L590 612 Q564 649 524 669.5 Q484 690 421 690 Q350 690 302 664 Q254 638 224.5 593.5 Q195 549 182 489.5 Q169 430 169 363 Q169 272 189.5 206.5 Q210 141 244 98.5 Q278 56 322.5 36 Q367 16 415 16 Q480 16 530.5 38 Q581 60 625 110 L639 97 Z M521 749 L387 845 L249 751 L231 763 L371 923 L404 923 L540 763 L521 749 Z " />
<glyph glyph-name="ccircumflex" unicode="&#x109;" horiz-adv-x="461" d="M428 56 Q399 25 362 8 Q325 -9 270 -9 Q229 -9 190.5 6 Q152 21 122 50 Q92 79 74 122.5 Q56 166 56 222 Q56 274 71.5 318.5 Q87 363 116.5 396 Q146 429 188.5 447.5 Q231 466 285 466 Q324 466 351.5 456 Q379 446 396 430 Q413 414 421 394 Q429 374 429 355 Q429 320 408.5 302 Q388 284 362 284 Q339 284 326 292 Q313 300 308 308 L395 397 Q391 404 383.5 413 Q376 422 364.5 430.5 Q353 439 337 444.5 Q321 450 299 450 Q232 450 192 394 Q152 338 152 231 Q152 174 165 134 Q178 94 199.5 68.5 Q221 43 249 31.5 Q277 20 307 20 Q342 20 366.5 30.5 Q391 41 418 67 L428 56 Z M398 514 L264 610 L126 516 L108 528 L248 688 L281 688 L417 528 L398 514 Z " />
<glyph glyph-name="Cdotaccent" unicode="&#x10a;" horiz-adv-x="674" d="M639 97 Q597 49 539 20 Q481 -9 399 -9 Q313 -9 249 20.5 Q185 50 142 100 Q99 150 78 215 Q57 280 57 351 Q57 418 79.5 482 Q102 546 146.5 596 Q191 646 258 677 Q325 708 414 708 Q470 708 510.5 693.5 Q551 679 577 656.5 Q603 634 615 607 Q627 580 627 555 Q627 516 604 496 Q581 476 552 476 Q526 476 512 485 Q498 494 492 502 L590 612 Q564 649 524 669.5 Q484 690 421 690 Q350 690 302 664 Q254 638 224.5 593.5 Q195 549 182 489.5 Q169 430 169 363 Q169 272 189.5 206.5 Q210 141 244 98.5 Q278 56 322.5 36 Q367 16 415 16 Q480 16 530.5 38 Q581 60 625 110 L639 97 Z M454 839 Q454 816 437.5 799.5 Q421 783 398 783 Q375 783 358.5 799.5 Q342 816 342 839 Q342 862 358.5 878.5 Q375 895 398 895 Q421 895 437.5 878.5 Q454 862 454 839 Z " />
<glyph glyph-name="cdotaccent" unicode="&#x10b;" horiz-adv-x="461" d="M428 56 Q399 25 362 8 Q325 -9 270 -9 Q229 -9 190.5 6 Q152 21 122 50 Q92 79 74 122.5 Q56 166 56 222 Q56 274 71.5 318.5 Q87 363 116.5 396 Q146 429 188.5 447.5 Q231 466 285 466 Q324 466 351.5 456 Q379 446 396 430 Q413 414 421 394 Q429 374 429 355 Q429 320 408.5 302 Q388 284 362 284 Q339 284 326 292 Q313 300 308 308 L395 397 Q391 404 383.5 413 Q376 422 364.5 430.5 Q353 439 337 444.5 Q321 450 299 450 Q232 450 192 394 Q152 338 152 231 Q152 174 165 134 Q178 94 199.5 68.5 Q221 43 249 31.5 Q277 20 307 20 Q342 20 366.5 30.5 Q391 41 418 67 L428 56 Z M318 594 Q318 571 301.5 554.5 Q285 538 262 538 Q239 538 222.5 554.5 Q206 571 206 594 Q206 617 222.5 633.5 Q239 650 262 650 Q285 650 301.5 633.5 Q318 617 318 594 Z " />
<glyph glyph-name="Ccaron" unicode="&#x10c;" horiz-adv-x="674" d="M639 97 Q597 49 539 20 Q481 -9 399 -9 Q313 -9 249 20.5 Q185 50 142 100 Q99 150 78 215 Q57 280 57 351 Q57 418 79.5 482 Q102 546 146.5 596 Q191 646 258 677 Q325 708 414 708 Q470 708 510.5 693.5 Q551 679 577 656.5 Q603 634 615 607 Q627 580 627 555 Q627 516 604 496 Q581 476 552 476 Q526 476 512 485 Q498 494 492 502 L590 612 Q564 649 524 669.5 Q484 690 421 690 Q350 690 302 664 Q254 638 224.5 593.5 Q195 549 182 489.5 Q169 430 169 363 Q169 272 189.5 206.5 Q210 141 244 98.5 Q278 56 322.5 36 Q367 16 415 16 Q480 16 530.5 38 Q581 60 625 110 L639 97 Z M549 926 L413 766 L380 766 L240 926 L258 938 L396 844 L530 940 L549 926 Z " />
<glyph glyph-name="ccaron" unicode="&#x10d;" horiz-adv-x="461" d="M428 56 Q399 25 362 8 Q325 -9 270 -9 Q229 -9 190.5 6 Q152 21 122 50 Q92 79 74 122.5 Q56 166 56 222 Q56 274 71.5 318.5 Q87 363 116.5 396 Q146 429 188.5 447.5 Q231 466 285 466 Q324 466 351.5 456 Q379 446 396 430 Q413 414 421 394 Q429 374 429 355 Q429 320 408.5 302 Q388 284 362 284 Q339 284 326 292 Q313 300 308 308 L395 397 Q391 404 383.5 413 Q376 422 364.5 430.5 Q353 439 337 444.5 Q321 450 299 450 Q232 450 192 394 Q152 338 152 231 Q152 174 165 134 Q178 94 199.5 68.5 Q221 43 249 31.5 Q277 20 307 20 Q342 20 366.5 30.5 Q391 41 418 67 L428 56 Z M416 676 L280 516 L247 516 L107 676 L125 688 L263 594 L397 690 L416 676 Z " />
<glyph glyph-name="Dcaron" unicode="&#x10e;" horiz-adv-x="760" d="M235 18 L315 18 Q463 18 528.5 99.5 Q594 181 594 351 Q594 436 578 497.5 Q562 559 528.5 599.5 Q495 640 442 659.5 Q389 679 315 679 L235 679 L235 18 Z M135 679 L47 679 L47 697 L324 697 Q419 697 490.5 669 Q562 641 610 593.5 Q658 546 682 483.5 Q706 421 706 351 Q706 281 682 217.5 Q658 154 610 105.5 Q562 57 490.5 28.5 Q419 0 324 0 L47 0 L47 18 L135 18 L135 679 Z M491 926 L355 766 L322 766 L182 926 L200 938 L338 844 L472 940 L491 926 Z " />
<glyph glyph-name="dcaron" unicode="&#x10f;" horiz-adv-x="648" d="M468 68 Q468 45 479 33.5 Q490 22 504 22 Q521 22 534 38 L543 28 Q531 11 509 1 Q487 -9 461 -9 Q432 -9 407.5 7.5 Q383 24 378 63 Q365 36 334 13.5 Q303 -9 259 -9 Q215 -9 177 7 Q139 23 111.5 54 Q84 85 68 129.5 Q52 174 52 231 Q52 281 66.5 324 Q81 367 107 398.5 Q133 430 170 448 Q207 466 251 466 Q298 466 331 444 Q364 422 378 393 L378 711 L321 711 L321 727 L468 727 L468 68 Z M378 300 Q378 327 371.5 353 Q365 379 352 400 Q339 421 319 433.5 Q299 446 271 446 Q216 446 182 394 Q148 342 148 240 Q148 178 158 134.5 Q168 91 184.5 63 Q201 35 223.5 22 Q246 9 271 9 Q299 9 319 22 Q339 35 352 56 Q365 77 371.5 103.5 Q378 130 378 157 L378 300 Z M558 559 Q582 579 589 593.5 Q596 608 596 618 Q596 626 588.5 632 Q581 638 571.5 645 Q562 652 554.5 661.5 Q547 671 547 686 Q547 710 562.5 722.5 Q578 735 596 735 Q616 735 632 721.5 Q648 708 648 682 Q648 670 643.5 653 Q639 636 629 617 Q619 598 604.5 579.5 Q590 561 570 545 L558 559 Z " />
<glyph glyph-name="Dcroat" unicode="&#x110;" horiz-adv-x="760" d="M135 346 L47 346 L47 372 L135 372 L135 679 L47 679 L47 697 L324 697 Q419 697 490.5 669 Q562 641 610 593.5 Q658 546 682 483.5 Q706 421 706 351 Q706 281 682 217.5 Q658 154 610 105.5 Q562 57 490.5 28.5 Q419 0 324 0 L47 0 L47 18 L135 18 L135 346 Z M235 372 L428 372 L428 346 L235 346 L235 18 L315 18 Q463 18 528.5 99.5 Q594 181 594 351 Q594 436 578 497.5 Q562 559 528.5 599.5 Q495 640 442 659.5 Q389 679 315 679 L235 679 L235 372 Z " />
<glyph glyph-name="dcroat" unicode="&#x111;" horiz-adv-x="569" d="M468 587 L525 587 L525 571 L468 571 L468 68 Q468 45 479 33.5 Q490 22 504 22 Q521 22 534 38 L543 28 Q531 11 509 1 Q487 -9 461 -9 Q432 -9 407.5 7.5 Q383 24 378 63 Q365 36 334 13.5 Q303 -9 259 -9 Q215 -9 177 7 Q139 23 111.5 54 Q84 85 68 129.5 Q52 174 52 231 Q52 281 66.5 324 Q81 367 107 398.5 Q133 430 170 448 Q207 466 251 466 Q298 466 331 444 Q364 422 378 393 L378 571 L221 571 L221 587 L378 587 L378 711 L321 711 L321 727 L468 727 L468 587 Z M378 300 Q378 327 371.5 353 Q365 379 352 400 Q339 421 319 433.5 Q299 446 271 446 Q216 446 182 394 Q148 342 148 240 Q148 178 158 134.5 Q168 91 184.5 63 Q201 35 223.5 22 Q246 9 271 9 Q299 9 319 22 Q339 35 352 56 Q365 77 371.5 103.5 Q378 130 378 157 L378 300 Z " />
<glyph glyph-name="Emacron" unicode="&#x112;" horiz-adv-x="648" d="M430 697 Q471 697 500.5 687.5 Q530 678 549 662.5 Q568 647 577 627 Q586 607 586 586 Q586 545 563 525 Q540 505 503 505 Q483 505 470.5 511.5 Q458 518 451 525 L536 638 Q517 661 493.5 670 Q470 679 430 679 L235 679 L235 368 L418 368 L418 350 L235 350 L235 18 L372 18 Q416 18 445.5 28 Q475 38 494.5 58.5 Q514 79 526 109 Q538 139 547 180 L555 216 L577 216 L577 0 L47 0 L47 18 L135 18 L135 679 L47 679 L47 697 L430 697 Z M198 796 L198 850 L487 850 L487 796 L198 796 Z " />
<glyph glyph-name="emacron" unicode="&#x113;" horiz-adv-x="464" d="M262 466 Q345 466 385.5 430.5 Q426 395 426 341 Q426 306 411 280.5 Q396 255 371 238.5 Q346 222 314.5 214 Q283 206 249 206 Q193 206 144 226 Q145 170 157.5 131 Q170 92 191 66.5 Q212 41 239.5 29.5 Q267 18 297 18 Q337 18 365.5 31 Q394 44 426 74 L435 62 Q404 29 362 10 Q320 -9 260 -9 Q219 -9 181 6 Q143 21 113.5 50 Q84 79 66 122.5 Q48 166 48 222 Q48 274 62 318.5 Q76 363 103.5 396 Q131 429 171 447.5 Q211 466 262 466 Z M258 450 Q236 450 216 437 Q196 424 180.5 398 Q165 372 155 333 Q145 294 144 241 Q166 235 187 232 Q208 229 226 229 Q249 229 268.5 234.5 Q288 240 302.5 253 Q317 266 325 287 Q333 308 333 339 Q333 395 311.5 422.5 Q290 450 258 450 Z M117 546 L117 600 L406 600 L406 546 L117 546 Z " />
<glyph glyph-name="Ebreve" unicode="&#x114;" horiz-adv-x="648" d="M430 697 Q471 697 500.5 687.5 Q530 678 549 662.5 Q568 647 577 627 Q586 607 586 586 Q586 545 563 525 Q540 505 503 505 Q483 505 470.5 511.5 Q458 518 451 525 L536 638 Q517 661 493.5 670 Q470 679 430 679 L235 679 L235 368 L418 368 L418 350 L235 350 L235 18 L372 18 Q416 18 445.5 28 Q475 38 494.5 58.5 Q514 79 526 109 Q538 139 547 180 L555 216 L577 216 L577 0 L47 0 L47 18 L135 18 L135 679 L47 679 L47 697 L430 697 Z M332 836 Q363 836 386 844.5 Q409 853 424.5 866.5 Q440 880 447.5 896.5 Q455 913 456 928 L482 928 Q481 903 471.5 875.5 Q462 848 444 824.5 Q426 801 398 786 Q370 771 332 771 Q294 771 266 786 Q238 801 220 824.5 Q202 848 192.5 875.5 Q183 903 182 928 L208 928 Q209 913 216.5 896.5 Q224 880 239.5 866.5 Q255 853 278 844.5 Q301 836 332 836 Z " />
<glyph glyph-name="ebreve" unicode="&#x115;" horiz-adv-x="464" d="M262 466 Q345 466 385.5 430.5 Q426 395 426 341 Q426 306 411 280.5 Q396 255 371 238.5 Q346 222 314.5 214 Q283 206 249 206 Q193 206 144 226 Q145 170 157.5 131 Q170 92 191 66.5 Q212 41 239.5 29.5 Q267 18 297 18 Q337 18 365.5 31 Q394 44 426 74 L435 62 Q404 29 362 10 Q320 -9 260 -9 Q219 -9 181 6 Q143 21 113.5 50 Q84 79 66 122.5 Q48 166 48 222 Q48 274 62 318.5 Q76 363 103.5 396 Q131 429 171 447.5 Q211 466 262 466 Z M258 450 Q236 450 216 437 Q196 424 180.5 398 Q165 372 155 333 Q145 294 144 241 Q166 235 187 232 Q208 229 226 229 Q249 229 268.5 234.5 Q288 240 302.5 253 Q317 266 325 287 Q333 308 333 339 Q333 395 311.5 422.5 Q290 450 258 450 Z M247 586 Q278 586 301 594.5 Q324 603 339.5 616.5 Q355 630 362.5 646.5 Q370 663 371 678 L397 678 Q396 653 386.5 625.5 Q377 598 359 574.5 Q341 551 313 536 Q285 521 247 521 Q209 521 181 536 Q153 551 135 574.5 Q117 598 107.5 625.5 Q98 653 97 678 L123 678 Q124 663 131.5 646.5 Q139 630 154.5 616.5 Q170 603 193 594.5 Q216 586 247 586 Z " />
<glyph glyph-name="Edotaccent" unicode="&#x116;" horiz-adv-x="648" d="M430 697 Q471 697 500.5 687.5 Q530 678 549 662.5 Q568 647 577 627 Q586 607 586 586 Q586 545 563 525 Q540 505 503 505 Q483 505 470.5 511.5 Q458 518 451 525 L536 638 Q517 661 493.5 670 Q470 679 430 679 L235 679 L235 368 L418 368 L418 350 L235 350 L235 18 L372 18 Q416 18 445.5 28 Q475 38 494.5 58.5 Q514 79 526 109 Q538 139 547 180 L555 216 L577 216 L577 0 L47 0 L47 18 L135 18 L135 679 L47 679 L47 697 L430 697 Z M408 839 Q408 816 391.5 799.5 Q375 783 352 783 Q329 783 312.5 799.5 Q296 816 296 839 Q296 862 312.5 878.5 Q329 895 352 895 Q375 895 391.5 878.5 Q408 862 408 839 Z " />
<glyph glyph-name="edotaccent" unicode="&#x117;" horiz-adv-x="464" d="M262 466 Q345 466 385.5 430.5 Q426 395 426 341 Q426 306 411 280.5 Q396 255 371 238.5 Q346 222 314.5 214 Q283 206 249 206 Q193 206 144 226 Q145 170 157.5 131 Q170 92 191 66.5 Q212 41 239.5 29.5 Q267 18 297 18 Q337 18 365.5 31 Q394 44 426 74 L435 62 Q404 29 362 10 Q320 -9 260 -9 Q219 -9 181 6 Q143 21 113.5 50 Q84 79 66 122.5 Q48 166 48 222 Q48 274 62 318.5 Q76 363 103.5 396 Q131 429 171 447.5 Q211 466 262 466 Z M258 450 Q236 450 216 437 Q196 424 180.5 398 Q165 372 155 333 Q145 294 144 241 Q166 235 187 232 Q208 229 226 229 Q249 229 268.5 234.5 Q288 240 302.5 253 Q317 266 325 287 Q333 308 333 339 Q333 395 311.5 422.5 Q290 450 258 450 Z M313 594 Q313 571 296.5 554.5 Q280 538 257 538 Q234 538 217.5 554.5 Q201 571 201 594 Q201 617 217.5 633.5 Q234 650 257 650 Q280 650 296.5 633.5 Q313 617 313 594 Z " />
<glyph glyph-name="Eogonek" unicode="&#x118;" horiz-adv-x="648" d="M430 697 Q471 697 500.5 687.5 Q530 678 549 662.5 Q568 647 577 627 Q586 607 586 586 Q586 545 563 525 Q540 505 503 505 Q483 505 470.5 511.5 Q458 518 451 525 L536 638 Q517 661 493.5 670 Q470 679 430 679 L235 679 L235 368 L418 368 L418 350 L235 350 L235 18 L372 18 Q416 18 445.5 28 Q475 38 494.5 58.5 Q514 79 526 109 Q538 139 547 180 L555 216 L577 216 L577 0 L479 0 Q441 -26 427 -60.5 Q413 -95 413 -127 Q413 -154 425.5 -175 Q438 -196 471 -196 Q488 -196 500.5 -189 Q513 -182 524 -171 L530 -181 Q508 -204 483 -217 Q458 -230 426 -230 Q381 -230 358 -205.5 Q335 -181 335 -146 Q335 -129 341 -110 Q347 -91 360.5 -72 Q374 -53 396.5 -34.5 Q419 -16 453 0 L47 0 L47 18 L135 18 L135 679 L47 679 L47 697 L430 697 Z " />
<glyph glyph-name="eogonek" unicode="&#x119;" horiz-adv-x="464" d="M262 466 Q345 466 385.5 430.5 Q426 395 426 341 Q426 306 411 280.5 Q396 255 371 238.5 Q346 222 314.5 214 Q283 206 249 206 Q193 206 144 226 Q145 170 157.5 131 Q170 92 191 66.5 Q212 41 239.5 29.5 Q267 18 297 18 Q337 18 365.5 31 Q394 44 426 74 L435 62 Q417 42 396 29.5 Q375 17 352 0 Q316 -26 302.5 -58.5 Q289 -91 289 -123 Q289 -150 301.5 -173 Q314 -196 347 -196 Q364 -196 376.5 -189 Q389 -182 400 -171 L406 -181 Q384 -204 359 -217 Q334 -230 302 -230 Q257 -230 234 -203.5 Q211 -177 211 -142 Q211 -110 232.5 -73 Q254 -36 312 -4 Q300 -6 287 -7.5 Q274 -9 260 -9 Q219 -9 181 6 Q143 21 113.5 50 Q84 79 66 122.5 Q48 166 48 222 Q48 274 62 318.5 Q76 363 103.5 396 Q131 429 171 447.5 Q211 466 262 466 Z M258 450 Q236 450 216 437 Q196 424 180.5 398 Q165 372 155 333 Q145 294 144 241 Q166 235 187 232 Q208 229 226 229 Q249 229 268.5 234.5 Q288 240 302.5 253 Q317 266 325 287 Q333 308 333 339 Q333 395 311.5 422.5 Q290 450 258 450 Z " />
<glyph glyph-name="Ecaron" unicode="&#x11a;" horiz-adv-x="648" d="M430 697 Q471 697 500.5 687.5 Q530 678 549 662.5 Q568 647 577 627 Q586 607 586 586 Q586 545 563 525 Q540 505 503 505 Q483 505 470.5 511.5 Q458 518 451 525 L536 638 Q517 661 493.5 670 Q470 679 430 679 L235 679 L235 368 L418 368 L418 350 L235 350 L235 18 L372 18 Q416 18 445.5 28 Q475 38 494.5 58.5 Q514 79 526 109 Q538 139 547 180 L555 216 L577 216 L577 0 L47 0 L47 18 L135 18 L135 679 L47 679 L47 697 L430 697 Z M496 926 L360 766 L327 766 L187 926 L205 938 L343 844 L477 940 L496 926 Z " />
<glyph glyph-name="ecaron" unicode="&#x11b;" horiz-adv-x="464" d="M262 466 Q345 466 385.5 430.5 Q426 395 426 341 Q426 306 411 280.5 Q396 255 371 238.5 Q346 222 314.5 214 Q283 206 249 206 Q193 206 144 226 Q145 170 157.5 131 Q170 92 191 66.5 Q212 41 239.5 29.5 Q267 18 297 18 Q337 18 365.5 31 Q394 44 426 74 L435 62 Q404 29 362 10 Q320 -9 260 -9 Q219 -9 181 6 Q143 21 113.5 50 Q84 79 66 122.5 Q48 166 48 222 Q48 274 62 318.5 Q76 363 103.5 396 Q131 429 171 447.5 Q211 466 262 466 Z M258 450 Q236 450 216 437 Q196 424 180.5 398 Q165 372 155 333 Q145 294 144 241 Q166 235 187 232 Q208 229 226 229 Q249 229 268.5 234.5 Q288 240 302.5 253 Q317 266 325 287 Q333 308 333 339 Q333 395 311.5 422.5 Q290 450 258 450 Z M411 676 L275 516 L242 516 L102 676 L120 688 L258 594 L392 690 L411 676 Z " />
<glyph glyph-name="Gcircumflex" unicode="&#x11c;" horiz-adv-x="755" d="M659 0 L648 0 Q640 4 628 7.5 Q616 11 602 11 Q557 11 510 1 Q463 -9 409 -9 Q318 -9 252 19 Q186 47 142.5 95.5 Q99 144 78 208.5 Q57 273 57 346 Q57 420 81.5 485.5 Q106 551 153.5 600.5 Q201 650 269.5 679 Q338 708 426 708 Q487 708 530.5 693.5 Q574 679 601.5 656.5 Q629 634 641.5 607 Q654 580 654 555 Q654 516 631 496 Q608 476 579 476 Q553 476 539 485 Q525 494 519 502 L617 612 Q588 649 545.5 669.5 Q503 690 433 690 Q364 690 314.5 660.5 Q265 631 232.5 583 Q200 535 184.5 473.5 Q169 412 169 348 Q169 270 187.5 208 Q206 146 239.5 102.5 Q273 59 320 36 Q367 13 424 13 Q443 13 462.5 14 Q482 15 500 17.5 Q518 20 533.5 23 Q549 26 559 31 L559 270 L461 270 L461 288 L727 288 L727 270 L659 270 L659 0 Z M542 749 L408 845 L270 751 L252 763 L392 923 L425 923 L561 763 L542 749 Z " />
<glyph glyph-name="gcircumflex" unicode="&#x11d;" horiz-adv-x="514" d="M133 205 Q118 195 112.5 180 Q107 165 107 154 Q107 136 115 121.5 Q123 107 142.5 95.5 Q162 84 195.5 76 Q229 68 280 63 Q323 58 358 48.5 Q393 39 418.5 22.5 Q444 6 458 -18.5 Q472 -43 472 -77 Q472 -144 417.5 -187 Q363 -230 254 -230 Q212 -230 173.5 -222.5 Q135 -215 106 -198.5 Q77 -182 59.5 -157.5 Q42 -133 42 -98 Q42 -75 49.5 -58 Q57 -41 69 -28.5 Q81 -16 97 -7 Q113 2 130 10 Q97 26 76.5 49 Q56 72 56 110 Q56 136 70.5 166 Q85 196 120 214 Q96 234 84.5 260 Q73 286 73 315 Q73 340 82 367 Q91 394 112.5 416 Q134 438 170.5 452 Q207 466 262 466 Q307 466 338.5 457 Q370 448 393 432 Q402 438 411.5 447.5 Q421 457 421 474 Q421 488 410 503.5 Q399 519 382 533 Q369 544 353.5 554.5 Q338 565 322.5 575 Q307 585 292.5 593 Q278 601 267 607 L129 513 L111 525 L251 685 L284 685 Q300 668 319.5 646.5 Q339 625 358 603.5 Q377 582 392.5 564 Q408 546 416 536 Q424 526 434 509 Q444 492 444 477 Q444 454 432 441.5 Q420 429 406 421 Q431 398 441 370 Q451 342 451 315 Q451 288 440 262 Q429 236 406 216.5 Q383 197 347 185 Q311 173 262 173 Q219 173 187.5 181.5 Q156 190 133 205 Z M262 189 Q291 189 309 200.5 Q327 212 337.5 230 Q348 248 351.5 270.5 Q355 293 355 315 Q355 339 350.5 363.5 Q346 388 335.5 407 Q325 426 307 438 Q289 450 262 450 Q235 450 217 438 Q199 426 188.5 407 Q178 388 173.5 363.5 Q169 339 169 315 Q169 293 173 270.5 Q177 248 187 230 Q197 212 215 200.5 Q233 189 262 189 Z M392 -111 Q392 -70 363.5 -49.5 Q335 -29 287 -22 Q250 -17 217 -11 Q184 -5 147 4 Q130 -18 122 -41.5 Q114 -65 114 -94 Q114 -119 122.5 -140.5 Q131 -162 148.5 -178 Q166 -194 194 -203.5 Q222 -213 261 -213 Q325 -213 358.5 -183 Q392 -153 392 -111 Z " />
<glyph glyph-name="Gbreve" unicode="&#x11e;" horiz-adv-x="755" d="M659 0 L648 0 Q640 4 628 7.5 Q616 11 602 11 Q557 11 510 1 Q463 -9 409 -9 Q318 -9 252 19 Q186 47 142.5 95.5 Q99 144 78 208.5 Q57 273 57 346 Q57 420 81.5 485.5 Q106 551 153.5 600.5 Q201 650 269.5 679 Q338 708 426 708 Q487 708 530.5 693.5 Q574 679 601.5 656.5 Q629 634 641.5 607 Q654 580 654 555 Q654 516 631 496 Q608 476 579 476 Q553 476 539 485 Q525 494 519 502 L617 612 Q588 649 545.5 669.5 Q503 690 433 690 Q364 690 314.5 660.5 Q265 631 232.5 583 Q200 535 184.5 473.5 Q169 412 169 348 Q169 270 187.5 208 Q206 146 239.5 102.5 Q273 59 320 36 Q367 13 424 13 Q443 13 462.5 14 Q482 15 500 17.5 Q518 20 533.5 23 Q549 26 559 31 L559 270 L461 270 L461 288 L727 288 L727 270 L659 270 L659 0 Z M410 836 Q441 836 464 844.5 Q487 853 502.5 866.5 Q518 880 525.5 896.5 Q533 913 534 928 L560 928 Q559 903 549.5 875.5 Q540 848 522 824.5 Q504 801 476 786 Q448 771 410 771 Q372 771 344 786 Q316 801 298 824.5 Q280 848 270.5 875.5 Q261 903 260 928 L286 928 Q287 913 294.5 896.5 Q302 880 317.5 866.5 Q333 853 356 844.5 Q379 836 410 836 Z " />
<glyph glyph-name="gbreve" unicode="&#x11f;" horiz-adv-x="514" d="M392 -111 Q392 -69 363.5 -49 Q335 -29 287 -22 Q250 -17 217 -11 Q184 -5 147 4 Q130 -18 122 -41.5 Q114 -65 114 -94 Q114 -119 122.5 -140.5 Q131 -162 148.5 -178 Q166 -194 194 -203.5 Q222 -213 261 -213 Q325 -213 358.5 -183 Q392 -153 392 -111 Z M262 189 Q291 189 309 200.5 Q327 212 337.5 230 Q348 248 351.5 270.5 Q355 293 355 315 Q355 339 350.5 363.5 Q346 388 335.5 407 Q325 426 307 438 Q289 450 262 450 Q235 450 217 438 Q199 426 188.5 407 Q178 388 173.5 363.5 Q169 339 169 315 Q169 293 173 270.5 Q177 248 187 230 Q197 212 215 200.5 Q233 189 262 189 Z M406 421 Q431 398 441 370 Q451 342 451 315 Q451 288 440 262 Q429 236 406 216.5 Q383 197 347 185 Q311 173 262 173 Q219 173 187.5 181.5 Q156 190 133 205 Q118 195 112.5 180 Q107 165 107 154 Q107 136 115 121.5 Q123 107 142.5 95.5 Q162 84 195.5 76 Q229 68 280 63 Q323 58 358 48.5 Q393 39 418.5 22.5 Q444 6 458 -18.5 Q472 -43 472 -77 Q472 -144 417.5 -187 Q363 -230 254 -230 Q212 -230 173.5 -222.5 Q135 -215 106 -198.5 Q77 -182 59.5 -157.5 Q42 -133 42 -98 Q42 -75 49.5 -58 Q57 -41 69 -28.5 Q81 -16 97 -7 Q113 2 130 10 Q97 26 76.5 49 Q56 72 56 110 Q56 136 70.5 166 Q85 196 120 214 Q96 234 84.5 260 Q73 286 73 315 Q73 340 82 367 Q91 394 112.5 416 Q134 438 170.5 452 Q207 466 262 466 Q307 466 338.5 457 Q370 448 392 433 Q426 451 426 485 Q426 502 416.5 507 Q407 512 390 512 L358 512 Q357 516 356.5 518.5 Q356 521 356 525 Q356 541 367 553.5 Q378 566 403 566 Q425 566 441 551 Q457 536 457 506 Q457 486 446.5 463.5 Q436 441 406 421 Z M262 586 Q289 586 308 594.5 Q327 603 340 616.5 Q353 630 359 646.5 Q365 663 366 678 L392 678 Q391 653 385 625.5 Q379 598 364.5 574.5 Q350 551 325 536 Q300 521 262 521 Q224 521 199 536 Q174 551 159.5 574.5 Q145 598 139 625.5 Q133 653 132 678 L158 678 Q159 663 165 646.5 Q171 630 184 616.5 Q197 603 216 594.5 Q235 586 262 586 Z " />
<glyph glyph-name="Gdotaccent" unicode="&#x120;" horiz-adv-x="755" d="M659 0 L648 0 Q640 4 628 7.5 Q616 11 602 11 Q557 11 510 1 Q463 -9 409 -9 Q318 -9 252 19 Q186 47 142.5 95.5 Q99 144 78 208.5 Q57 273 57 346 Q57 420 81.5 485.5 Q106 551 153.5 600.5 Q201 650 269.5 679 Q338 708 426 708 Q487 708 530.5 693.5 Q574 679 601.5 656.5 Q629 634 641.5 607 Q654 580 654 555 Q654 516 631 496 Q608 476 579 476 Q553 476 539 485 Q525 494 519 502 L617 612 Q588 649 545.5 669.5 Q503 690 433 690 Q364 690 314.5 660.5 Q265 631 232.5 583 Q200 535 184.5 473.5 Q169 412 169 348 Q169 270 187.5 208 Q206 146 239.5 102.5 Q273 59 320 36 Q367 13 424 13 Q443 13 462.5 14 Q482 15 500 17.5 Q518 20 533.5 23 Q549 26 559 31 L559 270 L461 270 L461 288 L727 288 L727 270 L659 270 L659 0 Z M468 849 Q468 826 451.5 809.5 Q435 793 412 793 Q389 793 372.5 809.5 Q356 826 356 849 Q356 872 372.5 888.5 Q389 905 412 905 Q435 905 451.5 888.5 Q468 872 468 849 Z " />
<glyph glyph-name="gdotaccent" unicode="&#x121;" horiz-adv-x="514" d="M133 205 Q118 195 112.5 180 Q107 165 107 154 Q107 136 115 121.5 Q123 107 142.5 95.5 Q162 84 195.5 76 Q229 68 280 63 Q323 58 358 48.5 Q393 39 418.5 22.5 Q444 6 458 -18.5 Q472 -43 472 -77 Q472 -144 417.5 -187 Q363 -230 254 -230 Q212 -230 173.5 -222.5 Q135 -215 106 -198.5 Q77 -182 59.5 -157.5 Q42 -133 42 -98 Q42 -75 49.5 -58 Q57 -41 69 -28.5 Q81 -16 97 -7 Q113 2 130 10 Q97 26 76.5 49 Q56 72 56 110 Q56 136 70.5 166 Q85 196 120 214 Q96 234 84.5 260 Q73 286 73 315 Q73 340 82 367 Q91 394 112.5 416 Q134 438 170.5 452 Q207 466 262 466 Q290 466 316 461.5 Q342 457 365 447 Q399 471 416.5 502.5 Q434 534 434 567 Q434 594 425 613 Q416 632 401.5 644.5 Q387 657 369.5 663 Q352 669 335 669 Q306 669 286 659 Q266 649 255 635 Q258 636 264 636 Q290 636 304 619 Q318 602 318 582 Q318 559 302.5 543.5 Q287 528 264 528 Q240 528 225 545.5 Q210 563 210 591 Q210 610 219 627.5 Q228 645 244.5 658.5 Q261 672 283.5 680.5 Q306 689 334 689 Q386 689 422 658.5 Q458 628 458 570 Q458 526 433 493.5 Q408 461 378 440 Q411 423 431 392 Q451 361 451 315 Q451 288 440 262 Q429 236 406 216.5 Q383 197 347 185 Q311 173 262 173 Q219 173 187.5 181.5 Q156 190 133 205 Z M262 189 Q291 189 309 200.5 Q327 212 337.5 230 Q348 248 351.5 270.5 Q355 293 355 315 Q355 339 350.5 363.5 Q346 388 335.5 407 Q325 426 307 438 Q289 450 262 450 Q235 450 217 438 Q199 426 188.5 407 Q178 388 173.5 363.5 Q169 339 169 315 Q169 293 173 270.5 Q177 248 187 230 Q197 212 215 200.5 Q233 189 262 189 Z M392 -111 Q392 -70 363.5 -49.5 Q335 -29 287 -22 Q250 -17 217 -11 Q184 -5 147 4 Q130 -18 122 -41.5 Q114 -65 114 -94 Q114 -119 122.5 -140.5 Q131 -162 148.5 -178 Q166 -194 194 -203.5 Q222 -213 261 -213 Q325 -213 358.5 -183 Q392 -153 392 -111 Z " />
<glyph glyph-name="Gcommaaccent" unicode="&#x122;" horiz-adv-x="755" d="M659 0 L648 0 Q640 4 628 7.5 Q616 11 602 11 Q557 11 510 1 Q463 -9 409 -9 Q318 -9 252 19 Q186 47 142.5 95.5 Q99 144 78 208.5 Q57 273 57 346 Q57 420 81.5 485.5 Q106 551 153.5 600.5 Q201 650 269.5 679 Q338 708 426 708 Q487 708 530.5 693.5 Q574 679 601.5 656.5 Q629 634 641.5 607 Q654 580 654 555 Q654 516 631 496 Q608 476 579 476 Q553 476 539 485 Q525 494 519 502 L617 612 Q588 649 545.5 669.5 Q503 690 433 690 Q364 690 314.5 660.5 Q265 631 232.5 583 Q200 535 184.5 473.5 Q169 412 169 348 Q169 270 187.5 208 Q206 146 239.5 102.5 Q273 59 320 36 Q367 13 424 13 Q443 13 462.5 14 Q482 15 500 17.5 Q518 20 533.5 23 Q549 26 559 31 L559 270 L461 270 L461 288 L727 288 L727 270 L659 270 L659 0 Z M364 -221 Q388 -201 395 -186.5 Q402 -172 402 -162 Q402 -154 394.5 -148 Q387 -142 377.5 -135 Q368 -128 360.5 -118.5 Q353 -109 353 -94 Q353 -70 368.5 -57.5 Q384 -45 402 -45 Q422 -45 438 -58.5 Q454 -72 454 -98 Q454 -110 449.5 -127 Q445 -144 435 -163 Q425 -182 410.5 -200.5 Q396 -219 376 -235 L364 -221 Z " />
<glyph glyph-name="gcommaaccent" unicode="&#x123;" horiz-adv-x="514" d="M301 704 Q277 684 270 669.5 Q263 655 263 645 Q263 637 270.5 631 Q278 625 287.5 618 Q297 611 304.5 601.5 Q312 592 312 577 Q312 553 296.5 540.5 Q281 528 263 528 Q243 528 227 541.5 Q211 555 211 581 Q211 593 215.5 610 Q220 627 230 645.5 Q240 664 254.5 683 Q269 702 289 718 L301 704 Z M392 -111 Q392 -69 363.5 -49 Q335 -29 287 -22 Q250 -17 217 -11 Q184 -5 147 4 Q130 -18 122 -41.5 Q114 -65 114 -94 Q114 -119 122.5 -140.5 Q131 -162 148.5 -178 Q166 -194 194 -203.5 Q222 -213 261 -213 Q325 -213 358.5 -183 Q392 -153 392 -111 Z M262 189 Q291 189 309 200.5 Q327 212 337.5 230 Q348 248 351.5 270.5 Q355 293 355 315 Q355 339 350.5 363.5 Q346 388 335.5 407 Q325 426 307 438 Q289 450 262 450 Q235 450 217 438 Q199 426 188.5 407 Q178 388 173.5 363.5 Q169 339 169 315 Q169 293 173 270.5 Q177 248 187 230 Q197 212 215 200.5 Q233 189 262 189 Z M406 421 Q431 398 441 370 Q451 342 451 315 Q451 288 440 262 Q429 236 406 216.5 Q383 197 347 185 Q311 173 262 173 Q219 173 187.5 181.5 Q156 190 133 205 Q118 195 112.5 180 Q107 165 107 154 Q107 136 115 121.5 Q123 107 142.5 95.5 Q162 84 195.5 76 Q229 68 280 63 Q323 58 358 48.5 Q393 39 418.5 22.5 Q444 6 458 -18.5 Q472 -43 472 -77 Q472 -144 417.5 -187 Q363 -230 254 -230 Q212 -230 173.5 -222.5 Q135 -215 106 -198.5 Q77 -182 59.5 -157.5 Q42 -133 42 -98 Q42 -75 49.5 -58 Q57 -41 69 -28.5 Q81 -16 97 -7 Q113 2 130 10 Q97 26 76.5 49 Q56 72 56 110 Q56 136 70.5 166 Q85 196 120 214 Q96 234 84.5 260 Q73 286 73 315 Q73 340 82 367 Q91 394 112.5 416 Q134 438 170.5 452 Q207 466 262 466 Q307 466 338.5 457 Q370 448 392 433 Q426 451 426 485 Q426 502 416.5 507 Q407 512 390 512 L358 512 Q357 516 356.5 518.5 Q356 521 356 525 Q356 541 367 553.5 Q378 566 403 566 Q425 566 441 551 Q457 536 457 506 Q457 486 446.5 463.5 Q436 441 406 421 Z " />
<glyph glyph-name="Hcircumflex" unicode="&#x124;" horiz-adv-x="852" d="M235 18 L323 18 L323 0 L47 0 L47 18 L135 18 L135 679 L47 679 L47 697 L323 697 L323 679 L235 679 L235 377 L617 377 L617 679 L529 679 L529 697 L805 697 L805 679 L717 679 L717 18 L805 18 L805 0 L529 0 L529 18 L617 18 L617 355 L235 355 L235 18 Z M560 774 L426 870 L288 776 L270 788 L410 948 L443 948 L579 788 L560 774 Z " />
<glyph glyph-name="hcircumflex" unicode="&#x125;" horiz-adv-x="582" d="M480 68 Q480 45 491 33.5 Q502 22 516 22 Q534 22 547 38 L556 28 Q543 11 521.5 1 Q500 -9 474 -9 Q458 -9 443 -4 Q428 1 416 12 Q404 23 397 40.5 Q390 58 390 84 L390 326 Q390 382 371 412.5 Q352 443 304 443 Q276 443 254.5 432 Q233 421 218 403.5 Q203 386 195.5 363.5 Q188 341 188 317 L188 16 L244 16 L244 0 L41 0 L41 16 L98 16 L98 711 L41 711 L41 727 L188 727 L188 390 Q193 400 203 413.5 Q213 427 230 438.5 Q247 450 270.5 458 Q294 466 326 466 Q371 466 400.5 453 Q430 440 448 418 Q466 396 473 366 Q480 336 480 303 L480 68 Z M272 727 L138 823 L0 729 L-18 741 L122 901 L155 901 L291 741 L272 727 Z " />
<glyph glyph-name="Hbar" unicode="&#x126;" horiz-adv-x="852" d="M235 18 L323 18 L323 0 L47 0 L47 18 L135 18 L135 520 L47 520 L47 538 L135 538 L135 679 L47 679 L47 697 L323 697 L323 679 L235 679 L235 538 L617 538 L617 679 L529 679 L529 697 L805 697 L805 679 L717 679 L717 538 L805 538 L805 520 L717 520 L717 18 L805 18 L805 0 L529 0 L529 18 L617 18 L617 355 L235 355 L235 18 Z M617 377 L617 520 L235 520 L235 377 L617 377 Z " />
<glyph glyph-name="hbar" unicode="&#x127;" horiz-adv-x="582" d="M480 68 Q480 45 491 33.5 Q502 22 516 22 Q534 22 547 38 L556 28 Q543 11 521.5 1 Q500 -9 474 -9 Q458 -9 443 -4 Q428 1 416 12 Q404 23 397 40.5 Q390 58 390 84 L390 326 Q390 382 371 412.5 Q352 443 304 443 Q276 443 254.5 432 Q233 421 218 403.5 Q203 386 195.5 363.5 Q188 341 188 317 L188 16 L244 16 L244 0 L41 0 L41 16 L98 16 L98 571 L37 571 L37 587 L98 587 L98 711 L41 711 L41 727 L188 727 L188 587 L331 587 L331 571 L188 571 L188 390 Q193 400 203 413.5 Q213 427 230 438.5 Q247 450 270.5 458 Q294 466 326 466 Q371 466 400.5 453 Q430 440 448 418 Q466 396 473 366 Q480 336 480 303 L480 68 Z " />
<glyph glyph-name="Itilde" unicode="&#x128;" horiz-adv-x="370" d="M47 0 L47 18 L135 18 L135 679 L47 679 L47 697 L323 697 L323 679 L235 679 L235 18 L323 18 L323 0 L47 0 Z M354 892 Q347 837 319 809.5 Q291 782 250 782 Q227 782 207.5 789.5 Q188 797 170 805.5 Q152 814 134.5 821.5 Q117 829 100 829 Q81 829 63 818 Q45 807 36 778 L21 778 Q28 833 56 860.5 Q84 888 125 888 Q147 888 167 880.5 Q187 873 205 864.5 Q223 856 240.5 848.5 Q258 841 275 841 Q294 841 312 852 Q330 863 339 892 L354 892 Z " />
<glyph glyph-name="itilde" unicode="&#x129;" horiz-adv-x="292" d="M191 457 L191 16 L247 16 L247 0 L44 0 L44 16 L101 16 L101 441 L44 441 L44 457 L191 457 Z M308 642 Q301 587 273 559.5 Q245 532 204 532 Q181 532 161.5 539.5 Q142 547 124 555.5 Q106 564 88.5 571.5 Q71 579 54 579 Q35 579 17 568 Q-1 557 -10 528 L-25 528 Q-18 583 10 610.5 Q38 638 79 638 Q101 638 121 630.5 Q141 623 159 614.5 Q177 606 194.5 598.5 Q212 591 229 591 Q248 591 266 602 Q284 613 293 642 L308 642 Z " />
<glyph glyph-name="Imacron" unicode="&#x12a;" horiz-adv-x="370" d="M47 0 L47 18 L135 18 L135 679 L47 679 L47 697 L323 697 L323 679 L235 679 L235 18 L323 18 L323 0 L47 0 Z M45 796 L45 850 L324 850 L324 796 L45 796 Z " />
<glyph glyph-name="imacron" unicode="&#x12b;" horiz-adv-x="292" d="M191 457 L191 16 L247 16 L247 0 L44 0 L44 16 L101 16 L101 441 L44 441 L44 457 L191 457 Z M26 546 L26 600 L254 600 L254 546 L26 546 Z " />
<glyph glyph-name="Ibreve" unicode="&#x12c;" horiz-adv-x="370" d="M47 0 L47 18 L135 18 L135 679 L47 679 L47 697 L323 697 L323 679 L235 679 L235 18 L323 18 L323 0 L47 0 Z M185 836 Q216 836 239 844.5 Q262 853 277.5 866.5 Q293 880 300.5 896.5 Q308 913 309 928 L335 928 Q334 903 324.5 875.5 Q315 848 297 824.5 Q279 801 251 786 Q223 771 185 771 Q147 771 119 786 Q91 801 73 824.5 Q55 848 45.5 875.5 Q36 903 35 928 L61 928 Q62 913 69.5 896.5 Q77 880 92.5 866.5 Q108 853 131 844.5 Q154 836 185 836 Z " />
<glyph glyph-name="ibreve" unicode="&#x12d;" horiz-adv-x="292" d="M191 457 L191 16 L247 16 L247 0 L44 0 L44 16 L101 16 L101 441 L44 441 L44 457 L191 457 Z M146 586 Q173 586 192 594.5 Q211 603 224 616.5 Q237 630 243 646.5 Q249 663 250 678 L276 678 Q275 653 269 625.5 Q263 598 248.5 574.5 Q234 551 209 536 Q184 521 146 521 Q108 521 83 536 Q58 551 43.5 574.5 Q29 598 23 625.5 Q17 653 16 678 L42 678 Q43 663 49 646.5 Q55 630 68 616.5 Q81 603 100 594.5 Q119 586 146 586 Z " />
<glyph glyph-name="Iogonek" unicode="&#x12e;" horiz-adv-x="370" d="M234 0 Q199 -26 186.5 -59 Q174 -92 174 -123 Q174 -150 186.5 -173 Q199 -196 232 -196 Q249 -196 261.5 -189 Q274 -182 285 -171 L291 -181 Q269 -204 244 -217 Q219 -230 187 -230 Q142 -230 119 -203.5 Q96 -177 96 -142 Q96 -109 119.5 -70.5 Q143 -32 206 0 L47 0 L47 18 L135 18 L135 679 L47 679 L47 697 L323 697 L323 679 L235 679 L235 18 L323 18 L323 0 L234 0 Z " />
<glyph glyph-name="iogonek" unicode="&#x12f;" horiz-adv-x="292" d="M191 457 L191 16 L247 16 L247 0 L190 0 Q156 -26 143 -59 Q130 -92 130 -123 Q130 -150 142.5 -173 Q155 -196 188 -196 Q205 -196 217.5 -189 Q230 -182 241 -171 L247 -181 Q225 -204 200 -217 Q175 -230 143 -230 Q98 -230 75 -203.5 Q52 -177 52 -142 Q52 -108 75.5 -70 Q99 -32 162 0 L44 0 L44 16 L101 16 L101 441 L44 441 L44 457 L191 457 Z M202 595 Q202 571 185.5 554.5 Q169 538 146 538 Q123 538 107 554.5 Q91 571 91 595 Q91 618 107 634 Q123 650 146 650 Q169 650 185.5 634 Q202 618 202 595 Z " />
<glyph glyph-name="Idotaccent" unicode="&#x130;" horiz-adv-x="370" d="M47 0 L47 18 L135 18 L135 679 L47 679 L47 697 L323 697 L323 679 L235 679 L235 18 L323 18 L323 0 L47 0 Z M241 839 Q241 816 224.5 799.5 Q208 783 185 783 Q162 783 145.5 799.5 Q129 816 129 839 Q129 862 145.5 878.5 Q162 895 185 895 Q208 895 224.5 878.5 Q241 862 241 839 Z " />
<glyph glyph-name="dotlessi" unicode="&#x131;" horiz-adv-x="292" d="M191 457 L191 16 L247 16 L247 0 L44 0 L44 16 L101 16 L101 441 L44 441 L44 457 L191 457 Z " />
<glyph glyph-name="IJ" unicode="&#x132;" horiz-adv-x="708" d="M47 0 L47 18 L135 18 L135 679 L47 679 L47 697 L323 697 L323 679 L235 679 L235 18 L323 18 L323 0 L47 0 Z M352 -73 Q361 -81 377 -86 Q393 -91 407 -91 Q443 -91 463 -57.5 Q483 -24 483 27 L483 679 L395 679 L395 697 L671 697 L671 679 L583 679 L583 137 Q583 21 545.5 -44.5 Q508 -110 420 -110 Q398 -110 379 -104.5 Q360 -99 343 -85 L352 -73 Z " />
<glyph glyph-name="ij" unicode="&#x133;" horiz-adv-x="546" d="M191 457 L191 16 L247 16 L247 0 L44 0 L44 16 L101 16 L101 441 L44 441 L44 457 L191 457 Z M202 595 Q202 571 185.5 554.5 Q169 538 146 538 Q123 538 107 554.5 Q91 571 91 595 Q91 618 107 634 Q123 650 146 650 Q169 650 185.5 634 Q202 618 202 595 Z M277 -218 Q299 -213 315 -203 Q331 -193 341.5 -175 Q352 -157 356.5 -129.5 Q361 -102 361 -62 L361 441 L286 441 L286 457 L451 457 L451 -17 Q451 -54 440.5 -90.5 Q430 -127 409 -157 Q388 -187 355.5 -207 Q323 -227 280 -230 L277 -218 Z M462 595 Q462 571 445.5 554.5 Q429 538 406 538 Q383 538 367 554.5 Q351 571 351 595 Q351 618 367 634 Q383 650 406 650 Q429 650 445.5 634 Q462 618 462 595 Z " />
<glyph glyph-name="Jcircumflex" unicode="&#x134;" horiz-adv-x="361" d="M13 -73 Q22 -81 38 -86 Q54 -91 68 -91 Q104 -91 124 -57.5 Q144 -24 144 27 L144 679 L56 679 L56 697 L332 697 L332 679 L244 679 L244 137 Q244 21 206.5 -44.5 Q169 -110 81 -110 Q59 -110 40 -104.5 Q21 -99 4 -85 L13 -73 Z M327 749 L193 845 L55 751 L37 763 L177 923 L210 923 L346 763 L327 749 Z " />
<glyph glyph-name="jcircumflex" unicode="&#x135;" horiz-adv-x="284" d="M15 -218 Q37 -213 53 -203 Q69 -193 79.5 -175 Q90 -157 94.5 -129.5 Q99 -102 99 -62 L99 441 L24 441 L24 457 L189 457 L189 -17 Q189 -54 178.5 -90.5 Q168 -127 147 -157 Q126 -187 93.5 -207 Q61 -227 18 -230 L15 -218 Z M258 511 L144 605 L26 513 L8 525 L128 685 L161 685 L277 525 L258 511 Z " />
<glyph glyph-name="Kcommaaccent" unicode="&#x136;" horiz-adv-x="714" d="M235 18 L323 18 L323 0 L47 0 L47 18 L135 18 L135 679 L47 679 L47 697 L323 697 L323 679 L235 679 L235 312 L448 438 Q515 478 552.5 516 Q590 554 590 587 Q590 624 555 624 L468 624 Q466 634 466 640 Q466 668 486.5 688 Q507 708 542 708 Q564 708 579.5 699.5 Q595 691 605 678 Q615 665 620 648 Q625 631 625 615 Q625 560 580 513.5 Q535 467 456 421 L391 383 Q403 385 415.5 386.5 Q428 388 440 388 Q469 388 496 380.5 Q523 373 544 355 Q565 337 577.5 307.5 Q590 278 590 235 L590 133 Q590 75 602.5 54 Q615 33 640 33 Q655 33 665.5 42.5 Q676 52 684 66 L697 55 Q682 27 658 9 Q634 -9 594 -9 Q573 -9 554.5 -1 Q536 7 521.5 26.5 Q507 46 498.5 78.5 Q490 111 490 161 L490 252 Q490 285 483 307.5 Q476 330 463.5 343.5 Q451 357 434.5 363 Q418 369 399 369 Q379 369 368 364 Q357 359 342 350 L235 286 L235 18 Z M362 -221 Q386 -201 393 -186.5 Q400 -172 400 -162 Q400 -154 392.5 -148 Q385 -142 375.5 -135 Q366 -128 358.5 -118.5 Q351 -109 351 -94 Q351 -70 366.5 -57.5 Q382 -45 400 -45 Q420 -45 436 -58.5 Q452 -72 452 -98 Q452 -110 447.5 -127 Q443 -144 433 -163 Q423 -182 408.5 -200.5 Q394 -219 374 -235 L362 -221 Z " />
<glyph glyph-name="kcommaaccent" unicode="&#x137;" horiz-adv-x="542" d="M447 68 Q447 45 458 33.5 Q469 22 483 22 Q500 22 513 38 L522 28 Q510 11 488.5 1 Q467 -9 441 -9 Q408 -9 382.5 12 Q357 33 357 84 L357 151 Q357 192 339 214.5 Q321 237 288 237 Q262 237 225 223 L188 209 L188 16 L244 16 L244 0 L41 0 L41 16 L98 16 L98 711 L41 711 L41 727 L188 727 L188 229 L329 282 Q359 293 377.5 303 Q396 313 407 323 Q418 333 422 342 Q426 351 426 361 Q426 391 390 391 L317 391 Q315 401 315 406 Q315 431 333 448.5 Q351 466 383 466 Q402 466 416.5 459.5 Q431 453 440 442.5 Q449 432 453.5 419 Q458 406 458 393 Q458 345 423 315 Q388 285 331 264 L301 253 Q309 255 317 255 Q325 255 333 255 Q383 255 415 224 Q447 193 447 133 L447 68 Z M257 -221 Q281 -201 288 -186.5 Q295 -172 295 -162 Q295 -154 287.5 -148 Q280 -142 270.5 -135 Q261 -128 253.5 -118.5 Q246 -109 246 -94 Q246 -70 261.5 -57.5 Q277 -45 295 -45 Q315 -45 331 -58.5 Q347 -72 347 -98 Q347 -110 342.5 -127 Q338 -144 328 -163 Q318 -182 303.5 -200.5 Q289 -219 269 -235 L257 -221 Z " />
<glyph glyph-name="Lacute" unicode="&#x139;" horiz-adv-x="631" d="M245 904 Q256 915 269 922.5 Q282 930 296 930 Q310 930 321.5 920.5 Q333 911 333 895 Q333 879 322.5 870.5 Q312 862 291 849 L132 756 L106 756 L245 904 Z M47 0 L47 18 L135 18 L135 679 L47 679 L47 697 L343 697 L343 679 L235 679 L235 18 L373 18 Q422 18 453 31.5 Q484 45 503.5 72 Q523 99 534.5 140 Q546 181 556 236 L578 236 L578 0 L47 0 Z " />
<glyph glyph-name="lacute" unicode="&#x13a;" horiz-adv-x="295" d="M173 102 Q173 59 190.5 40.5 Q208 22 229 22 Q258 22 279 49 L287 40 Q271 16 246 3.5 Q221 -9 193 -9 Q172 -9 152 -2.5 Q132 4 116.5 19.5 Q101 35 92 61.5 Q83 88 83 127 L83 711 L26 711 L26 727 L173 727 L173 102 Z M162 904 Q173 915 186 922.5 Q199 930 213 930 Q227 930 238.5 920.5 Q250 911 250 895 Q250 879 239.5 870.5 Q229 862 208 849 L49 756 L23 756 L162 904 Z " />
<glyph glyph-name="Lcommaaccent" unicode="&#x13b;" horiz-adv-x="631" d="M47 0 L47 18 L135 18 L135 679 L47 679 L47 697 L343 697 L343 679 L235 679 L235 18 L373 18 Q422 18 453 31.5 Q484 45 503.5 72 Q523 99 534.5 140 Q546 181 556 236 L578 236 L578 0 L47 0 Z M303 -221 Q327 -201 334 -186.5 Q341 -172 341 -162 Q341 -154 333.5 -148 Q326 -142 316.5 -135 Q307 -128 299.5 -118.5 Q292 -109 292 -94 Q292 -70 307.5 -57.5 Q323 -45 341 -45 Q361 -45 377 -58.5 Q393 -72 393 -98 Q393 -110 388.5 -127 Q384 -144 374 -163 Q364 -182 349.5 -200.5 Q335 -219 315 -235 L303 -221 Z " />
<glyph glyph-name="lcommaaccent" unicode="&#x13c;" horiz-adv-x="295" d="M173 102 Q173 59 190.5 40.5 Q208 22 229 22 Q258 22 279 49 L287 40 Q271 16 246 3.5 Q221 -9 193 -9 Q172 -9 152 -2.5 Q132 4 116.5 19.5 Q101 35 92 61.5 Q83 88 83 127 L83 711 L26 711 L26 727 L173 727 L173 102 Z M124 -221 Q148 -201 155 -186.5 Q162 -172 162 -162 Q162 -154 154.5 -148 Q147 -142 137.5 -135 Q128 -128 120.5 -118.5 Q113 -109 113 -94 Q113 -70 128.5 -57.5 Q144 -45 162 -45 Q182 -45 198 -58.5 Q214 -72 214 -98 Q214 -110 209.5 -127 Q205 -144 195 -163 Q185 -182 170.5 -200.5 Q156 -219 136 -235 L124 -221 Z " />
<glyph glyph-name="Lcaron" unicode="&#x13d;" horiz-adv-x="631" d="M47 0 L47 18 L135 18 L135 679 L47 679 L47 697 L343 697 L343 679 L235 679 L235 18 L373 18 Q422 18 453 31.5 Q484 45 503.5 72 Q523 99 534.5 140 Q546 181 556 236 L578 236 L578 0 L47 0 Z M406 529 Q430 549 437 563.5 Q444 578 444 588 Q444 596 436.5 602 Q429 608 419.5 615 Q410 622 402.5 631.5 Q395 641 395 656 Q395 680 410.5 692.5 Q426 705 444 705 Q464 705 480 691.5 Q496 678 496 652 Q496 640 491.5 623 Q487 606 477 587 Q467 568 452.5 549.5 Q438 531 418 515 L406 529 Z " />
<glyph glyph-name="lcaron" unicode="&#x13e;" horiz-adv-x="353" d="M173 102 Q173 59 190.5 40.5 Q208 22 229 22 Q258 22 279 49 L287 40 Q271 16 246 3.5 Q221 -9 193 -9 Q172 -9 152 -2.5 Q132 4 116.5 19.5 Q101 35 92 61.5 Q83 88 83 127 L83 711 L26 711 L26 727 L173 727 L173 102 Z M258 559 Q282 579 289 593.5 Q296 608 296 618 Q296 626 288.5 632 Q281 638 271.5 645 Q262 652 254.5 661.5 Q247 671 247 686 Q247 710 262.5 722.5 Q278 735 296 735 Q316 735 332 721.5 Q348 708 348 682 Q348 670 343.5 653 Q339 636 329 617 Q319 598 304.5 579.5 Q290 561 270 545 L258 559 Z " />
<glyph glyph-name="Ldot" unicode="&#x13f;" horiz-adv-x="631" d="M47 0 L47 18 L135 18 L135 679 L47 679 L47 697 L343 697 L343 679 L235 679 L235 18 L373 18 Q422 18 453 31.5 Q484 45 503.5 72 Q523 99 534.5 140 Q546 181 556 236 L578 236 L578 0 L47 0 Z M495 325 Q469 325 453.5 341.5 Q438 358 438 381 Q438 404 453.5 420.5 Q469 437 495 437 Q521 437 536.5 420.5 Q552 404 552 381 Q552 358 536.5 341.5 Q521 325 495 325 Z " />
<glyph glyph-name="ldot" unicode="&#x140;" horiz-adv-x="338" d="M173 102 Q173 59 190.5 40.5 Q208 22 229 22 Q258 22 279 49 L287 40 Q271 16 246 3.5 Q221 -9 193 -9 Q172 -9 152 -2.5 Q132 4 116.5 19.5 Q101 35 92 61.5 Q83 88 83 127 L83 711 L26 711 L26 727 L173 727 L173 102 Z M297 300 Q271 300 255.5 316.5 Q240 333 240 356 Q240 379 255.5 395.5 Q271 412 297 412 Q323 412 338.5 395.5 Q354 379 354 356 Q354 333 338.5 316.5 Q323 300 297 300 Z " />
<glyph glyph-name="Lslash" unicode="&#x141;" horiz-adv-x="631" d="M47 0 L47 18 L135 18 L135 310 L35 275 L35 302 L135 337 L135 679 L47 679 L47 697 L343 697 L343 679 L235 679 L235 371 L473 454 L473 427 L235 344 L235 18 L373 18 Q422 18 453 31.5 Q484 45 503.5 72 Q523 99 534.5 140 Q546 181 556 236 L578 236 L578 0 L47 0 Z " />
<glyph glyph-name="lslash" unicode="&#x142;" horiz-adv-x="307" d="M21 322 L83 349 L83 711 L26 711 L26 727 L173 727 L173 389 L258 427 L258 405 L173 367 L173 102 Q173 59 190.5 40.5 Q208 22 229 22 Q258 22 279 49 L287 40 Q271 16 246 3.5 Q221 -9 193 -9 Q172 -9 152 -2.5 Q132 4 116.5 19.5 Q101 35 92 61.5 Q83 88 83 127 L83 328 L21 301 L21 322 Z " />
<glyph glyph-name="Nacute" unicode="&#x143;" horiz-adv-x="776" d="M625 679 L537 679 L537 697 L738 697 L738 679 L650 679 L650 -9 L624 -9 L160 673 L160 18 L248 18 L248 0 L47 0 L47 18 L135 18 L135 679 L47 679 L47 697 L266 697 L625 161 L625 679 Z M478 904 Q489 915 502 922.5 Q515 930 529 930 Q543 930 554.5 920.5 Q566 911 566 895 Q566 879 555.5 870.5 Q545 862 524 849 L365 756 L339 756 L478 904 Z " />
<glyph glyph-name="nacute" unicode="&#x144;" horiz-adv-x="585" d="M477 -9 Q461 -9 446 -4 Q431 1 419 12 Q407 23 400 40.5 Q393 58 393 84 L393 326 Q393 382 373 412.5 Q353 443 305 443 Q277 443 256 432 Q235 421 220.5 403.5 Q206 386 198.5 363.5 Q191 341 191 317 L191 16 L247 16 L247 0 L44 0 L44 16 L101 16 L101 441 L44 441 L44 457 L187 457 L187 381 Q192 393 203 408 Q214 423 231.5 435.5 Q249 448 273 457 Q297 466 329 466 Q374 466 403.5 453 Q433 440 451 418 Q469 396 476 366 Q483 336 483 303 L483 68 Q483 45 494 33.5 Q505 22 519 22 Q537 22 550 38 L559 28 Q546 11 524.5 1 Q503 -9 477 -9 Z M348 664 Q359 675 372 682.5 Q385 690 399 690 Q413 690 424.5 680.5 Q436 671 436 655 Q436 639 425.5 630.5 Q415 622 394 609 L235 516 L209 516 L348 664 Z " />
<glyph glyph-name="Ncommaaccent" unicode="&#x145;" horiz-adv-x="776" d="M625 679 L537 679 L537 697 L738 697 L738 679 L650 679 L650 -9 L624 -9 L160 673 L160 18 L248 18 L248 0 L47 0 L47 18 L135 18 L135 679 L47 679 L47 697 L266 697 L625 161 L625 679 Z M363 -221 Q387 -201 394 -186.5 Q401 -172 401 -162 Q401 -154 393.5 -148 Q386 -142 376.5 -135 Q367 -128 359.5 -118.5 Q352 -109 352 -94 Q352 -70 367.5 -57.5 Q383 -45 401 -45 Q421 -45 437 -58.5 Q453 -72 453 -98 Q453 -110 448.5 -127 Q444 -144 434 -163 Q424 -182 409.5 -200.5 Q395 -219 375 -235 L363 -221 Z " />
<glyph glyph-name="ncommaaccent" unicode="&#x146;" horiz-adv-x="585" d="M477 -9 Q461 -9 446 -4 Q431 1 419 12 Q407 23 400 40.5 Q393 58 393 84 L393 326 Q393 382 373 412.5 Q353 443 305 443 Q277 443 256 432 Q235 421 220.5 403.5 Q206 386 198.5 363.5 Q191 341 191 317 L191 16 L247 16 L247 0 L44 0 L44 16 L101 16 L101 441 L44 441 L44 457 L187 457 L187 381 Q192 393 203 408 Q214 423 231.5 435.5 Q249 448 273 457 Q297 466 329 466 Q374 466 403.5 453 Q433 440 451 418 Q469 396 476 366 Q483 336 483 303 L483 68 Q483 45 494 33.5 Q505 22 519 22 Q537 22 550 38 L559 28 Q546 11 524.5 1 Q503 -9 477 -9 Z M273 -221 Q297 -201 304 -186.5 Q311 -172 311 -162 Q311 -154 303.5 -148 Q296 -142 286.5 -135 Q277 -128 269.5 -118.5 Q262 -109 262 -94 Q262 -70 277.5 -57.5 Q293 -45 311 -45 Q331 -45 347 -58.5 Q363 -72 363 -98 Q363 -110 358.5 -127 Q354 -144 344 -163 Q334 -182 319.5 -200.5 Q305 -219 285 -235 L273 -221 Z " />
<glyph glyph-name="Ncaron" unicode="&#x147;" horiz-adv-x="776" d="M625 679 L537 679 L537 697 L738 697 L738 679 L650 679 L650 -9 L624 -9 L160 673 L160 18 L248 18 L248 0 L47 0 L47 18 L135 18 L135 679 L47 679 L47 697 L266 697 L625 161 L625 679 Z M565 926 L429 766 L396 766 L256 926 L274 938 L412 844 L546 940 L565 926 Z " />
<glyph glyph-name="ncaron" unicode="&#x148;" horiz-adv-x="585" d="M477 -9 Q461 -9 446 -4 Q431 1 419 12 Q407 23 400 40.5 Q393 58 393 84 L393 326 Q393 382 373 412.5 Q353 443 305 443 Q277 443 256 432 Q235 421 220.5 403.5 Q206 386 198.5 363.5 Q191 341 191 317 L191 16 L247 16 L247 0 L44 0 L44 16 L101 16 L101 441 L44 441 L44 457 L187 457 L187 381 Q192 393 203 408 Q214 423 231.5 435.5 Q249 448 273 457 Q297 466 329 466 Q374 466 403.5 453 Q433 440 451 418 Q469 396 476 366 Q483 336 483 303 L483 68 Q483 45 494 33.5 Q505 22 519 22 Q537 22 550 38 L559 28 Q546 11 524.5 1 Q503 -9 477 -9 Z M441 676 L305 516 L272 516 L132 676 L150 688 L288 594 L422 690 L441 676 Z " />
<glyph glyph-name="Omacron" unicode="&#x14c;" horiz-adv-x="782" d="M391 708 Q463 708 523.5 679.5 Q584 651 627.5 601.5 Q671 552 695.5 485.5 Q720 419 720 344 Q720 265 695.5 200 Q671 135 627.5 88.5 Q584 42 523.5 16.5 Q463 -9 391 -9 Q319 -9 258.5 16.5 Q198 42 154.5 88.5 Q111 135 86.5 200 Q62 265 62 344 Q62 419 86.5 485.5 Q111 552 154.5 601.5 Q198 651 258.5 679.5 Q319 708 391 708 Z M391 10 Q442 10 482 34.5 Q522 59 550 103 Q578 147 593 208.5 Q608 270 608 344 Q608 421 594.5 484.5 Q581 548 553.5 594 Q526 640 485.5 665 Q445 690 391 690 Q337 690 296.5 665 Q256 640 228.5 594 Q201 548 187.5 484.5 Q174 421 174 344 Q174 270 189 208.5 Q204 147 232 103 Q260 59 300 34.5 Q340 10 391 10 Z M247 796 L247 850 L536 850 L536 796 L247 796 Z " />
<glyph glyph-name="omacron" unicode="&#x14d;" horiz-adv-x="547" d="M273 466 Q325 466 366 448 Q407 430 435.5 398.5 Q464 367 479.5 324 Q495 281 495 231 Q495 183 479.5 139.5 Q464 96 435.5 63 Q407 30 366 10.5 Q325 -9 273 -9 Q222 -9 181 10.5 Q140 30 111.5 63 Q83 96 67.5 139.5 Q52 183 52 231 Q52 281 67.5 324 Q83 367 111.5 398.5 Q140 430 181 448 Q222 466 273 466 Z M273 8 Q312 8 336.5 25.5 Q361 43 374.5 73.5 Q388 104 393 144.5 Q398 185 398 231 Q398 338 365.5 394 Q333 450 273 450 Q214 450 181 394 Q148 338 148 231 Q148 185 153 144.5 Q158 104 172 73.5 Q186 43 210 25.5 Q234 8 273 8 Z M129 546 L129 600 L418 600 L418 546 L129 546 Z " />
<glyph glyph-name="Obreve" unicode="&#x14e;" horiz-adv-x="782" d="M391 708 Q463 708 523.5 679.5 Q584 651 627.5 601.5 Q671 552 695.5 485.5 Q720 419 720 344 Q720 265 695.5 200 Q671 135 627.5 88.5 Q584 42 523.5 16.5 Q463 -9 391 -9 Q319 -9 258.5 16.5 Q198 42 154.5 88.5 Q111 135 86.5 200 Q62 265 62 344 Q62 419 86.5 485.5 Q111 552 154.5 601.5 Q198 651 258.5 679.5 Q319 708 391 708 Z M391 10 Q442 10 482 34.5 Q522 59 550 103 Q578 147 593 208.5 Q608 270 608 344 Q608 421 594.5 484.5 Q581 548 553.5 594 Q526 640 485.5 665 Q445 690 391 690 Q337 690 296.5 665 Q256 640 228.5 594 Q201 548 187.5 484.5 Q174 421 174 344 Q174 270 189 208.5 Q204 147 232 103 Q260 59 300 34.5 Q340 10 391 10 Z M391 836 Q422 836 445 844.5 Q468 853 483.5 866.5 Q499 880 506.5 896.5 Q514 913 515 928 L541 928 Q540 903 530.5 875.5 Q521 848 503 824.5 Q485 801 457 786 Q429 771 391 771 Q353 771 325 786 Q297 801 279 824.5 Q261 848 251.5 875.5 Q242 903 241 928 L267 928 Q268 913 275.5 896.5 Q283 880 298.5 866.5 Q314 853 337 844.5 Q360 836 391 836 Z " />
<glyph glyph-name="obreve" unicode="&#x14f;" horiz-adv-x="547" d="M273 466 Q325 466 366 448 Q407 430 435.5 398.5 Q464 367 479.5 324 Q495 281 495 231 Q495 183 479.5 139.5 Q464 96 435.5 63 Q407 30 366 10.5 Q325 -9 273 -9 Q222 -9 181 10.5 Q140 30 111.5 63 Q83 96 67.5 139.5 Q52 183 52 231 Q52 281 67.5 324 Q83 367 111.5 398.5 Q140 430 181 448 Q222 466 273 466 Z M273 8 Q312 8 336.5 25.5 Q361 43 374.5 73.5 Q388 104 393 144.5 Q398 185 398 231 Q398 338 365.5 394 Q333 450 273 450 Q214 450 181 394 Q148 338 148 231 Q148 185 153 144.5 Q158 104 172 73.5 Q186 43 210 25.5 Q234 8 273 8 Z M275 586 Q306 586 329 594.5 Q352 603 367.5 616.5 Q383 630 390.5 646.5 Q398 663 399 678 L425 678 Q424 653 414.5 625.5 Q405 598 387 574.5 Q369 551 341 536 Q313 521 275 521 Q237 521 209 536 Q181 551 163 574.5 Q145 598 135.5 625.5 Q126 653 125 678 L151 678 Q152 663 159.5 646.5 Q167 630 182.5 616.5 Q198 603 221 594.5 Q244 586 275 586 Z " />
<glyph glyph-name="Ohungarumlaut" unicode="&#x150;" horiz-adv-x="782" d="M391 708 Q463 708 523.5 679.5 Q584 651 627.5 601.5 Q671 552 695.5 485.5 Q720 419 720 344 Q720 265 695.5 200 Q671 135 627.5 88.5 Q584 42 523.5 16.5 Q463 -9 391 -9 Q319 -9 258.5 16.5 Q198 42 154.5 88.5 Q111 135 86.5 200 Q62 265 62 344 Q62 419 86.5 485.5 Q111 552 154.5 601.5 Q198 651 258.5 679.5 Q319 708 391 708 Z M391 10 Q442 10 482 34.5 Q522 59 550 103 Q578 147 593 208.5 Q608 270 608 344 Q608 421 594.5 484.5 Q581 548 553.5 594 Q526 640 485.5 665 Q445 690 391 690 Q337 690 296.5 665 Q256 640 228.5 594 Q201 548 187.5 484.5 Q174 421 174 344 Q174 270 189 208.5 Q204 147 232 103 Q260 59 300 34.5 Q340 10 391 10 Z M388 904 Q399 915 412 922.5 Q425 930 439 930 Q453 930 464.5 920.5 Q476 911 476 895 Q476 879 465.5 870.5 Q455 862 434 849 L285 756 L239 756 L388 904 Z M555 904 Q566 915 579 922.5 Q592 930 606 930 Q620 930 631.5 920.5 Q643 911 643 895 Q643 879 632.5 870.5 Q622 862 601 849 L452 756 L406 756 L555 904 Z " />
<glyph glyph-name="ohungarumlaut" unicode="&#x151;" horiz-adv-x="547" d="M273 466 Q325 466 366 448 Q407 430 435.5 398.5 Q464 367 479.5 324 Q495 281 495 231 Q495 183 479.5 139.5 Q464 96 435.5 63 Q407 30 366 10.5 Q325 -9 273 -9 Q222 -9 181 10.5 Q140 30 111.5 63 Q83 96 67.5 139.5 Q52 183 52 231 Q52 281 67.5 324 Q83 367 111.5 398.5 Q140 430 181 448 Q222 466 273 466 Z M273 8 Q312 8 336.5 25.5 Q361 43 374.5 73.5 Q388 104 393 144.5 Q398 185 398 231 Q398 338 365.5 394 Q333 450 273 450 Q214 450 181 394 Q148 338 148 231 Q148 185 153 144.5 Q158 104 172 73.5 Q186 43 210 25.5 Q234 8 273 8 Z M256 664 Q267 675 280 682.5 Q293 690 307 690 Q321 690 332.5 680.5 Q344 671 344 655 Q344 639 333.5 630.5 Q323 622 302 609 L153 516 L107 516 L256 664 Z M423 664 Q434 675 447 682.5 Q460 690 474 690 Q488 690 499.5 680.5 Q511 671 511 655 Q511 639 500.5 630.5 Q490 622 469 609 L320 516 L274 516 L423 664 Z " />
<glyph glyph-name="OE" unicode="&#x152;" horiz-adv-x="1071" d="M842 697 Q883 697 912.5 687.5 Q942 678 961 662.5 Q980 647 989 627 Q998 607 998 586 Q998 545 975 525 Q952 505 915 505 Q895 505 882.5 511.5 Q870 518 863 525 L948 638 Q929 661 905.5 670 Q882 679 842 679 L647 679 L647 368 L840 368 L840 350 L647 350 L647 18 L804 18 Q847 18 877 27.5 Q907 37 926.5 56.5 Q946 76 958 105 Q970 134 978 173 L987 216 L1009 216 L1009 0 L547 0 L550 65 Q518 34 471.5 12.5 Q425 -9 363 -9 Q291 -9 235 18.5 Q179 46 140.5 94 Q102 142 82 206 Q62 270 62 344 Q62 417 83.5 483.5 Q105 550 145 599.5 Q185 649 241 678.5 Q297 708 366 708 Q402 708 430.5 701.5 Q459 695 481 684.5 Q503 674 520 660.5 Q537 647 551 634 L547 697 L842 697 Z M173 344 Q173 186 224.5 98 Q276 10 370 10 Q419 10 454.5 35 Q490 60 513 104.5 Q536 149 547 210.5 Q558 272 558 345 Q558 418 548 481 Q538 544 516 590.5 Q494 637 458.5 663.5 Q423 690 372 690 Q276 690 224.5 604 Q173 518 173 344 Z " />
<glyph glyph-name="oe" unicode="&#x153;" horiz-adv-x="814" d="M648 18 Q688 18 716 31 Q744 44 776 74 L785 62 Q755 29 713 10 Q671 -9 611 -9 Q562 -9 518 11.5 Q474 32 443 73 Q415 35 372 13 Q329 -9 273 -9 Q222 -9 181 10.5 Q140 30 111.5 63 Q83 96 67.5 139.5 Q52 183 52 231 Q52 281 67.5 324 Q83 367 111.5 398.5 Q140 430 181 448 Q222 466 273 466 Q330 466 373.5 445 Q417 424 446 386 Q473 424 515 445 Q557 466 613 466 Q695 466 736 430.5 Q777 395 777 341 Q777 306 762 280.5 Q747 255 722 238.5 Q697 222 665 214 Q633 206 600 206 Q543 206 495 226 Q496 170 508.5 131 Q521 92 542 66.5 Q563 41 590.5 29.5 Q618 18 648 18 Z M273 7 Q312 7 336.5 24.5 Q361 42 374.5 72.5 Q388 103 393 144 Q398 185 398 231 Q398 338 365.5 394 Q333 450 273 450 Q214 450 181 394 Q148 338 148 231 Q148 185 153 144 Q158 103 172 72.5 Q186 42 210 24.5 Q234 7 273 7 Z M608 450 Q587 450 567 437 Q547 424 531 398 Q515 372 505.5 333 Q496 294 495 241 Q538 229 577 229 Q600 229 619.5 234.5 Q639 240 653.5 253 Q668 266 676 287 Q684 308 684 339 Q684 395 662 422.5 Q640 450 608 450 Z " />
<glyph glyph-name="Racute" unicode="&#x154;" horiz-adv-x="714" d="M594 523 Q594 493 584.5 465 Q575 437 553.5 415 Q532 393 497.5 377 Q463 361 413 355 Q453 347 483.5 333 Q514 319 535 295 Q556 271 568.5 236 Q581 201 587 151 L589 133 Q595 80 610 58.5 Q625 37 650 37 Q665 37 674 44 Q683 51 690 66 L704 55 Q692 27 670 9 Q648 -9 608 -9 Q585 -9 564.5 -1 Q544 7 527.5 26.5 Q511 46 499 78.5 Q487 111 482 161 L480 178 Q475 218 466 249 Q457 280 440 301 Q423 322 395.5 333 Q368 344 326 344 L235 344 L235 18 L323 18 L323 0 L47 0 L47 18 L135 18 L135 679 L47 679 L47 697 L350 697 Q422 697 469 683 Q516 669 543.5 645 Q571 621 582.5 589.5 Q594 558 594 523 Z M235 679 L235 362 L303 362 Q394 362 438 400 Q482 438 482 523 Q482 609 438 644 Q394 679 303 679 L235 679 Z M401 904 Q412 915 425 922.5 Q438 930 452 930 Q466 930 477.5 920.5 Q489 911 489 895 Q489 879 478.5 870.5 Q468 862 447 849 L288 756 L262 756 L401 904 Z " />
<glyph glyph-name="racute" unicode="&#x155;" horiz-adv-x="435" d="M302 466 Q347 466 377 442.5 Q407 419 407 373 Q407 338 386.5 320 Q366 302 340 302 Q316 302 303.5 310 Q291 318 286 326 L369 413 Q358 430 339.5 440 Q321 450 295 450 Q267 450 246.5 439 Q226 428 213 408.5 Q200 389 193.5 363.5 Q187 338 187 310 L187 16 L261 16 L261 0 L40 0 L40 16 L97 16 L97 441 L40 441 L40 457 L183 457 L183 393 Q200 432 230.5 449 Q261 466 302 466 Z M269 664 Q280 675 293 682.5 Q306 690 320 690 Q334 690 345.5 680.5 Q357 671 357 655 Q357 639 346.5 630.5 Q336 622 315 609 L156 516 L130 516 L269 664 Z " />
<glyph glyph-name="Rcommaaccent" unicode="&#x156;" horiz-adv-x="714" d="M594 523 Q594 493 584.5 465 Q575 437 553.5 415 Q532 393 497.5 377 Q463 361 413 355 Q453 347 483.5 333 Q514 319 535 295 Q556 271 568.5 236 Q581 201 587 151 L589 133 Q595 80 610 58.5 Q625 37 650 37 Q665 37 674 44 Q683 51 690 66 L704 55 Q692 27 670 9 Q648 -9 608 -9 Q585 -9 564.5 -1 Q544 7 527.5 26.5 Q511 46 499 78.5 Q487 111 482 161 L480 178 Q475 218 466 249 Q457 280 440 301 Q423 322 395.5 333 Q368 344 326 344 L235 344 L235 18 L323 18 L323 0 L47 0 L47 18 L135 18 L135 679 L47 679 L47 697 L350 697 Q422 697 469 683 Q516 669 543.5 645 Q571 621 582.5 589.5 Q594 558 594 523 Z M235 679 L235 362 L303 362 Q394 362 438 400 Q482 438 482 523 Q482 609 438 644 Q394 679 303 679 L235 679 Z M356 -221 Q380 -201 387 -186.5 Q394 -172 394 -162 Q394 -154 386.5 -148 Q379 -142 369.5 -135 Q360 -128 352.5 -118.5 Q345 -109 345 -94 Q345 -70 360.5 -57.5 Q376 -45 394 -45 Q414 -45 430 -58.5 Q446 -72 446 -98 Q446 -110 441.5 -127 Q437 -144 427 -163 Q417 -182 402.5 -200.5 Q388 -219 368 -235 L356 -221 Z " />
<glyph glyph-name="rcommaaccent" unicode="&#x157;" horiz-adv-x="435" d="M302 466 Q347 466 377 442.5 Q407 419 407 373 Q407 338 386.5 320 Q366 302 340 302 Q316 302 303.5 310 Q291 318 286 326 L369 413 Q358 430 339.5 440 Q321 450 295 450 Q267 450 246.5 439 Q226 428 213 408.5 Q200 389 193.5 363.5 Q187 338 187 310 L187 16 L261 16 L261 0 L40 0 L40 16 L97 16 L97 441 L40 441 L40 457 L183 457 L183 393 Q200 432 230.5 449 Q261 466 302 466 Z M104 -221 Q128 -201 135 -186.5 Q142 -172 142 -162 Q142 -154 134.5 -148 Q127 -142 117.5 -135 Q108 -128 100.5 -118.5 Q93 -109 93 -94 Q93 -70 108.5 -57.5 Q124 -45 142 -45 Q162 -45 178 -58.5 Q194 -72 194 -98 Q194 -110 189.5 -127 Q185 -144 175 -163 Q165 -182 150.5 -200.5 Q136 -219 116 -235 L104 -221 Z " />
<glyph glyph-name="Rcaron" unicode="&#x158;" horiz-adv-x="714" d="M594 523 Q594 493 584.5 465 Q575 437 553.5 415 Q532 393 497.5 377 Q463 361 413 355 Q453 347 483.5 333 Q514 319 535 295 Q556 271 568.5 236 Q581 201 587 151 L589 133 Q595 80 610 58.5 Q625 37 650 37 Q665 37 674 44 Q683 51 690 66 L704 55 Q692 27 670 9 Q648 -9 608 -9 Q585 -9 564.5 -1 Q544 7 527.5 26.5 Q511 46 499 78.5 Q487 111 482 161 L480 178 Q475 218 466 249 Q457 280 440 301 Q423 322 395.5 333 Q368 344 326 344 L235 344 L235 18 L323 18 L323 0 L47 0 L47 18 L135 18 L135 679 L47 679 L47 697 L350 697 Q422 697 469 683 Q516 669 543.5 645 Q571 621 582.5 589.5 Q594 558 594 523 Z M235 679 L235 362 L303 362 Q394 362 438 400 Q482 438 482 523 Q482 609 438 644 Q394 679 303 679 L235 679 Z M495 926 L359 766 L326 766 L186 926 L204 938 L342 844 L476 940 L495 926 Z " />
<glyph glyph-name="rcaron" unicode="&#x159;" horiz-adv-x="435" d="M302 466 Q347 466 377 442.5 Q407 419 407 373 Q407 338 386.5 320 Q366 302 340 302 Q316 302 303.5 310 Q291 318 286 326 L369 413 Q358 430 339.5 440 Q321 450 295 450 Q267 450 246.5 439 Q226 428 213 408.5 Q200 389 193.5 363.5 Q187 338 187 310 L187 16 L261 16 L261 0 L40 0 L40 16 L97 16 L97 441 L40 441 L40 457 L183 457 L183 393 Q200 432 230.5 449 Q261 466 302 466 Z M378 676 L242 516 L209 516 L69 676 L87 688 L225 594 L359 690 L378 676 Z " />
<glyph glyph-name="Sacute" unicode="&#x15a;" horiz-adv-x="596" d="M306 708 Q362 708 402.5 693.5 Q443 679 469.5 656.5 Q496 634 508.5 607 Q521 580 521 555 Q521 516 498 496 Q475 476 446 476 Q420 476 406 485 Q392 494 386 502 L482 611 Q456 648 412.5 668.5 Q369 689 306 689 Q240 689 198 658 Q156 627 156 573 Q156 547 164 526.5 Q172 506 190.5 488 Q209 470 239 454 Q269 438 313 423 Q375 401 418.5 378.5 Q462 356 489 330.5 Q516 305 528.5 276 Q541 247 541 212 Q541 159 517 118 Q493 77 455 49 Q417 21 368 6 Q319 -9 270 -9 Q216 -9 176 4 Q136 17 109 37.5 Q82 58 68.5 83.5 Q55 109 55 134 Q55 173 78 193 Q101 213 130 213 Q156 213 170 204 Q184 195 190 187 L97 81 Q128 49 169 30.5 Q210 12 281 12 Q314 12 345.5 21 Q377 30 402 48 Q427 66 442.5 94 Q458 122 458 160 Q458 185 449.5 208 Q441 231 418 253.5 Q395 276 354.5 298 Q314 320 250 344 Q153 379 111.5 422.5 Q70 466 70 526 Q70 571 89.5 605 Q109 639 141.5 662 Q174 685 216.5 696.5 Q259 708 306 708 Z M353 904 Q364 915 377 922.5 Q390 930 404 930 Q418 930 429.5 920.5 Q441 911 441 895 Q441 879 430.5 870.5 Q420 862 399 849 L240 756 L214 756 L353 904 Z " />
<glyph glyph-name="sacute" unicode="&#x15b;" horiz-adv-x="424" d="M215 466 Q253 466 280.5 457 Q308 448 326 433.5 Q344 419 352.5 401.5 Q361 384 361 367 Q361 338 345 323.5 Q329 309 308 309 Q289 309 277 316 Q265 323 260 329 L326 400 Q312 416 286.5 431 Q261 446 221 446 Q176 446 146 425 Q116 404 116 370 Q116 331 144.5 310.5 Q173 290 227 273 Q304 248 341 215.5 Q378 183 378 132 Q378 99 364.5 73 Q351 47 327.5 28.5 Q304 10 271.5 0.5 Q239 -9 200 -9 Q171 -9 143 -3 Q115 3 93.5 15 Q72 27 59 45 Q46 63 46 86 Q46 118 64 132.5 Q82 147 101 147 Q121 147 131.5 140 Q142 133 147 127 L79 54 Q101 32 132 22 Q163 12 192 12 Q216 12 237 18 Q258 24 274 34.5 Q290 45 299.5 60 Q309 75 309 94 Q309 127 282 149.5 Q255 172 186 195 Q123 216 87 246.5 Q51 277 51 330 Q51 363 63.5 388 Q76 413 98.5 430.5 Q121 448 150.5 457 Q180 466 215 466 Z M274 664 Q285 675 298 682.5 Q311 690 325 690 Q339 690 350.5 680.5 Q362 671 362 655 Q362 639 351.5 630.5 Q341 622 320 609 L161 516 L135 516 L274 664 Z " />
<glyph glyph-name="Scircumflex" unicode="&#x15c;" horiz-adv-x="596" d="M306 708 Q362 708 402.5 693.5 Q443 679 469.5 656.5 Q496 634 508.5 607 Q521 580 521 555 Q521 516 498 496 Q475 476 446 476 Q420 476 406 485 Q392 494 386 502 L482 611 Q456 648 412.5 668.5 Q369 689 306 689 Q240 689 198 658 Q156 627 156 573 Q156 547 164 526.5 Q172 506 190.5 488 Q209 470 239 454 Q269 438 313 423 Q375 401 418.5 378.5 Q462 356 489 330.5 Q516 305 528.5 276 Q541 247 541 212 Q541 159 517 118 Q493 77 455 49 Q417 21 368 6 Q319 -9 270 -9 Q216 -9 176 4 Q136 17 109 37.5 Q82 58 68.5 83.5 Q55 109 55 134 Q55 173 78 193 Q101 213 130 213 Q156 213 170 204 Q184 195 190 187 L97 81 Q128 49 169 30.5 Q210 12 281 12 Q314 12 345.5 21 Q377 30 402 48 Q427 66 442.5 94 Q458 122 458 160 Q458 185 449.5 208 Q441 231 418 253.5 Q395 276 354.5 298 Q314 320 250 344 Q153 379 111.5 422.5 Q70 466 70 526 Q70 571 89.5 605 Q109 639 141.5 662 Q174 685 216.5 696.5 Q259 708 306 708 Z M442 749 L308 845 L170 751 L152 763 L292 923 L325 923 L461 763 L442 749 Z " />
<glyph glyph-name="scircumflex" unicode="&#x15d;" horiz-adv-x="424" d="M215 466 Q253 466 280.5 457 Q308 448 326 433.5 Q344 419 352.5 401.5 Q361 384 361 367 Q361 338 345 323.5 Q329 309 308 309 Q289 309 277 316 Q265 323 260 329 L326 400 Q312 416 286.5 431 Q261 446 221 446 Q176 446 146 425 Q116 404 116 370 Q116 331 144.5 310.5 Q173 290 227 273 Q304 248 341 215.5 Q378 183 378 132 Q378 99 364.5 73 Q351 47 327.5 28.5 Q304 10 271.5 0.5 Q239 -9 200 -9 Q171 -9 143 -3 Q115 3 93.5 15 Q72 27 59 45 Q46 63 46 86 Q46 118 64 132.5 Q82 147 101 147 Q121 147 131.5 140 Q142 133 147 127 L79 54 Q101 32 132 22 Q163 12 192 12 Q216 12 237 18 Q258 24 274 34.5 Q290 45 299.5 60 Q309 75 309 94 Q309 127 282 149.5 Q255 172 186 195 Q123 216 87 246.5 Q51 277 51 330 Q51 363 63.5 388 Q76 413 98.5 430.5 Q121 448 150.5 457 Q180 466 215 466 Z M347 514 L213 610 L75 516 L57 528 L197 688 L230 688 L366 528 L347 514 Z " />
<glyph glyph-name="Scedilla" unicode="&#x15e;" horiz-adv-x="596" d="M273 -9 Q218 -9 177 4 Q136 17 109 37.5 Q82 58 68.5 83.5 Q55 109 55 134 Q55 173 78 193 Q101 213 130 213 Q156 213 170 204 Q184 195 190 187 L97 81 Q128 49 169 30.5 Q210 12 281 12 Q314 12 345.5 21 Q377 30 402 48 Q427 66 442.5 94 Q458 122 458 160 Q458 185 449.5 208 Q441 231 418 253.5 Q395 276 354.5 298 Q314 320 250 344 Q153 379 111.5 422.5 Q70 466 70 526 Q70 571 89.5 605 Q109 639 141.5 662 Q174 685 216.5 696.5 Q259 708 306 708 Q362 708 402.5 693.5 Q443 679 469.5 656.5 Q496 634 508.5 607 Q521 580 521 555 Q521 516 498 496 Q475 476 446 476 Q420 476 406 485 Q392 494 386 502 L482 611 Q456 648 412.5 668.5 Q369 689 306 689 Q240 689 198 658 Q156 627 156 573 Q156 547 164 526.5 Q172 506 190.5 488 Q209 470 239 454 Q269 438 313 423 Q375 401 418.5 378.5 Q462 356 489 330.5 Q516 305 528.5 276 Q541 247 541 212 Q541 163 520.5 124 Q500 85 466 57.5 Q432 30 388.5 13.5 Q345 -3 299 -7 L260 -80 Q265 -78 275 -76.5 Q285 -75 299 -75 Q335 -75 359.5 -94.5 Q384 -114 384 -144 Q384 -166 375 -182 Q366 -198 351 -208.5 Q336 -219 317 -224.5 Q298 -230 277 -230 Q244 -230 223 -216.5 Q202 -203 202 -183 Q202 -166 211.5 -157.5 Q221 -149 234 -149 Q245 -149 252 -153 Q259 -157 262 -162 L222 -199 Q225 -204 234.5 -209.5 Q244 -215 258 -215 Q279 -215 297.5 -199.5 Q316 -184 316 -148 Q316 -122 302.5 -107.5 Q289 -93 266 -93 Q250 -93 234 -100 L226 -95 L273 -9 Z " />
<glyph glyph-name="scedilla" unicode="&#x15f;" horiz-adv-x="424" d="M188 -9 Q160 -8 134.5 -1.5 Q109 5 89.5 17 Q70 29 58 46.5 Q46 64 46 86 Q46 118 64 132.5 Q82 147 101 147 Q121 147 131.5 140 Q142 133 147 127 L79 54 Q101 32 132 22 Q163 12 192 12 Q216 12 237 18 Q258 24 274 34.5 Q290 45 299.5 60 Q309 75 309 94 Q309 127 282 149.5 Q255 172 186 195 Q123 216 87 246.5 Q51 277 51 330 Q51 363 63.5 388 Q76 413 98.5 430.5 Q121 448 150.5 457 Q180 466 215 466 Q253 466 280.5 457 Q308 448 326 433.5 Q344 419 352.5 401.5 Q361 384 361 367 Q361 338 345 323.5 Q329 309 308 309 Q289 309 277 316 Q265 323 260 329 L326 400 Q312 416 286.5 431 Q261 446 221 446 Q176 446 146 425 Q116 404 116 370 Q116 331 144.5 310.5 Q173 290 227 273 Q304 248 341 215.5 Q378 183 378 132 Q378 69 331.5 32 Q285 -5 213 -8 L175 -80 Q180 -78 190 -76.5 Q200 -75 214 -75 Q250 -75 274.5 -94.5 Q299 -114 299 -144 Q299 -166 290 -182 Q281 -198 266 -208.5 Q251 -219 232 -224.5 Q213 -230 192 -230 Q159 -230 138 -216.5 Q117 -203 117 -183 Q117 -166 126.5 -157.5 Q136 -149 149 -149 Q160 -149 167 -153 Q174 -157 177 -162 L137 -199 Q140 -204 149.5 -209.5 Q159 -215 173 -215 Q194 -215 212.5 -199.5 Q231 -184 231 -148 Q231 -122 217.5 -107.5 Q204 -93 181 -93 Q165 -93 149 -100 L141 -95 L188 -9 Z " />
<glyph glyph-name="Scaron" unicode="&#x160;" horiz-adv-x="596" d="M306 708 Q362 708 402.5 693.5 Q443 679 469.5 656.5 Q496 634 508.5 607 Q521 580 521 555 Q521 516 498 496 Q475 476 446 476 Q420 476 406 485 Q392 494 386 502 L482 611 Q456 648 412.5 668.5 Q369 689 306 689 Q240 689 198 658 Q156 627 156 573 Q156 547 164 526.5 Q172 506 190.5 488 Q209 470 239 454 Q269 438 313 423 Q375 401 418.5 378.5 Q462 356 489 330.5 Q516 305 528.5 276 Q541 247 541 212 Q541 159 517 118 Q493 77 455 49 Q417 21 368 6 Q319 -9 270 -9 Q216 -9 176 4 Q136 17 109 37.5 Q82 58 68.5 83.5 Q55 109 55 134 Q55 173 78 193 Q101 213 130 213 Q156 213 170 204 Q184 195 190 187 L97 81 Q128 49 169 30.5 Q210 12 281 12 Q314 12 345.5 21 Q377 30 402 48 Q427 66 442.5 94 Q458 122 458 160 Q458 185 449.5 208 Q441 231 418 253.5 Q395 276 354.5 298 Q314 320 250 344 Q153 379 111.5 422.5 Q70 466 70 526 Q70 571 89.5 605 Q109 639 141.5 662 Q174 685 216.5 696.5 Q259 708 306 708 Z M462 926 L326 766 L293 766 L153 926 L171 938 L309 844 L443 940 L462 926 Z " />
<glyph glyph-name="scaron" unicode="&#x161;" horiz-adv-x="424" d="M215 466 Q253 466 280.5 457 Q308 448 326 433.5 Q344 419 352.5 401.5 Q361 384 361 367 Q361 338 345 323.5 Q329 309 308 309 Q289 309 277 316 Q265 323 260 329 L326 400 Q312 416 286.5 431 Q261 446 221 446 Q176 446 146 425 Q116 404 116 370 Q116 331 144.5 310.5 Q173 290 227 273 Q304 248 341 215.5 Q378 183 378 132 Q378 99 364.5 73 Q351 47 327.5 28.5 Q304 10 271.5 0.5 Q239 -9 200 -9 Q171 -9 143 -3 Q115 3 93.5 15 Q72 27 59 45 Q46 63 46 86 Q46 118 64 132.5 Q82 147 101 147 Q121 147 131.5 140 Q142 133 147 127 L79 54 Q101 32 132 22 Q163 12 192 12 Q216 12 237 18 Q258 24 274 34.5 Q290 45 299.5 60 Q309 75 309 94 Q309 127 282 149.5 Q255 172 186 195 Q123 216 87 246.5 Q51 277 51 330 Q51 363 63.5 388 Q76 413 98.5 430.5 Q121 448 150.5 457 Q180 466 215 466 Z M363 676 L227 516 L194 516 L54 676 L72 688 L210 594 L344 690 L363 676 Z " />
<glyph glyph-name="uni0162" unicode="&#x162;" horiz-adv-x="682" d="M637 697 L637 489 L615 489 L608 529 Q594 611 551 645 Q508 679 444 679 L391 679 L391 18 L479 18 L479 0 L203 0 L203 18 L291 18 L291 679 L238 679 Q174 679 131 645 Q88 611 74 529 L67 489 L45 489 L45 697 L637 697 Z M299 -221 Q323 -201 330 -186.5 Q337 -172 337 -162 Q337 -154 329.5 -148 Q322 -142 312.5 -135 Q303 -128 295.5 -118.5 Q288 -109 288 -94 Q288 -70 303.5 -57.5 Q319 -45 337 -45 Q357 -45 373 -58.5 Q389 -72 389 -98 Q389 -110 384.5 -127 Q380 -144 370 -163 Q360 -182 345.5 -200.5 Q331 -219 311 -235 L299 -221 Z " />
<glyph glyph-name="uni0163" unicode="&#x163;" horiz-adv-x="323" d="M315 40 Q298 16 270.5 3.5 Q243 -9 212 -9 Q187 -9 164 -2 Q141 5 123 21.5 Q105 38 94.5 66 Q84 94 84 136 L84 441 L35 441 L35 457 L47 457 Q68 457 86 468 Q104 479 118 495.5 Q132 512 142 532 Q152 552 155 571 L159 594 L174 594 L174 457 L297 457 L297 441 L174 441 L174 111 Q174 64 195.5 43 Q217 22 244 22 Q279 22 306 49 L315 40 Z M138 -221 Q162 -201 169 -186.5 Q176 -172 176 -162 Q176 -154 168.5 -148 Q161 -142 151.5 -135 Q142 -128 134.5 -118.5 Q127 -109 127 -94 Q127 -70 142.5 -57.5 Q158 -45 176 -45 Q196 -45 212 -58.5 Q228 -72 228 -98 Q228 -110 223.5 -127 Q219 -144 209 -163 Q199 -182 184.5 -200.5 Q170 -219 150 -235 L138 -221 Z " />
<glyph glyph-name="Tcaron" unicode="&#x164;" horiz-adv-x="682" d="M637 697 L637 489 L615 489 L608 529 Q594 611 551 645 Q508 679 444 679 L391 679 L391 18 L479 18 L479 0 L203 0 L203 18 L291 18 L291 679 L238 679 Q174 679 131 645 Q88 611 74 529 L67 489 L45 489 L45 697 L637 697 Z M495 926 L359 766 L326 766 L186 926 L204 938 L342 844 L476 940 L495 926 Z " />
<glyph glyph-name="tcaron" unicode="&#x165;" horiz-adv-x="323" d="M315 40 Q298 16 270.5 3.5 Q243 -9 212 -9 Q187 -9 164 -2 Q141 5 123 21.5 Q105 38 94.5 66 Q84 94 84 136 L84 441 L35 441 L35 457 L47 457 Q68 457 86 468 Q104 479 118 495.5 Q132 512 142 532 Q152 552 155 571 L159 594 L174 594 L174 457 L297 457 L297 441 L174 441 L174 111 Q174 64 195.5 43 Q217 22 244 22 Q279 22 306 49 L315 40 Z M225 559 Q249 579 256 593.5 Q263 608 263 618 Q263 626 255.5 632 Q248 638 238.5 645 Q229 652 221.5 661.5 Q214 671 214 686 Q214 710 229.5 722.5 Q245 735 263 735 Q283 735 299 721.5 Q315 708 315 682 Q315 670 310.5 653 Q306 636 296 617 Q286 598 271.5 579.5 Q257 561 237 545 L225 559 Z " />
<glyph glyph-name="Tbar" unicode="&#x166;" horiz-adv-x="682" d="M637 489 L615 489 L608 529 Q594 611 551 645 Q508 679 444 679 L391 679 L391 355 L544 355 L544 337 L391 337 L391 18 L479 18 L479 0 L203 0 L203 18 L291 18 L291 337 L138 337 L138 355 L291 355 L291 679 L238 679 Q174 679 131 645 Q88 611 74 529 L67 489 L45 489 L45 697 L637 697 L637 489 Z " />
<glyph glyph-name="tbar" unicode="&#x167;" horiz-adv-x="323" d="M315 40 Q298 16 270.5 3.5 Q243 -9 212 -9 Q187 -9 164 -2 Q141 5 123 21.5 Q105 38 94.5 66 Q84 94 84 136 L84 241 L35 241 L35 257 L84 257 L84 441 L35 441 L35 457 L47 457 Q68 457 86 468 Q104 479 118 495.5 Q132 512 142 532 Q152 552 155 571 L159 594 L174 594 L174 457 L297 457 L297 441 L174 441 L174 257 L297 257 L297 241 L174 241 L174 111 Q174 64 195.5 43 Q217 22 244 22 Q279 22 306 49 L315 40 Z " />
<glyph glyph-name="Utilde" unicode="&#x168;" horiz-adv-x="765" d="M315 697 L315 679 L227 679 L227 237 Q227 173 244.5 130.5 Q262 88 289 62.5 Q316 37 349 26.5 Q382 16 413 16 Q459 16 498 30 Q537 44 565 72.5 Q593 101 608.5 144 Q624 187 624 244 L624 679 L536 679 L536 697 L737 697 L737 679 L649 679 L649 243 Q649 184 632 137 Q615 90 583.5 57.5 Q552 25 508.5 8 Q465 -9 413 -9 Q268 -9 197.5 55 Q127 119 127 260 L127 679 L39 679 L39 697 L315 697 Z M594 892 Q587 837 559 809.5 Q531 782 490 782 Q467 782 447.5 789.5 Q428 797 410 805.5 Q392 814 374.5 821.5 Q357 829 340 829 Q321 829 303 818 Q285 807 276 778 L261 778 Q268 833 296 860.5 Q324 888 365 888 Q387 888 407 880.5 Q427 873 445 864.5 Q463 856 480.5 848.5 Q498 841 515 841 Q534 841 552 852 Q570 863 579 892 L594 892 Z " />
<glyph glyph-name="utilde" unicode="&#x169;" horiz-adv-x="568" d="M454 -9 Q424 -9 399.5 8 Q375 25 371 67 Q366 58 356.5 45 Q347 32 331 20 Q315 8 293 -0.5 Q271 -9 241 -9 Q196 -9 166 4 Q136 17 118.5 39 Q101 61 94 91 Q87 121 87 154 L87 441 L30 441 L30 457 L177 457 L177 132 Q177 111 180 90 Q183 69 192 52 Q201 35 217.5 24.5 Q234 14 262 14 Q288 14 308.5 25 Q329 36 342.5 54 Q356 72 363 95.5 Q370 119 370 145 L370 441 L313 441 L313 457 L460 457 L460 68 Q460 45 471 33.5 Q482 22 496 22 Q514 22 527 38 L536 28 Q524 11 502 1 Q480 -9 454 -9 Z M449 642 Q442 587 414 559.5 Q386 532 345 532 Q322 532 302.5 539.5 Q283 547 265 555.5 Q247 564 229.5 571.5 Q212 579 195 579 Q176 579 158 568 Q140 557 131 528 L116 528 Q123 583 151 610.5 Q179 638 220 638 Q242 638 262 630.5 Q282 623 300 614.5 Q318 606 335.5 598.5 Q353 591 370 591 Q389 591 407 602 Q425 613 434 642 L449 642 Z " />
<glyph glyph-name="Umacron" unicode="&#x16a;" horiz-adv-x="765" d="M315 697 L315 679 L227 679 L227 237 Q227 173 244.5 130.5 Q262 88 289 62.5 Q316 37 349 26.5 Q382 16 413 16 Q459 16 498 30 Q537 44 565 72.5 Q593 101 608.5 144 Q624 187 624 244 L624 679 L536 679 L536 697 L737 697 L737 679 L649 679 L649 243 Q649 184 632 137 Q615 90 583.5 57.5 Q552 25 508.5 8 Q465 -9 413 -9 Q268 -9 197.5 55 Q127 119 127 260 L127 679 L39 679 L39 697 L315 697 Z M280 796 L280 850 L569 850 L569 796 L280 796 Z " />
<glyph glyph-name="umacron" unicode="&#x16b;" horiz-adv-x="568" d="M454 -9 Q424 -9 399.5 8 Q375 25 371 67 Q366 58 356.5 45 Q347 32 331 20 Q315 8 293 -0.5 Q271 -9 241 -9 Q196 -9 166 4 Q136 17 118.5 39 Q101 61 94 91 Q87 121 87 154 L87 441 L30 441 L30 457 L177 457 L177 132 Q177 111 180 90 Q183 69 192 52 Q201 35 217.5 24.5 Q234 14 262 14 Q288 14 308.5 25 Q329 36 342.5 54 Q356 72 363 95.5 Q370 119 370 145 L370 441 L313 441 L313 457 L460 457 L460 68 Q460 45 471 33.5 Q482 22 496 22 Q514 22 527 38 L536 28 Q524 11 502 1 Q480 -9 454 -9 Z M130 546 L130 600 L419 600 L419 546 L130 546 Z " />
<glyph glyph-name="Ubreve" unicode="&#x16c;" horiz-adv-x="765" d="M315 697 L315 679 L227 679 L227 237 Q227 173 244.5 130.5 Q262 88 289 62.5 Q316 37 349 26.5 Q382 16 413 16 Q459 16 498 30 Q537 44 565 72.5 Q593 101 608.5 144 Q624 187 624 244 L624 679 L536 679 L536 697 L737 697 L737 679 L649 679 L649 243 Q649 184 632 137 Q615 90 583.5 57.5 Q552 25 508.5 8 Q465 -9 413 -9 Q268 -9 197.5 55 Q127 119 127 260 L127 679 L39 679 L39 697 L315 697 Z M418 836 Q449 836 472 844.5 Q495 853 510.5 866.5 Q526 880 533.5 896.5 Q541 913 542 928 L568 928 Q567 903 557.5 875.5 Q548 848 530 824.5 Q512 801 484 786 Q456 771 418 771 Q380 771 352 786 Q324 801 306 824.5 Q288 848 278.5 875.5 Q269 903 268 928 L294 928 Q295 913 302.5 896.5 Q310 880 325.5 866.5 Q341 853 364 844.5 Q387 836 418 836 Z " />
<glyph glyph-name="ubreve" unicode="&#x16d;" horiz-adv-x="568" d="M454 -9 Q424 -9 399.5 8 Q375 25 371 67 Q366 58 356.5 45 Q347 32 331 20 Q315 8 293 -0.5 Q271 -9 241 -9 Q196 -9 166 4 Q136 17 118.5 39 Q101 61 94 91 Q87 121 87 154 L87 441 L30 441 L30 457 L177 457 L177 132 Q177 111 180 90 Q183 69 192 52 Q201 35 217.5 24.5 Q234 14 262 14 Q288 14 308.5 25 Q329 36 342.5 54 Q356 72 363 95.5 Q370 119 370 145 L370 441 L313 441 L313 457 L460 457 L460 68 Q460 45 471 33.5 Q482 22 496 22 Q514 22 527 38 L536 28 Q524 11 502 1 Q480 -9 454 -9 Z M273 586 Q304 586 327 594.5 Q350 603 365.5 616.5 Q381 630 388.5 646.5 Q396 663 397 678 L423 678 Q422 653 412.5 625.5 Q403 598 385 574.5 Q367 551 339 536 Q311 521 273 521 Q235 521 207 536 Q179 551 161 574.5 Q143 598 133.5 625.5 Q124 653 123 678 L149 678 Q150 663 157.5 646.5 Q165 630 180.5 616.5 Q196 603 219 594.5 Q242 586 273 586 Z " />
<glyph glyph-name="Uring" unicode="&#x16e;" horiz-adv-x="765" d="M315 697 L315 679 L227 679 L227 237 Q227 173 244.5 130.5 Q262 88 289 62.5 Q316 37 349 26.5 Q382 16 413 16 Q459 16 498 30 Q537 44 565 72.5 Q593 101 608.5 144 Q624 187 624 244 L624 679 L536 679 L536 697 L737 697 L737 679 L649 679 L649 243 Q649 184 632 137 Q615 90 583.5 57.5 Q552 25 508.5 8 Q465 -9 413 -9 Q268 -9 197.5 55 Q127 119 127 260 L127 679 L39 679 L39 697 L315 697 Z M533 841 Q533 796 503 766 Q473 736 428 736 Q383 736 353 766 Q323 796 323 841 Q323 886 353 916 Q383 946 428 946 Q473 946 503 916 Q533 886 533 841 Z M482 841 Q482 871 469 897 Q456 923 428 923 Q400 923 387 897 Q374 871 374 841 Q374 811 387 785.5 Q400 760 428 760 Q456 760 469 785.5 Q482 811 482 841 Z " />
<glyph glyph-name="uring" unicode="&#x16f;" horiz-adv-x="568" d="M454 -9 Q424 -9 399.5 8 Q375 25 371 67 Q366 58 356.5 45 Q347 32 331 20 Q315 8 293 -0.5 Q271 -9 241 -9 Q196 -9 166 4 Q136 17 118.5 39 Q101 61 94 91 Q87 121 87 154 L87 441 L30 441 L30 457 L177 457 L177 132 Q177 111 180 90 Q183 69 192 52 Q201 35 217.5 24.5 Q234 14 262 14 Q288 14 308.5 25 Q329 36 342.5 54 Q356 72 363 95.5 Q370 119 370 145 L370 441 L313 441 L313 457 L460 457 L460 68 Q460 45 471 33.5 Q482 22 496 22 Q514 22 527 38 L536 28 Q524 11 502 1 Q480 -9 454 -9 Z M368 606 Q368 561 338 531 Q308 501 263 501 Q218 501 188 531 Q158 561 158 606 Q158 651 188 681 Q218 711 263 711 Q308 711 338 681 Q368 651 368 606 Z M317 606 Q317 636 304 662 Q291 688 263 688 Q235 688 222 662 Q209 636 209 606 Q209 576 222 550.5 Q235 525 263 525 Q291 525 304 550.5 Q317 576 317 606 Z " />
<glyph glyph-name="Uhungarumlaut" unicode="&#x170;" horiz-adv-x="765" d="M315 697 L315 679 L227 679 L227 237 Q227 173 244.5 130.5 Q262 88 289 62.5 Q316 37 349 26.5 Q382 16 413 16 Q459 16 498 30 Q537 44 565 72.5 Q593 101 608.5 144 Q624 187 624 244 L624 679 L536 679 L536 697 L737 697 L737 679 L649 679 L649 243 Q649 184 632 137 Q615 90 583.5 57.5 Q552 25 508.5 8 Q465 -9 413 -9 Q268 -9 197.5 55 Q127 119 127 260 L127 679 L39 679 L39 697 L315 697 Z M405 904 Q416 915 429 922.5 Q442 930 456 930 Q470 930 481.5 920.5 Q493 911 493 895 Q493 879 482.5 870.5 Q472 862 451 849 L302 756 L256 756 L405 904 Z M572 904 Q583 915 596 922.5 Q609 930 623 930 Q637 930 648.5 920.5 Q660 911 660 895 Q660 879 649.5 870.5 Q639 862 618 849 L469 756 L423 756 L572 904 Z " />
<glyph glyph-name="uhungarumlaut" unicode="&#x171;" horiz-adv-x="568" d="M454 -9 Q424 -9 399.5 8 Q375 25 371 67 Q366 58 356.5 45 Q347 32 331 20 Q315 8 293 -0.5 Q271 -9 241 -9 Q196 -9 166 4 Q136 17 118.5 39 Q101 61 94 91 Q87 121 87 154 L87 441 L30 441 L30 457 L177 457 L177 132 Q177 111 180 90 Q183 69 192 52 Q201 35 217.5 24.5 Q234 14 262 14 Q288 14 308.5 25 Q329 36 342.5 54 Q356 72 363 95.5 Q370 119 370 145 L370 441 L313 441 L313 457 L460 457 L460 68 Q460 45 471 33.5 Q482 22 496 22 Q514 22 527 38 L536 28 Q524 11 502 1 Q480 -9 454 -9 Z M260 664 Q271 675 284 682.5 Q297 690 311 690 Q325 690 336.5 680.5 Q348 671 348 655 Q348 639 337.5 630.5 Q327 622 306 609 L157 516 L111 516 L260 664 Z M427 664 Q438 675 451 682.5 Q464 690 478 690 Q492 690 503.5 680.5 Q515 671 515 655 Q515 639 504.5 630.5 Q494 622 473 609 L324 516 L278 516 L427 664 Z " />
<glyph glyph-name="Uogonek" unicode="&#x172;" horiz-adv-x="765" d="M315 697 L315 679 L227 679 L227 237 Q227 173 244.5 130.5 Q262 88 289 62.5 Q316 37 349 26.5 Q382 16 413 16 Q459 16 498 30 Q537 44 565 72.5 Q593 101 608.5 144 Q624 187 624 244 L624 679 L536 679 L536 697 L737 697 L737 679 L649 679 L649 243 Q649 162 618 104.5 Q587 47 532 18 Q480 -9 461 -47.5 Q442 -86 442 -123 Q442 -150 454.5 -173 Q467 -196 500 -196 Q517 -196 529.5 -189 Q542 -182 553 -171 L559 -181 Q537 -204 512 -217 Q487 -230 455 -230 Q410 -230 387 -203.5 Q364 -177 364 -142 Q364 -126 369 -108.5 Q374 -91 385.5 -73.5 Q397 -56 416 -38.5 Q435 -21 463 -5 Q451 -7 438.5 -8 Q426 -9 413 -9 Q268 -9 197.5 55 Q127 119 127 260 L127 679 L39 679 L39 697 L315 697 Z " />
<glyph glyph-name="uogonek" unicode="&#x173;" horiz-adv-x="568" d="M460 68 Q460 45 471 33.5 Q482 22 496 22 Q514 22 527 38 L536 28 Q524 11 504.5 4.5 Q485 -2 469 -14 Q437 -37 427.5 -65.5 Q418 -94 418 -123 Q418 -150 430.5 -173 Q443 -196 476 -196 Q493 -196 505.5 -189 Q518 -182 529 -171 L535 -181 Q513 -204 488 -217 Q463 -230 431 -230 Q386 -230 363 -203.5 Q340 -177 340 -142 Q340 -110 361 -74.5 Q382 -39 436 -7 Q411 -3 392.5 14.5 Q374 32 371 67 Q366 58 356.5 45 Q347 32 331 20 Q315 8 293 -0.5 Q271 -9 241 -9 Q196 -9 166 4 Q136 17 118.5 39 Q101 61 94 91 Q87 121 87 154 L87 441 L30 441 L30 457 L177 457 L177 132 Q177 111 180 90 Q183 69 192 52 Q201 35 217.5 24.5 Q234 14 262 14 Q288 14 308.5 25 Q329 36 342.5 54 Q356 72 363 95.5 Q370 119 370 145 L370 441 L313 441 L313 457 L460 457 L460 68 Z " />
<glyph glyph-name="Wcircumflex" unicode="&#x174;" horiz-adv-x="985" d="M912 632 Q912 661 899.5 670 Q887 679 870 679 L768 679 Q766 684 766 688 Q766 692 766 697 Q766 728 788.5 748 Q811 768 850 768 Q868 768 885 762.5 Q902 757 916 744.5 Q930 732 938.5 712.5 Q947 693 947 665 Q947 639 934.5 589.5 Q922 540 901.5 478 Q881 416 855 346.5 Q829 277 802.5 210.5 Q776 144 750.5 86.5 Q725 29 706 -9 L668 -9 L518 469 L340 -9 L302 -9 L72 679 L4 679 L4 697 L286 697 L286 679 L178 679 L362 119 L506 507 L448 679 L380 679 L380 697 L663 697 L663 679 L555 679 L732 119 Q768 194 800.5 274.5 Q833 355 857.5 426.5 Q882 498 897 553 Q912 608 912 632 Z M654 749 L520 845 L382 751 L364 763 L504 923 L537 923 L673 763 L654 749 Z " />
<glyph glyph-name="wcircumflex" unicode="&#x175;" horiz-adv-x="737" d="M253 441 L253 457 L482 457 L482 441 L406 441 L547 82 Q616 210 642.5 287 Q669 364 669 399 Q669 425 658 433 Q647 441 632 441 L546 441 Q545 446 544.5 450 Q544 454 544 458 Q544 486 564.5 503.5 Q585 521 616 521 Q632 521 647 515.5 Q662 510 674 498 Q686 486 693.5 467.5 Q701 449 701 423 Q701 393 684 342.5 Q667 292 642 233 Q617 174 587 113 Q557 52 532 0 L486 0 L378 271 L264 0 L215 0 L32 441 L-25 441 L-25 457 L194 457 L194 441 L128 441 L275 83 L367 298 L310 441 L253 441 Z M503 514 L369 610 L231 516 L213 528 L353 688 L386 688 L522 528 L503 514 Z " />
<glyph glyph-name="Ycircumflex" unicode="&#x176;" horiz-adv-x="657" d="M465 18 L465 0 L189 0 L189 18 L277 18 L277 309 L68 679 L0 679 L0 697 L292 697 L292 679 L184 679 L364 352 L558 679 L450 679 L450 697 L657 697 L657 679 L589 679 L377 323 L377 18 L465 18 Z M496 749 L362 845 L224 751 L206 763 L346 923 L379 923 L515 763 L496 749 Z " />
<glyph glyph-name="ycircumflex" unicode="&#x177;" horiz-adv-x="479" d="M27 441 L-30 441 L-30 457 L198 457 L198 441 L123 441 L273 113 L402 441 L330 441 L330 457 L481 457 L481 441 L424 441 L251 0 Q228 -59 209.5 -102.5 Q191 -146 172.5 -174.5 Q154 -203 133.5 -216.5 Q113 -230 86 -230 Q55 -230 37 -211.5 Q19 -193 19 -165 Q19 -161 19.5 -157.5 Q20 -154 21 -149 L116 -149 Q138 -149 152 -141.5 Q166 -134 178 -117 Q190 -100 201.5 -71 Q213 -42 229 0 L27 441 Z M382 514 L248 610 L110 516 L92 528 L232 688 L265 688 L401 528 L382 514 Z " />
<glyph glyph-name="Ydieresis" unicode="&#x178;" horiz-adv-x="657" d="M465 18 L465 0 L189 0 L189 18 L277 18 L277 309 L68 679 L0 679 L0 697 L292 697 L292 679 L184 679 L364 352 L558 679 L450 679 L450 697 L657 697 L657 679 L589 679 L377 323 L377 18 L465 18 Z M515 839 Q515 816 499.5 800.5 Q484 785 461 785 Q438 785 422.5 800.5 Q407 816 407 839 Q407 862 422.5 877.5 Q438 893 461 893 Q484 893 499.5 877.5 Q515 862 515 839 Z M314 839 Q314 816 298.5 800.5 Q283 785 260 785 Q237 785 221.5 800.5 Q206 816 206 839 Q206 862 221.5 877.5 Q237 893 260 893 Q283 893 298.5 877.5 Q314 862 314 839 Z " />
<glyph glyph-name="Zacute" unicode="&#x179;" horiz-adv-x="628" d="M192 530 Q185 523 172.5 516.5 Q160 510 140 510 Q103 510 80 530 Q57 550 57 591 Q57 612 66 631 Q75 650 94 665 Q113 680 142.5 688.5 Q172 697 213 697 L580 697 L580 683 L144 18 L355 18 Q404 18 438 32 Q472 46 495 72.5 Q518 99 532 137.5 Q546 176 556 226 L578 226 L562 0 L42 0 L42 18 L475 679 L213 679 Q173 679 149.5 671.5 Q126 664 107 643 L192 530 Z M366 904 Q377 915 390 922.5 Q403 930 417 930 Q431 930 442.5 920.5 Q454 911 454 895 Q454 879 443.5 870.5 Q433 862 412 849 L253 756 L227 756 L366 904 Z " />
<glyph glyph-name="zacute" unicode="&#x17a;" horiz-adv-x="454" d="M192 441 Q161 441 137 439 Q113 437 95 429 L135 337 Q127 331 117.5 326.5 Q108 322 92 322 Q70 322 53.5 337.5 Q37 353 37 377 Q37 398 46.5 413.5 Q56 429 71.5 438.5 Q87 448 107.5 452.5 Q128 457 149 457 L422 457 L422 450 L125 16 L287 16 Q339 16 365 51 Q391 86 394 151 L410 151 L410 0 L26 0 L26 12 L319 441 L192 441 Z M288 664 Q299 675 312 682.5 Q325 690 339 690 Q353 690 364.5 680.5 Q376 671 376 655 Q376 639 365.5 630.5 Q355 622 334 609 L175 516 L149 516 L288 664 Z " />
<glyph glyph-name="Zdotaccent" unicode="&#x17b;" horiz-adv-x="628" d="M192 530 Q185 523 172.5 516.5 Q160 510 140 510 Q103 510 80 530 Q57 550 57 591 Q57 612 66 631 Q75 650 94 665 Q113 680 142.5 688.5 Q172 697 213 697 L580 697 L580 683 L144 18 L355 18 Q404 18 438 32 Q472 46 495 72.5 Q518 99 532 137.5 Q546 176 556 226 L578 226 L562 0 L42 0 L42 18 L475 679 L213 679 Q173 679 149.5 671.5 Q126 664 107 643 L192 530 Z M383 839 Q383 816 366.5 799.5 Q350 783 327 783 Q304 783 287.5 799.5 Q271 816 271 839 Q271 862 287.5 878.5 Q304 895 327 895 Q350 895 366.5 878.5 Q383 862 383 839 Z " />
</font>
</svg>
