<?xml version="1.0" encoding="UTF-8"?>
<svg xmlns="http://www.w3.org/2000/svg" xmlns:xlink="http://www.w3.org/1999/xlink" version="1.2" >
<font id="Exquise FY Black Italic">
<font-face  font-family="Exquise FY" units-per-em="1000" ascent="780" descent="-220" font-style="italic" font-weight="900" font-stretch="normal" slope="-12" cap-height="698" x-height="467" underline-position="-75" underline-thickness="50" />
<missing-glyph  horiz-adv-x="638" d="M319 134 Q274 156 234.5 185.5 Q195 215 165 249 Q135 283 117.5 320 Q100 357 100 393 Q100 444 128.5 470.5 Q157 497 204 497 Q236 497 266 480 Q296 463 319 431 Q342 463 372 480 Q402 497 434 497 Q481 497 509.5 470.5 Q538 444 538 393 Q538 357 520.5 320 Q503 283 473 249 Q443 215 403.5 185.5 Q364 156 319 134 Z " />
<glyph glyph-name=".null" d="" />
<glyph glyph-name="&amp;#x0;" d="" />
<glyph glyph-name="&amp;#xd;" unicode="&#xd;" d="" />
<glyph glyph-name="space" unicode="&#x20;" horiz-adv-x="170" d="" />
<glyph glyph-name="exclam" unicode="&#x21;" horiz-adv-x="307" d="M89 -8 Q60 -8 44 8.5 Q28 25 28 49 Q28 68 35.5 84.5 Q43 101 55.5 114 Q68 127 85 134.5 Q102 142 121 142 Q152 142 168 125.5 Q184 109 184 83 Q184 65 176.5 48.5 Q169 32 156.5 19.5 Q144 7 126.5 -0.5 Q109 -8 89 -8 Z M115 203 Q123 245 126.5 284.5 Q130 324 130 362 Q130 409 127 452.5 Q124 496 124 534 Q124 573 131 606 Q138 639 153 663 Q168 687 190.5 700.5 Q213 714 244 714 Q279 714 298 694 Q317 674 317 640 Q317 606 297 559 Q277 512 250.5 455 Q224 398 197 334 Q170 270 156 203 L115 203 Z " />
<glyph glyph-name="quotedbl" unicode="&#x22;" horiz-adv-x="377" d="M128 455 Q126 498 123.5 543.5 Q121 589 121 626 Q121 683 140.5 714 Q160 745 206 745 Q229 745 243.5 734 Q258 723 258 699 Q258 681 248 651.5 Q238 622 224 591 L162 455 L128 455 Z M316 455 Q314 498 311.5 543.5 Q309 589 309 626 Q309 683 328.5 714 Q348 745 394 745 Q417 745 431.5 734 Q446 723 446 699 Q446 681 436 651.5 Q426 622 412 591 L350 455 L316 455 Z " />
<glyph glyph-name="numbersign" unicode="&#x23;" horiz-adv-x="611" d="M75 446 L200 446 L251 655 L326 655 L275 446 L417 446 L468 655 L543 655 L493 446 L611 446 L607 404 L482 404 L444 251 L562 251 L558 209 L432 209 L383 0 L307 0 L357 209 L215 209 L164 0 L90 0 L140 209 L22 209 L25 251 L151 251 L190 404 L71 404 L75 446 Z M227 251 L368 251 L407 404 L264 404 L227 251 Z " />
<glyph glyph-name="dollar" unicode="&#x24;" horiz-adv-x="566" d="M432 724 L419 659 Q457 657 488.5 651 Q520 645 556 635 L522 455 L497 455 Q497 493 492.5 524.5 Q488 556 476 579 Q464 602 443 614.5 Q422 627 389 627 Q346 627 317.5 600.5 Q289 574 289 532 Q289 499 315 471 Q341 443 391 410 Q455 367 488 325.5 Q521 284 521 228 Q521 185 502.5 142.5 Q484 100 449 66.5 Q414 33 363 12.5 Q312 -8 247 -8 L233 -79 L203 -79 L217 -9 Q173 -9 128.5 -1 Q84 7 33 21 L71 219 L100 219 Q97 196 97 177 Q97 100 129 62 Q161 24 206 24 Q257 24 283.5 53.5 Q310 83 310 125 Q310 160 284 192 Q258 224 196 265 Q138 302 111.5 340.5 Q85 379 85 431 Q85 477 107.5 518 Q130 559 170.5 590 Q211 621 266.5 639.5 Q322 658 389 659 L402 724 L432 724 Z " />
<glyph glyph-name="percent" unicode="&#x25;" horiz-adv-x="938" d="M143 -8 L728 666 L782 666 L197 -8 L143 -8 Z M316 712 Q345 712 370 701.5 Q395 691 413 672.5 Q431 654 441.5 628.5 Q452 603 452 572 Q452 516 436 469 Q420 422 390.5 387.5 Q361 353 321 334 Q281 315 233 315 Q174 315 135 353.5 Q96 392 96 466 Q96 523 114 568.5 Q132 614 162 646 Q192 678 232 695 Q272 712 316 712 Z M313 692 Q298 692 281.5 661 Q265 630 251.5 584.5 Q238 539 229.5 487 Q221 435 221 392 Q221 361 225 348 Q229 335 237 335 Q251 335 267 365.5 Q283 396 296.5 441.5 Q310 487 319 539.5 Q328 592 328 636 Q328 670 323.5 681 Q319 692 313 692 Z M734 388 Q763 388 788 378 Q813 368 831 349.5 Q849 331 859.5 305 Q870 279 870 248 Q870 192 854 145.5 Q838 99 808.5 64.5 Q779 30 739 11 Q699 -8 651 -8 Q592 -8 553 30.5 Q514 69 514 143 Q514 199 532 244.5 Q550 290 580.5 322 Q611 354 650.5 371 Q690 388 734 388 Z M731 368 Q721 368 710.5 353.5 Q700 339 689.5 315.5 Q679 292 670 261 Q661 230 654 197 Q647 164 643 130.5 Q639 97 639 69 Q639 37 643 24 Q647 11 655 11 Q669 11 685 41.5 Q701 72 714.5 118 Q728 164 737 216.5 Q746 269 746 313 Q746 346 742 357 Q738 368 731 368 Z " />
<glyph glyph-name="ampersand" unicode="&#x26;" horiz-adv-x="710" d="M330 555 Q330 526 337.5 501 Q345 476 360 457 Q375 438 396.5 427.5 Q418 417 445 417 L482 417 L479 397 L439 397 Q385 397 342.5 380 Q300 363 271.5 334.5 Q243 306 228 269.5 Q213 233 213 194 Q213 113 251.5 68.5 Q290 24 359 24 Q400 24 434 43 Q468 62 492.5 93.5 Q517 125 530.5 166 Q544 207 544 251 Q544 257 544 264 Q544 271 543 277 L445 277 Q369 277 350 232 L460 146 Q449 131 428.5 120 Q408 109 379 109 Q349 109 326.5 130 Q304 151 304 189 Q304 238 341.5 267 Q379 296 450 296 L580 296 Q618 296 638 306.5 Q658 317 672 339 L559 430 Q570 444 591 455 Q612 466 639 466 Q669 466 694.5 445.5 Q720 425 720 388 Q720 366 711.5 346 Q703 326 685.5 310.5 Q668 295 641 286 Q614 277 576 277 L566 277 Q567 272 567 265.5 Q567 259 567 253 Q567 209 553 163 Q539 117 507 79 Q475 41 422.5 16.5 Q370 -8 294 -8 Q227 -8 180 7 Q133 22 103 48.5 Q73 75 59 111 Q45 147 45 190 Q45 229 59.5 266 Q74 303 104 333 Q134 363 180 384 Q226 405 290 411 Q256 418 232.5 432.5 Q209 447 194 466 Q179 485 172.5 507 Q166 529 166 550 Q166 587 182.5 617.5 Q199 648 227.5 669.5 Q256 691 294.5 702.5 Q333 714 377 714 Q407 714 430 710 Q453 706 471 701.5 Q489 697 502.5 693 Q516 689 525 689 Q531 689 536.5 692 Q542 695 545 708 L566 708 L525 519 L504 519 L512 556 Q515 572 515 585 Q515 612 508 631 Q501 650 489 662 Q477 674 461.5 680 Q446 686 429 686 Q411 686 393.5 678 Q376 670 361.5 653.5 Q347 637 338.5 612.5 Q330 588 330 555 Z " />
<glyph glyph-name="quotesingle" unicode="&#x27;" horiz-adv-x="189" d="M128 455 Q126 498 123.5 543.5 Q121 589 121 626 Q121 683 140.5 714 Q160 745 206 745 Q229 745 243.5 734 Q258 723 258 699 Q258 681 248 651.5 Q238 622 224 591 L162 455 L128 455 Z " />
<glyph glyph-name="parenleft" unicode="&#x28;" horiz-adv-x="395" d="M75 205 Q75 300 110.5 383 Q146 466 206 534.5 Q266 603 344.5 656.5 Q423 710 509 746 L512 729 Q439 680 388 606.5 Q337 533 304.5 449.5 Q272 366 257 281.5 Q242 197 242 125 Q242 31 263 -36.5 Q284 -104 335 -152 L323 -169 Q269 -144 223.5 -107 Q178 -70 145 -22.5 Q112 25 93.5 82 Q75 139 75 205 Z " />
<glyph glyph-name="parenright" unicode="&#x29;" horiz-adv-x="446" d="M352 372 Q352 277 316.5 194 Q281 111 221.5 43 Q162 -25 83.5 -78.5 Q5 -132 -81 -169 L-85 -152 Q-12 -103 39.5 -29.5 Q91 44 123.5 127.5 Q156 211 171 295.5 Q186 380 186 452 Q186 546 165 613.5 Q144 681 93 729 L104 746 Q158 721 203.5 684 Q249 647 282 599.5 Q315 552 333.5 495 Q352 438 352 372 Z " />
<glyph glyph-name="asterisk" unicode="&#x2a;" horiz-adv-x="447" d="M311 436 Q314 418 315.5 399.5 Q317 381 317 366 Q317 289 250 289 Q206 289 206 324 Q206 343 220.5 372.5 Q235 402 255 436 L286 490 L241 445 Q207 411 178 388.5 Q149 366 126 366 Q109 366 97 379 Q85 392 85 415 Q85 433 95.5 445.5 Q106 458 124 467 Q142 476 167.5 482 Q193 488 223 493 L282 503 L227 510 Q182 516 149.5 529 Q117 542 117 568 Q117 579 123 591 Q129 603 139 613.5 Q149 624 160.5 630.5 Q172 637 183 637 Q207 637 226.5 614.5 Q246 592 266 559 L291 517 L282 567 Q274 607 274 640 Q274 676 292 695 Q310 714 341 714 Q361 714 373 705 Q385 696 385 679 Q385 661 371.5 630 Q358 599 338 567 L307 516 L351 559 Q383 591 413.5 614 Q444 637 465 637 Q482 637 494.5 623.5 Q507 610 507 587 Q507 552 467.5 534 Q428 516 368 510 L311 504 L366 493 Q387 489 406.5 484.5 Q426 480 441.5 473.5 Q457 467 466 457.5 Q475 448 475 435 Q475 424 468.5 411.5 Q462 399 452 389 Q442 379 430 372.5 Q418 366 407 366 Q384 366 365 388.5 Q346 411 327 445 L302 489 L311 436 Z " />
<glyph glyph-name="plus" unicode="&#x2b;" horiz-adv-x="649" d="M337 259 L290 38 L234 38 L281 259 L50 259 L60 305 L291 305 L338 526 L394 526 L347 305 L578 305 L568 259 L337 259 Z " />
<glyph glyph-name="comma" unicode="&#x2c;" horiz-adv-x="249" d="M-19 -108 Q18 -85 42.5 -62 Q67 -39 67 -22 Q67 -16 58 -10.5 Q49 -5 37.5 2.5 Q26 10 17 22 Q8 34 8 55 Q8 96 36.5 125.5 Q65 155 109 155 Q146 155 162.5 135 Q179 115 179 82 Q179 51 162.5 20.5 Q146 -10 120 -38.5 Q94 -67 62 -91 Q30 -115 -1 -133 L-19 -108 Z " />
<glyph glyph-name="hyphen" unicode="&#x2d;" horiz-adv-x="376" d="M68 289 L321 289 L298 215 L45 215 L68 289 Z " />
<glyph glyph-name="period" unicode="&#x2e;" horiz-adv-x="256" d="M78 -8 Q46 -8 28 10.5 Q10 29 10 55 Q10 75 18 93.5 Q26 112 40 126 Q54 140 72.5 148.5 Q91 157 113 157 Q146 157 163.5 139 Q181 121 181 93 Q181 73 173 55 Q165 37 151.5 23 Q138 9 119 0.5 Q100 -8 78 -8 Z " />
<glyph glyph-name="slash" unicode="&#x2f;" horiz-adv-x="349" d="M363 733 L433 733 L64 -38 L-5 -38 L363 733 Z " />
<glyph glyph-name="zero" unicode="0" horiz-adv-x="634" d="M373 501 Q430 501 472.5 486.5 Q515 472 544 445.5 Q573 419 587.5 383 Q602 347 602 305 Q602 241 577 184 Q552 127 507 84.5 Q462 42 400 17 Q338 -8 265 -8 Q209 -8 166.5 6.5 Q124 21 95.5 46.5 Q67 72 52.5 108 Q38 144 38 186 Q38 250 63 307 Q88 364 132 407 Q176 450 237.5 475.5 Q299 501 373 501 Z M271 19 Q298 19 322 55.5 Q346 92 364 146.5 Q382 201 392.5 264 Q403 327 403 381 Q403 475 368 475 Q352 475 335.5 457 Q319 439 304 409 Q289 379 276 340 Q263 301 253.5 260.5 Q244 220 238.5 180.5 Q233 141 233 109 Q233 61 242 40 Q251 19 271 19 Z " />
<glyph glyph-name="one" unicode="1" horiz-adv-x="461" d="M40 315 Q82 334 121 354 Q160 374 198 396 Q236 418 274.5 443 Q313 468 355 497 L430 497 L329 26 L410 26 L404 0 L-14 0 L-8 26 L100 26 L166 340 L47 290 L40 315 Z " />
<glyph glyph-name="two" unicode="2" horiz-adv-x="525" d="M-31 -8 Q-11 24 22 56.5 Q55 89 90 117 Q119 141 155 171 Q191 201 222 236.5 Q253 272 274 312 Q295 352 295 396 Q295 424 279 443 Q263 462 231 462 Q209 462 190 451.5 Q171 441 155 427 L223 321 Q209 298 182 283 Q155 268 121 268 Q91 268 73 284.5 Q55 301 55 332 Q55 360 72 390 Q89 420 121.5 445 Q154 470 201.5 485.5 Q249 501 311 501 Q407 501 452 469.5 Q497 438 497 388 Q497 357 488 333 Q479 309 459 289 Q439 269 407 251 Q375 233 329 214 Q299 201 275 191 Q251 181 230 172 Q209 163 190 153 Q171 143 151 130 Q177 141 199 144.5 Q221 148 239 148 Q271 148 301 141 Q331 134 361 134 Q379 134 391.5 138 Q404 142 413 150.5 Q422 159 429.5 172.5 Q437 186 445 205 L462 205 L419 6 Q399 -3 378 -7.5 Q357 -12 323 -12 Q280 -12 247.5 -4.5 Q215 3 187 11.5 Q159 20 133 27.5 Q107 35 77 35 Q48 35 25.5 20.5 Q3 6 -19 -18 L-31 -8 Z " />
<glyph glyph-name="three" unicode="3" horiz-adv-x="492" d="M-42 -140 Q-26 -150 -6 -156.5 Q14 -163 52 -163 Q87 -163 116 -149.5 Q145 -136 166 -112.5 Q187 -89 199 -57 Q211 -25 211 12 Q211 47 203.5 70 Q196 93 183.5 106.5 Q171 120 153.5 125 Q136 130 116 130 Q100 130 86 126.5 Q72 123 57 118 L51 141 L93 152 Q184 176 235.5 230 Q287 284 287 368 Q287 396 280 414 Q273 432 262.5 442.5 Q252 453 238 457.5 Q224 462 211 462 Q188 462 167.5 452 Q147 442 136 431 L210 306 Q194 282 172 271.5 Q150 261 125 261 Q93 261 71.5 280 Q50 299 50 339 Q50 358 62 386 Q74 414 102.5 439.5 Q131 465 178 483 Q225 501 296 501 Q338 501 369.5 490 Q401 479 422.5 460.5 Q444 442 454.5 416.5 Q465 391 465 362 Q465 319 444.5 287 Q424 255 392 232.5 Q360 210 320.5 196 Q281 182 244 176 Q274 174 303.5 165.5 Q333 157 356.5 140 Q380 123 394.5 97.5 Q409 72 409 37 Q409 -21 385 -64.5 Q361 -108 320.5 -137.5 Q280 -167 226 -181.5 Q172 -196 113 -196 Q50 -196 8.5 -187.5 Q-33 -179 -56 -165 L-42 -140 Z " />
<glyph glyph-name="four" unicode="4" horiz-adv-x="513" d="M466 493 L367 23 L438 23 L432 -4 L361 -4 L330 -149 L411 -149 L405 -176 L49 -176 L55 -149 L135 -149 L166 -4 L-39 -4 L-34 23 L321 493 L466 493 Z M172 23 L242 353 L-4 23 L172 23 Z " />
<glyph glyph-name="five" unicode="5" horiz-adv-x="511" d="M-42 -147 Q-13 -165 34 -165 Q88 -165 127.5 -141.5 Q167 -118 192.5 -79.5 Q218 -41 230.5 8.5 Q243 58 243 111 Q243 156 226.5 173.5 Q210 191 181 191 Q150 191 120 169.5 Q90 148 64 116 L28 116 L125 480 L437 480 Q466 480 482 493.5 Q498 507 506 530 L521 530 L478 330 L113 330 L63 146 Q102 188 152.5 212.5 Q203 237 273 237 Q351 237 394.5 196 Q438 155 438 78 Q438 18 413.5 -32.5 Q389 -83 343.5 -120 Q298 -157 233 -178 Q168 -199 88 -199 Q46 -199 7.5 -192 Q-31 -185 -56 -170 L-42 -147 Z " />
<glyph glyph-name="six" unicode="6" horiz-adv-x="587" d="M547 660 Q536 663 524 664.5 Q512 666 497 666 Q462 666 427.5 649 Q393 632 363.5 601.5 Q334 571 311 527.5 Q288 484 275 431 Q297 455 336.5 476 Q376 497 420 497 Q483 497 519 456.5 Q555 416 555 341 Q555 278 531.5 216 Q508 154 466 105 Q424 56 365 25.5 Q306 -5 235 -5 Q185 -5 148.5 12 Q112 29 88.5 59.5 Q65 90 53.5 131 Q42 172 42 220 Q42 289 62.5 351 Q83 413 117 466.5 Q151 520 196 562.5 Q241 605 289 635.5 Q337 666 386 682 Q435 698 477 698 Q532 698 559 689 L547 660 Z M241 23 Q253 23 267 40 Q281 57 294 85.5 Q307 114 319 151 Q331 188 339.5 227.5 Q348 267 353.5 306 Q359 345 359 379 Q359 440 334 440 Q318 440 303 422 Q288 404 274.5 375 Q261 346 250 309 Q239 272 231 234 Q223 196 218.5 160 Q214 124 214 97 Q214 58 221 40.5 Q228 23 241 23 Z " />
<glyph glyph-name="seven" unicode="7" horiz-adv-x="486" d="M264 -123 Q255 -141 241 -155 Q227 -169 210 -178.5 Q193 -188 175 -193.5 Q157 -199 140 -199 Q98 -198 70.5 -172.5 Q43 -147 43 -93 Q43 -41 64 -1.5 Q85 38 118.5 72 Q152 106 195 137 Q238 168 282 202 Q326 236 367.5 276 Q409 316 440 368 Q414 344 385 329.5 Q356 315 324 315 Q285 315 241 325.5 Q197 336 149 336 Q120 336 94 318 Q68 300 59 268 L51 238 L31 238 L82 478 Q96 487 124.5 496.5 Q153 506 192 506 Q235 506 269.5 495 Q304 484 333.5 471 Q363 458 388.5 447 Q414 436 440 436 Q467 436 483.5 453 Q500 470 508 496 L534 496 Q505 415 467.5 356.5 Q430 298 389 255 Q348 212 306.5 181 Q265 150 227.5 123 Q190 96 159.5 69.5 Q129 43 111 10 L264 -123 Z " />
<glyph glyph-name="eight" unicode="8" horiz-adv-x="599" d="M552 227 Q552 168 522.5 124 Q493 80 447 51 Q401 22 344 7 Q287 -8 232 -8 Q129 -8 71.5 27.5 Q14 63 14 129 Q14 163 28 193.5 Q42 224 66.5 250 Q91 276 126 296.5 Q161 317 203 331 Q159 363 136 399.5 Q113 436 113 481 Q113 516 130 554 Q147 592 183 624 Q219 656 275 677 Q331 698 409 698 Q458 698 493 688.5 Q528 679 550.5 662.5 Q573 646 583.5 624.5 Q594 603 594 580 Q594 551 582 524 Q570 497 548.5 474 Q527 451 496 434.5 Q465 418 427 410 Q489 364 520.5 320 Q552 276 552 227 Z M391 437 Q402 453 412 474 Q422 495 429.5 518 Q437 541 441.5 564.5 Q446 588 446 609 Q446 635 433 652.5 Q420 670 401 670 Q389 670 375 664.5 Q361 659 349 646 Q337 633 329.5 611.5 Q322 590 322 559 Q322 521 343.5 489.5 Q365 458 391 437 Z M234 20 Q252 20 270 29.5 Q288 39 302.5 55 Q317 71 325.5 93 Q334 115 334 139 Q334 160 330 178.5 Q326 197 316 215 Q306 233 288.5 253 Q271 273 244 297 Q234 285 221.5 266.5 Q209 248 197.5 224.5 Q186 201 178 172.5 Q170 144 170 113 Q170 66 188 43 Q206 20 234 20 Z " />
<glyph glyph-name="nine" unicode="9" horiz-adv-x="582" d="M22 -149 Q30 -154 48 -156 Q66 -158 80 -158 Q116 -158 153 -140.5 Q190 -123 222 -92.5 Q254 -62 279.5 -20.5 Q305 21 317 69 Q294 39 253.5 19.5 Q213 0 168 0 Q102 0 66 39.5 Q30 79 30 153 Q30 227 57.5 291 Q85 355 129.5 401.5 Q174 448 230.5 474.5 Q287 501 346 501 Q397 501 435.5 484 Q474 467 499 436.5 Q524 406 536.5 365 Q549 324 549 276 Q549 217 533 159 Q517 101 487.5 49 Q458 -3 416.5 -47.5 Q375 -92 324 -124 Q273 -156 213.5 -174.5 Q154 -193 89 -193 Q67 -193 43.5 -188 Q20 -183 9 -178 L22 -149 Z M347 473 Q328 473 307 441.5 Q286 410 268.5 360.5 Q251 311 239.5 250 Q228 189 228 129 Q228 89 235.5 73 Q243 57 255 57 Q278 57 299.5 90.5 Q321 124 338 174.5 Q355 225 365.5 285 Q376 345 376 398 Q376 438 367.5 455.5 Q359 473 347 473 Z " />
<glyph glyph-name="colon" unicode="&#x3a;" horiz-adv-x="286" d="M163 318 Q131 318 113 336.5 Q95 355 95 381 Q95 401 103 419.5 Q111 438 125 452 Q139 466 157.5 474.5 Q176 483 198 483 Q231 483 248.5 465 Q266 447 266 419 Q266 399 258 381 Q250 363 236.5 349 Q223 335 204 326.5 Q185 318 163 318 Z M93 -8 Q61 -8 43 10.5 Q25 29 25 55 Q25 75 33 93.5 Q41 112 55 126 Q69 140 87.5 148.5 Q106 157 128 157 Q161 157 178.5 139 Q196 121 196 93 Q196 73 188 55 Q180 37 166.5 23 Q153 9 134 0.5 Q115 -8 93 -8 Z " />
<glyph glyph-name="semicolon" unicode="&#x3b;" horiz-adv-x="279" d="M-4 -108 Q33 -85 57.5 -62 Q82 -39 82 -22 Q82 -16 73 -10.5 Q64 -5 52.5 2.5 Q41 10 32 22 Q23 34 23 55 Q23 96 51.5 125.5 Q80 155 124 155 Q161 155 177.5 135 Q194 115 194 82 Q194 51 177.5 20.5 Q161 -10 135 -38.5 Q109 -67 77 -91 Q45 -115 14 -133 L-4 -108 Z M159 318 Q127 318 109 336.5 Q91 355 91 381 Q91 401 99 419.5 Q107 438 121 452 Q135 466 153.5 474.5 Q172 483 194 483 Q227 483 244.5 465 Q262 447 262 419 Q262 399 254 381 Q246 363 232.5 349 Q219 335 200 326.5 Q181 318 159 318 Z " />
<glyph glyph-name="less" unicode="&#x3c;" horiz-adv-x="649" d="M63 308 L601 500 L589 448 L119 282 L519 116 L508 64 L53 256 L63 308 Z " />
<glyph glyph-name="equal" unicode="&#x3d;" horiz-adv-x="649" d="M79 350 L88 396 L586 396 L576 350 L79 350 Z M42 175 L52 221 L549 221 L540 175 L42 175 Z " />
<glyph glyph-name="greater" unicode="&#x3e;" horiz-adv-x="649" d="M570 246 L32 55 L43 106 L513 273 L114 439 L125 491 L580 299 L570 246 Z " />
<glyph glyph-name="question" unicode="&#x3f;" horiz-adv-x="431" d="M468 584 Q468 545 453 513 Q438 481 412.5 454.5 Q387 428 354.5 406.5 Q322 385 288 368 Q263 355 247 345 Q231 335 220.5 323.5 Q210 312 204 296 Q198 280 193 256 L181 203 L140 203 L159 290 Q166 323 188.5 352 Q211 381 235.5 414.5 Q260 448 279 489.5 Q298 531 298 587 Q298 626 279 648.5 Q260 671 227 671 Q198 671 176 658.5 Q154 646 142 632 L219 514 Q216 511 208.5 504.5 Q201 498 190 491 Q179 484 164.5 479 Q150 474 132 474 Q99 474 82 493.5 Q65 513 65 541 Q65 559 75.5 588.5 Q86 618 113 646 Q140 674 186.5 694 Q233 714 305 714 Q347 714 377.5 703 Q408 692 428.5 674 Q449 656 458.5 632.5 Q468 609 468 584 Z M117 -8 Q88 -8 72 8.5 Q56 25 56 49 Q56 68 63.5 84.5 Q71 101 83.5 114 Q96 127 113 134.5 Q130 142 149 142 Q180 142 196 125.5 Q212 109 212 83 Q212 65 204.5 48.5 Q197 32 184.5 19.5 Q172 7 154.5 -0.5 Q137 -8 117 -8 Z " />
<glyph glyph-name="at" unicode="&#x40;" horiz-adv-x="871" d="M534 458 Q523 458 508.5 445 Q494 432 477.5 410.5 Q461 389 445 360 Q429 331 416 299.5 Q403 268 395 235.5 Q387 203 387 173 Q387 156 392.5 144.5 Q398 133 410 133 Q429 133 455 160.5 Q481 188 503.5 230 Q526 272 542 321 Q558 370 558 413 Q558 433 552.5 445.5 Q547 458 534 458 Z M650 470 L718 470 Q668 373 639 314.5 Q610 256 595 222 Q580 188 576 171.5 Q572 155 572 143 Q572 123 581 110 Q590 97 606 97 Q645 97 678.5 120 Q712 143 737 182 Q762 221 776 272.5 Q790 324 790 381 Q790 432 778.5 477.5 Q767 523 741 557 Q715 591 674 611 Q633 631 574 631 Q519 631 469 612.5 Q419 594 375.5 561.5 Q332 529 296 485.5 Q260 442 234.5 392 Q209 342 195 288.5 Q181 235 181 183 Q181 134 197.5 92 Q214 50 247 19.5 Q280 -11 330.5 -28.5 Q381 -46 449 -46 Q515 -46 574.5 -30.5 Q634 -15 682 8 L685 -13 Q631 -40 563 -57.5 Q495 -75 403 -75 Q320 -75 253.5 -55.5 Q187 -36 140 1 Q93 38 67.5 92.5 Q42 147 42 217 Q42 306 83 386 Q124 466 195 526 Q266 586 361 621.5 Q456 657 563 657 Q634 657 689.5 637.5 Q745 618 783.5 583 Q822 548 842 498.5 Q862 449 862 388 Q862 322 837 264.5 Q812 207 772 164.5 Q732 122 682 97.5 Q632 73 582 73 Q537 73 511 92 Q485 111 481 158 Q449 126 417.5 108 Q386 90 353 90 Q321 90 297 114.5 Q273 139 273 189 Q273 235 293.5 286.5 Q314 338 349 381.5 Q384 425 430 453.5 Q476 482 526 482 Q563 482 579 465 Q595 448 603 420 L650 470 Z " />
<glyph glyph-name="A" unicode="A" horiz-adv-x="595" d="M230 26 L316 26 L294 198 L109 198 L14 26 L94 26 L89 0 L-77 0 L-72 26 L-18 26 L355 698 L436 698 L524 26 L579 26 L574 0 L226 0 L230 26 Z M259 471 L124 225 L290 225 L259 471 Z " />
<glyph glyph-name="B" unicode="B" horiz-adv-x="688" d="M99 650 Q124 660 155.5 671 Q187 682 224.5 691 Q262 700 306 706 Q350 712 401 712 Q476 712 529.5 699 Q583 686 617 664 Q651 642 667 613.5 Q683 585 683 554 Q683 519 669.5 488.5 Q656 458 631.5 434 Q607 410 571.5 395.5 Q536 381 491 378 Q530 375 561.5 362 Q593 349 615 328.5 Q637 308 648.5 282 Q660 256 660 226 Q660 159 631.5 115 Q603 71 558 45.5 Q513 20 457.5 10 Q402 0 349 0 L-20 0 L-15 26 L56 26 L164 527 Q175 575 197.5 611 Q220 647 251 670 Q220 664 179.5 651 Q139 638 109 624 L99 650 Z M270 27 L298 27 Q338 27 366.5 47 Q395 67 413 97.5 Q431 128 439.5 164.5 Q448 201 448 234 Q448 269 442 292.5 Q436 316 425 330 Q414 344 399.5 350 Q385 356 368 356 L339 356 L270 27 Z M345 383 L377 383 Q395 383 417 391.5 Q439 400 458.5 422.5 Q478 445 491.5 485 Q505 525 505 588 Q505 634 483.5 660.5 Q462 687 422 687 Q418 687 415 687 Q412 687 407 686 L345 383 Z " />
<glyph glyph-name="C" unicode="C" horiz-adv-x="587" d="M581 205 Q563 160 537.5 121.5 Q512 83 476.5 54 Q441 25 396.5 8.5 Q352 -8 297 -8 Q234 -8 187 14 Q140 36 108 74 Q76 112 60 163.5 Q44 215 44 274 Q44 325 55.5 377.5 Q67 430 89.5 478.5 Q112 527 145.5 569.5 Q179 612 224 643.5 Q269 675 325.5 693.5 Q382 712 449 712 Q501 712 536.5 698 Q572 684 594 663 Q616 642 626 616.5 Q636 591 636 568 Q636 542 627.5 518 Q619 494 602.5 476 Q586 458 563 447.5 Q540 437 512 437 Q476 437 456 447.5 Q436 458 422 474 L581 629 Q570 647 545 665.5 Q520 684 486 684 Q446 684 414 664.5 Q382 645 357.5 612 Q333 579 315.5 536 Q298 493 287 445 Q276 397 271 347.5 Q266 298 266 253 Q266 148 292.5 94.5 Q319 41 376 41 Q403 41 429.5 55 Q456 69 479.5 93 Q503 117 522.5 149 Q542 181 556 216 L581 205 Z " />
<glyph glyph-name="D" unicode="D" horiz-adv-x="721" d="M270 26 L295 26 Q348 26 390.5 60.5 Q433 95 463 156.5 Q493 218 509 303.5 Q525 389 525 490 Q525 536 519.5 572 Q514 608 501 633 Q488 658 465.5 671 Q443 684 410 684 L270 26 Z M165 529 Q169 546 176.5 566 Q184 586 195 605 Q206 624 220 641 Q234 658 252 670 Q217 662 175 649 Q133 636 105 622 L95 649 Q105 652 129 662 Q153 672 191.5 683.5 Q230 695 283 703.5 Q336 712 404 712 Q560 712 640.5 635 Q721 558 721 418 Q721 346 697.5 272 Q674 198 623.5 137.5 Q573 77 492.5 38.5 Q412 0 298 0 L-19 0 L-14 26 L57 26 L165 529 Z " />
<glyph glyph-name="E" unicode="E" horiz-adv-x="619" d="M533 698 Q597 698 632 669 Q667 640 667 598 Q667 572 657.5 549 Q648 526 631 508.5 Q614 491 591 480.5 Q568 470 540 470 Q505 470 487 481.5 Q469 493 456 509 L598 651 Q590 659 572.5 665.5 Q555 672 518 672 L399 672 L332 354 L485 354 L479 328 L326 328 L261 26 L305 26 Q356 26 394.5 37 Q433 48 461.5 67.5 Q490 87 509.5 115 Q529 143 543 178 L561 222 L584 222 L537 0 L-28 0 L-24 26 L48 26 L186 672 L114 672 L118 698 L533 698 Z " />
<glyph glyph-name="F" unicode="F" horiz-adv-x="589" d="M522 698 Q587 698 618.5 670 Q650 642 650 598 Q650 572 641 549 Q632 526 616 508.5 Q600 491 577.5 480.5 Q555 470 527 470 Q492 470 474 481.5 Q456 493 443 509 L584 651 Q576 659 559.5 665.5 Q543 672 505 672 L399 672 L330 352 L490 352 L484 325 L324 325 L260 26 L370 26 L366 0 L-28 0 L-24 26 L48 26 L186 672 L114 672 L118 698 L522 698 Z " />
<glyph glyph-name="G" unicode="G" horiz-adv-x="681" d="M402 280 L408 306 L707 306 L701 280 L647 280 L587 0 L570 0 Q559 7 547 10.5 Q535 14 518 14 Q504 14 482 10.5 Q460 7 432.5 3 Q405 -1 372.5 -4.5 Q340 -8 304 -8 Q233 -8 184 10.5 Q135 29 103.5 62.5 Q72 96 58 143.5 Q44 191 44 249 Q44 333 72.5 416 Q101 499 156 565 Q211 631 292 671.5 Q373 712 478 712 Q531 712 569.5 700 Q608 688 633 669.5 Q658 651 670 627.5 Q682 604 682 582 Q682 556 673.5 532.5 Q665 509 649.5 491 Q634 473 612 462.5 Q590 452 563 452 Q527 452 507 463.5 Q487 475 474 491 L618 636 Q601 657 573 669 Q545 681 513 681 Q472 681 438 659 Q404 637 376 600 Q348 563 327 514 Q306 465 292 410.5 Q278 356 271 299 Q264 242 264 190 Q264 103 282.5 64 Q301 25 349 25 Q363 25 383.5 28 Q404 31 419 37 L471 280 L402 280 Z " />
<glyph glyph-name="H" unicode="H" horiz-adv-x="807" d="M261 26 L323 26 L318 0 L-29 0 L-24 26 L48 26 L186 672 L114 672 L119 698 L467 698 L462 672 L399 672 L336 374 L525 374 L588 672 L525 672 L531 698 L879 698 L873 672 L801 672 L663 26 L735 26 L729 0 L382 0 L387 26 L450 26 L519 348 L330 348 L261 26 Z " />
<glyph glyph-name="I" unicode="I" horiz-adv-x="409" d="M263 26 L336 26 L331 0 L-26 0 L-22 26 L50 26 L188 672 L116 672 L120 698 L478 698 L474 672 L401 672 L263 26 Z " />
<glyph glyph-name="J" unicode="J" horiz-adv-x="467" d="M95 -8 Q66 -8 40.5 -1 Q15 6 -4 19.5 Q-23 33 -34.5 54 Q-46 75 -46 103 Q-46 150 -19 174.5 Q8 199 52 199 L83 36 Q85 29 87 25 Q89 21 95 21 Q112 21 123.5 48.5 Q135 76 147 134 L261 672 L189 672 L195 698 L553 698 L547 672 L475 672 L404 341 Q385 253 358 187.5 Q331 122 293.5 78.5 Q256 35 207 13.5 Q158 -8 95 -8 Z " />
<glyph glyph-name="K" unicode="K" horiz-adv-x="715" d="M518 442 Q595 479 630.5 517 Q666 555 666 581 Q666 595 654 602 Q642 609 624 609 L532 609 Q532 633 538 654 Q544 675 557 691.5 Q570 708 590.5 717.5 Q611 727 640 727 Q665 727 682.5 719.5 Q700 712 711.5 700 Q723 688 728 673.5 Q733 659 733 644 Q733 617 720 588 Q707 559 681.5 530.5 Q656 502 618.5 474.5 Q581 447 533 425 L466 394 Q484 399 497.5 400.5 Q511 402 531 402 Q584 402 615 376.5 Q646 351 646 289 Q646 274 644.5 257 Q643 240 638 220 L620 137 Q618 126 617 118 Q616 110 616 102 Q616 72 629 64.5 Q642 57 654 57 Q665 57 674 64 Q683 71 691 82 L705 67 Q693 52 679 38.5 Q665 25 645 14.5 Q625 4 598 -2 Q571 -8 534 -8 Q511 -8 490 -2 Q469 4 452 18 Q435 32 425 54.5 Q415 77 415 110 Q415 121 416.5 135.5 Q418 150 420 164 L435 254 Q438 271 440 284.5 Q442 298 442 309 Q442 353 408 353 Q391 353 378 348.5 Q365 344 353 338 L323 324 L260 26 L342 26 L337 0 L-29 0 L-24 26 L48 26 L185 672 L113 672 L118 698 L476 698 L470 672 L398 672 L330 352 L518 442 Z " />
<glyph glyph-name="L" unicode="L" horiz-adv-x="589" d="M291 26 Q374 26 433 73.5 Q492 121 527 210 L546 259 L572 259 L505 0 L-28 0 L-24 26 L48 26 L186 672 L114 672 L118 698 L477 698 L472 672 L399 672 L261 26 L291 26 Z " />
<glyph glyph-name="M" unicode="M" horiz-adv-x="885" d="M408 698 L467 342 L682 698 L957 698 L952 672 L880 672 L742 26 L814 26 L809 0 L469 0 L474 26 L556 26 L691 658 L369 113 L309 113 L206 655 L71 26 L154 26 L149 0 L-33 0 L-28 26 L43 26 L181 672 L109 672 L114 698 L408 698 Z " />
<glyph glyph-name="N" unicode="N" horiz-adv-x="714" d="M684 672 L602 672 L606 698 L790 698 L785 672 L713 672 L570 0 L387 0 L210 676 L71 26 L154 26 L149 0 L-33 0 L-28 26 L43 26 L181 672 L109 672 L114 698 L445 698 L575 160 L684 672 Z " />
<glyph glyph-name="O" unicode="O" horiz-adv-x="689" d="M444 712 Q505 712 551.5 692.5 Q598 673 629 639.5 Q660 606 675.5 561 Q691 516 691 465 Q691 367 667 281 Q643 195 594 131 Q545 67 470.5 29.5 Q396 -8 296 -8 Q233 -8 186 9 Q139 26 107.5 57.5 Q76 89 60 133.5 Q44 178 44 233 Q44 325 67 411.5 Q90 498 139 564.5 Q188 631 263.5 671.5 Q339 712 444 712 Z M302 20 Q330 20 355 51 Q380 82 400.5 131.5 Q421 181 437 242.5 Q453 304 464 366 Q475 428 480.5 484 Q486 540 486 577 Q486 602 484.5 622 Q483 642 478 656 Q473 670 463.5 677.5 Q454 685 438 685 Q410 685 385.5 653.5 Q361 622 340.5 571.5 Q320 521 303.5 458 Q287 395 275.5 332 Q264 269 258 212.5 Q252 156 252 119 Q252 70 260.5 45 Q269 20 302 20 Z " />
<glyph glyph-name="P" unicode="P" horiz-adv-x="640" d="M96 649 Q121 659 152 670 Q183 681 220.5 690.5 Q258 700 303 706 Q348 712 402 712 Q481 712 534.5 696 Q588 680 621 653 Q654 626 668 591 Q682 556 682 519 Q682 454 659 404.5 Q636 355 596.5 322 Q557 289 504 272.5 Q451 256 390 256 L320 256 L271 26 L370 26 L366 0 L-19 0 L-14 26 L57 26 L165 529 Q176 577 198.5 612 Q221 647 252 670 Q237 667 218 661.5 Q199 656 179 649.5 Q159 643 140 636 Q121 629 106 622 L96 649 Z M326 283 L352 283 Q394 283 421.5 308 Q449 333 466 372 Q483 411 490 459 Q497 507 497 553 Q497 616 477 651.5 Q457 687 423 687 L410 687 L326 283 Z " />
<glyph glyph-name="Q" unicode="Q" horiz-adv-x="689" d="M444 712 Q505 712 551.5 692.5 Q598 673 629 639.5 Q660 606 675.5 561 Q691 516 691 465 Q691 373 670 291.5 Q649 210 606.5 147 Q564 84 499.5 43.5 Q435 3 348 -7 Q383 -18 417.5 -39.5 Q452 -61 485 -82.5 Q518 -104 549 -120 Q580 -136 610 -136 Q639 -136 654.5 -115.5 Q670 -95 681 -66 L695 -66 Q685 -112 667.5 -150 Q650 -188 626.5 -215.5 Q603 -243 574.5 -258.5 Q546 -274 514 -274 Q478 -274 450 -257 Q422 -240 399 -214.5 Q376 -189 357 -159 Q338 -129 319.5 -103.5 Q301 -78 281 -61 Q261 -44 238 -44 Q211 -44 195.5 -62 Q180 -80 179 -106 L160 -106 Q160 -28 242 -6 Q143 8 93.5 72 Q44 136 44 233 Q44 325 67 411.5 Q90 498 139 564.5 Q188 631 263.5 671.5 Q339 712 444 712 Z M302 19 Q330 19 355 50 Q380 81 400.5 131 Q421 181 437 243 Q453 305 464 367 Q475 429 480.5 484.5 Q486 540 486 577 Q486 602 484.5 622 Q483 642 478 656 Q473 670 463.5 677.5 Q454 685 438 685 Q410 685 385.5 653.5 Q361 622 340.5 572 Q320 522 303.5 459.5 Q287 397 275.5 334 Q264 271 258 214 Q252 157 252 119 Q252 70 260.5 44.5 Q269 19 302 19 Z " />
<glyph glyph-name="R" unicode="R" horiz-adv-x="703" d="M696 60 Q672 33 632 12.5 Q592 -8 545 -8 Q515 -8 489.5 -1.5 Q464 5 445 20 Q426 35 415 60 Q404 85 404 122 Q404 139 405.5 161 Q407 183 410 206 Q413 228 414 247 Q415 266 415 280 Q415 314 406 326.5 Q397 339 379 339 L337 339 L271 26 L343 26 L337 0 L-20 0 L-14 26 L57 26 L165 530 Q176 578 198.5 612.5 Q221 647 252 670 Q237 667 217.5 661.5 Q198 656 177.5 649 Q157 642 137.5 635 Q118 628 103 621 L93 648 Q119 658 150 669.5 Q181 681 219 690.5 Q257 700 302.5 706 Q348 712 402 712 Q481 712 535.5 699.5 Q590 687 624 665 Q658 643 673 613 Q688 583 688 549 Q688 511 672 477.5 Q656 444 628.5 418.5 Q601 393 564.5 376 Q528 359 487 355 Q556 347 590 315 Q624 283 624 235 Q624 221 623.5 209 Q623 197 621 178 Q619 158 618 142.5 Q617 127 617 111 Q617 57 651 57 Q665 57 683 75 L696 60 Z M410 687 L342 366 L384 366 Q416 366 439 384 Q462 402 476.5 432 Q491 462 498 501.5 Q505 541 505 584 Q505 640 484.5 663.5 Q464 687 427 687 L410 687 Z " />
<glyph glyph-name="S" unicode="S" horiz-adv-x="556" d="M214 23 Q243 23 269 31.5 Q295 40 314 55.5 Q333 71 344 93 Q355 115 355 141 Q355 173 329.5 206 Q304 239 237 281 Q198 306 170 328 Q142 350 124 374 Q106 398 97.5 425.5 Q89 453 89 489 Q89 527 107 566.5 Q125 606 161 638.5 Q197 671 252 691.5 Q307 712 382 712 Q430 712 466.5 701.5 Q503 691 527.5 673.5 Q552 656 564 633 Q576 610 576 585 Q576 565 568.5 548 Q561 531 548 519 Q535 507 518.5 500.5 Q502 494 484 494 Q459 494 438 505.5 Q417 517 406 534 L510 641 Q496 656 469.5 668.5 Q443 681 405 681 Q379 681 355.5 674.5 Q332 668 314 656 Q296 644 285 626 Q274 608 274 586 Q274 551 302.5 521 Q331 491 393 453 Q434 427 461.5 404 Q489 381 506 357.5 Q523 334 530.5 309 Q538 284 538 255 Q538 198 514 150 Q490 102 448 67 Q406 32 349.5 12 Q293 -8 229 -8 Q184 -8 146.5 1 Q109 10 81.5 27.5 Q54 45 39 70 Q24 95 24 127 Q24 171 52.5 199 Q81 227 122 227 Q151 227 171.5 216 Q192 205 205 186 L92 63 Q113 45 143 34 Q173 23 214 23 Z " />
<glyph glyph-name="T" unicode="T" horiz-adv-x="650" d="M77 477 L124 698 L725 698 L678 477 L657 477 L657 501 Q657 589 623.5 630.5 Q590 672 540 672 L526 672 L388 26 L471 26 L466 0 L87 0 L92 26 L175 26 L313 672 L291 672 Q236 672 191 634 Q146 596 111 509 L98 477 L77 477 Z " />
<glyph glyph-name="U" unicode="U" horiz-adv-x="671" d="M481 698 L476 672 L394 672 L298 222 Q288 176 288 133 Q288 84 314 61.5 Q340 39 376 39 Q406 39 432 48.5 Q458 58 480 80.5 Q502 103 519 139.5 Q536 176 548 230 L642 672 L560 672 L566 698 L761 698 L756 672 L675 672 L584 244 Q572 188 552 142 Q532 96 497.5 62.5 Q463 29 410.5 10.5 Q358 -8 281 -8 Q187 -8 135 36 Q83 80 83 165 Q83 208 92 253 L181 672 L100 672 L105 698 L481 698 Z " />
<glyph glyph-name="V" unicode="V" horiz-adv-x="627" d="M433 217 Q481 293 519 362.5 Q557 432 584 489 Q611 546 625.5 586.5 Q640 627 640 645 Q640 662 630.5 667 Q621 672 607 672 L481 672 Q481 685 486.5 704.5 Q492 724 505.5 743 Q519 762 541.5 775.5 Q564 789 597 789 Q646 789 669.5 764 Q693 739 693 701 Q693 666 675.5 615.5 Q658 565 629 504.5 Q600 444 562 377 Q524 310 482.5 242.5 Q441 175 399 111 Q357 47 320 -8 L268 -8 L132 672 L62 672 L68 698 L431 698 L425 672 L355 672 L433 217 Z " />
<glyph glyph-name="W" unicode="W" horiz-adv-x="990" d="M813 231 Q864 312 900.5 381 Q937 450 960.5 503.5 Q984 557 995 593 Q1006 629 1006 645 Q1006 662 997.5 667 Q989 672 971 672 L854 672 Q854 685 858.5 704.5 Q863 724 875 743 Q887 762 908 775.5 Q929 789 962 789 Q1007 789 1031.5 762.5 Q1056 736 1056 697 Q1056 659 1040.5 609.5 Q1025 560 998 502.5 Q971 445 935 381 Q899 317 858.5 251 Q818 185 775 119.5 Q732 54 691 -8 L639 -8 L570 398 L305 -8 L246 -8 L132 672 L62 672 L68 698 L411 698 L405 672 L351 672 L418 221 L562 440 L524 672 L482 672 L488 698 L802 698 L796 672 L743 672 L813 231 Z " />
<glyph glyph-name="X" unicode="X" horiz-adv-x="627" d="M436 413 L621 672 L542 672 L549 698 L738 698 L731 672 L656 672 L446 382 L547 26 L599 26 L592 0 L225 0 L231 26 L323 26 L253 290 L58 26 L149 26 L142 0 L-58 0 L-52 26 L27 26 L244 318 L144 672 L78 672 L85 698 L468 698 L462 672 L368 672 L436 413 Z " />
<glyph glyph-name="Y" unicode="Y" horiz-adv-x="668" d="M489 26 L484 0 L108 0 L113 26 L194 26 L251 295 L144 672 L68 672 L72 698 L482 698 L478 672 L390 672 L466 362 L661 672 L578 672 L583 698 L777 698 L773 672 L697 672 L467 307 L407 26 L489 26 Z " />
<glyph glyph-name="Z" unicode="Z" horiz-adv-x="617" d="M591 698 Q623 698 640 708.5 Q657 719 671 739 L690 728 L221 26 L316 26 Q401 26 459.5 68 Q518 110 553 200 L569 241 L594 241 L529 0 L-8 0 L-3 26 L433 672 L275 672 Q249 672 225.5 667.5 Q202 663 188 655 L259 506 Q245 492 224.5 482.5 Q204 473 177 473 Q141 473 114.5 498.5 Q88 524 88 566 Q88 626 141 662 Q194 698 284 698 L591 698 Z " />
<glyph glyph-name="bracketleft" unicode="&#x5b;" horiz-adv-x="434" d="M196 737 L509 737 L504 709 L384 709 L209 -115 L328 -115 L322 -143 L9 -143 L196 737 Z " />
<glyph glyph-name="backslash" unicode="&#x5c;" horiz-adv-x="360" d="M322 -38 L251 -38 L99 733 L172 733 L322 -38 Z " />
<glyph glyph-name="bracketright" unicode="&#x5d;" horiz-adv-x="428" d="M253 -143 L-61 -143 L-55 -115 L64 -115 L240 709 L120 709 L126 737 L439 737 L253 -143 Z " />
<glyph glyph-name="asciicircum" unicode="&#x5e;" horiz-adv-x="649" d="M493 306 L384 585 L156 306 L115 306 L373 655 L428 655 L534 306 L493 306 Z " />
<glyph glyph-name="underscore" unicode="&#x5f;" horiz-adv-x="429" d="M-94 -118 L-79 -46 L391 -46 L375 -118 L-94 -118 Z " />
<glyph glyph-name="grave" unicode="&#x60;" horiz-adv-x="470" d="M487 520 L434 520 L268 589 Q243 600 233.5 615 Q224 630 224 649 Q224 673 243 689.5 Q262 706 290 706 Q322 706 341 690 Q360 674 377 654 L487 520 Z " />
<glyph glyph-name="a" unicode="a" horiz-adv-x="582" d="M320 447 Q296 447 275.5 415.5 Q255 384 239 337 Q223 290 214 234 Q205 178 205 130 Q205 92 209.5 74.5 Q214 57 231 57 Q245 57 258 73 Q271 89 283 115.5 Q295 142 305.5 177 Q316 212 323.5 249.5 Q331 287 335.5 324.5 Q340 362 340 395 Q340 415 336.5 431 Q333 447 320 447 Z M18 153 Q18 223 37.5 282.5 Q57 342 92 385.5 Q127 429 174.5 453.5 Q222 478 279 478 Q320 478 345 464 Q370 450 390 426 L426 467 L563 467 L488 123 Q484 106 481 92.5 Q478 79 478 68 Q478 63 480.5 57.5 Q483 52 492 52 Q504 52 519.5 70.5 Q535 89 548 108 L564 93 Q533 46 495.5 19 Q458 -8 408 -8 Q356 -8 334 23 Q312 54 312 117 Q303 91 287 68 Q271 45 250 28 Q229 11 203 1.5 Q177 -8 149 -8 Q125 -8 102 2 Q79 12 60 32.5 Q41 53 29.5 83 Q18 113 18 153 Z " />
<glyph glyph-name="b" unicode="b" horiz-adv-x="603" d="M158 689 Q145 694 124.5 695.5 Q104 697 87 697 L92 720 L365 738 L301 436 Q317 453 348.5 465.5 Q380 478 419 478 Q488 478 533 435.5 Q578 393 578 315 Q578 242 555.5 182.5 Q533 123 492.5 80.5 Q452 38 394.5 15 Q337 -8 268 -8 Q235 -8 209.5 -2.5 Q184 3 163 9.5 Q142 16 123 21.5 Q104 27 83 27 Q40 27 -5 -18 L-20 -5 Q0 16 12 36 Q24 56 31 89 L158 689 Z M237 133 Q231 104 228.5 87 Q226 70 226 60 Q226 22 249 22 Q269 22 291 55 Q313 88 331 139 Q349 190 361 251.5 Q373 313 373 371 Q373 404 363.5 418 Q354 432 341 432 Q321 432 306.5 411.5 Q292 391 286 362 L237 133 Z " />
<glyph glyph-name="c" unicode="c" horiz-adv-x="449" d="M298 478 Q322 478 348 473 Q374 468 396 456 Q418 444 432 423.5 Q446 403 446 372 Q446 335 420 307 Q394 279 352 279 Q326 279 309 288.5 Q292 298 284 311 L384 434 Q379 439 371.5 443 Q364 447 354 447 Q318 447 290.5 416 Q263 385 244.5 340 Q226 295 216.5 245 Q207 195 207 157 Q207 91 227.5 62.5 Q248 34 274 34 Q291 34 307.5 43.5 Q324 53 338.5 69 Q353 85 365 106.5 Q377 128 385 151 L405 142 Q391 110 373.5 82.5 Q356 55 332 35 Q308 15 275 3.5 Q242 -8 199 -8 Q113 -8 64 40 Q15 88 15 172 Q15 235 35 291 Q55 347 91.5 388.5 Q128 430 180.5 454 Q233 478 298 478 Z " />
<glyph glyph-name="d" unicode="d" horiz-adv-x="586" d="M231 39 Q244 39 257.5 53.5 Q271 68 283.5 91.5 Q296 115 306 144.5 Q316 174 322 205 L351 351 Q353 364 355 378 Q357 392 357 407 Q357 425 349 435.5 Q341 446 327 446 Q309 446 292.5 427 Q276 408 262.5 378 Q249 348 237.5 311 Q226 274 218.5 237 Q211 200 206.5 168 Q202 136 202 117 Q202 70 209.5 54.5 Q217 39 231 39 Z M320 116 Q291 46 249.5 19 Q208 -8 149 -8 Q116 -8 91 4.5 Q66 17 49.5 39 Q33 61 24.5 91 Q16 121 16 156 Q16 211 34.5 268.5 Q53 326 88.5 372.5 Q124 419 176.5 448.5 Q229 478 297 478 Q320 478 340 472.5 Q360 467 373 456 L423 689 Q410 694 389.5 695.5 Q369 697 352 697 L357 720 L622 738 L493 124 Q489 107 486.5 94 Q484 81 484 73 Q484 65 486.5 59 Q489 53 499 53 Q505 53 512.5 59 Q520 65 528 73.5 Q536 82 543.5 91.5 Q551 101 556 109 L572 94 Q543 48 504 20 Q465 -8 418 -8 Q392 -8 373.5 2.5 Q355 13 343 30 Q331 47 325.5 69.5 Q320 92 320 116 Z " />
<glyph glyph-name="e" unicode="e" horiz-adv-x="469" d="M210 210 Q209 202 208.5 194 Q208 186 208 178 Q208 152 212 127.5 Q216 103 225.5 83 Q235 63 250.5 51 Q266 39 290 39 Q312 39 330 48 Q348 57 363 71 Q378 85 389.5 103.5 Q401 122 410 141 L431 131 Q413 90 388.5 63.5 Q364 37 334.5 21 Q305 5 271.5 -1.5 Q238 -8 201 -8 Q114 -8 64 37.5 Q14 83 14 169 Q14 232 35.5 288.5 Q57 345 96 387 Q135 429 189.5 453.5 Q244 478 311 478 Q356 478 387 468.5 Q418 459 437.5 443 Q457 427 466 405.5 Q475 384 475 360 Q475 320 457 290.5 Q439 261 409 242 Q379 223 339.5 214 Q300 205 257 205 Q240 205 230 206.5 Q220 208 210 210 Z M311 452 Q296 452 281.5 434 Q267 416 254 386 Q241 356 230.5 317 Q220 278 214 236 Q224 231 235 231 Q257 231 274.5 248 Q292 265 304 291 Q316 317 322.5 347 Q329 377 329 403 Q329 423 324.5 437.5 Q320 452 311 452 Z " />
<glyph glyph-name="f" unicode="f" horiz-adv-x="343" d="M68 467 Q94 467 106.5 477.5 Q119 488 127 515 Q141 560 164 600.5 Q187 641 220 672 Q253 703 296.5 721.5 Q340 740 394 740 Q434 740 460.5 732 Q487 724 503 710.5 Q519 697 525.5 680.5 Q532 664 532 647 Q532 624 523.5 606 Q515 588 501.5 575.5 Q488 563 471.5 556.5 Q455 550 439 550 Q404 550 388.5 563.5 Q373 577 369 584 L484 682 Q479 696 463.5 704 Q448 712 431 712 Q389 712 368 684 Q347 656 334 598 L305 467 L433 467 L429 441 L301 441 L228 113 Q208 21 165.5 -46 Q123 -113 67.5 -156.5 Q12 -200 -52 -221 Q-116 -242 -179 -242 L-173 -222 Q-131 -221 -101.5 -209 Q-72 -197 -51 -171.5 Q-30 -146 -15 -105.5 Q0 -65 13 -6 L108 441 L41 441 L46 467 L68 467 Z " />
<glyph glyph-name="g" unicode="g" horiz-adv-x="489" d="M293 478 Q331 478 366 472 Q401 466 424 457 Q455 475 462 490 Q469 505 469 513 Q469 521 459 525.5 Q449 530 425 530 L344 530 Q344 532 343.5 534 Q343 536 343 538 Q343 555 351 571.5 Q359 588 372.5 601.5 Q386 615 405 623 Q424 631 447 631 Q482 631 500.5 613 Q519 595 519 564 Q519 532 502 500.5 Q485 469 441 444 Q478 414 478 364 Q478 330 463 294.5 Q448 259 417.5 229.5 Q387 200 339.5 181.5 Q292 163 227 163 Q182 163 154.5 168 Q127 173 104 181 Q95 176 91 167 Q87 158 87 149 Q87 137 96 129 Q105 121 126 114 Q147 107 181 101 Q215 95 265 87 Q359 72 401.5 41.5 Q444 11 444 -37 Q444 -83 418 -116.5 Q392 -150 351 -172 Q310 -194 260 -205 Q210 -216 163 -216 Q120 -216 84 -210 Q48 -204 22 -192 Q-4 -180 -18.5 -161.5 Q-33 -143 -33 -118 Q-33 -87 -8.5 -63.5 Q16 -40 55 -29 Q27 -17 10 2 Q-7 21 -7 56 Q-7 92 15 127 Q37 162 84 191 Q44 222 44 276 Q44 296 53 330 Q62 364 88.5 397 Q115 430 164 454 Q213 478 293 478 Z M165 -186 Q186 -186 209 -183.5 Q232 -181 251 -174 Q270 -167 282 -155 Q294 -143 294 -125 Q294 -97 271.5 -84 Q249 -71 216.5 -64.5 Q184 -58 148 -54 Q112 -50 85 -41 Q69 -52 59 -69.5 Q49 -87 49 -108 Q49 -143 80 -164.5 Q111 -186 165 -186 Z M232 193 Q252 193 267 216.5 Q282 240 291.5 272 Q301 304 306 338 Q311 372 311 393 Q311 420 306 437 Q301 454 288 454 Q270 454 255 429 Q240 404 229.5 370.5 Q219 337 213.5 302.5 Q208 268 208 249 Q208 222 213 207.5 Q218 193 232 193 Z " />
<glyph glyph-name="h" unicode="h" horiz-adv-x="620" d="M150 689 Q137 694 117 695.5 Q97 697 80 697 L85 720 L357 738 L269 352 Q298 409 345.5 443.5 Q393 478 459 478 Q520 478 548 447.5 Q576 417 576 372 Q576 357 574.5 343.5 Q573 330 570 314.5 Q567 299 561.5 278 Q556 257 549 226 Q540 185 533.5 158.5 Q527 132 523 114.5 Q519 97 517 86.5 Q515 76 515 67 Q515 59 519.5 55 Q524 51 530 51 Q542 51 558 69.5 Q574 88 587 107 L603 92 Q576 52 537.5 22 Q499 -8 441 -8 Q384 -8 353.5 19 Q323 46 323 86 Q323 101 324.5 114.5 Q326 128 329.5 145 Q333 162 338 184 Q343 206 350 239 Q361 291 368.5 325 Q376 359 376 380 Q376 414 357 414 Q343 414 327.5 398 Q312 382 297.5 358 Q283 334 271.5 306.5 Q260 279 255 255 L200 0 L3 0 L150 689 Z " />
<glyph glyph-name="i" unicode="i" horiz-adv-x="327" d="M341 639 Q341 615 331.5 594.5 Q322 574 305.5 558.5 Q289 543 268 534.5 Q247 526 225 526 Q191 526 170 547 Q149 568 149 601 Q149 623 158 643.5 Q167 664 182.5 679.5 Q198 695 219 704.5 Q240 714 264 714 Q299 714 320 692.5 Q341 671 341 639 Z M252 206 Q238 146 231 113.5 Q224 81 224 67 Q224 51 239 51 Q251 51 266.5 69.5 Q282 88 295 107 L311 92 Q284 52 245.5 22 Q207 -8 149 -8 Q88 -8 61 19 Q34 46 34 86 Q34 117 41 155.5 Q48 194 58 239 L100 430 Q87 434 71 435.5 Q55 437 39 437 L43 461 L311 478 L252 206 Z " />
<glyph glyph-name="j" unicode="j" horiz-adv-x="316" d="M99 426 Q86 430 70 431.5 Q54 433 38 433 L42 458 L307 478 L228 105 Q210 19 169.5 -44.5 Q129 -108 76 -150 Q23 -192 -37 -214.5 Q-97 -237 -154 -242 L-156 -220 Q-129 -216 -105.5 -206.5 Q-82 -197 -62.5 -177.5 Q-43 -158 -28 -126.5 Q-13 -95 -3 -47 L99 426 Z M333 639 Q333 615 323 594.5 Q313 574 297 558.5 Q281 543 259.5 534.5 Q238 526 216 526 Q183 526 161.5 547 Q140 568 140 601 Q140 623 149 643.5 Q158 664 173.5 679.5 Q189 695 210.5 704.5 Q232 714 256 714 Q291 714 312 692.5 Q333 671 333 639 Z " />
<glyph glyph-name="k" unicode="k" horiz-adv-x="565" d="M150 689 Q136 694 116.5 695.5 Q97 697 80 697 L85 720 L357 738 L232 176 Q243 199 266 218 Q289 237 317 253 Q345 269 374 282 Q403 295 427 306 Q451 317 466.5 327 Q482 337 482 346 Q482 354 475 359.5 Q468 365 443 365 L363 365 Q363 413 390 445.5 Q417 478 472 478 Q494 478 509 472.5 Q524 467 533 458 Q542 449 546 437 Q550 425 550 412 Q550 391 542.5 372 Q535 353 515 335 Q495 317 460.5 298.5 Q426 280 372 260 Q384 263 394.5 265 Q405 267 421 267 Q457 267 478 246.5 Q499 226 499 194 Q499 172 496 157 Q493 142 491 125 Q488 108 484.5 92 Q481 76 481 68 Q481 51 494 51 Q501 51 509 56 Q517 61 523.5 68 Q530 75 535.5 82 Q541 89 544 93 L561 80 Q496 -8 409 -8 Q386 -8 365.5 -4 Q345 0 330 10 Q315 20 306 35 Q297 50 297 73 Q297 90 299.5 106 Q302 122 305 139 Q310 161 313 174.5 Q316 188 316 200 Q316 214 302 214 Q276 214 252.5 180.5 Q229 147 218 97 L196 0 L3 0 L150 689 Z " />
<glyph glyph-name="l" unicode="l" horiz-adv-x="314" d="M145 689 Q132 694 111.5 695.5 Q91 697 74 697 L79 720 L351 738 L240 226 Q231 185 225 159.5 Q219 134 216 118 Q213 102 211.5 93 Q210 84 210 76 Q210 62 217.5 56.5 Q225 51 233 51 Q249 51 266 68.5 Q283 86 295 106 L310 92 Q280 44 239.5 18 Q199 -8 140 -8 Q82 -8 53 20 Q24 48 24 94 Q24 115 29 143 Q34 171 46 227 L145 689 Z " />
<glyph glyph-name="m" unicode="m" horiz-adv-x="914" d="M504 0 L298 0 L350 239 Q363 297 370 332.5 Q377 368 377 382 Q377 414 362 414 Q349 414 334 399 Q319 384 305 357 Q291 330 278 292.5 Q265 255 256 211 L210 0 L8 0 L101 431 Q88 436 72 437.5 Q56 439 39 439 L44 462 L312 480 L280 352 Q309 407 354 442.5 Q399 478 472 478 Q524 478 548 445 Q572 412 572 352 Q600 407 643 442.5 Q686 478 751 478 Q812 478 840.5 448.5 Q869 419 869 374 Q869 345 861.5 311.5 Q854 278 841 226 Q825 162 816 122.5 Q807 83 807 67 Q807 59 811.5 55 Q816 51 822 51 Q834 51 850 69.5 Q866 88 879 107 L895 92 Q868 52 829.5 22 Q791 -8 733 -8 Q676 -8 646 19 Q616 46 616 86 Q616 100 617 114 Q618 128 621 145.5 Q624 163 629 185.5 Q634 208 642 239 Q656 299 663 331.5 Q670 364 670 382 Q670 414 654 414 Q641 414 626.5 398.5 Q612 383 597.5 356 Q583 329 570.5 292 Q558 255 549 211 L504 0 Z " />
<glyph glyph-name="n" unicode="n" horiz-adv-x="630" d="M612 92 Q585 52 546.5 22 Q508 -8 450 -8 Q393 -8 363 19 Q333 46 333 86 Q333 101 334.5 115 Q336 129 339 146.5 Q342 164 347 186 Q352 208 359 239 Q371 295 378 328 Q385 361 385 382 Q385 414 367 414 Q353 414 337.5 397.5 Q322 381 306 352.5 Q290 324 276 285.5 Q262 247 253 202 L210 0 L8 0 L101 431 Q88 436 72 437.5 Q56 439 39 439 L44 462 L312 480 L280 352 Q309 407 355.5 442.5 Q402 478 468 478 Q529 478 557.5 448.5 Q586 419 586 374 Q586 359 584.5 345.5 Q583 332 579.5 316 Q576 300 570.5 278.5 Q565 257 558 226 Q549 185 542.5 158.5 Q536 132 532 114.5 Q528 97 526.5 86.5 Q525 76 525 67 Q525 51 540 51 Q552 51 567.5 69.5 Q583 88 596 107 L612 92 Z " />
<glyph glyph-name="o" unicode="o" horiz-adv-x="570" d="M333 478 Q391 478 431 462.5 Q471 447 496.5 420 Q522 393 533.5 357.5 Q545 322 545 282 Q545 229 526.5 177.5 Q508 126 469.5 84.5 Q431 43 373 17.5 Q315 -8 237 -8 Q179 -8 138 7 Q97 22 71.5 48 Q46 74 34.5 109 Q23 144 23 185 Q23 237 40 289.5 Q57 342 94 384 Q131 426 190 452 Q249 478 333 478 Z M240 19 Q256 19 271.5 39.5 Q287 60 300 92.5 Q313 125 324 165.5 Q335 206 343 246.5 Q351 287 355 323.5 Q359 360 359 384 Q359 452 327 452 Q311 452 296 431 Q281 410 267.5 376.5 Q254 343 242.5 301.5 Q231 260 223 218.5 Q215 177 210.5 140 Q206 103 206 80 Q206 49 213.5 34 Q221 19 240 19 Z " />
<glyph glyph-name="p" unicode="p" horiz-adv-x="583" d="M104 430 Q91 434 73 436.5 Q55 439 39 439 L43 462 L306 480 L281 387 Q311 432 352 455 Q393 478 435 478 Q466 478 489.5 466.5 Q513 455 529 434.5 Q545 414 553 387 Q561 360 561 329 Q561 242 534.5 178 Q508 114 468.5 73 Q429 32 382 12 Q335 -8 294 -8 Q262 -8 241 -4 Q220 0 203 8 L165 -171 Q186 -174 210 -175 Q234 -176 254 -176 L248 -199 L-92 -199 L-86 -176 Q-71 -176 -54.5 -174.5 Q-38 -173 -24 -171 L104 430 Z M211 45 Q215 39 223.5 32.5 Q232 26 245 26 Q262 26 278 43 Q294 60 308 87.5 Q322 115 333 150.5 Q344 186 352 224 Q360 262 364 299 Q368 336 368 366 Q368 392 364 403.5 Q360 415 348 415 Q338 415 325.5 403.5 Q313 392 301 374.5 Q289 357 279.5 337.5 Q270 318 267 302 L211 45 Z " />
<glyph glyph-name="q" unicode="q" horiz-adv-x="572" d="M320 447 Q296 447 275.5 416 Q255 385 239 337.5 Q223 290 214 234.5 Q205 179 205 131 Q205 93 209.5 74 Q214 55 231 55 Q245 55 258 71 Q271 87 283 113.5 Q295 140 305.5 175 Q316 210 323.5 247.5 Q331 285 335.5 322.5 Q340 360 340 393 Q340 413 336.5 430 Q333 447 320 447 Z M309 120 Q286 62 246 26.5 Q206 -9 149 -9 Q125 -9 102 1.5 Q79 12 60 32.5 Q41 53 29.5 83.5 Q18 114 18 154 Q18 224 37.5 283 Q57 342 92 385.5 Q127 429 174.5 453.5 Q222 478 279 478 Q320 478 345 464.5 Q370 451 390 427 L421 467 L563 467 L426 -173 Q445 -175 457 -175.5 Q469 -176 489 -176 L483 -199 L148 -199 L153 -176 Q161 -176 173 -175.5 Q185 -175 198 -174 Q211 -173 223 -171.5 Q235 -170 242 -169 L309 120 Z " />
<glyph glyph-name="r" unicode="r" horiz-adv-x="509" d="M434 478 Q477 478 504.5 451.5 Q532 425 532 385 Q532 356 523 333 Q514 310 498.5 293.5 Q483 277 463 268 Q443 259 421 259 Q392 259 371 270.5 Q350 282 342 295 L453 440 Q448 445 439.5 448 Q431 451 418 451 Q395 451 370 431 Q345 411 322.5 376.5 Q300 342 281.5 296.5 Q263 251 252 199 L210 0 L8 0 L101 431 Q88 436 72 437.5 Q56 439 39 439 L44 462 L312 480 L264 319 Q276 343 291 371 Q306 399 326 423 Q346 447 372.5 462.5 Q399 478 434 478 Z " />
<glyph glyph-name="s" unicode="s" horiz-adv-x="423" d="M142 15 Q179 15 202.5 33 Q226 51 226 80 Q226 104 206.5 127.5 Q187 151 134 188 Q85 223 66 253.5 Q47 284 47 317 Q47 390 104 434 Q161 478 262 478 Q340 478 380 451.5 Q420 425 420 387 Q420 360 403.5 344 Q387 328 359 328 Q338 328 324 336 Q310 344 303 352 L377 415 Q369 426 350 438 Q331 450 300 450 Q261 450 244 431 Q227 412 227 389 Q227 366 246 347.5 Q265 329 305 301 Q398 233 398 163 Q398 113 376.5 80 Q355 47 320 27.5 Q285 8 241.5 0 Q198 -8 155 -8 Q127 -8 99.5 -3 Q72 2 50.5 13.5 Q29 25 15.5 42 Q2 59 2 83 Q2 106 18.5 125.5 Q35 145 64 145 Q85 145 97.5 136.5 Q110 128 117 114 L55 57 Q66 38 89.5 26.5 Q113 15 142 15 Z " />
<glyph glyph-name="t" unicode="t" horiz-adv-x="375" d="M33 112 Q33 135 36 156 Q39 177 44 202 L95 440 L41 440 L47 467 L91 467 Q124 467 157.5 478.5 Q191 490 221 510.5 Q251 531 275 558.5 Q299 586 314 619 L328 649 L351 649 L313 467 L417 467 L411 440 L307 440 L241 131 Q236 109 235 99.5 Q234 90 234 84 Q234 66 242 59.5 Q250 53 264 53 Q288 53 309 72 Q330 91 343 110 L359 95 Q328 52 277 22 Q226 -8 160 -8 Q94 -8 63.5 23.5 Q33 55 33 112 Z " />
<glyph glyph-name="u" unicode="u" horiz-adv-x="627" d="M333 91 Q298 40 256 16 Q214 -8 151 -8 Q118 -8 95 1 Q72 10 58 25 Q44 40 37.5 59.5 Q31 79 31 101 Q31 126 36.5 155.5 Q42 185 48 211 L98 431 Q85 436 69 437.5 Q53 439 37 439 L41 462 L309 480 L229 132 Q227 118 225.5 107 Q224 96 224 87 Q224 67 230.5 59.5 Q237 52 249 52 Q277 52 299 82.5 Q321 113 330 156 L396 467 L603 467 L528 115 Q525 101 522.5 88.5 Q520 76 520 67 Q520 51 535 51 Q547 51 562.5 69 Q578 87 591 106 L607 91 Q581 51 544.5 21.5 Q508 -8 450 -8 Q393 -8 363 21.5 Q333 51 333 91 Z " />
<glyph glyph-name="v" unicode="v" horiz-adv-x="456" d="M113 0 Q105 112 91 221 Q77 330 48 436 Q33 438 19 438.5 Q5 439 -5 439 L0 462 L244 480 Q261 400 270 316 Q279 232 285 134 Q300 155 323.5 192 Q347 229 370 270 Q393 311 409.5 350.5 Q426 390 426 417 Q426 443 384 443 L310 443 Q310 459 314.5 477 Q319 495 329.5 510.5 Q340 526 358 536 Q376 546 403 546 Q440 546 460 525.5 Q480 505 480 473 Q480 433 455.5 375 Q431 317 393 252.5 Q355 188 309.5 122 Q264 56 223 0 L113 0 Z " />
<glyph glyph-name="w" unicode="w" horiz-adv-x="775" d="M432 0 Q427 68 420.5 135.5 Q414 203 403 271 Q383 236 361 200.5 Q339 165 315.5 130.5 Q292 96 268.5 63 Q245 30 223 0 L113 0 Q105 112 91 221 Q77 330 48 436 Q32 438 20.5 438.5 Q9 439 -5 439 L0 462 L244 480 Q265 395 272.5 313 Q280 231 288 140 Q297 153 310.5 173 Q324 193 339 216.5 Q354 240 368.5 265.5 Q383 291 395 317 Q389 347 382.5 376.5 Q376 406 368 436 Q354 438 346 438.5 Q338 439 324 439 L329 462 L564 480 Q574 438 580.5 396.5 Q587 355 591.5 313 Q596 271 599.5 228 Q603 185 607 140 Q622 161 645.5 197 Q669 233 690.5 272.5 Q712 312 728 351 Q744 390 744 417 Q744 443 702 443 L629 443 Q629 459 633.5 477 Q638 495 648.5 510.5 Q659 526 677 536 Q695 546 722 546 Q759 546 779 525.5 Q799 505 799 473 Q799 433 774.5 375 Q750 317 712 252.5 Q674 188 628.5 122 Q583 56 542 0 L432 0 Z " />
<glyph glyph-name="x" unicode="x" horiz-adv-x="587" d="M66 11 Q97 11 123 42.5 Q149 74 167.5 122 Q186 170 196 226 Q206 282 206 331 Q206 389 197 411 Q188 433 166 433 Q137 433 111.5 404 Q86 375 67 327 L48 334 Q56 356 69.5 381 Q83 406 105 427.5 Q127 449 159.5 463.5 Q192 478 238 478 Q309 478 353 441.5 Q397 405 405 345 Q423 403 459 440.5 Q495 478 540 478 Q577 478 599 455.5 Q621 433 621 396 Q621 379 615.5 363 Q610 347 599.5 334.5 Q589 322 573.5 314.5 Q558 307 537 307 Q501 307 477 331 L572 444 Q567 449 559 452.5 Q551 456 535 456 Q504 456 477 428.5 Q450 401 430 356.5 Q410 312 398.5 257 Q387 202 387 148 Q387 87 403 63 Q419 39 438 39 Q450 39 462.5 47.5 Q475 56 486.5 69.5 Q498 83 508 99.5 Q518 116 526 133 L546 125 Q509 54 463 23 Q417 -8 350 -8 Q281 -8 238.5 29.5 Q196 67 196 146 Q176 71 139.5 31.5 Q103 -8 58 -8 Q28 -8 2 11.5 Q-24 31 -24 69 Q-24 104 -2 129.5 Q20 155 57 156 Q73 156 88 150 Q103 144 112 132 L29 28 Q34 22 44 16.5 Q54 11 66 11 Z " />
<glyph glyph-name="y" unicode="y" horiz-adv-x="466" d="M18 -180 Q28 -180 46.5 -171 Q65 -162 87 -145 Q109 -128 133 -103.5 Q157 -79 178 -48 Q164 18 147 80 Q130 142 111.5 201.5 Q93 261 74 319 Q55 377 36 436 Q20 438 10.5 438.5 Q1 439 -13 439 L-8 462 L246 480 Q256 446 267.5 405.5 Q279 365 289.5 322.5 Q300 280 310 237 Q320 194 328 155 Q343 176 362 209.5 Q381 243 398.5 280 Q416 317 427.5 353 Q439 389 439 415 Q439 430 428 436.5 Q417 443 385 443 L312 443 Q312 459 315.5 477 Q319 495 329 510.5 Q339 526 357.5 536 Q376 546 405 546 Q442 546 462 525 Q482 504 482 467 Q482 425 457.5 358 Q433 291 392 215 Q351 139 298.5 62.5 Q246 -14 189.5 -76 Q133 -138 77.5 -177 Q22 -216 -24 -216 Q-72 -216 -96 -191.5 Q-120 -167 -120 -127 Q-120 -103 -111.5 -86.5 Q-103 -70 -90 -59.5 Q-77 -49 -60.5 -44.5 Q-44 -40 -27 -40 Q-18 -88 -11.5 -116 Q-5 -144 -0.5 -158.5 Q4 -173 8 -176.5 Q12 -180 18 -180 Z " />
<glyph glyph-name="z" unicode="z" horiz-adv-x="431" d="M359 50 Q369 50 369 60 Q369 67 364.5 75 Q360 83 352 94 L287 182 Q297 193 310 199 Q323 205 342 205 Q360 205 373.5 198 Q387 191 395.5 180.5 Q404 170 408 157.5 Q412 145 412 133 Q412 92 396 64.5 Q380 37 357.5 21 Q335 5 310 -1.5 Q285 -8 266 -8 Q225 -8 193.5 -1.5 Q162 5 134.5 13 Q107 21 82 27.5 Q57 34 30 34 Q13 34 -0.5 26.5 Q-14 19 -24 8 L-34 -3 L-47 2 Q-10 61 31 103 Q72 145 115 180.5 Q158 216 201.5 249.5 Q245 283 288 325 L65 325 Q58 316 50.5 302 Q43 288 38 274 L22 274 L84 467 L372 467 Q403 467 418 474.5 Q433 482 441 501 L454 497 Q422 431 383 384 Q344 337 302.5 300 Q261 263 219 232 Q177 201 139 168 Q146 170 151 170 Q156 170 161 170 Q195 170 219.5 156 Q244 142 261 127 Q272 117 285 104 Q298 91 311.5 79 Q325 67 337.5 58.5 Q350 50 359 50 Z " />
<glyph glyph-name="braceleft" unicode="&#x7b;" horiz-adv-x="442" d="M308 -142 Q277 -150 243.5 -155.5 Q210 -161 177 -161 Q112 -161 85.5 -130 Q59 -99 59 -51 Q59 -26 68.5 6 Q78 38 89.5 72.5 Q101 107 110.5 141.5 Q120 176 120 205 Q120 242 104.5 266.5 Q89 291 51 291 L33 291 L38 316 L55 316 Q93 316 124.5 335 Q156 354 164 395 Q168 416 172 442 Q176 468 179.5 494 Q183 520 186.5 544.5 Q190 569 194 587 Q208 654 257 696 Q306 738 384 738 Q418 738 446.5 734 Q475 730 498 725 L492 702 Q483 704 475 704.5 Q467 705 455 705 Q438 705 426 697.5 Q414 690 406 678.5 Q398 667 393 653 Q388 639 385 625 Q376 584 370.5 536.5 Q365 489 352 422 Q347 400 334 379 Q321 358 299 341.5 Q277 325 246 315 Q215 305 175 304 Q201 301 224 292 Q247 283 264.5 268.5 Q282 254 292 233.5 Q302 213 302 186 Q302 152 291.5 112.5 Q281 73 269 35 Q257 -3 246.5 -35.5 Q236 -68 236 -86 Q236 -110 247 -117 Q258 -124 272 -124 Q280 -124 286.5 -122.5 Q293 -121 303 -119 L308 -142 Z " />
<glyph glyph-name="bar" unicode="&#x7c;" horiz-adv-x="243" d="M180 747 L265 747 L72 -155 L-11 -155 L180 747 Z " />
<glyph glyph-name="braceright" unicode="&#x7d;" horiz-adv-x="428" d="M148 719 Q179 727 212.5 732.5 Q246 738 279 738 Q344 738 370.5 707 Q397 676 397 628 Q397 603 387.5 571 Q378 539 366.5 504.5 Q355 470 345.5 435.5 Q336 401 336 372 Q336 335 351.5 310.5 Q367 286 405 286 L423 286 L418 261 L400 261 Q362 261 331 241.5 Q300 222 292 182 Q287 161 283.5 135 Q280 109 276.5 83 Q273 57 269.5 32.5 Q266 8 262 -10 Q247 -77 198 -119 Q149 -161 71 -161 Q38 -161 9.5 -157 Q-19 -153 -42 -148 L-36 -125 Q-27 -127 -19 -127.5 Q-11 -128 1 -128 Q18 -128 29.5 -120.5 Q41 -113 49 -101.5 Q57 -90 62 -76 Q67 -62 70 -48 Q74 -27 77.5 -5.5 Q81 16 84.5 40.5 Q88 65 92.5 93 Q97 121 104 155 Q108 177 121.5 198 Q135 219 157 235.5 Q179 252 210 262.5 Q241 273 281 274 Q255 277 231.5 286 Q208 295 191 309.5 Q174 324 164 344.5 Q154 365 154 391 Q154 425 164.5 464.5 Q175 504 187 542 Q199 580 209.5 612.5 Q220 645 220 663 Q220 687 209 694 Q198 701 184 701 Q176 701 169.5 700 Q163 699 153 697 L148 719 Z " />
<glyph glyph-name="asciitilde" unicode="&#x7e;" horiz-adv-x="649" d="M589 352 Q544 227 445 227 Q411 227 376.5 238 Q342 249 308 262.5 Q274 276 240.5 287 Q207 298 176 298 Q142 298 117 275.5 Q92 253 77 220 L39 220 Q83 345 183 345 Q217 345 251.5 334 Q286 323 320 309.5 Q354 296 387 285 Q420 274 452 274 Q486 274 511 296.5 Q536 319 551 352 L589 352 Z " />
<glyph glyph-name="uni00A0" unicode="&#xa0;" horiz-adv-x="170" d="" />
<glyph glyph-name="exclamdown" unicode="&#xa1;" horiz-adv-x="256" d="M223 481 Q252 481 268 464.5 Q284 448 284 424 Q284 405 276.5 388 Q269 371 256.5 358.5 Q244 346 227 338.5 Q210 331 191 331 Q160 331 144 347.5 Q128 364 128 390 Q128 408 135 424.5 Q142 441 155 453.5 Q168 466 185.5 473.5 Q203 481 223 481 Z M197 270 Q189 228 185.5 188.5 Q182 149 182 111 Q182 64 185 20.5 Q188 -23 188 -61 Q188 -100 181 -133 Q174 -166 159 -190.5 Q144 -215 121.5 -228.5 Q99 -242 68 -242 Q33 -242 14 -221.5 Q-5 -201 -5 -167 Q-5 -133 15 -86 Q35 -39 61.5 18 Q88 75 115 139 Q142 203 156 270 L197 270 Z " />
<glyph glyph-name="cent" unicode="&#xa2;" horiz-adv-x="501" d="M422 604 L402 512 Q427 509 444.5 499 Q462 489 473.5 476 Q485 463 490.5 448 Q496 433 496 418 Q496 399 489.5 381.5 Q483 364 470 350.5 Q457 337 439 328.5 Q421 320 399 320 Q382 320 370 325 Q358 330 350 336.5 Q342 343 337 349.5 Q332 356 330 360 L447 459 Q442 472 429 481 Q416 490 399 490 Q377 490 357 473.5 Q337 457 319.5 430.5 Q302 404 288.5 369 Q275 334 265 297 Q255 260 250 223.5 Q245 187 245 157 Q245 100 262.5 66.5 Q280 33 311 33 Q340 33 364.5 52.5 Q389 72 410 98 L424 82 Q395 50 364 28 Q333 6 294 -2 L274 -89 L244 -89 L263 -6 Q254 -7 243.5 -7.5 Q233 -8 222 -8 Q184 -8 152 3.5 Q120 15 96.5 38.5 Q73 62 60 97 Q47 132 47 180 Q47 235 66.5 295 Q86 355 124.5 404.5 Q163 454 219 486 Q275 518 348 518 Q354 518 360.5 517.5 Q367 517 373 517 L392 604 L422 604 Z " />
<glyph glyph-name="sterling" unicode="&#xa3;" horiz-adv-x="596" d="M50 324 L124 324 Q124 332 123.5 344.5 Q123 357 123 371 Q123 432 146 486 Q169 540 211 580 Q253 620 311 643 Q369 666 440 666 Q487 666 518.5 655 Q550 644 569.5 626.5 Q589 609 597.5 587.5 Q606 566 606 546 Q606 520 596 498 Q586 476 570 459.5 Q554 443 533.5 434 Q513 425 493 425 Q458 425 436 440.5 Q414 456 407 477 L544 612 Q535 623 514.5 630 Q494 637 474 637 Q440 637 414 622.5 Q388 608 370.5 582 Q353 556 344 520 Q335 484 335 441 Q335 408 336.5 379 Q338 350 338 324 L468 324 L462 296 L338 296 Q332 219 305.5 171 Q279 123 243.5 93.5 Q208 64 170 49 Q132 34 102 25 L282 25 Q365 25 415 70.5 Q465 116 500 208 L531 208 L487 0 L-38 0 L-32 25 L7 25 Q45 25 68.5 44 Q92 63 105 93.5 Q118 124 122.5 162.5 Q127 201 127 240 Q127 255 127 269 Q127 283 126 296 L44 296 L50 324 Z " />
<glyph glyph-name="currency" unicode="&#xa4;" horiz-adv-x="588" d="M497 294 Q497 261 486.5 231.5 Q476 202 456 174 L513 116 L481 85 L425 143 Q394 121 367 111 Q340 101 304 101 Q269 101 241 111 Q213 121 183 143 L127 85 L94 116 L152 174 Q132 202 121.5 231.5 Q111 261 111 294 Q111 328 121.5 358 Q132 388 152 415 L94 473 L127 504 L183 446 Q213 468 241 477 Q269 486 304 486 Q340 486 367 477 Q394 468 425 446 L481 504 L513 473 L456 415 Q476 388 486.5 358 Q497 328 497 294 Z M150 294 Q150 261 161.5 232.5 Q173 204 194 183 Q215 162 243 150 Q271 138 304 138 Q337 138 365.5 150 Q394 162 414.5 183 Q435 204 447 232.5 Q459 261 459 294 Q459 328 447 356.5 Q435 385 414.5 406 Q394 427 365.5 439 Q337 451 304 451 Q271 451 243 439 Q215 427 194 406 Q173 385 161.5 356.5 Q150 328 150 294 Z " />
<glyph glyph-name="yen" unicode="&#xa5;" horiz-adv-x="613" d="M73 341 L189 341 L137 629 L80 629 L86 655 L432 655 L427 629 L358 629 L406 318 L596 629 L532 629 L538 655 L695 655 L689 629 L632 629 L458 341 L581 341 L573 309 L435 309 L412 271 L403 228 L556 228 L550 196 L397 196 L360 26 L442 26 L436 0 L64 0 L70 26 L150 26 L186 196 L33 196 L39 228 L193 228 L202 274 L196 309 L66 309 L73 341 Z " />
<glyph glyph-name="brokenbar" unicode="&#xa6;" horiz-adv-x="242" d="M64 206 L149 206 L72 -154 L-11 -154 L64 206 Z M179 747 L263 747 L187 387 L102 387 L179 747 Z " />
<glyph glyph-name="section" unicode="&#xa7;" horiz-adv-x="553" d="M538 306 Q538 271 525 243.5 Q512 216 489.5 194.5 Q467 173 438 156.5 Q409 140 376 128 Q415 96 432.5 69.5 Q450 43 450 8 Q450 -28 433.5 -61.5 Q417 -95 383.5 -121 Q350 -147 299 -162.5 Q248 -178 178 -178 Q132 -178 100 -168 Q68 -158 47.5 -142 Q27 -126 18 -106.5 Q9 -87 9 -69 Q9 -26 36 4 Q63 34 106 34 Q129 34 145 23.5 Q161 13 166 1 L53 -101 Q66 -123 94 -136.5 Q122 -150 160 -150 Q216 -150 242.5 -126 Q269 -102 269 -73 Q269 -52 261 -35 Q253 -18 237 -1.5 Q221 15 195.5 32.5 Q170 50 136 73 Q85 106 58.5 140 Q32 174 32 214 Q32 251 46 280 Q60 309 83 330.5 Q106 352 135 367.5 Q164 383 194 393 Q174 409 160 423 Q146 437 137 451.5 Q128 466 123.5 482 Q119 498 119 518 Q119 552 135.5 584 Q152 616 185.5 641.5 Q219 667 270.5 682.5 Q322 698 392 698 Q435 698 467 688 Q499 678 520 662 Q541 646 551.5 626.5 Q562 607 562 588 Q562 546 536.5 516.5 Q511 487 468 487 Q445 487 427 497.5 Q409 508 403 520 L517 621 Q503 643 475.5 657 Q448 671 410 671 Q353 671 327 646 Q301 621 301 591 Q301 570 308.5 554 Q316 538 332 522 Q348 506 373 488.5 Q398 471 433 447 Q485 412 511.5 379.5 Q538 347 538 306 Z M358 142 Q369 150 381 162.5 Q393 175 393 194 Q393 216 375 239.5 Q357 263 329.5 286.5 Q302 310 270 333.5 Q238 357 211 378 Q177 357 177 326 Q177 304 195 280.5 Q213 257 240 233 Q267 209 298.5 186 Q330 163 358 142 Z " />
<glyph glyph-name="dieresis" unicode="&#xa8;" horiz-adv-x="470" d="M501 629 Q501 604 492.5 584.5 Q484 565 469 551.5 Q454 538 434.5 531 Q415 524 393 524 Q361 524 341 544 Q321 564 321 593 Q321 614 330.5 633 Q340 652 355 666.5 Q370 681 389.5 689.5 Q409 698 430 698 Q463 698 482 678 Q501 658 501 629 Z M280 627 Q280 604 271 585 Q262 566 246.5 552.5 Q231 539 211.5 531.5 Q192 524 171 524 Q137 524 119 543 Q101 562 101 591 Q101 612 109.5 631.5 Q118 651 132.5 666 Q147 681 166.5 689.5 Q186 698 208 698 Q239 698 259.5 677.5 Q280 657 280 627 Z " />
<glyph glyph-name="copyright" unicode="&#xa9;" horiz-adv-x="715" d="M512 220 Q489 193 459.5 177.5 Q430 162 388 162 Q343 162 310 177.5 Q277 193 254.5 219 Q232 245 221 279 Q210 313 210 350 Q210 384 221.5 417.5 Q233 451 256.5 477 Q280 503 314.5 519 Q349 535 396 535 Q425 535 446 527.5 Q467 520 480.5 508 Q494 496 500.5 481.5 Q507 467 507 454 Q507 434 494.5 423.5 Q482 413 466 413 Q452 413 444.5 418 Q437 423 433 428 L484 484 Q470 502 449.5 512.5 Q429 523 399 523 Q365 523 342 509.5 Q319 496 304.5 473 Q290 450 284 420 Q278 390 278 356 Q278 310 287.5 276.5 Q297 243 313.5 221.5 Q330 200 351.5 190 Q373 180 396 180 Q428 180 454 191.5 Q480 203 503 229 L512 220 Z M56 352 Q56 418 81 476 Q106 534 149.5 577.5 Q193 621 251.5 646.5 Q310 672 376 672 Q442 672 500.5 646.5 Q559 621 602.5 577.5 Q646 534 671.5 476 Q697 418 697 352 Q697 286 671.5 227.5 Q646 169 602.5 125.5 Q559 82 500.5 57 Q442 32 376 32 Q310 32 251.5 57 Q193 82 149.5 125.5 Q106 169 81 227.5 Q56 286 56 352 Z M97 352 Q97 295 119 244 Q141 193 179.5 154.5 Q218 116 268.5 94 Q319 72 376 72 Q433 72 484 94 Q535 116 572.5 154.5 Q610 193 632 244 Q654 295 654 352 Q654 409 632 460 Q610 511 572.5 548.5 Q535 586 484 608 Q433 630 376 630 Q319 630 268.5 608 Q218 586 179.5 548.5 Q141 511 119 460 Q97 409 97 352 Z " />
<glyph glyph-name="ordfeminine" unicode="&#xaa;" horiz-adv-x="390" d="M280 691 Q264 691 250 670 Q236 649 225.5 617 Q215 585 209 548 Q203 511 203 478 Q203 453 206.5 441.5 Q210 430 221 430 Q234 430 247.5 453 Q261 476 271 510.5 Q281 545 287.5 584 Q294 623 294 656 Q294 669 291 680 Q288 691 280 691 Z M78 493 Q78 540 91 580 Q104 620 127 649.5 Q150 679 182.5 695.5 Q215 712 253 712 Q280 712 296.5 703 Q313 694 327 678 L351 711 L445 711 L393 474 Q391 465 388 453.5 Q385 442 385 436 Q385 433 387 429.5 Q389 426 395 426 Q403 426 414 438 Q425 450 433 463 L444 453 Q423 422 398 403.5 Q373 385 339 385 Q304 385 289 406 Q274 427 274 470 Q262 434 233 409.5 Q204 385 166 385 Q150 385 134.5 392 Q119 399 106.5 412.5 Q94 426 86 446 Q78 466 78 493 Z " />
<glyph glyph-name="guillemotleft" unicode="&#xab;" horiz-adv-x="554" d="M37 260 L267 439 L295 424 L183 239 L217 55 L181 39 L28 218 L37 260 Z M272 260 L502 439 L530 424 L418 239 L452 55 L416 39 L263 218 L272 260 Z " />
<glyph glyph-name="logicalnot" unicode="&#xac;" horiz-adv-x="649" d="M474 137 L510 312 L64 312 L73 358 L571 358 L525 137 L474 137 Z " />
<glyph glyph-name="uni00AD" unicode="&#xad;" horiz-adv-x="376" d="M68 289 L321 289 L298 215 L45 215 L68 289 Z " />
<glyph glyph-name="registered" unicode="&#xae;" horiz-adv-x="443" d="M342 569 Q342 552 330 538.5 Q318 525 292 521 Q310 518 318.5 504.5 Q327 491 332 464 L333 460 Q336 445 340 439 Q344 433 351 433 Q355 433 361 442 L366 437 Q362 429 356 423.5 Q350 418 338 418 Q327 418 315.5 426 Q304 434 299 462 L297 472 Q293 492 288 503 Q283 514 266 514 L241 514 L241 429 L266 429 L266 421 L186 421 L186 429 L209 429 L209 607 L186 607 L186 618 L274 618 Q314 618 328 603.5 Q342 589 342 569 Z M241 607 L241 524 L260 524 Q305 524 305 569 Q305 592 294 599.5 Q283 607 260 607 L241 607 Z M271 704 Q310 704 343.5 689 Q377 674 402.5 648.5 Q428 623 442.5 589 Q457 555 457 516 Q457 477 442.5 443 Q428 409 402.5 383.5 Q377 358 343.5 343.5 Q310 329 271 329 Q232 329 198 343.5 Q164 358 139 383.5 Q114 409 99.5 443 Q85 477 85 516 Q85 555 99.5 589 Q114 623 139 648.5 Q164 674 198 689 Q232 704 271 704 Z M271 681 Q238 681 209 667.5 Q180 654 158.5 631.5 Q137 609 125 579 Q113 549 113 516 Q113 483 125 453 Q137 423 158.5 400.5 Q180 378 209 365 Q238 352 271 352 Q304 352 332.5 365 Q361 378 382.5 400.5 Q404 423 416.5 453 Q429 483 429 516 Q429 549 416.5 579 Q404 609 382.5 631.5 Q361 654 332.5 667.5 Q304 681 271 681 Z " />
<glyph glyph-name="macron" unicode="&#xaf;" horiz-adv-x="470" d="M126 555 L148 655 L457 655 L435 555 L126 555 Z " />
<glyph glyph-name="degree" unicode="&#xb0;" horiz-adv-x="304" d="M237 670 Q217 670 199.5 661 Q182 652 169.5 637 Q157 622 149.5 603.5 Q142 585 142 567 Q142 539 156 518.5 Q170 498 202 498 Q222 498 239.5 506.5 Q257 515 269.5 528.5 Q282 542 289.5 560 Q297 578 297 597 Q297 626 281 648 Q265 670 237 670 Z M86 555 Q86 585 97.5 613.5 Q109 642 129.5 664.5 Q150 687 179 700.5 Q208 714 243 714 Q297 714 324.5 682 Q352 650 352 604 Q352 573 339 545 Q326 517 304 496 Q282 475 253 463 Q224 451 192 451 Q144 451 115 480.5 Q86 510 86 555 Z " />
<glyph glyph-name="plusminus" unicode="&#xb1;" horiz-adv-x="649" d="M347 320 L310 159 L255 159 L291 320 L70 320 L79 367 L301 367 L337 526 L392 526 L356 367 L578 367 L569 320 L347 320 Z M14 66 L23 111 L523 111 L513 66 L14 66 Z " />
<glyph glyph-name="twosuperior" unicode="&#xb2;" horiz-adv-x="338" d="M24 317 Q41 340 60 359.5 Q79 379 102 399 Q131 424 161 452.5 Q191 481 215 510.5 Q239 540 254 570.5 Q269 601 269 630 Q269 659 253.5 670 Q238 681 222 681 Q207 681 195 675 Q183 669 173 659 L224 579 Q213 562 195 552 Q177 542 158 542 Q132 542 119 559.5 Q106 577 106 597 Q106 614 115 634 Q124 654 143.5 671.5 Q163 689 194.5 700.5 Q226 712 270 712 Q327 712 359 685.5 Q391 659 391 619 Q391 589 377 565 Q363 541 341 521.5 Q319 502 293 486 Q267 470 243 457 Q212 440 184 424.5 Q156 409 135 394 Q153 405 170.5 410 Q188 415 211 415 Q240 415 258.5 409.5 Q277 404 297 404 Q301 404 307.5 405.5 Q314 407 321 411.5 Q328 416 335.5 425.5 Q343 435 349 451 L362 451 L326 320 Q315 316 303 315.5 Q291 315 276 315 Q256 315 237.5 318.5 Q219 322 199.5 326 Q180 330 160 333.5 Q140 337 118 337 Q91 337 68 328.5 Q45 320 32 308 L24 317 Z " />
<glyph glyph-name="threesuperior" unicode="&#xb3;" horiz-adv-x="302" d="M56 360 Q70 352 83 349 Q96 346 114 346 Q131 346 147 352.5 Q163 359 176 371 Q189 383 196.5 399.5 Q204 416 204 436 Q204 454 200 464 Q196 474 190.5 479 Q185 484 178 485.5 Q171 487 165 487 Q155 487 142.5 484.5 Q130 482 118 478 L114 501 L143 509 Q189 521 220.5 555.5 Q252 590 252 634 Q252 664 239 673.5 Q226 683 212 683 Q198 683 185.5 677 Q173 671 166 666 L205 602 Q197 588 185 582 Q173 576 159 576 Q139 576 127 587.5 Q115 599 115 619 Q115 631 122.5 647.5 Q130 664 147.5 678 Q165 692 192 702 Q219 712 258 712 Q315 712 341.5 689 Q368 666 368 636 Q368 594 335 563 Q302 532 253 521 Q289 518 310 497.5 Q331 477 331 443 Q331 412 315 388.5 Q299 365 272.5 348.5 Q246 332 212 323.5 Q178 315 142 315 Q110 315 85 320.5 Q60 326 46 334 L56 360 Z " />
<glyph glyph-name="acute" unicode="&#xb4;" horiz-adv-x="470" d="M317 654 Q342 679 361 692.5 Q380 706 409 706 Q436 706 449 694.5 Q462 683 462 665 Q462 610 390 581 L247 523 L179 523 L317 654 Z " />
<glyph glyph-name="mu" unicode="&#xb5;" horiz-adv-x="769" d="M668 86 Q667 81 666.5 77 Q666 73 666 70 Q666 50 684 50 Q692 50 700 55 Q708 60 713 67 L723 53 Q689 21 653.5 6.5 Q618 -8 573 -8 Q526 -8 497.5 8.5 Q469 25 463 68 Q445 45 414 25.5 Q383 6 338 -3 L297 -199 L31 -199 L37 -173 L89 -173 L220 441 L167 441 L173 467 L437 467 L366 132 Q363 119 362 109 Q361 99 361 90 Q361 69 369 60.5 Q377 52 393 52 Q413 52 435.5 71 Q458 90 468 138 L532 441 L481 441 L487 467 L749 467 L668 86 Z " />
<glyph glyph-name="paragraph" unicode="&#xb6;" horiz-adv-x="520" d="M56 456 Q56 513 79.5 558 Q103 603 142.5 634 Q182 665 234.5 681.5 Q287 698 345 698 L557 698 L374 -164 L274 -164 L451 668 L389 668 L212 -164 L186 -164 L284 298 L244 298 Q198 298 163 310 Q128 322 104 343 Q80 364 68 393 Q56 422 56 456 Z " />
<glyph glyph-name="periodcentered" unicode="&#xb7;" horiz-adv-x="210" d="M96 189 Q64 189 46 207.5 Q28 226 28 252 Q28 272 36 290.5 Q44 309 58 323 Q72 337 90.5 345.5 Q109 354 131 354 Q164 354 181.5 336 Q199 318 199 290 Q199 270 191 252 Q183 234 169.5 220 Q156 206 137 197.5 Q118 189 96 189 Z " />
<glyph glyph-name="cedilla" unicode="&#xb8;" horiz-adv-x="470" d="M144 12 L169 12 L127 -64 Q133 -62 142.5 -61 Q152 -60 164 -60 Q211 -60 236.5 -81.5 Q262 -103 262 -135 Q262 -165 248.5 -186 Q235 -207 215 -219.5 Q195 -232 170.5 -237.5 Q146 -243 124 -243 Q82 -243 60.5 -229 Q39 -215 39 -192 Q39 -178 48.5 -166 Q58 -154 75 -154 Q87 -154 96.5 -160.5 Q106 -167 111 -175 L69 -214 Q78 -226 99 -226 Q109 -226 120.5 -222 Q132 -218 141.5 -208 Q151 -198 157 -181 Q163 -164 163 -138 Q163 -111 149.5 -94 Q136 -77 118 -77 Q106 -77 100 -79 L96 -75 L144 12 Z " />
<glyph glyph-name="onesuperior" unicode="&#xb9;" horiz-adv-x="317" d="M99 595 Q143 615 193.5 643.5 Q244 672 292 704 L339 704 L261 341 L308 341 L304 321 L63 321 L68 341 L126 341 L181 603 L106 570 L99 595 Z " />
<glyph glyph-name="ordmasculine" unicode="&#xba;" horiz-adv-x="382" d="M294 712 Q333 712 360 701.5 Q387 691 404.5 673 Q422 655 429.5 631 Q437 607 437 580 Q437 545 424.5 510 Q412 475 386 447.5 Q360 420 321 402.5 Q282 385 230 385 Q191 385 163.5 395 Q136 405 119 422.5 Q102 440 94 463.5 Q86 487 86 514 Q86 549 97.5 584.5 Q109 620 134 648.5 Q159 677 198.5 694.5 Q238 712 294 712 Z M232 403 Q243 403 253 416.5 Q263 430 272 452 Q281 474 288.5 501.5 Q296 529 301 556.5 Q306 584 309 608.5 Q312 633 312 649 Q312 695 290 695 Q279 695 269 681 Q259 667 250.5 644 Q242 621 234.5 593 Q227 565 221.5 537 Q216 509 213 484.5 Q210 460 210 444 Q210 423 214.5 413 Q219 403 232 403 Z " />
<glyph glyph-name="guillemotright" unicode="&#xbb;" horiz-adv-x="554" d="M273 218 L42 39 L14 55 L126 240 L92 424 L128 439 L281 260 L273 218 Z M508 218 L277 39 L249 55 L361 240 L327 424 L363 439 L516 260 L508 218 Z " />
<glyph glyph-name="onequarter" unicode="&#xbc;" horiz-adv-x="867" d="M99 595 Q143 615 193.5 643.5 Q244 672 292 704 L339 704 L261 341 L308 341 L304 321 L63 321 L68 341 L126 341 L181 603 L106 570 L99 595 Z M130 -8 L715 666 L770 666 L185 -8 L130 -8 Z M809 383 L751 123 L800 123 L795 102 L747 102 L729 20 L777 20 L773 0 L542 0 L547 20 L595 20 L613 102 L478 102 L482 120 L712 383 L809 383 Z M617 123 L658 288 L513 123 L617 123 Z " />
<glyph glyph-name="onehalf" unicode="&#xbd;" horiz-adv-x="843" d="M99 595 Q143 615 193.5 643.5 Q244 672 292 704 L339 704 L261 341 L308 341 L304 321 L63 321 L68 341 L126 341 L181 603 L106 570 L99 595 Z M110 -8 L695 666 L750 666 L165 -8 L110 -8 Z M461 -4 Q478 19 497 38.5 Q516 58 539 78 Q568 103 598 131.5 Q628 160 652 189.5 Q676 219 691 249.5 Q706 280 706 309 Q706 338 690.5 349 Q675 360 659 360 Q644 360 632 354 Q620 348 610 338 L661 258 Q650 241 632 231 Q614 221 595 221 Q569 221 556 238.5 Q543 256 543 276 Q543 293 552 313 Q561 333 580.5 350.5 Q600 368 631.5 379.5 Q663 391 707 391 Q764 391 796 364.5 Q828 338 828 298 Q828 268 814 244 Q800 220 778 200.5 Q756 181 730 165 Q704 149 680 136 Q649 119 621 103.5 Q593 88 572 73 Q590 84 607.5 89 Q625 94 648 94 Q677 94 695.5 88.5 Q714 83 734 83 Q738 83 744.5 84.5 Q751 86 758 90.5 Q765 95 772.5 104.5 Q780 114 786 130 L799 130 L763 -1 Q752 -5 740 -5.5 Q728 -6 713 -6 Q693 -6 674.5 -2.5 Q656 1 636.5 5 Q617 9 597 12.5 Q577 16 555 16 Q528 16 505 7.5 Q482 -1 469 -13 L461 -4 Z " />
<glyph glyph-name="threequarters" unicode="&#xbe;" horiz-adv-x="852" d="M56 360 Q70 352 83 349 Q96 346 114 346 Q131 346 147 352.5 Q163 359 176 371 Q189 383 196.5 399.5 Q204 416 204 436 Q204 454 200 464 Q196 474 190.5 479 Q185 484 178 485.5 Q171 487 165 487 Q155 487 142.5 484.5 Q130 482 118 478 L114 501 L143 509 Q189 521 220.5 555.5 Q252 590 252 634 Q252 664 239 673.5 Q226 683 212 683 Q198 683 185.5 677 Q173 671 166 666 L205 602 Q197 588 185 582 Q173 576 159 576 Q139 576 127 587.5 Q115 599 115 619 Q115 631 122.5 647.5 Q130 664 147.5 678 Q165 692 192 702 Q219 712 258 712 Q315 712 341.5 689 Q368 666 368 636 Q368 594 335 563 Q302 532 253 521 Q289 518 310 497.5 Q331 477 331 443 Q331 412 315 388.5 Q299 365 272.5 348.5 Q246 332 212 323.5 Q178 315 142 315 Q110 315 85 320.5 Q60 326 46 334 L56 360 Z M112 -8 L697 666 L752 666 L167 -8 L112 -8 Z M794 383 L736 123 L785 123 L780 102 L732 102 L714 20 L762 20 L758 0 L527 0 L532 20 L580 20 L598 102 L463 102 L467 120 L697 383 L794 383 Z M602 123 L643 288 L498 123 L602 123 Z " />
<glyph glyph-name="questiondown" unicode="&#xbf;" horiz-adv-x="393" d="M-28 -112 Q-28 -73 -13 -41 Q2 -9 27.5 17.5 Q53 44 85 65.5 Q117 87 152 104 Q177 117 193 127 Q209 137 219.5 148.5 Q230 160 236 176 Q242 192 247 216 L258 269 L300 269 L281 181 Q274 149 251.5 119.5 Q229 90 204.5 57 Q180 24 161 -17.5 Q142 -59 142 -115 Q142 -154 161 -176.5 Q180 -199 212 -199 Q242 -199 264 -187 Q286 -175 298 -160 L221 -42 Q224 -39 231.5 -32.5 Q239 -26 250 -19 Q261 -12 275.5 -7 Q290 -2 308 -2 Q341 -2 358 -21.5 Q375 -41 375 -70 Q375 -88 364.5 -117.5 Q354 -147 327 -174.5 Q300 -202 253.5 -222.5 Q207 -243 135 -243 Q93 -243 62.5 -232 Q32 -221 11.5 -203 Q-9 -185 -18.5 -161.5 Q-28 -138 -28 -112 Z M322 480 Q351 480 367.5 463.5 Q384 447 384 423 Q384 404 376.5 387 Q369 370 356 357.5 Q343 345 326 337.5 Q309 330 290 330 Q260 330 243.5 346.5 Q227 363 227 389 Q227 407 234.5 423.5 Q242 440 254.5 452.5 Q267 465 284.5 472.5 Q302 480 322 480 Z " />
<glyph glyph-name="Agrave" unicode="&#xc0;" horiz-adv-x="595" d="M230 26 L316 26 L294 198 L109 198 L14 26 L94 26 L89 0 L-77 0 L-72 26 L-18 26 L355 698 L436 698 L524 26 L579 26 L574 0 L226 0 L230 26 Z M259 471 L124 225 L290 225 L259 471 Z M499 736 L446 736 L280 805 Q255 816 245.5 831 Q236 846 236 865 Q236 889 255 905.5 Q274 922 302 922 Q334 922 353 906 Q372 890 389 870 L499 736 Z " />
<glyph glyph-name="Aacute" unicode="&#xc1;" horiz-adv-x="595" d="M230 26 L316 26 L294 198 L109 198 L14 26 L94 26 L89 0 L-77 0 L-72 26 L-18 26 L355 698 L436 698 L524 26 L579 26 L574 0 L226 0 L230 26 Z M259 471 L124 225 L290 225 L259 471 Z M434 870 Q459 895 478 908.5 Q497 922 526 922 Q553 922 566 910.5 Q579 899 579 881 Q579 826 507 797 L364 739 L296 739 L434 870 Z " />
<glyph glyph-name="Acircumflex" unicode="&#xc2;" horiz-adv-x="595" d="M230 26 L316 26 L294 198 L109 198 L14 26 L94 26 L89 0 L-77 0 L-72 26 L-18 26 L355 698 L436 698 L524 26 L579 26 L574 0 L226 0 L230 26 Z M259 471 L124 225 L290 225 L259 471 Z M477 910 L552 744 L523 729 L403 804 L253 729 L231 743 L381 910 L477 910 Z " />
<glyph glyph-name="Atilde" unicode="&#xc3;" horiz-adv-x="595" d="M230 26 L316 26 L294 198 L109 198 L14 26 L94 26 L89 0 L-77 0 L-72 26 L-18 26 L355 698 L436 698 L524 26 L579 26 L574 0 L226 0 L230 26 Z M259 471 L124 225 L290 225 L259 471 Z M616 917 Q608 885 597 856.5 Q586 828 569 807 Q552 786 529 773.5 Q506 761 475 761 Q455 761 434 767.5 Q413 774 392 782 Q371 790 350.5 796.5 Q330 803 313 803 Q299 803 279 795 Q259 787 245 759 L231 759 Q236 787 248 814 Q260 841 279 862 Q298 883 322 896 Q346 909 375 909 Q399 909 421 903 Q443 897 463 889.5 Q483 882 502.5 876 Q522 870 541 870 Q562 870 577 883 Q592 896 602 917 L616 917 Z " />
<glyph glyph-name="Adieresis" unicode="&#xc4;" horiz-adv-x="595" d="M230 26 L316 26 L294 198 L109 198 L14 26 L94 26 L89 0 L-77 0 L-72 26 L-18 26 L355 698 L436 698 L524 26 L579 26 L574 0 L226 0 L230 26 Z M259 471 L124 225 L290 225 L259 471 Z M609 845 Q609 820 600.5 800.5 Q592 781 577 767.5 Q562 754 542.5 747 Q523 740 501 740 Q469 740 449 760 Q429 780 429 809 Q429 830 438.5 849 Q448 868 463 882.5 Q478 897 497.5 905.5 Q517 914 538 914 Q571 914 590 894 Q609 874 609 845 Z M388 843 Q388 820 379 801 Q370 782 354.5 768.5 Q339 755 319.5 747.5 Q300 740 279 740 Q245 740 227 759 Q209 778 209 807 Q209 828 217.5 847.5 Q226 867 240.5 882 Q255 897 274.5 905.5 Q294 914 316 914 Q347 914 367.5 893.5 Q388 873 388 843 Z " />
<glyph glyph-name="Aring" unicode="&#xc5;" horiz-adv-x="595" d="M230 26 L316 26 L294 198 L109 198 L14 26 L94 26 L89 0 L-77 0 L-72 26 L-18 26 L355 698 L436 698 L524 26 L579 26 L574 0 L226 0 L230 26 Z M259 471 L124 225 L290 225 L259 471 Z M546 880 Q546 848 534 821 Q522 794 501 774.5 Q480 755 451.5 743.5 Q423 732 390 732 Q342 732 314 758.5 Q286 785 286 826 Q286 856 298.5 883 Q311 910 332 930.5 Q353 951 381.5 963 Q410 975 442 975 Q492 975 519 948 Q546 921 546 880 Z M397 752 Q412 752 423 768 Q434 784 440.5 807 Q447 830 450.5 855.5 Q454 881 454 900 Q454 909 454 919 Q454 929 452.5 937.5 Q451 946 448 951.5 Q445 957 440 957 Q428 957 417 940 Q406 923 398 899 Q390 875 385.5 849 Q381 823 381 805 Q381 797 381.5 788 Q382 779 383.5 771 Q385 763 388 757.5 Q391 752 397 752 Z " />
<glyph glyph-name="AE" unicode="&#xc6;" horiz-adv-x="849" d="M304 698 L770 698 Q830 698 863 668.5 Q896 639 896 588 Q896 567 886.5 546 Q877 525 860 508 Q843 491 819.5 480.5 Q796 470 769 470 Q740 470 718.5 481.5 Q697 493 684 509 L824 650 Q812 661 795 666.5 Q778 672 745 672 L630 672 L562 354 L715 354 L710 328 L556 328 L492 26 L524 26 Q576 26 615 37 Q654 48 682.5 68.5 Q711 89 731.5 117.5 Q752 146 766 182 L782 222 L805 222 L755 0 L202 0 L207 26 L279 26 L322 216 L124 216 L-1 26 L87 26 L83 0 L-83 0 L-78 26 L-33 26 L395 672 L299 672 L304 698 Z M140 243 L328 243 L425 672 L140 243 Z " />
<glyph glyph-name="Ccedilla" unicode="&#xc7;" horiz-adv-x="587" d="M270 -8 Q214 -4 171.5 20 Q129 44 100.5 81.5 Q72 119 58 168.5 Q44 218 44 274 Q44 325 55.5 377.5 Q67 430 89.5 478.5 Q112 527 145.5 569.5 Q179 612 224 643.5 Q269 675 325.5 693.5 Q382 712 449 712 Q501 712 536.5 698 Q572 684 594 663 Q616 642 626 616.5 Q636 591 636 568 Q636 542 627.5 518 Q619 494 602.5 476 Q586 458 563 447.5 Q540 437 512 437 Q476 437 456 447.5 Q436 458 422 474 L581 629 Q570 647 545 665.5 Q520 684 486 684 Q446 684 414 664.5 Q382 645 357.5 612 Q333 579 315.5 536 Q298 493 287 445 Q276 397 271 347.5 Q266 298 266 253 Q266 148 292.5 94 Q319 40 376 40 Q403 40 429.5 54.5 Q456 69 479.5 93 Q503 117 522.5 149 Q542 181 556 216 L581 205 Q563 160 537 121 Q511 82 476 53 Q441 24 396 7.5 Q351 -9 295 -9 L263 -67 Q270 -65 279 -64 Q288 -63 300 -63 Q347 -63 373 -84.5 Q399 -106 399 -138 Q399 -168 385.5 -188 Q372 -208 352 -220 Q332 -232 307 -237 Q282 -242 260 -242 Q218 -242 196.5 -228 Q175 -214 175 -191 Q175 -177 184.5 -165 Q194 -153 211 -153 Q223 -153 232.5 -159.5 Q242 -166 247 -174 L205 -213 Q215 -225 235 -225 Q245 -225 256.5 -221.5 Q268 -218 277.5 -209 Q287 -200 293 -183.5 Q299 -167 299 -141 Q299 -113 285.5 -96.5 Q272 -80 255 -80 Q244 -80 236 -82 L232 -78 L270 -8 Z " />
<glyph glyph-name="Egrave" unicode="&#xc8;" horiz-adv-x="619" d="M533 698 Q597 698 632 669 Q667 640 667 598 Q667 572 657.5 549 Q648 526 631 508.5 Q614 491 591 480.5 Q568 470 540 470 Q505 470 487 481.5 Q469 493 456 509 L598 651 Q590 659 572.5 665.5 Q555 672 518 672 L399 672 L332 354 L485 354 L479 328 L326 328 L261 26 L305 26 Q356 26 394.5 37 Q433 48 461.5 67.5 Q490 87 509.5 115 Q529 143 543 178 L561 222 L584 222 L537 0 L-28 0 L-24 26 L48 26 L186 672 L114 672 L118 698 L533 698 Z M561 736 L508 736 L342 805 Q317 816 307.5 831 Q298 846 298 865 Q298 889 317 905.5 Q336 922 364 922 Q396 922 415 906 Q434 890 451 870 L561 736 Z " />
<glyph glyph-name="Eacute" unicode="&#xc9;" horiz-adv-x="619" d="M533 698 Q597 698 632 669 Q667 640 667 598 Q667 572 657.5 549 Q648 526 631 508.5 Q614 491 591 480.5 Q568 470 540 470 Q505 470 487 481.5 Q469 493 456 509 L598 651 Q590 659 572.5 665.5 Q555 672 518 672 L399 672 L332 354 L485 354 L479 328 L326 328 L261 26 L305 26 Q356 26 394.5 37 Q433 48 461.5 67.5 Q490 87 509.5 115 Q529 143 543 178 L561 222 L584 222 L537 0 L-28 0 L-24 26 L48 26 L186 672 L114 672 L118 698 L533 698 Z M439 870 Q464 895 483 908.5 Q502 922 531 922 Q558 922 571 910.5 Q584 899 584 881 Q584 826 512 797 L369 739 L301 739 L439 870 Z " />
<glyph glyph-name="Ecircumflex" unicode="&#xca;" horiz-adv-x="619" d="M533 698 Q597 698 632 669 Q667 640 667 598 Q667 572 657.5 549 Q648 526 631 508.5 Q614 491 591 480.5 Q568 470 540 470 Q505 470 487 481.5 Q469 493 456 509 L598 651 Q590 659 572.5 665.5 Q555 672 518 672 L399 672 L332 354 L485 354 L479 328 L326 328 L261 26 L305 26 Q356 26 394.5 37 Q433 48 461.5 67.5 Q490 87 509.5 115 Q529 143 543 178 L561 222 L584 222 L537 0 L-28 0 L-24 26 L48 26 L186 672 L114 672 L118 698 L533 698 Z M506 910 L581 744 L552 729 L432 804 L282 729 L260 743 L410 910 L506 910 Z " />
<glyph glyph-name="Edieresis" unicode="&#xcb;" horiz-adv-x="619" d="M533 698 Q597 698 632 669 Q667 640 667 598 Q667 572 657.5 549 Q648 526 631 508.5 Q614 491 591 480.5 Q568 470 540 470 Q505 470 487 481.5 Q469 493 456 509 L598 651 Q590 659 572.5 665.5 Q555 672 518 672 L399 672 L332 354 L485 354 L479 328 L326 328 L261 26 L305 26 Q356 26 394.5 37 Q433 48 461.5 67.5 Q490 87 509.5 115 Q529 143 543 178 L561 222 L584 222 L537 0 L-28 0 L-24 26 L48 26 L186 672 L114 672 L118 698 L533 698 Z M626 845 Q626 820 617.5 800.5 Q609 781 594 767.5 Q579 754 559.5 747 Q540 740 518 740 Q486 740 466 760 Q446 780 446 809 Q446 830 455.5 849 Q465 868 480 882.5 Q495 897 514.5 905.5 Q534 914 555 914 Q588 914 607 894 Q626 874 626 845 Z M405 843 Q405 820 396 801 Q387 782 371.5 768.5 Q356 755 336.5 747.5 Q317 740 296 740 Q262 740 244 759 Q226 778 226 807 Q226 828 234.5 847.5 Q243 867 257.5 882 Q272 897 291.5 905.5 Q311 914 333 914 Q364 914 384.5 893.5 Q405 873 405 843 Z " />
<glyph glyph-name="Igrave" unicode="&#xcc;" horiz-adv-x="409" d="M263 26 L336 26 L331 0 L-26 0 L-22 26 L50 26 L188 672 L116 672 L120 698 L478 698 L474 672 L401 672 L263 26 Z M473 736 L420 736 L254 805 Q229 816 219.5 831 Q210 846 210 865 Q210 889 229 905.5 Q248 922 276 922 Q308 922 327 906 Q346 890 363 870 L473 736 Z " />
<glyph glyph-name="Iacute" unicode="&#xcd;" horiz-adv-x="409" d="M263 26 L336 26 L331 0 L-26 0 L-22 26 L50 26 L188 672 L116 672 L120 698 L478 698 L474 672 L401 672 L263 26 Z M350 870 Q375 895 394 908.5 Q413 922 442 922 Q469 922 482 910.5 Q495 899 495 881 Q495 826 423 797 L280 739 L212 739 L350 870 Z " />
<glyph glyph-name="Icircumflex" unicode="&#xce;" horiz-adv-x="409" d="M263 26 L336 26 L331 0 L-26 0 L-22 26 L50 26 L188 672 L116 672 L120 698 L478 698 L474 672 L401 672 L263 26 Z M393 910 L468 744 L439 729 L319 804 L169 729 L147 743 L297 910 L393 910 Z " />
<glyph glyph-name="Idieresis" unicode="&#xcf;" horiz-adv-x="409" d="M263 26 L336 26 L331 0 L-26 0 L-22 26 L50 26 L188 672 L116 672 L120 698 L478 698 L474 672 L401 672 L263 26 Z M529 845 Q529 820 520.5 800.5 Q512 781 497 767.5 Q482 754 462.5 747 Q443 740 421 740 Q389 740 369 760 Q349 780 349 809 Q349 830 358.5 849 Q368 868 383 882.5 Q398 897 417.5 905.5 Q437 914 458 914 Q491 914 510 894 Q529 874 529 845 Z M308 843 Q308 820 299 801 Q290 782 274.5 768.5 Q259 755 239.5 747.5 Q220 740 199 740 Q165 740 147 759 Q129 778 129 807 Q129 828 137.5 847.5 Q146 867 160.5 882 Q175 897 194.5 905.5 Q214 914 236 914 Q267 914 287.5 893.5 Q308 873 308 843 Z " />
<glyph glyph-name="Eth" unicode="&#xd0;" horiz-adv-x="727" d="M72 371 L136 371 L170 529 Q174 546 181.5 566 Q189 586 200 605 Q211 624 225 641 Q239 658 257 670 Q222 662 180 649 Q138 636 110 622 L100 649 Q110 652 134 662 Q158 672 196 683.5 Q234 695 287.5 703.5 Q341 712 409 712 Q565 712 645.5 635 Q726 558 726 418 Q726 346 702.5 272 Q679 198 628 137.5 Q577 77 497 38.5 Q417 0 303 0 L-14 0 L-9 26 L62 26 L130 340 L66 340 L72 371 Z M348 371 L436 371 L430 340 L341 340 L274 26 L300 26 Q353 26 395.5 60.5 Q438 95 468 156.5 Q498 218 514 303.5 Q530 389 530 490 Q530 583 505.5 633.5 Q481 684 415 684 L348 371 Z " />
<glyph glyph-name="Ntilde" unicode="&#xd1;" horiz-adv-x="714" d="M684 672 L602 672 L606 698 L790 698 L785 672 L713 672 L570 0 L387 0 L210 676 L71 26 L154 26 L149 0 L-33 0 L-28 26 L43 26 L181 672 L109 672 L114 698 L445 698 L575 160 L684 672 Z M696 927 Q688 895 677 866.5 Q666 838 649 817 Q632 796 609 783.5 Q586 771 555 771 Q535 771 514 777.5 Q493 784 472 792 Q451 800 430.5 806.5 Q410 813 393 813 Q379 813 359 805 Q339 797 325 769 L311 769 Q316 797 328 824 Q340 851 359 872 Q378 893 402 906 Q426 919 455 919 Q479 919 501 913 Q523 907 543 899.5 Q563 892 582.5 886 Q602 880 621 880 Q642 880 657 893 Q672 906 682 927 L696 927 Z " />
<glyph glyph-name="Ograve" unicode="&#xd2;" horiz-adv-x="689" d="M444 712 Q505 712 551.5 692.5 Q598 673 629 639.5 Q660 606 675.5 561 Q691 516 691 465 Q691 367 667 281 Q643 195 594 131 Q545 67 470.5 29.5 Q396 -8 296 -8 Q233 -8 186 9 Q139 26 107.5 57.5 Q76 89 60 133.5 Q44 178 44 233 Q44 325 67 411.5 Q90 498 139 564.5 Q188 631 263.5 671.5 Q339 712 444 712 Z M302 20 Q330 20 355 51 Q380 82 400.5 131.5 Q421 181 437 242.5 Q453 304 464 366 Q475 428 480.5 484 Q486 540 486 577 Q486 602 484.5 622 Q483 642 478 656 Q473 670 463.5 677.5 Q454 685 438 685 Q410 685 385.5 653.5 Q361 622 340.5 571.5 Q320 521 303.5 458 Q287 395 275.5 332 Q264 269 258 212.5 Q252 156 252 119 Q252 70 260.5 45 Q269 20 302 20 Z M624 736 L571 736 L405 805 Q380 816 370.5 831 Q361 846 361 865 Q361 889 380 905.5 Q399 922 427 922 Q459 922 478 906 Q497 890 514 870 L624 736 Z " />
<glyph glyph-name="Oacute" unicode="&#xd3;" horiz-adv-x="689" d="M444 712 Q505 712 551.5 692.5 Q598 673 629 639.5 Q660 606 675.5 561 Q691 516 691 465 Q691 367 667 281 Q643 195 594 131 Q545 67 470.5 29.5 Q396 -8 296 -8 Q233 -8 186 9 Q139 26 107.5 57.5 Q76 89 60 133.5 Q44 178 44 233 Q44 325 67 411.5 Q90 498 139 564.5 Q188 631 263.5 671.5 Q339 712 444 712 Z M302 20 Q330 20 355 51 Q380 82 400.5 131.5 Q421 181 437 242.5 Q453 304 464 366 Q475 428 480.5 484 Q486 540 486 577 Q486 602 484.5 622 Q483 642 478 656 Q473 670 463.5 677.5 Q454 685 438 685 Q410 685 385.5 653.5 Q361 622 340.5 571.5 Q320 521 303.5 458 Q287 395 275.5 332 Q264 269 258 212.5 Q252 156 252 119 Q252 70 260.5 45 Q269 20 302 20 Z M489 870 Q514 895 533 908.5 Q552 922 581 922 Q608 922 621 910.5 Q634 899 634 881 Q634 826 562 797 L419 739 L351 739 L489 870 Z " />
<glyph glyph-name="Ocircumflex" unicode="&#xd4;" horiz-adv-x="689" d="M444 712 Q505 712 551.5 692.5 Q598 673 629 639.5 Q660 606 675.5 561 Q691 516 691 465 Q691 367 667 281 Q643 195 594 131 Q545 67 470.5 29.5 Q396 -8 296 -8 Q233 -8 186 9 Q139 26 107.5 57.5 Q76 89 60 133.5 Q44 178 44 233 Q44 325 67 411.5 Q90 498 139 564.5 Q188 631 263.5 671.5 Q339 712 444 712 Z M302 20 Q330 20 355 51 Q380 82 400.5 131.5 Q421 181 437 242.5 Q453 304 464 366 Q475 428 480.5 484 Q486 540 486 577 Q486 602 484.5 622 Q483 642 478 656 Q473 670 463.5 677.5 Q454 685 438 685 Q410 685 385.5 653.5 Q361 622 340.5 571.5 Q320 521 303.5 458 Q287 395 275.5 332 Q264 269 258 212.5 Q252 156 252 119 Q252 70 260.5 45 Q269 20 302 20 Z M533 910 L608 744 L579 729 L459 804 L309 729 L287 743 L437 910 L533 910 Z " />
<glyph glyph-name="Otilde" unicode="&#xd5;" horiz-adv-x="689" d="M444 712 Q505 712 551.5 692.5 Q598 673 629 639.5 Q660 606 675.5 561 Q691 516 691 465 Q691 367 667 281 Q643 195 594 131 Q545 67 470.5 29.5 Q396 -8 296 -8 Q233 -8 186 9 Q139 26 107.5 57.5 Q76 89 60 133.5 Q44 178 44 233 Q44 325 67 411.5 Q90 498 139 564.5 Q188 631 263.5 671.5 Q339 712 444 712 Z M302 20 Q330 20 355 51 Q380 82 400.5 131.5 Q421 181 437 242.5 Q453 304 464 366 Q475 428 480.5 484 Q486 540 486 577 Q486 602 484.5 622 Q483 642 478 656 Q473 670 463.5 677.5 Q454 685 438 685 Q410 685 385.5 653.5 Q361 622 340.5 571.5 Q320 521 303.5 458 Q287 395 275.5 332 Q264 269 258 212.5 Q252 156 252 119 Q252 70 260.5 45 Q269 20 302 20 Z M665 917 Q657 885 646 856.5 Q635 828 618 807 Q601 786 578 773.5 Q555 761 524 761 Q504 761 483 767.5 Q462 774 441 782 Q420 790 399.5 796.5 Q379 803 362 803 Q348 803 328 795 Q308 787 294 759 L280 759 Q285 787 297 814 Q309 841 328 862 Q347 883 371 896 Q395 909 424 909 Q448 909 470 903 Q492 897 512 889.5 Q532 882 551.5 876 Q571 870 590 870 Q611 870 626 883 Q641 896 651 917 L665 917 Z " />
<glyph glyph-name="Odieresis" unicode="&#xd6;" horiz-adv-x="689" d="M444 712 Q505 712 551.5 692.5 Q598 673 629 639.5 Q660 606 675.5 561 Q691 516 691 465 Q691 367 667 281 Q643 195 594 131 Q545 67 470.5 29.5 Q396 -8 296 -8 Q233 -8 186 9 Q139 26 107.5 57.5 Q76 89 60 133.5 Q44 178 44 233 Q44 325 67 411.5 Q90 498 139 564.5 Q188 631 263.5 671.5 Q339 712 444 712 Z M302 20 Q330 20 355 51 Q380 82 400.5 131.5 Q421 181 437 242.5 Q453 304 464 366 Q475 428 480.5 484 Q486 540 486 577 Q486 602 484.5 622 Q483 642 478 656 Q473 670 463.5 677.5 Q454 685 438 685 Q410 685 385.5 653.5 Q361 622 340.5 571.5 Q320 521 303.5 458 Q287 395 275.5 332 Q264 269 258 212.5 Q252 156 252 119 Q252 70 260.5 45 Q269 20 302 20 Z M662 846 Q662 821 653.5 801.5 Q645 782 630 768.5 Q615 755 595.5 748 Q576 741 554 741 Q522 741 502 761 Q482 781 482 810 Q482 831 491.5 850 Q501 869 516 883.5 Q531 898 550.5 906.5 Q570 915 591 915 Q624 915 643 895 Q662 875 662 846 Z M441 844 Q441 821 432 802 Q423 783 407.5 769.5 Q392 756 372.5 748.5 Q353 741 332 741 Q298 741 280 760 Q262 779 262 808 Q262 829 270.5 848.5 Q279 868 293.5 883 Q308 898 327.5 906.5 Q347 915 369 915 Q400 915 420.5 894.5 Q441 874 441 844 Z " />
<glyph glyph-name="multiply" unicode="&#xd7;" horiz-adv-x="649" d="M460 56 L300 248 L69 63 L39 99 L272 282 L120 465 L168 503 L321 321 L551 506 L580 471 L349 287 L508 95 L460 56 Z " />
<glyph glyph-name="Oslash" unicode="&#xd8;" horiz-adv-x="689" d="M444 712 Q495 712 535.5 698 Q576 684 606 660 L678 747 L713 747 L626 642 Q658 609 674.5 564 Q691 519 691 467 Q691 369 667 282.5 Q643 196 594 131.5 Q545 67 470.5 29.5 Q396 -8 296 -8 Q191 -8 130 38 L52 -57 L17 -57 L109 55 Q44 120 44 233 Q44 325 67 411.5 Q90 498 139 564.5 Q188 631 263.5 671.5 Q339 712 444 712 Z M302 20 Q325 20 345 40 Q365 60 383 94 Q401 128 416 172.5 Q431 217 443 266.5 Q455 316 463.5 366 Q472 416 478 462 L256 191 Q254 171 253 152.5 Q252 134 252 119 Q253 70 261 45 Q269 20 302 20 Z M438 685 Q416 685 396 664.5 Q376 644 358 610 Q340 576 325 531 Q310 486 297.5 436.5 Q285 387 275.5 336.5 Q266 286 260 240 L483 509 Q486 549 486 579 Q486 604 484 623.5 Q482 643 477 656.5 Q472 670 463 677.5 Q454 685 438 685 Z " />
<glyph glyph-name="Ugrave" unicode="&#xd9;" horiz-adv-x="671" d="M481 698 L476 672 L394 672 L298 222 Q288 176 288 133 Q288 84 314 61.5 Q340 39 376 39 Q406 39 432 48.5 Q458 58 480 80.5 Q502 103 519 139.5 Q536 176 548 230 L642 672 L560 672 L566 698 L761 698 L756 672 L675 672 L584 244 Q572 188 552 142 Q532 96 497.5 62.5 Q463 29 410.5 10.5 Q358 -8 281 -8 Q187 -8 135 36 Q83 80 83 165 Q83 208 92 253 L181 672 L100 672 L105 698 L481 698 Z M589 736 L536 736 L370 805 Q345 816 335.5 831 Q326 846 326 865 Q326 889 345 905.5 Q364 922 392 922 Q424 922 443 906 Q462 890 479 870 L589 736 Z " />
<glyph glyph-name="Uacute" unicode="&#xda;" horiz-adv-x="671" d="M481 698 L476 672 L394 672 L298 222 Q288 176 288 133 Q288 84 314 61.5 Q340 39 376 39 Q406 39 432 48.5 Q458 58 480 80.5 Q502 103 519 139.5 Q536 176 548 230 L642 672 L560 672 L566 698 L761 698 L756 672 L675 672 L584 244 Q572 188 552 142 Q532 96 497.5 62.5 Q463 29 410.5 10.5 Q358 -8 281 -8 Q187 -8 135 36 Q83 80 83 165 Q83 208 92 253 L181 672 L100 672 L105 698 L481 698 Z M528 870 Q553 895 572 908.5 Q591 922 620 922 Q647 922 660 910.5 Q673 899 673 881 Q673 826 601 797 L458 739 L390 739 L528 870 Z " />
<glyph glyph-name="Ucircumflex" unicode="&#xdb;" horiz-adv-x="671" d="M481 698 L476 672 L394 672 L298 222 Q288 176 288 133 Q288 84 314 61.5 Q340 39 376 39 Q406 39 432 48.5 Q458 58 480 80.5 Q502 103 519 139.5 Q536 176 548 230 L642 672 L560 672 L566 698 L761 698 L756 672 L675 672 L584 244 Q572 188 552 142 Q532 96 497.5 62.5 Q463 29 410.5 10.5 Q358 -8 281 -8 Q187 -8 135 36 Q83 80 83 165 Q83 208 92 253 L181 672 L100 672 L105 698 L481 698 Z M553 910 L628 744 L599 729 L479 804 L329 729 L307 743 L457 910 L553 910 Z " />
<glyph glyph-name="Udieresis" unicode="&#xdc;" horiz-adv-x="671" d="M481 698 L476 672 L394 672 L298 222 Q288 176 288 133 Q288 84 314 61.5 Q340 39 376 39 Q406 39 432 48.5 Q458 58 480 80.5 Q502 103 519 139.5 Q536 176 548 230 L642 672 L560 672 L566 698 L761 698 L756 672 L675 672 L584 244 Q572 188 552 142 Q532 96 497.5 62.5 Q463 29 410.5 10.5 Q358 -8 281 -8 Q187 -8 135 36 Q83 80 83 165 Q83 208 92 253 L181 672 L100 672 L105 698 L481 698 Z M697 845 Q697 820 688.5 800.5 Q680 781 665 767.5 Q650 754 630.5 747 Q611 740 589 740 Q557 740 537 760 Q517 780 517 809 Q517 830 526.5 849 Q536 868 551 882.5 Q566 897 585.5 905.5 Q605 914 626 914 Q659 914 678 894 Q697 874 697 845 Z M476 843 Q476 820 467 801 Q458 782 442.5 768.5 Q427 755 407.5 747.5 Q388 740 367 740 Q333 740 315 759 Q297 778 297 807 Q297 828 305.5 847.5 Q314 867 328.5 882 Q343 897 362.5 905.5 Q382 914 404 914 Q435 914 455.5 893.5 Q476 873 476 843 Z " />
<glyph glyph-name="Yacute" unicode="&#xdd;" horiz-adv-x="668" d="M489 26 L484 0 L108 0 L113 26 L194 26 L251 295 L144 672 L68 672 L72 698 L482 698 L478 672 L390 672 L466 362 L661 672 L578 672 L583 698 L777 698 L773 672 L697 672 L467 307 L407 26 L489 26 Z M529 870 Q554 895 573 908.5 Q592 922 621 922 Q648 922 661 910.5 Q674 899 674 881 Q674 826 602 797 L459 739 L391 739 L529 870 Z " />
<glyph glyph-name="Thorn" unicode="&#xde;" horiz-adv-x="674" d="M371 545 L406 545 Q538 545 603.5 504.5 Q669 464 669 386 Q669 332 647 288 Q625 244 582.5 213.5 Q540 183 477.5 166 Q415 149 334 149 L287 149 L260 26 L333 26 L328 0 L-29 0 L-24 26 L47 26 L185 672 L113 672 L117 698 L476 698 L471 672 L399 672 L371 545 Z M313 175 Q356 175 389 193.5 Q422 212 443.5 244 Q465 276 476 318.5 Q487 361 487 408 Q487 467 458 493 Q429 519 386 519 L366 519 L292 175 L313 175 Z " />
<glyph glyph-name="germandbls" unicode="&#xdf;" horiz-adv-x="621" d="M117 427 L46 427 L52 453 L63 453 Q90 453 110.5 468.5 Q131 484 139 513 L144 531 Q156 574 177.5 610.5 Q199 647 232.5 672.5 Q266 698 312 712.5 Q358 727 420 727 Q471 727 506 714 Q541 701 562.5 680 Q584 659 593.5 631.5 Q603 604 603 576 Q603 497 557 449.5 Q511 402 426 395 Q501 387 540.5 341.5 Q580 296 580 228 Q580 175 565 131.5 Q550 88 521.5 57 Q493 26 452 9 Q411 -8 359 -8 Q334 -8 316.5 -5.5 Q299 -3 286.5 0.5 Q274 4 265 8.5 Q256 13 249 17 L264 39 Q280 28 297 28 Q313 28 329.5 46.5 Q346 65 359.5 97 Q373 129 381 173.5 Q389 218 389 270 Q389 319 380.5 349.5 Q372 380 337 380 L341 396 Q367 396 385 417.5 Q403 439 414.5 473.5 Q426 508 431 551 Q436 594 436 638 Q436 698 411 698 Q400 698 391.5 690.5 Q383 683 375 665.5 Q367 648 359 619 Q351 590 342 547 L247 105 Q228 19 187.5 -44.5 Q147 -108 94 -150 Q41 -192 -18.5 -214.5 Q-78 -237 -135 -242 L-137 -220 Q-110 -216 -86.5 -206.5 Q-63 -197 -43.5 -177.5 Q-24 -158 -9 -126.5 Q6 -95 16 -47 L117 427 Z " />
<glyph glyph-name="agrave" unicode="&#xe0;" horiz-adv-x="582" d="M320 447 Q296 447 275.5 415.5 Q255 384 239 337 Q223 290 214 234 Q205 178 205 130 Q205 92 209.5 74.5 Q214 57 231 57 Q245 57 258 73 Q271 89 283 115.5 Q295 142 305.5 177 Q316 212 323.5 249.5 Q331 287 335.5 324.5 Q340 362 340 395 Q340 415 336.5 431 Q333 447 320 447 Z M18 153 Q18 223 37.5 282.5 Q57 342 92 385.5 Q127 429 174.5 453.5 Q222 478 279 478 Q320 478 345 464 Q370 450 390 426 L426 467 L563 467 L488 123 Q484 106 481 92.5 Q478 79 478 68 Q478 63 480.5 57.5 Q483 52 492 52 Q504 52 519.5 70.5 Q535 89 548 108 L564 93 Q533 46 495.5 19 Q458 -8 408 -8 Q356 -8 334 23 Q312 54 312 117 Q303 91 287 68 Q271 45 250 28 Q229 11 203 1.5 Q177 -8 149 -8 Q125 -8 102 2 Q79 12 60 32.5 Q41 53 29.5 83 Q18 113 18 153 Z M506 520 L453 520 L287 589 Q262 600 252.5 615 Q243 630 243 649 Q243 673 262 689.5 Q281 706 309 706 Q341 706 360 690 Q379 674 396 654 L506 520 Z " />
<glyph glyph-name="aacute" unicode="&#xe1;" horiz-adv-x="582" d="M320 447 Q296 447 275.5 415.5 Q255 384 239 337 Q223 290 214 234 Q205 178 205 130 Q205 92 209.5 74.5 Q214 57 231 57 Q245 57 258 73 Q271 89 283 115.5 Q295 142 305.5 177 Q316 212 323.5 249.5 Q331 287 335.5 324.5 Q340 362 340 395 Q340 415 336.5 431 Q333 447 320 447 Z M18 153 Q18 223 37.5 282.5 Q57 342 92 385.5 Q127 429 174.5 453.5 Q222 478 279 478 Q320 478 345 464 Q370 450 390 426 L426 467 L563 467 L488 123 Q484 106 481 92.5 Q478 79 478 68 Q478 63 480.5 57.5 Q483 52 492 52 Q504 52 519.5 70.5 Q535 89 548 108 L564 93 Q533 46 495.5 19 Q458 -8 408 -8 Q356 -8 334 23 Q312 54 312 117 Q303 91 287 68 Q271 45 250 28 Q229 11 203 1.5 Q177 -8 149 -8 Q125 -8 102 2 Q79 12 60 32.5 Q41 53 29.5 83 Q18 113 18 153 Z M393 654 Q418 679 437 692.5 Q456 706 485 706 Q512 706 525 694.5 Q538 683 538 665 Q538 610 466 581 L323 523 L255 523 L393 654 Z " />
<glyph glyph-name="acircumflex" unicode="&#xe2;" horiz-adv-x="582" d="M320 447 Q296 447 275.5 415.5 Q255 384 239 337 Q223 290 214 234 Q205 178 205 130 Q205 92 209.5 74.5 Q214 57 231 57 Q245 57 258 73 Q271 89 283 115.5 Q295 142 305.5 177 Q316 212 323.5 249.5 Q331 287 335.5 324.5 Q340 362 340 395 Q340 415 336.5 431 Q333 447 320 447 Z M18 153 Q18 223 37.5 282.5 Q57 342 92 385.5 Q127 429 174.5 453.5 Q222 478 279 478 Q320 478 345 464 Q370 450 390 426 L426 467 L563 467 L488 123 Q484 106 481 92.5 Q478 79 478 68 Q478 63 480.5 57.5 Q483 52 492 52 Q504 52 519.5 70.5 Q535 89 548 108 L564 93 Q533 46 495.5 19 Q458 -8 408 -8 Q356 -8 334 23 Q312 54 312 117 Q303 91 287 68 Q271 45 250 28 Q229 11 203 1.5 Q177 -8 149 -8 Q125 -8 102 2 Q79 12 60 32.5 Q41 53 29.5 83 Q18 113 18 153 Z M434 694 L509 528 L480 513 L360 588 L210 513 L188 527 L338 694 L434 694 Z " />
<glyph glyph-name="atilde" unicode="&#xe3;" horiz-adv-x="582" d="M320 447 Q296 447 275.5 415.5 Q255 384 239 337 Q223 290 214 234 Q205 178 205 130 Q205 92 209.5 74.5 Q214 57 231 57 Q245 57 258 73 Q271 89 283 115.5 Q295 142 305.5 177 Q316 212 323.5 249.5 Q331 287 335.5 324.5 Q340 362 340 395 Q340 415 336.5 431 Q333 447 320 447 Z M18 153 Q18 223 37.5 282.5 Q57 342 92 385.5 Q127 429 174.5 453.5 Q222 478 279 478 Q320 478 345 464 Q370 450 390 426 L426 467 L563 467 L488 123 Q484 106 481 92.5 Q478 79 478 68 Q478 63 480.5 57.5 Q483 52 492 52 Q504 52 519.5 70.5 Q535 89 548 108 L564 93 Q533 46 495.5 19 Q458 -8 408 -8 Q356 -8 334 23 Q312 54 312 117 Q303 91 287 68 Q271 45 250 28 Q229 11 203 1.5 Q177 -8 149 -8 Q125 -8 102 2 Q79 12 60 32.5 Q41 53 29.5 83 Q18 113 18 153 Z M568 701 Q560 669 549 640.5 Q538 612 521 591 Q504 570 481 557.5 Q458 545 427 545 Q407 545 386 551.5 Q365 558 344 566 Q323 574 302.5 580.5 Q282 587 265 587 Q251 587 231 579 Q211 571 197 543 L183 543 Q188 571 200 598 Q212 625 231 646 Q250 667 274 680 Q298 693 327 693 Q351 693 373 687 Q395 681 415 673.5 Q435 666 454.5 660 Q474 654 493 654 Q514 654 529 667 Q544 680 554 701 L568 701 Z " />
<glyph glyph-name="adieresis" unicode="&#xe4;" horiz-adv-x="582" d="M320 447 Q296 447 275.5 415.5 Q255 384 239 337 Q223 290 214 234 Q205 178 205 130 Q205 92 209.5 74.5 Q214 57 231 57 Q245 57 258 73 Q271 89 283 115.5 Q295 142 305.5 177 Q316 212 323.5 249.5 Q331 287 335.5 324.5 Q340 362 340 395 Q340 415 336.5 431 Q333 447 320 447 Z M18 153 Q18 223 37.5 282.5 Q57 342 92 385.5 Q127 429 174.5 453.5 Q222 478 279 478 Q320 478 345 464 Q370 450 390 426 L426 467 L563 467 L488 123 Q484 106 481 92.5 Q478 79 478 68 Q478 63 480.5 57.5 Q483 52 492 52 Q504 52 519.5 70.5 Q535 89 548 108 L564 93 Q533 46 495.5 19 Q458 -8 408 -8 Q356 -8 334 23 Q312 54 312 117 Q303 91 287 68 Q271 45 250 28 Q229 11 203 1.5 Q177 -8 149 -8 Q125 -8 102 2 Q79 12 60 32.5 Q41 53 29.5 83 Q18 113 18 153 Z M558 629 Q558 604 549.5 584.5 Q541 565 526 551.5 Q511 538 491.5 531 Q472 524 450 524 Q418 524 398 544 Q378 564 378 593 Q378 614 387.5 633 Q397 652 412 666.5 Q427 681 446.5 689.5 Q466 698 487 698 Q520 698 539 678 Q558 658 558 629 Z M337 627 Q337 604 328 585 Q319 566 303.5 552.5 Q288 539 268.5 531.5 Q249 524 228 524 Q194 524 176 543 Q158 562 158 591 Q158 612 166.5 631.5 Q175 651 189.5 666 Q204 681 223.5 689.5 Q243 698 265 698 Q296 698 316.5 677.5 Q337 657 337 627 Z " />
<glyph glyph-name="aring" unicode="&#xe5;" horiz-adv-x="582" d="M320 447 Q296 447 275.5 415.5 Q255 384 239 337 Q223 290 214 234 Q205 178 205 130 Q205 92 209.5 74.5 Q214 57 231 57 Q245 57 258 73 Q271 89 283 115.5 Q295 142 305.5 177 Q316 212 323.5 249.5 Q331 287 335.5 324.5 Q340 362 340 395 Q340 415 336.5 431 Q333 447 320 447 Z M18 153 Q18 223 37.5 282.5 Q57 342 92 385.5 Q127 429 174.5 453.5 Q222 478 279 478 Q320 478 345 464 Q370 450 390 426 L426 467 L563 467 L488 123 Q484 106 481 92.5 Q478 79 478 68 Q478 63 480.5 57.5 Q483 52 492 52 Q504 52 519.5 70.5 Q535 89 548 108 L564 93 Q533 46 495.5 19 Q458 -8 408 -8 Q356 -8 334 23 Q312 54 312 117 Q303 91 287 68 Q271 45 250 28 Q229 11 203 1.5 Q177 -8 149 -8 Q125 -8 102 2 Q79 12 60 32.5 Q41 53 29.5 83 Q18 113 18 153 Z M509 664 Q509 632 497 605 Q485 578 464 558.5 Q443 539 414.5 527.5 Q386 516 353 516 Q305 516 277 542.5 Q249 569 249 610 Q249 640 261.5 667 Q274 694 295 714.5 Q316 735 344.5 747 Q373 759 405 759 Q455 759 482 732 Q509 705 509 664 Z M360 536 Q375 536 386 552 Q397 568 403.5 591 Q410 614 413.5 639.5 Q417 665 417 684 Q417 693 417 703 Q417 713 415.5 721.5 Q414 730 411 735.5 Q408 741 403 741 Q391 741 380 724 Q369 707 361 683 Q353 659 348.5 633 Q344 607 344 589 Q344 581 344.5 572 Q345 563 346.5 555 Q348 547 351 541.5 Q354 536 360 536 Z " />
<glyph glyph-name="ae" unicode="&#xe6;" horiz-adv-x="700" d="M253 222 Q227 220 208 207 Q189 194 176.5 175 Q164 156 157.5 133.5 Q151 111 151 90 Q151 71 158.5 59.5 Q166 48 177 48 Q193 48 208 67 Q223 86 231 121 L253 222 Z M441 210 Q440 202 439.5 194 Q439 186 439 178 Q439 152 443 127.5 Q447 103 457 83 Q467 63 482.5 51 Q498 39 522 39 Q543 39 561 47.5 Q579 56 594 69.5 Q609 83 620.5 101 Q632 119 641 138 L663 128 Q645 88 620 61.5 Q595 35 565.5 19.5 Q536 4 502.5 -2 Q469 -8 432 -8 Q366 -8 324.5 16.5 Q283 41 260 86 Q246 62 226.5 44.5 Q207 27 184 15 Q161 3 136 -2.5 Q111 -8 87 -8 Q39 -8 12.5 13.5 Q-14 35 -14 77 Q-14 126 11 157.5 Q36 189 75 208 Q114 227 162 234.5 Q210 242 257 243 L279 345 Q285 372 285 392 Q285 453 235 453 Q217 453 199 446 Q181 439 168 428 L211 313 Q197 299 176 290 Q155 281 127 281 Q102 281 81 296 Q60 311 60 340 Q60 374 80.5 400 Q101 426 131.5 443 Q162 460 198 469 Q234 478 264 478 Q317 478 349.5 461 Q382 444 398 425 Q427 447 465 462.5 Q503 478 556 478 Q635 478 670.5 444.5 Q706 411 706 362 Q706 322 688 292.5 Q670 263 640 243.5 Q610 224 570.5 214.5 Q531 205 488 205 Q471 205 461 206.5 Q451 208 441 210 Z M542 452 Q527 452 512.5 434 Q498 416 485 386 Q472 356 462 317 Q452 278 446 236 Q454 231 466 231 Q488 231 505.5 248.5 Q523 266 535 292 Q547 318 553.5 348.5 Q560 379 560 405 Q560 425 556 438.5 Q552 452 542 452 Z " />
<glyph glyph-name="ccedilla" unicode="&#xe7;" horiz-adv-x="449" d="M174 -7 Q99 1 57 48 Q15 95 15 172 Q15 235 35 291 Q55 347 91.5 388.5 Q128 430 180.5 454 Q233 478 298 478 Q322 478 348 473 Q374 468 396 456 Q418 444 432 423.5 Q446 403 446 372 Q446 335 420 307 Q394 279 352 279 Q326 279 309 288.5 Q292 298 284 311 L384 434 Q379 439 371.5 443 Q364 447 354 447 Q318 447 290.5 416 Q263 385 244.5 340 Q226 295 216.5 245 Q207 195 207 157 Q207 91 227.5 62.5 Q248 34 274 34 Q291 34 307.5 43.5 Q324 53 338.5 69 Q353 85 365 106.5 Q377 128 385 151 L405 142 Q391 110 373.5 82.5 Q356 55 331.5 35 Q307 15 274.5 3.5 Q242 -8 198 -8 L167 -67 Q174 -65 183 -64 Q192 -63 204 -63 Q251 -63 277 -83.5 Q303 -104 303 -136 Q303 -166 289.5 -186.5 Q276 -207 256 -219.5 Q236 -232 211 -237 Q186 -242 164 -242 Q122 -242 100.5 -228 Q79 -214 79 -191 Q79 -177 88.5 -165 Q98 -153 116 -153 Q128 -153 137 -159.5 Q146 -166 151 -174 L109 -213 Q119 -225 139 -225 Q149 -225 160.5 -221.5 Q172 -218 181.5 -208.5 Q191 -199 197 -182 Q203 -165 203 -139 Q203 -111 189.5 -95.5 Q176 -80 159 -80 Q148 -80 140 -82 L136 -78 L174 -7 Z " />
<glyph glyph-name="egrave" unicode="&#xe8;" horiz-adv-x="469" d="M210 210 Q209 202 208.5 194 Q208 186 208 178 Q208 152 212 127.5 Q216 103 225.5 83 Q235 63 250.5 51 Q266 39 290 39 Q312 39 330 48 Q348 57 363 71 Q378 85 389.5 103.5 Q401 122 410 141 L431 131 Q413 90 388.5 63.5 Q364 37 334.5 21 Q305 5 271.5 -1.5 Q238 -8 201 -8 Q114 -8 64 37.5 Q14 83 14 169 Q14 232 35.5 288.5 Q57 345 96 387 Q135 429 189.5 453.5 Q244 478 311 478 Q356 478 387 468.5 Q418 459 437.5 443 Q457 427 466 405.5 Q475 384 475 360 Q475 320 457 290.5 Q439 261 409 242 Q379 223 339.5 214 Q300 205 257 205 Q240 205 230 206.5 Q220 208 210 210 Z M311 452 Q296 452 281.5 434 Q267 416 254 386 Q241 356 230.5 317 Q220 278 214 236 Q224 231 235 231 Q257 231 274.5 248 Q292 265 304 291 Q316 317 322.5 347 Q329 377 329 403 Q329 423 324.5 437.5 Q320 452 311 452 Z M474 520 L421 520 L255 589 Q230 600 220.5 615 Q211 630 211 649 Q211 673 230 689.5 Q249 706 277 706 Q309 706 328 690 Q347 674 364 654 L474 520 Z " />
<glyph glyph-name="eacute" unicode="&#xe9;" horiz-adv-x="469" d="M210 210 Q209 202 208.5 194 Q208 186 208 178 Q208 152 212 127.5 Q216 103 225.5 83 Q235 63 250.5 51 Q266 39 290 39 Q312 39 330 48 Q348 57 363 71 Q378 85 389.5 103.5 Q401 122 410 141 L431 131 Q413 90 388.5 63.5 Q364 37 334.5 21 Q305 5 271.5 -1.5 Q238 -8 201 -8 Q114 -8 64 37.5 Q14 83 14 169 Q14 232 35.5 288.5 Q57 345 96 387 Q135 429 189.5 453.5 Q244 478 311 478 Q356 478 387 468.5 Q418 459 437.5 443 Q457 427 466 405.5 Q475 384 475 360 Q475 320 457 290.5 Q439 261 409 242 Q379 223 339.5 214 Q300 205 257 205 Q240 205 230 206.5 Q220 208 210 210 Z M311 452 Q296 452 281.5 434 Q267 416 254 386 Q241 356 230.5 317 Q220 278 214 236 Q224 231 235 231 Q257 231 274.5 248 Q292 265 304 291 Q316 317 322.5 347 Q329 377 329 403 Q329 423 324.5 437.5 Q320 452 311 452 Z M367 654 Q392 679 411 692.5 Q430 706 459 706 Q486 706 499 694.5 Q512 683 512 665 Q512 610 440 581 L297 523 L229 523 L367 654 Z " />
<glyph glyph-name="ecircumflex" unicode="&#xea;" horiz-adv-x="469" d="M210 210 Q209 202 208.5 194 Q208 186 208 178 Q208 152 212 127.5 Q216 103 225.5 83 Q235 63 250.5 51 Q266 39 290 39 Q312 39 330 48 Q348 57 363 71 Q378 85 389.5 103.5 Q401 122 410 141 L431 131 Q413 90 388.5 63.5 Q364 37 334.5 21 Q305 5 271.5 -1.5 Q238 -8 201 -8 Q114 -8 64 37.5 Q14 83 14 169 Q14 232 35.5 288.5 Q57 345 96 387 Q135 429 189.5 453.5 Q244 478 311 478 Q356 478 387 468.5 Q418 459 437.5 443 Q457 427 466 405.5 Q475 384 475 360 Q475 320 457 290.5 Q439 261 409 242 Q379 223 339.5 214 Q300 205 257 205 Q240 205 230 206.5 Q220 208 210 210 Z M311 452 Q296 452 281.5 434 Q267 416 254 386 Q241 356 230.5 317 Q220 278 214 236 Q224 231 235 231 Q257 231 274.5 248 Q292 265 304 291 Q316 317 322.5 347 Q329 377 329 403 Q329 423 324.5 437.5 Q320 452 311 452 Z M401 694 L476 528 L447 513 L327 588 L177 513 L155 527 L305 694 L401 694 Z " />
<glyph glyph-name="edieresis" unicode="&#xeb;" horiz-adv-x="469" d="M210 210 Q209 202 208.5 194 Q208 186 208 178 Q208 152 212 127.5 Q216 103 225.5 83 Q235 63 250.5 51 Q266 39 290 39 Q312 39 330 48 Q348 57 363 71 Q378 85 389.5 103.5 Q401 122 410 141 L431 131 Q413 90 388.5 63.5 Q364 37 334.5 21 Q305 5 271.5 -1.5 Q238 -8 201 -8 Q114 -8 64 37.5 Q14 83 14 169 Q14 232 35.5 288.5 Q57 345 96 387 Q135 429 189.5 453.5 Q244 478 311 478 Q356 478 387 468.5 Q418 459 437.5 443 Q457 427 466 405.5 Q475 384 475 360 Q475 320 457 290.5 Q439 261 409 242 Q379 223 339.5 214 Q300 205 257 205 Q240 205 230 206.5 Q220 208 210 210 Z M311 452 Q296 452 281.5 434 Q267 416 254 386 Q241 356 230.5 317 Q220 278 214 236 Q224 231 235 231 Q257 231 274.5 248 Q292 265 304 291 Q316 317 322.5 347 Q329 377 329 403 Q329 423 324.5 437.5 Q320 452 311 452 Z M517 629 Q517 604 508.5 584.5 Q500 565 485 551.5 Q470 538 450.5 531 Q431 524 409 524 Q377 524 357 544 Q337 564 337 593 Q337 614 346.5 633 Q356 652 371 666.5 Q386 681 405.5 689.5 Q425 698 446 698 Q479 698 498 678 Q517 658 517 629 Z M296 627 Q296 604 287 585 Q278 566 262.5 552.5 Q247 539 227.5 531.5 Q208 524 187 524 Q153 524 135 543 Q117 562 117 591 Q117 612 125.5 631.5 Q134 651 148.5 666 Q163 681 182.5 689.5 Q202 698 224 698 Q255 698 275.5 677.5 Q296 657 296 627 Z " />
<glyph glyph-name="igrave" unicode="&#xec;" horiz-adv-x="327" d="M252 206 Q238 146 231 113.5 Q224 81 224 67 Q224 51 239 51 Q251 51 266.5 69.5 Q282 88 295 107 L311 92 Q284 52 245.5 22 Q207 -8 149 -8 Q88 -8 61 19 Q34 46 34 86 Q34 117 41 155.5 Q48 194 58 239 L100 430 Q87 434 71 435.5 Q55 437 39 437 L43 461 L311 478 L252 206 Z M391 520 L338 520 L172 589 Q147 600 137.5 615 Q128 630 128 649 Q128 673 147 689.5 Q166 706 194 706 Q226 706 245 690 Q264 674 281 654 L391 520 Z " />
<glyph glyph-name="iacute" unicode="&#xed;" horiz-adv-x="327" d="M252 206 Q238 146 231 113.5 Q224 81 224 67 Q224 51 239 51 Q251 51 266.5 69.5 Q282 88 295 107 L311 92 Q284 52 245.5 22 Q207 -8 149 -8 Q88 -8 61 19 Q34 46 34 86 Q34 117 41 155.5 Q48 194 58 239 L100 430 Q87 434 71 435.5 Q55 437 39 437 L43 461 L311 478 L252 206 Z M268 654 Q293 679 312 692.5 Q331 706 360 706 Q387 706 400 694.5 Q413 683 413 665 Q413 610 341 581 L198 523 L130 523 L268 654 Z " />
<glyph glyph-name="icircumflex" unicode="&#xee;" horiz-adv-x="327" d="M252 206 Q238 146 231 113.5 Q224 81 224 67 Q224 51 239 51 Q251 51 266.5 69.5 Q282 88 295 107 L311 92 Q284 52 245.5 22 Q207 -8 149 -8 Q88 -8 61 19 Q34 46 34 86 Q34 117 41 155.5 Q48 194 58 239 L100 430 Q87 434 71 435.5 Q55 437 39 437 L43 461 L311 478 L252 206 Z M311 694 L386 528 L357 513 L237 588 L87 513 L65 527 L215 694 L311 694 Z " />
<glyph glyph-name="idieresis" unicode="&#xef;" horiz-adv-x="327" d="M252 206 Q238 146 231 113.5 Q224 81 224 67 Q224 51 239 51 Q251 51 266.5 69.5 Q282 88 295 107 L311 92 Q284 52 245.5 22 Q207 -8 149 -8 Q88 -8 61 19 Q34 46 34 86 Q34 117 41 155.5 Q48 194 58 239 L100 430 Q87 434 71 435.5 Q55 437 39 437 L43 461 L311 478 L252 206 Z M439 629 Q439 604 430.5 584.5 Q422 565 407 551.5 Q392 538 372.5 531 Q353 524 331 524 Q299 524 279 544 Q259 564 259 593 Q259 614 268.5 633 Q278 652 293 666.5 Q308 681 327.5 689.5 Q347 698 368 698 Q401 698 420 678 Q439 658 439 629 Z M218 627 Q218 604 209 585 Q200 566 184.5 552.5 Q169 539 149.5 531.5 Q130 524 109 524 Q75 524 57 543 Q39 562 39 591 Q39 612 47.5 631.5 Q56 651 70.5 666 Q85 681 104.5 689.5 Q124 698 146 698 Q177 698 197.5 677.5 Q218 657 218 627 Z " />
<glyph glyph-name="eth" unicode="&#xf0;" horiz-adv-x="564" d="M181 554 L321 622 Q302 651 269.5 673.5 Q237 696 198 709 L211 729 Q259 721 301.5 702.5 Q344 684 391 656 L521 719 L532 697 L415 639 Q474 589 508.5 523 Q543 457 543 359 Q543 288 522.5 221.5 Q502 155 461.5 104 Q421 53 361.5 22.5 Q302 -8 224 -8 Q174 -8 135.5 6.5 Q97 21 70.5 46 Q44 71 30.5 104 Q17 137 17 175 Q17 246 41 300.5 Q65 355 105 392 Q145 429 197.5 448 Q250 467 308 467 Q325 467 338.5 464.5 Q352 462 363 459 Q363 491 359 529 Q355 567 335 602 L193 531 L181 554 Z M230 19 Q246 19 261.5 38.5 Q277 58 290.5 89.5 Q304 121 315 160.5 Q326 200 334 239.5 Q342 279 346.5 314.5 Q351 350 351 374 Q351 438 319 438 Q304 438 289 418 Q274 398 260 365.5 Q246 333 234 293 Q222 253 213.5 212.5 Q205 172 200 135.5 Q195 99 195 75 Q195 19 230 19 Z " />
<glyph glyph-name="ntilde" unicode="&#xf1;" horiz-adv-x="630" d="M612 92 Q585 52 546.5 22 Q508 -8 450 -8 Q393 -8 363 19 Q333 46 333 86 Q333 101 334.5 115 Q336 129 339 146.5 Q342 164 347 186 Q352 208 359 239 Q371 295 378 328 Q385 361 385 382 Q385 414 367 414 Q353 414 337.5 397.5 Q322 381 306 352.5 Q290 324 276 285.5 Q262 247 253 202 L210 0 L8 0 L101 431 Q88 436 72 437.5 Q56 439 39 439 L44 462 L312 480 L280 352 Q309 407 355.5 442.5 Q402 478 468 478 Q529 478 557.5 448.5 Q586 419 586 374 Q586 359 584.5 345.5 Q583 332 579.5 316 Q576 300 570.5 278.5 Q565 257 558 226 Q549 185 542.5 158.5 Q536 132 532 114.5 Q528 97 526.5 86.5 Q525 76 525 67 Q525 51 540 51 Q552 51 567.5 69.5 Q583 88 596 107 L612 92 Z M598 701 Q590 669 579 640.5 Q568 612 551 591 Q534 570 511 557.5 Q488 545 457 545 Q437 545 416 551.5 Q395 558 374 566 Q353 574 332.5 580.5 Q312 587 295 587 Q281 587 261 579 Q241 571 227 543 L213 543 Q218 571 230 598 Q242 625 261 646 Q280 667 304 680 Q328 693 357 693 Q381 693 403 687 Q425 681 445 673.5 Q465 666 484.5 660 Q504 654 523 654 Q544 654 559 667 Q574 680 584 701 L598 701 Z " />
<glyph glyph-name="ograve" unicode="&#xf2;" horiz-adv-x="573" d="M333 478 Q391 478 431 462.5 Q471 447 496.5 420 Q522 393 533.5 357.5 Q545 322 545 282 Q545 229 526.5 177.5 Q508 126 469.5 84.5 Q431 43 373 17.5 Q315 -8 237 -8 Q179 -8 138 7 Q97 22 71.5 48 Q46 74 34.5 109 Q23 144 23 185 Q23 237 40 289.5 Q57 342 94 384 Q131 426 190 452 Q249 478 333 478 Z M240 19 Q256 19 271.5 39.5 Q287 60 300 92.5 Q313 125 324 165.5 Q335 206 343 246.5 Q351 287 355 323.5 Q359 360 359 384 Q359 452 327 452 Q311 452 296 431 Q281 410 267.5 376.5 Q254 343 242.5 301.5 Q231 260 223 218.5 Q215 177 210.5 140 Q206 103 206 80 Q206 49 213.5 34 Q221 19 240 19 Z M506 520 L453 520 L287 589 Q262 600 252.5 615 Q243 630 243 649 Q243 673 262 689.5 Q281 706 309 706 Q341 706 360 690 Q379 674 396 654 L506 520 Z " />
<glyph glyph-name="oacute" unicode="&#xf3;" horiz-adv-x="573" d="M398 654 Q423 679 442 692.5 Q461 706 490 706 Q517 706 530 694.5 Q543 683 543 665 Q543 610 471 581 L328 523 L260 523 L398 654 Z M333 478 Q391 478 431 462.5 Q471 447 496.5 420 Q522 393 533.5 357.5 Q545 322 545 282 Q545 229 526.5 177.5 Q508 126 469.5 84.5 Q431 43 373 17.5 Q315 -8 237 -8 Q179 -8 138 7 Q97 22 71.5 48 Q46 74 34.5 109 Q23 144 23 185 Q23 237 40 289.5 Q57 342 94 384 Q131 426 190 452 Q249 478 333 478 Z M240 19 Q256 19 271.5 39.5 Q287 60 300 92.5 Q313 125 324 165.5 Q335 206 343 246.5 Q351 287 355 323.5 Q359 360 359 384 Q359 452 327 452 Q311 452 296 431 Q281 410 267.5 376.5 Q254 343 242.5 301.5 Q231 260 223 218.5 Q215 177 210.5 140 Q206 103 206 80 Q206 49 213.5 34 Q221 19 240 19 Z " />
<glyph glyph-name="ocircumflex" unicode="&#xf4;" horiz-adv-x="573" d="M333 478 Q391 478 431 462.5 Q471 447 496.5 420 Q522 393 533.5 357.5 Q545 322 545 282 Q545 229 526.5 177.5 Q508 126 469.5 84.5 Q431 43 373 17.5 Q315 -8 237 -8 Q179 -8 138 7 Q97 22 71.5 48 Q46 74 34.5 109 Q23 144 23 185 Q23 237 40 289.5 Q57 342 94 384 Q131 426 190 452 Q249 478 333 478 Z M240 19 Q256 19 271.5 39.5 Q287 60 300 92.5 Q313 125 324 165.5 Q335 206 343 246.5 Q351 287 355 323.5 Q359 360 359 384 Q359 452 327 452 Q311 452 296 431 Q281 410 267.5 376.5 Q254 343 242.5 301.5 Q231 260 223 218.5 Q215 177 210.5 140 Q206 103 206 80 Q206 49 213.5 34 Q221 19 240 19 Z M428 694 L503 528 L474 513 L354 588 L204 513 L182 527 L332 694 L428 694 Z " />
<glyph glyph-name="otilde" unicode="&#xf5;" horiz-adv-x="573" d="M333 478 Q391 478 431 462.5 Q471 447 496.5 420 Q522 393 533.5 357.5 Q545 322 545 282 Q545 229 526.5 177.5 Q508 126 469.5 84.5 Q431 43 373 17.5 Q315 -8 237 -8 Q179 -8 138 7 Q97 22 71.5 48 Q46 74 34.5 109 Q23 144 23 185 Q23 237 40 289.5 Q57 342 94 384 Q131 426 190 452 Q249 478 333 478 Z M240 19 Q256 19 271.5 39.5 Q287 60 300 92.5 Q313 125 324 165.5 Q335 206 343 246.5 Q351 287 355 323.5 Q359 360 359 384 Q359 452 327 452 Q311 452 296 431 Q281 410 267.5 376.5 Q254 343 242.5 301.5 Q231 260 223 218.5 Q215 177 210.5 140 Q206 103 206 80 Q206 49 213.5 34 Q221 19 240 19 Z M555 701 Q547 669 536 640.5 Q525 612 508 591 Q491 570 468 557.5 Q445 545 414 545 Q394 545 373 551.5 Q352 558 331 566 Q310 574 289.5 580.5 Q269 587 252 587 Q238 587 218 579 Q198 571 184 543 L170 543 Q175 571 187 598 Q199 625 218 646 Q237 667 261 680 Q285 693 314 693 Q338 693 360 687 Q382 681 402 673.5 Q422 666 441.5 660 Q461 654 480 654 Q501 654 516 667 Q531 680 541 701 L555 701 Z " />
<glyph glyph-name="odieresis" unicode="&#xf6;" horiz-adv-x="573" d="M333 478 Q391 478 431 462.5 Q471 447 496.5 420 Q522 393 533.5 357.5 Q545 322 545 282 Q545 229 526.5 177.5 Q508 126 469.5 84.5 Q431 43 373 17.5 Q315 -8 237 -8 Q179 -8 138 7 Q97 22 71.5 48 Q46 74 34.5 109 Q23 144 23 185 Q23 237 40 289.5 Q57 342 94 384 Q131 426 190 452 Q249 478 333 478 Z M240 19 Q256 19 271.5 39.5 Q287 60 300 92.5 Q313 125 324 165.5 Q335 206 343 246.5 Q351 287 355 323.5 Q359 360 359 384 Q359 452 327 452 Q311 452 296 431 Q281 410 267.5 376.5 Q254 343 242.5 301.5 Q231 260 223 218.5 Q215 177 210.5 140 Q206 103 206 80 Q206 49 213.5 34 Q221 19 240 19 Z M563 629 Q563 604 554.5 584.5 Q546 565 531 551.5 Q516 538 496.5 531 Q477 524 455 524 Q423 524 403 544 Q383 564 383 593 Q383 614 392.5 633 Q402 652 417 666.5 Q432 681 451.5 689.5 Q471 698 492 698 Q525 698 544 678 Q563 658 563 629 Z M342 627 Q342 604 333 585 Q324 566 308.5 552.5 Q293 539 273.5 531.5 Q254 524 233 524 Q199 524 181 543 Q163 562 163 591 Q163 612 171.5 631.5 Q180 651 194.5 666 Q209 681 228.5 689.5 Q248 698 270 698 Q301 698 321.5 677.5 Q342 657 342 627 Z " />
<glyph glyph-name="divide" unicode="&#xf7;" horiz-adv-x="649" d="M47 259 L57 307 L576 307 L566 259 L47 259 Z M358 508 Q379 508 392 496 Q405 484 405 465 Q405 451 399 439 Q393 427 383 418 Q373 409 361 404 Q349 399 336 399 Q315 399 302.5 411 Q290 423 290 443 Q290 469 311 488.5 Q332 508 358 508 Z M288 165 Q308 165 321 153 Q334 141 334 122 Q334 95 312.5 76 Q291 57 265 57 Q245 57 232 68.5 Q219 80 219 100 Q219 113 225 124.5 Q231 136 240.5 145 Q250 154 262.5 159.5 Q275 165 288 165 Z " />
<glyph glyph-name="oslash" unicode="&#xf8;" horiz-adv-x="573" d="M333 478 Q361 478 389.5 475.5 Q418 473 440 462 L487 524 L515 524 L461 452 Q506 425 525.5 380 Q545 335 545 284 Q545 231 526.5 179 Q508 127 469.5 85.5 Q431 44 373 18 Q315 -8 237 -8 Q202 -8 173.5 -4 Q145 0 122 10 L61 -69 L34 -69 L102 22 Q60 48 41.5 91 Q23 134 23 185 Q23 237 40 289.5 Q57 342 94 384 Q131 426 190 452 Q249 478 333 478 Z M240 19 Q260 19 278 48 Q296 77 310.5 120.5 Q325 164 336 215.5 Q347 267 353 312 L209 123 Q206 97 206 80 Q206 49 213.5 34 Q221 19 240 19 Z M327 452 Q308 452 290.5 424.5 Q273 397 258 354.5 Q243 312 231.5 261.5 Q220 211 213 166 L357 354 Q358 364 358.5 371.5 Q359 379 359 386 Q359 452 327 452 Z " />
<glyph glyph-name="ugrave" unicode="&#xf9;" horiz-adv-x="627" d="M333 91 Q298 40 256 16 Q214 -8 151 -8 Q118 -8 95 1 Q72 10 58 25 Q44 40 37.5 59.5 Q31 79 31 101 Q31 126 36.5 155.5 Q42 185 48 211 L98 431 Q85 436 69 437.5 Q53 439 37 439 L41 462 L309 480 L229 132 Q227 118 225.5 107 Q224 96 224 87 Q224 67 230.5 59.5 Q237 52 249 52 Q277 52 299 82.5 Q321 113 330 156 L396 467 L603 467 L528 115 Q525 101 522.5 88.5 Q520 76 520 67 Q520 51 535 51 Q547 51 562.5 69 Q578 87 591 106 L607 91 Q581 51 544.5 21.5 Q508 -8 450 -8 Q393 -8 363 21.5 Q333 51 333 91 Z M549 520 L496 520 L330 589 Q305 600 295.5 615 Q286 630 286 649 Q286 673 305 689.5 Q324 706 352 706 Q384 706 403 690 Q422 674 439 654 L549 520 Z " />
<glyph glyph-name="uacute" unicode="&#xfa;" horiz-adv-x="627" d="M333 91 Q298 40 256 16 Q214 -8 151 -8 Q118 -8 95 1 Q72 10 58 25 Q44 40 37.5 59.5 Q31 79 31 101 Q31 126 36.5 155.5 Q42 185 48 211 L98 431 Q85 436 69 437.5 Q53 439 37 439 L41 462 L309 480 L229 132 Q227 118 225.5 107 Q224 96 224 87 Q224 67 230.5 59.5 Q237 52 249 52 Q277 52 299 82.5 Q321 113 330 156 L396 467 L603 467 L528 115 Q525 101 522.5 88.5 Q520 76 520 67 Q520 51 535 51 Q547 51 562.5 69 Q578 87 591 106 L607 91 Q581 51 544.5 21.5 Q508 -8 450 -8 Q393 -8 363 21.5 Q333 51 333 91 Z M443 654 Q468 679 487 692.5 Q506 706 535 706 Q562 706 575 694.5 Q588 683 588 665 Q588 610 516 581 L373 523 L305 523 L443 654 Z " />
<glyph glyph-name="ucircumflex" unicode="&#xfb;" horiz-adv-x="627" d="M333 91 Q298 40 256 16 Q214 -8 151 -8 Q118 -8 95 1 Q72 10 58 25 Q44 40 37.5 59.5 Q31 79 31 101 Q31 126 36.5 155.5 Q42 185 48 211 L98 431 Q85 436 69 437.5 Q53 439 37 439 L41 462 L309 480 L229 132 Q227 118 225.5 107 Q224 96 224 87 Q224 67 230.5 59.5 Q237 52 249 52 Q277 52 299 82.5 Q321 113 330 156 L396 467 L603 467 L528 115 Q525 101 522.5 88.5 Q520 76 520 67 Q520 51 535 51 Q547 51 562.5 69 Q578 87 591 106 L607 91 Q581 51 544.5 21.5 Q508 -8 450 -8 Q393 -8 363 21.5 Q333 51 333 91 Z M452 694 L527 528 L498 513 L378 588 L228 513 L206 527 L356 694 L452 694 Z " />
<glyph glyph-name="udieresis" unicode="&#xfc;" horiz-adv-x="627" d="M333 91 Q298 40 256 16 Q214 -8 151 -8 Q118 -8 95 1 Q72 10 58 25 Q44 40 37.5 59.5 Q31 79 31 101 Q31 126 36.5 155.5 Q42 185 48 211 L98 431 Q85 436 69 437.5 Q53 439 37 439 L41 462 L309 480 L229 132 Q227 118 225.5 107 Q224 96 224 87 Q224 67 230.5 59.5 Q237 52 249 52 Q277 52 299 82.5 Q321 113 330 156 L396 467 L603 467 L528 115 Q525 101 522.5 88.5 Q520 76 520 67 Q520 51 535 51 Q547 51 562.5 69 Q578 87 591 106 L607 91 Q581 51 544.5 21.5 Q508 -8 450 -8 Q393 -8 363 21.5 Q333 51 333 91 Z M581 629 Q581 604 572.5 584.5 Q564 565 549 551.5 Q534 538 514.5 531 Q495 524 473 524 Q441 524 421 544 Q401 564 401 593 Q401 614 410.5 633 Q420 652 435 666.5 Q450 681 469.5 689.5 Q489 698 510 698 Q543 698 562 678 Q581 658 581 629 Z M360 627 Q360 604 351 585 Q342 566 326.5 552.5 Q311 539 291.5 531.5 Q272 524 251 524 Q217 524 199 543 Q181 562 181 591 Q181 612 189.5 631.5 Q198 651 212.5 666 Q227 681 246.5 689.5 Q266 698 288 698 Q319 698 339.5 677.5 Q360 657 360 627 Z " />
<glyph glyph-name="yacute" unicode="&#xfd;" horiz-adv-x="456" d="M354 654 Q379 679 398 692.5 Q417 706 446 706 Q473 706 486 694.5 Q499 683 499 665 Q499 610 427 581 L284 523 L216 523 L354 654 Z M8 -180 Q18 -180 36.5 -171 Q55 -162 77 -145 Q99 -128 123 -103.5 Q147 -79 168 -48 Q142 83 108 207 Q74 331 37 435 Q21 437 11.5 437.5 Q2 438 -12 438 L-8 462 L234 479 Q244 445 255.5 404 Q267 363 277.5 320 Q288 277 298 233.5 Q308 190 316 151 Q331 172 349 203.5 Q367 235 383 267.5 Q399 300 410 330 Q421 360 421 379 Q421 392 413.5 396 Q406 400 390 400 L301 400 Q301 417 304.5 434 Q308 451 317.5 464.5 Q327 478 343 486.5 Q359 495 385 495 Q423 495 441 474.5 Q459 454 459 422 Q459 388 435 327.5 Q411 267 371 196 Q331 125 280 52 Q229 -21 174 -80.5 Q119 -140 65 -178 Q11 -216 -34 -216 Q-83 -216 -107 -191.5 Q-131 -167 -131 -127 Q-131 -103 -122.5 -86.5 Q-114 -70 -100.5 -59.5 Q-87 -49 -70.5 -44.5 Q-54 -40 -38 -40 Q-29 -81 -22.5 -108 Q-16 -135 -11 -151 Q-6 -167 -1.5 -173.5 Q3 -180 8 -180 Z " />
<glyph glyph-name="thorn" unicode="&#xfe;" horiz-adv-x="595" d="M569 304 Q569 246 551.5 190 Q534 134 501 90 Q468 46 419.5 19 Q371 -8 308 -8 Q269 -8 244 5 Q219 18 210 35 L165 -173 L217 -173 L211 -199 L-96 -199 L-90 -173 L-38 -173 L147 700 L94 700 L100 727 L355 727 L293 431 Q310 448 340.5 463 Q371 478 411 478 Q480 478 524.5 433 Q569 388 569 304 Z M244 38 Q263 38 284.5 66 Q306 94 324 140 Q342 186 353.5 244.5 Q365 303 365 364 Q365 401 356 416.5 Q347 432 334 432 Q313 432 298.5 409.5 Q284 387 277 357 L224 108 Q222 100 221 92 Q220 84 220 76 Q220 60 225.5 49 Q231 38 244 38 Z " />
<glyph glyph-name="ydieresis" unicode="&#xff;" horiz-adv-x="443" d="M8 -180 Q18 -180 36.5 -171 Q55 -162 77 -145 Q99 -128 123 -103.5 Q147 -79 168 -48 Q142 83 108 207 Q74 331 37 435 Q21 437 11.5 437.5 Q2 438 -12 438 L-8 462 L234 479 Q244 445 255.5 404 Q267 363 277.5 320 Q288 277 298 233.5 Q308 190 316 151 Q331 172 349 203.5 Q367 235 383 267.5 Q399 300 410 330 Q421 360 421 379 Q421 392 413.5 396 Q406 400 390 400 L301 400 Q301 417 304.5 434 Q308 451 317.5 464.5 Q327 478 343 486.5 Q359 495 385 495 Q423 495 441 474.5 Q459 454 459 422 Q459 388 435 327.5 Q411 267 371 196 Q331 125 280 52 Q229 -21 174 -80.5 Q119 -140 65 -178 Q11 -216 -34 -216 Q-83 -216 -107 -191.5 Q-131 -167 -131 -127 Q-131 -103 -122.5 -86.5 Q-114 -70 -100.5 -59.5 Q-87 -49 -70.5 -44.5 Q-54 -40 -38 -40 Q-29 -81 -22.5 -108 Q-16 -135 -11 -151 Q-6 -167 -1.5 -173.5 Q3 -180 8 -180 Z M498 629 Q498 604 489.5 584.5 Q481 565 466 551.5 Q451 538 431.5 531 Q412 524 390 524 Q358 524 338 544 Q318 564 318 593 Q318 614 327.5 633 Q337 652 352 666.5 Q367 681 386.5 689.5 Q406 698 427 698 Q460 698 479 678 Q498 658 498 629 Z M277 627 Q277 604 268 585 Q259 566 243.5 552.5 Q228 539 208.5 531.5 Q189 524 168 524 Q134 524 116 543 Q98 562 98 591 Q98 612 106.5 631.5 Q115 651 129.5 666 Q144 681 163.5 689.5 Q183 698 205 698 Q236 698 256.5 677.5 Q277 657 277 627 Z " />
<glyph glyph-name="Amacron" unicode="&#x100;" horiz-adv-x="595" d="M230 26 L316 26 L294 198 L109 198 L14 26 L94 26 L89 0 L-77 0 L-72 26 L-18 26 L355 698 L436 698 L524 26 L579 26 L574 0 L226 0 L230 26 Z M259 471 L124 225 L290 225 L259 471 Z M234 781 L256 881 L565 881 L543 781 L234 781 Z " />
<glyph glyph-name="amacron" unicode="&#x101;" horiz-adv-x="582" d="M320 447 Q296 447 275.5 415.5 Q255 384 239 337 Q223 290 214 234 Q205 178 205 130 Q205 92 209.5 74.5 Q214 57 231 57 Q245 57 258 73 Q271 89 283 115.5 Q295 142 305.5 177 Q316 212 323.5 249.5 Q331 287 335.5 324.5 Q340 362 340 395 Q340 415 336.5 431 Q333 447 320 447 Z M18 153 Q18 223 37.5 282.5 Q57 342 92 385.5 Q127 429 174.5 453.5 Q222 478 279 478 Q320 478 345 464 Q370 450 390 426 L426 467 L563 467 L488 123 Q484 106 481 92.5 Q478 79 478 68 Q478 63 480.5 57.5 Q483 52 492 52 Q504 52 519.5 70.5 Q535 89 548 108 L564 93 Q533 46 495.5 19 Q458 -8 408 -8 Q356 -8 334 23 Q312 54 312 117 Q303 91 287 68 Q271 45 250 28 Q229 11 203 1.5 Q177 -8 149 -8 Q125 -8 102 2 Q79 12 60 32.5 Q41 53 29.5 83 Q18 113 18 153 Z M200 555 L222 655 L531 655 L509 555 L200 555 Z " />
<glyph glyph-name="Abreve" unicode="&#x102;" horiz-adv-x="595" d="M230 26 L316 26 L294 198 L109 198 L14 26 L94 26 L89 0 L-77 0 L-72 26 L-18 26 L355 698 L436 698 L524 26 L579 26 L574 0 L226 0 L230 26 Z M259 471 L124 225 L290 225 L259 471 Z M590 929 Q574 848 529 800.5 Q484 753 404 753 Q344 753 316.5 784.5 Q289 816 289 868 Q289 884 292 898 Q295 912 302 929 L330 929 Q330 909 337.5 895 Q345 881 357 872.5 Q369 864 385 860.5 Q401 857 418 857 Q434 857 454.5 860 Q475 863 495 871 Q515 879 533 893 Q551 907 562 929 L590 929 Z " />
<glyph glyph-name="abreve" unicode="&#x103;" horiz-adv-x="582" d="M320 447 Q296 447 275.5 415.5 Q255 384 239 337 Q223 290 214 234 Q205 178 205 130 Q205 92 209.5 74.5 Q214 57 231 57 Q245 57 258 73 Q271 89 283 115.5 Q295 142 305.5 177 Q316 212 323.5 249.5 Q331 287 335.5 324.5 Q340 362 340 395 Q340 415 336.5 431 Q333 447 320 447 Z M18 153 Q18 223 37.5 282.5 Q57 342 92 385.5 Q127 429 174.5 453.5 Q222 478 279 478 Q320 478 345 464 Q370 450 390 426 L426 467 L563 467 L488 123 Q484 106 481 92.5 Q478 79 478 68 Q478 63 480.5 57.5 Q483 52 492 52 Q504 52 519.5 70.5 Q535 89 548 108 L564 93 Q533 46 495.5 19 Q458 -8 408 -8 Q356 -8 334 23 Q312 54 312 117 Q303 91 287 68 Q271 45 250 28 Q229 11 203 1.5 Q177 -8 149 -8 Q125 -8 102 2 Q79 12 60 32.5 Q41 53 29.5 83 Q18 113 18 153 Z M530 703 Q514 622 469 574.5 Q424 527 344 527 Q284 527 256.5 558.5 Q229 590 229 642 Q229 658 232 672 Q235 686 242 703 L270 703 Q270 683 277.5 669 Q285 655 297 646.5 Q309 638 325 634.5 Q341 631 358 631 Q374 631 394.5 634 Q415 637 435 645 Q455 653 473 667 Q491 681 502 703 L530 703 Z " />
<glyph glyph-name="Aogonek" unicode="&#x104;" horiz-adv-x="595" d="M230 26 L316 26 L294 198 L109 198 L14 26 L94 26 L89 0 L-77 0 L-72 26 L-18 26 L355 698 L436 698 L524 26 L579 26 L574 0 L482 0 Q449 -30 432.5 -67.5 Q416 -105 416 -142 Q416 -163 422 -177 Q428 -191 441 -191 Q453 -191 466 -178 Q479 -165 485 -154 L500 -167 Q471 -209 439.5 -225.5 Q408 -242 376 -242 Q334 -242 312 -220 Q290 -198 290 -164 Q290 -119 325 -75.5 Q360 -32 443 0 L226 0 L230 26 Z M259 471 L124 225 L290 225 L259 471 Z " />
<glyph glyph-name="aogonek" unicode="&#x105;" horiz-adv-x="582" d="M18 153 Q18 223 37.5 282.5 Q57 342 92 385.5 Q127 429 174.5 453.5 Q222 478 279 478 Q320 478 345 464 Q370 450 390 426 L426 467 L563 467 L488 123 Q484 106 481 92.5 Q478 79 478 68 Q478 63 480.5 57.5 Q483 52 492 52 Q504 52 519.5 70.5 Q535 89 548 108 L564 93 Q543 62 515.5 39 Q488 16 464 -8 Q439 -32 422.5 -69.5 Q406 -107 406 -138 Q406 -162 412 -176.5 Q418 -191 431 -191 Q442 -191 455 -178 Q468 -165 475 -154 L490 -167 Q460 -209 429 -225.5 Q398 -242 366 -242 Q330 -242 304.5 -223 Q279 -204 279 -164 Q279 -120 310 -81.5 Q341 -43 422 -8 L408 -8 Q356 -8 334 23 Q312 54 312 117 Q303 91 287 68 Q271 45 249.5 28 Q228 11 202.5 1.5 Q177 -8 149 -8 Q125 -8 102 2 Q79 12 60 32.5 Q41 53 29.5 83 Q18 113 18 153 Z M320 447 Q296 447 275.5 415.5 Q255 384 239 337 Q223 290 214 234 Q205 178 205 130 Q205 92 209.5 74.5 Q214 57 231 57 Q245 57 258 73 Q271 89 283 115.5 Q295 142 305.5 177 Q316 212 323.5 249.5 Q331 287 335.5 324.5 Q340 362 340 395 Q340 415 336.5 431 Q333 447 320 447 Z " />
<glyph glyph-name="Cacute" unicode="&#x106;" horiz-adv-x="587" d="M581 205 Q563 160 537.5 121.5 Q512 83 476.5 54 Q441 25 396.5 8.5 Q352 -8 297 -8 Q234 -8 187 14 Q140 36 108 74 Q76 112 60 163.5 Q44 215 44 274 Q44 325 55.5 377.5 Q67 430 89.5 478.5 Q112 527 145.5 569.5 Q179 612 224 643.5 Q269 675 325.5 693.5 Q382 712 449 712 Q501 712 536.5 698 Q572 684 594 663 Q616 642 626 616.5 Q636 591 636 568 Q636 542 627.5 518 Q619 494 602.5 476 Q586 458 563 447.5 Q540 437 512 437 Q476 437 456 447.5 Q436 458 422 474 L581 629 Q570 647 545 665.5 Q520 684 486 684 Q446 684 414 664.5 Q382 645 357.5 612 Q333 579 315.5 536 Q298 493 287 445 Q276 397 271 347.5 Q266 298 266 253 Q266 148 292.5 94.5 Q319 41 376 41 Q403 41 429.5 55 Q456 69 479.5 93 Q503 117 522.5 149 Q542 181 556 216 L581 205 Z M464 880 Q489 905 508 918.5 Q527 932 556 932 Q583 932 596 920.5 Q609 909 609 891 Q609 836 537 807 L394 749 L326 749 L464 880 Z " />
<glyph glyph-name="cacute" unicode="&#x107;" horiz-adv-x="449" d="M298 478 Q322 478 348 473 Q374 468 396 456 Q418 444 432 423.5 Q446 403 446 372 Q446 335 420 307 Q394 279 352 279 Q326 279 309 288.5 Q292 298 284 311 L384 434 Q379 439 371.5 443 Q364 447 354 447 Q318 447 290.5 416 Q263 385 244.5 340 Q226 295 216.5 245 Q207 195 207 157 Q207 91 227.5 62.5 Q248 34 274 34 Q291 34 307.5 43.5 Q324 53 338.5 69 Q353 85 365 106.5 Q377 128 385 151 L405 142 Q391 110 373.5 82.5 Q356 55 332 35 Q308 15 275 3.5 Q242 -8 199 -8 Q113 -8 64 40 Q15 88 15 172 Q15 235 35 291 Q55 347 91.5 388.5 Q128 430 180.5 454 Q233 478 298 478 Z M337 646 Q362 671 381 684.5 Q400 698 429 698 Q456 698 469 686.5 Q482 675 482 657 Q482 602 410 573 L267 515 L199 515 L337 646 Z " />
<glyph glyph-name="Ccircumflex" unicode="&#x108;" horiz-adv-x="587" d="M581 205 Q563 160 537.5 121.5 Q512 83 476.5 54 Q441 25 396.5 8.5 Q352 -8 297 -8 Q234 -8 187 14 Q140 36 108 74 Q76 112 60 163.5 Q44 215 44 274 Q44 325 55.5 377.5 Q67 430 89.5 478.5 Q112 527 145.5 569.5 Q179 612 224 643.5 Q269 675 325.5 693.5 Q382 712 449 712 Q501 712 536.5 698 Q572 684 594 663 Q616 642 626 616.5 Q636 591 636 568 Q636 542 627.5 518 Q619 494 602.5 476 Q586 458 563 447.5 Q540 437 512 437 Q476 437 456 447.5 Q436 458 422 474 L581 629 Q570 647 545 665.5 Q520 684 486 684 Q446 684 414 664.5 Q382 645 357.5 612 Q333 579 315.5 536 Q298 493 287 445 Q276 397 271 347.5 Q266 298 266 253 Q266 148 292.5 94.5 Q319 41 376 41 Q403 41 429.5 55 Q456 69 479.5 93 Q503 117 522.5 149 Q542 181 556 216 L581 205 Z M515 920 L590 754 L561 739 L441 814 L291 739 L269 753 L419 920 L515 920 Z " />
<glyph glyph-name="ccircumflex" unicode="&#x109;" horiz-adv-x="449" d="M298 478 Q322 478 348 473 Q374 468 396 456 Q418 444 432 423.5 Q446 403 446 372 Q446 335 420 307 Q394 279 352 279 Q326 279 309 288.5 Q292 298 284 311 L384 434 Q379 439 371.5 443 Q364 447 354 447 Q318 447 290.5 416 Q263 385 244.5 340 Q226 295 216.5 245 Q207 195 207 157 Q207 91 227.5 62.5 Q248 34 274 34 Q291 34 307.5 43.5 Q324 53 338.5 69 Q353 85 365 106.5 Q377 128 385 151 L405 142 Q391 110 373.5 82.5 Q356 55 332 35 Q308 15 275 3.5 Q242 -8 199 -8 Q113 -8 64 40 Q15 88 15 172 Q15 235 35 291 Q55 347 91.5 388.5 Q128 430 180.5 454 Q233 478 298 478 Z M380 694 L455 528 L426 513 L306 588 L156 513 L134 527 L284 694 L380 694 Z " />
<glyph glyph-name="Cdotaccent" unicode="&#x10a;" horiz-adv-x="587" d="M581 205 Q563 160 537.5 121.5 Q512 83 476.5 54 Q441 25 396.5 8.5 Q352 -8 297 -8 Q234 -8 187 14 Q140 36 108 74 Q76 112 60 163.5 Q44 215 44 274 Q44 325 55.5 377.5 Q67 430 89.5 478.5 Q112 527 145.5 569.5 Q179 612 224 643.5 Q269 675 325.5 693.5 Q382 712 449 712 Q501 712 536.5 698 Q572 684 594 663 Q616 642 626 616.5 Q636 591 636 568 Q636 542 627.5 518 Q619 494 602.5 476 Q586 458 563 447.5 Q540 437 512 437 Q476 437 456 447.5 Q436 458 422 474 L581 629 Q570 647 545 665.5 Q520 684 486 684 Q446 684 414 664.5 Q382 645 357.5 612 Q333 579 315.5 536 Q298 493 287 445 Q276 397 271 347.5 Q266 298 266 253 Q266 148 292.5 94.5 Q319 41 376 41 Q403 41 429.5 55 Q456 69 479.5 93 Q503 117 522.5 149 Q542 181 556 216 L581 205 Z M544 857 Q544 808 512.5 780 Q481 752 438 752 Q409 752 390.5 771.5 Q372 791 372 820 Q372 841 380.5 859.5 Q389 878 403 892 Q417 906 436 914.5 Q455 923 475 923 Q506 923 525 904 Q544 885 544 857 Z " />
<glyph glyph-name="cdotaccent" unicode="&#x10b;" horiz-adv-x="449" d="M298 478 Q322 478 348 473 Q374 468 396 456 Q418 444 432 423.5 Q446 403 446 372 Q446 335 420 307 Q394 279 352 279 Q326 279 309 288.5 Q292 298 284 311 L384 434 Q379 439 371.5 443 Q364 447 354 447 Q318 447 290.5 416 Q263 385 244.5 340 Q226 295 216.5 245 Q207 195 207 157 Q207 91 227.5 62.5 Q248 34 274 34 Q291 34 307.5 43.5 Q324 53 338.5 69 Q353 85 365 106.5 Q377 128 385 151 L405 142 Q391 110 373.5 82.5 Q356 55 332 35 Q308 15 275 3.5 Q242 -8 199 -8 Q113 -8 64 40 Q15 88 15 172 Q15 235 35 291 Q55 347 91.5 388.5 Q128 430 180.5 454 Q233 478 298 478 Z M398 631 Q398 582 366.5 554 Q335 526 292 526 Q263 526 244.5 545.5 Q226 565 226 594 Q226 615 234.5 633.5 Q243 652 257 666 Q271 680 290 688.5 Q309 697 329 697 Q360 697 379 678 Q398 659 398 631 Z " />
<glyph glyph-name="Ccaron" unicode="&#x10c;" horiz-adv-x="587" d="M581 205 Q563 160 537.5 121.5 Q512 83 476.5 54 Q441 25 396.5 8.5 Q352 -8 297 -8 Q234 -8 187 14 Q140 36 108 74 Q76 112 60 163.5 Q44 215 44 274 Q44 325 55.5 377.5 Q67 430 89.5 478.5 Q112 527 145.5 569.5 Q179 612 224 643.5 Q269 675 325.5 693.5 Q382 712 449 712 Q501 712 536.5 698 Q572 684 594 663 Q616 642 626 616.5 Q636 591 636 568 Q636 542 627.5 518 Q619 494 602.5 476 Q586 458 563 447.5 Q540 437 512 437 Q476 437 456 447.5 Q436 458 422 474 L581 629 Q570 647 545 665.5 Q520 684 486 684 Q446 684 414 664.5 Q382 645 357.5 612 Q333 579 315.5 536 Q298 493 287 445 Q276 397 271 347.5 Q266 298 266 253 Q266 148 292.5 94.5 Q319 41 376 41 Q403 41 429.5 55 Q456 69 479.5 93 Q503 117 522.5 149 Q542 181 556 216 L581 205 Z M384 758 L305 924 L332 939 L452 863 L603 939 L623 924 L479 758 L384 758 Z " />
<glyph glyph-name="ccaron" unicode="&#x10d;" horiz-adv-x="449" d="M298 478 Q322 478 348 473 Q374 468 396 456 Q418 444 432 423.5 Q446 403 446 372 Q446 335 420 307 Q394 279 352 279 Q326 279 309 288.5 Q292 298 284 311 L384 434 Q379 439 371.5 443 Q364 447 354 447 Q318 447 290.5 416 Q263 385 244.5 340 Q226 295 216.5 245 Q207 195 207 157 Q207 91 227.5 62.5 Q248 34 274 34 Q291 34 307.5 43.5 Q324 53 338.5 69 Q353 85 365 106.5 Q377 128 385 151 L405 142 Q391 110 373.5 82.5 Q356 55 332 35 Q308 15 275 3.5 Q242 -8 199 -8 Q113 -8 64 40 Q15 88 15 172 Q15 235 35 291 Q55 347 91.5 388.5 Q128 430 180.5 454 Q233 478 298 478 Z M243 532 L164 698 L191 713 L311 637 L462 713 L482 698 L338 532 L243 532 Z " />
<glyph glyph-name="Dcaron" unicode="&#x10e;" horiz-adv-x="721" d="M270 26 L295 26 Q348 26 390.5 60.5 Q433 95 463 156.5 Q493 218 509 303.5 Q525 389 525 490 Q525 536 519.5 572 Q514 608 501 633 Q488 658 465.5 671 Q443 684 410 684 L270 26 Z M165 529 Q169 546 176.5 566 Q184 586 195 605 Q206 624 220 641 Q234 658 252 670 Q217 662 175 649 Q133 636 105 622 L95 649 Q105 652 129 662 Q153 672 191.5 683.5 Q230 695 283 703.5 Q336 712 404 712 Q560 712 640.5 635 Q721 558 721 418 Q721 346 697.5 272 Q674 198 623.5 137.5 Q573 77 492.5 38.5 Q412 0 298 0 L-19 0 L-14 26 L57 26 L165 529 Z M377 758 L298 924 L325 939 L445 863 L596 939 L616 924 L472 758 L377 758 Z " />
<glyph glyph-name="dcaron" unicode="&#x10f;" horiz-adv-x="680" d="M231 39 Q244 39 257.5 53.5 Q271 68 283.5 91.5 Q296 115 306 144.5 Q316 174 322 205 L351 351 Q353 364 355 378 Q357 392 357 407 Q357 425 349 435.5 Q341 446 327 446 Q309 446 292.5 427 Q276 408 262.5 378 Q249 348 237.5 311 Q226 274 218.5 237 Q211 200 206.5 168 Q202 136 202 117 Q202 70 209.5 54.5 Q217 39 231 39 Z M320 116 Q291 46 249.5 19 Q208 -8 149 -8 Q116 -8 91 4.5 Q66 17 49.5 39 Q33 61 24.5 91 Q16 121 16 156 Q16 211 34.5 268.5 Q53 326 88.5 372.5 Q124 419 176.5 448.5 Q229 478 297 478 Q320 478 340 472.5 Q360 467 373 456 L423 689 Q410 694 389.5 695.5 Q369 697 352 697 L357 720 L622 738 L493 124 Q489 107 486.5 94 Q484 81 484 73 Q484 65 486.5 59 Q489 53 499 53 Q505 53 512.5 59 Q520 65 528 73.5 Q536 82 543.5 91.5 Q551 101 556 109 L572 94 Q543 48 504 20 Q465 -8 418 -8 Q392 -8 373.5 2.5 Q355 13 343 30 Q331 47 325.5 69.5 Q320 92 320 116 Z M636 517 Q661 536 677.5 556.5 Q694 577 694 590 Q694 600 686.5 606.5 Q679 613 669.5 620.5 Q660 628 652.5 638.5 Q645 649 645 668 Q645 703 670 723.5 Q695 744 730 744 Q757 744 774.5 726.5 Q792 709 792 677 Q792 652 780.5 627 Q769 602 750 578.5 Q731 555 706.5 534 Q682 513 657 495 L636 517 Z " />
<glyph glyph-name="Dcroat" unicode="&#x110;" horiz-adv-x="727" d="M72 371 L136 371 L170 529 Q174 546 181.5 566 Q189 586 200 605 Q211 624 225 641 Q239 658 257 670 Q222 662 180 649 Q138 636 110 622 L100 649 Q110 652 134 662 Q158 672 196 683.5 Q234 695 287.5 703.5 Q341 712 409 712 Q565 712 645.5 635 Q726 558 726 418 Q726 346 702.5 272 Q679 198 628 137.5 Q577 77 497 38.5 Q417 0 303 0 L-14 0 L-9 26 L62 26 L130 340 L66 340 L72 371 Z M348 371 L436 371 L430 340 L341 340 L274 26 L300 26 Q353 26 395.5 60.5 Q438 95 468 156.5 Q498 218 514 303.5 Q530 389 530 490 Q530 583 505.5 633.5 Q481 684 415 684 L348 371 Z " />
<glyph glyph-name="dcroat" unicode="&#x111;" horiz-adv-x="586" d="M320 116 Q291 46 249.5 19 Q208 -8 149 -8 Q116 -8 91 4.5 Q66 17 49.5 39 Q33 61 24.5 91 Q16 121 16 156 Q16 211 34.5 268.5 Q53 326 88.5 372.5 Q124 419 176.5 448.5 Q229 478 297 478 Q320 478 340 471.5 Q360 465 373 454 L398 573 L246 573 L252 600 L403 600 L423 689 Q410 694 389.5 695.5 Q369 697 352 697 L357 720 L622 738 L593 600 L645 600 L639 573 L587 573 L492 124 Q488 107 485.5 94 Q483 81 483 73 Q483 65 485.5 59 Q488 53 498 53 Q504 53 511.5 59 Q519 65 527 73.5 Q535 82 542.5 91.5 Q550 101 555 109 L571 94 Q542 48 503 20 Q464 -8 417 -8 Q391 -8 373 2.5 Q355 13 343 30 Q331 47 325.5 69.5 Q320 92 320 116 Z M231 39 Q244 39 257.5 53.5 Q271 68 283.5 91.5 Q296 115 306 144.5 Q316 174 322 205 L351 351 Q353 364 355 377.5 Q357 391 357 407 Q357 425 349 435.5 Q341 446 327 446 Q309 446 292.5 427 Q276 408 262.5 378.5 Q249 349 237.5 312 Q226 275 218.5 239 Q211 203 206.5 171 Q202 139 202 120 Q202 73 209.5 56 Q217 39 231 39 Z " />
<glyph glyph-name="Emacron" unicode="&#x112;" horiz-adv-x="619" d="M533 698 Q597 698 632 669 Q667 640 667 598 Q667 572 657.5 549 Q648 526 631 508.5 Q614 491 591 480.5 Q568 470 540 470 Q505 470 487 481.5 Q469 493 456 509 L598 651 Q590 659 572.5 665.5 Q555 672 518 672 L399 672 L332 354 L485 354 L479 328 L326 328 L261 26 L305 26 Q356 26 394.5 37 Q433 48 461.5 67.5 Q490 87 509.5 115 Q529 143 543 178 L561 222 L584 222 L537 0 L-28 0 L-24 26 L48 26 L186 672 L114 672 L118 698 L533 698 Z M267 781 L289 881 L598 881 L576 781 L267 781 Z " />
<glyph glyph-name="emacron" unicode="&#x113;" horiz-adv-x="469" d="M210 210 Q209 202 208.5 194 Q208 186 208 178 Q208 152 212 127.5 Q216 103 225.5 83 Q235 63 250.5 51 Q266 39 290 39 Q312 39 330 48 Q348 57 363 71 Q378 85 389.5 103.5 Q401 122 410 141 L431 131 Q413 90 388.5 63.5 Q364 37 334.5 21 Q305 5 271.5 -1.5 Q238 -8 201 -8 Q114 -8 64 37.5 Q14 83 14 169 Q14 232 35.5 288.5 Q57 345 96 387 Q135 429 189.5 453.5 Q244 478 311 478 Q356 478 387 468.5 Q418 459 437.5 443 Q457 427 466 405.5 Q475 384 475 360 Q475 320 457 290.5 Q439 261 409 242 Q379 223 339.5 214 Q300 205 257 205 Q240 205 230 206.5 Q220 208 210 210 Z M311 452 Q296 452 281.5 434 Q267 416 254 386 Q241 356 230.5 317 Q220 278 214 236 Q224 231 235 231 Q257 231 274.5 248 Q292 265 304 291 Q316 317 322.5 347 Q329 377 329 403 Q329 423 324.5 437.5 Q320 452 311 452 Z M151 555 L173 655 L482 655 L460 555 L151 555 Z " />
<glyph glyph-name="Ebreve" unicode="&#x114;" horiz-adv-x="619" d="M533 698 Q597 698 632 669 Q667 640 667 598 Q667 572 657.5 549 Q648 526 631 508.5 Q614 491 591 480.5 Q568 470 540 470 Q505 470 487 481.5 Q469 493 456 509 L598 651 Q590 659 572.5 665.5 Q555 672 518 672 L399 672 L332 354 L485 354 L479 328 L326 328 L261 26 L305 26 Q356 26 394.5 37 Q433 48 461.5 67.5 Q490 87 509.5 115 Q529 143 543 178 L561 222 L584 222 L537 0 L-28 0 L-24 26 L48 26 L186 672 L114 672 L118 698 L533 698 Z M627 929 Q611 848 566 800.5 Q521 753 441 753 Q381 753 353.5 784.5 Q326 816 326 868 Q326 884 329 898 Q332 912 339 929 L367 929 Q367 909 374.5 895 Q382 881 394 872.5 Q406 864 422 860.5 Q438 857 455 857 Q471 857 491.5 860 Q512 863 532 871 Q552 879 570 893 Q588 907 599 929 L627 929 Z " />
<glyph glyph-name="ebreve" unicode="&#x115;" horiz-adv-x="469" d="M210 210 Q209 202 208.5 194 Q208 186 208 178 Q208 152 212 127.5 Q216 103 225.5 83 Q235 63 250.5 51 Q266 39 290 39 Q312 39 330 48 Q348 57 363 71 Q378 85 389.5 103.5 Q401 122 410 141 L431 131 Q413 90 388.5 63.5 Q364 37 334.5 21 Q305 5 271.5 -1.5 Q238 -8 201 -8 Q114 -8 64 37.5 Q14 83 14 169 Q14 232 35.5 288.5 Q57 345 96 387 Q135 429 189.5 453.5 Q244 478 311 478 Q356 478 387 468.5 Q418 459 437.5 443 Q457 427 466 405.5 Q475 384 475 360 Q475 320 457 290.5 Q439 261 409 242 Q379 223 339.5 214 Q300 205 257 205 Q240 205 230 206.5 Q220 208 210 210 Z M311 452 Q296 452 281.5 434 Q267 416 254 386 Q241 356 230.5 317 Q220 278 214 236 Q224 231 235 231 Q257 231 274.5 248 Q292 265 304 291 Q316 317 322.5 347 Q329 377 329 403 Q329 423 324.5 437.5 Q320 452 311 452 Z M503 703 Q487 622 442 574.5 Q397 527 317 527 Q257 527 229.5 558.5 Q202 590 202 642 Q202 658 205 672 Q208 686 215 703 L243 703 Q243 683 250.5 669 Q258 655 270 646.5 Q282 638 298 634.5 Q314 631 331 631 Q347 631 367.5 634 Q388 637 408 645 Q428 653 446 667 Q464 681 475 703 L503 703 Z " />
<glyph glyph-name="Edotaccent" unicode="&#x116;" horiz-adv-x="619" d="M533 698 Q597 698 632 669 Q667 640 667 598 Q667 572 657.5 549 Q648 526 631 508.5 Q614 491 591 480.5 Q568 470 540 470 Q505 470 487 481.5 Q469 493 456 509 L598 651 Q590 659 572.5 665.5 Q555 672 518 672 L399 672 L332 354 L485 354 L479 328 L326 328 L261 26 L305 26 Q356 26 394.5 37 Q433 48 461.5 67.5 Q490 87 509.5 115 Q529 143 543 178 L561 222 L584 222 L537 0 L-28 0 L-24 26 L48 26 L186 672 L114 672 L118 698 L533 698 Z M531 857 Q531 808 499.5 780 Q468 752 425 752 Q396 752 377.5 771.5 Q359 791 359 820 Q359 841 367.5 859.5 Q376 878 390 892 Q404 906 423 914.5 Q442 923 462 923 Q493 923 512 904 Q531 885 531 857 Z " />
<glyph glyph-name="edotaccent" unicode="&#x117;" horiz-adv-x="469" d="M210 210 Q209 202 208.5 194 Q208 186 208 178 Q208 152 212 127.5 Q216 103 225.5 83 Q235 63 250.5 51 Q266 39 290 39 Q312 39 330 48 Q348 57 363 71 Q378 85 389.5 103.5 Q401 122 410 141 L431 131 Q413 90 388.5 63.5 Q364 37 334.5 21 Q305 5 271.5 -1.5 Q238 -8 201 -8 Q114 -8 64 37.5 Q14 83 14 169 Q14 232 35.5 288.5 Q57 345 96 387 Q135 429 189.5 453.5 Q244 478 311 478 Q356 478 387 468.5 Q418 459 437.5 443 Q457 427 466 405.5 Q475 384 475 360 Q475 320 457 290.5 Q439 261 409 242 Q379 223 339.5 214 Q300 205 257 205 Q240 205 230 206.5 Q220 208 210 210 Z M311 452 Q296 452 281.5 434 Q267 416 254 386 Q241 356 230.5 317 Q220 278 214 236 Q224 231 235 231 Q257 231 274.5 248 Q292 265 304 291 Q316 317 322.5 347 Q329 377 329 403 Q329 423 324.5 437.5 Q320 452 311 452 Z M401 631 Q401 582 369.5 554 Q338 526 295 526 Q266 526 247.5 545.5 Q229 565 229 594 Q229 615 237.5 633.5 Q246 652 260 666 Q274 680 293 688.5 Q312 697 332 697 Q363 697 382 678 Q401 659 401 631 Z " />
<glyph glyph-name="Eogonek" unicode="&#x118;" horiz-adv-x="619" d="M457 0 Q424 -30 407.5 -67.5 Q391 -105 391 -142 Q391 -163 397 -177 Q403 -191 415 -191 Q427 -191 440 -178 Q453 -165 460 -154 L475 -167 Q445 -209 414 -225.5 Q383 -242 351 -242 Q308 -242 286 -220 Q264 -198 264 -164 Q264 -119 299 -75.5 Q334 -32 417 0 L-28 0 L-24 26 L48 26 L186 672 L114 672 L118 698 L533 698 Q597 698 632 669 Q667 640 667 598 Q667 572 657.5 549 Q648 526 631 508.5 Q614 491 591 480.5 Q568 470 540 470 Q505 470 487 481.5 Q469 493 456 509 L598 651 Q590 659 572.5 665.5 Q555 672 518 672 L399 672 L332 354 L485 354 L479 328 L326 328 L261 26 L343 26 Q388 26 420.5 38 Q453 50 476.5 71.5 Q500 93 517 123 Q534 153 548 189 L561 222 L584 222 L537 0 L457 0 Z " />
<glyph glyph-name="eogonek" unicode="&#x119;" horiz-adv-x="469" d="M311 452 Q296 452 281.5 434 Q267 416 254 386 Q241 356 230.5 317 Q220 278 214 236 Q224 231 235 231 Q257 231 274.5 248 Q292 265 304 291 Q316 317 322.5 347 Q329 377 329 403 Q329 423 324.5 437.5 Q320 452 311 452 Z M265 -3 Q251 -5 234 -6.5 Q217 -8 201 -8 Q114 -8 64 37.5 Q14 83 14 169 Q14 232 35.5 288.5 Q57 345 96 387 Q135 429 189.5 453.5 Q244 478 311 478 Q356 478 387 468.5 Q418 459 437.5 443 Q457 427 466 405.5 Q475 384 475 360 Q475 320 457 290.5 Q439 261 409 242 Q379 223 339.5 214 Q300 205 257 205 Q240 205 230 206.5 Q220 208 210 210 Q209 202 208.5 194 Q208 186 208 178 Q208 152 212 127.5 Q216 103 225.5 83 Q235 63 250.5 51 Q266 39 290 39 Q312 39 330 48 Q348 57 363 71 Q378 85 389.5 103.5 Q401 122 410 141 L431 131 Q419 105 405 86 Q391 67 375.5 51.5 Q360 36 344.5 23 Q329 10 315 -2 Q283 -31 263 -67.5 Q243 -104 243 -142 Q243 -163 249 -177 Q255 -191 268 -191 Q280 -191 293 -178 Q306 -165 312 -154 L327 -167 Q298 -209 266.5 -225.5 Q235 -242 203 -242 Q167 -242 142 -222.5 Q117 -203 117 -164 Q117 -112 153.5 -71 Q190 -30 265 -3 Z " />
<glyph glyph-name="Ecaron" unicode="&#x11a;" horiz-adv-x="619" d="M533 698 Q597 698 632 669 Q667 640 667 598 Q667 572 657.5 549 Q648 526 631 508.5 Q614 491 591 480.5 Q568 470 540 470 Q505 470 487 481.5 Q469 493 456 509 L598 651 Q590 659 572.5 665.5 Q555 672 518 672 L399 672 L332 354 L485 354 L479 328 L326 328 L261 26 L305 26 Q356 26 394.5 37 Q433 48 461.5 67.5 Q490 87 509.5 115 Q529 143 543 178 L561 222 L584 222 L537 0 L-28 0 L-24 26 L48 26 L186 672 L114 672 L118 698 L533 698 Z M370 758 L291 924 L318 939 L438 863 L589 939 L609 924 L465 758 L370 758 Z " />
<glyph glyph-name="ecaron" unicode="&#x11b;" horiz-adv-x="469" d="M210 210 Q209 202 208.5 194 Q208 186 208 178 Q208 152 212 127.5 Q216 103 225.5 83 Q235 63 250.5 51 Q266 39 290 39 Q312 39 330 48 Q348 57 363 71 Q378 85 389.5 103.5 Q401 122 410 141 L431 131 Q413 90 388.5 63.5 Q364 37 334.5 21 Q305 5 271.5 -1.5 Q238 -8 201 -8 Q114 -8 64 37.5 Q14 83 14 169 Q14 232 35.5 288.5 Q57 345 96 387 Q135 429 189.5 453.5 Q244 478 311 478 Q356 478 387 468.5 Q418 459 437.5 443 Q457 427 466 405.5 Q475 384 475 360 Q475 320 457 290.5 Q439 261 409 242 Q379 223 339.5 214 Q300 205 257 205 Q240 205 230 206.5 Q220 208 210 210 Z M311 452 Q296 452 281.5 434 Q267 416 254 386 Q241 356 230.5 317 Q220 278 214 236 Q224 231 235 231 Q257 231 274.5 248 Q292 265 304 291 Q316 317 322.5 347 Q329 377 329 403 Q329 423 324.5 437.5 Q320 452 311 452 Z M253 532 L174 698 L201 713 L321 637 L472 713 L492 698 L348 532 L253 532 Z " />
<glyph glyph-name="Gcircumflex" unicode="&#x11c;" horiz-adv-x="681" d="M402 280 L408 306 L707 306 L701 280 L647 280 L587 0 L570 0 Q559 7 547 10.5 Q535 14 518 14 Q504 14 482 10.5 Q460 7 432.5 3 Q405 -1 372.5 -4.5 Q340 -8 304 -8 Q233 -8 184 10.5 Q135 29 103.5 62.5 Q72 96 58 143.5 Q44 191 44 249 Q44 333 72.5 416 Q101 499 156 565 Q211 631 292 671.5 Q373 712 478 712 Q531 712 569.5 700 Q608 688 633 669.5 Q658 651 670 627.5 Q682 604 682 582 Q682 556 673.5 532.5 Q665 509 649.5 491 Q634 473 612 462.5 Q590 452 563 452 Q527 452 507 463.5 Q487 475 474 491 L618 636 Q601 657 573 669 Q545 681 513 681 Q472 681 438 659 Q404 637 376 600 Q348 563 327 514 Q306 465 292 410.5 Q278 356 271 299 Q264 242 264 190 Q264 103 282.5 64 Q301 25 349 25 Q363 25 383.5 28 Q404 31 419 37 L471 280 L402 280 Z M562 920 L637 754 L608 739 L488 814 L338 739 L316 753 L466 920 L562 920 Z " />
<glyph glyph-name="gcircumflex" unicode="&#x11d;" horiz-adv-x="489" d="M448 549 Q459 529 468.5 511.5 Q478 494 478 483 Q478 473 469 462.5 Q460 452 441 444 Q478 414 478 364 Q478 330 463 294.5 Q448 259 417.5 229.5 Q387 200 339.5 181.5 Q292 163 227 163 Q182 163 154.5 168 Q127 173 104 181 Q95 176 91 167 Q87 158 87 149 Q87 137 96.5 128.5 Q106 120 127 113 Q148 106 182 100 Q216 94 265 87 Q359 73 401.5 43.5 Q444 14 444 -45 Q444 -86 418 -118 Q392 -150 351 -172 Q310 -194 260 -205 Q210 -216 163 -216 Q120 -216 84 -210 Q48 -204 22 -192 Q-4 -180 -18.5 -161.5 Q-33 -143 -33 -118 Q-33 -87 -8.5 -63.5 Q16 -40 55 -29 Q27 -17 10 0 Q-7 17 -7 52 Q-7 88 15 125 Q37 162 84 191 Q44 222 44 276 Q44 296 53 330 Q62 364 88.5 397 Q115 430 164 454 Q213 478 293 478 Q331 478 366 472 Q401 466 424 457 Q435 465 439.5 471.5 Q444 478 444 486 Q444 493 438.5 500.5 Q433 508 425 513 L306 594 L154 513 L129 530 L288 694 L368 694 L448 549 Z M165 -186 Q186 -186 209 -183.5 Q232 -181 251 -174 Q270 -167 282 -155 Q294 -143 294 -125 Q294 -97 270 -84 Q246 -71 212.5 -64.5 Q179 -58 143.5 -54 Q108 -50 85 -41 Q69 -52 59 -69.5 Q49 -87 49 -108 Q49 -143 80 -164.5 Q111 -186 165 -186 Z M232 193 Q252 193 267 216.5 Q282 240 291.5 272 Q301 304 306 338 Q311 372 311 393 Q311 420 306 437 Q301 454 288 454 Q270 454 255 429 Q240 404 229.5 370.5 Q219 337 213.5 302.5 Q208 268 208 249 Q208 222 213 207.5 Q218 193 232 193 Z " />
<glyph glyph-name="Gbreve" unicode="&#x11e;" horiz-adv-x="681" d="M402 280 L408 306 L707 306 L701 280 L647 280 L587 0 L570 0 Q559 7 547 10.5 Q535 14 518 14 Q504 14 482 10.5 Q460 7 432.5 3 Q405 -1 372.5 -4.5 Q340 -8 304 -8 Q233 -8 184 10.5 Q135 29 103.5 62.5 Q72 96 58 143.5 Q44 191 44 249 Q44 333 72.5 416 Q101 499 156 565 Q211 631 292 671.5 Q373 712 478 712 Q531 712 569.5 700 Q608 688 633 669.5 Q658 651 670 627.5 Q682 604 682 582 Q682 556 673.5 532.5 Q665 509 649.5 491 Q634 473 612 462.5 Q590 452 563 452 Q527 452 507 463.5 Q487 475 474 491 L618 636 Q601 657 573 669 Q545 681 513 681 Q472 681 438 659 Q404 637 376 600 Q348 563 327 514 Q306 465 292 410.5 Q278 356 271 299 Q264 242 264 190 Q264 103 282.5 64 Q301 25 349 25 Q363 25 383.5 28 Q404 31 419 37 L471 280 L402 280 Z M663 929 Q647 848 602 800.5 Q557 753 477 753 Q417 753 389.5 784.5 Q362 816 362 868 Q362 884 365 898 Q368 912 375 929 L403 929 Q403 909 410.5 895 Q418 881 430 872.5 Q442 864 458 860.5 Q474 857 491 857 Q507 857 527.5 860 Q548 863 568 871 Q588 879 606 893 Q624 907 635 929 L663 929 Z " />
<glyph glyph-name="gbreve" unicode="&#x11f;" horiz-adv-x="496" d="M293 478 Q331 478 366 472 Q401 466 424 457 Q453 477 464.5 492.5 Q476 508 476 517 Q476 522 472 526 Q468 530 448 530 L415 530 Q415 532 414.5 534 Q414 536 414 538 Q414 569 433.5 583 Q453 597 475 597 Q498 597 512 586 Q526 575 526 553 Q526 499 441 444 Q478 414 478 364 Q478 330 463 294.5 Q448 259 417.5 229.5 Q387 200 339.5 181.5 Q292 163 227 163 Q182 163 154.5 168 Q127 173 104 181 Q95 176 91 167 Q87 158 87 149 Q87 136 96.5 127.5 Q106 119 127 112 Q148 105 182 99.5 Q216 94 265 87 Q359 73 401.5 40.5 Q444 8 444 -40 Q444 -86 418 -119.5 Q392 -153 351 -174.5 Q310 -196 260 -206.5 Q210 -217 163 -217 Q120 -217 84 -211 Q48 -205 22 -193 Q-4 -181 -18.5 -162.5 Q-33 -144 -33 -118 Q-33 -88 -8.5 -66 Q16 -44 55 -33 Q27 -21 10 0 Q-7 21 -7 56 Q-7 92 15 127 Q37 162 84 191 Q44 222 44 276 Q44 296 53 330 Q62 364 88.5 397 Q115 430 164 454 Q213 478 293 478 Z M165 -187 Q186 -187 209 -184.5 Q232 -182 251 -175 Q270 -168 282 -156 Q294 -144 294 -126 Q294 -98 271 -84.5 Q248 -71 215.5 -65 Q183 -59 147 -56 Q111 -53 85 -45 Q69 -56 59 -72 Q49 -88 49 -109 Q49 -144 80 -165.5 Q111 -187 165 -187 Z M232 193 Q252 193 267 216.5 Q282 240 291.5 272.5 Q301 305 306 339.5 Q311 374 311 395 Q311 422 306 438 Q301 454 288 454 Q270 454 255 429 Q240 404 229.5 370.5 Q219 337 213.5 302.5 Q208 268 208 249 Q208 222 213 207.5 Q218 193 232 193 Z M464 703 Q453 666 437 634 Q421 602 399.5 578 Q378 554 351 540.5 Q324 527 291 527 Q263 527 242.5 536.5 Q222 546 208 562 Q194 578 187 599 Q180 620 180 643 Q180 679 191 703 L219 703 Q221 667 244.5 649 Q268 631 304 631 Q336 631 371.5 645 Q407 659 436 703 L464 703 Z " />
<glyph glyph-name="Gdotaccent" unicode="&#x120;" horiz-adv-x="681" d="M402 280 L408 306 L707 306 L701 280 L647 280 L587 0 L570 0 Q559 7 547 10.5 Q535 14 518 14 Q504 14 482 10.5 Q460 7 432.5 3 Q405 -1 372.5 -4.5 Q340 -8 304 -8 Q233 -8 184 10.5 Q135 29 103.5 62.5 Q72 96 58 143.5 Q44 191 44 249 Q44 333 72.5 416 Q101 499 156 565 Q211 631 292 671.5 Q373 712 478 712 Q531 712 569.5 700 Q608 688 633 669.5 Q658 651 670 627.5 Q682 604 682 582 Q682 556 673.5 532.5 Q665 509 649.5 491 Q634 473 612 462.5 Q590 452 563 452 Q527 452 507 463.5 Q487 475 474 491 L618 636 Q601 657 573 669 Q545 681 513 681 Q472 681 438 659 Q404 637 376 600 Q348 563 327 514 Q306 465 292 410.5 Q278 356 271 299 Q264 242 264 190 Q264 103 282.5 64 Q301 25 349 25 Q363 25 383.5 28 Q404 31 419 37 L471 280 L402 280 Z M581 857 Q581 808 549.5 780 Q518 752 475 752 Q446 752 427.5 771.5 Q409 791 409 820 Q409 841 417.5 859.5 Q426 878 440 892 Q454 906 473 914.5 Q492 923 512 923 Q543 923 562 904 Q581 885 581 857 Z " />
<glyph glyph-name="gdotaccent" unicode="&#x121;" horiz-adv-x="489" d="M371 649 Q374 644 380 634 Q386 624 386 604 Q386 572 364 548.5 Q342 525 300 525 Q270 525 253.5 544 Q237 563 237 588 Q237 634 272.5 665.5 Q308 697 379 697 Q411 697 435 687 Q459 677 475.5 660 Q492 643 500.5 621 Q509 599 509 575 Q509 543 493.5 506 Q478 469 441 444 Q478 414 478 364 Q478 330 463 294.5 Q448 259 417.5 229.5 Q387 200 339.5 181.5 Q292 163 227 163 Q182 163 154.5 168 Q127 173 104 181 Q95 176 91 167 Q87 158 87 149 Q87 136 96.5 127.5 Q106 119 127 112 Q148 105 182 99.5 Q216 94 265 87 Q359 73 401.5 41 Q444 9 444 -39 Q444 -85 418 -118.5 Q392 -152 351 -173.5 Q310 -195 260 -205.5 Q210 -216 163 -216 Q120 -216 84 -210 Q48 -204 22 -192 Q-4 -180 -18.5 -161.5 Q-33 -143 -33 -118 Q-33 -87 -8.5 -63.5 Q16 -40 55 -29 Q27 -17 10 1.5 Q-7 20 -7 52 Q-7 91 15 126.5 Q37 162 84 191 Q44 222 44 276 Q44 296 53 330 Q62 364 88.5 397 Q115 430 164 454 Q213 478 293 478 Q331 478 366 472 Q401 466 424 457 Q449 475 463 503 Q477 531 477 565 Q477 610 456 634.5 Q435 659 407 659 Q392 659 383 655 Q374 651 371 649 Z M165 -186 Q186 -186 209 -183.5 Q232 -181 251 -174 Q270 -167 282 -155 Q294 -143 294 -125 Q294 -97 270 -83.5 Q246 -70 213 -63.5 Q180 -57 144.5 -53.5 Q109 -50 85 -41 Q69 -52 59 -69.5 Q49 -87 49 -108 Q49 -143 80 -164.5 Q111 -186 165 -186 Z M232 193 Q252 193 267 216.5 Q282 240 291.5 272.5 Q301 305 306 339.5 Q311 374 311 395 Q311 422 306 438 Q301 454 288 454 Q270 454 255 429 Q240 404 229.5 370.5 Q219 337 213.5 302.5 Q208 268 208 249 Q208 222 213 207.5 Q218 193 232 193 Z " />
<glyph glyph-name="Gcommaaccent" unicode="&#x122;" horiz-adv-x="681" d="M402 280 L408 306 L707 306 L701 280 L647 280 L587 0 L570 0 Q559 7 547 10.5 Q535 14 518 14 Q504 14 482 10.5 Q460 7 432.5 3 Q405 -1 372.5 -4.5 Q340 -8 304 -8 Q233 -8 184 10.5 Q135 29 103.5 62.5 Q72 96 58 143.5 Q44 191 44 249 Q44 333 72.5 416 Q101 499 156 565 Q211 631 292 671.5 Q373 712 478 712 Q531 712 569.5 700 Q608 688 633 669.5 Q658 651 670 627.5 Q682 604 682 582 Q682 556 673.5 532.5 Q665 509 649.5 491 Q634 473 612 462.5 Q590 452 563 452 Q527 452 507 463.5 Q487 475 474 491 L618 636 Q601 657 573 669 Q545 681 513 681 Q472 681 438 659 Q404 637 376 600 Q348 563 327 514 Q306 465 292 410.5 Q278 356 271 299 Q264 242 264 190 Q264 103 282.5 64 Q301 25 349 25 Q363 25 383.5 28 Q404 31 419 37 L471 280 L402 280 Z M251 -269 Q276 -250 292.5 -229.5 Q309 -209 309 -196 Q309 -186 301.5 -179.5 Q294 -173 284.5 -165.5 Q275 -158 267.5 -147.5 Q260 -137 260 -118 Q260 -83 285 -62.5 Q310 -42 345 -42 Q372 -42 389.5 -59.5 Q407 -77 407 -109 Q407 -134 395.5 -159 Q384 -184 365 -207.5 Q346 -231 321.5 -252 Q297 -273 272 -291 L251 -269 Z " />
<glyph glyph-name="gcommaaccent" unicode="&#x123;" horiz-adv-x="489" d="M293 478 Q331 478 366 472 Q401 466 424 457 Q453 477 464.5 492.5 Q476 508 476 517 Q476 522 472 526 Q468 530 448 530 L415 530 Q415 532 414.5 534 Q414 536 414 538 Q414 569 433.5 583 Q453 597 475 597 Q498 597 512 586 Q526 575 526 553 Q526 499 441 444 Q478 414 478 364 Q478 330 463 294.5 Q448 259 417.5 229.5 Q387 200 339.5 181.5 Q292 163 227 163 Q182 163 154.5 168 Q127 173 104 181 Q95 176 91 167 Q87 158 87 149 Q87 136 96.5 127.5 Q106 119 127 112 Q148 105 182 99.5 Q216 94 265 87 Q359 73 401.5 40.5 Q444 8 444 -40 Q444 -86 418 -119.5 Q392 -153 351 -174.5 Q310 -196 260 -206.5 Q210 -217 163 -217 Q120 -217 84 -211 Q48 -205 22 -193 Q-4 -181 -18.5 -162.5 Q-33 -144 -33 -118 Q-33 -88 -8.5 -66 Q16 -44 55 -33 Q27 -21 10 0 Q-7 21 -7 56 Q-7 92 15 127 Q37 162 84 191 Q44 222 44 276 Q44 296 53 330 Q62 364 88.5 397 Q115 430 164 454 Q213 478 293 478 Z M165 -187 Q186 -187 209 -184.5 Q232 -182 251 -175 Q270 -168 282 -156 Q294 -144 294 -126 Q294 -98 271 -84.5 Q248 -71 215.5 -65 Q183 -59 147 -56 Q111 -53 85 -45 Q69 -56 59 -72 Q49 -88 49 -109 Q49 -144 80 -165.5 Q111 -187 165 -187 Z M232 193 Q252 193 267 216.5 Q282 240 291.5 272.5 Q301 305 306 339.5 Q311 374 311 395 Q311 422 306 438 Q301 454 288 454 Q270 454 255 429 Q240 404 229.5 370.5 Q219 337 213.5 302.5 Q208 268 208 249 Q208 222 213 207.5 Q218 193 232 193 Z M391 764 Q366 746 349.5 725.5 Q333 705 333 691 Q333 681 340.5 674.5 Q348 668 357.5 661 Q367 654 374.5 643 Q382 632 382 613 Q382 579 357 558.5 Q332 538 297 538 Q270 538 252.5 555 Q235 572 235 604 Q235 629 246.5 654 Q258 679 277 702.5 Q296 726 320 747.5 Q344 769 370 787 L391 764 Z " />
<glyph glyph-name="Hcircumflex" unicode="&#x124;" horiz-adv-x="807" d="M261 26 L323 26 L318 0 L-29 0 L-24 26 L48 26 L186 672 L114 672 L119 698 L467 698 L462 672 L399 672 L336 374 L525 374 L588 672 L525 672 L531 698 L879 698 L873 672 L801 672 L663 26 L735 26 L729 0 L382 0 L387 26 L450 26 L519 348 L330 348 L261 26 Z M595 920 L670 754 L641 739 L521 814 L371 739 L349 753 L499 920 L595 920 Z " />
<glyph glyph-name="hcircumflex" unicode="&#x125;" horiz-adv-x="620" d="M150 689 Q137 694 117 695.5 Q97 697 80 697 L85 720 L357 738 L269 352 Q298 409 345.5 443.5 Q393 478 459 478 Q520 478 548 447.5 Q576 417 576 372 Q576 357 574.5 343.5 Q573 330 570 314.5 Q567 299 561.5 278 Q556 257 549 226 Q540 185 533.5 158.5 Q527 132 523 114.5 Q519 97 517 86.5 Q515 76 515 67 Q515 59 519.5 55 Q524 51 530 51 Q542 51 558 69.5 Q574 88 587 107 L603 92 Q576 52 537.5 22 Q499 -8 441 -8 Q384 -8 353.5 19 Q323 46 323 86 Q323 101 324.5 114.5 Q326 128 329.5 145 Q333 162 338 184 Q343 206 350 239 Q361 291 368.5 325 Q376 359 376 380 Q376 414 357 414 Q343 414 327.5 398 Q312 382 297.5 358 Q283 334 271.5 306.5 Q260 279 255 255 L200 0 L3 0 L150 689 Z M332 915 L407 749 L378 734 L258 809 L108 734 L86 748 L236 915 L332 915 Z " />
<glyph glyph-name="Hbar" unicode="&#x126;" horiz-adv-x="806" d="M359 487 L335 374 L524 374 L549 487 L359 487 Z M838 513 L833 487 L760 487 L662 26 L734 26 L728 0 L381 0 L386 26 L449 26 L518 348 L329 348 L260 26 L322 26 L317 0 L-30 0 L-24 26 L47 26 L146 487 L73 487 L79 513 L151 513 L185 672 L113 672 L118 698 L466 698 L461 672 L399 672 L365 513 L554 513 L587 672 L525 672 L530 698 L878 698 L872 672 L800 672 L766 513 L838 513 Z " />
<glyph glyph-name="hbar" unicode="&#x127;" horiz-adv-x="621" d="M126 573 L58 573 L64 600 L132 600 L151 689 Q138 694 117.5 695.5 Q97 697 81 697 L86 720 L358 738 L326 600 L457 600 L451 573 L321 573 L270 352 Q299 409 346.5 443.5 Q394 478 460 478 Q520 478 548.5 448.5 Q577 419 577 374 Q577 359 575.5 345.5 Q574 332 571 316 Q568 300 562.5 278.5 Q557 257 550 226 Q541 185 534.5 158.5 Q528 132 524 114.5 Q520 97 518 86.5 Q516 76 516 67 Q516 59 520.5 55 Q525 51 531 51 Q543 51 559 69.5 Q575 88 587 107 L603 92 Q577 52 538.5 22 Q500 -8 442 -8 Q385 -8 354.5 19 Q324 46 324 86 Q324 101 325.5 115 Q327 129 330.5 146.5 Q334 164 339 186 Q344 208 351 239 Q362 291 369.5 326 Q377 361 377 382 Q377 414 358 414 Q344 414 328.5 398 Q313 382 298.5 358 Q284 334 272.5 306.5 Q261 279 256 255 L201 0 L4 0 L126 573 Z " />
<glyph glyph-name="Itilde" unicode="&#x128;" horiz-adv-x="409" d="M263 26 L336 26 L331 0 L-26 0 L-22 26 L50 26 L188 672 L116 672 L120 698 L478 698 L474 672 L401 672 L263 26 Z M521 927 Q513 895 502 866.5 Q491 838 474 817 Q457 796 434 783.5 Q411 771 380 771 Q360 771 339 777.5 Q318 784 297 792 Q276 800 255.5 806.5 Q235 813 218 813 Q204 813 184 805 Q164 797 150 769 L136 769 Q141 797 153 824 Q165 851 184 872 Q203 893 227 906 Q251 919 280 919 Q304 919 326 913 Q348 907 368 899.5 Q388 892 407.5 886 Q427 880 446 880 Q467 880 482 893 Q497 906 507 927 L521 927 Z " />
<glyph glyph-name="itilde" unicode="&#x129;" horiz-adv-x="327" d="M252 206 Q238 146 231 113.5 Q224 81 224 67 Q224 51 239 51 Q251 51 266.5 69.5 Q282 88 295 107 L311 92 Q284 52 245.5 22 Q207 -8 149 -8 Q88 -8 61 19 Q34 46 34 86 Q34 117 41 155.5 Q48 194 58 239 L100 430 Q87 434 71 435.5 Q55 437 39 437 L43 461 L311 478 L252 206 Z M412 701 Q404 669 393 640.5 Q382 612 365 591 Q348 570 325 557.5 Q302 545 271 545 Q251 545 230 551.5 Q209 558 188 566 Q167 574 146.5 580.5 Q126 587 109 587 Q95 587 75 579 Q55 571 41 543 L27 543 Q32 571 44 598 Q56 625 75 646 Q94 667 118 680 Q142 693 171 693 Q195 693 217 687 Q239 681 259 673.5 Q279 666 298.5 660 Q318 654 337 654 Q358 654 373 667 Q388 680 398 701 L412 701 Z " />
<glyph glyph-name="Imacron" unicode="&#x12a;" horiz-adv-x="409" d="M263 26 L336 26 L331 0 L-26 0 L-22 26 L50 26 L188 672 L116 672 L120 698 L478 698 L474 672 L401 672 L263 26 Z M153 758 L175 858 L484 858 L462 758 L153 758 Z " />
<glyph glyph-name="imacron" unicode="&#x12b;" horiz-adv-x="327" d="M252 206 Q238 146 231 113.5 Q224 81 224 67 Q224 51 239 51 Q251 51 266.5 69.5 Q282 88 295 107 L311 92 Q284 52 245.5 22 Q207 -8 149 -8 Q88 -8 61 19 Q34 46 34 86 Q34 117 41 155.5 Q48 194 58 239 L100 430 Q87 434 71 435.5 Q55 437 39 437 L43 461 L311 478 L252 206 Z M77 555 L97 646 L377 646 L358 555 L77 555 Z " />
<glyph glyph-name="Ibreve" unicode="&#x12c;" horiz-adv-x="409" d="M263 26 L336 26 L331 0 L-26 0 L-22 26 L50 26 L188 672 L116 672 L120 698 L478 698 L474 672 L401 672 L263 26 Z M505 929 Q489 848 444 800.5 Q399 753 319 753 Q259 753 231.5 784.5 Q204 816 204 868 Q204 884 207 898 Q210 912 217 929 L245 929 Q245 909 252.5 895 Q260 881 272 872.5 Q284 864 300 860.5 Q316 857 333 857 Q349 857 369.5 860 Q390 863 410 871 Q430 879 448 893 Q466 907 477 929 L505 929 Z " />
<glyph glyph-name="ibreve" unicode="&#x12d;" horiz-adv-x="327" d="M252 206 Q238 146 231 113.5 Q224 81 224 67 Q224 51 239 51 Q251 51 266.5 69.5 Q282 88 295 107 L311 92 Q284 52 245.5 22 Q207 -8 149 -8 Q88 -8 61 19 Q34 46 34 86 Q34 117 41 155.5 Q48 194 58 239 L100 430 Q87 434 71 435.5 Q55 437 39 437 L43 461 L311 478 L252 206 Z M388 703 Q377 666 361 634 Q345 602 323.5 578 Q302 554 275 540.5 Q248 527 215 527 Q187 527 166.5 536.5 Q146 546 132 562 Q118 578 111 599 Q104 620 104 643 Q104 679 115 703 L143 703 Q145 667 168.5 649 Q192 631 228 631 Q260 631 295.5 645 Q331 659 360 703 L388 703 Z " />
<glyph glyph-name="Iogonek" unicode="&#x12e;" horiz-adv-x="409" d="M223 0 Q190 -30 173.5 -67.5 Q157 -105 157 -142 Q157 -163 162.5 -177 Q168 -191 181 -191 Q193 -191 206 -178 Q219 -165 226 -154 L241 -167 Q211 -209 180 -225.5 Q149 -242 117 -242 Q74 -242 52 -220 Q30 -198 30 -164 Q30 -119 65 -75.5 Q100 -32 183 0 L-26 0 L-22 26 L50 26 L188 672 L116 672 L120 698 L478 698 L474 672 L401 672 L263 26 L336 26 L331 0 L223 0 Z " />
<glyph glyph-name="iogonek" unicode="&#x12f;" horiz-adv-x="327" d="M252 206 Q238 146 231 113.5 Q224 81 224 67 Q224 51 239 51 Q251 51 266.5 69.5 Q282 88 295 107 L311 92 Q297 73 285.5 59.5 Q274 46 263.5 35.5 Q253 25 242.5 15 Q232 5 221 -6 Q186 -43 169 -75 Q152 -107 152 -142 Q152 -163 158.5 -177 Q165 -191 178 -191 Q190 -191 202.5 -178 Q215 -165 222 -154 L237 -167 Q207 -209 176 -225.5 Q145 -242 113 -242 Q77 -242 51.5 -222.5 Q26 -203 26 -164 Q26 -136 36.5 -112.5 Q47 -89 66 -69.5 Q85 -50 109.5 -35 Q134 -20 163 -8 Q158 -9 149 -9 Q88 -9 61 18 Q34 45 34 86 Q34 116 41 154.5 Q48 193 58 239 L100 430 Q87 434 71 435.5 Q55 437 39 437 L43 461 L311 478 L252 206 Z M341 639 Q341 615 331.5 594.5 Q322 574 305.5 558.5 Q289 543 268 534.5 Q247 526 225 526 Q191 526 170 547 Q149 568 149 601 Q149 623 158 643.5 Q167 664 182.5 679.5 Q198 695 219 704.5 Q240 714 264 714 Q299 714 320 692.5 Q341 671 341 639 Z " />
<glyph glyph-name="Idotaccent" unicode="&#x130;" horiz-adv-x="409" d="M263 26 L336 26 L331 0 L-26 0 L-22 26 L50 26 L188 672 L116 672 L120 698 L478 698 L474 672 L401 672 L263 26 Z M407 857 Q407 808 375.5 780 Q344 752 301 752 Q272 752 253.5 771.5 Q235 791 235 820 Q235 841 243.5 859.5 Q252 878 266 892 Q280 906 299 914.5 Q318 923 338 923 Q369 923 388 904 Q407 885 407 857 Z " />
<glyph glyph-name="dotlessi" unicode="&#x131;" horiz-adv-x="327" d="M252 206 Q238 146 231 113.5 Q224 81 224 67 Q224 51 239 51 Q251 51 266.5 69.5 Q282 88 295 107 L311 92 Q284 52 245.5 22 Q207 -8 149 -8 Q88 -8 61 19 Q34 46 34 86 Q34 117 41 155.5 Q48 194 58 239 L100 430 Q87 434 71 435.5 Q55 437 39 437 L43 461 L311 478 L252 206 Z " />
<glyph glyph-name="IJ" unicode="&#x132;" horiz-adv-x="865" d="M263 26 L336 26 L331 0 L-26 0 L-22 26 L50 26 L188 672 L116 672 L120 698 L478 698 L474 672 L401 672 L263 26 Z M493 -8 Q464 -8 438.5 -1 Q413 6 394 19.5 Q375 33 363.5 54 Q352 75 352 103 Q352 150 379 174.5 Q406 199 450 199 L481 36 Q483 29 485 25 Q487 21 493 21 Q510 21 521.5 48.5 Q533 76 545 134 L659 672 L587 672 L593 698 L951 698 L945 672 L873 672 L802 341 Q783 253 756 187.5 Q729 122 691.5 78.5 Q654 35 605 13.5 Q556 -8 493 -8 Z " />
<glyph glyph-name="ij" unicode="&#x133;" horiz-adv-x="628" d="M341 639 Q341 615 331.5 594.5 Q322 574 305.5 558.5 Q289 543 268 534.5 Q247 526 225 526 Q191 526 170 547 Q149 568 149 601 Q149 623 158 643.5 Q167 664 182.5 679.5 Q198 695 219 704.5 Q240 714 264 714 Q299 714 320 692.5 Q341 671 341 639 Z M252 206 Q238 146 231 113.5 Q224 81 224 67 Q224 51 239 51 Q251 51 266.5 69.5 Q282 88 295 107 L311 92 Q284 52 245.5 22 Q207 -8 149 -8 Q88 -8 61 19 Q34 46 34 86 Q34 117 41 155.5 Q48 194 58 239 L100 430 Q87 434 71 435.5 Q55 437 39 437 L43 461 L311 478 L252 206 Z M411 426 Q398 430 382 431.5 Q366 433 350 433 L354 458 L619 478 L540 105 Q522 19 481.5 -44.5 Q441 -108 388 -150 Q335 -192 275 -214.5 Q215 -237 158 -242 L156 -220 Q183 -216 206.5 -206.5 Q230 -197 249.5 -177.5 Q269 -158 284 -126.5 Q299 -95 309 -47 L411 426 Z M645 639 Q645 615 635 594.5 Q625 574 609 558.5 Q593 543 571.5 534.5 Q550 526 528 526 Q495 526 473.5 547 Q452 568 452 601 Q452 623 461 643.5 Q470 664 485.5 679.5 Q501 695 522.5 704.5 Q544 714 568 714 Q603 714 624 692.5 Q645 671 645 639 Z " />
<glyph glyph-name="Jcircumflex" unicode="&#x134;" horiz-adv-x="467" d="M95 -8 Q66 -8 40.5 -1 Q15 6 -4 19.5 Q-23 33 -34.5 54 Q-46 75 -46 103 Q-46 150 -19 174.5 Q8 199 52 199 L83 36 Q85 29 87 25 Q89 21 95 21 Q112 21 123.5 48.5 Q135 76 147 134 L261 672 L189 672 L195 698 L553 698 L547 672 L475 672 L404 341 Q385 253 358 187.5 Q331 122 293.5 78.5 Q256 35 207 13.5 Q158 -8 95 -8 Z M463 920 L538 754 L509 739 L389 814 L239 739 L217 753 L367 920 L463 920 Z " />
<glyph glyph-name="jcircumflex" unicode="&#x135;" horiz-adv-x="316" d="M300 694 L375 528 L346 513 L226 588 L76 513 L54 527 L204 694 L300 694 Z M99 426 Q86 430 70 431.5 Q54 433 38 433 L42 458 L307 478 L228 105 Q210 19 169.5 -44.5 Q129 -108 76 -150 Q23 -192 -37 -214.5 Q-97 -237 -154 -242 L-156 -220 Q-129 -216 -105.5 -206.5 Q-82 -197 -62.5 -177.5 Q-43 -158 -28 -126.5 Q-13 -95 -3 -47 L99 426 Z " />
<glyph glyph-name="Kcommaaccent" unicode="&#x136;" horiz-adv-x="715" d="M518 442 Q595 479 630.5 517 Q666 555 666 581 Q666 595 654 602 Q642 609 624 609 L532 609 Q532 633 538 654 Q544 675 557 691.5 Q570 708 590.5 717.5 Q611 727 640 727 Q665 727 682.5 719.5 Q700 712 711.5 700 Q723 688 728 673.5 Q733 659 733 644 Q733 617 720 588 Q707 559 681.5 530.5 Q656 502 618.5 474.5 Q581 447 533 425 L466 394 Q484 399 497.5 400.5 Q511 402 531 402 Q584 402 615 376.5 Q646 351 646 289 Q646 274 644.5 257 Q643 240 638 220 L620 137 Q618 126 617 118 Q616 110 616 102 Q616 72 629 64.5 Q642 57 654 57 Q665 57 674 64 Q683 71 691 82 L705 67 Q693 52 679 38.5 Q665 25 645 14.5 Q625 4 598 -2 Q571 -8 534 -8 Q511 -8 490 -2 Q469 4 452 18 Q435 32 425 54.5 Q415 77 415 110 Q415 121 416.5 135.5 Q418 150 420 164 L435 254 Q438 271 440 284.5 Q442 298 442 309 Q442 353 408 353 Q391 353 378 348.5 Q365 344 353 338 L323 324 L260 26 L342 26 L337 0 L-29 0 L-24 26 L48 26 L185 672 L113 672 L118 698 L476 698 L470 672 L398 672 L330 352 L518 442 Z M262 -269 Q287 -250 303.5 -229.5 Q320 -209 320 -196 Q320 -186 312.5 -179.5 Q305 -173 295.5 -165.5 Q286 -158 278.5 -147.5 Q271 -137 271 -118 Q271 -83 296 -62.5 Q321 -42 356 -42 Q383 -42 400.5 -59.5 Q418 -77 418 -109 Q418 -134 406.5 -159 Q395 -184 376 -207.5 Q357 -231 332.5 -252 Q308 -273 283 -291 L262 -269 Z " />
<glyph glyph-name="kcommaaccent" unicode="&#x137;" horiz-adv-x="565" d="M150 689 Q136 694 116.5 695.5 Q97 697 80 697 L85 720 L357 738 L232 176 Q243 199 266 218 Q289 237 317 253 Q345 269 374 282 Q403 295 427 306 Q451 317 466.5 327 Q482 337 482 346 Q482 354 475 359.5 Q468 365 443 365 L363 365 Q363 413 390 445.5 Q417 478 472 478 Q494 478 509 472.5 Q524 467 533 458 Q542 449 546 437 Q550 425 550 412 Q550 391 542.5 372 Q535 353 515 335 Q495 317 460.5 298.5 Q426 280 372 260 Q384 263 394.5 265 Q405 267 421 267 Q457 267 478 246.5 Q499 226 499 194 Q499 172 496 157 Q493 142 491 125 Q488 108 484.5 92 Q481 76 481 68 Q481 51 494 51 Q501 51 509 56 Q517 61 523.5 68 Q530 75 535.5 82 Q541 89 544 93 L561 80 Q496 -8 409 -8 Q386 -8 365.5 -4 Q345 0 330 10 Q315 20 306 35 Q297 50 297 73 Q297 90 299.5 106 Q302 122 305 139 Q310 161 313 174.5 Q316 188 316 200 Q316 214 302 214 Q276 214 252.5 180.5 Q229 147 218 97 L196 0 L3 0 L150 689 Z M164 -269 Q189 -250 205.5 -229.5 Q222 -209 222 -196 Q222 -186 214.5 -179.5 Q207 -173 197.5 -165.5 Q188 -158 180.5 -147.5 Q173 -137 173 -118 Q173 -83 198 -62.5 Q223 -42 258 -42 Q285 -42 302.5 -59.5 Q320 -77 320 -109 Q320 -134 308.5 -159 Q297 -184 278 -207.5 Q259 -231 234.5 -252 Q210 -273 185 -291 L164 -269 Z " />
<glyph glyph-name="Lacute" unicode="&#x139;" horiz-adv-x="589" d="M348 870 Q373 895 392 908.5 Q411 922 440 922 Q467 922 480 910.5 Q493 899 493 881 Q493 826 421 797 L278 739 L210 739 L348 870 Z M291 26 Q374 26 433 73.5 Q492 121 527 210 L546 259 L572 259 L505 0 L-28 0 L-24 26 L48 26 L186 672 L114 672 L118 698 L477 698 L472 672 L399 672 L261 26 L291 26 Z " />
<glyph glyph-name="lacute" unicode="&#x13a;" horiz-adv-x="314" d="M145 689 Q132 694 111.5 695.5 Q91 697 74 697 L79 720 L351 738 L240 226 Q231 185 225 159.5 Q219 134 216 118 Q213 102 211.5 93 Q210 84 210 76 Q210 62 217.5 56.5 Q225 51 233 51 Q249 51 266 68.5 Q283 86 295 106 L310 92 Q280 44 239.5 18 Q199 -8 140 -8 Q82 -8 53 20 Q24 48 24 94 Q24 115 29 143 Q34 171 46 227 L145 689 Z M298 896 Q323 921 342 934.5 Q361 948 390 948 Q417 948 430 936.5 Q443 925 443 907 Q443 852 371 823 L228 765 L160 765 L298 896 Z " />
<glyph glyph-name="Lcommaaccent" unicode="&#x13b;" horiz-adv-x="589" d="M291 26 Q374 26 433 73.5 Q492 121 527 210 L546 259 L572 259 L505 0 L-28 0 L-24 26 L48 26 L186 672 L114 672 L118 698 L477 698 L472 672 L399 672 L261 26 L291 26 Z M185 -269 Q210 -250 226.5 -229.5 Q243 -209 243 -196 Q243 -186 235.5 -179.5 Q228 -173 218.5 -165.5 Q209 -158 201.5 -147.5 Q194 -137 194 -118 Q194 -83 219 -62.5 Q244 -42 279 -42 Q306 -42 323.5 -59.5 Q341 -77 341 -109 Q341 -134 329.5 -159 Q318 -184 299 -207.5 Q280 -231 255.5 -252 Q231 -273 206 -291 L185 -269 Z " />
<glyph glyph-name="lcommaaccent" unicode="&#x13c;" horiz-adv-x="314" d="M145 689 Q132 694 111.5 695.5 Q91 697 74 697 L79 720 L351 738 L240 226 Q231 185 225 159.5 Q219 134 216 118 Q213 102 211.5 93 Q210 84 210 76 Q210 62 217.5 56.5 Q225 51 233 51 Q249 51 266 68.5 Q283 86 295 106 L310 92 Q280 44 239.5 18 Q199 -8 140 -8 Q82 -8 53 20 Q24 48 24 94 Q24 115 29 143 Q34 171 46 227 L145 689 Z M20 -269 Q45 -250 61.5 -229.5 Q78 -209 78 -196 Q78 -186 70.5 -179.5 Q63 -173 53.5 -165.5 Q44 -158 36.5 -147.5 Q29 -137 29 -118 Q29 -83 54 -62.5 Q79 -42 114 -42 Q141 -42 158.5 -59.5 Q176 -77 176 -109 Q176 -134 164.5 -159 Q153 -184 134 -207.5 Q115 -231 90.5 -252 Q66 -273 41 -291 L20 -269 Z " />
<glyph glyph-name="Lcaron" unicode="&#x13d;" horiz-adv-x="589" d="M291 26 Q374 26 433 73.5 Q492 121 527 210 L546 259 L572 259 L505 0 L-28 0 L-24 26 L48 26 L186 672 L114 672 L118 698 L477 698 L472 672 L399 672 L261 26 L291 26 Z M492 486 Q517 505 533.5 525.5 Q550 546 550 559 Q550 569 542.5 575.5 Q535 582 525.5 589.5 Q516 597 508.5 607.5 Q501 618 501 637 Q501 672 526 692.5 Q551 713 586 713 Q613 713 630.5 695.5 Q648 678 648 646 Q648 621 636.5 596 Q625 571 606 547.5 Q587 524 562.5 503 Q538 482 513 464 L492 486 Z " />
<glyph glyph-name="lcaron" unicode="&#x13e;" horiz-adv-x="405" d="M145 689 Q132 694 111.5 695.5 Q91 697 74 697 L79 720 L351 738 L240 226 Q231 185 225 159.5 Q219 134 216 118 Q213 102 211.5 93 Q210 84 210 76 Q210 62 217.5 56.5 Q225 51 233 51 Q249 51 266 68.5 Q283 86 295 106 L310 92 Q280 44 239.5 18 Q199 -8 140 -8 Q82 -8 53 20 Q24 48 24 94 Q24 115 29 143 Q34 171 46 227 L145 689 Z M367 517 Q392 536 408.5 556.5 Q425 577 425 590 Q425 600 417.5 606.5 Q410 613 400.5 620.5 Q391 628 383.5 638.5 Q376 649 376 668 Q376 703 401 723.5 Q426 744 461 744 Q488 744 505.5 726.5 Q523 709 523 677 Q523 652 511.5 627 Q500 602 481 578.5 Q462 555 437.5 534 Q413 513 388 495 L367 517 Z " />
<glyph glyph-name="Ldot" unicode="&#x13f;" horiz-adv-x="589" d="M291 26 Q374 26 433 73.5 Q492 121 527 210 L546 259 L572 259 L505 0 L-28 0 L-24 26 L48 26 L186 672 L114 672 L118 698 L477 698 L472 672 L399 672 L261 26 L291 26 Z M563 388 Q563 339 531.5 311 Q500 283 457 283 Q428 283 409.5 302.5 Q391 322 391 351 Q391 372 399.5 390.5 Q408 409 422 423 Q436 437 455 445.5 Q474 454 494 454 Q525 454 544 435 Q563 416 563 388 Z " />
<glyph glyph-name="ldot" unicode="&#x140;" horiz-adv-x="486" d="M145 689 Q132 694 111.5 695.5 Q91 697 74 697 L79 720 L351 738 L240 226 Q231 185 225 159.5 Q219 134 216 118 Q213 102 211.5 93 Q210 84 210 76 Q210 62 217.5 56.5 Q225 51 233 51 Q249 51 266 68.5 Q283 86 295 106 L310 92 Q280 44 239.5 18 Q199 -8 140 -8 Q82 -8 53 20 Q24 48 24 94 Q24 115 29 143 Q34 171 46 227 L145 689 Z M504 379 Q504 330 472.5 302 Q441 274 398 274 Q369 274 350.5 293.5 Q332 313 332 342 Q332 363 340.5 381.5 Q349 400 363 414 Q377 428 396 436.5 Q415 445 435 445 Q466 445 485 426 Q504 407 504 379 Z " />
<glyph glyph-name="Lslash" unicode="&#x141;" horiz-adv-x="597" d="M34 269 L112 294 L193 672 L121 672 L125 698 L484 698 L479 672 L407 672 L342 374 L517 431 L509 397 L335 340 L268 26 L298 26 Q381 26 440 73.5 Q499 121 534 210 L553 259 L579 259 L512 0 L-21 0 L-17 26 L55 26 L105 260 L27 235 L34 269 Z " />
<glyph glyph-name="lslash" unicode="&#x142;" horiz-adv-x="336" d="M-4 306 L69 335 L145 689 Q132 694 111.5 695.5 Q91 697 74 697 L79 720 L351 738 L282 420 L375 457 L368 427 L275 390 L240 226 Q231 186 225.5 160 Q220 134 216.5 117.5 Q213 101 211.5 91.5 Q210 82 210 76 Q210 62 217.5 56.5 Q225 51 233 51 Q249 51 266 68.5 Q283 86 295 106 L310 92 Q280 44 238 18 Q196 -8 137 -8 Q79 -8 51.5 19.5 Q24 47 24 93 Q24 119 32 157.5 Q40 196 49 239 L63 305 L-10 276 L-4 306 Z " />
<glyph glyph-name="Nacute" unicode="&#x143;" horiz-adv-x="714" d="M684 672 L602 672 L606 698 L790 698 L785 672 L713 672 L570 0 L387 0 L210 676 L71 26 L154 26 L149 0 L-33 0 L-28 26 L43 26 L181 672 L109 672 L114 698 L445 698 L575 160 L684 672 Z M527 880 Q552 905 571 918.5 Q590 932 619 932 Q646 932 659 920.5 Q672 909 672 891 Q672 836 600 807 L457 749 L389 749 L527 880 Z " />
<glyph glyph-name="nacute" unicode="&#x144;" horiz-adv-x="630" d="M612 92 Q585 52 546.5 22 Q508 -8 450 -8 Q393 -8 363 19 Q333 46 333 86 Q333 101 334.5 115 Q336 129 339 146.5 Q342 164 347 186 Q352 208 359 239 Q371 295 378 328 Q385 361 385 382 Q385 414 367 414 Q353 414 337.5 397.5 Q322 381 306 352.5 Q290 324 276 285.5 Q262 247 253 202 L210 0 L8 0 L101 431 Q88 436 72 437.5 Q56 439 39 439 L44 462 L312 480 L280 352 Q309 407 355.5 442.5 Q402 478 468 478 Q529 478 557.5 448.5 Q586 419 586 374 Q586 359 584.5 345.5 Q583 332 579.5 316 Q576 300 570.5 278.5 Q565 257 558 226 Q549 185 542.5 158.5 Q536 132 532 114.5 Q528 97 526.5 86.5 Q525 76 525 67 Q525 51 540 51 Q552 51 567.5 69.5 Q583 88 596 107 L612 92 Z M440 654 Q465 679 484 692.5 Q503 706 532 706 Q559 706 572 694.5 Q585 683 585 665 Q585 610 513 581 L370 523 L302 523 L440 654 Z " />
<glyph glyph-name="Ncommaaccent" unicode="&#x145;" horiz-adv-x="714" d="M684 672 L602 672 L606 698 L790 698 L785 672 L713 672 L570 0 L387 0 L210 676 L71 26 L154 26 L149 0 L-33 0 L-28 26 L43 26 L181 672 L109 672 L114 698 L445 698 L575 160 L684 672 Z M199 -269 Q224 -250 240.5 -229.5 Q257 -209 257 -196 Q257 -186 249.5 -179.5 Q242 -173 232.5 -165.5 Q223 -158 215.5 -147.5 Q208 -137 208 -118 Q208 -83 233 -62.5 Q258 -42 293 -42 Q320 -42 337.5 -59.5 Q355 -77 355 -109 Q355 -134 343.5 -159 Q332 -184 313 -207.5 Q294 -231 269.5 -252 Q245 -273 220 -291 L199 -269 Z " />
<glyph glyph-name="ncommaaccent" unicode="&#x146;" horiz-adv-x="630" d="M612 92 Q585 52 546.5 22 Q508 -8 450 -8 Q393 -8 363 19 Q333 46 333 86 Q333 101 334.5 115 Q336 129 339 146.5 Q342 164 347 186 Q352 208 359 239 Q371 295 378 328 Q385 361 385 382 Q385 414 367 414 Q353 414 337.5 397.5 Q322 381 306 352.5 Q290 324 276 285.5 Q262 247 253 202 L210 0 L8 0 L101 431 Q88 436 72 437.5 Q56 439 39 439 L44 462 L312 480 L280 352 Q309 407 355.5 442.5 Q402 478 468 478 Q529 478 557.5 448.5 Q586 419 586 374 Q586 359 584.5 345.5 Q583 332 579.5 316 Q576 300 570.5 278.5 Q565 257 558 226 Q549 185 542.5 158.5 Q536 132 532 114.5 Q528 97 526.5 86.5 Q525 76 525 67 Q525 51 540 51 Q552 51 567.5 69.5 Q583 88 596 107 L612 92 Z M183 -269 Q208 -250 224.5 -229.5 Q241 -209 241 -196 Q241 -186 233.5 -179.5 Q226 -173 216.5 -165.5 Q207 -158 199.5 -147.5 Q192 -137 192 -118 Q192 -83 217 -62.5 Q242 -42 277 -42 Q304 -42 321.5 -59.5 Q339 -77 339 -109 Q339 -134 327.5 -159 Q316 -184 297 -207.5 Q278 -231 253.5 -252 Q229 -273 204 -291 L183 -269 Z " />
<glyph glyph-name="Ncaron" unicode="&#x147;" horiz-adv-x="714" d="M684 672 L602 672 L606 698 L790 698 L785 672 L713 672 L570 0 L387 0 L210 676 L71 26 L154 26 L149 0 L-33 0 L-28 26 L43 26 L181 672 L109 672 L114 698 L445 698 L575 160 L684 672 Z M430 758 L351 924 L378 939 L498 863 L649 939 L669 924 L525 758 L430 758 Z " />
<glyph glyph-name="ncaron" unicode="&#x148;" horiz-adv-x="630" d="M612 92 Q585 52 546.5 22 Q508 -8 450 -8 Q393 -8 363 19 Q333 46 333 86 Q333 101 334.5 115 Q336 129 339 146.5 Q342 164 347 186 Q352 208 359 239 Q371 295 378 328 Q385 361 385 382 Q385 414 367 414 Q353 414 337.5 397.5 Q322 381 306 352.5 Q290 324 276 285.5 Q262 247 253 202 L210 0 L8 0 L101 431 Q88 436 72 437.5 Q56 439 39 439 L44 462 L312 480 L280 352 Q309 407 355.5 442.5 Q402 478 468 478 Q529 478 557.5 448.5 Q586 419 586 374 Q586 359 584.5 345.5 Q583 332 579.5 316 Q576 300 570.5 278.5 Q565 257 558 226 Q549 185 542.5 158.5 Q536 132 532 114.5 Q528 97 526.5 86.5 Q525 76 525 67 Q525 51 540 51 Q552 51 567.5 69.5 Q583 88 596 107 L612 92 Z M326 532 L247 698 L274 713 L394 637 L545 713 L565 698 L421 532 L326 532 Z " />
<glyph glyph-name="Omacron" unicode="&#x14c;" horiz-adv-x="689" d="M444 712 Q505 712 551.5 692.5 Q598 673 629 639.5 Q660 606 675.5 561 Q691 516 691 465 Q691 367 667 281 Q643 195 594 131 Q545 67 470.5 29.5 Q396 -8 296 -8 Q233 -8 186 9 Q139 26 107.5 57.5 Q76 89 60 133.5 Q44 178 44 233 Q44 325 67 411.5 Q90 498 139 564.5 Q188 631 263.5 671.5 Q339 712 444 712 Z M302 20 Q330 20 355 51 Q380 82 400.5 131.5 Q421 181 437 242.5 Q453 304 464 366 Q475 428 480.5 484 Q486 540 486 577 Q486 602 484.5 622 Q483 642 478 656 Q473 670 463.5 677.5 Q454 685 438 685 Q410 685 385.5 653.5 Q361 622 340.5 571.5 Q320 521 303.5 458 Q287 395 275.5 332 Q264 269 258 212.5 Q252 156 252 119 Q252 70 260.5 45 Q269 20 302 20 Z M300 781 L322 881 L631 881 L609 781 L300 781 Z " />
<glyph glyph-name="omacron" unicode="&#x14d;" horiz-adv-x="573" d="M333 478 Q391 478 431 462.5 Q471 447 496.5 420 Q522 393 533.5 357.5 Q545 322 545 282 Q545 229 526.5 177.5 Q508 126 469.5 84.5 Q431 43 373 17.5 Q315 -8 237 -8 Q179 -8 138 7 Q97 22 71.5 48 Q46 74 34.5 109 Q23 144 23 185 Q23 237 40 289.5 Q57 342 94 384 Q131 426 190 452 Q249 478 333 478 Z M240 19 Q256 19 271.5 39.5 Q287 60 300 92.5 Q313 125 324 165.5 Q335 206 343 246.5 Q351 287 355 323.5 Q359 360 359 384 Q359 452 327 452 Q311 452 296 431 Q281 410 267.5 376.5 Q254 343 242.5 301.5 Q231 260 223 218.5 Q215 177 210.5 140 Q206 103 206 80 Q206 49 213.5 34 Q221 19 240 19 Z M194 555 L216 655 L525 655 L503 555 L194 555 Z " />
<glyph glyph-name="Obreve" unicode="&#x14e;" horiz-adv-x="689" d="M444 712 Q505 712 551.5 692.5 Q598 673 629 639.5 Q660 606 675.5 561 Q691 516 691 465 Q691 367 667 281 Q643 195 594 131 Q545 67 470.5 29.5 Q396 -8 296 -8 Q233 -8 186 9 Q139 26 107.5 57.5 Q76 89 60 133.5 Q44 178 44 233 Q44 325 67 411.5 Q90 498 139 564.5 Q188 631 263.5 671.5 Q339 712 444 712 Z M302 20 Q330 20 355 51 Q380 82 400.5 131.5 Q421 181 437 242.5 Q453 304 464 366 Q475 428 480.5 484 Q486 540 486 577 Q486 602 484.5 622 Q483 642 478 656 Q473 670 463.5 677.5 Q454 685 438 685 Q410 685 385.5 653.5 Q361 622 340.5 571.5 Q320 521 303.5 458 Q287 395 275.5 332 Q264 269 258 212.5 Q252 156 252 119 Q252 70 260.5 45 Q269 20 302 20 Z M641 929 Q625 848 580 800.5 Q535 753 455 753 Q395 753 367.5 784.5 Q340 816 340 868 Q340 884 343 898 Q346 912 353 929 L381 929 Q381 909 388.5 895 Q396 881 408 872.5 Q420 864 436 860.5 Q452 857 469 857 Q485 857 505.5 860 Q526 863 546 871 Q566 879 584 893 Q602 907 613 929 L641 929 Z " />
<glyph glyph-name="obreve" unicode="&#x14f;" horiz-adv-x="573" d="M524 703 Q508 622 463 574.5 Q418 527 338 527 Q278 527 250.5 558.5 Q223 590 223 642 Q223 658 226 672 Q229 686 236 703 L264 703 Q264 683 271.5 669 Q279 655 291 646.5 Q303 638 319 634.5 Q335 631 352 631 Q368 631 388.5 634 Q409 637 429 645 Q449 653 467 667 Q485 681 496 703 L524 703 Z M333 478 Q391 478 431 462.5 Q471 447 496.5 420 Q522 393 533.5 357.5 Q545 322 545 282 Q545 229 526.5 177.5 Q508 126 469.5 84.5 Q431 43 373 17.5 Q315 -8 237 -8 Q179 -8 138 7 Q97 22 71.5 48 Q46 74 34.5 109 Q23 144 23 185 Q23 237 40 289.5 Q57 342 94 384 Q131 426 190 452 Q249 478 333 478 Z M240 19 Q256 19 271.5 39.5 Q287 60 300 92.5 Q313 125 324 165.5 Q335 206 343 246.5 Q351 287 355 323.5 Q359 360 359 384 Q359 452 327 452 Q311 452 296 431 Q281 410 267.5 376.5 Q254 343 242.5 301.5 Q231 260 223 218.5 Q215 177 210.5 140 Q206 103 206 80 Q206 49 213.5 34 Q221 19 240 19 Z " />
<glyph glyph-name="Ohungarumlaut" unicode="&#x150;" horiz-adv-x="689" d="M444 712 Q505 712 551.5 692.5 Q598 673 629 639.5 Q660 606 675.5 561 Q691 516 691 465 Q691 367 667 281 Q643 195 594 131 Q545 67 470.5 29.5 Q396 -8 296 -8 Q233 -8 186 9 Q139 26 107.5 57.5 Q76 89 60 133.5 Q44 178 44 233 Q44 325 67 411.5 Q90 498 139 564.5 Q188 631 263.5 671.5 Q339 712 444 712 Z M302 20 Q330 20 355 51 Q380 82 400.5 131.5 Q421 181 437 242.5 Q453 304 464 366 Q475 428 480.5 484 Q486 540 486 577 Q486 602 484.5 622 Q483 642 478 656 Q473 670 463.5 677.5 Q454 685 438 685 Q410 685 385.5 653.5 Q361 622 340.5 571.5 Q320 521 303.5 458 Q287 395 275.5 332 Q264 269 258 212.5 Q252 156 252 119 Q252 70 260.5 45 Q269 20 302 20 Z M420 880 Q446 903 467 917.5 Q488 932 515 932 Q538 932 549.5 920.5 Q561 909 561 892 Q561 871 543.5 852 Q526 833 487 815 L338 749 L273 749 L420 880 Z M606 880 Q632 903 653 917.5 Q674 932 702 932 Q724 932 735.5 920.5 Q747 909 747 892 Q747 871 729.5 852 Q712 833 673 815 L524 749 L458 749 L606 880 Z " />
<glyph glyph-name="ohungarumlaut" unicode="&#x151;" horiz-adv-x="573" d="M333 478 Q391 478 431 462.5 Q471 447 496.5 420 Q522 393 533.5 357.5 Q545 322 545 282 Q545 229 526.5 177.5 Q508 126 469.5 84.5 Q431 43 373 17.5 Q315 -8 237 -8 Q179 -8 138 7 Q97 22 71.5 48 Q46 74 34.5 109 Q23 144 23 185 Q23 237 40 289.5 Q57 342 94 384 Q131 426 190 452 Q249 478 333 478 Z M240 19 Q256 19 271.5 39.5 Q287 60 300 92.5 Q313 125 324 165.5 Q335 206 343 246.5 Q351 287 355 323.5 Q359 360 359 384 Q359 452 327 452 Q311 452 296 431 Q281 410 267.5 376.5 Q254 343 242.5 301.5 Q231 260 223 218.5 Q215 177 210.5 140 Q206 103 206 80 Q206 49 213.5 34 Q221 19 240 19 Z M314 654 Q340 677 361 691.5 Q382 706 409 706 Q432 706 443.5 694.5 Q455 683 455 666 Q455 645 437.5 626 Q420 607 381 589 L232 523 L167 523 L314 654 Z M500 654 Q526 677 547 691.5 Q568 706 596 706 Q618 706 629.5 694.5 Q641 683 641 666 Q641 645 623.5 626 Q606 607 567 589 L418 523 L352 523 L500 654 Z " />
<glyph glyph-name="OE" unicode="&#x152;" horiz-adv-x="993" d="M345 41 Q368 41 391 61.5 Q414 82 435 117.5 Q456 153 474.5 201 Q493 249 506.5 305 Q520 361 527.5 421.5 Q535 482 535 543 Q535 605 522 638 Q509 671 476 671 Q437 671 400 628 Q363 585 334.5 515.5 Q306 446 289 357 Q272 268 272 177 Q272 108 289.5 74.5 Q307 41 345 41 Z M774 672 L707 354 L860 354 L854 328 L701 328 L636 26 L680 26 Q730 26 768.5 37 Q807 48 836 68 Q865 88 885.5 116.5 Q906 145 920 181 L936 222 L959 222 L912 0 L419 0 L432 56 Q402 26 364.5 9 Q327 -8 268 -8 Q217 -8 175.5 9 Q134 26 105 57.5 Q76 89 60 135 Q44 181 44 240 Q44 345 77 432 Q110 519 163.5 581.5 Q217 644 285 678 Q353 712 423 712 Q480 712 511 693.5 Q542 675 561 650 L568 698 L908 698 Q971 698 1006.5 669 Q1042 640 1042 598 Q1042 572 1032.5 549 Q1023 526 1006 508.5 Q989 491 966 480.5 Q943 470 915 470 Q880 470 862 481.5 Q844 493 831 509 L973 651 Q965 659 947.5 665.5 Q930 672 893 672 L774 672 Z " />
<glyph glyph-name="oe" unicode="&#x153;" horiz-adv-x="798" d="M650 478 Q690 478 719.5 468.5 Q749 459 767.5 443 Q786 427 795 405.5 Q804 384 804 360 Q804 320 786 290.5 Q768 261 738 242 Q708 223 668.5 214 Q629 205 586 205 Q569 205 559 206.5 Q549 208 539 210 Q538 202 537.5 194 Q537 186 537 178 Q537 152 541 127.5 Q545 103 554.5 83 Q564 63 579.5 51 Q595 39 619 39 Q641 39 659 47.5 Q677 56 692 69.5 Q707 83 718.5 101 Q730 119 739 138 L760 128 Q742 88 718 61.5 Q694 35 665.5 19.5 Q637 4 606 -2 Q575 -8 543 -8 Q490 -8 455.5 9.5 Q421 27 400 48 Q371 27 325.5 9.5 Q280 -8 220 -8 Q168 -8 130.5 7 Q93 22 69 48 Q45 74 33.5 109 Q22 144 22 185 Q22 237 40 289.5 Q58 342 94.5 384 Q131 426 186.5 452 Q242 478 317 478 Q378 478 421.5 462 Q465 446 491 418 Q523 447 564 462.5 Q605 478 650 478 Z M239 19 Q255 19 270.5 39.5 Q286 60 299 92.5 Q312 125 323 165.5 Q334 206 342 246.5 Q350 287 354 323.5 Q358 360 358 384 Q358 452 326 452 Q310 452 295 431 Q280 410 266.5 376.5 Q253 343 241.5 301.5 Q230 260 222 218.5 Q214 177 209.5 140 Q205 103 205 80 Q205 49 212.5 34 Q220 19 239 19 Z M640 452 Q625 452 610.5 434 Q596 416 583 386 Q570 356 559.5 317 Q549 278 543 236 Q553 231 564 231 Q586 231 603.5 248 Q621 265 633 291 Q645 317 651.5 347 Q658 377 658 403 Q658 423 653.5 437.5 Q649 452 640 452 Z " />
<glyph glyph-name="Racute" unicode="&#x154;" horiz-adv-x="703" d="M696 60 Q672 33 632 12.5 Q592 -8 545 -8 Q515 -8 489.5 -1.5 Q464 5 445 20 Q426 35 415 60 Q404 85 404 122 Q404 139 405.5 161 Q407 183 410 206 Q413 228 414 247 Q415 266 415 280 Q415 314 406 326.5 Q397 339 379 339 L337 339 L271 26 L343 26 L337 0 L-20 0 L-14 26 L57 26 L165 530 Q176 578 198.5 612.5 Q221 647 252 670 Q237 667 217.5 661.5 Q198 656 177.5 649 Q157 642 137.5 635 Q118 628 103 621 L93 648 Q119 658 150 669.5 Q181 681 219 690.5 Q257 700 302.5 706 Q348 712 402 712 Q481 712 535.5 699.5 Q590 687 624 665 Q658 643 673 613 Q688 583 688 549 Q688 511 672 477.5 Q656 444 628.5 418.5 Q601 393 564.5 376 Q528 359 487 355 Q556 347 590 315 Q624 283 624 235 Q624 221 623.5 209 Q623 197 621 178 Q619 158 618 142.5 Q617 127 617 111 Q617 57 651 57 Q665 57 683 75 L696 60 Z M410 687 L342 366 L384 366 Q416 366 439 384 Q462 402 476.5 432 Q491 462 498 501.5 Q505 541 505 584 Q505 640 484.5 663.5 Q464 687 427 687 L410 687 Z M494 880 Q519 905 538 918.5 Q557 932 586 932 Q613 932 626 920.5 Q639 909 639 891 Q639 836 567 807 L424 749 L356 749 L494 880 Z " />
<glyph glyph-name="racute" unicode="&#x155;" horiz-adv-x="509" d="M434 478 Q477 478 504.5 451.5 Q532 425 532 385 Q532 356 523 333 Q514 310 498.5 293.5 Q483 277 463 268 Q443 259 421 259 Q392 259 371 270.5 Q350 282 342 295 L453 440 Q448 445 439.5 448 Q431 451 418 451 Q395 451 370 431 Q345 411 322.5 376.5 Q300 342 281.5 296.5 Q263 251 252 199 L210 0 L8 0 L101 431 Q88 436 72 437.5 Q56 439 39 439 L44 462 L312 480 L264 319 Q276 343 291 371 Q306 399 326 423 Q346 447 372.5 462.5 Q399 478 434 478 Z M368 654 Q393 679 412 692.5 Q431 706 460 706 Q487 706 500 694.5 Q513 683 513 665 Q513 610 441 581 L298 523 L230 523 L368 654 Z " />
<glyph glyph-name="Rcommaaccent" unicode="&#x156;" horiz-adv-x="703" d="M696 60 Q672 33 632 12.5 Q592 -8 545 -8 Q515 -8 489.5 -1.5 Q464 5 445 20 Q426 35 415 60 Q404 85 404 122 Q404 139 405.5 161 Q407 183 410 206 Q413 228 414 247 Q415 266 415 280 Q415 314 406 326.5 Q397 339 379 339 L337 339 L271 26 L343 26 L337 0 L-20 0 L-14 26 L57 26 L165 530 Q176 578 198.5 612.5 Q221 647 252 670 Q237 667 217.5 661.5 Q198 656 177.5 649 Q157 642 137.5 635 Q118 628 103 621 L93 648 Q119 658 150 669.5 Q181 681 219 690.5 Q257 700 302.5 706 Q348 712 402 712 Q481 712 535.5 699.5 Q590 687 624 665 Q658 643 673 613 Q688 583 688 549 Q688 511 672 477.5 Q656 444 628.5 418.5 Q601 393 564.5 376 Q528 359 487 355 Q556 347 590 315 Q624 283 624 235 Q624 221 623.5 209 Q623 197 621 178 Q619 158 618 142.5 Q617 127 617 111 Q617 57 651 57 Q665 57 683 75 L696 60 Z M410 687 L342 366 L384 366 Q416 366 439 384 Q462 402 476.5 432 Q491 462 498 501.5 Q505 541 505 584 Q505 640 484.5 663.5 Q464 687 427 687 L410 687 Z M271 -269 Q296 -250 312.5 -229.5 Q329 -209 329 -196 Q329 -186 321.5 -179.5 Q314 -173 304.5 -165.5 Q295 -158 287.5 -147.5 Q280 -137 280 -118 Q280 -83 305 -62.5 Q330 -42 365 -42 Q392 -42 409.5 -59.5 Q427 -77 427 -109 Q427 -134 415.5 -159 Q404 -184 385 -207.5 Q366 -231 341.5 -252 Q317 -273 292 -291 L271 -269 Z " />
<glyph glyph-name="rcommaaccent" unicode="&#x157;" horiz-adv-x="509" d="M434 478 Q477 478 504.5 451.5 Q532 425 532 385 Q532 356 523 333 Q514 310 498.5 293.5 Q483 277 463 268 Q443 259 421 259 Q392 259 371 270.5 Q350 282 342 295 L453 440 Q448 445 439.5 448 Q431 451 418 451 Q395 451 370 431 Q345 411 322.5 376.5 Q300 342 281.5 296.5 Q263 251 252 199 L210 0 L8 0 L101 431 Q88 436 72 437.5 Q56 439 39 439 L44 462 L312 480 L264 319 Q276 343 291 371 Q306 399 326 423 Q346 447 372.5 462.5 Q399 478 434 478 Z M7 -269 Q32 -250 48.5 -229.5 Q65 -209 65 -196 Q65 -186 57.5 -179.5 Q50 -173 40.5 -165.5 Q31 -158 23.5 -147.5 Q16 -137 16 -118 Q16 -83 41 -62.5 Q66 -42 101 -42 Q128 -42 145.5 -59.5 Q163 -77 163 -109 Q163 -134 151.5 -159 Q140 -184 121 -207.5 Q102 -231 77.5 -252 Q53 -273 28 -291 L7 -269 Z " />
<glyph glyph-name="Rcaron" unicode="&#x158;" horiz-adv-x="703" d="M696 60 Q672 33 632 12.5 Q592 -8 545 -8 Q515 -8 489.5 -1.5 Q464 5 445 20 Q426 35 415 60 Q404 85 404 122 Q404 139 405.5 161 Q407 183 410 206 Q413 228 414 247 Q415 266 415 280 Q415 314 406 326.5 Q397 339 379 339 L337 339 L271 26 L343 26 L337 0 L-20 0 L-14 26 L57 26 L165 530 Q176 578 198.5 612.5 Q221 647 252 670 Q237 667 217.5 661.5 Q198 656 177.5 649 Q157 642 137.5 635 Q118 628 103 621 L93 648 Q119 658 150 669.5 Q181 681 219 690.5 Q257 700 302.5 706 Q348 712 402 712 Q481 712 535.5 699.5 Q590 687 624 665 Q658 643 673 613 Q688 583 688 549 Q688 511 672 477.5 Q656 444 628.5 418.5 Q601 393 564.5 376 Q528 359 487 355 Q556 347 590 315 Q624 283 624 235 Q624 221 623.5 209 Q623 197 621 178 Q619 158 618 142.5 Q617 127 617 111 Q617 57 651 57 Q665 57 683 75 L696 60 Z M410 687 L342 366 L384 366 Q416 366 439 384 Q462 402 476.5 432 Q491 462 498 501.5 Q505 541 505 584 Q505 640 484.5 663.5 Q464 687 427 687 L410 687 Z M388 758 L309 924 L336 939 L456 863 L607 939 L627 924 L483 758 L388 758 Z " />
<glyph glyph-name="rcaron" unicode="&#x159;" horiz-adv-x="509" d="M434 478 Q477 478 504.5 451.5 Q532 425 532 385 Q532 356 523 333 Q514 310 498.5 293.5 Q483 277 463 268 Q443 259 421 259 Q392 259 371 270.5 Q350 282 342 295 L453 440 Q448 445 439.5 448 Q431 451 418 451 Q395 451 370 431 Q345 411 322.5 376.5 Q300 342 281.5 296.5 Q263 251 252 199 L210 0 L8 0 L101 431 Q88 436 72 437.5 Q56 439 39 439 L44 462 L312 480 L264 319 Q276 343 291 371 Q306 399 326 423 Q346 447 372.5 462.5 Q399 478 434 478 Z M283 532 L204 698 L231 713 L351 637 L502 713 L522 698 L378 532 L283 532 Z " />
<glyph glyph-name="Sacute" unicode="&#x15a;" horiz-adv-x="556" d="M214 23 Q243 23 269 31.5 Q295 40 314 55.5 Q333 71 344 93 Q355 115 355 141 Q355 173 329.5 206 Q304 239 237 281 Q198 306 170 328 Q142 350 124 374 Q106 398 97.5 425.5 Q89 453 89 489 Q89 527 107 566.5 Q125 606 161 638.5 Q197 671 252 691.5 Q307 712 382 712 Q430 712 466.5 701.5 Q503 691 527.5 673.5 Q552 656 564 633 Q576 610 576 585 Q576 565 568.5 548 Q561 531 548 519 Q535 507 518.5 500.5 Q502 494 484 494 Q459 494 438 505.5 Q417 517 406 534 L510 641 Q496 656 469.5 668.5 Q443 681 405 681 Q379 681 355.5 674.5 Q332 668 314 656 Q296 644 285 626 Q274 608 274 586 Q274 551 302.5 521 Q331 491 393 453 Q434 427 461.5 404 Q489 381 506 357.5 Q523 334 530.5 309 Q538 284 538 255 Q538 198 514 150 Q490 102 448 67 Q406 32 349.5 12 Q293 -8 229 -8 Q184 -8 146.5 1 Q109 10 81.5 27.5 Q54 45 39 70 Q24 95 24 127 Q24 171 52.5 199 Q81 227 122 227 Q151 227 171.5 216 Q192 205 205 186 L92 63 Q113 45 143 34 Q173 23 214 23 Z M403 880 Q428 905 447 918.5 Q466 932 495 932 Q522 932 535 920.5 Q548 909 548 891 Q548 836 476 807 L333 749 L265 749 L403 880 Z " />
<glyph glyph-name="sacute" unicode="&#x15b;" horiz-adv-x="423" d="M142 15 Q179 15 202.5 33 Q226 51 226 80 Q226 104 206.5 127.5 Q187 151 134 188 Q85 223 66 253.5 Q47 284 47 317 Q47 390 104 434 Q161 478 262 478 Q340 478 380 451.5 Q420 425 420 387 Q420 360 403.5 344 Q387 328 359 328 Q338 328 324 336 Q310 344 303 352 L377 415 Q369 426 350 438 Q331 450 300 450 Q261 450 244 431 Q227 412 227 389 Q227 366 246 347.5 Q265 329 305 301 Q398 233 398 163 Q398 113 376.5 80 Q355 47 320 27.5 Q285 8 241.5 0 Q198 -8 155 -8 Q127 -8 99.5 -3 Q72 2 50.5 13.5 Q29 25 15.5 42 Q2 59 2 83 Q2 106 18.5 125.5 Q35 145 64 145 Q85 145 97.5 136.5 Q110 128 117 114 L55 57 Q66 38 89.5 26.5 Q113 15 142 15 Z M320 654 Q345 679 364 692.5 Q383 706 412 706 Q439 706 452 694.5 Q465 683 465 665 Q465 610 393 581 L250 523 L182 523 L320 654 Z " />
<glyph glyph-name="Scircumflex" unicode="&#x15c;" horiz-adv-x="556" d="M214 23 Q243 23 269 31.5 Q295 40 314 55.5 Q333 71 344 93 Q355 115 355 141 Q355 173 329.5 206 Q304 239 237 281 Q198 306 170 328 Q142 350 124 374 Q106 398 97.5 425.5 Q89 453 89 489 Q89 527 107 566.5 Q125 606 161 638.5 Q197 671 252 691.5 Q307 712 382 712 Q430 712 466.5 701.5 Q503 691 527.5 673.5 Q552 656 564 633 Q576 610 576 585 Q576 565 568.5 548 Q561 531 548 519 Q535 507 518.5 500.5 Q502 494 484 494 Q459 494 438 505.5 Q417 517 406 534 L510 641 Q496 656 469.5 668.5 Q443 681 405 681 Q379 681 355.5 674.5 Q332 668 314 656 Q296 644 285 626 Q274 608 274 586 Q274 551 302.5 521 Q331 491 393 453 Q434 427 461.5 404 Q489 381 506 357.5 Q523 334 530.5 309 Q538 284 538 255 Q538 198 514 150 Q490 102 448 67 Q406 32 349.5 12 Q293 -8 229 -8 Q184 -8 146.5 1 Q109 10 81.5 27.5 Q54 45 39 70 Q24 95 24 127 Q24 171 52.5 199 Q81 227 122 227 Q151 227 171.5 216 Q192 205 205 186 L92 63 Q113 45 143 34 Q173 23 214 23 Z M454 920 L529 754 L500 739 L380 814 L230 739 L208 753 L358 920 L454 920 Z " />
<glyph glyph-name="scircumflex" unicode="&#x15d;" horiz-adv-x="423" d="M142 15 Q179 15 202.5 33 Q226 51 226 80 Q226 104 206.5 127.5 Q187 151 134 188 Q85 223 66 253.5 Q47 284 47 317 Q47 390 104 434 Q161 478 262 478 Q340 478 380 451.5 Q420 425 420 387 Q420 360 403.5 344 Q387 328 359 328 Q338 328 324 336 Q310 344 303 352 L377 415 Q369 426 350 438 Q331 450 300 450 Q261 450 244 431 Q227 412 227 389 Q227 366 246 347.5 Q265 329 305 301 Q398 233 398 163 Q398 113 376.5 80 Q355 47 320 27.5 Q285 8 241.5 0 Q198 -8 155 -8 Q127 -8 99.5 -3 Q72 2 50.5 13.5 Q29 25 15.5 42 Q2 59 2 83 Q2 106 18.5 125.5 Q35 145 64 145 Q85 145 97.5 136.5 Q110 128 117 114 L55 57 Q66 38 89.5 26.5 Q113 15 142 15 Z M362 694 L437 528 L408 513 L288 588 L138 513 L116 527 L266 694 L362 694 Z " />
<glyph glyph-name="Scedilla" unicode="&#x15e;" horiz-adv-x="556" d="M227 -8 Q182 -8 145 1 Q108 10 81 27.5 Q54 45 39 70 Q24 95 24 127 Q24 171 52.5 199 Q81 227 122 227 Q151 227 171.5 216 Q192 205 205 186 L92 63 Q113 45 143 34 Q173 23 214 23 Q243 23 269 31.5 Q295 40 314 55.5 Q333 71 344 93 Q355 115 355 141 Q355 173 329.5 206.5 Q304 240 237 282 Q198 307 170 329 Q142 351 124 375 Q106 399 97.5 426.5 Q89 454 89 490 Q89 528 107 567.5 Q125 607 161 639 Q197 671 252 691.5 Q307 712 382 712 Q430 712 466.5 701.5 Q503 691 527.5 673.5 Q552 656 564 633 Q576 610 576 585 Q576 565 568.5 548 Q561 531 548 519 Q535 507 518.5 500.5 Q502 494 484 494 Q459 494 438 505.5 Q417 517 406 534 L510 641 Q496 656 469.5 668.5 Q443 681 405 681 Q379 681 355.5 674.5 Q332 668 314 656 Q296 644 285 626 Q274 608 274 586 Q274 551 302.5 521 Q331 491 393 453 Q434 427 461.5 404 Q489 381 506 357.5 Q523 334 530.5 309 Q538 284 538 255 Q538 201 516 154.5 Q494 108 456 73.5 Q418 39 366 17.5 Q314 -4 254 -8 L221 -67 Q227 -65 236.5 -64 Q246 -63 258 -63 Q305 -63 330.5 -84.5 Q356 -106 356 -138 Q356 -168 342.5 -188.5 Q329 -209 309 -221.5 Q289 -234 264.5 -239.5 Q240 -245 218 -245 Q176 -245 154.5 -231.5 Q133 -218 133 -195 Q133 -181 142.5 -169 Q152 -157 169 -157 Q181 -157 190.5 -163.5 Q200 -170 205 -178 L163 -217 Q171 -228 193 -228 Q203 -228 214.5 -224.5 Q226 -221 235.5 -211 Q245 -201 251 -184 Q257 -167 257 -141 Q257 -113 243.5 -96.5 Q230 -80 212 -80 Q200 -80 194 -82 L190 -78 L227 -8 Z " />
<glyph glyph-name="scedilla" unicode="&#x15f;" horiz-adv-x="423" d="M159 -8 L155 -8 Q127 -8 99.5 -3 Q72 2 50.5 13.5 Q29 25 15.5 42 Q2 59 2 83 Q2 106 18.5 125.5 Q35 145 64 145 Q85 145 97.5 136.5 Q110 128 117 114 L55 57 Q66 38 89.5 26.5 Q113 15 142 15 Q179 15 202.5 33 Q226 51 226 80 Q226 104 206.5 127.5 Q187 151 134 188 Q85 223 66 253.5 Q47 284 47 317 Q47 390 104 434 Q161 478 262 478 Q340 478 380 451.5 Q420 425 420 387 Q420 360 403.5 344 Q387 328 359 328 Q338 328 324 336 Q310 344 303 352 L377 415 Q369 426 350 438 Q331 450 300 450 Q261 450 244 431 Q227 412 227 389 Q227 366 246 347.5 Q265 329 305 301 Q398 233 398 163 Q398 117 379.5 85.5 Q361 54 331 34 Q301 14 262.5 4.5 Q224 -5 184 -8 L152 -64 Q159 -62 168 -61 Q177 -60 189 -60 Q236 -60 262 -81.5 Q288 -103 288 -135 Q288 -165 274.5 -185.5 Q261 -206 241 -218.5 Q221 -231 196 -236.5 Q171 -242 149 -242 Q107 -242 85.5 -228 Q64 -214 64 -191 Q64 -177 73.5 -165 Q83 -153 101 -153 Q113 -153 122 -159.5 Q131 -166 136 -174 L94 -213 Q104 -225 124 -225 Q134 -225 145.5 -221.5 Q157 -218 166.5 -208 Q176 -198 182 -181 Q188 -164 188 -138 Q188 -111 174.5 -94 Q161 -77 144 -77 Q133 -77 125 -79 L121 -75 L159 -8 Z " />
<glyph glyph-name="Scaron" unicode="&#x160;" horiz-adv-x="556" d="M214 23 Q243 23 269 31.5 Q295 40 314 55.5 Q333 71 344 93 Q355 115 355 141 Q355 173 329.5 206 Q304 239 237 281 Q198 306 170 328 Q142 350 124 374 Q106 398 97.5 425.5 Q89 453 89 489 Q89 527 107 566.5 Q125 606 161 638.5 Q197 671 252 691.5 Q307 712 382 712 Q430 712 466.5 701.5 Q503 691 527.5 673.5 Q552 656 564 633 Q576 610 576 585 Q576 565 568.5 548 Q561 531 548 519 Q535 507 518.5 500.5 Q502 494 484 494 Q459 494 438 505.5 Q417 517 406 534 L510 641 Q496 656 469.5 668.5 Q443 681 405 681 Q379 681 355.5 674.5 Q332 668 314 656 Q296 644 285 626 Q274 608 274 586 Q274 551 302.5 521 Q331 491 393 453 Q434 427 461.5 404 Q489 381 506 357.5 Q523 334 530.5 309 Q538 284 538 255 Q538 198 514 150 Q490 102 448 67 Q406 32 349.5 12 Q293 -8 229 -8 Q184 -8 146.5 1 Q109 10 81.5 27.5 Q54 45 39 70 Q24 95 24 127 Q24 171 52.5 199 Q81 227 122 227 Q151 227 171.5 216 Q192 205 205 186 L92 63 Q113 45 143 34 Q173 23 214 23 Z M321 758 L242 924 L269 939 L389 863 L540 939 L560 924 L416 758 L321 758 Z " />
<glyph glyph-name="scaron" unicode="&#x161;" horiz-adv-x="423" d="M142 15 Q179 15 202.5 33 Q226 51 226 80 Q226 104 206.5 127.5 Q187 151 134 188 Q85 223 66 253.5 Q47 284 47 317 Q47 390 104 434 Q161 478 262 478 Q340 478 380 451.5 Q420 425 420 387 Q420 360 403.5 344 Q387 328 359 328 Q338 328 324 336 Q310 344 303 352 L377 415 Q369 426 350 438 Q331 450 300 450 Q261 450 244 431 Q227 412 227 389 Q227 366 246 347.5 Q265 329 305 301 Q398 233 398 163 Q398 113 376.5 80 Q355 47 320 27.5 Q285 8 241.5 0 Q198 -8 155 -8 Q127 -8 99.5 -3 Q72 2 50.5 13.5 Q29 25 15.5 42 Q2 59 2 83 Q2 106 18.5 125.5 Q35 145 64 145 Q85 145 97.5 136.5 Q110 128 117 114 L55 57 Q66 38 89.5 26.5 Q113 15 142 15 Z M216 532 L137 698 L164 713 L284 637 L435 713 L455 698 L311 532 L216 532 Z " />
<glyph glyph-name="uni0162" unicode="&#x162;" horiz-adv-x="650" d="M77 477 L124 698 L725 698 L678 477 L657 477 L657 501 Q657 589 623.5 630.5 Q590 672 540 672 L526 672 L388 26 L471 26 L466 0 L87 0 L92 26 L175 26 L313 672 L291 672 Q236 672 191 634 Q146 596 111 509 L98 477 L77 477 Z M175 -269 Q200 -250 216.5 -229.5 Q233 -209 233 -196 Q233 -186 225.5 -179.5 Q218 -173 208.5 -165.5 Q199 -158 191.5 -147.5 Q184 -137 184 -118 Q184 -83 209 -62.5 Q234 -42 269 -42 Q296 -42 313.5 -59.5 Q331 -77 331 -109 Q331 -134 319.5 -159 Q308 -184 289 -207.5 Q270 -231 245.5 -252 Q221 -273 196 -291 L175 -269 Z " />
<glyph glyph-name="uni0163" unicode="&#x163;" horiz-adv-x="375" d="M138 -8 Q84 -2 58.5 28.5 Q33 59 33 112 Q33 135 36 156 Q39 177 44 202 L95 441 L41 441 L47 467 L91 467 Q124 467 157.5 478.5 Q191 490 221 510.5 Q251 531 275 558.5 Q299 586 314 619 L328 649 L351 649 L313 467 L417 467 L412 441 L307 441 L241 131 Q236 109 235 99.5 Q234 90 234 84 Q234 66 242 59.5 Q250 53 264 53 Q288 53 309 72 Q330 91 343 110 L359 95 Q328 52 278 22 Q228 -8 163 -8 L133 -65 Q139 -63 148 -62 Q157 -61 169 -61 Q216 -61 242 -81.5 Q268 -102 268 -134 Q268 -164 254.5 -185 Q241 -206 221 -218.5 Q201 -231 176.5 -236.5 Q152 -242 130 -242 Q88 -242 66 -228 Q44 -214 44 -191 Q44 -177 53.5 -165 Q63 -153 81 -153 Q93 -153 102.5 -159.5 Q112 -166 117 -174 L74 -213 Q84 -225 104 -225 Q115 -225 126.5 -221 Q138 -217 147 -207 Q156 -197 162 -180 Q168 -163 168 -137 Q168 -110 155 -94 Q142 -78 124 -78 Q113 -78 105 -80 L102 -76 L138 -8 Z " />
<glyph glyph-name="Tcaron" unicode="&#x164;" horiz-adv-x="650" d="M77 477 L124 698 L725 698 L678 477 L657 477 L657 501 Q657 589 623.5 630.5 Q590 672 540 672 L526 672 L388 26 L471 26 L466 0 L87 0 L92 26 L175 26 L313 672 L291 672 Q236 672 191 634 Q146 596 111 509 L98 477 L77 477 Z M385 758 L306 924 L333 939 L453 863 L604 939 L624 924 L480 758 L385 758 Z " />
<glyph glyph-name="tcaron" unicode="&#x165;" horiz-adv-x="375" d="M33 112 Q33 135 36 156 Q39 177 44 202 L95 440 L41 440 L47 467 L91 467 Q124 467 157.5 478.5 Q191 490 221 510.5 Q251 531 275 558.5 Q299 586 314 619 L328 649 L351 649 L313 467 L417 467 L411 440 L307 440 L241 131 Q236 109 235 99.5 Q234 90 234 84 Q234 66 242 59.5 Q250 53 264 53 Q288 53 309 72 Q330 91 343 110 L359 95 Q328 52 277 22 Q226 -8 160 -8 Q94 -8 63.5 23.5 Q33 55 33 112 Z M375 517 Q400 536 416.5 556.5 Q433 577 433 590 Q433 600 425.5 606.5 Q418 613 408.5 620.5 Q399 628 391.5 638.5 Q384 649 384 668 Q384 703 409 723.5 Q434 744 469 744 Q496 744 513.5 726.5 Q531 709 531 677 Q531 652 519.5 627 Q508 602 489 578.5 Q470 555 445.5 534 Q421 513 396 495 L375 517 Z " />
<glyph glyph-name="Tbar" unicode="&#x166;" horiz-adv-x="650" d="M77 477 L124 698 L725 698 L678 477 L657 477 L657 501 Q657 589 623.5 630.5 Q590 672 540 672 L526 672 L454 336 L572 336 L567 309 L448 309 L388 26 L471 26 L466 0 L87 0 L92 26 L175 26 L235 309 L115 309 L120 336 L241 336 L313 672 L291 672 Q236 672 191 634 Q146 596 111 509 L98 477 L77 477 Z " />
</font>
</svg>
