<?xml version="1.0" encoding="UTF-8"?>
<svg xmlns="http://www.w3.org/2000/svg" xmlns:xlink="http://www.w3.org/1999/xlink" version="1.2" >
<font id="Exquise FY Bold">
<font-face  font-family="Exquise FY" units-per-em="1000" ascent="780" descent="-220" font-style="normal" font-weight="700" font-stretch="normal" cap-height="697" x-height="461" underline-position="-80" underline-thickness="40" />
<missing-glyph  horiz-adv-x="528" d="M262 135 Q217 157 177.5 186.5 Q138 216 108 250 Q78 284 60.5 321 Q43 358 43 394 Q43 445 71.5 471.5 Q100 498 147 498 Q179 498 209 481 Q239 464 262 432 Q285 464 315 481 Q345 498 377 498 Q424 498 452.5 471.5 Q481 445 481 394 Q481 358 463.5 321 Q446 284 416 250 Q386 216 346.5 186.5 Q307 157 262 135 Z " />
<glyph glyph-name=".null" d="" />
<glyph glyph-name="&amp;#x0;" d="" />
<glyph glyph-name="&amp;#xd;" unicode="&#xd;" d="" />
<glyph glyph-name="space" unicode="&#x20;" horiz-adv-x="190" d="" />
<glyph glyph-name="exclam" unicode="&#x21;" horiz-adv-x="322" d="M146 191 Q146 253 137 315.5 Q128 378 117.5 435.5 Q107 493 98.5 542.5 Q90 592 90 627 Q90 664 108.5 687 Q127 710 161 710 Q195 710 213.5 687 Q232 664 232 627 Q232 592 223.5 543 Q215 494 204.5 436 Q194 378 185.5 315.5 Q177 253 177 191 L146 191 Z M161 -9 Q132 -9 114 10 Q96 29 96 55 Q96 81 114 100 Q132 119 161 119 Q190 119 208 100 Q226 81 226 55 Q226 29 208 10 Q190 -9 161 -9 Z " />
<glyph glyph-name="quotedbl" unicode="&#x22;" horiz-adv-x="396" d="M251 576 Q243 621 241 643 Q239 665 239 678 Q239 709 253 722.5 Q267 736 289 736 Q311 736 324.5 722.5 Q338 709 338 678 Q338 665 336.5 643 Q335 621 327 576 L306 460 L272 460 L251 576 Z M70 576 Q62 621 60 643 Q58 665 58 678 Q58 709 72 722.5 Q86 736 108 736 Q130 736 143.5 722.5 Q157 709 157 678 Q157 665 155.5 643 Q154 621 146 576 L125 460 L91 460 L70 576 Z " />
<glyph glyph-name="numbersign" unicode="&#x23;" horiz-adv-x="604" d="M58 463 L188 463 L222 680 L281 680 L247 463 L402 463 L436 680 L495 680 L461 463 L576 463 L576 425 L454 425 L428 261 L544 261 L544 222 L421 222 L387 0 L329 0 L362 222 L208 222 L173 0 L115 0 L149 222 L25 222 L25 261 L156 261 L181 425 L58 425 L58 463 Z M215 261 L369 261 L395 425 L239 425 L215 261 Z " />
<glyph glyph-name="dollar" unicode="&#x24;" horiz-adv-x="586" d="M265 -92 L265 -9 Q217 -9 166 -3 Q115 3 70 15 L70 206 L94 206 Q100 155 118 119 Q136 83 160 59.5 Q184 36 211.5 25.5 Q239 15 265 15 L265 262 Q156 312 110.5 365 Q65 418 65 482 Q65 517 79 547.5 Q93 578 119.5 600.5 Q146 623 183 636.5 Q220 650 265 652 L265 715 L294 715 L294 652 Q340 652 385.5 645 Q431 638 471 627 L471 475 L447 475 Q440 502 429 528 Q418 554 400.5 575.5 Q383 597 357 611.5 Q331 626 294 629 L294 394 Q402 347 451.5 297.5 Q501 248 501 182 Q501 144 487 111.5 Q473 79 447 53.5 Q421 28 382 12 Q343 -4 294 -7 L294 -92 L265 -92 Z M392 129 Q392 163 371.5 190.5 Q351 218 294 250 L294 17 Q345 28 368.5 58.5 Q392 89 392 129 Z M265 630 Q218 626 193.5 598.5 Q169 571 169 529 Q169 510 173.5 495 Q178 480 189 465.5 Q200 451 218.5 437.5 Q237 424 265 408 L265 630 Z " />
<glyph glyph-name="percent" unicode="&#x25;" horiz-adv-x="949" d="M243 710 Q280 710 310.5 695 Q341 680 362.5 653 Q384 626 395.5 588.5 Q407 551 407 506 Q407 459 395 421.5 Q383 384 361.5 357.5 Q340 331 310 316.5 Q280 302 243 302 Q207 302 177 316.5 Q147 331 125.5 357.5 Q104 384 92 421.5 Q80 459 80 506 Q80 551 91.5 588.5 Q103 626 124.5 653 Q146 680 176 695 Q206 710 243 710 Z M243 692 Q229 692 219 683.5 Q209 675 202 654 Q195 633 191.5 597 Q188 561 188 506 Q188 449 191.5 413 Q195 377 202 356.5 Q209 336 219 328 Q229 320 243 320 Q256 320 267 328 Q278 336 285 356.5 Q292 377 296 413 Q300 449 300 506 Q300 561 296 597 Q292 633 285 654 Q278 675 267 683.5 Q256 692 243 692 Z M713 400 Q750 400 780.5 385 Q811 370 833 343 Q855 316 866.5 278.5 Q878 241 878 196 Q878 150 866 112.5 Q854 75 832 48 Q810 21 780 6.5 Q750 -8 713 -8 Q677 -8 647 6.5 Q617 21 595.5 48 Q574 75 562 112.5 Q550 150 550 196 Q550 241 561.5 278.5 Q573 316 594.5 343 Q616 370 646 385 Q676 400 713 400 Z M713 383 Q699 383 689 374.5 Q679 366 672 344.5 Q665 323 661.5 287 Q658 251 658 196 Q658 139 661.5 103 Q665 67 672 46.5 Q679 26 689 18 Q699 10 713 10 Q726 10 737 18 Q748 26 755 46.5 Q762 67 766 103 Q770 139 770 196 Q770 251 766 287 Q762 323 755 344.5 Q748 366 737 374.5 Q726 383 713 383 Z M212 -9 L690 694 L739 694 L261 -9 L212 -9 Z " />
<glyph glyph-name="ampersand" unicode="&#x26;" horiz-adv-x="764" d="M752 74 Q721 34 680 9 Q639 -16 592 -16 Q556 -16 521.5 -2.5 Q487 11 449 43 Q367 -9 261 -9 Q216 -9 177 3.5 Q138 16 110 38.5 Q82 61 66 92.5 Q50 124 50 163 Q50 201 63.5 232 Q77 263 99.5 287 Q122 311 151 330 Q180 349 212 363 Q189 409 173.5 455 Q158 501 158 548 Q158 585 171 615 Q184 645 207.5 666 Q231 687 263 698.5 Q295 710 333 710 Q370 710 398 700 Q426 690 444.5 673.5 Q463 657 472.5 635.5 Q482 614 482 590 Q482 539 444.5 491.5 Q407 444 326 398 Q344 365 369.5 329 Q395 293 423.5 258 Q452 223 481.5 190.5 Q511 158 538 133 Q564 157 582.5 185 Q601 213 612 238 L503 369 Q513 381 531 391 Q549 401 578 401 Q610 401 633.5 376.5 Q657 352 657 314 Q657 296 650.5 272 Q644 248 631.5 221.5 Q619 195 599.5 168.5 Q580 142 554 118 Q588 86 617 71 Q646 56 672 56 Q691 56 704.5 63 Q718 70 740 88 L752 74 Z M336 36 Q389 36 429 60 Q402 85 373.5 119.5 Q345 154 317.5 191.5 Q290 229 265.5 267.5 Q241 306 223 341 Q194 315 180 283.5 Q166 252 166 207 Q166 172 178.5 141 Q191 110 213.5 86.5 Q236 63 267 49.5 Q298 36 336 36 Z M264 587 Q264 541 276.5 501 Q289 461 315 418 Q365 464 381.5 506 Q398 548 398 588 Q398 635 379 661.5 Q360 688 331 688 Q301 688 282.5 659.5 Q264 631 264 587 Z " />
<glyph glyph-name="quotesingle" unicode="&#x27;" horiz-adv-x="215" d="M70 576 Q62 621 60 643 Q58 665 58 678 Q58 709 72 722.5 Q86 736 108 736 Q130 736 143.5 722.5 Q157 709 157 678 Q157 665 155.5 643 Q154 621 146 576 L125 460 L91 460 L70 576 Z " />
<glyph glyph-name="parenleft" unicode="&#x28;" horiz-adv-x="405" d="M210 294 Q210 145 252.5 31 Q295 -83 375 -145 L368 -159 Q306 -128 254 -81 Q202 -34 164.5 24 Q127 82 106 150.5 Q85 219 85 294 Q85 369 106 437.5 Q127 506 164.5 564 Q202 622 254 668.5 Q306 715 368 747 L375 733 Q339 709 308.5 665.5 Q278 622 256.5 564 Q235 506 222.5 437 Q210 368 210 294 Z " />
<glyph glyph-name="parenright" unicode="&#x29;" horiz-adv-x="405" d="M195 294 Q195 443 152.5 557 Q110 671 30 733 L37 747 Q99 715 151 668.5 Q203 622 240.5 564 Q278 506 299 437.5 Q320 369 320 294 Q320 219 299 150.5 Q278 82 240.5 24 Q203 -34 151 -81 Q99 -128 37 -159 L30 -145 Q66 -121 96.5 -77.5 Q127 -34 148.5 24 Q170 82 182.5 151 Q195 220 195 294 Z " />
<glyph glyph-name="asterisk" unicode="&#x2a;" horiz-adv-x="438" d="M242 433 Q251 402 257 380.5 Q263 359 263 337 Q263 314 251 303.5 Q239 293 219 293 Q176 293 176 336 Q176 357 182 380.5 Q188 404 196 432 L211 488 L170 444 Q146 418 122 395.5 Q98 373 74 373 Q57 373 43.5 388.5 Q30 404 30 422 Q30 436 42 446.5 Q54 457 72 465 Q90 473 110 478 Q130 483 146 487 L204 501 L145 514 Q129 517 109.5 522 Q90 527 72.5 535 Q55 543 43 554 Q31 565 31 580 Q31 597 43 613 Q55 629 73 629 Q85 629 98 622 Q111 615 124 604 Q137 593 149.5 580.5 Q162 568 172 557 L211 515 L196 570 Q187 602 181.5 625 Q176 648 176 667 Q176 710 219 710 Q263 710 263 666 Q263 644 257 620.5 Q251 597 243 569 L227 514 L267 556 Q278 568 290 580.5 Q302 593 315 603.5 Q328 614 340.5 621 Q353 628 364 628 Q381 628 394.5 613 Q408 598 408 579 Q408 565 396.5 554.5 Q385 544 367.5 536.5 Q350 529 329 524 Q308 519 290 515 L233 502 L292 488 Q316 482 336.5 476.5 Q357 471 373 463.5 Q389 456 398 446 Q407 436 407 422 Q407 405 395 389 Q383 373 364 373 Q344 373 323.5 391 Q303 409 269 444 L226 488 L242 433 Z " />
<glyph glyph-name="plus" unicode="&#x2b;" horiz-adv-x="690" d="M374 276 L374 40 L315 40 L315 276 L69 276 L69 324 L315 324 L315 560 L374 560 L374 324 L620 324 L620 276 L374 276 Z " />
<glyph glyph-name="comma" unicode="&#x2c;" horiz-adv-x="248" d="M50 -124 Q89 -95 104 -69 Q119 -43 119 -28 Q119 -19 108.5 -13.5 Q98 -8 86 -0.5 Q74 7 63.5 20 Q53 33 53 56 Q53 88 72.5 105.5 Q92 123 121 123 Q153 123 170.5 102 Q188 81 188 49 Q188 25 179.5 -1 Q171 -27 155 -52.5 Q139 -78 116.5 -101.5 Q94 -125 66 -142 L50 -124 L50 -124 Z " />
<glyph glyph-name="hyphen" unicode="&#x2d;" horiz-adv-x="380" d="M58 282 L321 282 L321 223 L58 223 L58 282 Z " />
<glyph glyph-name="period" unicode="&#x2e;" horiz-adv-x="245" d="M122 -9 Q92 -9 73.5 10.5 Q55 30 55 57 Q55 85 73.5 105 Q92 125 122 125 Q153 125 171.5 105 Q190 85 190 57 Q190 30 171.5 10.5 Q153 -9 122 -9 Z " />
<glyph glyph-name="slash" unicode="&#x2f;" horiz-adv-x="368" d="M292 730 L348 730 L75 -39 L20 -39 L292 730 Z " />
<glyph glyph-name="zero" unicode="0" horiz-adv-x="605" d="M302 489 Q365 489 412.5 469 Q460 449 491.5 415 Q523 381 539 336 Q555 291 555 241 Q555 192 539 147 Q523 102 491.5 67.5 Q460 33 412.5 12 Q365 -9 302 -9 Q239 -9 192 12 Q145 33 113.5 67.5 Q82 102 66 147 Q50 192 50 241 Q50 291 66 336 Q82 381 113.5 415 Q145 449 192 469 Q239 489 302 489 Z M302 12 Q331 12 351.5 29 Q372 46 385 76.5 Q398 107 404 149 Q410 191 410 241 Q410 351 379 410 Q348 469 302 469 Q257 469 225.5 410 Q194 351 194 241 Q194 191 200 149 Q206 107 219.5 76.5 Q233 46 253 29 Q273 12 302 12 Z " />
<glyph glyph-name="one" unicode="1" horiz-adv-x="444" d="M34 329 Q69 345 100.5 362.5 Q132 380 161 399 Q190 418 219 439.5 Q248 461 279 487 L325 487 L325 21 L398 21 L398 0 L46 0 L46 21 L174 21 L174 370 Q148 355 114 338 Q80 321 44 306 L34 329 Z " />
<glyph glyph-name="two" unicode="2" horiz-adv-x="507" d="M33 -3 Q50 28 73 55.5 Q96 83 123 110 Q150 137 178.5 164 Q207 191 235 220 Q261 249 282 286 Q303 323 303 370 Q303 415 276.5 436.5 Q250 458 213 458 Q182 458 153.5 443 Q125 428 108 405 L189 311 Q182 297 163.5 285 Q145 273 118 273 Q90 273 69 292 Q48 311 48 348 Q48 374 62.5 399.5 Q77 425 103.5 445 Q130 465 168 477 Q206 489 253 489 Q344 489 393.5 452.5 Q443 416 443 360 Q443 302 404 262 Q365 222 303 189 Q268 171 242 156 Q216 141 195.5 127.5 Q175 114 158 101 Q141 88 125 74 Q141 82 168 90.5 Q195 99 232 99 Q261 99 291.5 94 Q322 89 360 89 Q398 89 413.5 111 Q429 133 436 168 L453 168 L453 -1 Q436 -7 420 -8.5 Q404 -10 384 -10 Q359 -10 329.5 -5 Q300 0 269.5 5.5 Q239 11 209.5 16 Q180 21 155 21 Q116 21 90.5 11.5 Q65 2 49 -14 L33 -3 Z " />
<glyph glyph-name="three" unicode="3" horiz-adv-x="517" d="M50 -111 Q73 -131 106 -143 Q139 -155 182 -155 Q213 -155 238 -143.5 Q263 -132 281 -112 Q299 -92 308.5 -64 Q318 -36 318 -4 Q318 68 279 104 Q240 140 171 140 L128 140 L128 163 L170 163 Q204 163 229 176.5 Q254 190 270.5 212.5 Q287 235 295.5 264 Q304 293 304 324 Q304 390 272 424.5 Q240 459 195 459 Q155 459 126 440 Q97 421 81 398 L166 290 Q142 254 98 254 Q69 254 48 274.5 Q27 295 27 331 Q27 355 39.5 383 Q52 411 78.5 434.5 Q105 458 146 473.5 Q187 489 244 489 Q293 489 331 476 Q369 463 395 441 Q421 419 434.5 391 Q448 363 448 333 Q448 297 435 267 Q422 237 400.5 214.5 Q379 192 350 178 Q321 164 290 158 Q372 148 417.5 108.5 Q463 69 463 -2 Q463 -41 444.5 -76 Q426 -111 393.5 -137 Q361 -163 315.5 -178 Q270 -193 216 -193 Q153 -193 109 -176 Q65 -159 35 -133 L50 -111 Z " />
<glyph glyph-name="four" unicode="4" horiz-adv-x="531" d="M402 25 L495 25 L495 0 L402 0 L402 -157 L487 -157 L487 -178 L180 -178 L180 -157 L264 -157 L264 0 L29 0 L29 19 L318 486 L402 486 L402 25 Z M264 25 L264 354 L62 25 L264 25 Z " />
<glyph glyph-name="five" unicode="5" horiz-adv-x="514" d="M71 471 L359 471 Q388 471 402.5 485.5 Q417 500 420 523 L433 523 L433 357 L87 357 L75 142 Q106 190 153.5 214 Q201 238 261 238 Q302 238 339 224.5 Q376 211 404 185.5 Q432 160 448.5 123.5 Q465 87 465 40 Q465 -17 444.5 -60.5 Q424 -104 389.5 -133.5 Q355 -163 311 -178 Q267 -193 219 -193 Q159 -193 120.5 -180 Q82 -167 51 -147 L65 -126 Q82 -139 111.5 -150 Q141 -161 174 -161 Q240 -161 279.5 -110.5 Q319 -60 319 36 Q319 120 288 160.5 Q257 201 205 201 Q169 201 136.5 179 Q104 157 80 112 L52 112 L71 471 Z " />
<glyph glyph-name="six" unicode="6" horiz-adv-x="573" d="M453 646 Q442 650 426 653 Q410 656 393 656 Q304 656 252 595.5 Q200 535 195 404 Q218 444 255 465 Q292 486 334 486 Q375 486 409.5 469 Q444 452 469 422 Q494 392 508 350.5 Q522 309 522 261 Q522 201 504 151 Q486 101 454 65.5 Q422 30 379 10.5 Q336 -9 285 -9 Q231 -9 188 15.5 Q145 40 114 81.5 Q83 123 66.5 177.5 Q50 232 50 293 Q50 384 78.5 456.5 Q107 529 153.5 579.5 Q200 630 258.5 656.5 Q317 683 378 683 Q403 683 424 679 Q445 675 458 670 L453 646 Z M377 239 Q377 279 372.5 316.5 Q368 354 358 383 Q348 412 332.5 429.5 Q317 447 295 447 Q276 447 257.5 434.5 Q239 422 224 397 Q209 372 200 334 Q191 296 191 245 Q191 196 197.5 154 Q204 112 216 80.5 Q228 49 246 31 Q264 13 287 13 Q335 13 356 71.5 Q377 130 377 239 Z " />
<glyph glyph-name="seven" unicode="7" horiz-adv-x="481" d="M280 -134 Q263 -157 238.5 -172 Q214 -187 181 -187 Q164 -187 148 -181 Q132 -175 118.5 -163 Q105 -151 97 -132 Q89 -113 89 -87 Q89 -56 102 -25 Q115 6 136.5 37.5 Q158 69 187.5 102.5 Q217 136 250 172 Q287 213 321 260 Q355 307 375 357 L121 357 Q86 357 71.5 332.5 Q57 308 57 260 L39 260 L39 471 L455 471 Q423 369 378.5 297.5 Q334 226 283 168 Q260 141 241.5 119.5 Q223 98 207.5 79 Q192 60 178 42.5 Q164 25 151 6 L280 -134 Z " />
<glyph glyph-name="eight" unicode="8" horiz-adv-x="589" d="M539 186 Q539 143 520.5 107.5 Q502 72 468.5 46 Q435 20 388.5 5.5 Q342 -9 286 -9 Q235 -9 191.5 2 Q148 13 116.5 34 Q85 55 67.5 85 Q50 115 50 154 Q50 188 62.5 215 Q75 242 97 263.5 Q119 285 149.5 303 Q180 321 215 337 Q148 375 113.5 419 Q79 463 79 515 Q79 549 92.5 580 Q106 611 134 634.5 Q162 658 204.5 672 Q247 686 305 686 Q350 686 387 676 Q424 666 450 648 Q476 630 490 606 Q504 582 504 554 Q504 524 493 499.5 Q482 475 463 456 Q444 437 419 422.5 Q394 408 366 398 Q406 372 438 348.5 Q470 325 492.5 300.5 Q515 276 527 248 Q539 220 539 186 Z M397 549 Q397 600 374 632 Q351 664 301 664 Q259 664 236 638.5 Q213 613 213 571 Q213 544 223.5 522 Q234 500 252 481 Q270 462 292.5 446 Q315 430 339 415 Q349 422 359.5 435.5 Q370 449 378 466.5 Q386 484 391.5 505 Q397 526 397 549 Z M395 132 Q395 165 381.5 191 Q368 217 346.5 239 Q325 261 298 280 Q271 299 243 317 Q205 286 183.5 249.5 Q162 213 162 159 Q162 129 170 102 Q178 75 194 55.5 Q210 36 233 24.5 Q256 13 285 13 Q331 13 363 45 Q395 77 395 132 Z " />
<glyph glyph-name="nine" unicode="9" horiz-adv-x="573" d="M115 -158 Q129 -163 146.5 -165.5 Q164 -168 179 -168 Q221 -168 256.5 -153.5 Q292 -139 317.5 -110 Q343 -81 358 -37.5 Q373 6 374 65 Q355 33 320 12 Q285 -9 235 -9 Q194 -9 160.5 7.5 Q127 24 102 54 Q77 84 63.5 125.5 Q50 167 50 217 Q50 270 67.5 318.5 Q85 367 116 404.5 Q147 442 189.5 464 Q232 486 282 486 Q339 486 383.5 460.5 Q428 435 458.5 393 Q489 351 505 295.5 Q521 240 521 180 Q521 95 496 25.5 Q471 -44 427 -93.5 Q383 -143 324 -170 Q265 -197 198 -197 Q173 -197 150.5 -192.5 Q128 -188 110 -181 L115 -158 Z M379 227 Q379 276 373.5 319 Q368 362 356.5 393.5 Q345 425 326.5 443.5 Q308 462 283 462 Q238 462 217.5 404.5 Q197 347 197 241 Q197 197 201.5 158 Q206 119 216 90 Q226 61 241.5 44 Q257 27 279 27 Q321 27 350 79.5 Q379 132 379 227 Z " />
<glyph glyph-name="colon" unicode="&#x3a;" horiz-adv-x="275" d="M137 -9 Q107 -9 88.5 10.5 Q70 30 70 57 Q70 85 88.5 105 Q107 125 137 125 Q168 125 186.5 105 Q205 85 205 57 Q205 30 186.5 10.5 Q168 -9 137 -9 Z M137 329 Q107 329 88.5 348.5 Q70 368 70 395 Q70 423 88.5 443 Q107 463 137 463 Q168 463 186.5 443 Q205 423 205 395 Q205 368 186.5 348.5 Q168 329 137 329 Z " />
<glyph glyph-name="semicolon" unicode="&#x3b;" horiz-adv-x="278" d="M65 -124 Q104 -95 119 -69 Q134 -43 134 -28 Q134 -19 123.5 -13.5 Q113 -8 101 -0.5 Q89 7 78.5 20 Q68 33 68 56 Q68 88 87.5 105.5 Q107 123 136 123 Q168 123 185.5 102 Q203 81 203 49 Q203 25 194.5 -1 Q186 -27 170 -52.5 Q154 -78 131.5 -101.5 Q109 -125 81 -142 L65 -124 Z M135 329 Q105 329 86.5 348.5 Q68 368 68 395 Q68 423 86.5 443 Q105 463 135 463 Q166 463 184.5 443 Q203 423 203 395 Q203 368 184.5 348.5 Q166 329 135 329 Z " />
<glyph glyph-name="less" unicode="&#x3c;" horiz-adv-x="690" d="M81 328 L609 532 L609 477 L146 300 L609 123 L609 68 L81 272 L81 328 Z " />
<glyph glyph-name="equal" unicode="&#x3d;" horiz-adv-x="690" d="M80 372 L80 421 L609 421 L609 372 L80 372 Z M80 186 L80 235 L609 235 L609 186 L80 186 Z " />
<glyph glyph-name="greater" unicode="&#x3e;" horiz-adv-x="690" d="M589 272 L61 68 L61 123 L524 300 L61 477 L61 532 L589 328 L589 272 Z " />
<glyph glyph-name="question" unicode="&#x3f;" horiz-adv-x="504" d="M190 500 Q185 492 168.5 480 Q152 468 123 468 Q91 468 68 491 Q45 514 45 554 Q45 576 55.5 603 Q66 630 90 654 Q114 678 153.5 694 Q193 710 251 710 Q296 710 333.5 697.5 Q371 685 397.5 663 Q424 641 439 612 Q454 583 454 549 Q454 514 443 486.5 Q432 459 411.5 436 Q391 413 362 391.5 Q333 370 296 346 Q276 333 264.5 322.5 Q253 312 247 299 Q241 286 239 269.5 Q237 253 237 228 L237 191 L205 191 L205 271 Q205 297 213 316 Q221 335 233.5 352 Q246 369 260 386.5 Q274 404 286.5 425.5 Q299 447 307 475.5 Q315 504 315 544 Q315 578 306 603.5 Q297 629 281.5 646 Q266 663 245.5 671 Q225 679 203 679 Q165 679 133.5 660.5 Q102 642 91 613 L190 500 Z M221 -9 Q192 -9 174.5 10 Q157 29 157 55 Q157 81 174.5 100 Q192 119 221 119 Q251 119 268.5 100 Q286 81 286 55 Q286 29 268.5 10 Q251 -9 221 -9 Z " />
<glyph glyph-name="at" unicode="&#x40;" horiz-adv-x="860" d="M356 245 Q356 196 372.5 168 Q389 140 417 140 Q441 140 463.5 162.5 Q486 185 503 221.5 Q520 258 530.5 304 Q541 350 541 397 Q541 434 527 457 Q513 480 491 480 Q466 480 442 461 Q418 442 399 409.5 Q380 377 368 334.5 Q356 292 356 245 Z M607 487 L667 487 Q643 408 627 354.5 Q611 301 602 266.5 Q593 232 589 213 Q585 194 585 182 Q585 150 600 134 Q615 118 640 118 Q670 118 695 139 Q720 160 737 194.5 Q754 229 763.5 272 Q773 315 773 359 Q773 416 751.5 468.5 Q730 521 690.5 561 Q651 601 595 625 Q539 649 471 649 Q408 649 350.5 624 Q293 599 250 552 Q207 505 181.5 438.5 Q156 372 156 288 Q156 222 179.5 164 Q203 106 246.5 63 Q290 20 351.5 -5 Q413 -30 490 -30 Q564 -30 620.5 -14 Q677 2 728 26 L736 6 Q683 -20 620.5 -37.5 Q558 -55 477 -55 Q388 -55 310 -32 Q232 -9 174 35 Q116 79 83 144 Q50 209 50 292 Q50 378 83 447.5 Q116 517 172.5 566.5 Q229 616 305 643 Q381 670 468 670 Q547 670 612.5 646 Q678 622 725 580.5 Q772 539 798.5 482.5 Q825 426 825 360 Q825 312 810.5 265 Q796 218 769 181 Q742 144 704.5 121 Q667 98 621 98 Q593 98 572.5 106.5 Q552 115 537.5 128 Q523 141 515 156 Q507 171 504 184 Q478 146 444.5 125 Q411 104 376 104 Q354 104 334 112.5 Q314 121 298.5 139 Q283 157 273.5 184.5 Q264 212 264 249 Q264 294 279.5 338.5 Q295 383 323 419 Q351 455 390 477 Q429 499 476 499 Q510 499 533 482.5 Q556 466 570 437 L607 487 Z " />
<glyph glyph-name="A" unicode="A" horiz-adv-x="674" d="M364 21 L464 21 L393 221 L162 221 L86 21 L183 21 L183 0 L-6 0 L-6 21 L57 21 L314 704 L376 704 L615 21 L676 21 L676 0 L364 0 L364 21 Z M281 539 L171 246 L384 246 L281 539 Z " />
<glyph glyph-name="B" unicode="B" horiz-adv-x="688" d="M117 676 L35 676 L35 697 L366 697 Q485 697 545.5 653 Q606 609 606 538 Q606 501 592.5 473 Q579 445 555.5 424.5 Q532 404 501.5 391 Q471 378 437 372 Q540 361 591 313 Q642 265 642 200 Q642 105 566.5 52.5 Q491 0 327 0 L35 0 L35 21 L117 21 L117 676 Z M269 22 L307 22 Q398 22 444 62 Q490 102 490 196 Q490 283 448.5 319 Q407 355 334 355 L269 355 L269 22 Z M269 377 L313 377 Q346 377 373 385.5 Q400 394 419.5 412 Q439 430 450 459 Q461 488 461 529 Q461 605 427 640.5 Q393 676 339 676 L269 676 L269 377 Z " />
<glyph glyph-name="C" unicode="C" horiz-adv-x="654" d="M622 90 Q583 45 526.5 18 Q470 -9 383 -9 Q300 -9 237 19 Q174 47 130.5 95 Q87 143 65 207.5 Q43 272 43 345 Q43 412 65 477.5 Q87 543 131 595 Q175 647 241.5 678.5 Q308 710 397 710 Q455 710 497 696 Q539 682 566 659.5 Q593 637 605.5 609.5 Q618 582 618 555 Q618 514 593.5 490 Q569 466 531 466 Q501 466 483.5 475.5 Q466 485 456 496 L563 621 Q541 650 506.5 668 Q472 686 422 686 Q362 686 321 661 Q280 636 255.5 592.5 Q231 549 220 490.5 Q209 432 209 365 Q209 275 226 210.5 Q243 146 273 104.5 Q303 63 342.5 43 Q382 23 427 23 Q484 23 527 43 Q570 63 606 105 L622 90 L622 90 Z " />
<glyph glyph-name="D" unicode="D" horiz-adv-x="758" d="M269 21 L321 21 Q439 21 496 104 Q553 187 553 352 Q553 517 496 596.5 Q439 676 323 676 L269 676 L269 21 Z M117 676 L35 676 L35 697 L334 697 Q429 697 500.5 669.5 Q572 642 619.5 595 Q667 548 691 485 Q715 422 715 352 Q715 281 691 217.5 Q667 154 619.5 105.5 Q572 57 500.5 28.5 Q429 0 334 0 L35 0 L35 21 L117 21 L117 676 Z " />
<glyph glyph-name="E" unicode="E" horiz-adv-x="641" d="M444 697 Q521 697 558.5 664.5 Q596 632 596 584 Q596 542 571.5 518.5 Q547 495 505 495 Q479 495 463.5 503 Q448 511 437 522 L532 646 Q517 663 492.5 669.5 Q468 676 436 676 L269 676 L269 362 L443 362 L443 341 L269 341 L269 21 L372 21 Q426 21 459 34.5 Q492 48 513 73 Q534 98 545.5 134.5 Q557 171 567 218 L589 218 L589 0 L35 0 L35 21 L117 21 L117 676 L35 676 L35 697 L444 697 Z " />
<glyph glyph-name="F" unicode="F" horiz-adv-x="616" d="M438 697 Q515 697 552.5 664.5 Q590 632 590 584 Q590 542 565.5 518.5 Q541 495 499 495 Q473 495 457.5 503 Q442 511 431 522 L525 646 Q511 663 486.5 669.5 Q462 676 430 676 L269 676 L269 362 L472 362 L472 340 L269 340 L269 21 L366 21 L366 0 L35 0 L35 21 L117 21 L117 676 L35 676 L35 697 L438 697 Z " />
<glyph glyph-name="G" unicode="G" horiz-adv-x="736" d="M658 0 L646 0 Q637 5 624 9 Q611 13 593 13 Q549 13 498.5 2 Q448 -9 395 -9 Q306 -9 240 18 Q174 45 130 92.5 Q86 140 64.5 204.5 Q43 269 43 343 Q43 416 67.5 483 Q92 550 139 600 Q186 650 255.5 680 Q325 710 414 710 Q477 710 521.5 695.5 Q566 681 593.5 658.5 Q621 636 634 609 Q647 582 647 558 Q647 516 622.5 491 Q598 466 560 466 Q531 466 513.5 476.5 Q496 487 485 498 L589 622 Q563 652 526 669 Q489 686 435 686 Q375 686 332.5 658.5 Q290 631 262.5 585.5 Q235 540 222 480.5 Q209 421 209 357 Q209 275 224 212 Q239 149 266.5 106 Q294 63 332.5 40.5 Q371 18 418 18 Q447 18 476.5 21.5 Q506 25 523 33 L523 274 L437 274 L437 295 L721 295 L721 274 L658 274 L658 0 Z " />
<glyph glyph-name="H" unicode="H" horiz-adv-x="855" d="M269 21 L347 21 L347 0 L35 0 L35 21 L117 21 L117 676 L35 676 L35 697 L347 697 L347 676 L269 676 L269 376 L586 376 L586 676 L508 676 L508 697 L820 697 L820 676 L738 676 L738 21 L820 21 L820 0 L508 0 L508 21 L586 21 L586 352 L269 352 L269 21 Z " />
<glyph glyph-name="I" unicode="I" horiz-adv-x="386" d="M36 0 L36 21 L117 21 L117 676 L36 676 L36 697 L351 697 L351 676 L269 676 L269 21 L351 21 L351 0 L36 0 Z " />
<glyph glyph-name="J" unicode="J" horiz-adv-x="386" d="M-9 -64 Q2 -73 17.5 -79 Q33 -85 50 -85 Q88 -85 107.5 -49 Q127 -13 127 44 L127 676 L46 676 L46 697 L361 697 L361 676 L279 676 L279 181 Q279 40 231 -33.5 Q183 -107 79 -107 Q47 -107 23 -101 Q-1 -95 -20 -79 L-9 -64 Z " />
<glyph glyph-name="K" unicode="K" horiz-adv-x="732" d="M269 21 L355 21 L355 0 L35 0 L35 21 L117 21 L117 676 L35 676 L35 697 L355 697 L355 676 L269 676 L269 328 L484 448 Q545 483 575.5 516.5 Q606 550 607 576 Q607 606 569 606 L472 606 Q470 611 469 617.5 Q468 624 468 630 Q468 661 491.5 685.5 Q515 710 559 710 Q583 710 601 702 Q619 694 631 680.5 Q643 667 648.5 649.5 Q654 632 654 614 Q654 560 611 514.5 Q568 469 485 425 L414 387 Q428 390 440.5 392 Q453 394 468 394 Q498 394 526 385.5 Q554 377 575.5 357.5 Q597 338 609.5 306.5 Q622 275 622 229 L622 134 Q622 106 626 88 Q630 70 637 60 Q644 50 653 46.5 Q662 43 673 43 Q687 43 695.5 51 Q704 59 712 72 L727 60 Q719 46 708.5 33.5 Q698 21 683.5 11.5 Q669 2 649.5 -3.5 Q630 -9 603 -9 Q580 -9 556.5 -1 Q533 7 514 26.5 Q495 46 483.5 78.5 Q472 111 472 160 L472 253 Q472 315 452 339 Q432 363 399 363 Q381 363 369.5 358 Q358 353 344 345 L269 301 L269 21 Z " />
<glyph glyph-name="L" unicode="L" horiz-adv-x="616" d="M34 0 L34 21 L117 21 L117 676 L34 676 L34 697 L362 697 L362 676 L269 676 L269 21 L367 21 Q415 21 447 35.5 Q479 50 500 78.5 Q521 107 533 149 Q545 191 554 245 L577 245 L577 0 L34 0 Z " />
<glyph glyph-name="M" unicode="M" horiz-adv-x="909" d="M287 697 L458 312 L637 697 L875 697 L875 676 L793 676 L793 21 L875 21 L875 0 L566 0 L566 21 L652 21 L652 665 L419 153 L372 153 L142 663 L142 21 L228 21 L228 0 L34 0 L34 21 L115 21 L115 676 L34 676 L34 697 L287 697 Z " />
<glyph glyph-name="N" unicode="N" horiz-adv-x="755" d="M619 676 L533 676 L533 697 L728 697 L728 676 L646 676 L646 0 L543 0 L143 674 L143 21 L229 21 L229 0 L35 0 L35 21 L117 21 L117 676 L35 676 L35 697 L312 697 L619 166 L619 676 Z " />
<glyph glyph-name="O" unicode="O" horiz-adv-x="756" d="M378 710 Q454 710 516 681.5 Q578 653 622 603.5 Q666 554 689.5 487 Q713 420 713 343 Q713 263 689.5 198.5 Q666 134 622 87.5 Q578 41 516 16 Q454 -9 378 -9 Q302 -9 240 16 Q178 41 134.5 87.5 Q91 134 67 198.5 Q43 263 43 343 Q43 420 67 487 Q91 554 134.5 603.5 Q178 653 240 681.5 Q302 710 378 710 Z M378 14 Q420 14 452 37.5 Q484 61 505.5 103.5 Q527 146 537.5 207 Q548 268 548 343 Q548 420 538 483.5 Q528 547 507.5 592 Q487 637 455 662 Q423 687 378 687 Q334 687 302 662 Q270 637 249.5 592 Q229 547 219 483.5 Q209 420 209 343 Q209 268 219.5 207 Q230 146 251 103.5 Q272 61 304 37.5 Q336 14 378 14 Z " />
<glyph glyph-name="P" unicode="P" horiz-adv-x="659" d="M627 494 Q627 432 602.5 389 Q578 346 539 319.5 Q500 293 450.5 281.5 Q401 270 351 270 L269 270 L269 21 L374 21 L374 0 L35 0 L35 21 L117 21 L117 676 L35 676 L35 697 L321 697 Q412 697 471.5 681 Q531 665 565.5 637 Q600 609 613.5 572.5 Q627 536 627 494 Z M474 494 Q474 590 433 633 Q392 676 313 676 L269 676 L269 292 L316 292 Q350 292 379 302.5 Q408 313 429 337 Q450 361 462 399.5 Q474 438 474 494 Z " />
<glyph glyph-name="Q" unicode="Q" horiz-adv-x="756" d="M378 710 Q455 710 517 682 Q579 654 622.5 604.5 Q666 555 689.5 488 Q713 421 713 343 Q713 281 699 229 Q685 177 658.5 135 Q632 93 595.5 62.5 Q559 32 514 15 Q527 -20 543 -52.5 Q559 -85 578.5 -110 Q598 -135 621.5 -150 Q645 -165 674 -165 Q701 -165 715 -148.5 Q729 -132 729 -113 L746 -113 Q746 -140 740.5 -166 Q735 -192 722 -211.5 Q709 -231 687.5 -243 Q666 -255 634 -255 Q592 -255 561.5 -237 Q531 -219 509 -186 Q487 -153 472.5 -107 Q458 -61 448 -4 Q431 -7 414 -8 Q397 -9 378 -9 Q302 -9 240 16 Q178 41 134.5 87.5 Q91 134 67 198.5 Q43 263 43 343 Q43 420 67 487 Q91 554 134.5 603.5 Q178 653 240 681.5 Q302 710 378 710 Z M385 160 Q423 160 446 137.5 Q469 115 488 74 Q515 114 531.5 179 Q548 244 548 343 Q548 420 538 483.5 Q528 547 507.5 592 Q487 637 455 662 Q423 687 378 687 Q334 687 302 662 Q270 637 249.5 592 Q229 547 219 483.5 Q209 420 209 343 Q209 209 237 135.5 Q265 62 312 32 Q307 40 303.5 49.5 Q300 59 300 79 Q300 91 304.5 105 Q309 119 319 131.5 Q329 144 345 152 Q361 160 385 160 Z M379 15 Q399 15 411.5 18.5 Q424 22 438 32 Q427 74 411.5 95 Q396 116 372 116 Q350 116 336 102 Q322 88 322 68 Q322 47 335 31 Q348 15 379 15 Z " />
<glyph glyph-name="R" unicode="R" horiz-adv-x="728" d="M624 523 Q624 493 614.5 466 Q605 439 584 416.5 Q563 394 529.5 378 Q496 362 447 355 Q521 345 565 305 Q609 265 619 179 L623 140 Q628 86 641.5 65.5 Q655 45 675 45 Q689 45 696.5 51.5 Q704 58 710 72 L725 60 Q710 31 680.5 11 Q651 -9 606 -9 Q580 -9 557 -2 Q534 5 516 23.5 Q498 42 485.5 73.5 Q473 105 466 153 L460 196 Q455 232 447.5 259.5 Q440 287 425.5 305.5 Q411 324 389.5 333 Q368 342 336 342 L269 342 L269 21 L355 21 L355 0 L35 0 L35 21 L117 21 L117 676 L35 676 L35 697 L366 697 Q441 697 491 682.5 Q541 668 570.5 644 Q600 620 612 588.5 Q624 557 624 523 Z M269 676 L269 364 L327 364 Q395 364 431.5 400.5 Q468 437 468 521 Q468 605 431 640.5 Q394 676 321 676 L269 676 Z " />
<glyph glyph-name="S" unicode="S" horiz-adv-x="586" d="M302 710 Q359 710 400 696.5 Q441 683 467.5 662 Q494 641 506.5 615.5 Q519 590 519 566 Q519 528 496.5 506 Q474 484 441 484 Q416 484 399 493.5 Q382 503 373 515 L468 624 Q443 653 404.5 669.5 Q366 686 315 686 Q255 686 216 658 Q177 630 177 581 Q177 535 211 502 Q245 469 329 435 Q388 412 429 388 Q470 364 496 337 Q522 310 533.5 279 Q545 248 545 212 Q545 159 522 118 Q499 77 461 49 Q423 21 372 6 Q321 -9 266 -9 Q215 -9 174.5 3 Q134 15 106 35 Q78 55 63 81 Q48 107 48 134 Q48 174 71.5 195.5 Q95 217 126 217 Q152 217 169.5 207.5 Q187 198 197 185 L105 74 Q134 47 172 32 Q210 17 268 17 Q297 17 325 25 Q353 33 375 49 Q397 65 410.5 89 Q424 113 424 145 Q424 165 417 184.5 Q410 204 390.5 224.5 Q371 245 336 266.5 Q301 288 244 312 Q196 332 160.5 352.5 Q125 373 101.5 397 Q78 421 66.5 450 Q55 479 55 516 Q55 560 74 595.5 Q93 631 126 656.5 Q159 682 204 696 Q249 710 302 710 Z " />
<glyph glyph-name="T" unicode="T" horiz-adv-x="671" d="M636 697 L636 479 L615 479 L610 508 Q602 555 586 587.5 Q570 620 548 639.5 Q526 659 498 667.5 Q470 676 438 676 L411 676 L411 21 L497 21 L497 0 L173 0 L173 21 L259 21 L259 676 L232 676 Q198 676 169 667.5 Q140 659 118 639.5 Q96 620 81 587.5 Q66 555 60 508 L56 479 L34 479 L34 697 L636 697 Z " />
<glyph glyph-name="U" unicode="U" horiz-adv-x="736" d="M354 697 L354 676 L268 676 L268 223 Q268 167 282 129 Q296 91 319 68 Q342 45 370.5 35.5 Q399 26 429 26 Q507 26 556.5 78 Q606 130 606 234 L606 676 L520 676 L520 697 L715 697 L715 676 L634 676 L634 246 Q634 128 573.5 59.5 Q513 -9 390 -9 Q257 -9 186.5 55.5 Q116 120 116 257 L116 676 L30 676 L30 697 L354 697 Z " />
<glyph glyph-name="V" unicode="V" horiz-adv-x="664" d="M220 676 L415 151 Q438 199 460 249 Q482 299 502.5 347.5 Q523 396 540.5 441.5 Q558 487 571 524.5 Q584 562 591.5 590 Q599 618 599 633 Q599 660 587.5 668 Q576 676 559 676 L444 676 Q442 681 442 685 Q442 689 442 694 Q442 709 447.5 723.5 Q453 738 464.5 750 Q476 762 494 769 Q512 776 536 776 Q580 776 609 747.5 Q638 719 638 665 Q638 634 624 585 Q610 536 587.5 476.5 Q565 417 536 351 Q507 285 477.5 221.5 Q448 158 419.5 100.5 Q391 43 370 0 L321 0 L57 676 L-4 676 L-4 697 L315 697 L315 676 L220 676 Z " />
<glyph glyph-name="W" unicode="W" horiz-adv-x="996" d="M932 630 Q932 659 920 667.5 Q908 676 891 676 L778 676 Q776 681 776 685 Q776 689 776 694 Q776 709 781 723.5 Q786 738 797.5 750 Q809 762 826.5 769 Q844 776 868 776 Q911 776 940 747.5 Q969 719 969 665 Q969 637 957 589 Q945 541 924.5 481 Q904 421 878.5 355 Q853 289 825.5 224 Q798 159 771.5 101 Q745 43 724 0 L674 0 L528 440 L350 0 L296 0 L62 676 L0 676 L0 697 L307 697 L307 676 L220 676 L389 161 L514 480 L446 676 L388 676 L388 697 L693 697 L693 676 L605 676 L772 168 Q804 238 833 311 Q862 384 884 447.5 Q906 511 919 559.5 Q932 608 932 630 Z " />
<glyph glyph-name="X" unicode="X" horiz-adv-x="700" d="M426 395 L641 21 L700 21 L700 0 L361 0 L361 21 L466 21 L293 321 L104 21 L205 21 L205 0 L2 0 L2 21 L68 21 L276 351 L91 676 L24 676 L24 697 L372 697 L372 676 L267 676 L410 424 L567 676 L473 676 L473 697 L670 697 L670 676 L603 676 L426 395 Z " />
<glyph glyph-name="Y" unicode="Y" horiz-adv-x="671" d="M499 21 L499 0 L176 0 L176 21 L261 21 L261 303 L68 676 L-4 676 L-4 697 L341 697 L341 676 L241 676 L401 355 L570 676 L472 676 L472 697 L674 697 L674 676 L603 676 L413 317 L413 21 L499 21 Z " />
<glyph glyph-name="Z" unicode="Z" horiz-adv-x="632" d="M200 530 Q191 519 174.5 510 Q158 501 132 501 Q97 501 72.5 522.5 Q48 544 48 584 Q48 633 88.5 665 Q129 697 206 697 L596 697 L596 685 L190 21 L361 21 Q409 21 443.5 34.5 Q478 48 502 74.5 Q526 101 540.5 140.5 Q555 180 564 232 L588 232 L572 0 L33 0 L33 21 L436 676 L207 676 Q172 676 149.5 670 Q127 664 111 647 L200 530 Z " />
<glyph glyph-name="bracketleft" unicode="&#x5b;" horiz-adv-x="421" d="M125 744 L376 744 L376 722 L251 722 L251 -128 L376 -128 L376 -150 L125 -150 L125 744 Z " />
<glyph glyph-name="backslash" unicode="&#x5c;" horiz-adv-x="368" d="M348 -39 L293 -39 L20 730 L76 730 L348 -39 Z " />
<glyph glyph-name="bracketright" unicode="&#x5d;" horiz-adv-x="421" d="M296 -150 L45 -150 L45 -128 L170 -128 L170 722 L45 722 L45 744 L296 744 L296 -150 Z " />
<glyph glyph-name="asciicircum" unicode="&#x5e;" horiz-adv-x="690" d="M524 326 L346 622 L166 326 L122 326 L318 697 L376 697 L568 326 L524 326 Z " />
<glyph glyph-name="underscore" unicode="&#x5f;" horiz-adv-x="488" d="M0 -122 L0 -63 L488 -63 L488 -122 L0 -122 Z " />
<glyph glyph-name="grave" unicode="&#x60;" horiz-adv-x="410" d="M323 521 L286 521 L131 602 Q105 616 95 627 Q85 638 85 655 Q85 672 99 685.5 Q113 699 135 699 Q155 699 171 689.5 Q187 680 202 662 L323 521 Z " />
<glyph glyph-name="a" unicode="a" horiz-adv-x="512" d="M308 50 Q281 21 245 6 Q209 -9 167 -9 Q142 -9 119 -2 Q96 5 78.5 19.5 Q61 34 50.5 56 Q40 78 40 107 Q40 148 62 174.5 Q84 201 117 216.5 Q150 232 187.5 238.5 Q225 245 257 246 Q270 247 279 247 Q288 247 299 247 L299 364 Q299 408 273 428.5 Q247 449 214 449 Q188 449 167 439 Q146 429 134 417 L193 315 Q186 304 169.5 295.5 Q153 287 130 287 Q103 287 81.5 303 Q60 319 60 354 Q60 378 74 399 Q88 420 112 436 Q136 452 169.5 461.5 Q203 471 242 471 Q307 471 345 456 Q383 441 403 415 Q423 389 428.5 354.5 Q434 320 434 281 L434 75 Q434 55 442.5 44 Q451 33 465 33 Q479 33 492 49 L504 38 Q486 15 462.5 3 Q439 -9 406 -9 Q374 -9 348 5 Q322 19 308 50 Z M299 229 Q274 228 249.5 224 Q225 220 206 209 Q187 198 175.5 178 Q164 158 164 126 Q164 100 170.5 83 Q177 66 187 55.5 Q197 45 210 41 Q223 37 237 37 Q261 37 277 46.5 Q293 56 299 65 L299 229 Z " />
<glyph glyph-name="b" unicode="b" horiz-adv-x="575" d="M302 -9 Q270 -9 248.5 -3 Q227 3 209 9.5 Q191 16 174 22 Q157 28 134 28 Q111 28 96 17 Q81 6 67 -14 L52 -3 Q66 16 73 34 Q80 52 80 86 L80 707 L25 707 L25 727 L218 727 L218 410 Q231 434 261.5 452.5 Q292 471 337 471 Q382 471 418.5 454 Q455 437 481.5 406.5 Q508 376 522.5 333.5 Q537 291 537 240 Q537 181 520 135 Q503 89 472.5 57 Q442 25 398.5 8 Q355 -9 302 -9 Z M218 133 Q218 80 237.5 46 Q257 12 299 12 Q319 12 336.5 24.5 Q354 37 367 64 Q380 91 387.5 133 Q395 175 395 234 Q395 290 387.5 329 Q380 368 367 393 Q354 418 336.5 429 Q319 440 298 440 Q277 440 262 430.5 Q247 421 237 405 Q227 389 222.5 368 Q218 347 218 325 L218 133 Z " />
<glyph glyph-name="c" unicode="c" horiz-adv-x="458" d="M427 57 Q398 25 358.5 8 Q319 -9 260 -9 Q214 -9 173 7 Q132 23 101.5 53 Q71 83 53 126 Q35 169 35 224 Q35 277 51 322 Q67 367 98 400 Q129 433 172.5 452 Q216 471 272 471 Q315 471 344.5 460.5 Q374 450 392.5 433.5 Q411 417 419.5 396.5 Q428 376 428 357 Q428 320 406 298 Q384 276 353 276 Q328 276 311 286 Q294 296 286 308 L384 409 Q376 422 355 436 Q334 450 301 450 Q244 450 211 393 Q178 336 178 233 Q178 179 189 139.5 Q200 100 218 74.5 Q236 49 260 37 Q284 25 311 25 Q344 25 368 36.5 Q392 48 415 71 L427 57 Z " />
<glyph glyph-name="d" unicode="d" horiz-adv-x="586" d="M499 75 Q499 55 507.5 44 Q516 33 530 33 Q546 33 558 50 L568 38 Q550 15 524 3 Q498 -9 464 -9 Q427 -9 399.5 7.5 Q372 24 361 59 Q344 29 314 10 Q284 -9 240 -9 Q196 -9 159 8.5 Q122 26 95.5 58 Q69 90 54 134 Q39 178 39 232 Q39 281 53.5 324.5 Q68 368 94.5 400.5 Q121 433 158.5 452 Q196 471 242 471 Q287 471 316.5 455 Q346 439 361 416 L361 707 L306 707 L306 727 L499 727 L499 75 Z M361 320 Q361 375 339 409.5 Q317 444 278 444 Q233 444 207.5 392.5 Q182 341 182 238 Q182 122 208.5 72 Q235 22 276 22 Q299 22 315 35.5 Q331 49 341.5 71.5 Q352 94 356.5 121.5 Q361 149 361 178 L361 320 Z " />
<glyph glyph-name="e" unicode="e" horiz-adv-x="475" d="M266 471 Q311 471 345 461 Q379 451 401.5 433 Q424 415 435.5 391 Q447 367 447 339 Q447 304 432 278.5 Q417 253 392 236 Q367 219 334 210.5 Q301 202 265 202 Q242 202 219.5 205 Q197 208 178 215 Q179 164 191 128 Q203 92 222 69 Q241 46 266 35.5 Q291 25 319 25 Q355 25 384 38.5 Q413 52 442 81 L453 67 Q422 34 377.5 12.5 Q333 -9 266 -9 Q218 -9 176 6.5 Q134 22 102.5 51.5 Q71 81 53 124.5 Q35 168 35 224 Q35 277 51 322 Q67 367 96.5 400 Q126 433 169 452 Q212 471 266 471 Z M266 451 Q234 451 210.5 409 Q187 367 180 295 Q178 281 178 266 Q178 251 178 235 Q208 226 239 226 Q276 226 300 252.5 Q324 279 324 344 Q324 394 307.5 422.5 Q291 451 266 451 Z " />
<glyph glyph-name="f" unicode="f" horiz-adv-x="353" d="M278 736 Q314 736 340.5 727 Q367 718 384.5 703 Q402 688 410 669.5 Q418 651 418 632 Q418 597 397.5 578 Q377 559 352 559 Q324 559 309 569.5 Q294 580 289 588 L375 678 Q369 691 352.5 702.5 Q336 714 310 714 Q262 714 240 673.5 Q218 633 218 563 L218 461 L344 461 L344 441 L218 441 L218 20 L307 20 L307 0 L25 0 L25 20 L80 20 L80 380 Q80 415 65 428 Q50 441 19 441 L19 461 L80 461 L80 497 Q80 543 91.5 586.5 Q103 630 127 663 Q151 696 188.5 716 Q226 736 278 736 Z " />
<glyph glyph-name="g" unicode="g" horiz-adv-x="504" d="M28 -106 Q28 -66 54 -43.5 Q80 -21 115 -10 Q77 6 57.5 32.5 Q38 59 38 94 Q38 128 57.5 158 Q77 188 110 205 Q83 225 68 253.5 Q53 282 53 315 Q53 340 62.5 367.5 Q72 395 95 418 Q118 441 157 456 Q196 471 255 471 Q297 471 330.5 463.5 Q364 456 387 443 Q407 454 416.5 468 Q426 482 426 495 Q426 513 416 518.5 Q406 524 386 524 L310 524 Q307 533 307 543 Q307 569 327.5 589.5 Q348 610 384 610 Q417 610 441 590 Q465 570 465 529 Q465 505 450.5 478 Q436 451 403 431 Q431 409 444 379.5 Q457 350 457 319 Q457 290 445 263 Q433 236 408 215 Q383 194 345 181.5 Q307 169 255 169 Q212 169 181 176.5 Q150 184 127 195 Q117 188 112.5 177 Q108 166 108 154 Q108 132 120.5 119 Q133 106 156 97.5 Q179 89 213 84.5 Q247 80 289 75 Q377 65 428.5 32 Q480 -1 480 -65 Q480 -103 462.5 -133 Q445 -163 414 -183 Q383 -203 340.5 -213.5 Q298 -224 248 -224 Q200 -224 159.5 -216.5 Q119 -209 90 -194 Q61 -179 44.5 -157 Q28 -135 28 -106 Z M370 -120 Q370 -89 346.5 -73 Q323 -57 287.5 -48 Q252 -39 211 -33.5 Q170 -28 135 -17 Q121 -35 114.5 -53 Q108 -71 108 -97 Q108 -141 143 -171 Q178 -201 251 -201 Q306 -201 338 -178 Q370 -155 370 -120 Z M255 191 Q277 191 291 202.5 Q305 214 313.5 232 Q322 250 325 272 Q328 294 328 315 Q328 338 324.5 362.5 Q321 387 312.5 407 Q304 427 290 439.5 Q276 452 255 452 Q234 452 220 439.5 Q206 427 198 407 Q190 387 186.5 362.5 Q183 338 183 315 Q183 294 186 272 Q189 250 197 232 Q205 214 219 202.5 Q233 191 255 191 Z " />
<glyph glyph-name="h" unicode="h" horiz-adv-x="607" d="M524 75 Q524 55 532 44 Q540 33 554 33 Q571 33 582 49 L593 37 Q555 -9 490 -9 Q445 -9 414.5 18 Q384 45 384 108 L384 330 Q384 382 368 407.5 Q352 433 315 433 Q273 433 247.5 402 Q222 371 222 323 L222 20 L276 20 L276 0 L29 0 L29 20 L84 20 L84 707 L29 707 L29 727 L222 727 L222 396 Q228 408 239.5 421 Q251 434 268.5 445 Q286 456 310 463.5 Q334 471 365 471 Q410 471 440.5 458 Q471 445 489.5 423.5 Q508 402 516 373 Q524 344 524 311 L524 75 Z " />
<glyph glyph-name="i" unicode="i" horiz-adv-x="314" d="M225 461 L225 20 L280 20 L280 0 L32 0 L32 20 L87 20 L87 441 L32 441 L32 461 L225 461 Z M231 605 Q231 573 209.5 551.5 Q188 530 158 530 Q128 530 107 551.5 Q86 573 86 605 Q86 634 107 655 Q128 676 158 676 Q188 676 209.5 655 Q231 634 231 605 Z " />
<glyph glyph-name="j" unicode="j" horiz-adv-x="300" d="M-13 -217 Q9 -213 26.5 -204 Q44 -195 56.5 -176.5 Q69 -158 75.5 -129 Q82 -100 82 -56 L82 441 L27 441 L27 461 L220 461 L220 32 Q220 -25 202.5 -72 Q185 -119 154 -153.5 Q123 -188 81 -208.5 Q39 -229 -9 -233 L-13 -217 Z M224 605 Q224 573 203 551.5 Q182 530 152 530 Q122 530 101 551.5 Q80 573 80 605 Q80 634 101 655 Q122 676 152 676 Q182 676 203 655 Q224 634 224 605 Z " />
<glyph glyph-name="k" unicode="k" horiz-adv-x="563" d="M490 75 Q490 55 498 44 Q506 33 520 33 Q535 33 547 48 L558 36 Q542 15 517.5 3 Q493 -9 461 -9 Q440 -9 421 -3.5 Q402 2 387.5 14.5 Q373 27 364.5 47.5 Q356 68 356 98 L356 169 Q356 201 342.5 218 Q329 235 305 235 Q294 235 281.5 231.5 Q269 228 253 223 L222 211 L222 20 L276 20 L276 0 L29 0 L29 20 L84 20 L84 707 L29 707 L29 727 L222 727 L222 233 L353 282 Q413 305 433.5 323 Q454 341 454 357 Q454 369 445.5 375.5 Q437 382 415 382 L338 382 Q335 391 335 401 Q335 428 355.5 449.5 Q376 471 416 471 Q458 471 479 448 Q500 425 500 397 Q500 352 465.5 322 Q431 292 376 271 L336 255 Q356 260 377 260 Q424 260 457 229.5 Q490 199 490 140 L490 75 Z " />
<glyph glyph-name="l" unicode="l" horiz-adv-x="319" d="M213 102 Q213 61 228.5 44.5 Q244 28 265 28 Q292 28 311 53 L321 43 Q299 15 268.5 3 Q238 -9 206 -9 Q180 -9 156.5 -2 Q133 5 115 22 Q97 39 86 69 Q75 99 75 145 L75 707 L20 707 L20 727 L213 727 L213 102 Z " />
<glyph glyph-name="m" unicode="m" horiz-adv-x="892" d="M806 75 Q806 55 814.5 44 Q823 33 837 33 Q853 33 864 49 L875 37 Q837 -9 772 -9 Q727 -9 697.5 18 Q668 45 668 108 L668 330 Q668 382 653 406 Q638 430 602 430 Q563 430 539.5 400 Q516 370 516 322 L516 20 L575 20 L575 0 L330 0 L330 20 L378 20 L378 337 Q378 431 310 431 Q271 431 248 401 Q225 371 225 323 L225 20 L272 20 L272 0 L32 0 L32 20 L87 20 L87 441 L32 441 L32 461 L223 461 L223 391 Q229 403 240.5 417 Q252 431 269.5 443 Q287 455 310.5 463 Q334 471 364 471 Q424 471 458 449.5 Q492 428 512 387 Q529 421 564 446 Q599 471 654 471 Q699 471 728.5 458 Q758 445 775 423.5 Q792 402 799 373 Q806 344 806 311 L806 75 Z " />
<glyph glyph-name="n" unicode="n" horiz-adv-x="613" d="M492 -9 Q447 -9 417.5 18 Q388 45 388 108 L388 330 Q388 433 317 433 Q275 433 250 402 Q225 371 225 323 L225 20 L279 20 L279 0 L32 0 L32 20 L87 20 L87 441 L32 441 L32 461 L223 461 L223 391 Q229 403 241 417 Q253 431 271 443 Q289 455 313.5 463 Q338 471 369 471 Q414 471 444 458 Q474 445 492.5 423.5 Q511 402 518.5 373 Q526 344 526 311 L526 75 Q526 55 534.5 44 Q543 33 557 33 Q573 33 585 50 L596 38 Q557 -9 492 -9 Z " />
<glyph glyph-name="o" unicode="o" horiz-adv-x="558" d="M279 471 Q337 471 382 452 Q427 433 457.5 400.5 Q488 368 504 324.5 Q520 281 520 233 Q520 185 504 141.5 Q488 98 457 64.5 Q426 31 381.5 11 Q337 -9 279 -9 Q221 -9 176 11 Q131 31 100.5 64.5 Q70 98 54 141.5 Q38 185 38 233 Q38 281 54 324.5 Q70 368 100.5 400.5 Q131 433 176 452 Q221 471 279 471 Z M279 12 Q309 12 328 28 Q347 44 357.5 73.5 Q368 103 372 143.5 Q376 184 376 233 Q376 339 351.5 395 Q327 451 279 451 Q231 451 206 395 Q181 339 181 233 Q181 184 185 143.5 Q189 103 200 73.5 Q211 44 230 28 Q249 12 279 12 Z " />
<glyph glyph-name="p" unicode="p" horiz-adv-x="570" d="M319 -9 Q281 -9 257 -2 Q233 5 216 16 L216 -186 L281 -186 L281 -207 L22 -207 L22 -186 L78 -186 L78 441 L23 441 L23 461 L216 461 L216 405 Q230 429 259.5 450 Q289 471 336 471 Q381 471 417 454 Q453 437 478.5 406.5 Q504 376 518 334.5 Q532 293 532 244 Q532 188 518 142 Q504 96 477 62 Q450 28 410 9.5 Q370 -9 319 -9 Z M286 17 Q308 17 326.5 28.5 Q345 40 359 66 Q373 92 381 133.5 Q389 175 389 234 Q389 289 381.5 328 Q374 367 361.5 391 Q349 415 331.5 426 Q314 437 294 437 Q273 437 258 427 Q243 417 234 401 Q225 385 220.5 364 Q216 343 216 321 L216 66 Q226 47 241.5 32 Q257 17 286 17 Z " />
<glyph glyph-name="q" unicode="q" horiz-adv-x="572" d="M551 -186 L551 -207 L291 -207 L291 -186 L358 -186 L358 60 Q341 29 310 10 Q279 -9 234 -9 Q190 -9 153.5 8.5 Q117 26 91 58 Q65 90 50.5 134 Q36 178 36 232 Q36 283 51.5 326.5 Q67 370 96.5 402 Q126 434 167.5 452.5 Q209 471 262 471 Q298 471 321.5 465 Q345 459 364 452 Q383 445 400 439 Q417 433 440 433 Q463 433 479 443.5 Q495 454 509 474 L524 464 Q517 454 512 445.5 Q507 437 503.5 427 Q500 417 498 404.5 Q496 392 496 375 L496 -186 L551 -186 Z M358 324 Q358 379 336 413.5 Q314 448 275 448 Q229 448 204 394.5 Q179 341 179 238 Q179 122 205.5 72 Q232 22 273 22 Q295 22 311.5 35 Q328 48 338 68 Q348 88 353 112.5 Q358 137 358 160 L358 324 Z " />
<glyph glyph-name="r" unicode="r" horiz-adv-x="473" d="M341 471 Q387 471 417.5 444.5 Q448 418 448 373 Q448 332 423 309 Q398 286 363 286 Q337 286 320 296 Q303 306 295 317 L396 423 Q386 436 371 443 Q356 450 333 450 Q281 450 252 408.5 Q223 367 223 301 L223 20 L295 20 L295 0 L29 0 L29 20 L85 20 L85 441 L29 441 L29 461 L221 461 L221 393 Q236 429 266 450 Q296 471 341 471 Z " />
<glyph glyph-name="s" unicode="s" horiz-adv-x="430" d="M223 471 Q300 471 339.5 442 Q379 413 379 377 Q379 348 362 332.5 Q345 317 322 317 Q302 317 288.5 324 Q275 331 269 338 L334 408 Q322 422 298 435 Q274 448 239 448 Q197 448 173 429.5 Q149 411 149 382 Q149 350 174.5 330 Q200 310 254 289 Q324 263 360 228.5 Q396 194 396 143 Q396 105 381 76.5 Q366 48 339.5 29 Q313 10 277.5 0.5 Q242 -9 200 -9 Q170 -9 141.5 -3.5 Q113 2 90 14 Q67 26 53 43.5 Q39 61 39 85 Q39 114 56.5 130.5 Q74 147 97 147 Q117 147 128.5 140 Q140 133 147 123 L81 52 Q101 33 130 24 Q159 15 188 15 Q230 15 259.5 33 Q289 51 289 84 Q289 99 283.5 112 Q278 125 264 137.5 Q250 150 227 162 Q204 174 169 188 Q40 237 40 327 Q40 396 91 433.5 Q142 471 223 471 Z " />
<glyph glyph-name="t" unicode="t" horiz-adv-x="343" d="M341 44 Q318 17 285 4 Q252 -9 212 -9 Q183 -9 157.5 -1 Q132 7 113 26 Q94 45 83 75 Q72 105 72 150 L72 441 L21 441 L21 461 L42 461 Q69 461 92.5 472 Q116 483 134.5 502 Q153 521 166 545.5 Q179 570 186 596 L193 622 L210 622 L210 461 L325 461 L325 441 L210 441 L210 110 Q210 65 228.5 47.5 Q247 30 272 30 Q288 30 303.5 37 Q319 44 330 55 L341 44 Z " />
<glyph glyph-name="u" unicode="u" horiz-adv-x="598" d="M473 -9 Q437 -9 409.5 9 Q382 27 374 69 Q368 58 356.5 44.5 Q345 31 327.5 19 Q310 7 286.5 -1 Q263 -9 233 -9 Q188 -9 157.5 3.5 Q127 16 108.5 38 Q90 60 82.5 89 Q75 118 75 151 L75 441 L20 441 L20 461 L213 461 L213 132 Q213 110 216 91.5 Q219 73 226.5 59 Q234 45 247.5 37 Q261 29 282 29 Q322 29 345.5 60.5 Q369 92 369 142 L369 441 L315 441 L315 461 L507 461 L507 75 Q507 55 515.5 44 Q524 33 538 33 Q555 33 567 50 L577 38 Q559 15 532.5 3 Q506 -9 473 -9 Z " />
<glyph glyph-name="v" unicode="v" horiz-adv-x="481" d="M166 441 L300 97 Q367 222 394 295 Q421 368 421 401 Q421 425 410 433.5 Q399 442 380 442 L298 442 Q295 451 295 461 Q295 489 315.5 510 Q336 531 371 531 Q410 531 434 505.5 Q458 480 458 433 Q458 400 439.5 347 Q421 294 393.5 233 Q366 172 334.5 110.5 Q303 49 277 0 L197 0 L16 441 L-39 441 L-39 461 L233 461 L233 441 L166 441 Z " />
<glyph glyph-name="w" unicode="w" horiz-adv-x="774" d="M275 441 L275 461 L535 461 L535 441 L472 441 L601 102 Q666 224 689.5 297.5 Q713 371 713 401 Q713 425 702.5 433.5 Q692 442 673 442 L590 442 Q589 447 588 451.5 Q587 456 587 460 Q587 489 608 510 Q629 531 664 531 Q702 531 726.5 506 Q751 481 751 433 Q751 401 733.5 347.5 Q716 294 689.5 233.5 Q663 173 633 111 Q603 49 578 0 L498 0 L392 266 L279 0 L195 0 L16 441 L-39 441 L-39 461 L222 461 L222 441 L165 441 L297 103 L380 296 L324 441 L275 441 Z " />
<glyph glyph-name="x" unicode="x" horiz-adv-x="529" d="M148 20 L148 0 L-8 0 L-8 20 L51 20 L194 217 L50 441 L-4 441 L-4 461 L271 461 L271 441 L207 441 L309 283 L421 441 L355 441 L355 461 L512 461 L512 441 L452 441 L323 262 L479 20 L532 20 L532 0 L258 0 L258 20 L322 20 L209 194 L81 20 L148 20 Z " />
<glyph glyph-name="y" unicode="y" horiz-adv-x="469" d="M11 441 L-42 441 L-42 461 L225 461 L225 441 L159 441 L287 154 L401 441 L339 441 L339 461 L482 461 L482 441 L426 441 L252 0 Q229 -59 210.5 -101 Q192 -143 174 -170.5 Q156 -198 135.5 -211 Q115 -224 87 -224 Q54 -224 34 -205 Q14 -186 14 -156 Q14 -147 17 -136 L115 -136 Q137 -136 151 -131 Q165 -126 176 -112.5 Q187 -99 197 -75.5 Q207 -52 221 -15 L11 441 Z " />
<glyph glyph-name="z" unicode="z" horiz-adv-x="471" d="M188 441 Q157 441 134 439 Q111 437 91 430 L137 333 Q129 325 116.5 320 Q104 315 87 315 Q61 315 43 331.5 Q25 348 25 374 Q25 397 35.5 413.5 Q46 430 64.5 440.5 Q83 451 108 456 Q133 461 161 461 L449 461 L449 452 L168 19 L307 19 Q357 19 383.5 58.5 Q410 98 419 163 L434 163 L434 0 L21 0 L21 16 L299 441 L188 441 Z " />
<glyph glyph-name="braceleft" unicode="&#x7b;" horiz-adv-x="405" d="M40 284 L40 305 L56 305 Q91 305 113 327 Q135 349 135 394 Q135 419 131.5 446.5 Q128 474 124.5 502 Q121 530 117.5 557.5 Q114 585 114 611 Q114 676 152 710 Q190 744 257 744 Q280 744 308 740 Q336 736 360 728 L360 708 Q330 716 306 716 Q265 716 250 693.5 Q235 671 235 633 Q235 582 245.5 527 Q256 472 256 410 Q256 362 231 333.5 Q206 305 164 294 Q206 283 231 254.5 Q256 226 256 178 Q256 119 245.5 63.5 Q235 8 235 -45 Q235 -83 250 -105 Q265 -127 306 -127 Q318 -127 332 -125.5 Q346 -124 360 -120 L360 -140 Q336 -148 308 -152 Q280 -156 257 -156 Q190 -156 152 -122 Q114 -88 114 -23 Q114 2 117.5 29.5 Q121 57 124.5 85 Q128 113 131.5 140.5 Q135 168 135 194 Q135 239 113 261.5 Q91 284 56 284 L40 284 Z " />
<glyph glyph-name="bar" unicode="&#x7c;" horiz-adv-x="263" d="M98 776 L165 776 L165 -161 L98 -161 L98 776 Z " />
<glyph glyph-name="braceright" unicode="&#x7d;" horiz-adv-x="406" d="M350 284 Q315 284 293 261.5 Q271 239 271 194 Q271 168 274.5 140.5 Q278 113 281.5 85 Q285 57 288.5 29.5 Q292 2 292 -23 Q292 -88 254 -122 Q216 -156 149 -156 Q126 -156 98 -152 Q70 -148 45 -140 L45 -120 Q60 -124 74 -125.5 Q88 -127 100 -127 Q140 -127 155.5 -105 Q171 -83 171 -45 Q171 8 160.5 63.5 Q150 119 150 178 Q150 226 175 254.5 Q200 283 242 294 Q200 305 175 333.5 Q150 362 150 410 Q150 472 160.5 527 Q171 582 171 633 Q171 671 155.5 693.5 Q140 716 100 716 Q77 716 45 708 L45 728 Q70 736 98 740 Q126 744 149 744 Q216 744 254 710 Q292 676 292 611 Q292 585 288.5 557.5 Q285 530 281.5 502 Q278 474 274.5 446.5 Q271 419 271 394 Q271 349 293 327 Q315 305 350 305 L366 305 L366 284 L350 284 Z " />
<glyph glyph-name="asciitilde" unicode="&#x7e;" horiz-adv-x="690" d="M623 375 Q604 242 497 242 Q461 242 422 253.5 Q383 265 343.5 279.5 Q304 294 266 305.5 Q228 317 195 317 Q159 317 137 293 Q115 269 107 234 L66 234 Q85 367 192 367 Q228 367 267 355.5 Q306 344 345.5 329.5 Q385 315 423 303.5 Q461 292 494 292 Q530 292 552 316 Q574 340 582 375 L623 375 Z " />
<glyph glyph-name="uni00A0" unicode="&#xa0;" horiz-adv-x="190" d="" />
<glyph glyph-name="exclamdown" unicode="&#xa1;" horiz-adv-x="312" d="M172 274 Q172 212 180.5 149.5 Q189 87 199.5 29 Q210 -29 218.5 -78 Q227 -127 227 -162 Q227 -199 208.5 -222 Q190 -245 156 -245 Q122 -245 103.5 -222 Q85 -199 85 -162 Q85 -127 93.5 -78 Q102 -29 112.5 29 Q123 87 132 149.5 Q141 212 141 274 L172 274 Z M156 474 Q185 474 203 455 Q221 436 221 410 Q221 384 203 365 Q185 346 156 346 Q127 346 109 365 Q91 384 91 410 Q91 436 109 455 Q127 474 156 474 Z " />
<glyph glyph-name="cent" unicode="&#xa2;" horiz-adv-x="512" d="M274 -100 L274 -9 Q230 -9 188 9.5 Q146 28 112.5 63 Q79 98 58.5 147 Q38 196 38 258 Q38 318 56 365 Q74 412 105.5 446 Q137 480 180.5 500 Q224 520 274 525 L274 618 L303 618 L303 527 Q343 527 372.5 515.5 Q402 504 421 486.5 Q440 469 449 447.5 Q458 426 458 404 Q458 367 435 342.5 Q412 318 381 318 Q356 318 341 329 Q326 340 321 348 L415 449 Q410 457 402.5 466.5 Q395 476 382.5 484.5 Q370 493 353 499 Q336 505 314 505 Q308 505 303 504 L303 26 Q308 25 310 25 Q312 25 317 25 Q354 25 383.5 43.5 Q413 62 440 92 L455 78 Q427 43 392 18.5 Q357 -6 303 -9 L303 -100 L274 -100 Z M173 268 Q173 228 179.5 190 Q186 152 199 120.5 Q212 89 231 66 Q250 43 274 33 L274 497 Q218 469 195.5 408.5 Q173 348 173 268 Z " />
<glyph glyph-name="sterling" unicode="&#xa3;" horiz-adv-x="596" d="M63 319 L137 319 Q129 350 123 384.5 Q117 419 117 453 Q117 495 134.5 531.5 Q152 568 182 594.5 Q212 621 253.5 636.5 Q295 652 343 652 Q391 652 425 638 Q459 624 481.5 602.5 Q504 581 514.5 555.5 Q525 530 525 507 Q525 466 502 443 Q479 420 448 420 Q420 420 402.5 431.5 Q385 443 377 456 L473 575 Q457 601 426.5 615.5 Q396 630 365 630 Q309 630 278.5 594.5 Q248 559 248 498 Q248 447 258.5 405 Q269 363 278 319 L438 319 L438 292 L281 292 Q281 192 247 126.5 Q213 61 127 21 L328 21 Q370 21 399 33 Q428 45 448 69 Q468 93 480.5 129 Q493 165 502 213 L522 213 L522 0 L34 0 L34 21 L45 21 Q103 21 132 61 Q161 101 161 165 Q161 202 155 233 Q149 264 142 292 L63 292 L63 319 Z " />
<glyph glyph-name="currency" unicode="&#xa4;" horiz-adv-x="604" d="M500 305 Q500 272 489 242.5 Q478 213 458 185 L516 127 L484 96 L427 154 Q397 132 369.5 122 Q342 112 306 112 Q271 112 243 122 Q215 132 186 154 L129 96 L96 127 L155 185 Q135 213 124 242.5 Q113 272 113 305 Q113 370 155 426 L96 484 L129 515 L186 457 Q215 479 243 489 Q271 499 306 499 Q342 499 369.5 489 Q397 479 427 457 L484 515 L516 484 L458 426 Q478 399 489 369 Q500 339 500 305 Z M153 305 Q153 272 164.5 243.5 Q176 215 196.5 194 Q217 173 245 161.5 Q273 150 306 150 Q339 150 367.5 161.5 Q396 173 416.5 194 Q437 215 449 243.5 Q461 272 461 305 Q461 339 449 367.5 Q437 396 416.5 416.5 Q396 437 367.5 448.5 Q339 460 306 460 Q273 460 245 448.5 Q217 437 196.5 416.5 Q176 396 164.5 367.5 Q153 339 153 305 Z " />
<glyph glyph-name="yen" unicode="&#xa5;" horiz-adv-x="634" d="M249 625 L382 312 L534 625 L448 625 L448 647 L629 647 L629 625 L565 625 L428 341 L555 341 L555 313 L414 313 L396 275 L396 233 L555 233 L555 206 L396 206 L396 21 L482 21 L482 0 L163 0 L163 21 L248 21 L248 206 L94 206 L94 233 L248 233 L248 262 L226 313 L94 313 L94 341 L212 341 L80 625 L16 625 L16 647 L345 647 L345 625 L249 625 Z " />
<glyph glyph-name="brokenbar" unicode="&#xa6;" horiz-adv-x="263" d="M98 214 L165 214 L165 -160 L98 -160 L98 214 Z M98 776 L165 776 L165 402 L98 402 L98 776 Z " />
<glyph glyph-name="section" unicode="&#xa7;" horiz-adv-x="582" d="M434 200 Q434 224 417.5 247.5 Q401 271 371 296.5 Q341 322 299 349.5 Q257 377 206 410 Q177 402 162 381.5 Q147 361 147 338 Q147 311 160 288 Q173 265 201 242 Q229 219 272 192 Q315 165 374 130 Q404 139 419 158 Q434 177 434 200 Z M255 -148 Q303 -148 334.5 -127.5 Q366 -107 366 -67 Q366 -33 340 -6 Q314 21 258 56 Q194 96 154 125.5 Q114 155 91 178.5 Q68 202 59.5 223.5 Q51 245 51 270 Q51 299 62.5 323 Q74 347 93.5 366 Q113 385 138 399 Q163 413 189 422 Q138 457 116.5 486.5 Q95 516 95 558 Q95 591 110 618.5 Q125 646 153.5 666.5 Q182 687 223 698.5 Q264 710 315 710 Q364 710 399.5 698.5 Q435 687 458 669 Q481 651 492 629.5 Q503 608 503 588 Q503 550 480 524 Q457 498 423 498 Q398 498 382.5 507 Q367 516 360 526 L457 633 Q436 657 403.5 672.5 Q371 688 330 688 Q273 688 244.5 664 Q216 640 216 607 Q216 586 223.5 569.5 Q231 553 249.5 536 Q268 519 298.5 499 Q329 479 375 450 Q411 427 439.5 406.5 Q468 386 488 364.5 Q508 343 519 320.5 Q530 298 530 271 Q530 239 518 214.5 Q506 190 486 171.5 Q466 153 441 139.5 Q416 126 391 117 Q440 83 464 52.5 Q488 22 488 -17 Q488 -48 473.5 -76 Q459 -104 431 -125 Q403 -146 362 -158 Q321 -170 269 -170 Q219 -170 182.5 -158.5 Q146 -147 122 -129.5 Q98 -112 86.5 -90.5 Q75 -69 75 -48 Q75 -10 98 16 Q121 42 156 42 Q180 42 195.5 32.5 Q211 23 218 13 L122 -93 Q144 -119 177.5 -133.5 Q211 -148 255 -148 Z " />
<glyph glyph-name="dieresis" unicode="&#xa8;" horiz-adv-x="410" d="M375 602 Q375 574 356 554.5 Q337 535 309 535 Q281 535 261.5 554.5 Q242 574 242 602 Q242 629 261.5 648.5 Q281 668 309 668 Q337 668 356 648.5 Q375 629 375 602 Z M168 602 Q168 574 148 554.5 Q128 535 101 535 Q72 535 53 554.5 Q34 574 34 602 Q34 629 53 648.5 Q72 668 101 668 Q128 668 148 648.5 Q168 629 168 602 Z " />
<glyph glyph-name="copyright" unicode="&#xa9;" horiz-adv-x="762" d="M503 220 Q480 193 450.5 177.5 Q421 162 379 162 Q334 162 300.5 177.5 Q267 193 244.5 219 Q222 245 211 279 Q200 313 200 350 Q200 384 212.5 417.5 Q225 451 249 477 Q273 503 307.5 519 Q342 535 386 535 Q415 535 436 527.5 Q457 520 470.5 508 Q484 496 490.5 481.5 Q497 467 497 454 Q497 434 485 423.5 Q473 413 457 413 Q443 413 435.5 418 Q428 423 424 428 L475 484 Q461 502 440.5 511.5 Q420 521 390 521 Q356 521 333 508 Q310 495 295.5 472.5 Q281 450 275 420 Q269 390 269 356 Q269 310 278.5 276.5 Q288 243 304 221.5 Q320 200 341.5 190 Q363 180 386 180 Q419 180 444.5 191.5 Q470 203 493 229 L503 220 Z M47 352 Q47 418 72 476 Q97 534 140.5 577.5 Q184 621 242.5 646.5 Q301 672 367 672 Q433 672 491 646.5 Q549 621 592.5 577.5 Q636 534 661.5 476 Q687 418 687 352 Q687 286 661.5 227.5 Q636 169 592.5 125.5 Q549 82 491 57 Q433 32 367 32 Q301 32 242.5 57 Q184 82 140.5 125.5 Q97 169 72 227.5 Q47 286 47 352 Z M94 352 Q94 295 115 243.5 Q136 192 173 153.5 Q210 115 260 92.5 Q310 70 367 70 Q424 70 474.5 92.5 Q525 115 562.5 153.5 Q600 192 621.5 243.5 Q643 295 643 352 Q643 409 621.5 460.5 Q600 512 562.5 551 Q525 590 474.5 612.5 Q424 635 367 635 Q310 635 260 612.5 Q210 590 173 551 Q136 512 115 460.5 Q94 409 94 352 Z " />
<glyph glyph-name="ordfeminine" unicode="&#xaa;" horiz-adv-x="338" d="M261 387 Q241 387 224 395.5 Q207 404 198 424 Q186 410 162.5 398.5 Q139 387 110 387 Q93 387 76.5 391.5 Q60 396 47 405.5 Q34 415 26.5 429.5 Q19 444 19 465 Q19 493 33 511 Q47 529 68.5 540 Q90 551 116.5 555.5 Q143 560 167 560 Q171 560 177.5 560 Q184 560 192 559 L192 637 Q192 666 177 679.5 Q162 693 137 693 Q121 693 107.5 686.5 Q94 680 86 673 L125 605 Q107 585 78 585 Q61 585 46.5 595.5 Q32 606 32 631 Q32 665 67 687.5 Q102 710 154 710 Q202 710 228.5 697.5 Q255 685 267.5 664.5 Q280 644 282.5 618.5 Q285 593 285 566 L285 444 Q285 417 304 417 Q315 417 324 428 L333 419 Q307 387 261 387 Z M192 546 Q176 545 160.5 542.5 Q145 540 132.5 532.5 Q120 525 112.5 512 Q105 499 105 478 Q105 443 119.5 431 Q134 419 151 419 Q167 419 177 425 Q187 431 192 438 L192 546 Z " />
<glyph glyph-name="guillemotleft" unicode="&#xab;" horiz-adv-x="562" d="M489 444 L512 424 L406 247 L512 70 L489 50 L280 231 L280 263 L489 444 Z M264 444 L287 424 L181 247 L287 70 L264 50 L55 231 L55 263 L264 444 Z " />
<glyph glyph-name="logicalnot" unicode="&#xac;" horiz-adv-x="690" d="M555 146 L555 332 L80 332 L80 381 L609 381 L609 146 L555 146 Z " />
<glyph glyph-name="uni00AD" unicode="&#xad;" horiz-adv-x="380" d="M58 282 L321 282 L321 223 L58 223 L58 282 Z " />
<glyph glyph-name="registered" unicode="&#xae;" horiz-adv-x="438" d="M276 569 Q276 552 264 538.5 Q252 525 227 521 Q244 518 252.5 504.5 Q261 491 266 464 L267 460 Q270 445 274 439 Q278 433 285 433 Q289 433 290.5 435 Q292 437 295 442 L300 437 Q296 429 290.5 423.5 Q285 418 273 418 Q262 418 250.5 426 Q239 434 233 462 L231 472 Q227 493 222 503.5 Q217 514 200 514 L175 514 L175 429 L200 429 L200 421 L120 421 L120 429 L143 429 L143 607 L120 607 L120 618 L208 618 Q248 618 262 603.5 Q276 589 276 569 Z M175 607 L175 524 L195 524 Q239 524 239 569 Q239 592 228.5 599.5 Q218 607 195 607 L175 607 Z M205 704 Q244 704 277.5 689 Q311 674 336.5 648.5 Q362 623 376.5 589 Q391 555 391 516 Q391 477 376.5 443 Q362 409 336.5 383.5 Q311 358 277.5 343.5 Q244 329 205 329 Q166 329 132.5 343.5 Q99 358 73.5 383.5 Q48 409 33.5 443 Q19 477 19 516 Q19 555 33.5 589 Q48 623 73.5 648.5 Q99 674 132.5 689 Q166 704 205 704 Z M205 680 Q172 680 143 666.5 Q114 653 93 630.5 Q72 608 59.5 578.5 Q47 549 47 516 Q47 483 59.5 453.5 Q72 424 93 402.5 Q114 381 143 368 Q172 355 205 355 Q238 355 266.5 368 Q295 381 316.5 402.5 Q338 424 350.5 453.5 Q363 483 363 516 Q363 549 350.5 578.5 Q338 608 316.5 630.5 Q295 653 266.5 666.5 Q238 680 205 680 Z " />
<glyph glyph-name="macron" unicode="&#xaf;" horiz-adv-x="410" d="M56 550 L56 622 L353 622 L353 550 L56 550 Z " />
<glyph glyph-name="degree" unicode="&#xb0;" horiz-adv-x="355" d="M89 574 Q89 555 96 538 Q103 521 115 508 Q127 495 143.5 487.5 Q160 480 180 480 Q200 480 216.5 487.5 Q233 495 245 508 Q257 521 264 538 Q271 555 271 574 Q271 593 264 610 Q257 627 245 640 Q233 653 216.5 660.5 Q200 668 180 668 Q160 668 143.5 660.5 Q127 653 115 640 Q103 627 96 610 Q89 593 89 574 Z M44 574 Q44 602 54.5 627 Q65 652 83.5 670.5 Q102 689 127 699.5 Q152 710 180 710 Q208 710 233 699.5 Q258 689 276.5 670.5 Q295 652 305.5 627 Q316 602 316 574 Q316 546 305.5 521 Q295 496 276.5 477.5 Q258 459 233 448.5 Q208 438 180 438 Q152 438 127 448.5 Q102 459 83.5 477.5 Q65 496 54.5 521 Q44 546 44 574 Z " />
<glyph glyph-name="plusminus" unicode="&#xb1;" horiz-adv-x="690" d="M374 340 L374 169 L315 169 L315 340 L79 340 L79 390 L315 390 L315 560 L374 560 L374 390 L610 390 L610 340 L374 340 Z M79 70 L79 118 L610 118 L610 70 L79 70 Z " />
<glyph glyph-name="twosuperior" unicode="&#xb2;" horiz-adv-x="373" d="M29 309 Q41 333 58 354 Q75 375 97 396 Q125 422 148.5 445.5 Q172 469 189.5 493.5 Q207 518 217 545.5 Q227 573 227 606 Q227 646 207 666.5 Q187 687 158 687 Q133 687 114.5 676.5 Q96 666 85 649 L146 577 Q141 568 128 561 Q115 554 95 554 Q73 554 58 567.5 Q43 581 43 608 Q43 624 51 642 Q59 660 76.5 675 Q94 690 121.5 700 Q149 710 188 710 Q224 710 249.5 701.5 Q275 693 292 678.5 Q309 664 317 645 Q325 626 325 605 Q325 578 315.5 555.5 Q306 533 289.5 514.5 Q273 496 251 479 Q229 462 205 445 Q182 429 166 418 Q150 407 138 398 Q126 389 117.5 382.5 Q109 376 102 369 Q119 375 138.5 379.5 Q158 384 184 384 Q210 384 230 380 Q250 376 270 376 Q287 376 298 387 Q309 398 316 434 L329 434 L329 309 Q316 305 303.5 303.5 Q291 302 274 302 Q253 302 231 305.5 Q209 309 187 313.5 Q165 318 144 322 Q123 326 105 326 Q88 326 71 322 Q54 318 40 300 L29 309 Z " />
<glyph glyph-name="threesuperior" unicode="&#xb3;" horiz-adv-x="368" d="M143 596 Q128 574 100 574 Q80 574 65.5 586.5 Q51 599 51 622 Q51 635 57.5 650.5 Q64 666 79.5 679 Q95 692 120 701 Q145 710 182 710 Q250 710 282 682 Q314 654 314 618 Q314 578 289.5 553.5 Q265 529 228 520 Q276 509 300 483 Q324 457 324 419 Q324 368 283 335 Q242 302 164 302 Q133 302 109 309.5 Q85 317 69 329 Q53 341 45 356 Q37 371 37 386 Q37 410 51.5 424 Q66 438 90 438 Q108 438 119 432 Q130 426 136 419 L77 353 Q89 339 107 330.5 Q125 322 147 322 Q167 322 181.5 330 Q196 338 205.5 350.5 Q215 363 219.5 379.5 Q224 396 224 414 Q224 453 206 480.5 Q188 508 146 508 L113 508 L113 527 L145 527 Q183 527 199 553.5 Q215 580 215 613 Q215 656 196 673 Q177 690 153 690 Q134 690 116.5 681.5 Q99 673 88 659 L143 596 Z " />
<glyph glyph-name="acute" unicode="&#xb4;" horiz-adv-x="410" d="M84 521 L211 662 Q226 679 242.5 689 Q259 699 280 699 Q303 699 314.5 686.5 Q326 674 326 657 Q326 640 315 627.5 Q304 615 278 601 L127 521 L84 521 Z " />
<glyph glyph-name="mu" unicode="&#xb5;" horiz-adv-x="599" d="M523 75 Q523 55 532 44 Q541 33 555 33 Q563 33 570 37.5 Q577 42 583 50 L593 38 Q575 15 548.5 3 Q522 -9 489 -9 Q453 -9 425 9 Q397 27 389 69 Q361 30 326 14.5 Q291 -1 230 -1 L230 -207 L34 -207 L34 -186 L90 -186 L90 441 L34 441 L34 461 L230 461 L230 145 Q230 124 233 104.5 Q236 85 244.5 70.5 Q253 56 267 47.5 Q281 39 303 39 Q339 39 362 70.5 Q385 102 385 162 L385 441 L330 441 L330 461 L523 461 L523 75 Z " />
<glyph glyph-name="paragraph" unicode="&#xb6;" horiz-adv-x="586" d="M52 497 Q52 595 109.5 646 Q167 697 291 697 L493 697 L493 -170 L414 -170 L414 666 L343 666 L343 -170 L322 -170 L322 294 L275 294 Q220 294 178.5 309.5 Q137 325 109 352 Q81 379 66.5 416 Q52 453 52 497 Z " />
<glyph glyph-name="periodcentered" unicode="&#xb7;" horiz-adv-x="410" d="M276 262 Q276 234 256 214.5 Q236 195 209 195 Q180 195 161 214.5 Q142 234 142 262 Q142 289 161 308.5 Q180 328 209 328 Q236 328 256 308.5 Q276 289 276 262 Z " />
<glyph glyph-name="cedilla" unicode="&#xb8;" horiz-adv-x="410" d="M183 8 L208 8 L163 -75 Q168 -73 177.5 -72 Q187 -71 199 -71 Q237 -71 264 -91 Q291 -111 291 -146 Q291 -168 282 -184.5 Q273 -201 258 -212.5 Q243 -224 223.5 -229.5 Q204 -235 183 -235 Q145 -235 124 -220.5 Q103 -206 103 -183 Q103 -169 112 -160 Q121 -151 136 -151 Q152 -151 163 -163 L124 -203 Q128 -208 136 -212.5 Q144 -217 156 -217 Q178 -217 194.5 -202 Q211 -187 211 -150 Q211 -119 196 -105 Q181 -91 160 -91 Q148 -91 136 -96 L129 -91 L183 8 Z " />
<glyph glyph-name="onesuperior" unicode="&#xb9;" horiz-adv-x="316" d="M34 595 Q76 615 117 643 Q158 671 191 701 L229 701 L229 325 L283 325 L283 307 L53 307 L53 325 L126 325 L126 619 Q109 608 88 597 Q67 586 44 575 L34 595 Z " />
<glyph glyph-name="ordmasculine" unicode="&#xba;" horiz-adv-x="374" d="M187 710 Q226 710 256.5 697 Q287 684 307.5 662 Q328 640 339 611 Q350 582 350 549 Q350 517 339 487.5 Q328 458 307.5 435.5 Q287 413 256.5 400 Q226 387 187 387 Q148 387 117.5 400 Q87 413 66 435.5 Q45 458 34.5 487.5 Q24 517 24 549 Q24 582 34.5 611 Q45 640 66 662 Q87 684 117.5 697 Q148 710 187 710 Z M187 402 Q206 402 218.5 412.5 Q231 423 238 442.5 Q245 462 247.5 489 Q250 516 250 549 Q250 620 234 657.5 Q218 695 187 695 Q156 695 139.5 657.5 Q123 620 123 549 Q123 516 125.5 489 Q128 462 135.5 442.5 Q143 423 155 412.5 Q167 402 187 402 Z " />
<glyph glyph-name="guillemotright" unicode="&#xbb;" horiz-adv-x="562" d="M507 263 L507 231 L298 50 L275 70 L381 247 L275 424 L298 444 L507 263 Z M282 263 L282 231 L73 50 L50 70 L156 247 L50 424 L73 444 L282 263 Z " />
<glyph glyph-name="onequarter" unicode="&#xbc;" horiz-adv-x="824" d="M34 595 Q76 615 117 643 Q158 671 191 701 L229 701 L229 325 L283 325 L283 307 L53 307 L53 325 L126 325 L126 619 Q109 608 88 597 Q67 586 44 575 L34 595 Z M176 -9 L647 689 L696 689 L225 -9 L176 -9 Z M741 111 L799 111 L799 93 L741 93 L741 18 L792 18 L792 0 L590 0 L590 18 L643 18 L643 93 L490 93 L490 106 L678 394 L741 394 L741 111 Z M643 111 L643 302 L521 111 L643 111 Z " />
<glyph glyph-name="onehalf" unicode="&#xbd;" horiz-adv-x="855" d="M34 595 Q76 615 117 643 Q158 671 191 701 L229 701 L229 325 L283 325 L283 307 L53 307 L53 325 L126 325 L126 619 Q109 608 88 597 Q67 586 44 575 L34 595 Z M146 -9 L617 689 L666 689 L195 -9 L146 -9 Z M511 2 Q523 26 540 47 Q557 68 579 89 Q607 115 630.5 138.5 Q654 162 671.5 186.5 Q689 211 699 238.5 Q709 266 709 299 Q709 339 689 359.5 Q669 380 640 380 Q615 380 596.5 369.5 Q578 359 567 342 L628 270 Q623 261 610 254 Q597 247 577 247 Q555 247 540 260.5 Q525 274 525 301 Q525 317 533 335 Q541 353 558.5 368 Q576 383 603.5 393 Q631 403 670 403 Q706 403 731.5 394.5 Q757 386 774 371.5 Q791 357 799 338 Q807 319 807 298 Q807 271 797.5 248.5 Q788 226 771.5 207.5 Q755 189 733 172 Q711 155 687 138 Q664 122 648 111 Q632 100 620 91 Q608 82 599.5 75.5 Q591 69 584 62 Q601 68 620.5 72.5 Q640 77 666 77 Q692 77 712 73 Q732 69 752 69 Q769 69 780 80 Q791 91 798 127 L811 127 L811 2 Q798 -2 785.5 -3.5 Q773 -5 756 -5 Q735 -5 713 -1.5 Q691 2 669 6.5 Q647 11 626 15 Q605 19 587 19 Q570 19 553 15 Q536 11 522 -7 L511 2 Z " />
<glyph glyph-name="threequarters" unicode="&#xbe;" horiz-adv-x="876" d="M143 596 Q128 574 100 574 Q80 574 65.5 586.5 Q51 599 51 622 Q51 635 57.5 650.5 Q64 666 79.5 679 Q95 692 120 701 Q145 710 182 710 Q250 710 282 682 Q314 654 314 618 Q314 578 289.5 553.5 Q265 529 228 520 Q276 509 300 483 Q324 457 324 419 Q324 368 283 335 Q242 302 164 302 Q133 302 109 309.5 Q85 317 69 329 Q53 341 45 356 Q37 371 37 386 Q37 410 51.5 424 Q66 438 90 438 Q108 438 119 432 Q130 426 136 419 L77 353 Q89 339 107 330.5 Q125 322 147 322 Q167 322 181.5 330 Q196 338 205.5 350.5 Q215 363 219.5 379.5 Q224 396 224 414 Q224 453 206 480.5 Q188 508 146 508 L113 508 L113 527 L145 527 Q183 527 199 553.5 Q215 580 215 613 Q215 656 196 673 Q177 690 153 690 Q134 690 116.5 681.5 Q99 673 88 659 L143 596 Z M208 -9 L679 689 L728 689 L257 -9 L208 -9 Z M793 111 L851 111 L851 93 L793 93 L793 18 L844 18 L844 0 L642 0 L642 18 L695 18 L695 93 L542 93 L542 106 L730 394 L793 394 L793 111 Z M695 111 L695 302 L573 111 L695 111 Z " />
<glyph glyph-name="questiondown" unicode="&#xbf;" horiz-adv-x="484" d="M314 -35 Q319 -27 335.5 -15 Q352 -3 382 -3 Q414 -3 436.5 -25.5 Q459 -48 459 -85 Q459 -109 448.5 -137 Q438 -165 414 -189 Q390 -213 350.5 -229 Q311 -245 253 -245 Q208 -245 170.5 -232.5 Q133 -220 106.5 -198.5 Q80 -177 65 -147.5 Q50 -118 50 -84 Q50 -49 61 -22 Q72 5 93 28.5 Q114 52 143.5 73 Q173 94 209 118 Q228 131 240 142 Q252 153 258 165.5 Q264 178 266 195 Q268 212 268 236 L268 274 L299 274 L299 194 Q299 168 291 149 Q283 130 271 113 Q259 96 244.5 78.5 Q230 61 218 39.5 Q206 18 198 -10.5 Q190 -39 190 -79 Q190 -114 199 -139.5 Q208 -165 223.5 -181.5 Q239 -198 259 -206.5 Q279 -215 301 -215 Q339 -215 371 -196 Q403 -177 414 -148 L314 -35 Z M283 474 Q312 474 329.5 455 Q347 436 347 410 Q347 384 329.5 365 Q312 346 283 346 Q254 346 236 365 Q218 384 218 410 Q218 436 236 455 Q254 474 283 474 Z " />
<glyph glyph-name="Agrave" unicode="&#xc0;" horiz-adv-x="674" d="M364 21 L464 21 L393 221 L162 221 L86 21 L183 21 L183 0 L-6 0 L-6 21 L57 21 L314 704 L376 704 L615 21 L676 21 L676 0 L364 0 L364 21 Z M281 539 L171 246 L384 246 L281 539 Z M470 757 L433 757 L278 838 Q252 852 242 863 Q232 874 232 891 Q232 908 246 921.5 Q260 935 282 935 Q302 935 318 925.5 Q334 916 349 898 L470 757 Z " />
<glyph glyph-name="Aacute" unicode="&#xc1;" horiz-adv-x="674" d="M364 21 L464 21 L393 221 L162 221 L86 21 L183 21 L183 0 L-6 0 L-6 21 L57 21 L314 704 L376 704 L615 21 L676 21 L676 0 L364 0 L364 21 Z M281 539 L171 246 L384 246 L281 539 Z M227 757 L354 898 Q369 915 385.5 925 Q402 935 423 935 Q446 935 457.5 922.5 Q469 910 469 893 Q469 876 458 863.5 Q447 851 421 837 L270 757 L227 757 Z " />
<glyph glyph-name="Acircumflex" unicode="&#xc2;" horiz-adv-x="674" d="M364 21 L464 21 L393 221 L162 221 L86 21 L183 21 L183 0 L-6 0 L-6 21 L57 21 L314 704 L376 704 L615 21 L676 21 L676 0 L364 0 L364 21 Z M281 539 L171 246 L384 246 L281 539 Z M477 749 L337 838 L194 750 L175 762 L310 926 L364 926 L497 762 L477 749 Z " />
<glyph glyph-name="Atilde" unicode="&#xc3;" horiz-adv-x="674" d="M364 21 L464 21 L393 221 L162 221 L86 21 L183 21 L183 0 L-6 0 L-6 21 L57 21 L314 704 L376 704 L615 21 L676 21 L676 0 L364 0 L364 21 Z M281 539 L171 246 L384 246 L281 539 Z M514 902 Q509 845 479 809 Q449 773 398 773 Q376 773 355.5 780 Q335 787 315.5 796 Q296 805 276.5 812 Q257 819 238 819 Q221 819 201.5 809.5 Q182 800 173 771 L158 771 Q163 825 194 861.5 Q225 898 274 898 Q296 898 317 891 Q338 884 358 875.5 Q378 867 397 860 Q416 853 435 853 Q455 853 472.5 864 Q490 875 500 902 L514 902 Z " />
<glyph glyph-name="Adieresis" unicode="&#xc4;" horiz-adv-x="674" d="M364 21 L464 21 L393 221 L162 221 L86 21 L183 21 L183 0 L-6 0 L-6 21 L57 21 L314 704 L376 704 L615 21 L676 21 L676 0 L364 0 L364 21 Z M281 539 L171 246 L384 246 L281 539 Z M507 838 Q507 810 488 790.5 Q469 771 441 771 Q413 771 393.5 790.5 Q374 810 374 838 Q374 865 393.5 884.5 Q413 904 441 904 Q469 904 488 884.5 Q507 865 507 838 Z M300 838 Q300 810 280 790.5 Q260 771 233 771 Q204 771 185 790.5 Q166 810 166 838 Q166 865 185 884.5 Q204 904 233 904 Q260 904 280 884.5 Q300 865 300 838 Z " />
<glyph glyph-name="Aring" unicode="&#xc5;" horiz-adv-x="674" d="M364 21 L464 21 L393 221 L162 221 L86 21 L183 21 L183 0 L-6 0 L-6 21 L57 21 L314 704 L376 704 L615 21 L676 21 L676 0 L364 0 L364 21 Z M281 539 L171 246 L384 246 L281 539 Z M445 854 Q445 831 436.5 810.5 Q428 790 412.5 775 Q397 760 376 751.5 Q355 743 331 743 Q281 743 248.5 775 Q216 807 216 854 Q216 878 224.5 898.5 Q233 919 248.5 934 Q264 949 285 957.5 Q306 966 331 966 Q355 966 376 957.5 Q397 949 412.5 934 Q428 919 436.5 898.5 Q445 878 445 854 Z M331 943 Q309 943 297 917 Q285 891 285 854 Q285 817 297 792.5 Q309 768 331 768 Q353 768 364.5 792.5 Q376 817 376 854 Q376 891 364.5 917 Q353 943 331 943 Z " />
<glyph glyph-name="AE" unicode="&#xc6;" horiz-adv-x="897" d="M33 21 L361 676 L261 676 L261 697 L700 697 Q776 697 814 664.5 Q852 632 852 584 Q852 542 827.5 518.5 Q803 495 761 495 Q735 495 719.5 503 Q704 511 693 522 L787 646 Q772 663 747.5 669.5 Q723 676 692 676 L540 676 L540 362 L697 362 L697 341 L540 341 L540 21 L623 21 Q677 21 711 34.5 Q745 48 766 73 Q787 98 798.5 134.5 Q810 171 819 218 L841 218 L841 0 L306 0 L306 21 L388 21 L388 234 L170 234 L63 21 L162 21 L162 0 L-16 0 L-16 21 L33 21 Z M388 258 L388 674 L181 258 L388 258 Z " />
<glyph glyph-name="Ccedilla" unicode="&#xc7;" horiz-adv-x="654" d="M365 -8 Q287 -5 226.5 24 Q166 53 125.5 100.5 Q85 148 64 211 Q43 274 43 345 Q43 412 65 477.5 Q87 543 131 595 Q175 647 241.5 678.5 Q308 710 397 710 Q455 710 497 696 Q539 682 566 659.5 Q593 637 605.5 609.5 Q618 582 618 555 Q618 514 593.5 490 Q569 466 531 466 Q501 466 483.5 475.5 Q466 485 456 496 L563 621 Q541 650 506.5 668 Q472 686 422 686 Q362 686 321 661 Q280 636 255.5 592.5 Q231 549 220 490.5 Q209 432 209 365 Q209 275 226 210.5 Q243 146 273 104.5 Q303 63 342.5 43 Q382 23 427 23 Q484 23 527 43 Q570 63 606 105 L622 90 Q584 46 529 19 Q474 -8 390 -9 L354 -75 Q359 -73 368.5 -72 Q378 -71 390 -71 Q428 -71 455 -91 Q482 -111 482 -146 Q482 -168 473 -184.5 Q464 -201 449 -212.5 Q434 -224 414.5 -229.5 Q395 -235 374 -235 Q336 -235 315 -220.5 Q294 -206 294 -183 Q294 -169 303 -160 Q312 -151 327 -151 Q343 -151 354 -163 L315 -203 Q319 -208 327 -212.5 Q335 -217 347 -217 Q369 -217 385.5 -202 Q402 -187 402 -150 Q402 -119 387 -105 Q372 -91 351 -91 Q339 -91 327 -96 L320 -91 L365 -8 Z " />
<glyph glyph-name="Egrave" unicode="&#xc8;" horiz-adv-x="641" d="M444 697 Q521 697 558.5 664.5 Q596 632 596 584 Q596 542 571.5 518.5 Q547 495 505 495 Q479 495 463.5 503 Q448 511 437 522 L532 646 Q517 663 492.5 669.5 Q468 676 436 676 L269 676 L269 362 L443 362 L443 341 L269 341 L269 21 L372 21 Q426 21 459 34.5 Q492 48 513 73 Q534 98 545.5 134.5 Q557 171 567 218 L589 218 L589 0 L35 0 L35 21 L117 21 L117 676 L35 676 L35 697 L444 697 Z M463 757 L426 757 L271 838 Q245 852 235 863 Q225 874 225 891 Q225 908 239 921.5 Q253 935 275 935 Q295 935 311 925.5 Q327 916 342 898 L463 757 Z " />
<glyph glyph-name="Eacute" unicode="&#xc9;" horiz-adv-x="641" d="M444 697 Q521 697 558.5 664.5 Q596 632 596 584 Q596 542 571.5 518.5 Q547 495 505 495 Q479 495 463.5 503 Q448 511 437 522 L532 646 Q517 663 492.5 669.5 Q468 676 436 676 L269 676 L269 362 L443 362 L443 341 L269 341 L269 21 L372 21 Q426 21 459 34.5 Q492 48 513 73 Q534 98 545.5 134.5 Q557 171 567 218 L589 218 L589 0 L35 0 L35 21 L117 21 L117 676 L35 676 L35 697 L444 697 Z M230 757 L357 898 Q372 915 388.5 925 Q405 935 426 935 Q449 935 460.5 922.5 Q472 910 472 893 Q472 876 461 863.5 Q450 851 424 837 L273 757 L230 757 Z " />
<glyph glyph-name="Ecircumflex" unicode="&#xca;" horiz-adv-x="641" d="M444 697 Q521 697 558.5 664.5 Q596 632 596 584 Q596 542 571.5 518.5 Q547 495 505 495 Q479 495 463.5 503 Q448 511 437 522 L532 646 Q517 663 492.5 669.5 Q468 676 436 676 L269 676 L269 362 L443 362 L443 341 L269 341 L269 21 L372 21 Q426 21 459 34.5 Q492 48 513 73 Q534 98 545.5 134.5 Q557 171 567 218 L589 218 L589 0 L35 0 L35 21 L117 21 L117 676 L35 676 L35 697 L444 697 Z M470 749 L330 838 L187 750 L168 762 L303 926 L357 926 L490 762 L470 749 Z " />
<glyph glyph-name="Edieresis" unicode="&#xcb;" horiz-adv-x="641" d="M444 697 Q521 697 558.5 664.5 Q596 632 596 584 Q596 542 571.5 518.5 Q547 495 505 495 Q479 495 463.5 503 Q448 511 437 522 L532 646 Q517 663 492.5 669.5 Q468 676 436 676 L269 676 L269 362 L443 362 L443 341 L269 341 L269 21 L372 21 Q426 21 459 34.5 Q492 48 513 73 Q534 98 545.5 134.5 Q557 171 567 218 L589 218 L589 0 L35 0 L35 21 L117 21 L117 676 L35 676 L35 697 L444 697 Z M500 838 Q500 810 481 790.5 Q462 771 434 771 Q406 771 386.5 790.5 Q367 810 367 838 Q367 865 386.5 884.5 Q406 904 434 904 Q462 904 481 884.5 Q500 865 500 838 Z M293 838 Q293 810 273 790.5 Q253 771 226 771 Q197 771 178 790.5 Q159 810 159 838 Q159 865 178 884.5 Q197 904 226 904 Q253 904 273 884.5 Q293 865 293 838 Z " />
<glyph glyph-name="Igrave" unicode="&#xcc;" horiz-adv-x="388" d="M36 0 L36 21 L117 21 L117 676 L36 676 L36 697 L351 697 L351 676 L269 676 L269 21 L351 21 L351 0 L36 0 Z M324 757 L287 757 L132 838 Q106 852 96 863 Q86 874 86 891 Q86 908 100 921.5 Q114 935 136 935 Q156 935 172 925.5 Q188 916 203 898 L324 757 Z " />
<glyph glyph-name="Iacute" unicode="&#xcd;" horiz-adv-x="388" d="M36 0 L36 21 L117 21 L117 676 L36 676 L36 697 L351 697 L351 676 L269 676 L269 21 L351 21 L351 0 L36 0 Z M84 757 L211 898 Q226 915 242.5 925 Q259 935 280 935 Q303 935 314.5 922.5 Q326 910 326 893 Q326 876 315 863.5 Q304 851 278 837 L127 757 L84 757 Z " />
<glyph glyph-name="Icircumflex" unicode="&#xce;" horiz-adv-x="388" d="M36 0 L36 21 L117 21 L117 676 L36 676 L36 697 L351 697 L351 676 L269 676 L269 21 L351 21 L351 0 L36 0 Z M334 749 L194 838 L51 750 L32 762 L167 926 L221 926 L354 762 L334 749 Z " />
<glyph glyph-name="Idieresis" unicode="&#xcf;" horiz-adv-x="388" d="M36 0 L36 21 L117 21 L117 676 L36 676 L36 697 L351 697 L351 676 L269 676 L269 21 L351 21 L351 0 L36 0 Z M364 838 Q364 810 345 790.5 Q326 771 298 771 Q270 771 250.5 790.5 Q231 810 231 838 Q231 865 250.5 884.5 Q270 904 298 904 Q326 904 345 884.5 Q364 865 364 838 Z M157 838 Q157 810 137 790.5 Q117 771 90 771 Q61 771 42 790.5 Q23 810 23 838 Q23 865 42 884.5 Q61 904 90 904 Q117 904 137 884.5 Q157 865 157 838 Z " />
<glyph glyph-name="Eth" unicode="&#xd0;" horiz-adv-x="758" d="M117 344 L41 344 L41 372 L117 372 L117 676 L35 676 L35 697 L334 697 Q429 697 500.5 669.5 Q572 642 619.5 595 Q667 548 691 485 Q715 422 715 352 Q715 281 691 217.5 Q667 154 619.5 105.5 Q572 57 500.5 28.5 Q429 0 334 0 L35 0 L35 21 L117 21 L117 344 Z M269 372 L420 372 L420 344 L269 344 L269 21 L322 21 Q440 21 496.5 104 Q553 187 553 352 Q553 517 496.5 596.5 Q440 676 323 676 L269 676 L269 372 Z " />
<glyph glyph-name="Ntilde" unicode="&#xd1;" horiz-adv-x="755" d="M619 676 L533 676 L533 697 L728 697 L728 676 L646 676 L646 0 L543 0 L143 674 L143 21 L229 21 L229 0 L35 0 L35 21 L117 21 L117 676 L35 676 L35 697 L312 697 L619 166 L619 676 Z M554 902 Q549 845 519 809 Q489 773 438 773 Q416 773 395.5 780 Q375 787 355.5 796 Q336 805 316.5 812 Q297 819 278 819 Q261 819 241.5 809.5 Q222 800 213 771 L198 771 Q203 825 234 861.5 Q265 898 314 898 Q336 898 357 891 Q378 884 398 875.5 Q418 867 437 860 Q456 853 475 853 Q495 853 512.5 864 Q530 875 540 902 L554 902 Z " />
<glyph glyph-name="Ograve" unicode="&#xd2;" horiz-adv-x="756" d="M378 710 Q454 710 516 681.5 Q578 653 622 603.5 Q666 554 689.5 487 Q713 420 713 343 Q713 263 689.5 198.5 Q666 134 622 87.5 Q578 41 516 16 Q454 -9 378 -9 Q302 -9 240 16 Q178 41 134.5 87.5 Q91 134 67 198.5 Q43 263 43 343 Q43 420 67 487 Q91 554 134.5 603.5 Q178 653 240 681.5 Q302 710 378 710 Z M378 14 Q420 14 452 37.5 Q484 61 505.5 103.5 Q527 146 537.5 207 Q548 268 548 343 Q548 420 538 483.5 Q528 547 507.5 592 Q487 637 455 662 Q423 687 378 687 Q334 687 302 662 Q270 637 249.5 592 Q229 547 219 483.5 Q209 420 209 343 Q209 268 219.5 207 Q230 146 251 103.5 Q272 61 304 37.5 Q336 14 378 14 Z M511 757 L474 757 L319 838 Q293 852 283 863 Q273 874 273 891 Q273 908 287 921.5 Q301 935 323 935 Q343 935 359 925.5 Q375 916 390 898 L511 757 Z " />
<glyph glyph-name="Oacute" unicode="&#xd3;" horiz-adv-x="756" d="M378 710 Q454 710 516 681.5 Q578 653 622 603.5 Q666 554 689.5 487 Q713 420 713 343 Q713 263 689.5 198.5 Q666 134 622 87.5 Q578 41 516 16 Q454 -9 378 -9 Q302 -9 240 16 Q178 41 134.5 87.5 Q91 134 67 198.5 Q43 263 43 343 Q43 420 67 487 Q91 554 134.5 603.5 Q178 653 240 681.5 Q302 710 378 710 Z M378 14 Q420 14 452 37.5 Q484 61 505.5 103.5 Q527 146 537.5 207 Q548 268 548 343 Q548 420 538 483.5 Q528 547 507.5 592 Q487 637 455 662 Q423 687 378 687 Q334 687 302 662 Q270 637 249.5 592 Q229 547 219 483.5 Q209 420 209 343 Q209 268 219.5 207 Q230 146 251 103.5 Q272 61 304 37.5 Q336 14 378 14 Z M268 757 L395 898 Q410 915 426.5 925 Q443 935 464 935 Q487 935 498.5 922.5 Q510 910 510 893 Q510 876 499 863.5 Q488 851 462 837 L311 757 L268 757 Z " />
<glyph glyph-name="Ocircumflex" unicode="&#xd4;" horiz-adv-x="756" d="M378 710 Q454 710 516 681.5 Q578 653 622 603.5 Q666 554 689.5 487 Q713 420 713 343 Q713 263 689.5 198.5 Q666 134 622 87.5 Q578 41 516 16 Q454 -9 378 -9 Q302 -9 240 16 Q178 41 134.5 87.5 Q91 134 67 198.5 Q43 263 43 343 Q43 420 67 487 Q91 554 134.5 603.5 Q178 653 240 681.5 Q302 710 378 710 Z M378 14 Q420 14 452 37.5 Q484 61 505.5 103.5 Q527 146 537.5 207 Q548 268 548 343 Q548 420 538 483.5 Q528 547 507.5 592 Q487 637 455 662 Q423 687 378 687 Q334 687 302 662 Q270 637 249.5 592 Q229 547 219 483.5 Q209 420 209 343 Q209 268 219.5 207 Q230 146 251 103.5 Q272 61 304 37.5 Q336 14 378 14 Z M519 749 L379 838 L236 750 L217 762 L352 926 L406 926 L539 762 L519 749 Z " />
<glyph glyph-name="Otilde" unicode="&#xd5;" horiz-adv-x="756" d="M378 710 Q454 710 516 681.5 Q578 653 622 603.5 Q666 554 689.5 487 Q713 420 713 343 Q713 263 689.5 198.5 Q666 134 622 87.5 Q578 41 516 16 Q454 -9 378 -9 Q302 -9 240 16 Q178 41 134.5 87.5 Q91 134 67 198.5 Q43 263 43 343 Q43 420 67 487 Q91 554 134.5 603.5 Q178 653 240 681.5 Q302 710 378 710 Z M378 14 Q420 14 452 37.5 Q484 61 505.5 103.5 Q527 146 537.5 207 Q548 268 548 343 Q548 420 538 483.5 Q528 547 507.5 592 Q487 637 455 662 Q423 687 378 687 Q334 687 302 662 Q270 637 249.5 592 Q229 547 219 483.5 Q209 420 209 343 Q209 268 219.5 207 Q230 146 251 103.5 Q272 61 304 37.5 Q336 14 378 14 Z M556 902 Q551 845 521 809 Q491 773 440 773 Q418 773 397.5 780 Q377 787 357.5 796 Q338 805 318.5 812 Q299 819 280 819 Q263 819 243.5 809.5 Q224 800 215 771 L200 771 Q205 825 236 861.5 Q267 898 316 898 Q338 898 359 891 Q380 884 400 875.5 Q420 867 439 860 Q458 853 477 853 Q497 853 514.5 864 Q532 875 542 902 L556 902 Z " />
<glyph glyph-name="Odieresis" unicode="&#xd6;" horiz-adv-x="756" d="M378 710 Q454 710 516 681.5 Q578 653 622 603.5 Q666 554 689.5 487 Q713 420 713 343 Q713 263 689.5 198.5 Q666 134 622 87.5 Q578 41 516 16 Q454 -9 378 -9 Q302 -9 240 16 Q178 41 134.5 87.5 Q91 134 67 198.5 Q43 263 43 343 Q43 420 67 487 Q91 554 134.5 603.5 Q178 653 240 681.5 Q302 710 378 710 Z M378 14 Q420 14 452 37.5 Q484 61 505.5 103.5 Q527 146 537.5 207 Q548 268 548 343 Q548 420 538 483.5 Q528 547 507.5 592 Q487 637 455 662 Q423 687 378 687 Q334 687 302 662 Q270 637 249.5 592 Q229 547 219 483.5 Q209 420 209 343 Q209 268 219.5 207 Q230 146 251 103.5 Q272 61 304 37.5 Q336 14 378 14 Z M549 838 Q549 810 530 790.5 Q511 771 483 771 Q455 771 435.5 790.5 Q416 810 416 838 Q416 865 435.5 884.5 Q455 904 483 904 Q511 904 530 884.5 Q549 865 549 838 Z M342 838 Q342 810 322 790.5 Q302 771 275 771 Q246 771 227 790.5 Q208 810 208 838 Q208 865 227 884.5 Q246 904 275 904 Q302 904 322 884.5 Q342 865 342 838 Z " />
<glyph glyph-name="multiply" unicode="&#xd7;" horiz-adv-x="690" d="M552 60 L339 264 L135 67 L95 105 L301 300 L99 495 L141 535 L344 342 L548 538 L587 501 L382 305 L595 101 L552 60 Z " />
<glyph glyph-name="Oslash" unicode="&#xd8;" horiz-adv-x="766" d="M383 710 Q434 710 478 697 Q522 684 559 661 L609 743 L643 743 L583 644 Q647 595 682.5 516.5 Q718 438 718 343 Q718 263 694.5 198.5 Q671 134 627 87.5 Q583 41 521 16 Q459 -9 383 -9 Q284 -9 210 32 L160 -50 L126 -50 L186 48 Q120 93 84 168 Q48 243 48 343 Q48 420 72 487 Q96 554 139.5 603.5 Q183 653 245 681.5 Q307 710 383 710 Z M214 343 Q214 220 241 139 L514 587 Q494 635 461.5 661 Q429 687 383 687 Q339 687 307 662 Q275 637 254.5 592 Q234 547 224 483.5 Q214 420 214 343 Z M383 14 Q425 14 457 37.5 Q489 61 510.5 103.5 Q532 146 542.5 207 Q553 268 553 343 Q553 405 547 457.5 Q541 510 527 553 L255 105 Q276 61 308 37.5 Q340 14 383 14 Z " />
<glyph glyph-name="Ugrave" unicode="&#xd9;" horiz-adv-x="736" d="M354 697 L354 676 L268 676 L268 223 Q268 167 282 129 Q296 91 319 68 Q342 45 370.5 35.5 Q399 26 429 26 Q507 26 556.5 78 Q606 130 606 234 L606 676 L520 676 L520 697 L715 697 L715 676 L634 676 L634 246 Q634 128 573.5 59.5 Q513 -9 390 -9 Q257 -9 186.5 55.5 Q116 120 116 257 L116 676 L30 676 L30 697 L354 697 Z M511 757 L474 757 L319 838 Q293 852 283 863 Q273 874 273 891 Q273 908 287 921.5 Q301 935 323 935 Q343 935 359 925.5 Q375 916 390 898 L511 757 Z " />
<glyph glyph-name="Uacute" unicode="&#xda;" horiz-adv-x="736" d="M354 697 L354 676 L268 676 L268 223 Q268 167 282 129 Q296 91 319 68 Q342 45 370.5 35.5 Q399 26 429 26 Q507 26 556.5 78 Q606 130 606 234 L606 676 L520 676 L520 697 L715 697 L715 676 L634 676 L634 246 Q634 128 573.5 59.5 Q513 -9 390 -9 Q257 -9 186.5 55.5 Q116 120 116 257 L116 676 L30 676 L30 697 L354 697 Z M268 757 L395 898 Q410 915 426.5 925 Q443 935 464 935 Q487 935 498.5 922.5 Q510 910 510 893 Q510 876 499 863.5 Q488 851 462 837 L311 757 L268 757 Z " />
<glyph glyph-name="Ucircumflex" unicode="&#xdb;" horiz-adv-x="736" d="M354 697 L354 676 L268 676 L268 223 Q268 167 282 129 Q296 91 319 68 Q342 45 370.5 35.5 Q399 26 429 26 Q507 26 556.5 78 Q606 130 606 234 L606 676 L520 676 L520 697 L715 697 L715 676 L634 676 L634 246 Q634 128 573.5 59.5 Q513 -9 390 -9 Q257 -9 186.5 55.5 Q116 120 116 257 L116 676 L30 676 L30 697 L354 697 Z M531 749 L391 838 L248 750 L229 762 L364 926 L418 926 L551 762 L531 749 Z " />
<glyph glyph-name="Udieresis" unicode="&#xdc;" horiz-adv-x="736" d="M354 697 L354 676 L268 676 L268 223 Q268 167 282 129 Q296 91 319 68 Q342 45 370.5 35.5 Q399 26 429 26 Q507 26 556.5 78 Q606 130 606 234 L606 676 L520 676 L520 697 L715 697 L715 676 L634 676 L634 246 Q634 128 573.5 59.5 Q513 -9 390 -9 Q257 -9 186.5 55.5 Q116 120 116 257 L116 676 L30 676 L30 697 L354 697 Z M548 838 Q548 810 529 790.5 Q510 771 482 771 Q454 771 434.5 790.5 Q415 810 415 838 Q415 865 434.5 884.5 Q454 904 482 904 Q510 904 529 884.5 Q548 865 548 838 Z M341 838 Q341 810 321 790.5 Q301 771 274 771 Q245 771 226 790.5 Q207 810 207 838 Q207 865 226 884.5 Q245 904 274 904 Q301 904 321 884.5 Q341 865 341 838 Z " />
<glyph glyph-name="Yacute" unicode="&#xdd;" horiz-adv-x="671" d="M499 21 L499 0 L176 0 L176 21 L261 21 L261 303 L68 676 L-4 676 L-4 697 L341 697 L341 676 L241 676 L401 355 L570 676 L472 676 L472 697 L674 697 L674 676 L603 676 L413 317 L413 21 L499 21 Z M245 757 L372 898 Q387 915 403.5 925 Q420 935 441 935 Q464 935 475.5 922.5 Q487 910 487 893 Q487 876 476 863.5 Q465 851 439 837 L288 757 L245 757 Z " />
<glyph glyph-name="Thorn" unicode="&#xde;" horiz-adv-x="687" d="M363 21 L363 0 L35 0 L35 21 L117 21 L117 676 L35 676 L35 697 L351 697 L351 676 L269 676 L269 554 L338 554 Q426 554 484.5 539.5 Q543 525 578.5 499 Q614 473 629 437 Q644 401 644 358 Q644 315 629 277.5 Q614 240 578.5 212.5 Q543 185 484 169.5 Q425 154 338 154 L269 154 L269 21 L363 21 Z M323 176 Q406 176 451 217.5 Q496 259 496 354 Q496 449 450.5 491 Q405 533 323 533 L269 533 L269 176 L323 176 Z " />
<glyph glyph-name="germandbls" unicode="&#xdf;" horiz-adv-x="588" d="M514 556 Q514 524 504 494.5 Q494 465 474.5 441 Q455 417 426.5 400.5 Q398 384 361 377 Q452 368 504.5 318.5 Q557 269 557 189 Q557 142 542.5 105.5 Q528 69 503 43.5 Q478 18 444 4.5 Q410 -9 370 -9 Q335 -9 308.5 -1.5 Q282 6 264 18 L274 35 Q299 19 327 19 Q365 19 388 61 Q411 103 411 187 Q411 269 378 315.5 Q345 362 271 363 L271 379 Q302 379 322.5 394 Q343 409 355 433.5 Q367 458 372 490 Q377 522 377 555 Q377 630 354 672 Q331 714 297 714 Q259 714 240 678 Q221 642 221 567 L221 0 L28 0 L28 20 L83 20 L83 435 L20 435 L20 455 Q52 455 69.5 472.5 Q87 490 87 532 Q87 630 142 683 Q197 736 305 736 Q359 736 398 720.5 Q437 705 463 679.5 Q489 654 501.5 621.5 Q514 589 514 556 Z " />
<glyph glyph-name="agrave" unicode="&#xe0;" horiz-adv-x="515" d="M305 50 Q278 21 242 6 Q206 -9 164 -9 Q139 -9 116 -2 Q93 5 75.5 19.5 Q58 34 47.5 56 Q37 78 37 107 Q37 148 59 174.5 Q81 201 114 216.5 Q147 232 184.5 238.5 Q222 245 254 246 Q267 247 276 247 Q285 247 296 247 L296 364 Q296 408 270 428.5 Q244 449 211 449 Q185 449 164 439 Q143 429 131 417 L190 315 Q183 304 166.5 295.5 Q150 287 127 287 Q100 287 78.5 303 Q57 319 57 354 Q57 378 71 399 Q85 420 109 436 Q133 452 166.5 461.5 Q200 471 239 471 Q304 471 342 456 Q380 441 400 415 Q420 389 425.5 354.5 Q431 320 431 281 L431 75 Q431 55 439.5 44 Q448 33 462 33 Q476 33 489 49 L501 38 Q483 15 459.5 3 Q436 -9 403 -9 Q371 -9 345 5 Q319 19 305 50 Z M296 229 Q271 228 246.5 224 Q222 220 203 209 Q184 198 172.5 178 Q161 158 161 126 Q161 100 167.5 83 Q174 66 184 55.5 Q194 45 207 41 Q220 37 234 37 Q258 37 274 46.5 Q290 56 296 65 L296 229 Z M378 521 L341 521 L186 602 Q160 616 150 627 Q140 638 140 655 Q140 672 154 685.5 Q168 699 190 699 Q210 699 226 689.5 Q242 680 257 662 L378 521 Z " />
<glyph glyph-name="aacute" unicode="&#xe1;" horiz-adv-x="515" d="M305 50 Q278 21 242 6 Q206 -9 164 -9 Q139 -9 116 -2 Q93 5 75.5 19.5 Q58 34 47.5 56 Q37 78 37 107 Q37 148 59 174.5 Q81 201 114 216.5 Q147 232 184.5 238.5 Q222 245 254 246 Q267 247 276 247 Q285 247 296 247 L296 364 Q296 408 270 428.5 Q244 449 211 449 Q185 449 164 439 Q143 429 131 417 L190 315 Q183 304 166.5 295.5 Q150 287 127 287 Q100 287 78.5 303 Q57 319 57 354 Q57 378 71 399 Q85 420 109 436 Q133 452 166.5 461.5 Q200 471 239 471 Q304 471 342 456 Q380 441 400 415 Q420 389 425.5 354.5 Q431 320 431 281 L431 75 Q431 55 439.5 44 Q448 33 462 33 Q476 33 489 49 L501 38 Q483 15 459.5 3 Q436 -9 403 -9 Q371 -9 345 5 Q319 19 305 50 Z M296 229 Q271 228 246.5 224 Q222 220 203 209 Q184 198 172.5 178 Q161 158 161 126 Q161 100 167.5 83 Q174 66 184 55.5 Q194 45 207 41 Q220 37 234 37 Q258 37 274 46.5 Q290 56 296 65 L296 229 Z M156 521 L283 662 Q298 679 314.5 689 Q331 699 352 699 Q375 699 386.5 686.5 Q398 674 398 657 Q398 640 387 627.5 Q376 615 350 601 L199 521 L156 521 Z " />
<glyph glyph-name="acircumflex" unicode="&#xe2;" horiz-adv-x="515" d="M305 50 Q278 21 242 6 Q206 -9 164 -9 Q139 -9 116 -2 Q93 5 75.5 19.5 Q58 34 47.5 56 Q37 78 37 107 Q37 148 59 174.5 Q81 201 114 216.5 Q147 232 184.5 238.5 Q222 245 254 246 Q267 247 276 247 Q285 247 296 247 L296 364 Q296 408 270 428.5 Q244 449 211 449 Q185 449 164 439 Q143 429 131 417 L190 315 Q183 304 166.5 295.5 Q150 287 127 287 Q100 287 78.5 303 Q57 319 57 354 Q57 378 71 399 Q85 420 109 436 Q133 452 166.5 461.5 Q200 471 239 471 Q304 471 342 456 Q380 441 400 415 Q420 389 425.5 354.5 Q431 320 431 281 L431 75 Q431 55 439.5 44 Q448 33 462 33 Q476 33 489 49 L501 38 Q483 15 459.5 3 Q436 -9 403 -9 Q371 -9 345 5 Q319 19 305 50 Z M296 229 Q271 228 246.5 224 Q222 220 203 209 Q184 198 172.5 178 Q161 158 161 126 Q161 100 167.5 83 Q174 66 184 55.5 Q194 45 207 41 Q220 37 234 37 Q258 37 274 46.5 Q290 56 296 65 L296 229 Z M397 513 L257 602 L114 514 L95 526 L230 690 L284 690 L417 526 L397 513 Z " />
<glyph glyph-name="atilde" unicode="&#xe3;" horiz-adv-x="515" d="M305 50 Q278 21 242 6 Q206 -9 164 -9 Q139 -9 116 -2 Q93 5 75.5 19.5 Q58 34 47.5 56 Q37 78 37 107 Q37 148 59 174.5 Q81 201 114 216.5 Q147 232 184.5 238.5 Q222 245 254 246 Q267 247 276 247 Q285 247 296 247 L296 364 Q296 408 270 428.5 Q244 449 211 449 Q185 449 164 439 Q143 429 131 417 L190 315 Q183 304 166.5 295.5 Q150 287 127 287 Q100 287 78.5 303 Q57 319 57 354 Q57 378 71 399 Q85 420 109 436 Q133 452 166.5 461.5 Q200 471 239 471 Q304 471 342 456 Q380 441 400 415 Q420 389 425.5 354.5 Q431 320 431 281 L431 75 Q431 55 439.5 44 Q448 33 462 33 Q476 33 489 49 L501 38 Q483 15 459.5 3 Q436 -9 403 -9 Q371 -9 345 5 Q319 19 305 50 Z M296 229 Q271 228 246.5 224 Q222 220 203 209 Q184 198 172.5 178 Q161 158 161 126 Q161 100 167.5 83 Q174 66 184 55.5 Q194 45 207 41 Q220 37 234 37 Q258 37 274 46.5 Q290 56 296 65 L296 229 Z M428 666 Q423 609 393 573 Q363 537 312 537 Q290 537 269.5 544 Q249 551 229.5 560 Q210 569 190.5 576 Q171 583 152 583 Q135 583 116.5 573.5 Q98 564 89 535 L72 535 Q77 589 108 625.5 Q139 662 188 662 Q210 662 231 655 Q252 648 272 639.5 Q292 631 311 624 Q330 617 349 617 Q369 617 385.5 628 Q402 639 412 666 L428 666 Z " />
<glyph glyph-name="adieresis" unicode="&#xe4;" horiz-adv-x="515" d="M305 50 Q278 21 242 6 Q206 -9 164 -9 Q139 -9 116 -2 Q93 5 75.5 19.5 Q58 34 47.5 56 Q37 78 37 107 Q37 148 59 174.5 Q81 201 114 216.5 Q147 232 184.5 238.5 Q222 245 254 246 Q267 247 276 247 Q285 247 296 247 L296 364 Q296 408 270 428.5 Q244 449 211 449 Q185 449 164 439 Q143 429 131 417 L190 315 Q183 304 166.5 295.5 Q150 287 127 287 Q100 287 78.5 303 Q57 319 57 354 Q57 378 71 399 Q85 420 109 436 Q133 452 166.5 461.5 Q200 471 239 471 Q304 471 342 456 Q380 441 400 415 Q420 389 425.5 354.5 Q431 320 431 281 L431 75 Q431 55 439.5 44 Q448 33 462 33 Q476 33 489 49 L501 38 Q483 15 459.5 3 Q436 -9 403 -9 Q371 -9 345 5 Q319 19 305 50 Z M296 229 Q271 228 246.5 224 Q222 220 203 209 Q184 198 172.5 178 Q161 158 161 126 Q161 100 167.5 83 Q174 66 184 55.5 Q194 45 207 41 Q220 37 234 37 Q258 37 274 46.5 Q290 56 296 65 L296 229 Z M427 602 Q427 574 408 554.5 Q389 535 361 535 Q333 535 313.5 554.5 Q294 574 294 602 Q294 629 313.5 648.5 Q333 668 361 668 Q389 668 408 648.5 Q427 629 427 602 Z M220 602 Q220 574 200 554.5 Q180 535 153 535 Q124 535 105 554.5 Q86 574 86 602 Q86 629 105 648.5 Q124 668 153 668 Q180 668 200 648.5 Q220 629 220 602 Z " />
<glyph glyph-name="aring" unicode="&#xe5;" horiz-adv-x="515" d="M305 50 Q278 21 242 6 Q206 -9 164 -9 Q139 -9 116 -2 Q93 5 75.5 19.5 Q58 34 47.5 56 Q37 78 37 107 Q37 148 59 174.5 Q81 201 114 216.5 Q147 232 184.5 238.5 Q222 245 254 246 Q267 247 276 247 Q285 247 296 247 L296 364 Q296 408 270 428.5 Q244 449 211 449 Q185 449 164 439 Q143 429 131 417 L190 315 Q183 304 166.5 295.5 Q150 287 127 287 Q100 287 78.5 303 Q57 319 57 354 Q57 378 71 399 Q85 420 109 436 Q133 452 166.5 461.5 Q200 471 239 471 Q304 471 342 456 Q380 441 400 415 Q420 389 425.5 354.5 Q431 320 431 281 L431 75 Q431 55 439.5 44 Q448 33 462 33 Q476 33 489 49 L501 38 Q483 15 459.5 3 Q436 -9 403 -9 Q371 -9 345 5 Q319 19 305 50 Z M296 229 Q271 228 246.5 224 Q222 220 203 209 Q184 198 172.5 178 Q161 158 161 126 Q161 100 167.5 83 Q174 66 184 55.5 Q194 45 207 41 Q220 37 234 37 Q258 37 274 46.5 Q290 56 296 65 L296 229 Z M365 618 Q365 595 356.5 574.5 Q348 554 332.5 539 Q317 524 296 515.5 Q275 507 251 507 Q201 507 168.5 539 Q136 571 136 618 Q136 642 144.5 662.5 Q153 683 168.5 698 Q184 713 205 721.5 Q226 730 251 730 Q275 730 296 721.5 Q317 713 332.5 698 Q348 683 356.5 662.5 Q365 642 365 618 Z M251 707 Q229 707 217 681 Q205 655 205 618 Q205 581 217 556.5 Q229 532 251 532 Q273 532 284.5 556.5 Q296 581 296 618 Q296 655 284.5 681 Q273 707 251 707 Z " />
<glyph glyph-name="ae" unicode="&#xe6;" horiz-adv-x="718" d="M37 107 Q37 148 59 174 Q81 200 113 215.5 Q145 231 182.5 237.5 Q220 244 252 246 Q265 247 274.5 247 Q284 247 295 247 L295 364 Q295 409 270 429 Q245 449 212 449 Q188 449 166 440 Q144 431 131 417 L190 315 Q183 304 165.5 295.5 Q148 287 127 287 Q100 287 78.5 303.5 Q57 320 57 354 Q57 380 71 401.5 Q85 423 109 438.5 Q133 454 164 462.5 Q195 471 228 471 Q285 471 320 454.5 Q355 438 374 415 Q400 441 434.5 456 Q469 471 514 471 Q557 471 589.5 461 Q622 451 644.5 433 Q667 415 678.5 391 Q690 367 690 339 Q690 304 675.5 278.5 Q661 253 636 236 Q611 219 579 210.5 Q547 202 511 202 Q488 202 466 205 Q444 208 427 215 Q428 164 439.5 128 Q451 92 469 69 Q487 46 511 35.5 Q535 25 562 25 Q599 25 627.5 38.5 Q656 52 685 81 L696 67 Q665 34 621.5 12.5 Q578 -9 510 -9 Q447 -9 395 18 Q343 45 316 104 Q304 46 265.5 18.5 Q227 -9 169 -9 Q106 -9 71.5 21.5 Q37 52 37 107 Z M509 451 Q479 451 457.5 409 Q436 367 429 295 Q427 279 427 265 Q427 251 427 235 Q441 230 456 227.5 Q471 225 486 225 Q522 225 544.5 251.5 Q567 278 567 344 Q567 394 550.5 422.5 Q534 451 509 451 Z M161 126 Q161 100 167 82.5 Q173 65 182 54 Q191 43 202.5 38 Q214 33 226 33 Q257 33 276 61.5 Q295 90 295 145 L295 229 Q270 228 246 224 Q222 220 203 209 Q184 198 172.5 178 Q161 158 161 126 Z " />
<glyph glyph-name="ccedilla" unicode="&#xe7;" horiz-adv-x="458" d="M247 -9 Q203 -7 164.5 10 Q126 27 97.5 57 Q69 87 52 129 Q35 171 35 224 Q35 277 51 322 Q67 367 98 400 Q129 433 172.5 452 Q216 471 272 471 Q315 471 344.5 460.5 Q374 450 392.5 433.5 Q411 417 419.5 396.5 Q428 376 428 357 Q428 320 406 298 Q384 276 353 276 Q328 276 311 286 Q294 296 286 308 L384 409 Q376 422 355 436 Q334 450 301 450 Q244 450 211 393 Q178 336 178 233 Q178 179 189 139.5 Q200 100 218 74.5 Q236 49 260 37 Q284 25 311 25 Q344 25 368 36.5 Q392 48 415 71 L427 57 Q399 27 362.5 10 Q326 -7 272 -9 L236 -75 Q241 -73 250.5 -72 Q260 -71 272 -71 Q310 -71 337 -91 Q364 -111 364 -146 Q364 -168 355 -184.5 Q346 -201 331 -212.5 Q316 -224 296.5 -229.5 Q277 -235 256 -235 Q218 -235 197 -220.5 Q176 -206 176 -183 Q176 -169 185 -160 Q194 -151 209 -151 Q225 -151 236 -163 L197 -203 Q201 -208 209 -212.5 Q217 -217 229 -217 Q251 -217 267.5 -202 Q284 -187 284 -150 Q284 -119 269 -105 Q254 -91 233 -91 Q221 -91 209 -96 L202 -91 L247 -9 Z " />
<glyph glyph-name="egrave" unicode="&#xe8;" horiz-adv-x="475" d="M266 471 Q311 471 345 461 Q379 451 401.5 433 Q424 415 435.5 391 Q447 367 447 339 Q447 304 432 278.5 Q417 253 392 236 Q367 219 334 210.5 Q301 202 265 202 Q242 202 219.5 205 Q197 208 178 215 Q179 164 191 128 Q203 92 222 69 Q241 46 266 35.5 Q291 25 319 25 Q355 25 384 38.5 Q413 52 442 81 L453 67 Q422 34 377.5 12.5 Q333 -9 266 -9 Q218 -9 176 6.5 Q134 22 102.5 51.5 Q71 81 53 124.5 Q35 168 35 224 Q35 277 51 322 Q67 367 96.5 400 Q126 433 169 452 Q212 471 266 471 Z M266 451 Q234 451 210.5 409 Q187 367 180 295 Q178 281 178 266 Q178 251 178 235 Q208 226 239 226 Q276 226 300 252.5 Q324 279 324 344 Q324 394 307.5 422.5 Q291 451 266 451 Z M375 521 L338 521 L183 602 Q157 616 147 627 Q137 638 137 655 Q137 672 151 685.5 Q165 699 187 699 Q207 699 223 689.5 Q239 680 254 662 L375 521 Z " />
<glyph glyph-name="eacute" unicode="&#xe9;" horiz-adv-x="475" d="M266 471 Q311 471 345 461 Q379 451 401.5 433 Q424 415 435.5 391 Q447 367 447 339 Q447 304 432 278.5 Q417 253 392 236 Q367 219 334 210.5 Q301 202 265 202 Q242 202 219.5 205 Q197 208 178 215 Q179 164 191 128 Q203 92 222 69 Q241 46 266 35.5 Q291 25 319 25 Q355 25 384 38.5 Q413 52 442 81 L453 67 Q422 34 377.5 12.5 Q333 -9 266 -9 Q218 -9 176 6.5 Q134 22 102.5 51.5 Q71 81 53 124.5 Q35 168 35 224 Q35 277 51 322 Q67 367 96.5 400 Q126 433 169 452 Q212 471 266 471 Z M266 451 Q234 451 210.5 409 Q187 367 180 295 Q178 281 178 266 Q178 251 178 235 Q208 226 239 226 Q276 226 300 252.5 Q324 279 324 344 Q324 394 307.5 422.5 Q291 451 266 451 Z M156 521 L283 662 Q298 679 314.5 689 Q331 699 352 699 Q375 699 386.5 686.5 Q398 674 398 657 Q398 640 387 627.5 Q376 615 350 601 L199 521 L156 521 Z " />
<glyph glyph-name="ecircumflex" unicode="&#xea;" horiz-adv-x="475" d="M266 471 Q311 471 345 461 Q379 451 401.5 433 Q424 415 435.5 391 Q447 367 447 339 Q447 304 432 278.5 Q417 253 392 236 Q367 219 334 210.5 Q301 202 265 202 Q242 202 219.5 205 Q197 208 178 215 Q179 164 191 128 Q203 92 222 69 Q241 46 266 35.5 Q291 25 319 25 Q355 25 384 38.5 Q413 52 442 81 L453 67 Q422 34 377.5 12.5 Q333 -9 266 -9 Q218 -9 176 6.5 Q134 22 102.5 51.5 Q71 81 53 124.5 Q35 168 35 224 Q35 277 51 322 Q67 367 96.5 400 Q126 433 169 452 Q212 471 266 471 Z M266 451 Q234 451 210.5 409 Q187 367 180 295 Q178 281 178 266 Q178 251 178 235 Q208 226 239 226 Q276 226 300 252.5 Q324 279 324 344 Q324 394 307.5 422.5 Q291 451 266 451 Z M397 513 L257 602 L114 514 L95 526 L230 690 L284 690 L417 526 L397 513 Z " />
<glyph glyph-name="edieresis" unicode="&#xeb;" horiz-adv-x="475" d="M266 471 Q311 471 345 461 Q379 451 401.5 433 Q424 415 435.5 391 Q447 367 447 339 Q447 304 432 278.5 Q417 253 392 236 Q367 219 334 210.5 Q301 202 265 202 Q242 202 219.5 205 Q197 208 178 215 Q179 164 191 128 Q203 92 222 69 Q241 46 266 35.5 Q291 25 319 25 Q355 25 384 38.5 Q413 52 442 81 L453 67 Q422 34 377.5 12.5 Q333 -9 266 -9 Q218 -9 176 6.5 Q134 22 102.5 51.5 Q71 81 53 124.5 Q35 168 35 224 Q35 277 51 322 Q67 367 96.5 400 Q126 433 169 452 Q212 471 266 471 Z M266 451 Q234 451 210.5 409 Q187 367 180 295 Q178 281 178 266 Q178 251 178 235 Q208 226 239 226 Q276 226 300 252.5 Q324 279 324 344 Q324 394 307.5 422.5 Q291 451 266 451 Z M425 602 Q425 574 406 554.5 Q387 535 359 535 Q331 535 311.5 554.5 Q292 574 292 602 Q292 629 311.5 648.5 Q331 668 359 668 Q387 668 406 648.5 Q425 629 425 602 Z M218 602 Q218 574 198 554.5 Q178 535 151 535 Q122 535 103 554.5 Q84 574 84 602 Q84 629 103 648.5 Q122 668 151 668 Q178 668 198 648.5 Q218 629 218 602 Z " />
<glyph glyph-name="igrave" unicode="&#xec;" horiz-adv-x="314" d="M225 461 L225 20 L280 20 L280 0 L32 0 L32 20 L87 20 L87 441 L32 441 L32 461 L225 461 Z M275 521 L238 521 L83 602 Q57 616 47 627 Q37 638 37 655 Q37 672 51 685.5 Q65 699 87 699 Q107 699 123 689.5 Q139 680 154 662 L275 521 Z " />
<glyph glyph-name="iacute" unicode="&#xed;" horiz-adv-x="314" d="M225 461 L225 20 L280 20 L280 0 L32 0 L32 20 L87 20 L87 441 L32 441 L32 461 L225 461 Z M36 521 L163 662 Q178 679 194.5 689 Q211 699 232 699 Q255 699 266.5 686.5 Q278 674 278 657 Q278 640 267 627.5 Q256 615 230 601 L79 521 L36 521 Z " />
<glyph glyph-name="icircumflex" unicode="&#xee;" horiz-adv-x="314" d="M225 461 L225 20 L280 20 L280 0 L32 0 L32 20 L87 20 L87 441 L32 441 L32 461 L225 461 Z M297 513 L157 602 L14 514 L-5 526 L130 690 L184 690 L317 526 L297 513 Z " />
<glyph glyph-name="idieresis" unicode="&#xef;" horiz-adv-x="314" d="M225 461 L225 20 L280 20 L280 0 L32 0 L32 20 L87 20 L87 441 L32 441 L32 461 L225 461 Z M327 602 Q327 574 308 554.5 Q289 535 261 535 Q233 535 213.5 554.5 Q194 574 194 602 Q194 629 213.5 648.5 Q233 668 261 668 Q289 668 308 648.5 Q327 629 327 602 Z M120 602 Q120 574 100 554.5 Q80 535 53 535 Q24 535 5 554.5 Q-14 574 -14 602 Q-14 629 5 648.5 Q24 668 53 668 Q80 668 100 648.5 Q120 629 120 602 Z " />
<glyph glyph-name="eth" unicode="&#xf0;" horiz-adv-x="555" d="M256 634 Q227 660 194.5 679.5 Q162 699 127 709 L134 727 Q178 719 221.5 701 Q265 683 302 658 L409 718 L421 697 L324 645 Q363 616 398 578 Q433 540 459.5 494 Q486 448 501 393.5 Q516 339 516 277 Q516 210 500 157 Q484 104 453 67 Q422 30 378 10.5 Q334 -9 279 -9 Q225 -9 180.5 9 Q136 27 104.5 58.5 Q73 90 55.5 133.5 Q38 177 38 227 Q38 286 57.5 330.5 Q77 375 108.5 405 Q140 435 179.5 450 Q219 465 260 465 Q320 465 358 435 Q347 491 326 537 Q305 583 274 616 L153 551 L141 572 L256 634 Z M279 11 Q309 11 328 27 Q347 43 358 71.5 Q369 100 373 139.5 Q377 179 377 227 Q377 334 352 388.5 Q327 443 279 443 Q231 443 206 388.5 Q181 334 181 227 Q181 179 185 139.5 Q189 100 199.5 71.5 Q210 43 229.5 27 Q249 11 279 11 Z " />
<glyph glyph-name="ntilde" unicode="&#xf1;" horiz-adv-x="613" d="M492 -9 Q447 -9 417.5 18 Q388 45 388 108 L388 330 Q388 433 317 433 Q275 433 250 402 Q225 371 225 323 L225 20 L279 20 L279 0 L32 0 L32 20 L87 20 L87 441 L32 441 L32 461 L223 461 L223 391 Q229 403 241 417 Q253 431 271 443 Q289 455 313.5 463 Q338 471 369 471 Q414 471 444 458 Q474 445 492.5 423.5 Q511 402 518.5 373 Q526 344 526 311 L526 75 Q526 55 534.5 44 Q543 33 557 33 Q573 33 585 50 L596 38 Q557 -9 492 -9 Z M484 666 Q479 609 449 573 Q419 537 368 537 Q346 537 325.5 544 Q305 551 285.5 560 Q266 569 246.5 576 Q227 583 208 583 Q191 583 172.5 573.5 Q154 564 145 535 L128 535 Q133 589 164 625.5 Q195 662 244 662 Q266 662 287 655 Q308 648 328 639.5 Q348 631 367 624 Q386 617 405 617 Q425 617 441.5 628 Q458 639 468 666 L484 666 Z " />
<glyph glyph-name="ograve" unicode="&#xf2;" horiz-adv-x="558" d="M279 471 Q337 471 382 452 Q427 433 457.5 400.5 Q488 368 504 324.5 Q520 281 520 233 Q520 185 504 141.5 Q488 98 457 64.5 Q426 31 381.5 11 Q337 -9 279 -9 Q221 -9 176 11 Q131 31 100.5 64.5 Q70 98 54 141.5 Q38 185 38 233 Q38 281 54 324.5 Q70 368 100.5 400.5 Q131 433 176 452 Q221 471 279 471 Z M279 12 Q309 12 328 28 Q347 44 357.5 73.5 Q368 103 372 143.5 Q376 184 376 233 Q376 339 351.5 395 Q327 451 279 451 Q231 451 206 395 Q181 339 181 233 Q181 184 185 143.5 Q189 103 200 73.5 Q211 44 230 28 Q249 12 279 12 Z M397 521 L360 521 L205 602 Q179 616 169 627 Q159 638 159 655 Q159 672 173 685.5 Q187 699 209 699 Q229 699 245 689.5 Q261 680 276 662 L397 521 Z " />
<glyph glyph-name="oacute" unicode="&#xf3;" horiz-adv-x="558" d="M279 471 Q337 471 382 452 Q427 433 457.5 400.5 Q488 368 504 324.5 Q520 281 520 233 Q520 185 504 141.5 Q488 98 457 64.5 Q426 31 381.5 11 Q337 -9 279 -9 Q221 -9 176 11 Q131 31 100.5 64.5 Q70 98 54 141.5 Q38 185 38 233 Q38 281 54 324.5 Q70 368 100.5 400.5 Q131 433 176 452 Q221 471 279 471 Z M279 12 Q309 12 328 28 Q347 44 357.5 73.5 Q368 103 372 143.5 Q376 184 376 233 Q376 339 351.5 395 Q327 451 279 451 Q231 451 206 395 Q181 339 181 233 Q181 184 185 143.5 Q189 103 200 73.5 Q211 44 230 28 Q249 12 279 12 Z M158 521 L285 662 Q300 679 316.5 689 Q333 699 354 699 Q377 699 388.5 686.5 Q400 674 400 657 Q400 640 389 627.5 Q378 615 352 601 L201 521 L158 521 Z " />
<glyph glyph-name="ocircumflex" unicode="&#xf4;" horiz-adv-x="558" d="M279 471 Q337 471 382 452 Q427 433 457.5 400.5 Q488 368 504 324.5 Q520 281 520 233 Q520 185 504 141.5 Q488 98 457 64.5 Q426 31 381.5 11 Q337 -9 279 -9 Q221 -9 176 11 Q131 31 100.5 64.5 Q70 98 54 141.5 Q38 185 38 233 Q38 281 54 324.5 Q70 368 100.5 400.5 Q131 433 176 452 Q221 471 279 471 Z M279 12 Q309 12 328 28 Q347 44 357.5 73.5 Q368 103 372 143.5 Q376 184 376 233 Q376 339 351.5 395 Q327 451 279 451 Q231 451 206 395 Q181 339 181 233 Q181 184 185 143.5 Q189 103 200 73.5 Q211 44 230 28 Q249 12 279 12 Z M419 513 L279 602 L136 514 L117 526 L252 690 L306 690 L439 526 L419 513 Z " />
<glyph glyph-name="otilde" unicode="&#xf5;" horiz-adv-x="558" d="M279 471 Q337 471 382 452 Q427 433 457.5 400.5 Q488 368 504 324.5 Q520 281 520 233 Q520 185 504 141.5 Q488 98 457 64.5 Q426 31 381.5 11 Q337 -9 279 -9 Q221 -9 176 11 Q131 31 100.5 64.5 Q70 98 54 141.5 Q38 185 38 233 Q38 281 54 324.5 Q70 368 100.5 400.5 Q131 433 176 452 Q221 471 279 471 Z M279 12 Q309 12 328 28 Q347 44 357.5 73.5 Q368 103 372 143.5 Q376 184 376 233 Q376 339 351.5 395 Q327 451 279 451 Q231 451 206 395 Q181 339 181 233 Q181 184 185 143.5 Q189 103 200 73.5 Q211 44 230 28 Q249 12 279 12 Z M457 666 Q452 609 422 573 Q392 537 341 537 Q319 537 298.5 544 Q278 551 258.5 560 Q239 569 219.5 576 Q200 583 181 583 Q164 583 145.5 573.5 Q127 564 118 535 L101 535 Q106 589 137 625.5 Q168 662 217 662 Q239 662 260 655 Q281 648 301 639.5 Q321 631 340 624 Q359 617 378 617 Q398 617 414.5 628 Q431 639 441 666 L457 666 Z " />
<glyph glyph-name="odieresis" unicode="&#xf6;" horiz-adv-x="558" d="M279 471 Q337 471 382 452 Q427 433 457.5 400.5 Q488 368 504 324.5 Q520 281 520 233 Q520 185 504 141.5 Q488 98 457 64.5 Q426 31 381.5 11 Q337 -9 279 -9 Q221 -9 176 11 Q131 31 100.5 64.5 Q70 98 54 141.5 Q38 185 38 233 Q38 281 54 324.5 Q70 368 100.5 400.5 Q131 433 176 452 Q221 471 279 471 Z M279 12 Q309 12 328 28 Q347 44 357.5 73.5 Q368 103 372 143.5 Q376 184 376 233 Q376 339 351.5 395 Q327 451 279 451 Q231 451 206 395 Q181 339 181 233 Q181 184 185 143.5 Q189 103 200 73.5 Q211 44 230 28 Q249 12 279 12 Z M449 602 Q449 574 430 554.5 Q411 535 383 535 Q355 535 335.5 554.5 Q316 574 316 602 Q316 629 335.5 648.5 Q355 668 383 668 Q411 668 430 648.5 Q449 629 449 602 Z M242 602 Q242 574 222 554.5 Q202 535 175 535 Q146 535 127 554.5 Q108 574 108 602 Q108 629 127 648.5 Q146 668 175 668 Q202 668 222 648.5 Q242 629 242 602 Z " />
<glyph glyph-name="divide" unicode="&#xf7;" horiz-adv-x="690" d="M69 276 L69 327 L621 327 L621 276 L69 276 Z M344 540 Q370 540 387.5 523.5 Q405 507 405 483 Q405 458 387.5 441.5 Q370 425 344 425 Q319 425 301.5 441.5 Q284 458 284 483 Q284 507 301.5 523.5 Q319 540 344 540 Z M346 176 Q372 176 389 159 Q406 142 406 118 Q406 93 389 77 Q372 61 346 61 Q321 61 303.5 77 Q286 93 286 118 Q286 142 303.5 159 Q321 176 346 176 Z " />
<glyph glyph-name="oslash" unicode="&#xf8;" horiz-adv-x="558" d="M279 471 Q342 471 391 448 L423 503 L449 503 L411 437 Q465 405 492.5 351 Q520 297 520 233 Q520 185 504 141.5 Q488 98 457 64.5 Q426 31 381.5 11 Q337 -9 279 -9 Q247 -9 219.5 -3 Q192 3 168 14 L134 -46 L108 -46 L149 25 Q95 58 66.5 113.5 Q38 169 38 233 Q38 281 54 324.5 Q70 368 100.5 400.5 Q131 433 176 452 Q221 471 279 471 Z M181 233 Q181 194 183.5 160.5 Q186 127 192 100 L355 385 Q330 451 279 451 Q231 451 206 395 Q181 339 181 233 Z M279 12 Q309 12 328 28 Q347 44 357.5 73.5 Q368 103 372 143.5 Q376 184 376 233 Q376 305 364 355 L201 71 Q223 12 279 12 Z " />
<glyph glyph-name="ugrave" unicode="&#xf9;" horiz-adv-x="598" d="M473 -9 Q437 -9 409.5 9 Q382 27 374 69 Q368 58 356.5 44.5 Q345 31 327.5 19 Q310 7 286.5 -1 Q263 -9 233 -9 Q188 -9 157.5 3.5 Q127 16 108.5 38 Q90 60 82.5 89 Q75 118 75 151 L75 441 L20 441 L20 461 L213 461 L213 132 Q213 110 216 91.5 Q219 73 226.5 59 Q234 45 247.5 37 Q261 29 282 29 Q322 29 345.5 60.5 Q369 92 369 142 L369 441 L315 441 L315 461 L507 461 L507 75 Q507 55 515.5 44 Q524 33 538 33 Q555 33 567 50 L577 38 Q559 15 532.5 3 Q506 -9 473 -9 Z M417 521 L380 521 L225 602 Q199 616 189 627 Q179 638 179 655 Q179 672 193 685.5 Q207 699 229 699 Q249 699 265 689.5 Q281 680 296 662 L417 521 Z " />
<glyph glyph-name="uacute" unicode="&#xfa;" horiz-adv-x="598" d="M473 -9 Q437 -9 409.5 9 Q382 27 374 69 Q368 58 356.5 44.5 Q345 31 327.5 19 Q310 7 286.5 -1 Q263 -9 233 -9 Q188 -9 157.5 3.5 Q127 16 108.5 38 Q90 60 82.5 89 Q75 118 75 151 L75 441 L20 441 L20 461 L213 461 L213 132 Q213 110 216 91.5 Q219 73 226.5 59 Q234 45 247.5 37 Q261 29 282 29 Q322 29 345.5 60.5 Q369 92 369 142 L369 441 L315 441 L315 461 L507 461 L507 75 Q507 55 515.5 44 Q524 33 538 33 Q555 33 567 50 L577 38 Q559 15 532.5 3 Q506 -9 473 -9 Z M208 521 L335 662 Q350 679 366.5 689 Q383 699 404 699 Q427 699 438.5 686.5 Q450 674 450 657 Q450 640 439 627.5 Q428 615 402 601 L251 521 L208 521 Z " />
<glyph glyph-name="ucircumflex" unicode="&#xfb;" horiz-adv-x="598" d="M473 -9 Q437 -9 409.5 9 Q382 27 374 69 Q368 58 356.5 44.5 Q345 31 327.5 19 Q310 7 286.5 -1 Q263 -9 233 -9 Q188 -9 157.5 3.5 Q127 16 108.5 38 Q90 60 82.5 89 Q75 118 75 151 L75 441 L20 441 L20 461 L213 461 L213 132 Q213 110 216 91.5 Q219 73 226.5 59 Q234 45 247.5 37 Q261 29 282 29 Q322 29 345.5 60.5 Q369 92 369 142 L369 441 L315 441 L315 461 L507 461 L507 75 Q507 55 515.5 44 Q524 33 538 33 Q555 33 567 50 L577 38 Q559 15 532.5 3 Q506 -9 473 -9 Z M439 513 L299 602 L156 514 L137 526 L272 690 L326 690 L459 526 L439 513 Z " />
<glyph glyph-name="udieresis" unicode="&#xfc;" horiz-adv-x="598" d="M473 -9 Q437 -9 409.5 9 Q382 27 374 69 Q368 58 356.5 44.5 Q345 31 327.5 19 Q310 7 286.5 -1 Q263 -9 233 -9 Q188 -9 157.5 3.5 Q127 16 108.5 38 Q90 60 82.5 89 Q75 118 75 151 L75 441 L20 441 L20 461 L213 461 L213 132 Q213 110 216 91.5 Q219 73 226.5 59 Q234 45 247.5 37 Q261 29 282 29 Q322 29 345.5 60.5 Q369 92 369 142 L369 441 L315 441 L315 461 L507 461 L507 75 Q507 55 515.5 44 Q524 33 538 33 Q555 33 567 50 L577 38 Q559 15 532.5 3 Q506 -9 473 -9 Z M469 602 Q469 574 450 554.5 Q431 535 403 535 Q375 535 355.5 554.5 Q336 574 336 602 Q336 629 355.5 648.5 Q375 668 403 668 Q431 668 450 648.5 Q469 629 469 602 Z M262 602 Q262 574 242 554.5 Q222 535 195 535 Q166 535 147 554.5 Q128 574 128 602 Q128 629 147 648.5 Q166 668 195 668 Q222 668 242 648.5 Q262 629 262 602 Z " />
<glyph glyph-name="yacute" unicode="&#xfd;" horiz-adv-x="469" d="M11 441 L-42 441 L-42 461 L225 461 L225 441 L159 441 L287 154 L401 441 L339 441 L339 461 L482 461 L482 441 L426 441 L252 0 Q229 -59 210.5 -101 Q192 -143 174 -170.5 Q156 -198 135.5 -211 Q115 -224 87 -224 Q54 -224 34 -205 Q14 -186 14 -156 Q14 -147 17 -136 L115 -136 Q137 -136 151 -131 Q165 -126 176 -112.5 Q187 -99 197 -75.5 Q207 -52 221 -15 L11 441 Z M133 521 L260 662 Q275 679 291.5 689 Q308 699 329 699 Q352 699 363.5 686.5 Q375 674 375 657 Q375 640 364 627.5 Q353 615 327 601 L176 521 L133 521 Z " />
<glyph glyph-name="thorn" unicode="&#xfe;" horiz-adv-x="573" d="M328 -9 Q286 -9 258.5 8.5 Q231 26 216 50 L216 -186 L282 -186 L282 -207 L23 -207 L23 -186 L78 -186 L78 707 L23 707 L23 727 L216 727 L216 409 Q230 433 260.5 452 Q291 471 336 471 Q379 471 415.5 454 Q452 437 478.5 406.5 Q505 376 520 332.5 Q535 289 535 237 Q535 182 521 137 Q507 92 480.5 59.5 Q454 27 415.5 9 Q377 -9 328 -9 Z M297 21 Q316 21 333 32 Q350 43 363 67.5 Q376 92 384 132.5 Q392 173 392 232 Q392 344 365 392 Q338 440 297 440 Q276 440 260.5 430 Q245 420 235.5 404 Q226 388 221 367 Q216 346 216 324 L216 137 Q216 115 221 94.5 Q226 74 235.5 57.5 Q245 41 260.5 31 Q276 21 297 21 Z " />
<glyph glyph-name="ydieresis" unicode="&#xff;" horiz-adv-x="469" d="M11 441 L-42 441 L-42 461 L225 461 L225 441 L159 441 L287 154 L401 441 L339 441 L339 461 L482 461 L482 441 L426 441 L252 0 Q229 -59 210.5 -101 Q192 -143 174 -170.5 Q156 -198 135.5 -211 Q115 -224 87 -224 Q54 -224 34 -205 Q14 -186 14 -156 Q14 -147 17 -136 L115 -136 Q137 -136 151 -131 Q165 -126 176 -112.5 Q187 -99 197 -75.5 Q207 -52 221 -15 L11 441 Z M414 602 Q414 574 395 554.5 Q376 535 348 535 Q320 535 300.5 554.5 Q281 574 281 602 Q281 629 300.5 648.5 Q320 668 348 668 Q376 668 395 648.5 Q414 629 414 602 Z M207 602 Q207 574 187 554.5 Q167 535 140 535 Q111 535 92 554.5 Q73 574 73 602 Q73 629 92 648.5 Q111 668 140 668 Q167 668 187 648.5 Q207 629 207 602 Z " />
<glyph glyph-name="Amacron" unicode="&#x100;" horiz-adv-x="674" d="M364 21 L464 21 L393 221 L162 221 L86 21 L183 21 L183 0 L-6 0 L-6 21 L57 21 L314 704 L376 704 L615 21 L676 21 L676 0 L364 0 L364 21 Z M281 539 L171 246 L384 246 L281 539 Z M188 786 L188 858 L485 858 L485 786 L188 786 Z " />
<glyph glyph-name="amacron" unicode="&#x101;" horiz-adv-x="515" d="M305 50 Q278 21 242 6 Q206 -9 164 -9 Q139 -9 116 -2 Q93 5 75.5 19.5 Q58 34 47.5 56 Q37 78 37 107 Q37 148 59 174.5 Q81 201 114 216.5 Q147 232 184.5 238.5 Q222 245 254 246 Q267 247 276 247 Q285 247 296 247 L296 364 Q296 408 270 428.5 Q244 449 211 449 Q185 449 164 439 Q143 429 131 417 L190 315 Q183 304 166.5 295.5 Q150 287 127 287 Q100 287 78.5 303 Q57 319 57 354 Q57 378 71 399 Q85 420 109 436 Q133 452 166.5 461.5 Q200 471 239 471 Q304 471 342 456 Q380 441 400 415 Q420 389 425.5 354.5 Q431 320 431 281 L431 75 Q431 55 439.5 44 Q448 33 462 33 Q476 33 489 49 L501 38 Q483 15 459.5 3 Q436 -9 403 -9 Q371 -9 345 5 Q319 19 305 50 Z M296 229 Q271 228 246.5 224 Q222 220 203 209 Q184 198 172.5 178 Q161 158 161 126 Q161 100 167.5 83 Q174 66 184 55.5 Q194 45 207 41 Q220 37 234 37 Q258 37 274 46.5 Q290 56 296 65 L296 229 Z M104 550 L104 622 L401 622 L401 550 L104 550 Z " />
<glyph glyph-name="Abreve" unicode="&#x102;" horiz-adv-x="674" d="M364 21 L464 21 L393 221 L162 221 L86 21 L183 21 L183 0 L-6 0 L-6 21 L57 21 L314 704 L376 704 L615 21 L676 21 L676 0 L364 0 L364 21 Z M281 539 L171 246 L384 246 L281 539 Z M336 838 Q385 838 416.5 862 Q448 886 459 922 L486 922 Q485 891 476 861.5 Q467 832 449 809 Q431 786 403 772 Q375 758 336 758 Q297 758 269.5 772 Q242 786 224 809 Q206 832 197 861.5 Q188 891 187 922 L214 922 Q223 886 255 862 Q287 838 336 838 Z " />
<glyph glyph-name="abreve" unicode="&#x103;" horiz-adv-x="515" d="M305 50 Q278 21 242 6 Q206 -9 164 -9 Q139 -9 116 -2 Q93 5 75.5 19.5 Q58 34 47.5 56 Q37 78 37 107 Q37 148 59 174.5 Q81 201 114 216.5 Q147 232 184.5 238.5 Q222 245 254 246 Q267 247 276 247 Q285 247 296 247 L296 364 Q296 408 270 428.5 Q244 449 211 449 Q185 449 164 439 Q143 429 131 417 L190 315 Q183 304 166.5 295.5 Q150 287 127 287 Q100 287 78.5 303 Q57 319 57 354 Q57 378 71 399 Q85 420 109 436 Q133 452 166.5 461.5 Q200 471 239 471 Q304 471 342 456 Q380 441 400 415 Q420 389 425.5 354.5 Q431 320 431 281 L431 75 Q431 55 439.5 44 Q448 33 462 33 Q476 33 489 49 L501 38 Q483 15 459.5 3 Q436 -9 403 -9 Q371 -9 345 5 Q319 19 305 50 Z M296 229 Q271 228 246.5 224 Q222 220 203 209 Q184 198 172.5 178 Q161 158 161 126 Q161 100 167.5 83 Q174 66 184 55.5 Q194 45 207 41 Q220 37 234 37 Q258 37 274 46.5 Q290 56 296 65 L296 229 Z M252 602 Q301 602 332.5 626 Q364 650 375 686 L402 686 Q401 655 392 625.5 Q383 596 365 573 Q347 550 319 536 Q291 522 252 522 Q213 522 185.5 536 Q158 550 140 573 Q122 596 113 625.5 Q104 655 103 686 L130 686 Q139 650 171 626 Q203 602 252 602 Z " />
<glyph glyph-name="Aogonek" unicode="&#x104;" horiz-adv-x="674" d="M364 21 L464 21 L393 221 L162 221 L86 21 L183 21 L183 0 L-6 0 L-6 21 L57 21 L314 704 L376 704 L615 21 L676 21 L676 0 L595 0 Q565 -23 553 -54 Q541 -85 541 -115 Q541 -148 556.5 -171.5 Q572 -195 604 -195 Q621 -195 632 -188.5 Q643 -182 653 -173 L661 -184 Q638 -208 608.5 -221.5 Q579 -235 546 -235 Q493 -235 468.5 -207 Q444 -179 444 -142 Q444 -124 450 -104.5 Q456 -85 469.5 -66.5 Q483 -48 504 -30.5 Q525 -13 555 0 L364 0 L364 21 Z M281 539 L171 246 L384 246 L281 539 Z " />
<glyph glyph-name="aogonek" unicode="&#x105;" horiz-adv-x="515" d="M305 50 Q278 21 242 6 Q206 -9 164 -9 Q139 -9 116 -2 Q93 5 75.5 19.5 Q58 34 47.5 56 Q37 78 37 107 Q37 148 59 174.5 Q81 201 114 216.5 Q147 232 184.5 238.5 Q222 245 254 246 Q267 247 276 247 Q285 247 296 247 L296 364 Q296 408 270 428.5 Q244 449 211 449 Q185 449 164 439 Q143 429 131 417 L190 315 Q183 304 166.5 295.5 Q150 287 127 287 Q100 287 78.5 303 Q57 319 57 354 Q57 378 71 399 Q85 420 109 436 Q133 452 166.5 461.5 Q200 471 239 471 Q304 471 342 456 Q380 441 400 415 Q420 389 425.5 354.5 Q431 320 431 281 L431 75 Q431 55 439.5 44 Q448 33 462 33 Q476 33 489 49 L501 38 Q488 22 472 13.5 Q456 5 438 -4 Q424 -12 414.5 -24.5 Q405 -37 399 -52.5 Q393 -68 390.5 -84.5 Q388 -101 388 -115 Q388 -148 400 -171.5 Q412 -195 444 -195 Q461 -195 472 -188.5 Q483 -182 493 -173 L501 -184 Q478 -208 452 -221.5 Q426 -235 393 -235 Q340 -235 315.5 -207 Q291 -179 291 -142 Q291 -109 312.5 -73 Q334 -37 387 -8 Q361 -5 338.5 9 Q316 23 305 50 Z M296 229 Q271 228 246.5 224 Q222 220 203 209 Q184 198 172.5 178 Q161 158 161 126 Q161 100 167.5 83 Q174 66 184 55.5 Q194 45 207 41 Q220 37 234 37 Q258 37 274 46.5 Q290 56 296 65 L296 229 Z " />
<glyph glyph-name="Cacute" unicode="&#x106;" horiz-adv-x="654" d="M622 90 Q583 45 526.5 18 Q470 -9 383 -9 Q300 -9 237 19 Q174 47 130.5 95 Q87 143 65 207.5 Q43 272 43 345 Q43 412 65 477.5 Q87 543 131 595 Q175 647 241.5 678.5 Q308 710 397 710 Q455 710 497 696 Q539 682 566 659.5 Q593 637 605.5 609.5 Q618 582 618 555 Q618 514 593.5 490 Q569 466 531 466 Q501 466 483.5 475.5 Q466 485 456 496 L563 621 Q541 650 506.5 668 Q472 686 422 686 Q362 686 321 661 Q280 636 255.5 592.5 Q231 549 220 490.5 Q209 432 209 365 Q209 275 226 210.5 Q243 146 273 104.5 Q303 63 342.5 43 Q382 23 427 23 Q484 23 527 43 Q570 63 606 105 L622 90 Z M267 757 L394 898 Q409 915 425.5 925 Q442 935 463 935 Q486 935 497.5 922.5 Q509 910 509 893 Q509 876 498 863.5 Q487 851 461 837 L310 757 L267 757 Z " />
<glyph glyph-name="cacute" unicode="&#x107;" horiz-adv-x="458" d="M427 57 Q398 25 358.5 8 Q319 -9 260 -9 Q214 -9 173 7 Q132 23 101.5 53 Q71 83 53 126 Q35 169 35 224 Q35 277 51 322 Q67 367 98 400 Q129 433 172.5 452 Q216 471 272 471 Q315 471 344.5 460.5 Q374 450 392.5 433.5 Q411 417 419.5 396.5 Q428 376 428 357 Q428 320 406 298 Q384 276 353 276 Q328 276 311 286 Q294 296 286 308 L384 409 Q376 422 355 436 Q334 450 301 450 Q244 450 211 393 Q178 336 178 233 Q178 179 189 139.5 Q200 100 218 74.5 Q236 49 260 37 Q284 25 311 25 Q344 25 368 36.5 Q392 48 415 71 L427 57 Z M158 521 L285 662 Q300 679 316.5 689 Q333 699 354 699 Q377 699 388.5 686.5 Q400 674 400 657 Q400 640 389 627.5 Q378 615 352 601 L201 521 L158 521 Z " />
<glyph glyph-name="Ccircumflex" unicode="&#x108;" horiz-adv-x="654" d="M622 90 Q583 45 526.5 18 Q470 -9 383 -9 Q300 -9 237 19 Q174 47 130.5 95 Q87 143 65 207.5 Q43 272 43 345 Q43 412 65 477.5 Q87 543 131 595 Q175 647 241.5 678.5 Q308 710 397 710 Q455 710 497 696 Q539 682 566 659.5 Q593 637 605.5 609.5 Q618 582 618 555 Q618 514 593.5 490 Q569 466 531 466 Q501 466 483.5 475.5 Q466 485 456 496 L563 621 Q541 650 506.5 668 Q472 686 422 686 Q362 686 321 661 Q280 636 255.5 592.5 Q231 549 220 490.5 Q209 432 209 365 Q209 275 226 210.5 Q243 146 273 104.5 Q303 63 342.5 43 Q382 23 427 23 Q484 23 527 43 Q570 63 606 105 L622 90 Z M511 749 L371 838 L228 750 L209 762 L344 926 L398 926 L531 762 L511 749 Z " />
<glyph glyph-name="ccircumflex" unicode="&#x109;" horiz-adv-x="458" d="M427 57 Q398 25 358.5 8 Q319 -9 260 -9 Q214 -9 173 7 Q132 23 101.5 53 Q71 83 53 126 Q35 169 35 224 Q35 277 51 322 Q67 367 98 400 Q129 433 172.5 452 Q216 471 272 471 Q315 471 344.5 460.5 Q374 450 392.5 433.5 Q411 417 419.5 396.5 Q428 376 428 357 Q428 320 406 298 Q384 276 353 276 Q328 276 311 286 Q294 296 286 308 L384 409 Q376 422 355 436 Q334 450 301 450 Q244 450 211 393 Q178 336 178 233 Q178 179 189 139.5 Q200 100 218 74.5 Q236 49 260 37 Q284 25 311 25 Q344 25 368 36.5 Q392 48 415 71 L427 57 Z M394 513 L254 602 L111 514 L92 526 L227 690 L281 690 L414 526 L394 513 Z " />
<glyph glyph-name="Cdotaccent" unicode="&#x10a;" horiz-adv-x="654" d="M622 90 Q583 45 526.5 18 Q470 -9 383 -9 Q300 -9 237 19 Q174 47 130.5 95 Q87 143 65 207.5 Q43 272 43 345 Q43 412 65 477.5 Q87 543 131 595 Q175 647 241.5 678.5 Q308 710 397 710 Q455 710 497 696 Q539 682 566 659.5 Q593 637 605.5 609.5 Q618 582 618 555 Q618 514 593.5 490 Q569 466 531 466 Q501 466 483.5 475.5 Q466 485 456 496 L563 621 Q541 650 506.5 668 Q472 686 422 686 Q362 686 321 661 Q280 636 255.5 592.5 Q231 549 220 490.5 Q209 432 209 365 Q209 275 226 210.5 Q243 146 273 104.5 Q303 63 342.5 43 Q382 23 427 23 Q484 23 527 43 Q570 63 606 105 L622 90 Z M462 838 Q462 809 442.5 789.5 Q423 770 394 770 Q366 770 346.5 789.5 Q327 809 327 838 Q327 866 346.5 885.5 Q366 905 394 905 Q423 905 442.5 885.5 Q462 866 462 838 Z " />
<glyph glyph-name="cdotaccent" unicode="&#x10b;" horiz-adv-x="458" d="M427 57 Q398 25 358.5 8 Q319 -9 260 -9 Q214 -9 173 7 Q132 23 101.5 53 Q71 83 53 126 Q35 169 35 224 Q35 277 51 322 Q67 367 98 400 Q129 433 172.5 452 Q216 471 272 471 Q315 471 344.5 460.5 Q374 450 392.5 433.5 Q411 417 419.5 396.5 Q428 376 428 357 Q428 320 406 298 Q384 276 353 276 Q328 276 311 286 Q294 296 286 308 L384 409 Q376 422 355 436 Q334 450 301 450 Q244 450 211 393 Q178 336 178 233 Q178 179 189 139.5 Q200 100 218 74.5 Q236 49 260 37 Q284 25 311 25 Q344 25 368 36.5 Q392 48 415 71 L427 57 Z M334 602 Q334 573 314.5 553.5 Q295 534 266 534 Q238 534 218.5 553.5 Q199 573 199 602 Q199 630 218.5 649.5 Q238 669 266 669 Q295 669 314.5 649.5 Q334 630 334 602 Z " />
<glyph glyph-name="Ccaron" unicode="&#x10c;" horiz-adv-x="654" d="M622 90 Q583 45 526.5 18 Q470 -9 383 -9 Q300 -9 237 19 Q174 47 130.5 95 Q87 143 65 207.5 Q43 272 43 345 Q43 412 65 477.5 Q87 543 131 595 Q175 647 241.5 678.5 Q308 710 397 710 Q455 710 497 696 Q539 682 566 659.5 Q593 637 605.5 609.5 Q618 582 618 555 Q618 514 593.5 490 Q569 466 531 466 Q501 466 483.5 475.5 Q466 485 456 496 L563 621 Q541 650 506.5 668 Q472 686 422 686 Q362 686 321 661 Q280 636 255.5 592.5 Q231 549 220 490.5 Q209 432 209 365 Q209 275 226 210.5 Q243 146 273 104.5 Q303 63 342.5 43 Q382 23 427 23 Q484 23 527 43 Q570 63 606 105 L622 90 Z M541 919 L412 757 L356 757 L224 919 L247 933 L384 846 L518 934 L541 919 Z " />
<glyph glyph-name="ccaron" unicode="&#x10d;" horiz-adv-x="458" d="M427 57 Q398 25 358.5 8 Q319 -9 260 -9 Q214 -9 173 7 Q132 23 101.5 53 Q71 83 53 126 Q35 169 35 224 Q35 277 51 322 Q67 367 98 400 Q129 433 172.5 452 Q216 471 272 471 Q315 471 344.5 460.5 Q374 450 392.5 433.5 Q411 417 419.5 396.5 Q428 376 428 357 Q428 320 406 298 Q384 276 353 276 Q328 276 311 286 Q294 296 286 308 L384 409 Q376 422 355 436 Q334 450 301 450 Q244 450 211 393 Q178 336 178 233 Q178 179 189 139.5 Q200 100 218 74.5 Q236 49 260 37 Q284 25 311 25 Q344 25 368 36.5 Q392 48 415 71 L427 57 Z M410 683 L281 521 L225 521 L93 683 L116 697 L253 610 L387 698 L410 683 Z " />
<glyph glyph-name="Dcaron" unicode="&#x10e;" horiz-adv-x="758" d="M269 21 L321 21 Q439 21 496 104 Q553 187 553 352 Q553 517 496 596.5 Q439 676 323 676 L269 676 L269 21 Z M117 676 L35 676 L35 697 L334 697 Q429 697 500.5 669.5 Q572 642 619.5 595 Q667 548 691 485 Q715 422 715 352 Q715 281 691 217.5 Q667 154 619.5 105.5 Q572 57 500.5 28.5 Q429 0 334 0 L35 0 L35 21 L117 21 L117 676 Z M526 919 L397 757 L341 757 L209 919 L232 933 L369 846 L503 934 L526 919 Z " />
<glyph glyph-name="dcaron" unicode="&#x10f;" horiz-adv-x="672" d="M499 75 Q499 55 507.5 44 Q516 33 530 33 Q546 33 558 50 L568 38 Q550 15 524 3 Q498 -9 464 -9 Q427 -9 399.5 7.5 Q372 24 361 59 Q344 29 314 10 Q284 -9 240 -9 Q196 -9 159 8.5 Q122 26 95.5 58 Q69 90 54 134 Q39 178 39 232 Q39 281 53.5 324.5 Q68 368 94.5 400.5 Q121 433 158.5 452 Q196 471 242 471 Q287 471 316.5 455 Q346 439 361 416 L361 707 L306 707 L306 727 L499 727 L499 75 Z M361 320 Q361 375 339 409.5 Q317 444 278 444 Q233 444 207.5 392.5 Q182 341 182 238 Q182 122 208.5 72 Q235 22 276 22 Q299 22 315 35.5 Q331 49 341.5 71.5 Q352 94 356.5 121.5 Q361 149 361 178 L361 320 Z M582 529 Q606 549 616 568 Q626 587 626 601 Q626 611 617 617 Q608 623 597.5 630.5 Q587 638 578.5 648.5 Q570 659 570 679 Q570 707 588 721.5 Q606 736 629 736 Q652 736 672 720 Q692 704 692 671 Q692 652 685.5 631 Q679 610 667 588.5 Q655 567 637.5 547 Q620 527 598 511 L582 529 Z " />
<glyph glyph-name="Dcroat" unicode="&#x110;" horiz-adv-x="758" d="M117 344 L41 344 L41 372 L117 372 L117 676 L35 676 L35 697 L334 697 Q429 697 500.5 669.5 Q572 642 619.5 595 Q667 548 691 485 Q715 422 715 352 Q715 281 691 217.5 Q667 154 619.5 105.5 Q572 57 500.5 28.5 Q429 0 334 0 L35 0 L35 21 L117 21 L117 344 Z M269 372 L420 372 L420 344 L269 344 L269 21 L322 21 Q440 21 496.5 104 Q553 187 553 352 Q553 517 496.5 596.5 Q440 676 323 676 L269 676 L269 372 Z " />
<glyph glyph-name="dcroat" unicode="&#x111;" horiz-adv-x="586" d="M499 592 L562 592 L562 572 L499 572 L499 75 Q499 55 507.5 44 Q516 33 530 33 Q546 33 558 50 L568 38 Q550 15 524 3 Q498 -9 464 -9 Q427 -9 399.5 7.5 Q372 24 361 59 Q344 29 314 10 Q284 -9 240 -9 Q196 -9 159 8.5 Q122 26 95.5 58 Q69 90 54 134 Q39 178 39 232 Q39 281 53.5 324.5 Q68 368 94.5 400.5 Q121 433 158.5 452 Q196 471 242 471 Q287 471 316.5 455 Q346 439 361 416 L361 572 L215 572 L215 592 L361 592 L361 707 L306 707 L306 727 L499 727 L499 592 Z M361 320 Q361 375 339 409.5 Q317 444 278 444 Q233 444 207.5 392.5 Q182 341 182 238 Q182 122 208.5 72 Q235 22 276 22 Q299 22 315 35.5 Q331 49 341.5 71.5 Q352 94 356.5 121.5 Q361 149 361 178 L361 320 Z " />
<glyph glyph-name="Emacron" unicode="&#x112;" horiz-adv-x="641" d="M444 697 Q521 697 558.5 664.5 Q596 632 596 584 Q596 542 571.5 518.5 Q547 495 505 495 Q479 495 463.5 503 Q448 511 437 522 L532 646 Q517 663 492.5 669.5 Q468 676 436 676 L269 676 L269 362 L443 362 L443 341 L269 341 L269 21 L372 21 Q426 21 459 34.5 Q492 48 513 73 Q534 98 545.5 134.5 Q557 171 567 218 L589 218 L589 0 L35 0 L35 21 L117 21 L117 676 L35 676 L35 697 L444 697 Z M191 786 L191 858 L488 858 L488 786 L191 786 Z " />
<glyph glyph-name="emacron" unicode="&#x113;" horiz-adv-x="475" d="M266 471 Q311 471 345 461 Q379 451 401.5 433 Q424 415 435.5 391 Q447 367 447 339 Q447 304 432 278.5 Q417 253 392 236 Q367 219 334 210.5 Q301 202 265 202 Q242 202 219.5 205 Q197 208 178 215 Q179 164 191 128 Q203 92 222 69 Q241 46 266 35.5 Q291 25 319 25 Q355 25 384 38.5 Q413 52 442 81 L453 67 Q422 34 377.5 12.5 Q333 -9 266 -9 Q218 -9 176 6.5 Q134 22 102.5 51.5 Q71 81 53 124.5 Q35 168 35 224 Q35 277 51 322 Q67 367 96.5 400 Q126 433 169 452 Q212 471 266 471 Z M266 451 Q234 451 210.5 409 Q187 367 180 295 Q178 281 178 266 Q178 251 178 235 Q208 226 239 226 Q276 226 300 252.5 Q324 279 324 344 Q324 394 307.5 422.5 Q291 451 266 451 Z M108 550 L108 622 L405 622 L405 550 L108 550 Z " />
<glyph glyph-name="Ebreve" unicode="&#x114;" horiz-adv-x="641" d="M444 697 Q521 697 558.5 664.5 Q596 632 596 584 Q596 542 571.5 518.5 Q547 495 505 495 Q479 495 463.5 503 Q448 511 437 522 L532 646 Q517 663 492.5 669.5 Q468 676 436 676 L269 676 L269 362 L443 362 L443 341 L269 341 L269 21 L372 21 Q426 21 459 34.5 Q492 48 513 73 Q534 98 545.5 134.5 Q557 171 567 218 L589 218 L589 0 L35 0 L35 21 L117 21 L117 676 L35 676 L35 697 L444 697 Z M339 838 Q388 838 419.5 862 Q451 886 462 922 L489 922 Q488 891 479 861.5 Q470 832 452 809 Q434 786 406 772 Q378 758 339 758 Q300 758 272.5 772 Q245 786 227 809 Q209 832 200 861.5 Q191 891 190 922 L217 922 Q226 886 258 862 Q290 838 339 838 Z " />
<glyph glyph-name="ebreve" unicode="&#x115;" horiz-adv-x="475" d="M266 471 Q311 471 345 461 Q379 451 401.5 433 Q424 415 435.5 391 Q447 367 447 339 Q447 304 432 278.5 Q417 253 392 236 Q367 219 334 210.5 Q301 202 265 202 Q242 202 219.5 205 Q197 208 178 215 Q179 164 191 128 Q203 92 222 69 Q241 46 266 35.5 Q291 25 319 25 Q355 25 384 38.5 Q413 52 442 81 L453 67 Q422 34 377.5 12.5 Q333 -9 266 -9 Q218 -9 176 6.5 Q134 22 102.5 51.5 Q71 81 53 124.5 Q35 168 35 224 Q35 277 51 322 Q67 367 96.5 400 Q126 433 169 452 Q212 471 266 471 Z M266 451 Q234 451 210.5 409 Q187 367 180 295 Q178 281 178 266 Q178 251 178 235 Q208 226 239 226 Q276 226 300 252.5 Q324 279 324 344 Q324 394 307.5 422.5 Q291 451 266 451 Z M256 602 Q305 602 336.5 626 Q368 650 379 686 L406 686 Q405 655 396 625.5 Q387 596 369 573 Q351 550 323 536 Q295 522 256 522 Q217 522 189.5 536 Q162 550 144 573 Q126 596 117 625.5 Q108 655 107 686 L134 686 Q143 650 175 626 Q207 602 256 602 Z " />
<glyph glyph-name="Edotaccent" unicode="&#x116;" horiz-adv-x="641" d="M444 697 Q521 697 558.5 664.5 Q596 632 596 584 Q596 542 571.5 518.5 Q547 495 505 495 Q479 495 463.5 503 Q448 511 437 522 L532 646 Q517 663 492.5 669.5 Q468 676 436 676 L269 676 L269 362 L443 362 L443 341 L269 341 L269 21 L372 21 Q426 21 459 34.5 Q492 48 513 73 Q534 98 545.5 134.5 Q557 171 567 218 L589 218 L589 0 L35 0 L35 21 L117 21 L117 676 L35 676 L35 697 L444 697 Z M407 838 Q407 809 387.5 789.5 Q368 770 339 770 Q311 770 291.5 789.5 Q272 809 272 838 Q272 866 291.5 885.5 Q311 905 339 905 Q368 905 387.5 885.5 Q407 866 407 838 Z " />
<glyph glyph-name="edotaccent" unicode="&#x117;" horiz-adv-x="475" d="M266 471 Q311 471 345 461 Q379 451 401.5 433 Q424 415 435.5 391 Q447 367 447 339 Q447 304 432 278.5 Q417 253 392 236 Q367 219 334 210.5 Q301 202 265 202 Q242 202 219.5 205 Q197 208 178 215 Q179 164 191 128 Q203 92 222 69 Q241 46 266 35.5 Q291 25 319 25 Q355 25 384 38.5 Q413 52 442 81 L453 67 Q422 34 377.5 12.5 Q333 -9 266 -9 Q218 -9 176 6.5 Q134 22 102.5 51.5 Q71 81 53 124.5 Q35 168 35 224 Q35 277 51 322 Q67 367 96.5 400 Q126 433 169 452 Q212 471 266 471 Z M266 451 Q234 451 210.5 409 Q187 367 180 295 Q178 281 178 266 Q178 251 178 235 Q208 226 239 226 Q276 226 300 252.5 Q324 279 324 344 Q324 394 307.5 422.5 Q291 451 266 451 Z M324 602 Q324 573 304.5 553.5 Q285 534 256 534 Q228 534 208.5 553.5 Q189 573 189 602 Q189 630 208.5 649.5 Q228 669 256 669 Q285 669 304.5 649.5 Q324 630 324 602 Z " />
<glyph glyph-name="Eogonek" unicode="&#x118;" horiz-adv-x="641" d="M444 697 Q521 697 558.5 664.5 Q596 632 596 584 Q596 542 571.5 518.5 Q547 495 505 495 Q479 495 463.5 503 Q448 511 437 522 L532 646 Q517 663 492.5 669.5 Q468 676 436 676 L269 676 L269 362 L443 362 L443 341 L269 341 L269 21 L372 21 Q426 21 459 34.5 Q492 48 513 73 Q534 98 545.5 134.5 Q557 171 567 218 L589 218 L589 0 L471 0 Q441 -23 429 -54 Q417 -85 417 -115 Q417 -148 432.5 -171.5 Q448 -195 480 -195 Q497 -195 508 -188.5 Q519 -182 529 -173 L537 -184 Q514 -208 484.5 -221.5 Q455 -235 422 -235 Q369 -235 344.5 -207 Q320 -179 320 -142 Q320 -107 345.5 -68 Q371 -29 431 0 L35 0 L35 21 L117 21 L117 676 L35 676 L35 697 L444 697 Z " />
<glyph glyph-name="eogonek" unicode="&#x119;" horiz-adv-x="475" d="M266 471 Q311 471 345 461 Q379 451 401.5 433 Q424 415 435.5 391 Q447 367 447 339 Q447 304 432 278.5 Q417 253 392 236 Q367 219 334 210.5 Q301 202 265 202 Q242 202 219.5 205 Q197 208 178 215 Q179 164 191 128 Q203 92 222 69 Q241 46 266 35.5 Q291 25 319 25 Q355 25 384 38.5 Q413 52 442 81 L453 67 Q438 51 420.5 38 Q403 25 382 14 Q339 -9 321 -44.5 Q303 -80 303 -115 Q303 -148 315 -171.5 Q327 -195 359 -195 Q376 -195 387 -188.5 Q398 -182 408 -173 L416 -184 Q393 -208 367 -221.5 Q341 -235 308 -235 Q255 -235 230.5 -207 Q206 -179 206 -142 Q206 -109 228 -72.5 Q250 -36 305 -7 Q295 -8 285.5 -8.5 Q276 -9 266 -9 Q218 -9 176 6.5 Q134 22 102.5 51.5 Q71 81 53 124.5 Q35 168 35 224 Q35 277 51 322 Q67 367 96.5 400 Q126 433 169 452 Q212 471 266 471 Z M266 451 Q234 451 210.5 409 Q187 367 180 295 Q178 281 178 266 Q178 251 178 235 Q208 226 239 226 Q276 226 300 252.5 Q324 279 324 344 Q324 394 307.5 422.5 Q291 451 266 451 Z " />
<glyph glyph-name="Ecaron" unicode="&#x11a;" horiz-adv-x="641" d="M444 697 Q521 697 558.5 664.5 Q596 632 596 584 Q596 542 571.5 518.5 Q547 495 505 495 Q479 495 463.5 503 Q448 511 437 522 L532 646 Q517 663 492.5 669.5 Q468 676 436 676 L269 676 L269 362 L443 362 L443 341 L269 341 L269 21 L372 21 Q426 21 459 34.5 Q492 48 513 73 Q534 98 545.5 134.5 Q557 171 567 218 L589 218 L589 0 L35 0 L35 21 L117 21 L117 676 L35 676 L35 697 L444 697 Z M498 919 L369 757 L313 757 L181 919 L204 933 L341 846 L475 934 L498 919 Z " />
<glyph glyph-name="ecaron" unicode="&#x11b;" horiz-adv-x="475" d="M266 471 Q311 471 345 461 Q379 451 401.5 433 Q424 415 435.5 391 Q447 367 447 339 Q447 304 432 278.5 Q417 253 392 236 Q367 219 334 210.5 Q301 202 265 202 Q242 202 219.5 205 Q197 208 178 215 Q179 164 191 128 Q203 92 222 69 Q241 46 266 35.5 Q291 25 319 25 Q355 25 384 38.5 Q413 52 442 81 L453 67 Q422 34 377.5 12.5 Q333 -9 266 -9 Q218 -9 176 6.5 Q134 22 102.5 51.5 Q71 81 53 124.5 Q35 168 35 224 Q35 277 51 322 Q67 367 96.5 400 Q126 433 169 452 Q212 471 266 471 Z M266 451 Q234 451 210.5 409 Q187 367 180 295 Q178 281 178 266 Q178 251 178 235 Q208 226 239 226 Q276 226 300 252.5 Q324 279 324 344 Q324 394 307.5 422.5 Q291 451 266 451 Z M418 683 L289 521 L233 521 L101 683 L124 697 L261 610 L395 698 L418 683 Z " />
<glyph glyph-name="Gcircumflex" unicode="&#x11c;" horiz-adv-x="736" d="M658 0 L646 0 Q637 5 624 9 Q611 13 593 13 Q549 13 498.5 2 Q448 -9 395 -9 Q306 -9 240 18 Q174 45 130 92.5 Q86 140 64.5 204.5 Q43 269 43 343 Q43 416 67.5 483 Q92 550 139 600 Q186 650 255.5 680 Q325 710 414 710 Q477 710 521.5 695.5 Q566 681 593.5 658.5 Q621 636 634 609 Q647 582 647 558 Q647 516 622.5 491 Q598 466 560 466 Q531 466 513.5 476.5 Q496 487 485 498 L589 622 Q563 652 526 669 Q489 686 435 686 Q375 686 332.5 658.5 Q290 631 262.5 585.5 Q235 540 222 480.5 Q209 421 209 357 Q209 275 224 212 Q239 149 266.5 106 Q294 63 332.5 40.5 Q371 18 418 18 Q447 18 476.5 21.5 Q506 25 523 33 L523 274 L437 274 L437 295 L721 295 L721 274 L658 274 L658 0 Z M559 749 L419 838 L276 750 L257 762 L392 926 L446 926 L579 762 L559 749 Z " />
<glyph glyph-name="gcircumflex" unicode="&#x11d;" horiz-adv-x="504" d="M370 -120 Q370 -89 346.5 -73 Q323 -57 287.5 -48 Q252 -39 211 -33.5 Q170 -28 135 -17 Q121 -35 114.5 -53 Q108 -71 108 -97 Q108 -141 143 -171 Q178 -201 251 -201 Q306 -201 338 -178 Q370 -155 370 -120 Z M255 191 Q277 191 291 202.5 Q305 214 313.5 232 Q322 250 325 272 Q328 294 328 315 Q328 338 324.5 362.5 Q321 387 312.5 407 Q304 427 290 439.5 Q276 452 255 452 Q234 452 220 439.5 Q206 427 198 407 Q190 387 186.5 362.5 Q183 338 183 315 Q183 294 186 272 Q189 250 197 232 Q205 214 219 202.5 Q233 191 255 191 Z M392 557 Q415 529 425.5 513 Q436 497 436 480 Q436 450 403 431 Q431 409 444 379.5 Q457 350 457 319 Q457 290 445 263 Q433 236 408 215 Q383 194 345 181.5 Q307 169 255 169 Q212 169 181 176.5 Q150 184 127 195 Q117 188 112.5 177 Q108 166 108 154 Q108 132 120.5 119 Q133 106 156 97.5 Q179 89 213 84.5 Q247 80 289 75 Q377 65 428.5 32 Q480 -1 480 -65 Q480 -103 462.5 -133 Q445 -163 414 -183 Q383 -203 340.5 -213.5 Q298 -224 248 -224 Q200 -224 159.5 -216.5 Q119 -209 90 -194 Q61 -179 44.5 -157 Q28 -135 28 -106 Q28 -66 54 -43.5 Q80 -21 115 -10 Q77 6 57.5 32.5 Q38 59 38 94 Q38 128 57.5 158 Q77 188 110 205 Q83 225 68 253.5 Q53 282 53 315 Q53 340 62.5 367.5 Q72 395 95 418 Q118 441 157 456 Q196 471 255 471 Q297 471 330.5 463.5 Q364 456 387 443 Q399 450 406 458 Q413 466 413 479 Q413 493 403.5 503.5 Q394 514 376 526 L257 602 L114 514 L95 526 L230 690 L284 690 L392 557 Z " />
<glyph glyph-name="Gbreve" unicode="&#x11e;" horiz-adv-x="736" d="M658 0 L646 0 Q637 5 624 9 Q611 13 593 13 Q549 13 498.5 2 Q448 -9 395 -9 Q306 -9 240 18 Q174 45 130 92.5 Q86 140 64.5 204.5 Q43 269 43 343 Q43 416 67.5 483 Q92 550 139 600 Q186 650 255.5 680 Q325 710 414 710 Q477 710 521.5 695.5 Q566 681 593.5 658.5 Q621 636 634 609 Q647 582 647 558 Q647 516 622.5 491 Q598 466 560 466 Q531 466 513.5 476.5 Q496 487 485 498 L589 622 Q563 652 526 669 Q489 686 435 686 Q375 686 332.5 658.5 Q290 631 262.5 585.5 Q235 540 222 480.5 Q209 421 209 357 Q209 275 224 212 Q239 149 266.5 106 Q294 63 332.5 40.5 Q371 18 418 18 Q447 18 476.5 21.5 Q506 25 523 33 L523 274 L437 274 L437 295 L721 295 L721 274 L658 274 L658 0 Z M412 838 Q461 838 492.5 862 Q524 886 535 922 L562 922 Q561 891 552 861.5 Q543 832 525 809 Q507 786 479 772 Q451 758 412 758 Q373 758 345.5 772 Q318 786 300 809 Q282 832 273 861.5 Q264 891 263 922 L290 922 Q299 886 331 862 Q363 838 412 838 Z " />
<glyph glyph-name="gbreve" unicode="&#x11f;" horiz-adv-x="504" d="M28 -106 Q28 -66 54 -43.5 Q80 -21 115 -10 Q77 6 57.5 32.5 Q38 59 38 94 Q38 128 57.5 158 Q77 188 110 205 Q83 225 68 253.5 Q53 282 53 315 Q53 340 62.5 367.5 Q72 395 95 418 Q118 441 157 456 Q196 471 255 471 Q297 471 330.5 463.5 Q364 456 387 443 Q407 454 418 468.5 Q429 483 429 498 Q429 510 422 514.5 Q415 519 399 519 L363 519 Q360 528 360 535 Q360 554 373.5 565.5 Q387 577 410 577 Q435 577 449.5 561.5 Q464 546 464 520 Q464 499 450 475 Q436 451 403 431 Q431 409 444 379.5 Q457 350 457 319 Q457 290 445 263 Q433 236 408 215 Q383 194 345 181.5 Q307 169 255 169 Q212 169 181 176.5 Q150 184 127 195 Q117 188 112.5 177 Q108 166 108 154 Q108 132 120.5 119 Q133 106 156 97.5 Q179 89 213 84.5 Q247 80 289 75 Q377 65 428.5 32 Q480 -1 480 -65 Q480 -103 462.5 -133 Q445 -163 414 -183 Q383 -203 340.5 -213.5 Q298 -224 248 -224 Q200 -224 159.5 -216.5 Q119 -209 90 -194 Q61 -179 44.5 -157 Q28 -135 28 -106 Z M370 -120 Q370 -89 346.5 -73 Q323 -57 287.5 -48 Q252 -39 211 -33.5 Q170 -28 135 -17 Q121 -35 114.5 -53 Q108 -71 108 -97 Q108 -141 143 -171 Q178 -201 251 -201 Q306 -201 338 -178 Q370 -155 370 -120 Z M255 191 Q277 191 291 202.5 Q305 214 313.5 232 Q322 250 325 272 Q328 294 328 315 Q328 338 324.5 362.5 Q321 387 312.5 407 Q304 427 290 439.5 Q276 452 255 452 Q234 452 220 439.5 Q206 427 198 407 Q190 387 186.5 362.5 Q183 338 183 315 Q183 294 186 272 Q189 250 197 232 Q205 214 219 202.5 Q233 191 255 191 Z M245 602 Q292 602 317 626 Q342 650 353 686 L380 686 Q379 655 372 625.5 Q365 596 349 573 Q333 550 307.5 536 Q282 522 245 522 Q207 522 182 536 Q157 550 141.5 573 Q126 596 119 625.5 Q112 655 111 686 L138 686 Q147 650 172.5 626 Q198 602 245 602 Z " />
<glyph glyph-name="Gdotaccent" unicode="&#x120;" horiz-adv-x="736" d="M658 0 L646 0 Q637 5 624 9 Q611 13 593 13 Q549 13 498.5 2 Q448 -9 395 -9 Q306 -9 240 18 Q174 45 130 92.5 Q86 140 64.5 204.5 Q43 269 43 343 Q43 416 67.5 483 Q92 550 139 600 Q186 650 255.5 680 Q325 710 414 710 Q477 710 521.5 695.5 Q566 681 593.5 658.5 Q621 636 634 609 Q647 582 647 558 Q647 516 622.5 491 Q598 466 560 466 Q531 466 513.5 476.5 Q496 487 485 498 L589 622 Q563 652 526 669 Q489 686 435 686 Q375 686 332.5 658.5 Q290 631 262.5 585.5 Q235 540 222 480.5 Q209 421 209 357 Q209 275 224 212 Q239 149 266.5 106 Q294 63 332.5 40.5 Q371 18 418 18 Q447 18 476.5 21.5 Q506 25 523 33 L523 274 L437 274 L437 295 L721 295 L721 274 L658 274 L658 0 Z M481 838 Q481 809 461.5 789.5 Q442 770 413 770 Q385 770 365.5 789.5 Q346 809 346 838 Q346 866 365.5 885.5 Q385 905 413 905 Q442 905 461.5 885.5 Q481 866 481 838 Z " />
<glyph glyph-name="gdotaccent" unicode="&#x121;" horiz-adv-x="504" d="M326 596 Q326 567 306.5 547.5 Q287 528 258 528 Q230 528 210.5 547.5 Q191 567 191 596 Q191 620 201 638 Q211 656 228.5 668.5 Q246 681 269.5 687.5 Q293 694 319 694 Q352 694 378.5 683 Q405 672 423 653.5 Q441 635 451 610.5 Q461 586 461 560 Q461 522 443.5 487 Q426 452 403 431 Q431 409 444 379.5 Q457 350 457 319 Q457 290 445 263 Q433 236 408 215 Q383 194 345 181.5 Q307 169 255 169 Q212 169 181 176.5 Q150 184 127 195 Q117 188 112.5 177 Q108 166 108 154 Q108 132 120.5 119 Q133 106 156 97.5 Q179 89 213 84.5 Q247 80 289 75 Q377 65 428.5 32 Q480 -1 480 -65 Q480 -103 462.5 -133 Q445 -163 414 -183 Q383 -203 340.5 -213.5 Q298 -224 248 -224 Q200 -224 159.5 -216.5 Q119 -209 90 -194 Q61 -179 44.5 -157 Q28 -135 28 -106 Q28 -66 54 -43.5 Q80 -21 115 -10 Q77 6 57.5 32.5 Q38 59 38 94 Q38 128 57.5 158 Q77 188 110 205 Q83 225 68 253.5 Q53 282 53 315 Q53 340 62.5 367.5 Q72 395 95 418 Q118 441 157 456 Q196 471 255 471 Q297 471 330.5 463.5 Q364 456 387 443 Q413 473 423.5 500 Q434 527 434 559 Q434 585 424.5 606 Q415 627 399 641.5 Q383 656 362 664 Q341 672 318 672 Q299 672 285.5 669.5 Q272 667 261 663 Q289 661 307.5 642 Q326 623 326 596 Z M370 -120 Q370 -89 346.5 -73 Q323 -57 287.5 -48 Q252 -39 211 -33.5 Q170 -28 135 -17 Q121 -35 114.5 -53 Q108 -71 108 -97 Q108 -141 143 -171 Q178 -201 251 -201 Q306 -201 338 -178 Q370 -155 370 -120 Z M255 191 Q277 191 291 202.5 Q305 214 313.5 232 Q322 250 325 272 Q328 294 328 315 Q328 338 324.5 362.5 Q321 387 312.5 407 Q304 427 290 439.5 Q276 452 255 452 Q234 452 220 439.5 Q206 427 198 407 Q190 387 186.5 362.5 Q183 338 183 315 Q183 294 186 272 Q189 250 197 232 Q205 214 219 202.5 Q233 191 255 191 Z " />
<glyph glyph-name="Gcommaaccent" unicode="&#x122;" horiz-adv-x="736" d="M658 0 L646 0 Q637 5 624 9 Q611 13 593 13 Q549 13 498.5 2 Q448 -9 395 -9 Q306 -9 240 18 Q174 45 130 92.5 Q86 140 64.5 204.5 Q43 269 43 343 Q43 416 67.5 483 Q92 550 139 600 Q186 650 255.5 680 Q325 710 414 710 Q477 710 521.5 695.5 Q566 681 593.5 658.5 Q621 636 634 609 Q647 582 647 558 Q647 516 622.5 491 Q598 466 560 466 Q531 466 513.5 476.5 Q496 487 485 498 L589 622 Q563 652 526 669 Q489 686 435 686 Q375 686 332.5 658.5 Q290 631 262.5 585.5 Q235 540 222 480.5 Q209 421 209 357 Q209 275 224 212 Q239 149 266.5 106 Q294 63 332.5 40.5 Q371 18 418 18 Q447 18 476.5 21.5 Q506 25 523 33 L523 274 L437 274 L437 295 L721 295 L721 274 L658 274 L658 0 Z M376 -239 Q400 -219 409 -204 Q418 -189 418 -177 Q418 -169 409 -163.5 Q400 -158 389.5 -150.5 Q379 -143 370.5 -132 Q362 -121 362 -101 Q362 -73 380 -58.5 Q398 -44 421 -44 Q444 -44 464 -60 Q484 -76 484 -109 Q484 -147 460 -186 Q436 -225 392 -257 L376 -239 Z " />
<glyph glyph-name="gcommaaccent" unicode="&#x123;" horiz-adv-x="504" d="M300 742 Q277 722 267.5 704 Q258 686 258 673 Q258 664 266.5 658 Q275 652 285 645 Q295 638 303.5 627.5 Q312 617 312 598 Q312 571 295 557 Q278 543 255 543 Q233 543 214 558 Q195 573 195 605 Q195 641 219 684.5 Q243 728 285 759 L300 742 Z M28 -106 Q28 -66 54 -43.5 Q80 -21 115 -10 Q77 6 57.5 32.5 Q38 59 38 94 Q38 128 57.5 158 Q77 188 110 205 Q83 225 68 253.5 Q53 282 53 315 Q53 340 62.5 367.5 Q72 395 95 418 Q118 441 157 456 Q196 471 255 471 Q297 471 330.5 463.5 Q364 456 387 443 Q407 454 418 468.5 Q429 483 429 498 Q429 510 422 514.5 Q415 519 399 519 L363 519 Q360 528 360 535 Q360 554 373.5 565.5 Q387 577 410 577 Q435 577 449.5 561.5 Q464 546 464 520 Q464 499 450 475 Q436 451 403 431 Q431 409 444 379.5 Q457 350 457 319 Q457 290 445 263 Q433 236 408 215 Q383 194 345 181.5 Q307 169 255 169 Q212 169 181 176.5 Q150 184 127 195 Q117 188 112.5 177 Q108 166 108 154 Q108 132 120.5 119 Q133 106 156 97.5 Q179 89 213 84.5 Q247 80 289 75 Q377 65 428.5 32 Q480 -1 480 -65 Q480 -103 462.5 -133 Q445 -163 414 -183 Q383 -203 340.5 -213.5 Q298 -224 248 -224 Q200 -224 159.5 -216.5 Q119 -209 90 -194 Q61 -179 44.5 -157 Q28 -135 28 -106 Z M370 -120 Q370 -89 346.5 -73 Q323 -57 287.5 -48 Q252 -39 211 -33.5 Q170 -28 135 -17 Q121 -35 114.5 -53 Q108 -71 108 -97 Q108 -141 143 -171 Q178 -201 251 -201 Q306 -201 338 -178 Q370 -155 370 -120 Z M255 191 Q277 191 291 202.5 Q305 214 313.5 232 Q322 250 325 272 Q328 294 328 315 Q328 338 324.5 362.5 Q321 387 312.5 407 Q304 427 290 439.5 Q276 452 255 452 Q234 452 220 439.5 Q206 427 198 407 Q190 387 186.5 362.5 Q183 338 183 315 Q183 294 186 272 Q189 250 197 232 Q205 214 219 202.5 Q233 191 255 191 Z " />
<glyph glyph-name="Hcircumflex" unicode="&#x124;" horiz-adv-x="855" d="M269 21 L347 21 L347 0 L35 0 L35 21 L117 21 L117 676 L35 676 L35 697 L347 697 L347 676 L269 676 L269 376 L586 376 L586 676 L508 676 L508 697 L820 697 L820 676 L738 676 L738 21 L820 21 L820 0 L508 0 L508 21 L586 21 L586 352 L269 352 L269 21 Z M567 749 L427 838 L284 750 L265 762 L400 926 L454 926 L587 762 L567 749 Z " />
<glyph glyph-name="hcircumflex" unicode="&#x125;" horiz-adv-x="607" d="M524 75 Q524 55 532 44 Q540 33 554 33 Q571 33 582 49 L593 37 Q555 -9 490 -9 Q445 -9 414.5 18 Q384 45 384 108 L384 330 Q384 382 368 407.5 Q352 433 315 433 Q273 433 247.5 402 Q222 371 222 323 L222 20 L276 20 L276 0 L29 0 L29 20 L84 20 L84 707 L29 707 L29 727 L222 727 L222 396 Q228 408 239.5 421 Q251 434 268.5 445 Q286 456 310 463.5 Q334 471 365 471 Q410 471 440.5 458 Q471 445 489.5 423.5 Q508 402 516 373 Q524 344 524 311 L524 75 Z M270 719 L130 808 L-13 720 L-32 732 L103 896 L157 896 L290 732 L270 719 Z " />
<glyph glyph-name="Hbar" unicode="&#x126;" horiz-adv-x="855" d="M738 520 L738 21 L820 21 L820 0 L508 0 L508 21 L586 21 L586 353 L269 353 L269 21 L347 21 L347 0 L35 0 L35 21 L117 21 L117 520 L35 520 L35 543 L117 543 L117 676 L35 676 L35 697 L347 697 L347 676 L269 676 L269 543 L586 543 L586 676 L508 676 L508 697 L820 697 L820 676 L738 676 L738 543 L820 543 L820 520 L738 520 Z M586 376 L586 520 L269 520 L269 376 L586 376 Z " />
<glyph glyph-name="hbar" unicode="&#x127;" horiz-adv-x="607" d="M524 75 Q524 55 532 44 Q540 33 554 33 Q571 33 582 49 L593 37 Q555 -9 490 -9 Q445 -9 414.5 18 Q384 45 384 108 L384 330 Q384 382 368 407.5 Q352 433 315 433 Q273 433 247.5 402 Q222 371 222 323 L222 20 L276 20 L276 0 L29 0 L29 20 L84 20 L84 572 L29 572 L29 592 L84 592 L84 707 L29 707 L29 727 L222 727 L222 592 L376 592 L376 572 L222 572 L222 396 Q228 408 239.5 421 Q251 434 268.5 445 Q286 456 310 463.5 Q334 471 365 471 Q410 471 440.5 458 Q471 445 489.5 423.5 Q508 402 516 373 Q524 344 524 311 L524 75 Z " />
<glyph glyph-name="Itilde" unicode="&#x128;" horiz-adv-x="388" d="M36 0 L36 21 L117 21 L117 676 L36 676 L36 697 L351 697 L351 676 L269 676 L269 21 L351 21 L351 0 L36 0 Z M371 902 Q366 845 336 809 Q306 773 255 773 Q233 773 212.5 780 Q192 787 172.5 796 Q153 805 133.5 812 Q114 819 95 819 Q78 819 58.5 809.5 Q39 800 30 771 L15 771 Q20 825 51 861.5 Q82 898 131 898 Q153 898 174 891 Q195 884 215 875.5 Q235 867 254 860 Q273 853 292 853 Q312 853 329.5 864 Q347 875 357 902 L371 902 Z " />
<glyph glyph-name="itilde" unicode="&#x129;" horiz-adv-x="314" d="M225 461 L225 20 L280 20 L280 0 L32 0 L32 20 L87 20 L87 441 L32 441 L32 461 L225 461 Z M335 666 Q330 609 300 573 Q270 537 219 537 Q197 537 176.5 544 Q156 551 136.5 560 Q117 569 97.5 576 Q78 583 59 583 Q42 583 23.5 573.5 Q5 564 -4 535 L-21 535 Q-16 589 15 625.5 Q46 662 95 662 Q117 662 138 655 Q159 648 179 639.5 Q199 631 218 624 Q237 617 256 617 Q276 617 292.5 628 Q309 639 319 666 L335 666 Z " />
<glyph glyph-name="Imacron" unicode="&#x12a;" horiz-adv-x="388" d="M36 0 L36 21 L117 21 L117 676 L36 676 L36 697 L351 697 L351 676 L269 676 L269 21 L351 21 L351 0 L36 0 Z M45 786 L45 858 L342 858 L342 786 L45 786 Z " />
<glyph glyph-name="imacron" unicode="&#x12b;" horiz-adv-x="314" d="M225 461 L225 20 L280 20 L280 0 L32 0 L32 20 L87 20 L87 441 L32 441 L32 461 L225 461 Z M8 550 L8 622 L305 622 L305 550 L8 550 Z " />
<glyph glyph-name="Ibreve" unicode="&#x12c;" horiz-adv-x="388" d="M36 0 L36 21 L117 21 L117 676 L36 676 L36 697 L351 697 L351 676 L269 676 L269 21 L351 21 L351 0 L36 0 Z M193 838 Q242 838 273.5 862 Q305 886 316 922 L343 922 Q342 891 333 861.5 Q324 832 306 809 Q288 786 260 772 Q232 758 193 758 Q154 758 126.5 772 Q99 786 81 809 Q63 832 54 861.5 Q45 891 44 922 L71 922 Q80 886 112 862 Q144 838 193 838 Z " />
<glyph glyph-name="ibreve" unicode="&#x12d;" horiz-adv-x="314" d="M225 461 L225 20 L280 20 L280 0 L32 0 L32 20 L87 20 L87 441 L32 441 L32 461 L225 461 Z M156 602 Q203 602 228 626 Q253 650 264 686 L291 686 Q290 655 283 625.5 Q276 596 260 573 Q244 550 218.5 536 Q193 522 156 522 Q118 522 93 536 Q68 550 52.5 573 Q37 596 30 625.5 Q23 655 22 686 L49 686 Q58 650 83.5 626 Q109 602 156 602 Z " />
<glyph glyph-name="Iogonek" unicode="&#x12e;" horiz-adv-x="388" d="M256 0 Q226 -23 214 -54 Q202 -85 202 -115 Q202 -148 217.5 -171.5 Q233 -195 265 -195 Q282 -195 293 -188.5 Q304 -182 314 -173 L322 -184 Q299 -208 269.5 -221.5 Q240 -235 207 -235 Q154 -235 129.5 -207 Q105 -179 105 -142 Q105 -107 131 -68 Q157 -29 217 0 L36 0 L36 21 L117 21 L117 676 L36 676 L36 697 L351 697 L351 676 L269 676 L269 21 L351 21 L351 0 L256 0 Z " />
<glyph glyph-name="iogonek" unicode="&#x12f;" horiz-adv-x="314" d="M225 461 L225 20 L280 20 L280 0 L218 0 Q188 -23 174.5 -54 Q161 -85 161 -115 Q161 -148 173 -171.5 Q185 -195 217 -195 Q234 -195 245 -188.5 Q256 -182 266 -173 L274 -184 Q251 -208 225 -221.5 Q199 -235 166 -235 Q113 -235 88.5 -207 Q64 -179 64 -142 Q64 -125 70 -106 Q76 -87 89 -68.5 Q102 -50 123.5 -32.5 Q145 -15 176 0 L32 0 L32 20 L87 20 L87 441 L32 441 L32 461 L225 461 Z M231 605 Q231 573 209.5 551.5 Q188 530 158 530 Q128 530 107 551.5 Q86 573 86 605 Q86 634 107 655 Q128 676 158 676 Q188 676 209.5 655 Q231 634 231 605 Z " />
<glyph glyph-name="Idotaccent" unicode="&#x130;" horiz-adv-x="388" d="M36 0 L36 21 L117 21 L117 676 L36 676 L36 697 L351 697 L351 676 L269 676 L269 21 L351 21 L351 0 L36 0 Z M261 838 Q261 809 241.5 789.5 Q222 770 193 770 Q165 770 145.5 789.5 Q126 809 126 838 Q126 866 145.5 885.5 Q165 905 193 905 Q222 905 241.5 885.5 Q261 866 261 838 Z " />
<glyph glyph-name="dotlessi" unicode="&#x131;" horiz-adv-x="314" d="M225 461 L225 20 L280 20 L280 0 L32 0 L32 20 L87 20 L87 441 L32 441 L32 461 L225 461 Z " />
<glyph glyph-name="IJ" unicode="&#x132;" horiz-adv-x="778" d="M36 0 L36 21 L117 21 L117 676 L36 676 L36 697 L351 697 L351 676 L269 676 L269 21 L351 21 L351 0 L36 0 Z M383 -64 Q394 -73 409.5 -79 Q425 -85 442 -85 Q480 -85 499.5 -49 Q519 -13 519 44 L519 676 L438 676 L438 697 L753 697 L753 676 L671 676 L671 181 Q671 40 623 -33.5 Q575 -107 471 -107 Q439 -107 415 -101 Q391 -95 372 -79 L383 -64 Z " />
<glyph glyph-name="ij" unicode="&#x133;" horiz-adv-x="614" d="M225 461 L225 20 L280 20 L280 0 L32 0 L32 20 L87 20 L87 441 L32 441 L32 461 L225 461 Z M231 605 Q231 573 209.5 551.5 Q188 530 158 530 Q128 530 107 551.5 Q86 573 86 605 Q86 634 107 655 Q128 676 158 676 Q188 676 209.5 655 Q231 634 231 605 Z M301 -217 Q323 -213 340.5 -204 Q358 -195 370.5 -176.5 Q383 -158 389.5 -129 Q396 -100 396 -56 L396 441 L341 441 L341 461 L534 461 L534 32 Q534 -25 516.5 -72 Q499 -119 468 -153.5 Q437 -188 395 -208.5 Q353 -229 305 -233 L301 -217 Z M538 605 Q538 573 517 551.5 Q496 530 466 530 Q436 530 415 551.5 Q394 573 394 605 Q394 634 415 655 Q436 676 466 676 Q496 676 517 655 Q538 634 538 605 Z " />
<glyph glyph-name="Jcircumflex" unicode="&#x134;" horiz-adv-x="386" d="M-9 -64 Q2 -73 17.5 -79 Q33 -85 50 -85 Q88 -85 107.5 -49 Q127 -13 127 44 L127 676 L46 676 L46 697 L361 697 L361 676 L279 676 L279 181 Q279 40 231 -33.5 Q183 -107 79 -107 Q47 -107 23 -101 Q-1 -95 -20 -79 L-9 -64 Z M343 749 L203 838 L60 750 L41 762 L176 926 L230 926 L363 762 L343 749 Z " />
<glyph glyph-name="jcircumflex" unicode="&#x135;" horiz-adv-x="300" d="M-13 -217 Q9 -213 26.5 -204 Q44 -195 56.5 -176.5 Q69 -158 75.5 -129 Q82 -100 82 -56 L82 441 L16 441 L16 461 L220 461 L220 32 Q220 -25 202.5 -72 Q185 -119 154 -153.5 Q123 -188 81 -208.5 Q39 -229 -9 -233 L-13 -217 Z M286 513 L146 602 L3 514 L-16 526 L119 690 L173 690 L306 526 L286 513 Z " />
<glyph glyph-name="Kcommaaccent" unicode="&#x136;" horiz-adv-x="732" d="M269 21 L355 21 L355 0 L35 0 L35 21 L117 21 L117 676 L35 676 L35 697 L355 697 L355 676 L269 676 L269 328 L484 448 Q545 483 575.5 516.5 Q606 550 607 576 Q607 606 569 606 L472 606 Q470 611 469 617.5 Q468 624 468 630 Q468 661 491.5 685.5 Q515 710 559 710 Q583 710 601 702 Q619 694 631 680.5 Q643 667 648.5 649.5 Q654 632 654 614 Q654 560 611 514.5 Q568 469 485 425 L414 387 Q428 390 440.5 392 Q453 394 468 394 Q498 394 526 385.5 Q554 377 575.5 357.5 Q597 338 609.5 306.5 Q622 275 622 229 L622 134 Q622 106 626 88 Q630 70 637 60 Q644 50 653 46.5 Q662 43 673 43 Q687 43 695.5 51 Q704 59 712 72 L727 60 Q719 46 708.5 33.5 Q698 21 683.5 11.5 Q669 2 649.5 -3.5 Q630 -9 603 -9 Q580 -9 556.5 -1 Q533 7 514 26.5 Q495 46 483.5 78.5 Q472 111 472 160 L472 253 Q472 315 452 339 Q432 363 399 363 Q381 363 369.5 358 Q358 353 344 345 L269 301 L269 21 Z M341 -239 Q365 -219 374 -204 Q383 -189 383 -177 Q383 -169 374 -163.5 Q365 -158 354.5 -150.5 Q344 -143 335.5 -132 Q327 -121 327 -101 Q327 -73 345 -58.5 Q363 -44 386 -44 Q409 -44 429 -60 Q449 -76 449 -109 Q449 -147 425 -186 Q401 -225 357 -257 L341 -239 Z " />
<glyph glyph-name="kcommaaccent" unicode="&#x137;" horiz-adv-x="559" d="M480 75 Q480 55 488 44 Q496 33 510 33 Q525 33 537 48 L548 36 Q532 15 507.5 3 Q483 -9 451 -9 Q430 -9 411 -3.5 Q392 2 377.5 14.5 Q363 27 354.5 47.5 Q346 68 346 98 L346 169 Q346 201 332.5 218 Q319 235 295 235 Q284 235 271.5 231.5 Q259 228 243 223 L212 211 L212 20 L266 20 L266 0 L19 0 L19 20 L74 20 L74 707 L19 707 L19 727 L212 727 L212 233 L343 282 Q403 305 423.5 323 Q444 341 444 357 Q444 369 435.5 375.5 Q427 382 405 382 L328 382 Q325 391 325 401 Q325 428 345.5 449.5 Q366 471 406 471 Q448 471 469 448 Q490 425 490 397 Q490 352 455.5 322 Q421 292 366 271 L326 255 Q346 260 367 260 Q414 260 447 229.5 Q480 199 480 140 L480 75 Z M250 -239 Q274 -219 283 -204 Q292 -189 292 -177 Q292 -169 283 -163.5 Q274 -158 263.5 -150.5 Q253 -143 244.5 -132 Q236 -121 236 -101 Q236 -73 254 -58.5 Q272 -44 295 -44 Q318 -44 338 -60 Q358 -76 358 -109 Q358 -147 334 -186 Q310 -225 266 -257 L250 -239 Z " />
<glyph glyph-name="Lacute" unicode="&#x139;" horiz-adv-x="616" d="M34 0 L34 21 L117 21 L117 676 L34 676 L34 697 L362 697 L362 676 L269 676 L269 21 L367 21 Q415 21 447 35.5 Q479 50 500 78.5 Q521 107 533 149 Q545 191 554 245 L577 245 L577 0 L34 0 Z M126 757 L253 898 Q268 915 284.5 925 Q301 935 322 935 Q345 935 356.5 922.5 Q368 910 368 893 Q368 876 357 863.5 Q346 851 320 837 L169 757 L126 757 Z " />
<glyph glyph-name="lacute" unicode="&#x13a;" horiz-adv-x="312" d="M206 102 Q206 61 221.5 44.5 Q237 28 258 28 Q285 28 304 53 L314 43 Q292 15 261.5 3 Q231 -9 199 -9 Q173 -9 149.5 -2 Q126 5 108 22 Q90 39 79 69 Q68 99 68 145 L68 707 L13 707 L13 727 L206 727 L206 102 Z M25 755 L152 896 Q167 913 183.5 923 Q200 933 221 933 Q244 933 255.5 920.5 Q267 908 267 891 Q267 874 256 861.5 Q245 849 219 835 L68 755 L25 755 Z " />
<glyph glyph-name="Lcommaaccent" unicode="&#x13b;" horiz-adv-x="616" d="M34 0 L34 21 L117 21 L117 676 L34 676 L34 697 L362 697 L362 676 L269 676 L269 21 L367 21 Q415 21 447 35.5 Q479 50 500 78.5 Q521 107 533 149 Q545 191 554 245 L577 245 L577 0 L34 0 Z M275 -239 Q299 -219 308 -204 Q317 -189 317 -177 Q317 -169 308 -163.5 Q299 -158 288.5 -150.5 Q278 -143 269.5 -132 Q261 -121 261 -101 Q261 -73 279 -58.5 Q297 -44 320 -44 Q343 -44 363 -60 Q383 -76 383 -109 Q383 -147 359 -186 Q335 -225 291 -257 L275 -239 Z " />
<glyph glyph-name="lcommaaccent" unicode="&#x13c;" horiz-adv-x="312" d="M206 102 Q206 61 221.5 44.5 Q237 28 258 28 Q285 28 304 53 L314 43 Q292 15 261.5 3 Q231 -9 199 -9 Q173 -9 149.5 -2 Q126 5 108 22 Q90 39 79 69 Q68 99 68 145 L68 707 L13 707 L13 727 L206 727 L206 102 Z M117 -239 Q141 -219 150 -204 Q159 -189 159 -177 Q159 -169 150 -163.5 Q141 -158 130.5 -150.5 Q120 -143 111.5 -132 Q103 -121 103 -101 Q103 -73 121 -58.5 Q139 -44 162 -44 Q185 -44 205 -60 Q225 -76 225 -109 Q225 -147 201 -186 Q177 -225 133 -257 L117 -239 Z " />
<glyph glyph-name="Lcaron" unicode="&#x13d;" horiz-adv-x="616" d="M34 0 L34 21 L117 21 L117 676 L34 676 L34 697 L362 697 L362 676 L269 676 L269 21 L367 21 Q415 21 447 35.5 Q479 50 500 78.5 Q521 107 533 149 Q545 191 554 245 L577 245 L577 0 L34 0 Z M415 503 Q439 523 449 542 Q459 561 459 575 Q459 585 450 591 Q441 597 430.5 604.5 Q420 612 411.5 622.5 Q403 633 403 653 Q403 681 421 695.5 Q439 710 462 710 Q485 710 505 694 Q525 678 525 645 Q525 626 518.5 605 Q512 584 500 562.5 Q488 541 470.5 521 Q453 501 431 485 L415 503 Z " />
<glyph glyph-name="lcaron" unicode="&#x13e;" horiz-adv-x="389" d="M206 102 Q206 61 221.5 44.5 Q237 28 258 28 Q285 28 304 53 L314 43 Q292 15 261.5 3 Q231 -9 199 -9 Q173 -9 149.5 -2 Q126 5 108 22 Q90 39 79 69 Q68 99 68 145 L68 707 L13 707 L13 727 L206 727 L206 102 Z M289 529 Q313 549 323 568 Q333 587 333 601 Q333 611 324 617 Q315 623 304.5 630.5 Q294 638 285.5 648.5 Q277 659 277 679 Q277 707 295 721.5 Q313 736 336 736 Q359 736 379 720 Q399 704 399 671 Q399 652 392.5 631 Q386 610 374 588.5 Q362 567 344.5 547 Q327 527 305 511 L289 529 Z " />
<glyph glyph-name="Ldot" unicode="&#x13f;" horiz-adv-x="616" d="M34 0 L34 21 L117 21 L117 676 L34 676 L34 697 L362 697 L362 676 L269 676 L269 21 L367 21 Q415 21 447 35.5 Q479 50 500 78.5 Q521 107 533 149 Q545 191 554 245 L577 245 L577 0 L34 0 Z M567 376 Q567 348 547 328.5 Q527 309 500 309 Q471 309 452 328.5 Q433 348 433 376 Q433 403 452 422.5 Q471 442 500 442 Q527 442 547 422.5 Q567 403 567 376 Z " />
<glyph glyph-name="ldot" unicode="&#x140;" horiz-adv-x="392" d="M206 102 Q206 61 221.5 44.5 Q237 28 258 28 Q285 28 304 53 L314 43 Q292 15 261.5 3 Q231 -9 199 -9 Q173 -9 149.5 -2 Q126 5 108 22 Q90 39 79 69 Q68 99 68 145 L68 707 L13 707 L13 727 L206 727 L206 102 Z M397 363 Q397 335 377 315.5 Q357 296 330 296 Q301 296 282 315.5 Q263 335 263 363 Q263 390 282 409.5 Q301 429 330 429 Q357 429 377 409.5 Q397 390 397 363 Z " />
<glyph glyph-name="Lslash" unicode="&#x141;" horiz-adv-x="621" d="M37 0 L37 21 L119 21 L119 290 L29 259 L29 289 L119 320 L119 676 L37 676 L37 697 L365 697 L365 676 L271 676 L271 372 L479 445 L479 415 L271 342 L271 21 L369 21 Q417 21 449 35.5 Q481 50 502 78.5 Q523 107 535 149 Q547 191 556 245 L579 245 L579 0 L37 0 Z " />
<glyph glyph-name="lslash" unicode="&#x142;" horiz-adv-x="333" d="M11 308 L72 335 L72 707 L17 707 L17 727 L210 727 L210 395 L296 434 L296 409 L210 370 L210 102 Q210 61 226 44.5 Q242 28 262 28 Q289 28 308 53 L318 43 Q296 15 266 3 Q236 -9 204 -9 Q178 -9 154 -2 Q130 5 112 22 Q94 39 83 69 Q72 99 72 145 L72 310 L11 283 L11 308 Z " />
<glyph glyph-name="Nacute" unicode="&#x143;" horiz-adv-x="755" d="M619 676 L533 676 L533 697 L728 697 L728 676 L646 676 L646 0 L543 0 L143 674 L143 21 L229 21 L229 0 L35 0 L35 21 L117 21 L117 676 L35 676 L35 697 L312 697 L619 166 L619 676 Z M277 757 L404 898 Q419 915 435.5 925 Q452 935 473 935 Q496 935 507.5 922.5 Q519 910 519 893 Q519 876 508 863.5 Q497 851 471 837 L320 757 L277 757 Z " />
<glyph glyph-name="nacute" unicode="&#x144;" horiz-adv-x="613" d="M492 -9 Q447 -9 417.5 18 Q388 45 388 108 L388 330 Q388 433 317 433 Q275 433 250 402 Q225 371 225 323 L225 20 L279 20 L279 0 L32 0 L32 20 L87 20 L87 441 L32 441 L32 461 L223 461 L223 391 Q229 403 241 417 Q253 431 271 443 Q289 455 313.5 463 Q338 471 369 471 Q414 471 444 458 Q474 445 492.5 423.5 Q511 402 518.5 373 Q526 344 526 311 L526 75 Q526 55 534.5 44 Q543 33 557 33 Q573 33 585 50 L596 38 Q557 -9 492 -9 Z M195 521 L322 662 Q337 679 353.5 689 Q370 699 391 699 Q414 699 425.5 686.5 Q437 674 437 657 Q437 640 426 627.5 Q415 615 389 601 L238 521 L195 521 Z " />
<glyph glyph-name="Ncommaaccent" unicode="&#x145;" horiz-adv-x="755" d="M619 676 L533 676 L533 697 L728 697 L728 676 L646 676 L646 0 L543 0 L143 674 L143 21 L229 21 L229 0 L35 0 L35 21 L117 21 L117 676 L35 676 L35 697 L312 697 L619 166 L619 676 Z M338 -239 Q362 -219 371 -204 Q380 -189 380 -177 Q380 -169 371 -163.5 Q362 -158 351.5 -150.5 Q341 -143 332.5 -132 Q324 -121 324 -101 Q324 -73 342 -58.5 Q360 -44 383 -44 Q406 -44 426 -60 Q446 -76 446 -109 Q446 -147 422 -186 Q398 -225 354 -257 L338 -239 Z " />
<glyph glyph-name="ncommaaccent" unicode="&#x146;" horiz-adv-x="613" d="M492 -9 Q447 -9 417.5 18 Q388 45 388 108 L388 330 Q388 433 317 433 Q275 433 250 402 Q225 371 225 323 L225 20 L279 20 L279 0 L32 0 L32 20 L87 20 L87 441 L32 441 L32 461 L223 461 L223 391 Q229 403 241 417 Q253 431 271 443 Q289 455 313.5 463 Q338 471 369 471 Q414 471 444 458 Q474 445 492.5 423.5 Q511 402 518.5 373 Q526 344 526 311 L526 75 Q526 55 534.5 44 Q543 33 557 33 Q573 33 585 50 L596 38 Q557 -9 492 -9 Z M282 -239 Q306 -219 315 -204 Q324 -189 324 -177 Q324 -169 315 -163.5 Q306 -158 295.5 -150.5 Q285 -143 276.5 -132 Q268 -121 268 -101 Q268 -73 286 -58.5 Q304 -44 327 -44 Q350 -44 370 -60 Q390 -76 390 -109 Q390 -147 366 -186 Q342 -225 298 -257 L282 -239 Z " />
<glyph glyph-name="Ncaron" unicode="&#x147;" horiz-adv-x="755" d="M619 676 L533 676 L533 697 L728 697 L728 676 L646 676 L646 0 L543 0 L143 674 L143 21 L229 21 L229 0 L35 0 L35 21 L117 21 L117 676 L35 676 L35 697 L312 697 L619 166 L619 676 Z M545 919 L416 757 L360 757 L228 919 L251 933 L388 846 L522 934 L545 919 Z " />
<glyph glyph-name="ncaron" unicode="&#x148;" horiz-adv-x="613" d="M492 -9 Q447 -9 417.5 18 Q388 45 388 108 L388 330 Q388 433 317 433 Q275 433 250 402 Q225 371 225 323 L225 20 L279 20 L279 0 L32 0 L32 20 L87 20 L87 441 L32 441 L32 461 L223 461 L223 391 Q229 403 241 417 Q253 431 271 443 Q289 455 313.5 463 Q338 471 369 471 Q414 471 444 458 Q474 445 492.5 423.5 Q511 402 518.5 373 Q526 344 526 311 L526 75 Q526 55 534.5 44 Q543 33 557 33 Q573 33 585 50 L596 38 Q557 -9 492 -9 Z M467 683 L338 521 L282 521 L150 683 L173 697 L310 610 L444 698 L467 683 Z " />
<glyph glyph-name="Omacron" unicode="&#x14c;" horiz-adv-x="756" d="M378 710 Q454 710 516 681.5 Q578 653 622 603.5 Q666 554 689.5 487 Q713 420 713 343 Q713 263 689.5 198.5 Q666 134 622 87.5 Q578 41 516 16 Q454 -9 378 -9 Q302 -9 240 16 Q178 41 134.5 87.5 Q91 134 67 198.5 Q43 263 43 343 Q43 420 67 487 Q91 554 134.5 603.5 Q178 653 240 681.5 Q302 710 378 710 Z M378 14 Q420 14 452 37.5 Q484 61 505.5 103.5 Q527 146 537.5 207 Q548 268 548 343 Q548 420 538 483.5 Q528 547 507.5 592 Q487 637 455 662 Q423 687 378 687 Q334 687 302 662 Q270 637 249.5 592 Q229 547 219 483.5 Q209 420 209 343 Q209 268 219.5 207 Q230 146 251 103.5 Q272 61 304 37.5 Q336 14 378 14 Z M230 786 L230 858 L527 858 L527 786 L230 786 Z " />
<glyph glyph-name="omacron" unicode="&#x14d;" horiz-adv-x="558" d="M279 471 Q337 471 382 452 Q427 433 457.5 400.5 Q488 368 504 324.5 Q520 281 520 233 Q520 185 504 141.5 Q488 98 457 64.5 Q426 31 381.5 11 Q337 -9 279 -9 Q221 -9 176 11 Q131 31 100.5 64.5 Q70 98 54 141.5 Q38 185 38 233 Q38 281 54 324.5 Q70 368 100.5 400.5 Q131 433 176 452 Q221 471 279 471 Z M279 12 Q309 12 328 28 Q347 44 357.5 73.5 Q368 103 372 143.5 Q376 184 376 233 Q376 339 351.5 395 Q327 451 279 451 Q231 451 206 395 Q181 339 181 233 Q181 184 185 143.5 Q189 103 200 73.5 Q211 44 230 28 Q249 12 279 12 Z M130 550 L130 622 L427 622 L427 550 L130 550 Z " />
<glyph glyph-name="Obreve" unicode="&#x14e;" horiz-adv-x="756" d="M378 710 Q454 710 516 681.5 Q578 653 622 603.5 Q666 554 689.5 487 Q713 420 713 343 Q713 263 689.5 198.5 Q666 134 622 87.5 Q578 41 516 16 Q454 -9 378 -9 Q302 -9 240 16 Q178 41 134.5 87.5 Q91 134 67 198.5 Q43 263 43 343 Q43 420 67 487 Q91 554 134.5 603.5 Q178 653 240 681.5 Q302 710 378 710 Z M378 14 Q420 14 452 37.5 Q484 61 505.5 103.5 Q527 146 537.5 207 Q548 268 548 343 Q548 420 538 483.5 Q528 547 507.5 592 Q487 637 455 662 Q423 687 378 687 Q334 687 302 662 Q270 637 249.5 592 Q229 547 219 483.5 Q209 420 209 343 Q209 268 219.5 207 Q230 146 251 103.5 Q272 61 304 37.5 Q336 14 378 14 Z M378 838 Q427 838 458.5 862 Q490 886 501 922 L528 922 Q527 891 518 861.5 Q509 832 491 809 Q473 786 445 772 Q417 758 378 758 Q339 758 311.5 772 Q284 786 266 809 Q248 832 239 861.5 Q230 891 229 922 L256 922 Q265 886 297 862 Q329 838 378 838 Z " />
<glyph glyph-name="obreve" unicode="&#x14f;" horiz-adv-x="558" d="M279 471 Q337 471 382 452 Q427 433 457.5 400.5 Q488 368 504 324.5 Q520 281 520 233 Q520 185 504 141.5 Q488 98 457 64.5 Q426 31 381.5 11 Q337 -9 279 -9 Q221 -9 176 11 Q131 31 100.5 64.5 Q70 98 54 141.5 Q38 185 38 233 Q38 281 54 324.5 Q70 368 100.5 400.5 Q131 433 176 452 Q221 471 279 471 Z M279 12 Q309 12 328 28 Q347 44 357.5 73.5 Q368 103 372 143.5 Q376 184 376 233 Q376 339 351.5 395 Q327 451 279 451 Q231 451 206 395 Q181 339 181 233 Q181 184 185 143.5 Q189 103 200 73.5 Q211 44 230 28 Q249 12 279 12 Z M278 602 Q327 602 358.5 626 Q390 650 401 686 L428 686 Q427 655 418 625.5 Q409 596 391 573 Q373 550 345 536 Q317 522 278 522 Q239 522 211.5 536 Q184 550 166 573 Q148 596 139 625.5 Q130 655 129 686 L156 686 Q165 650 197 626 Q229 602 278 602 Z " />
<glyph glyph-name="Ohungarumlaut" unicode="&#x150;" horiz-adv-x="756" d="M378 710 Q454 710 516 681.5 Q578 653 622 603.5 Q666 554 689.5 487 Q713 420 713 343 Q713 263 689.5 198.5 Q666 134 622 87.5 Q578 41 516 16 Q454 -9 378 -9 Q302 -9 240 16 Q178 41 134.5 87.5 Q91 134 67 198.5 Q43 263 43 343 Q43 420 67 487 Q91 554 134.5 603.5 Q178 653 240 681.5 Q302 710 378 710 Z M378 14 Q420 14 452 37.5 Q484 61 505.5 103.5 Q527 146 537.5 207 Q548 268 548 343 Q548 420 538 483.5 Q528 547 507.5 592 Q487 637 455 662 Q423 687 378 687 Q334 687 302 662 Q270 637 249.5 592 Q229 547 219 483.5 Q209 420 209 343 Q209 268 219.5 207 Q230 146 251 103.5 Q272 61 304 37.5 Q336 14 378 14 Z M360 898 Q376 915 390.5 925 Q405 935 425 935 Q444 935 456.5 923.5 Q469 912 469 893 Q469 876 457.5 864.5 Q446 853 421 839 L277 757 L223 757 L360 898 Z M535 898 Q551 915 565.5 925 Q580 935 600 935 Q618 935 631 923.5 Q644 912 644 893 Q644 876 632.5 864.5 Q621 853 595 839 L452 757 L398 757 L535 898 Z " />
<glyph glyph-name="ohungarumlaut" unicode="&#x151;" horiz-adv-x="558" d="M279 471 Q337 471 382 452 Q427 433 457.5 400.5 Q488 368 504 324.5 Q520 281 520 233 Q520 185 504 141.5 Q488 98 457 64.5 Q426 31 381.5 11 Q337 -9 279 -9 Q221 -9 176 11 Q131 31 100.5 64.5 Q70 98 54 141.5 Q38 185 38 233 Q38 281 54 324.5 Q70 368 100.5 400.5 Q131 433 176 452 Q221 471 279 471 Z M279 12 Q309 12 328 28 Q347 44 357.5 73.5 Q368 103 372 143.5 Q376 184 376 233 Q376 339 351.5 395 Q327 451 279 451 Q231 451 206 395 Q181 339 181 233 Q181 184 185 143.5 Q189 103 200 73.5 Q211 44 230 28 Q249 12 279 12 Z M241 662 Q257 679 271.5 689 Q286 699 306 699 Q325 699 337.5 687.5 Q350 676 350 657 Q350 640 338.5 628.5 Q327 617 302 603 L158 521 L104 521 L241 662 Z M416 662 Q432 679 446.5 689 Q461 699 481 699 Q499 699 512 687.5 Q525 676 525 657 Q525 640 513.5 628.5 Q502 617 476 603 L333 521 L279 521 L416 662 Z " />
<glyph glyph-name="OE" unicode="&#x152;" horiz-adv-x="1061" d="M858 697 Q935 697 972.5 664.5 Q1010 632 1010 584 Q1010 542 985.5 518.5 Q961 495 919 495 Q893 495 877.5 503 Q862 511 851 522 L945 646 Q931 663 906.5 669.5 Q882 676 850 676 L683 676 L683 362 L859 362 L859 341 L683 341 L683 21 L794 21 Q848 21 881.5 34 Q915 47 936 72.5 Q957 98 968.5 134.5 Q980 171 989 218 L1011 218 L1011 0 L531 0 L531 50 Q506 25 462 8 Q418 -9 361 -9 Q292 -9 234.5 17 Q177 43 135.5 89.5 Q94 136 71 200.5 Q48 265 48 341 Q48 417 72.5 484 Q97 551 139.5 601.5 Q182 652 240 681 Q298 710 365 710 Q421 710 463 693.5 Q505 677 531 654 L531 697 L858 697 Z M213 341 Q213 185 252 103 Q291 21 372 21 Q453 21 492 99 Q531 177 531 342 Q531 507 492 594.5 Q453 682 372 682 Q291 682 252 594.5 Q213 507 213 341 Z " />
<glyph glyph-name="oe" unicode="&#x153;" horiz-adv-x="816" d="M660 25 Q697 25 725.5 38.5 Q754 52 783 81 L794 67 Q763 34 719.5 12.5 Q676 -9 608 -9 Q560 -9 516 10 Q472 29 443 62 Q416 30 373.5 10.5 Q331 -9 278 -9 Q221 -9 176 11 Q131 31 100.5 64 Q70 97 54 140.5 Q38 184 38 232 Q38 281 55.5 325 Q73 369 104.5 401 Q136 433 181 452 Q226 471 280 471 Q328 471 369.5 452.5 Q411 434 449 400 Q480 434 521 452.5 Q562 471 613 471 Q655 471 687.5 461 Q720 451 742.5 433 Q765 415 777 391 Q789 367 789 339 Q789 304 774 278 Q759 252 734 235 Q709 218 675.5 210 Q642 202 606 202 Q583 202 560.5 205 Q538 208 520 215 Q521 164 533 128 Q545 92 564 69 Q583 46 608 35.5 Q633 25 660 25 Z M279 12 Q309 12 328 28 Q347 44 357.5 73.5 Q368 103 372 143.5 Q376 184 376 233 Q376 339 351.5 395 Q327 451 279 451 Q231 451 206 395 Q181 339 181 233 Q181 184 185 143.5 Q189 103 200 73.5 Q211 44 230 28 Q249 12 279 12 Z M607 451 Q575 451 551.5 409 Q528 367 522 295 Q520 278 520 265.5 Q520 253 520 235 Q550 226 581 226 Q618 226 642 252.5 Q666 279 666 344 Q666 394 649 422.5 Q632 451 607 451 Z " />
<glyph glyph-name="Racute" unicode="&#x154;" horiz-adv-x="728" d="M624 523 Q624 493 614.5 466 Q605 439 584 416.5 Q563 394 529.5 378 Q496 362 447 355 Q521 345 565 305 Q609 265 619 179 L623 140 Q628 86 641.5 65.5 Q655 45 675 45 Q689 45 696.5 51.5 Q704 58 710 72 L725 60 Q710 31 680.5 11 Q651 -9 606 -9 Q580 -9 557 -2 Q534 5 516 23.5 Q498 42 485.5 73.5 Q473 105 466 153 L460 196 Q455 232 447.5 259.5 Q440 287 425.5 305.5 Q411 324 389.5 333 Q368 342 336 342 L269 342 L269 21 L355 21 L355 0 L35 0 L35 21 L117 21 L117 676 L35 676 L35 697 L366 697 Q441 697 491 682.5 Q541 668 570.5 644 Q600 620 612 588.5 Q624 557 624 523 Z M269 676 L269 364 L327 364 Q395 364 431.5 400.5 Q468 437 468 521 Q468 605 431 640.5 Q394 676 321 676 L269 676 Z M245 757 L372 898 Q387 915 403.5 925 Q420 935 441 935 Q464 935 475.5 922.5 Q487 910 487 893 Q487 876 476 863.5 Q465 851 439 837 L288 757 L245 757 Z " />
<glyph glyph-name="racute" unicode="&#x155;" horiz-adv-x="466" d="M341 471 Q387 471 417.5 444.5 Q448 418 448 373 Q448 332 423 309 Q398 286 363 286 Q337 286 320 296 Q303 306 295 317 L396 423 Q386 436 371 443 Q356 450 333 450 Q281 450 252 408.5 Q223 367 223 301 L223 20 L295 20 L295 0 L29 0 L29 20 L85 20 L85 441 L29 441 L29 461 L221 461 L221 393 Q236 429 266 450 Q296 471 341 471 Z M132 521 L259 662 Q274 679 290.5 689 Q307 699 328 699 Q351 699 362.5 686.5 Q374 674 374 657 Q374 640 363 627.5 Q352 615 326 601 L175 521 L132 521 Z " />
<glyph glyph-name="Rcommaaccent" unicode="&#x156;" horiz-adv-x="728" d="M624 523 Q624 493 614.5 466 Q605 439 584 416.5 Q563 394 529.5 378 Q496 362 447 355 Q521 345 565 305 Q609 265 619 179 L623 140 Q628 86 641.5 65.5 Q655 45 675 45 Q689 45 696.5 51.5 Q704 58 710 72 L725 60 Q710 31 680.5 11 Q651 -9 606 -9 Q580 -9 557 -2 Q534 5 516 23.5 Q498 42 485.5 73.5 Q473 105 466 153 L460 196 Q455 232 447.5 259.5 Q440 287 425.5 305.5 Q411 324 389.5 333 Q368 342 336 342 L269 342 L269 21 L355 21 L355 0 L35 0 L35 21 L117 21 L117 676 L35 676 L35 697 L366 697 Q441 697 491 682.5 Q541 668 570.5 644 Q600 620 612 588.5 Q624 557 624 523 Z M269 676 L269 364 L327 364 Q395 364 431.5 400.5 Q468 437 468 521 Q468 605 431 640.5 Q394 676 321 676 L269 676 Z M345 -239 Q369 -219 378 -204 Q387 -189 387 -177 Q387 -169 378 -163.5 Q369 -158 358.5 -150.5 Q348 -143 339.5 -132 Q331 -121 331 -101 Q331 -73 349 -58.5 Q367 -44 390 -44 Q413 -44 433 -60 Q453 -76 453 -109 Q453 -147 429 -186 Q405 -225 361 -257 L345 -239 Z " />
<glyph glyph-name="rcommaaccent" unicode="&#x157;" horiz-adv-x="466" d="M341 471 Q387 471 417.5 444.5 Q448 418 448 373 Q448 332 423 309 Q398 286 363 286 Q337 286 320 296 Q303 306 295 317 L396 423 Q386 436 371 443 Q356 450 333 450 Q281 450 252 408.5 Q223 367 223 301 L223 20 L295 20 L295 0 L29 0 L29 20 L85 20 L85 441 L29 441 L29 461 L221 461 L221 393 Q236 429 266 450 Q296 471 341 471 Z M106 -239 Q130 -219 139 -204 Q148 -189 148 -177 Q148 -169 139 -163.5 Q130 -158 119.5 -150.5 Q109 -143 100.5 -132 Q92 -121 92 -101 Q92 -73 110 -58.5 Q128 -44 151 -44 Q174 -44 194 -60 Q214 -76 214 -109 Q214 -147 190 -186 Q166 -225 122 -257 L106 -239 Z " />
<glyph glyph-name="Rcaron" unicode="&#x158;" horiz-adv-x="728" d="M624 523 Q624 493 614.5 466 Q605 439 584 416.5 Q563 394 529.5 378 Q496 362 447 355 Q521 345 565 305 Q609 265 619 179 L623 140 Q628 86 641.5 65.5 Q655 45 675 45 Q689 45 696.5 51.5 Q704 58 710 72 L725 60 Q710 31 680.5 11 Q651 -9 606 -9 Q580 -9 557 -2 Q534 5 516 23.5 Q498 42 485.5 73.5 Q473 105 466 153 L460 196 Q455 232 447.5 259.5 Q440 287 425.5 305.5 Q411 324 389.5 333 Q368 342 336 342 L269 342 L269 21 L355 21 L355 0 L35 0 L35 21 L117 21 L117 676 L35 676 L35 697 L366 697 Q441 697 491 682.5 Q541 668 570.5 644 Q600 620 612 588.5 Q624 557 624 523 Z M269 676 L269 364 L327 364 Q395 364 431.5 400.5 Q468 437 468 521 Q468 605 431 640.5 Q394 676 321 676 L269 676 Z M512 919 L383 757 L327 757 L195 919 L218 933 L355 846 L489 934 L512 919 Z " />
<glyph glyph-name="rcaron" unicode="&#x159;" horiz-adv-x="466" d="M341 471 Q387 471 417.5 444.5 Q448 418 448 373 Q448 332 423 309 Q398 286 363 286 Q337 286 320 296 Q303 306 295 317 L396 423 Q386 436 371 443 Q356 450 333 450 Q281 450 252 408.5 Q223 367 223 301 L223 20 L295 20 L295 0 L29 0 L29 20 L85 20 L85 441 L29 441 L29 461 L221 461 L221 393 Q236 429 266 450 Q296 471 341 471 Z M399 683 L270 521 L214 521 L82 683 L105 697 L242 610 L376 698 L399 683 Z " />
<glyph glyph-name="Sacute" unicode="&#x15a;" horiz-adv-x="586" d="M302 710 Q359 710 400 696.5 Q441 683 467.5 662 Q494 641 506.5 615.5 Q519 590 519 566 Q519 528 496.5 506 Q474 484 441 484 Q416 484 399 493.5 Q382 503 373 515 L468 624 Q443 653 404.5 669.5 Q366 686 315 686 Q255 686 216 658 Q177 630 177 581 Q177 535 211 502 Q245 469 329 435 Q388 412 429 388 Q470 364 496 337 Q522 310 533.5 279 Q545 248 545 212 Q545 159 522 118 Q499 77 461 49 Q423 21 372 6 Q321 -9 266 -9 Q215 -9 174.5 3 Q134 15 106 35 Q78 55 63 81 Q48 107 48 134 Q48 174 71.5 195.5 Q95 217 126 217 Q152 217 169.5 207.5 Q187 198 197 185 L105 74 Q134 47 172 32 Q210 17 268 17 Q297 17 325 25 Q353 33 375 49 Q397 65 410.5 89 Q424 113 424 145 Q424 165 417 184.5 Q410 204 390.5 224.5 Q371 245 336 266.5 Q301 288 244 312 Q196 332 160.5 352.5 Q125 373 101.5 397 Q78 421 66.5 450 Q55 479 55 516 Q55 560 74 595.5 Q93 631 126 656.5 Q159 682 204 696 Q249 710 302 710 Z M193 757 L320 898 Q335 915 351.5 925 Q368 935 389 935 Q412 935 423.5 922.5 Q435 910 435 893 Q435 876 424 863.5 Q413 851 387 837 L236 757 L193 757 Z " />
<glyph glyph-name="sacute" unicode="&#x15b;" horiz-adv-x="430" d="M223 471 Q300 471 339.5 442 Q379 413 379 377 Q379 348 362 332.5 Q345 317 322 317 Q302 317 288.5 324 Q275 331 269 338 L334 408 Q322 422 298 435 Q274 448 239 448 Q197 448 173 429.5 Q149 411 149 382 Q149 350 174.5 330 Q200 310 254 289 Q324 263 360 228.5 Q396 194 396 143 Q396 105 381 76.5 Q366 48 339.5 29 Q313 10 277.5 0.5 Q242 -9 200 -9 Q170 -9 141.5 -3.5 Q113 2 90 14 Q67 26 53 43.5 Q39 61 39 85 Q39 114 56.5 130.5 Q74 147 97 147 Q117 147 128.5 140 Q140 133 147 123 L81 52 Q101 33 130 24 Q159 15 188 15 Q230 15 259.5 33 Q289 51 289 84 Q289 99 283.5 112 Q278 125 264 137.5 Q250 150 227 162 Q204 174 169 188 Q40 237 40 327 Q40 396 91 433.5 Q142 471 223 471 Z M114 521 L241 662 Q256 679 272.5 689 Q289 699 310 699 Q333 699 344.5 686.5 Q356 674 356 657 Q356 640 345 627.5 Q334 615 308 601 L157 521 L114 521 Z " />
<glyph glyph-name="Scircumflex" unicode="&#x15c;" horiz-adv-x="586" d="M302 710 Q359 710 400 696.5 Q441 683 467.5 662 Q494 641 506.5 615.5 Q519 590 519 566 Q519 528 496.5 506 Q474 484 441 484 Q416 484 399 493.5 Q382 503 373 515 L468 624 Q443 653 404.5 669.5 Q366 686 315 686 Q255 686 216 658 Q177 630 177 581 Q177 535 211 502 Q245 469 329 435 Q388 412 429 388 Q470 364 496 337 Q522 310 533.5 279 Q545 248 545 212 Q545 159 522 118 Q499 77 461 49 Q423 21 372 6 Q321 -9 266 -9 Q215 -9 174.5 3 Q134 15 106 35 Q78 55 63 81 Q48 107 48 134 Q48 174 71.5 195.5 Q95 217 126 217 Q152 217 169.5 207.5 Q187 198 197 185 L105 74 Q134 47 172 32 Q210 17 268 17 Q297 17 325 25 Q353 33 375 49 Q397 65 410.5 89 Q424 113 424 145 Q424 165 417 184.5 Q410 204 390.5 224.5 Q371 245 336 266.5 Q301 288 244 312 Q196 332 160.5 352.5 Q125 373 101.5 397 Q78 421 66.5 450 Q55 479 55 516 Q55 560 74 595.5 Q93 631 126 656.5 Q159 682 204 696 Q249 710 302 710 Z M434 749 L294 838 L151 750 L132 762 L267 926 L321 926 L454 762 L434 749 Z " />
<glyph glyph-name="scircumflex" unicode="&#x15d;" horiz-adv-x="430" d="M223 471 Q300 471 339.5 442 Q379 413 379 377 Q379 348 362 332.5 Q345 317 322 317 Q302 317 288.5 324 Q275 331 269 338 L334 408 Q322 422 298 435 Q274 448 239 448 Q197 448 173 429.5 Q149 411 149 382 Q149 350 174.5 330 Q200 310 254 289 Q324 263 360 228.5 Q396 194 396 143 Q396 105 381 76.5 Q366 48 339.5 29 Q313 10 277.5 0.5 Q242 -9 200 -9 Q170 -9 141.5 -3.5 Q113 2 90 14 Q67 26 53 43.5 Q39 61 39 85 Q39 114 56.5 130.5 Q74 147 97 147 Q117 147 128.5 140 Q140 133 147 123 L81 52 Q101 33 130 24 Q159 15 188 15 Q230 15 259.5 33 Q289 51 289 84 Q289 99 283.5 112 Q278 125 264 137.5 Q250 150 227 162 Q204 174 169 188 Q40 237 40 327 Q40 396 91 433.5 Q142 471 223 471 Z M355 513 L215 602 L72 514 L53 526 L188 690 L242 690 L375 526 L355 513 Z " />
<glyph glyph-name="Scedilla" unicode="&#x15e;" horiz-adv-x="586" d="M274 -9 L266 -9 Q215 -9 174.5 3 Q134 15 106 35 Q78 55 63 81 Q48 107 48 134 Q48 174 71.5 195.5 Q95 217 126 217 Q152 217 169.5 207.5 Q187 198 197 185 L105 74 Q134 47 172 32 Q210 17 268 17 Q297 17 325 25 Q353 33 375 49 Q397 65 410.5 89 Q424 113 424 145 Q424 165 417 184.5 Q410 204 390.5 224.5 Q371 245 336 266.5 Q301 288 244 312 Q196 332 160.5 352.5 Q125 373 101.5 397 Q78 421 66.5 450 Q55 479 55 516 Q55 560 74 595.5 Q93 631 126 656.5 Q159 682 204 696 Q249 710 302 710 Q359 710 400 696.5 Q441 683 467.5 662 Q494 641 506.5 615.5 Q519 590 519 566 Q519 528 496.5 506 Q474 484 441 484 Q416 484 399 493.5 Q382 503 373 515 L468 624 Q443 653 404.5 669.5 Q366 686 315 686 Q255 686 216 658 Q177 630 177 581 Q177 535 211 502 Q245 469 329 435 Q388 412 429 388 Q470 364 496 337 Q522 310 533.5 279 Q545 248 545 212 Q545 164 525.5 125 Q506 86 472.5 58 Q439 30 394.5 13.5 Q350 -3 300 -7 L264 -75 Q269 -73 278.5 -72 Q288 -71 300 -71 Q338 -71 365 -91 Q392 -111 392 -146 Q392 -168 383 -184.5 Q374 -201 359 -212.5 Q344 -224 324.5 -229.5 Q305 -235 284 -235 Q246 -235 225 -220.5 Q204 -206 204 -183 Q204 -169 213 -160 Q222 -151 237 -151 Q253 -151 264 -163 L225 -203 Q229 -208 237 -212.5 Q245 -217 257 -217 Q279 -217 295.5 -202 Q312 -187 312 -150 Q312 -119 297 -105 Q282 -91 261 -91 Q249 -91 237 -96 L230 -91 L274 -9 Z " />
<glyph glyph-name="scedilla" unicode="&#x15f;" horiz-adv-x="430" d="M187 -9 Q159 -8 132.5 -1.5 Q106 5 85 16.5 Q64 28 51.5 45 Q39 62 39 85 Q39 114 56.5 130.5 Q74 147 97 147 Q117 147 128.5 140 Q140 133 147 123 L81 52 Q101 33 130 24 Q159 15 188 15 Q230 15 259.5 33 Q289 51 289 84 Q289 99 283.5 112 Q278 125 264 137.5 Q250 150 227 162 Q204 174 169 188 Q40 237 40 327 Q40 396 91 433.5 Q142 471 223 471 Q300 471 339.5 442 Q379 413 379 377 Q379 348 362 332.5 Q345 317 322 317 Q302 317 288.5 324 Q275 331 269 338 L334 408 Q322 422 298 435 Q274 448 239 448 Q197 448 173 429.5 Q149 411 149 382 Q149 350 174.5 330 Q200 310 254 289 Q324 263 360 228.5 Q396 194 396 143 Q396 106 382 78.5 Q368 51 343.5 32 Q319 13 285 2.5 Q251 -8 212 -9 L176 -75 Q181 -73 190.5 -72 Q200 -71 212 -71 Q250 -71 277 -91 Q304 -111 304 -146 Q304 -168 295 -184.5 Q286 -201 271 -212.5 Q256 -224 236.5 -229.5 Q217 -235 196 -235 Q158 -235 137 -220.5 Q116 -206 116 -183 Q116 -169 125 -160 Q134 -151 149 -151 Q165 -151 176 -163 L137 -203 Q141 -208 149 -212.5 Q157 -217 169 -217 Q191 -217 207.5 -202 Q224 -187 224 -150 Q224 -119 209 -105 Q194 -91 173 -91 Q161 -91 149 -96 L142 -91 L187 -9 Z " />
<glyph glyph-name="Scaron" unicode="&#x160;" horiz-adv-x="586" d="M302 710 Q359 710 400 696.5 Q441 683 467.5 662 Q494 641 506.5 615.5 Q519 590 519 566 Q519 528 496.5 506 Q474 484 441 484 Q416 484 399 493.5 Q382 503 373 515 L468 624 Q443 653 404.5 669.5 Q366 686 315 686 Q255 686 216 658 Q177 630 177 581 Q177 535 211 502 Q245 469 329 435 Q388 412 429 388 Q470 364 496 337 Q522 310 533.5 279 Q545 248 545 212 Q545 159 522 118 Q499 77 461 49 Q423 21 372 6 Q321 -9 266 -9 Q215 -9 174.5 3 Q134 15 106 35 Q78 55 63 81 Q48 107 48 134 Q48 174 71.5 195.5 Q95 217 126 217 Q152 217 169.5 207.5 Q187 198 197 185 L105 74 Q134 47 172 32 Q210 17 268 17 Q297 17 325 25 Q353 33 375 49 Q397 65 410.5 89 Q424 113 424 145 Q424 165 417 184.5 Q410 204 390.5 224.5 Q371 245 336 266.5 Q301 288 244 312 Q196 332 160.5 352.5 Q125 373 101.5 397 Q78 421 66.5 450 Q55 479 55 516 Q55 560 74 595.5 Q93 631 126 656.5 Q159 682 204 696 Q249 710 302 710 Z M461 919 L332 757 L276 757 L144 919 L167 933 L304 846 L438 934 L461 919 Z " />
<glyph glyph-name="scaron" unicode="&#x161;" horiz-adv-x="430" d="M223 471 Q300 471 339.5 442 Q379 413 379 377 Q379 348 362 332.5 Q345 317 322 317 Q302 317 288.5 324 Q275 331 269 338 L334 408 Q322 422 298 435 Q274 448 239 448 Q197 448 173 429.5 Q149 411 149 382 Q149 350 174.5 330 Q200 310 254 289 Q324 263 360 228.5 Q396 194 396 143 Q396 105 381 76.5 Q366 48 339.5 29 Q313 10 277.5 0.5 Q242 -9 200 -9 Q170 -9 141.5 -3.5 Q113 2 90 14 Q67 26 53 43.5 Q39 61 39 85 Q39 114 56.5 130.5 Q74 147 97 147 Q117 147 128.5 140 Q140 133 147 123 L81 52 Q101 33 130 24 Q159 15 188 15 Q230 15 259.5 33 Q289 51 289 84 Q289 99 283.5 112 Q278 125 264 137.5 Q250 150 227 162 Q204 174 169 188 Q40 237 40 327 Q40 396 91 433.5 Q142 471 223 471 Z M376 683 L247 521 L191 521 L59 683 L82 697 L219 610 L353 698 L376 683 Z " />
<glyph glyph-name="uni0162" unicode="&#x162;" horiz-adv-x="671" d="M636 697 L636 479 L615 479 L610 508 Q602 555 586 587.5 Q570 620 548 639.5 Q526 659 498 667.5 Q470 676 438 676 L411 676 L411 21 L497 21 L497 0 L173 0 L173 21 L259 21 L259 676 L232 676 Q198 676 169 667.5 Q140 659 118 639.5 Q96 620 81 587.5 Q66 555 60 508 L56 479 L34 479 L34 697 L636 697 Z M287 -239 Q311 -219 320 -204 Q329 -189 329 -177 Q329 -169 320 -163.5 Q311 -158 300.5 -150.5 Q290 -143 281.5 -132 Q273 -121 273 -101 Q273 -73 291 -58.5 Q309 -44 332 -44 Q355 -44 375 -60 Q395 -76 395 -109 Q395 -147 371 -186 Q347 -225 303 -257 L287 -239 Z " />
<glyph glyph-name="uni0163" unicode="&#x163;" horiz-adv-x="343" d="M341 44 Q318 17 285 4 Q252 -9 212 -9 Q183 -9 157.5 -1 Q132 7 113 26 Q94 45 83 75 Q72 105 72 150 L72 441 L21 441 L21 461 L42 461 Q69 461 92.5 472 Q116 483 134.5 502 Q153 521 166 545.5 Q179 570 186 596 L193 622 L210 622 L210 461 L325 461 L325 441 L210 441 L210 110 Q210 65 228.5 47.5 Q247 30 272 30 Q288 30 303.5 37 Q319 44 330 55 L341 44 Z M132 -239 Q156 -219 165 -204 Q174 -189 174 -177 Q174 -169 165 -163.5 Q156 -158 145.5 -150.5 Q135 -143 126.5 -132 Q118 -121 118 -101 Q118 -73 136 -58.5 Q154 -44 177 -44 Q200 -44 220 -60 Q240 -76 240 -109 Q240 -147 216 -186 Q192 -225 148 -257 L132 -239 Z " />
<glyph glyph-name="Tcaron" unicode="&#x164;" horiz-adv-x="671" d="M636 697 L636 479 L615 479 L610 508 Q602 555 586 587.5 Q570 620 548 639.5 Q526 659 498 667.5 Q470 676 438 676 L411 676 L411 21 L497 21 L497 0 L173 0 L173 21 L259 21 L259 676 L232 676 Q198 676 169 667.5 Q140 659 118 639.5 Q96 620 81 587.5 Q66 555 60 508 L56 479 L34 479 L34 697 L636 697 Z M494 919 L365 757 L309 757 L177 919 L200 933 L337 846 L471 934 L494 919 Z " />
<glyph glyph-name="tcaron" unicode="&#x165;" horiz-adv-x="343" d="M341 44 Q318 17 285 4 Q252 -9 212 -9 Q183 -9 157.5 -1 Q132 7 113 26 Q94 45 83 75 Q72 105 72 150 L72 441 L21 441 L21 461 L42 461 Q69 461 92.5 472 Q116 483 134.5 502 Q153 521 166 545.5 Q179 570 186 596 L193 622 L210 622 L210 461 L325 461 L325 441 L210 441 L210 110 Q210 65 228.5 47.5 Q247 30 272 30 Q288 30 303.5 37 Q319 44 330 55 L341 44 Z M267 529 Q291 549 301 568 Q311 587 311 601 Q311 611 302 617 Q293 623 282.5 630.5 Q272 638 263.5 648.5 Q255 659 255 679 Q255 707 273 721.5 Q291 736 314 736 Q337 736 357 720 Q377 704 377 671 Q377 652 370.5 631 Q364 610 352 588.5 Q340 567 322.5 547 Q305 527 283 511 L267 529 Z " />
<glyph glyph-name="Tbar" unicode="&#x166;" horiz-adv-x="671" d="M636 697 L636 479 L615 479 L610 508 Q602 555 586 587.5 Q570 620 548 639.5 Q526 659 498.5 667.5 Q471 676 439 676 L411 676 L411 346 L561 346 L561 324 L411 324 L411 21 L497 21 L497 0 L173 0 L173 21 L259 21 L259 324 L109 324 L109 346 L259 346 L259 676 L232 676 Q198 676 169 667.5 Q140 659 118 639.5 Q96 620 81 587.5 Q66 555 60 508 L56 479 L34 479 L34 697 L636 697 Z " />
<glyph glyph-name="tbar" unicode="&#x167;" horiz-adv-x="343" d="M341 44 Q318 17 285 4 Q252 -9 212 -9 Q183 -9 157.5 -1 Q132 7 113 26 Q94 45 83 75 Q72 105 72 150 L72 241 L21 241 L21 261 L72 261 L72 441 L21 441 L21 461 L42 461 Q69 461 92.5 472 Q116 483 134.5 502 Q153 521 166 545.5 Q179 570 186 596 L193 622 L210 622 L210 461 L325 461 L325 441 L210 441 L210 261 L325 261 L325 241 L210 241 L210 110 Q210 65 228.5 47.5 Q247 30 272 30 Q288 30 303.5 37 Q319 44 330 55 L341 44 Z " />
<glyph glyph-name="Utilde" unicode="&#x168;" horiz-adv-x="736" d="M354 697 L354 676 L268 676 L268 223 Q268 167 282 129 Q296 91 319 68 Q342 45 370.5 35.5 Q399 26 429 26 Q507 26 556.5 78 Q606 130 606 234 L606 676 L520 676 L520 697 L715 697 L715 676 L634 676 L634 246 Q634 128 573.5 59.5 Q513 -9 390 -9 Q257 -9 186.5 55.5 Q116 120 116 257 L116 676 L30 676 L30 697 L354 697 Z M565 902 Q560 845 530 809 Q500 773 449 773 Q427 773 406.5 780 Q386 787 366.5 796 Q347 805 327.5 812 Q308 819 289 819 Q272 819 252.5 809.5 Q233 800 224 771 L209 771 Q214 825 245 861.5 Q276 898 325 898 Q347 898 368 891 Q389 884 409 875.5 Q429 867 448 860 Q467 853 486 853 Q506 853 523.5 864 Q541 875 551 902 L565 902 Z " />
<glyph glyph-name="utilde" unicode="&#x169;" horiz-adv-x="598" d="M473 -9 Q437 -9 409.5 9 Q382 27 374 69 Q368 58 356.5 44.5 Q345 31 327.5 19 Q310 7 286.5 -1 Q263 -9 233 -9 Q188 -9 157.5 3.5 Q127 16 108.5 38 Q90 60 82.5 89 Q75 118 75 151 L75 441 L20 441 L20 461 L213 461 L213 132 Q213 110 216 91.5 Q219 73 226.5 59 Q234 45 247.5 37 Q261 29 282 29 Q322 29 345.5 60.5 Q369 92 369 142 L369 441 L315 441 L315 461 L507 461 L507 75 Q507 55 515.5 44 Q524 33 538 33 Q555 33 567 50 L577 38 Q559 15 532.5 3 Q506 -9 473 -9 Z M477 666 Q472 609 442 573 Q412 537 361 537 Q339 537 318.5 544 Q298 551 278.5 560 Q259 569 239.5 576 Q220 583 201 583 Q184 583 165.5 573.5 Q147 564 138 535 L121 535 Q126 589 157 625.5 Q188 662 237 662 Q259 662 280 655 Q301 648 321 639.5 Q341 631 360 624 Q379 617 398 617 Q418 617 434.5 628 Q451 639 461 666 L477 666 Z " />
<glyph glyph-name="Umacron" unicode="&#x16a;" horiz-adv-x="736" d="M354 697 L354 676 L268 676 L268 223 Q268 167 282 129 Q296 91 319 68 Q342 45 370.5 35.5 Q399 26 429 26 Q507 26 556.5 78 Q606 130 606 234 L606 676 L520 676 L520 697 L715 697 L715 676 L634 676 L634 246 Q634 128 573.5 59.5 Q513 -9 390 -9 Q257 -9 186.5 55.5 Q116 120 116 257 L116 676 L30 676 L30 697 L354 697 Z M229 786 L229 858 L526 858 L526 786 L229 786 Z " />
<glyph glyph-name="umacron" unicode="&#x16b;" horiz-adv-x="598" d="M473 -9 Q437 -9 409.5 9 Q382 27 374 69 Q368 58 356.5 44.5 Q345 31 327.5 19 Q310 7 286.5 -1 Q263 -9 233 -9 Q188 -9 157.5 3.5 Q127 16 108.5 38 Q90 60 82.5 89 Q75 118 75 151 L75 441 L20 441 L20 461 L213 461 L213 132 Q213 110 216 91.5 Q219 73 226.5 59 Q234 45 247.5 37 Q261 29 282 29 Q322 29 345.5 60.5 Q369 92 369 142 L369 441 L315 441 L315 461 L507 461 L507 75 Q507 55 515.5 44 Q524 33 538 33 Q555 33 567 50 L577 38 Q559 15 532.5 3 Q506 -9 473 -9 Z M150 550 L150 622 L447 622 L447 550 L150 550 Z " />
<glyph glyph-name="Ubreve" unicode="&#x16c;" horiz-adv-x="736" d="M354 697 L354 676 L268 676 L268 223 Q268 167 282 129 Q296 91 319 68 Q342 45 370.5 35.5 Q399 26 429 26 Q507 26 556.5 78 Q606 130 606 234 L606 676 L520 676 L520 697 L715 697 L715 676 L634 676 L634 246 Q634 128 573.5 59.5 Q513 -9 390 -9 Q257 -9 186.5 55.5 Q116 120 116 257 L116 676 L30 676 L30 697 L354 697 Z M379 838 Q428 838 459.5 862 Q491 886 502 922 L529 922 Q528 891 519 861.5 Q510 832 492 809 Q474 786 446 772 Q418 758 379 758 Q340 758 312.5 772 Q285 786 267 809 Q249 832 240 861.5 Q231 891 230 922 L257 922 Q266 886 298 862 Q330 838 379 838 Z " />
<glyph glyph-name="ubreve" unicode="&#x16d;" horiz-adv-x="598" d="M473 -9 Q437 -9 409.5 9 Q382 27 374 69 Q368 58 356.5 44.5 Q345 31 327.5 19 Q310 7 286.5 -1 Q263 -9 233 -9 Q188 -9 157.5 3.5 Q127 16 108.5 38 Q90 60 82.5 89 Q75 118 75 151 L75 441 L20 441 L20 461 L213 461 L213 132 Q213 110 216 91.5 Q219 73 226.5 59 Q234 45 247.5 37 Q261 29 282 29 Q322 29 345.5 60.5 Q369 92 369 142 L369 441 L315 441 L315 461 L507 461 L507 75 Q507 55 515.5 44 Q524 33 538 33 Q555 33 567 50 L577 38 Q559 15 532.5 3 Q506 -9 473 -9 Z M298 602 Q347 602 378.5 626 Q410 650 421 686 L448 686 Q447 655 438 625.5 Q429 596 411 573 Q393 550 365 536 Q337 522 298 522 Q259 522 231.5 536 Q204 550 186 573 Q168 596 159 625.5 Q150 655 149 686 L176 686 Q185 650 217 626 Q249 602 298 602 Z " />
<glyph glyph-name="Uring" unicode="&#x16e;" horiz-adv-x="736" d="M354 697 L354 676 L268 676 L268 223 Q268 167 282 129 Q296 91 319 68 Q342 45 370.5 35.5 Q399 26 429 26 Q507 26 556.5 78 Q606 130 606 234 L606 676 L520 676 L520 697 L715 697 L715 676 L634 676 L634 246 Q634 128 573.5 59.5 Q513 -9 390 -9 Q257 -9 186.5 55.5 Q116 120 116 257 L116 676 L30 676 L30 697 L354 697 Z M516 854 Q516 831 507.5 810.5 Q499 790 483.5 775 Q468 760 447 751.5 Q426 743 402 743 Q352 743 319.5 775 Q287 807 287 854 Q287 878 295.5 898.5 Q304 919 319.5 934 Q335 949 356 957.5 Q377 966 402 966 Q426 966 447 957.5 Q468 949 483.5 934 Q499 919 507.5 898.5 Q516 878 516 854 Z M402 943 Q380 943 368 917 Q356 891 356 854 Q356 817 368 792.5 Q380 768 402 768 Q424 768 435.5 792.5 Q447 817 447 854 Q447 891 435.5 917 Q424 943 402 943 Z " />
<glyph glyph-name="uring" unicode="&#x16f;" horiz-adv-x="598" d="M473 -9 Q437 -9 409.5 9 Q382 27 374 69 Q368 58 356.5 44.5 Q345 31 327.5 19 Q310 7 286.5 -1 Q263 -9 233 -9 Q188 -9 157.5 3.5 Q127 16 108.5 38 Q90 60 82.5 89 Q75 118 75 151 L75 441 L20 441 L20 461 L213 461 L213 132 Q213 110 216 91.5 Q219 73 226.5 59 Q234 45 247.5 37 Q261 29 282 29 Q322 29 345.5 60.5 Q369 92 369 142 L369 441 L315 441 L315 461 L507 461 L507 75 Q507 55 515.5 44 Q524 33 538 33 Q555 33 567 50 L577 38 Q559 15 532.5 3 Q506 -9 473 -9 Z M414 618 Q414 595 405.5 574.5 Q397 554 381.5 539 Q366 524 345 515.5 Q324 507 300 507 Q250 507 217.5 539 Q185 571 185 618 Q185 642 193.5 662.5 Q202 683 217.5 698 Q233 713 254 721.5 Q275 730 300 730 Q324 730 345 721.5 Q366 713 381.5 698 Q397 683 405.5 662.5 Q414 642 414 618 Z M300 707 Q278 707 266 681 Q254 655 254 618 Q254 581 266 556.5 Q278 532 300 532 Q322 532 333.5 556.5 Q345 581 345 618 Q345 655 333.5 681 Q322 707 300 707 Z " />
<glyph glyph-name="Uhungarumlaut" unicode="&#x170;" horiz-adv-x="736" d="M354 697 L354 676 L268 676 L268 223 Q268 167 282 129 Q296 91 319 68 Q342 45 370.5 35.5 Q399 26 429 26 Q507 26 556.5 78 Q606 130 606 234 L606 676 L520 676 L520 697 L715 697 L715 676 L634 676 L634 246 Q634 128 573.5 59.5 Q513 -9 390 -9 Q257 -9 186.5 55.5 Q116 120 116 257 L116 676 L30 676 L30 697 L354 697 Z M360 898 Q376 915 390.5 925 Q405 935 425 935 Q444 935 456.5 923.5 Q469 912 469 893 Q469 876 457.5 864.5 Q446 853 421 839 L277 757 L223 757 L360 898 Z M535 898 Q551 915 565.5 925 Q580 935 600 935 Q618 935 631 923.5 Q644 912 644 893 Q644 876 632.5 864.5 Q621 853 595 839 L452 757 L398 757 L535 898 Z " />
<glyph glyph-name="uhungarumlaut" unicode="&#x171;" horiz-adv-x="598" d="M473 -9 Q437 -9 409.5 9 Q382 27 374 69 Q368 58 356.5 44.5 Q345 31 327.5 19 Q310 7 286.5 -1 Q263 -9 233 -9 Q188 -9 157.5 3.5 Q127 16 108.5 38 Q90 60 82.5 89 Q75 118 75 151 L75 441 L20 441 L20 461 L213 461 L213 132 Q213 110 216 91.5 Q219 73 226.5 59 Q234 45 247.5 37 Q261 29 282 29 Q322 29 345.5 60.5 Q369 92 369 142 L369 441 L315 441 L315 461 L507 461 L507 75 Q507 55 515.5 44 Q524 33 538 33 Q555 33 567 50 L577 38 Q559 15 532.5 3 Q506 -9 473 -9 Z M251 662 Q267 679 281.5 689 Q296 699 316 699 Q335 699 347.5 687.5 Q360 676 360 657 Q360 640 348.5 628.5 Q337 617 312 603 L168 521 L114 521 L251 662 Z M426 662 Q442 679 456.5 689 Q471 699 491 699 Q509 699 522 687.5 Q535 676 535 657 Q535 640 523.5 628.5 Q512 617 486 603 L343 521 L289 521 L426 662 Z " />
<glyph glyph-name="Uogonek" unicode="&#x172;" horiz-adv-x="736" d="M354 697 L354 676 L268 676 L268 223 Q268 167 282 129 Q296 91 319 68 Q342 45 370.5 35.5 Q399 26 429 26 Q507 26 556.5 78 Q606 130 606 234 L606 676 L520 676 L520 697 L715 697 L715 676 L634 676 L634 246 Q634 164 605 105.5 Q576 47 518 18 Q495 6 479 -9.5 Q463 -25 453 -42.5 Q443 -60 439 -78.5 Q435 -97 435 -115 Q435 -148 450.5 -171.5 Q466 -195 498 -195 Q515 -195 526 -188.5 Q537 -182 547 -173 L555 -184 Q532 -208 502.5 -221.5 Q473 -235 440 -235 Q387 -235 362.5 -207 Q338 -179 338 -142 Q338 -109 361.5 -71.5 Q385 -34 439 -5 Q427 -7 415 -8 Q403 -9 390 -9 Q257 -9 186.5 55.5 Q116 120 116 257 L116 676 L30 676 L30 697 L354 697 Z " />
<glyph glyph-name="uogonek" unicode="&#x173;" horiz-adv-x="598" d="M473 -9 Q437 -9 409.5 9 Q382 27 374 69 Q368 58 356.5 44.5 Q345 31 327.5 19 Q310 7 286.5 -1 Q263 -9 233 -9 Q188 -9 157.5 3.5 Q127 16 108.5 38 Q90 60 82.5 89 Q75 118 75 151 L75 441 L20 441 L20 461 L213 461 L213 132 Q213 110 216 91.5 Q219 73 226.5 59 Q234 45 247.5 37 Q261 29 282 29 Q322 29 345.5 60.5 Q369 92 369 142 L369 441 L315 441 L315 461 L507 461 L507 75 Q507 55 515.5 44 Q524 33 538 33 Q555 33 567 50 L577 38 Q570 30 563 22.5 Q556 15 546 10 Q501 -16 480.5 -51.5 Q460 -87 460 -123 Q460 -156 472 -179.5 Q484 -203 516 -203 Q533 -203 544 -196.5 Q555 -190 565 -181 L573 -192 Q550 -216 524 -229.5 Q498 -243 465 -243 Q412 -243 387.5 -215 Q363 -187 363 -150 Q363 -115 387.5 -77 Q412 -39 473 -9 Z " />
<glyph glyph-name="Wcircumflex" unicode="&#x174;" horiz-adv-x="996" d="M932 630 Q932 659 920 667.5 Q908 676 891 676 L778 676 Q776 681 776 685 Q776 689 776 694 Q776 709 781 723.5 Q786 738 797.5 750 Q809 762 826.5 769 Q844 776 868 776 Q911 776 940 747.5 Q969 719 969 665 Q969 637 957 589 Q945 541 924.5 481 Q904 421 878.5 355 Q853 289 825.5 224 Q798 159 771.5 101 Q745 43 724 0 L674 0 L528 440 L350 0 L296 0 L62 676 L0 676 L0 697 L307 697 L307 676 L220 676 L389 161 L514 480 L446 676 L388 676 L388 697 L693 697 L693 676 L605 676 L772 168 Q804 238 833 311 Q862 384 884 447.5 Q906 511 919 559.5 Q932 608 932 630 Z M658 749 L518 838 L375 750 L356 762 L491 926 L545 926 L678 762 L658 749 Z " />
<glyph glyph-name="wcircumflex" unicode="&#x175;" horiz-adv-x="774" d="M275 441 L275 461 L535 461 L535 441 L472 441 L601 102 Q666 224 689.5 297.5 Q713 371 713 401 Q713 425 702.5 433.5 Q692 442 673 442 L590 442 Q589 447 588 451.5 Q587 456 587 460 Q587 489 608 510 Q629 531 664 531 Q702 531 726.5 506 Q751 481 751 433 Q751 401 733.5 347.5 Q716 294 689.5 233.5 Q663 173 633 111 Q603 49 578 0 L498 0 L392 266 L279 0 L195 0 L16 441 L-39 441 L-39 461 L222 461 L222 441 L165 441 L297 103 L380 296 L324 441 L275 441 Z M535 513 L395 602 L252 514 L233 526 L368 690 L422 690 L555 526 L535 513 Z " />
<glyph glyph-name="Ycircumflex" unicode="&#x176;" horiz-adv-x="671" d="M499 21 L499 0 L176 0 L176 21 L261 21 L261 303 L68 676 L-4 676 L-4 697 L341 697 L341 676 L241 676 L401 355 L570 676 L472 676 L472 697 L674 697 L674 676 L603 676 L413 317 L413 21 L499 21 Z M477 749 L337 838 L194 750 L175 762 L310 926 L364 926 L497 762 L477 749 Z " />
<glyph glyph-name="ycircumflex" unicode="&#x177;" horiz-adv-x="469" d="M11 441 L-42 441 L-42 461 L225 461 L225 441 L159 441 L287 154 L401 441 L339 441 L339 461 L482 461 L482 441 L426 441 L252 0 Q229 -59 210.5 -101 Q192 -143 174 -170.5 Q156 -198 135.5 -211 Q115 -224 87 -224 Q54 -224 34 -205 Q14 -186 14 -156 Q14 -147 17 -136 L115 -136 Q137 -136 151 -131 Q165 -126 176 -112.5 Q187 -99 197 -75.5 Q207 -52 221 -15 L11 441 Z M384 513 L244 602 L101 514 L82 526 L217 690 L271 690 L404 526 L384 513 Z " />
<glyph glyph-name="Ydieresis" unicode="&#x178;" horiz-adv-x="671" d="M499 21 L499 0 L176 0 L176 21 L261 21 L261 303 L68 676 L-4 676 L-4 697 L341 697 L341 676 L241 676 L401 355 L570 676 L472 676 L472 697 L674 697 L674 676 L603 676 L413 317 L413 21 L499 21 Z M525 838 Q525 810 506 790.5 Q487 771 459 771 Q431 771 411.5 790.5 Q392 810 392 838 Q392 865 411.5 884.5 Q431 904 459 904 Q487 904 506 884.5 Q525 865 525 838 Z M318 838 Q318 810 298 790.5 Q278 771 251 771 Q222 771 203 790.5 Q184 810 184 838 Q184 865 203 884.5 Q222 904 251 904 Q278 904 298 884.5 Q318 865 318 838 Z " />
<glyph glyph-name="Zacute" unicode="&#x179;" horiz-adv-x="632" d="M200 530 Q191 519 174.5 510 Q158 501 132 501 Q97 501 72.5 522.5 Q48 544 48 584 Q48 633 88.5 665 Q129 697 206 697 L596 697 L596 685 L190 21 L361 21 Q409 21 443.5 34.5 Q478 48 502 74.5 Q526 101 540.5 140.5 Q555 180 564 232 L588 232 L572 0 L33 0 L33 21 L436 676 L207 676 Q172 676 149.5 670 Q127 664 111 647 L200 530 Z M226 757 L353 898 Q368 915 384.5 925 Q401 935 422 935 Q445 935 456.5 922.5 Q468 910 468 893 Q468 876 457 863.5 Q446 851 420 837 L269 757 L226 757 Z " />
<glyph glyph-name="zacute" unicode="&#x17a;" horiz-adv-x="471" d="M188 441 Q157 441 134 439 Q111 437 91 430 L137 333 Q129 325 116.5 320 Q104 315 87 315 Q61 315 43 331.5 Q25 348 25 374 Q25 397 35.5 413.5 Q46 430 64.5 440.5 Q83 451 108 456 Q133 461 161 461 L449 461 L449 452 L168 19 L307 19 Q357 19 383.5 58.5 Q410 98 419 163 L434 163 L434 0 L21 0 L21 16 L299 441 L188 441 Z M144 521 L271 662 Q286 679 302.5 689 Q319 699 340 699 Q363 699 374.5 686.5 Q386 674 386 657 Q386 640 375 627.5 Q364 615 338 601 L187 521 L144 521 Z " />
<glyph glyph-name="Zdotaccent" unicode="&#x17b;" horiz-adv-x="632" d="M200 530 Q191 519 174.5 510 Q158 501 132 501 Q97 501 72.5 522.5 Q48 544 48 584 Q48 633 88.5 665 Q129 697 206 697 L596 697 L596 685 L190 21 L361 21 Q409 21 443.5 34.5 Q478 48 502 74.5 Q526 101 540.5 140.5 Q555 180 564 232 L588 232 L572 0 L33 0 L33 21 L436 676 L207 676 Q172 676 149.5 670 Q127 664 111 647 L200 530 Z M393 838 Q393 809 373.5 789.5 Q354 770 325 770 Q297 770 277.5 789.5 Q258 809 258 838 Q258 866 277.5 885.5 Q297 905 325 905 Q354 905 373.5 885.5 Q393 866 393 838 Z " />
<glyph glyph-name="zdotaccent" unicode="&#x17c;" horiz-adv-x="471" d="M188 441 Q157 441 134 439 Q111 437 91 430 L137 333 Q129 325 116.5 320 Q104 315 87 315 Q61 315 43 331.5 Q25 348 25 374 Q25 397 35.5 413.5 Q46 430 64.5 440.5 Q83 451 108 456 Q133 461 161 461 L449 461 L449 452 L168 19 L307 19 Q357 19 383.5 58.5 Q410 98 419 163 L434 163 L434 0 L21 0 L21 16 L299 441 L188 441 Z M321 602 Q321 573 301.5 553.5 Q282 534 253 534 Q225 534 205.5 553.5 Q186 573 186 602 Q186 630 205.5 649.5 Q225 669 253 669 Q282 669 301.5 649.5 Q321 630 321 602 Z " />
<glyph glyph-name="Zcaron" unicode="&#x17d;" horiz-adv-x="632" d="M200 530 Q191 519 174.5 510 Q158 501 132 501 Q97 501 72.5 522.5 Q48 544 48 584 Q48 633 88.5 665 Q129 697 206 697 L596 697 L596 685 L190 21 L361 21 Q409 21 443.5 34.5 Q478 48 502 74.5 Q526 101 540.5 140.5 Q555 180 564 232 L588 232 L572 0 L33 0 L33 21 L436 676 L207 676 Q172 676 149.5 670 Q127 664 111 647 L200 530 Z M484 919 L355 757 L299 757 L167 919 L190 933 L327 846 L461 934 L484 919 Z " />
<glyph glyph-name="zcaron" unicode="&#x17e;" horiz-adv-x="471" d="M188 441 Q157 441 134 439 Q111 437 91 430 L137 333 Q129 325 116.5 320 Q104 315 87 315 Q61 315 43 331.5 Q25 348 25 374 Q25 397 35.5 413.5 Q46 430 64.5 440.5 Q83 451 108 456 Q133 461 161 461 L449 461 L449 452 L168 19 L307 19 Q357 19 383.5 58.5 Q410 98 419 163 L434 163 L434 0 L21 0 L21 16 L299 441 L188 441 Z M396 683 L267 521 L211 521 L79 683 L102 697 L239 610 L373 698 L396 683 Z " />
<glyph glyph-name="florin" unicode="&#x192;" horiz-adv-x="650" d="M182 320 L259 320 L269 384 Q277 436 298 485 Q319 534 352.5 571 Q386 608 431 630.5 Q476 653 531 653 Q556 653 575 645.5 Q594 638 606.5 625.5 Q619 613 625.5 597 Q632 581 632 564 Q632 528 616.5 507.5 Q601 487 583 479 L501 623 Q484 623 470.5 605 Q457 587 446.5 560 Q436 533 428.5 500.5 Q421 468 416 438 L397 320 L515 320 L509 293 L393 293 L363 106 Q353 42 332.5 -13.5 Q312 -69 281.5 -110.5 Q251 -152 210 -176 Q169 -200 118 -200 Q93 -200 74 -192.5 Q55 -185 42 -172.5 Q29 -160 22.5 -144 Q16 -128 16 -111 Q16 -75 31.5 -54.5 Q47 -34 66 -26 L147 -170 Q162 -170 172.5 -153 Q183 -136 190.5 -110 Q198 -84 203 -52.5 Q208 -21 213 9 L256 293 L177 293 L182 320 Z " />
<glyph glyph-name="uni0218" unicode="&#x218;" horiz-adv-x="586" d="M302 710 Q359 710 400 696.5 Q441 683 467.5 662 Q494 641 506.5 615.5 Q519 590 519 566 Q519 528 496.5 506 Q474 484 441 484 Q416 484 399 493.5 Q382 503 373 515 L468 624 Q443 653 404.5 669.5 Q366 686 315 686 Q255 686 216 658 Q177 630 177 581 Q177 535 211 502 Q245 469 329 435 Q388 412 429 388 Q470 364 496 337 Q522 310 533.5 279 Q545 248 545 212 Q545 159 522 118 Q499 77 461 49 Q423 21 372 6 Q321 -9 266 -9 Q215 -9 174.5 3 Q134 15 106 35 Q78 55 63 81 Q48 107 48 134 Q48 174 71.5 195.5 Q95 217 126 217 Q152 217 169.5 207.5 Q187 198 197 185 L105 74 Q134 47 172 32 Q210 17 268 17 Q297 17 325 25 Q353 33 375 49 Q397 65 410.5 89 Q424 113 424 145 Q424 165 417 184.5 Q410 204 390.5 224.5 Q371 245 336 266.5 Q301 288 244 312 Q196 332 160.5 352.5 Q125 373 101.5 397 Q78 421 66.5 450 Q55 479 55 516 Q55 560 74 595.5 Q93 631 126 656.5 Q159 682 204 696 Q249 710 302 710 Z M244 -239 Q268 -219 277 -204 Q286 -189 286 -177 Q286 -169 277 -163.5 Q268 -158 257.5 -150.5 Q247 -143 238.5 -132 Q230 -121 230 -101 Q230 -73 248 -58.5 Q266 -44 289 -44 Q312 -44 332 -60 Q352 -76 352 -109 Q352 -147 328 -186 Q304 -225 260 -257 L244 -239 Z " />
<glyph glyph-name="uni0219" unicode="&#x219;" horiz-adv-x="430" d="M223 471 Q300 471 339.5 442 Q379 413 379 377 Q379 348 362 332.5 Q345 317 322 317 Q302 317 288.5 324 Q275 331 269 338 L334 408 Q322 422 298 435 Q274 448 239 448 Q197 448 173 429.5 Q149 411 149 382 Q149 350 174.5 330 Q200 310 254 289 Q324 263 360 228.5 Q396 194 396 143 Q396 105 381 76.5 Q366 48 339.5 29 Q313 10 277.5 0.5 Q242 -9 200 -9 Q170 -9 141.5 -3.5 Q113 2 90 14 Q67 26 53 43.5 Q39 61 39 85 Q39 114 56.5 130.5 Q74 147 97 147 Q117 147 128.5 140 Q140 133 147 123 L81 52 Q101 33 130 24 Q159 15 188 15 Q230 15 259.5 33 Q289 51 289 84 Q289 99 283.5 112 Q278 125 264 137.5 Q250 150 227 162 Q204 174 169 188 Q40 237 40 327 Q40 396 91 433.5 Q142 471 223 471 Z M166 -239 Q190 -219 199 -204 Q208 -189 208 -177 Q208 -169 199 -163.5 Q190 -158 179.5 -150.5 Q169 -143 160.5 -132 Q152 -121 152 -101 Q152 -73 170 -58.5 Q188 -44 211 -44 Q234 -44 254 -60 Q274 -76 274 -109 Q274 -147 250 -186 Q226 -225 182 -257 L166 -239 Z " />
<glyph glyph-name="uni021A" unicode="&#x21a;" horiz-adv-x="671" d="M636 697 L636 479 L615 479 L610 508 Q602 555 586 587.5 Q570 620 548 639.5 Q526 659 498 667.5 Q470 676 438 676 L411 676 L411 21 L497 21 L497 0 L173 0 L173 21 L259 21 L259 676 L232 676 Q198 676 169 667.5 Q140 659 118 639.5 Q96 620 81 587.5 Q66 555 60 508 L56 479 L34 479 L34 697 L636 697 Z M287 -239 Q311 -219 320 -204 Q329 -189 329 -177 Q329 -169 320 -163.5 Q311 -158 300.5 -150.5 Q290 -143 281.5 -132 Q273 -121 273 -101 Q273 -73 291 -58.5 Q309 -44 332 -44 Q355 -44 375 -60 Q395 -76 395 -109 Q395 -147 371 -186 Q347 -225 303 -257 L287 -239 Z " />
<glyph glyph-name="uni021B" unicode="&#x21b;" horiz-adv-x="343" d="M341 44 Q318 17 285 4 Q252 -9 212 -9 Q183 -9 157.5 -1 Q132 7 113 26 Q94 45 83 75 Q72 105 72 150 L72 441 L21 441 L21 461 L42 461 Q69 461 92.5 472 Q116 483 134.5 502 Q153 521 166 545.5 Q179 570 186 596 L193 622 L210 622 L210 461 L325 461 L325 441 L210 441 L210 110 Q210 65 228.5 47.5 Q247 30 272 30 Q288 30 303.5 37 Q319 44 330 55 L341 44 Z M132 -239 Q156 -219 165 -204 Q174 -189 174 -177 Q174 -169 165 -163.5 Q156 -158 145.5 -150.5 Q135 -143 126.5 -132 Q118 -121 118 -101 Q118 -73 136 -58.5 Q154 -44 177 -44 Q200 -44 220 -60 Q240 -76 240 -109 Q240 -147 216 -186 Q192 -225 148 -257 L132 -239 Z " />
<glyph glyph-name="dotlessj" unicode="&#x237;" horiz-adv-x="300" d="M-13 -217 Q9 -213 26.5 -204 Q44 -195 56.5 -176.5 Q69 -158 75.5 -129 Q82 -100 82 -56 L82 441 L16 441 L16 461 L220 461 L220 32 Q220 -25 202.5 -72 Q185 -119 154 -153.5 Q123 -188 81 -208.5 Q39 -229 -9 -233 L-13 -217 Z " />
<glyph glyph-name="circumflex" unicode="&#x2c6;" horiz-adv-x="410" d="M345 513 L205 602 L62 514 L43 526 L178 690 L232 690 L365 526 L345 513 Z " />
<glyph glyph-name="caron" unicode="&#x2c7;" horiz-adv-x="410" d="M366 683 L237 521 L181 521 L49 683 L72 697 L209 610 L343 698 L366 683 Z " />
<glyph glyph-name="breve" unicode="&#x2d8;" horiz-adv-x="410" d="M204 602 Q253 602 284.5 626 Q316 650 327 686 L354 686 Q353 655 344 625.5 Q335 596 317 573 Q299 550 271 536 Q243 522 204 522 Q165 522 137.5 536 Q110 550 92 573 Q74 596 65 625.5 Q56 655 55 686 L82 686 Q91 650 123 626 Q155 602 204 602 Z " />
<glyph glyph-name="dotaccent" unicode="&#x2d9;" horiz-adv-x="410" d="M272 602 Q272 573 252.5 553.5 Q233 534 204 534 Q176 534 156.5 553.5 Q137 573 137 602 Q137 630 156.5 649.5 Q176 669 204 669 Q233 669 252.5 649.5 Q272 630 272 602 Z " />
<glyph glyph-name="ring" unicode="&#x2da;" horiz-adv-x="410" d="M313 618 Q313 595 304.5 574.5 Q296 554 280.5 539 Q265 524 244 515.5 Q223 507 199 507 Q149 507 116.5 539 Q84 571 84 618 Q84 642 92.5 662.5 Q101 683 116.5 698 Q132 713 153 721.5 Q174 730 199 730 Q223 730 244 721.5 Q265 713 280.5 698 Q296 683 304.5 662.5 Q313 642 313 618 Z M199 707 Q177 707 165 681 Q153 655 153 618 Q153 581 165 556.5 Q177 532 199 532 Q221 532 232.5 556.5 Q244 581 244 618 Q244 655 232.5 681 Q221 707 199 707 Z " />
<glyph glyph-name="ogonek" unicode="&#x2db;" horiz-adv-x="410" d="M297 18 Q250 -5 230.5 -42 Q211 -79 211 -115 Q211 -148 223 -171.5 Q235 -195 267 -195 Q284 -195 295 -188.5 Q306 -182 316 -173 L324 -184 Q301 -208 275 -221.5 Q249 -235 216 -235 Q163 -235 138.5 -207 Q114 -179 114 -142 Q114 -120 123 -96.5 Q132 -73 153.5 -50.5 Q175 -28 210 -8.5 Q245 11 297 26 L297 18 Z " />
<glyph glyph-name="tilde" unicode="&#x2dc;" horiz-adv-x="410" d="M383 666 Q378 609 348 573 Q318 537 267 537 Q245 537 224.5 544 Q204 551 184.5 560 Q165 569 145.5 576 Q126 583 107 583 Q90 583 71.5 573.5 Q53 564 44 535 L27 535 Q32 589 63 625.5 Q94 662 143 662 Q165 662 186 655 Q207 648 227 639.5 Q247 631 266 624 Q285 617 304 617 Q324 617 340.5 628 Q357 639 367 666 L383 666 Z " />
</font>
</svg>
